<?xml version="1.0" standalone="no"?>
<!DOCTYPE svg PUBLIC "-//W3C//DTD SVG 1.1//EN" "http://www.w3.org/Graphics/SVG/1.1/DTD/svg11.dtd" >
<svg xmlns="http://www.w3.org/2000/svg">
<metadata></metadata>
<defs>
<font id="baltothin_italic" horiz-adv-x="993" >
<font-face units-per-em="2048" ascent="1659" descent="-389" />
<missing-glyph horiz-adv-x="368" />
<glyph horiz-adv-x="0" />
<glyph horiz-adv-x="682" />
<glyph unicode=" "  horiz-adv-x="368" />
<glyph unicode="&#x09;" horiz-adv-x="368" />
<glyph unicode="&#xa0;" horiz-adv-x="368" />
<glyph unicode="!" horiz-adv-x="409" d="M16 0l31 145h90l-31 -145h-90zM102 293l244 1141h41l-244 -1141h-41z" />
<glyph unicode="&#x22;" horiz-adv-x="491" d="M195 1016l90 418h41l-90 -418h-41zM399 1016l90 418h41l-90 -418h-41z" />
<glyph unicode="#" horiz-adv-x="960" d="M-25 418l15 37h200l164 454h-200l12 37h201l151 418h41l-151 -418h337l152 418h41l-152 -418h201l-14 -37h-199l-164 -454h199l-12 -37h-199l-152 -418h-40l151 418h-338l-151 -418h-41l151 418h-203zM231 455h338l164 454h-338z" />
<glyph unicode="$" horiz-adv-x="991" d="M-14 416l39 2q23 -345 321 -393l135 637l-39 20q-146 78 -208 160t-62 178q0 143 109 243.5t294 100.5q22 0 54 -4l53 248h41l-53 -254q121 -28 199.5 -125.5t91.5 -247.5l-39 -4q-19 144 -85.5 230.5t-174.5 109.5l-136 -633l64 -35q149 -80 206.5 -156t57.5 -182 q0 -148 -119 -239.5t-297 -91.5q-41 0 -61 2l-47 -226h-41l49 232q-155 24 -248.5 131t-103.5 297zM213 1024q0 -88 56 -161t194 -146l26 -15l132 623q-14 2 -48 2q-167 0 -263.5 -87t-96.5 -216zM385 18q18 -2 55 -2q157 0 265 81t108 210q0 100 -52 166.5t-192 140.5 l-51 27z" />
<glyph unicode="%" horiz-adv-x="1441" d="M111 954q0 102 45 200.5t128 164t179 65.5q110 0 178 -78.5t68 -213.5q0 -102 -45.5 -200.5t-128.5 -164t-179 -65.5q-110 0 -177.5 78.5t-67.5 213.5zM152 950q0 -119 55.5 -185.5t150.5 -66.5q101 0 183 82q58 58 92.5 144.5t34.5 171.5q0 119 -56 185.5t-151 66.5 q-100 0 -182 -82q-58 -58 -92.5 -144.5t-34.5 -171.5zM164 0l1071 1364h49l-1071 -1364h-49zM739 272q0 102 45.5 200.5t128.5 164t179 65.5q110 0 177.5 -78.5t67.5 -213.5q0 -102 -45 -200.5t-128 -164t-179 -65.5q-110 0 -178 78.5t-68 213.5zM780 268q0 -119 56 -185.5 t151 -66.5q100 0 182 82q58 58 92.5 144.5t34.5 171.5q0 119 -55.5 185.5t-150.5 66.5q-101 0 -183 -82q-58 -58 -92.5 -144.5t-34.5 -171.5z" />
<glyph unicode="&#x26;" horiz-adv-x="1296" d="M0 346q0 344 399 469q-53 148 -53 260q0 172 90.5 275.5t247.5 103.5q115 0 187.5 -66t72.5 -169q0 -142 -110.5 -242.5t-382.5 -183.5q112 -286 376 -600q204 189 316 501h43q-118 -335 -332 -530q16 -20 23 -27q50 -56 93.5 -76t102.5 -20h29l-8 -41h-29 q-63 0 -113.5 24.5t-105.5 86.5q-11 11 -23 26q-190 -157 -399 -157q-194 0 -309 104.5t-115 261.5zM41 352q0 -147 103.5 -241.5t283.5 -94.5q189 0 369 150q-268 321 -385 614q-190 -59 -280.5 -170t-90.5 -258zM387 1079q0 -112 51 -252q135 41 227 85t143.5 93t73 98.5 t21.5 110.5q0 92 -59 147.5t-164 55.5q-133 0 -213 -92.5t-80 -245.5z" />
<glyph unicode="'" horiz-adv-x="286" d="M195 1016l90 418h41l-90 -418h-41z" />
<glyph unicode="(" horiz-adv-x="561" d="M78 410q0 288 149.5 592t425.5 554h45q-579 -552 -579 -1150q0 -163 48 -342.5t142 -333.5h-41q-93 148 -141.5 327.5t-48.5 352.5z" />
<glyph unicode=")" horiz-adv-x="561" d="M-150 -270q580 553 580 1151q0 162 -48 341.5t-142 333.5h41q93 -148 141.5 -327.5t48.5 -351.5q0 -289 -149.5 -593t-425.5 -554h-46z" />
<glyph unicode="*" horiz-adv-x="638" d="M160 1214l14 37l229 -88l56 271h41l-64 -271l266 90l13 -36l-271 -82l123 -215l-35 -19l-116 221l-197 -221l-29 25l197 213z" />
<glyph unicode="+" horiz-adv-x="1044" d="M109 664l8 36h391l82 390h41l-82 -390h391l-8 -36h-391l-84 -392h-41l84 392h-391z" />
<glyph unicode="," horiz-adv-x="274" d="M-92 -195l90 195h-49l31 143h90l-31 -143l-90 -195h-41z" />
<glyph unicode="-" horiz-adv-x="647" d="M82 723l8 37h504l-8 -37h-504z" />
<glyph unicode="." horiz-adv-x="274" d="M-51 0l31 143h90l-31 -143h-90z" />
<glyph unicode="/" horiz-adv-x="710" d="M-227 -287l1069 1884h45l-1069 -1884h-45z" />
<glyph unicode="0" horiz-adv-x="1171" d="M61 496q0 133 32.5 265t92 243t138.5 197t178 134.5t203 48.5q192 0 300.5 -133t108.5 -383q0 -167 -51 -328.5t-136.5 -285t-205.5 -199t-250 -75.5q-192 0 -301 133t-109 383zM102 498q0 -240 96.5 -361t276.5 -121q174 0 326 152q124 122 198 311t74 387 q0 240 -96.5 361t-276.5 121q-173 0 -325 -152q-124 -122 -198.5 -311t-74.5 -387z" />
<glyph unicode="1" horiz-adv-x="718" d="M-92 0l8 37h299l270 1274q-66 -45 -160 -88.5t-169 -61.5l6 37q170 46 340 166h37l-283 -1327h285l-9 -37h-624z" />
<glyph unicode="2" horiz-adv-x="962" d="M-82 0l8 37l697 567q94 76 156.5 141t95 120.5t45 101t12.5 96.5q0 119 -89.5 202t-236.5 83q-148 0 -274 -100.5t-191 -278.5l-39 10q66 189 202 297t306 108q159 0 261 -92t102 -229q0 -120 -67.5 -226.5t-256.5 -261.5l-661 -538h788l-8 -37h-850z" />
<glyph unicode="3" horiz-adv-x="1028" d="M-20 385h38q9 -176 117 -272.5t291 -96.5q190 0 314 106t124 263q0 126 -92 206.5t-264 80.5h-98l8 37h127q180 0 303 95t123 236q0 134 -97 221t-251 87q-167 0 -282 -93.5t-173 -265.5l-37 10q57 182 183.5 283.5t312.5 101.5q167 0 276 -96.5t109 -238.5 q0 -147 -102 -242.5t-259 -118.5q118 -26 186 -107t68 -194q0 -176 -139 -291.5t-344 -115.5q-196 0 -314.5 107t-127.5 298z" />
<glyph unicode="4" horiz-adv-x="1015" d="M-55 367l8 36l954 961h41l-205 -961h191l-8 -36h-191l-78 -367h-41l78 367h-749zM6 403h696l189 891z" />
<glyph unicode="5" horiz-adv-x="1038" d="M-2 354l39 2q12 -161 113.5 -250.5t269.5 -89.5q132 0 239.5 66.5t166.5 178.5t59 245q0 153 -89.5 245.5t-240.5 92.5q-97 0 -209 -59t-221 -175l-39 4l195 750h737l-8 -37h-699l-170 -655q203 209 416 209q170 0 269.5 -105t99.5 -274q0 -140 -65.5 -259.5t-183.5 -191 t-261 -71.5q-180 0 -293 101t-125 273z" />
<glyph unicode="6" horiz-adv-x="1103" d="M55 471q0 131 30.5 263.5t88.5 248.5t135 206t177 142.5t208 52.5q139 0 236 -85.5t119 -229.5l-41 -6q-21 131 -105 208t-213 77q-113 0 -218 -67t-182 -177.5t-128 -254.5t-64 -296q59 138 191.5 226.5t298.5 88.5q118 0 212.5 -57.5t144.5 -149.5t50 -198 q0 -107 -39.5 -198t-107 -153t-159 -97t-193.5 -35q-196 0 -318.5 130t-122.5 361zM104 410q0 -163 109.5 -278.5t286.5 -115.5q122 0 225 55t165 156.5t62 227.5q0 157 -104 266.5t-264 109.5q-124 0 -235.5 -60t-178 -157.5t-66.5 -203.5z" />
<glyph unicode="7" horiz-adv-x="935" d="M160 1327l8 37h885l-9 -37q-563 -529 -823 -1327h-45q255 794 823 1327h-839z" />
<glyph unicode="8" horiz-adv-x="1073" d="M-8 346q0 142 119 248.5t311 126.5q-103 30 -177.5 114.5t-74.5 200.5q0 140 132 244t339 104q185 0 296.5 -94t111.5 -235q0 -90 -57.5 -167t-144 -123t-183.5 -60q125 -30 206.5 -119.5t81.5 -206.5q0 -169 -147.5 -284t-360.5 -115q-200 0 -326 100t-126 266zM33 342 q0 -149 114 -237.5t302 -88.5q197 0 329.5 104.5t132.5 262.5q0 129 -108 219t-299 90q-109 0 -199.5 -29.5t-149 -78.5t-90.5 -111.5t-32 -130.5zM211 1032q0 -126 101.5 -214.5t260.5 -88.5q114 0 213.5 42.5t160.5 119t61 168.5q0 125 -100 207t-267 82q-192 0 -311 -93 t-119 -223z" />
<glyph unicode="9" horiz-adv-x="1103" d="M8 301l43 10q27 -138 120.5 -216.5t252.5 -78.5q110 0 211.5 56t180 157t129.5 250.5t61 327.5q-62 -145 -197.5 -232.5t-300.5 -87.5q-171 0 -286.5 113t-115.5 291q0 143 69.5 256.5t186 175t256.5 61.5q185 0 307 -133.5t122 -353.5q0 -212 -50 -387t-136 -290 t-199.5 -177.5t-241.5 -62.5q-167 0 -275.5 86.5t-136.5 234.5zM150 893q0 -159 101 -264t261 -105q120 0 233 59t183.5 159.5t70.5 211.5q0 102 -47.5 191.5t-137 146t-200.5 56.5q-124 0 -229.5 -55.5t-170 -161t-64.5 -238.5z" />
<glyph unicode=":" horiz-adv-x="356" d="M-10 0l30 143h91l-31 -143h-90zM113 580l30 143h90l-30 -143h-90z" />
<glyph unicode=";" horiz-adv-x="356" d="M-51 -195l90 195h-49l30 143h91l-31 -143l-90 -195h-41zM113 580l30 143h90l-30 -143h-90z" />
<glyph unicode="&#x3c;" horiz-adv-x="1044" d="M78 653l8 37l920 408l-13 -49l-858 -381l699 -381l-9 -41z" />
<glyph unicode="=" horiz-adv-x="1044" d="M90 442l8 37h766l-8 -37h-766zM178 862l8 37h766l-8 -37h-766z" />
<glyph unicode="&#x3e;" horiz-adv-x="1044" d="M39 246l12 49l858 381l-698 381l8 41l748 -408l-9 -37z" />
<glyph unicode="?" horiz-adv-x="909" d="M115 1022q55 204 178 318t285 114q158 0 253 -93.5t95 -252.5q0 -212 -142 -352t-376 -146l-68 -317h-41l76 354h24q146 0 257.5 62t170 167.5t58.5 235.5q0 145 -83 225t-224 80q-149 0 -262 -107.5t-164 -297.5zM213 0l31 145h90l-31 -145h-90z" />
<glyph unicode="@" horiz-adv-x="1761" d="M39 426q0 178 70 344t190 290t291 198.5t362 74.5q325 0 516 -176.5t191 -476.5q0 -142 -38 -268.5t-98 -211t-134.5 -133.5t-147.5 -49q-83 0 -124.5 60t-22.5 174q-58 -107 -152 -170.5t-209 -63.5q-140 0 -227.5 97t-87.5 270q0 152 56.5 280.5t159 205.5t228.5 77 q127 0 212 -81.5t100 -227.5l59 283h41l-131 -609q-28 -132 0.5 -195t99.5 -63q63 0 129 46.5t121 126.5t90 199.5t35 252.5q0 284 -179.5 450t-486.5 166q-149 0 -285.5 -46.5t-242 -129t-184 -191.5t-119.5 -238.5t-41 -264.5q0 -327 196 -512.5t545 -185.5q138 0 299 47 l10 -37q-158 -47 -309 -47q-364 0 -573 195.5t-209 539.5zM459 393q0 -165 75.5 -251.5t204.5 -86.5q140 0 250 113q71 73 111.5 179.5t40.5 225.5q0 165 -75.5 251.5t-205.5 86.5q-141 0 -250 -112q-71 -72 -111 -179.5t-40 -226.5z" />
<glyph unicode="A" horiz-adv-x="1136" d="M-104 0l811 1434h47l200 -1434h-39l-71 516h-611l-290 -516h-47zM254 553h584l-117 827z" />
<glyph unicode="B" horiz-adv-x="1142" d="M10 0l305 1434h396q178 0 273 -85t95 -229q0 -143 -99.5 -248t-256.5 -135q117 -26 190.5 -110.5t73.5 -190.5q0 -87 -32.5 -165t-94 -139t-161 -96.5t-224.5 -35.5h-465zM59 37h420q116 0 208 33t147 89t83.5 124.5t28.5 144.5q0 123 -89.5 206t-258.5 83h-393zM211 754 h385q194 0 318 108t124 252q0 133 -82 208t-247 75h-361z" />
<glyph unicode="C" horiz-adv-x="1236" d="M82 504q0 167 39 317.5t107 264t157.5 197.5t193.5 127.5t212 43.5q177 0 285.5 -109.5t133.5 -302.5l-36 -4q-25 180 -122.5 279.5t-260.5 99.5q-105 0 -207 -46.5t-189 -131.5q-125 -125 -198.5 -314t-73.5 -415q0 -141 46.5 -250.5t145.5 -176.5t238 -67 q157 0 301.5 105.5t222.5 277.5l35 -12q-81 -185 -235.5 -296t-323.5 -111q-148 0 -256.5 70.5t-161.5 187.5t-53 266z" />
<glyph unicode="D" horiz-adv-x="1267" d="M10 0l305 1434h281q302 0 456 -138t154 -395q0 -266 -102.5 -470t-295.5 -317.5t-448 -113.5h-350zM59 37h306q169 0 312 56.5t247 160.5q116 116 177.5 280t61.5 361q0 249 -142.5 375.5t-424.5 126.5h-248z" />
<glyph unicode="E" horiz-adv-x="1107" d="M10 0l305 1434h832l-8 -37h-791l-135 -641h696l-6 -37h-698l-146 -682h791l-8 -37h-832z" />
<glyph unicode="F" horiz-adv-x="1005" d="M10 0l305 1434h791l-8 -37h-750l-139 -660h643l-8 -37h-643l-150 -700h-41z" />
<glyph unicode="G" horiz-adv-x="1306" d="M82 559q0 132 29 260.5t88.5 243t141 202t195 138.5t242.5 51q105 0 194.5 -41t155.5 -131t84 -217l-36 -6q-28 182 -137 270t-265 88q-223 0 -393 -170q-122 -122 -190 -305.5t-68 -376.5q0 -163 46.5 -285.5t143 -193t232.5 -70.5q206 0 352.5 132.5t200.5 386.5l20 96 h-428l8 37h469l-141 -668h-41l62 289q-76 -140 -202 -224.5t-308 -84.5q-217 0 -336 158.5t-119 420.5z" />
<glyph unicode="H" horiz-adv-x="1243" d="M10 0l305 1434h41l-145 -680h854l145 680h41l-305 -1434h-41l154 717h-854l-154 -717h-41z" />
<glyph unicode="I" horiz-adv-x="376" d="M25 0l305 1434h41l-305 -1434h-41z" />
<glyph unicode="J" horiz-adv-x="735" d="M-92 94l26 27q43 -48 113.5 -76.5t136.5 -28.5q227 0 283 265l246 1153h41l-246 -1153q-64 -301 -328 -301q-74 0 -148.5 31t-123.5 83z" />
<glyph unicode="K" horiz-adv-x="1163" d="M10 0l305 1434h41l-202 -951l1003 951h55l-647 -611l383 -823h-43l-368 795l-396 -375l-90 -420h-41z" />
<glyph unicode="L" horiz-adv-x="1017" d="M10 0l305 1434h41l-297 -1397h752l-8 -37h-793z" />
<glyph unicode="M" horiz-adv-x="1499" d="M10 0l305 1434h62l237 -1387l828 1387h65l-305 -1434h-41l293 1382l-825 -1382h-45l-238 1386l-295 -1386h-41z" />
<glyph unicode="N" horiz-adv-x="1236" d="M10 0l305 1434h52l542 -1381l295 1381h41l-305 -1434h-51l-543 1380l-295 -1380h-41z" />
<glyph unicode="O" horiz-adv-x="1339" d="M82 504q0 167 38.5 317.5t107 264.5t159 197.5t197 127t217.5 43.5q153 0 262 -70.5t161 -187.5t52 -266q0 -167 -38.5 -317.5t-107 -264.5t-159 -197.5t-197 -127t-217.5 -43.5q-153 0 -262 70.5t-161 187.5t-52 266zM123 510q0 -144 46.5 -253.5t146 -175t241.5 -65.5 q110 0 215 47.5t193 135.5q124 124 197 312t73 413q0 144 -46.5 253t-146 174.5t-241.5 65.5q-110 0 -215 -47t-193 -135q-124 -124 -197 -312t-73 -413z" />
<glyph unicode="P" horiz-adv-x="1124" d="M10 0l305 1434h418q197 0 305.5 -92.5t108.5 -245.5q0 -98 -33 -181t-97 -147t-167.5 -100.5t-235.5 -36.5h-430l-133 -631h-41zM193 668h421q122 0 217 32.5t154 91t89 135.5t30 169q0 138 -95.5 219.5t-275.5 81.5h-385z" />
<glyph unicode="Q" horiz-adv-x="1339" d="M82 504q0 167 38.5 317.5t107 264.5t159 197.5t197 127t217.5 43.5q153 0 262 -70.5t161 -187.5t52 -266q0 -325 -136 -564.5t-349 -334.5l4 -19q30 -111 71 -155.5t107 -44.5q34 0 74 8l-9 -37q-40 -8 -73 -8q-76 0 -126 51.5t-83 171.5l-4 16q-93 -34 -195 -34 q-153 0 -262 70.5t-161 187.5t-52 266zM123 510q0 -144 46.5 -253.5t146 -175t241.5 -65.5q110 0 215 47.5t193 135.5q124 124 197 312t73 413q0 144 -46.5 253t-146 174.5t-241.5 65.5q-110 0 -215 -47t-193 -135q-124 -124 -197 -312t-73 -413z" />
<glyph unicode="R" horiz-adv-x="1132" d="M10 0l305 1434h394q194 0 301.5 -94t107.5 -259q0 -173 -135.5 -291t-349.5 -128l305 -662h-43l-305 659h-400l-139 -659h-41zM199 696h393q220 0 352.5 111.5t132.5 267.5t-92.5 239t-277.5 83h-359z" />
<glyph unicode="S" horiz-adv-x="1095" d="M16 444l39 2q12 -218 126.5 -324t320.5 -106q180 0 288.5 92.5t108.5 229.5q0 105 -67 181.5t-236 168.5l-133 72q-132 71 -190 152t-58 190q0 153 113.5 252.5t300.5 99.5q176 0 291 -108t133 -302l-39 -4q-19 181 -121.5 279t-267.5 98t-268 -88.5t-103 -222.5 q0 -96 53 -170.5t176 -140.5l133 -72q173 -93 248.5 -180t75.5 -197q0 -161 -120 -263.5t-322 -102.5q-218 0 -345 116.5t-137 347.5z" />
<glyph unicode="T" horiz-adv-x="999" d="M160 1397l8 37h987l-8 -37h-473l-297 -1397h-41l297 1397h-473z" />
<glyph unicode="U" horiz-adv-x="1196" d="M100 498l199 936h41l-199 -936q-17 -80 -17 -147q0 -125 59 -208q91 -127 304 -127q190 0 316.5 122t177.5 360l199 936h41l-199 -936q-54 -256 -190.5 -387t-348.5 -131q-225 0 -330 138q-70 93 -70 232q0 68 17 148z" />
<glyph unicode="V" horiz-adv-x="1128" d="M205 1434h39l186 -1375l772 1375h45l-805 -1434h-43z" />
<glyph unicode="W" horiz-adv-x="1751" d="M223 1434h41l74 -1362l672 1362h49l92 -1371l657 1371h43l-688 -1434h-47l-92 1370l-676 -1370h-47z" />
<glyph unicode="X" horiz-adv-x="1169" d="M-98 0l676 752l-326 682h45l309 -652l582 652h53l-616 -686l356 -748h-45l-340 717l-641 -717h-53z" />
<glyph unicode="Y" horiz-adv-x="1077" d="M186 1434h41l289 -854l651 854h47l-686 -899l-112 -535h-41l114 539z" />
<glyph unicode="Z" horiz-adv-x="1038" d="M-94 0l8 37l1151 1360h-846l8 37h897l-8 -37l-1151 -1360h889l-8 -37h-940z" />
<glyph unicode="[" horiz-adv-x="641" d="M-6 -270l389 1826h344l-8 -36h-303l-373 -1753h303l-8 -37h-344z" />
<glyph unicode="\" horiz-adv-x="710" d="M217 1597h39l272 -1884h-39z" />
<glyph unicode="]" horiz-adv-x="641" d="M-98 -270l8 37h303l373 1753h-303l8 36h344l-389 -1826h-344z" />
<glyph unicode="^" horiz-adv-x="866" d="M49 666l529 768h34l201 -768h-41l-186 712l-490 -712h-47z" />
<glyph unicode="_" horiz-adv-x="940" d="M-236 -276l9 36h1005l-8 -36h-1006z" />
<glyph unicode="`" d="M492 1427h43l110 -262h-43z" />
<glyph unicode="a" horiz-adv-x="864" d="M-43 225q0 350 612 350h140l10 54q13 61 13 111q0 94 -44 148q-67 84 -209 83q-213 0 -332 -211l-36 16q57 109 152.5 170.5t219.5 61.5q156 0 236 -96q54 -65 54 -172q0 -52 -13 -113l-133 -627h-41l43 201q-129 -221 -385 -221q-132 0 -209.5 67.5t-77.5 177.5zM-2 229 q0 -96 64.5 -154.5t183.5 -58.5q161 0 273.5 98t144.5 248l36 177h-135q-128 0 -227.5 -16.5t-162.5 -44.5t-103.5 -68.5t-57 -84.5t-16.5 -96z" />
<glyph unicode="b" horiz-adv-x="1046" d="M-20 0l305 1434h41l-150 -701q63 125 170.5 200t243.5 75q161 0 261.5 -108.5t100.5 -297.5q0 -168 -65.5 -310t-183.5 -227t-263 -85t-239 90.5t-111 253.5l-70 -324h-40zM119 393q0 -182 87.5 -279.5t237.5 -97.5q164 0 293 129q80 80 127 199.5t47 249.5 q0 182 -87.5 279.5t-237.5 97.5q-164 0 -293 -129q-80 -80 -127 -199.5t-47 -249.5z" />
<glyph unicode="c" horiz-adv-x="925" d="M20 371q0 125 42 242.5t112 204t166.5 138.5t200.5 52q130 0 211.5 -79t103.5 -212l-39 -6q-19 123 -90 191.5t-186 68.5q-162 0 -295 -133q-86 -84 -135.5 -205.5t-49.5 -253.5q0 -173 90.5 -268t233.5 -95q110 0 207.5 73t165.5 218l35 -18q-69 -151 -177 -230 t-231 -79q-158 0 -261.5 104.5t-103.5 286.5z" />
<glyph unicode="d" horiz-adv-x="1046" d="M16 385q0 168 65.5 310.5t183.5 227.5t263 85t239.5 -90.5t111.5 -253.5l163 770h41l-305 -1434h-41l56 254q-62 -125 -170 -199.5t-244 -74.5q-161 0 -262 108t-101 297zM57 393q0 -182 88 -279.5t238 -97.5q164 0 293 129q80 80 127 199.5t47 249.5q0 182 -88 279.5 t-238 97.5q-164 0 -293 -129q-80 -80 -127 -199.5t-47 -249.5z" />
<glyph unicode="e" horiz-adv-x="985" d="M20 385q0 168 65.5 310.5t184.5 227.5t265 85q162 0 250.5 -99.5t88.5 -257.5q0 -43 -12 -121h-786q-15 -68 -15 -137q0 -175 86 -276t238 -101q107 0 210 62t177 174l33 -23q-171 -249 -430 -249q-157 0 -256 111t-99 294zM84 567h743q7 47 7 80q0 150 -78 237t-230 87 q-164 0 -288 -127q-108 -105 -154 -277z" />
<glyph unicode="f" horiz-adv-x="542" d="M39 0l203 950h-168l6 37h170l43 205q29 135 104 198.5t207 63.5q42 0 88 -8l-8 -37q-44 8 -82 8q-114 0 -178.5 -54t-89.5 -171l-43 -205h313l-6 -37h-315l-203 -950h-41z" />
<glyph unicode="g" horiz-adv-x="987" d="M-131 -141q0 102 84 169.5t211 90.5q-84 36 -84 117q0 54 48 98t126 61q-66 40 -101.5 107.5t-35.5 144.5q0 148 110 254.5t277 106.5q137 0 227 -70q95 133 258 133h23l-8 -41q-172 0 -244 -115q86 -86 86 -213q0 -148 -110 -254t-277 -106q-92 0 -162 31 q-89 -20 -132.5 -56.5t-43.5 -76.5q0 -46 38 -77.5t109 -31.5q291 0 408 -84q42 -30 64 -74.5t22 -93.5q0 -126 -128.5 -207.5t-350.5 -81.5q-199 0 -306.5 74.5t-107.5 194.5zM-88 -137q0 -107 93.5 -171.5t281.5 -64.5q199 0 316.5 69t117.5 175q0 113 -106 168t-353 55 q-90 0 -169 -27.5t-130 -81t-51 -122.5zM158 651q0 -122 77.5 -197t227.5 -75t250 100q92 92 92 219q0 123 -77.5 198t-227.5 75q-149 0 -250 -101q-92 -92 -92 -219z" />
<glyph unicode="h" horiz-adv-x="948" d="M-20 0l305 1434h41l-156 -736q60 131 172 220.5t248 89.5q147 0 217 -94q47 -62 47 -156q0 -47 -12 -103l-140 -655h-40l139 655q12 56 12 102q1 81 -37 133q-58 80 -190 81q-153 0 -284.5 -135.5t-176.5 -346.5l-105 -489h-40z" />
<glyph unicode="i" horiz-adv-x="307" d="M-10 0l209 987h41l-209 -987h-41zM246 1208l39 176h41l-39 -176h-41z" />
<glyph unicode="j" horiz-adv-x="307" d="M-367 -385l9 37q49 -14 92 -14q93 0 144.5 43t74.5 147l246 1159h41l-246 -1159q-25 -122 -88.5 -174.5t-171.5 -52.5q-46 0 -101 14zM246 1208l39 176h41l-39 -176h-41z" />
<glyph unicode="k" horiz-adv-x="905" d="M-20 0l305 1434h41l-228 -1067l680 620h58l-435 -393l289 -594h-45l-274 565l-285 -260l-66 -305h-40z" />
<glyph unicode="l" horiz-adv-x="307" d="M-10 0l305 1434h41l-305 -1434h-41z" />
<glyph unicode="m" horiz-adv-x="1572" d="M-20 0l208 987h41l-61 -293q60 134 170 224t235 90q132 0 200 -84q50 -62 50 -161q0 -34 -6 -73q60 136 171.5 227t238.5 91q139 0 207 -94q44 -61 44 -153q0 -49 -12 -106l-139 -655h-41l139 655q12 57 12 105q-1 80 -35 130q-56 81 -179 81q-136 0 -268.5 -135 t-176.5 -344l-104 -492h-41l139 655q12 57 12 104q0 80 -35 131q-56 81 -180 81q-136 0 -268 -135t-176 -344l-105 -492h-40z" />
<glyph unicode="n" horiz-adv-x="948" d="M-20 0l208 987h41l-61 -289q60 130 173 220t249 90q147 0 217 -94q47 -62 47 -156q0 -47 -12 -103l-140 -655h-40l139 655q12 56 12 102q1 81 -37 133q-58 80 -190 81q-153 0 -284.5 -135.5t-176.5 -346.5l-105 -489h-40z" />
<glyph unicode="o" d="M20 371q0 125 42 242.5t112 204t166.5 138.5t200.5 52q153 0 253.5 -105t100.5 -287q0 -167 -70.5 -314t-190.5 -234.5t-259 -87.5q-153 0 -254 104.5t-101 286.5zM61 379q0 -173 87.5 -268t226.5 -95q161 0 295 134q85 85 134.5 206t49.5 252q0 173 -87 268t-226 95 q-162 0 -295 -133q-85 -85 -135 -206.5t-50 -252.5z" />
<glyph unicode="p" horiz-adv-x="1046" d="M-102 -389l290 1376h41l-53 -256q62 126 170 201.5t244 75.5q161 0 261.5 -108.5t100.5 -297.5q0 -168 -65.5 -310t-183.5 -227t-263 -85t-239 90.5t-111 253.5l-151 -713h-41zM119 393q0 -182 87.5 -279.5t237.5 -97.5q164 0 293 129q80 80 127 199.5t47 249.5 q0 182 -87.5 279.5t-237.5 97.5q-164 0 -293 -129q-80 -80 -127 -199.5t-47 -249.5z" />
<glyph unicode="q" horiz-adv-x="1046" d="M16 385q0 168 65.5 310.5t183.5 227.5t263 85q144 0 239 -90.5t112 -253.5l67 323h41l-291 -1376h-41l138 643q-62 -125 -170 -199.5t-244 -74.5q-161 0 -262 108t-101 297zM57 393q0 -182 88 -279.5t238 -97.5q164 0 293 129q80 80 127 199.5t47 249.5q0 182 -88 279.5 t-238 97.5q-164 0 -293 -129q-80 -80 -127 -199.5t-47 -249.5z" />
<glyph unicode="r" horiz-adv-x="612" d="M-20 0l208 987h41l-59 -280q61 128 173.5 210t246.5 82q28 0 49 -6l-8 -35q-20 5 -49 5q-154 0 -284 -135t-173 -339l-105 -489h-40z" />
<glyph unicode="s" horiz-adv-x="866" d="M-16 328l39 2q12 -314 344 -314q128 0 204 61.5t76 149.5q0 74 -45 125.5t-170 106.5l-108 47q-113 49 -160 108.5t-47 137.5q0 108 87.5 182t229.5 74q136 0 229 -78t103 -215l-37 -4q-10 127 -91.5 193.5t-207.5 66.5q-121 0 -196.5 -63t-75.5 -152q0 -69 40.5 -119.5 t145.5 -95.5l109 -47q132 -58 183.5 -119t51.5 -144q0 -107 -91 -179t-237 -72q-178 0 -274.5 90.5t-101.5 257.5z" />
<glyph unicode="t" horiz-adv-x="638" d="M74 950l6 37h170l65 311h41l-65 -311h352l-6 -37h-354l-152 -712q-9 -42 -9 -75q0 -143 154 -143q63 0 166 15l-8 -37q-86 -14 -166 -14q-109 0 -156 68q-31 44 -31 110q0 35 9 76l152 712h-168z" />
<glyph unicode="u" horiz-adv-x="940" d="M29 332l139 655h41l-139 -655q-12 -57 -12 -105q0 -81 35 -131q56 -80 188 -80q153 0 282 135t174 347l105 489h41l-209 -987h-41l59 287q-59 -130 -168 -218.5t-248 -88.5q-148 0 -215 92q-44 61 -44 154q0 49 12 106z" />
<glyph unicode="v" horiz-adv-x="815" d="M82 987h39l151 -934l549 934h43l-579 -987h-41z" />
<glyph unicode="w" horiz-adv-x="1325" d="M104 987h39l68 -932l496 932h45l100 -930l461 930h43l-490 -987h-47l-98 932l-498 -932h-47z" />
<glyph unicode="x" horiz-adv-x="849" d="M-115 0l482 518l-242 469h43l227 -442l408 442h53l-440 -475l262 -512h-43l-248 485l-448 -485h-54z" />
<glyph unicode="y" horiz-adv-x="817" d="M-203 -391l8 37q36 -8 89 -8q85 0 137.5 34.5t118.5 147.5l96 168l-164 999h39l153 -950l549 950h43l-684 -1180q-72 -124 -134.5 -165t-160.5 -41q-59 0 -90 8z" />
<glyph unicode="z" horiz-adv-x="798" d="M-84 0l8 37l811 913h-600l6 37h654l-7 -37l-813 -913h629l-8 -37h-680z" />
<glyph unicode="{" horiz-adv-x="739" d="M37 651l6 37h84q102 0 142.5 33t62.5 135l90 426q31 146 107.5 210t218.5 64h77l-8 -36h-78q-121 0 -185 -53.5t-91 -184.5l-90 -428q-17 -85 -50 -128t-92 -58q92 -38 62 -183l-103 -481q-28 -133 10.5 -185t166.5 -52h77l-8 -37h-78q-145 0 -192 63.5t-16 210.5 l102 479q20 91 -6 129.5t-105 38.5h-104z" />
<glyph unicode="|" horiz-adv-x="512" d="M31 -287l401 1884h41l-401 -1884h-41z" />
<glyph unicode="}" horiz-adv-x="739" d="M-98 -270l8 37h78q122 0 185.5 53.5t90.5 183.5l90 428q17 85 50 128t92 58q-92 38 -62 183l103 481q28 133 -10.5 185.5t-166.5 52.5h-77l8 36h78q145 0 192.5 -63.5t16.5 -210.5l-103 -479q-20 -91 6 -129.5t105 -38.5h104l-6 -37h-84q-102 0 -142.5 -33t-62.5 -135 l-90 -426q-31 -146 -107.5 -210t-217.5 -64h-78z" />
<glyph unicode="~" horiz-adv-x="985" d="M203 1233q81 215 235 215q45 0 84 -17.5t94 -60.5l58 -47q51 -41 85.5 -57.5t69.5 -16.5q126 0 199 191l35 -13q-81 -215 -236 -215q-45 0 -84 17.5t-94 60.5l-57 47q-91 74 -156 74q-125 0 -198 -190z" />
<glyph unicode="&#xa1;" horiz-adv-x="409" d="M-4 -213l244 1141h41l-244 -1141h-41zM246 1075l30 146h91l-31 -146h-90z" />
<glyph unicode="&#xa2;" horiz-adv-x="925" d="M20 371q0 125 42 242.5t112 204t166.5 138.5t200.5 52h4l49 223h41l-49 -225q111 -13 180 -90t90 -199l-39 -6q-18 112 -78.5 180t-158.5 78l-203 -953h8q110 0 207.5 73t165.5 218l35 -18q-69 -151 -177 -230t-231 -79h-16l-47 -224h-41l49 228q-137 19 -223.5 121.5 t-86.5 265.5zM61 379q0 -158 75.5 -251.5t199.5 -107.5l203 951q-160 0 -293 -133q-86 -84 -135.5 -205.5t-49.5 -253.5z" />
<glyph unicode="&#xa3;" horiz-adv-x="1001" d="M-82 0l8 37q157 72 244.5 182.5t87.5 239.5q0 68 -27 178h-178l8 37h160q-2 9 -9 38.5t-10 42t-8 39.5t-7.5 45t-4.5 42t-2 47q0 194 120.5 325t315.5 131q160 0 260.5 -104t137.5 -305l-39 -4q-75 377 -359 377q-172 0 -282.5 -119.5t-110.5 -300.5q0 -16 0.5 -31 t2.5 -31.5t3.5 -28.5t5 -29.5t5 -26.5t6.5 -28.5t6.5 -25.5t7 -27.5t6.5 -25.5h426l-8 -37h-410q25 -98 25 -178q0 -134 -79 -241t-212 -177h789l-9 -41h-870z" />
<glyph unicode="&#xa5;" horiz-adv-x="1036" d="M61 272l9 37h350l39 185h-350l8 36h332l-277 834h41l274 -825l625 825h47l-631 -834h330l-8 -36h-350l-39 -185h350l-8 -37h-350l-58 -272h-41l58 272h-351z" />
<glyph unicode="&#xa6;" horiz-adv-x="512" d="M31 -287l166 776h41l-166 -776h-41zM266 821l166 776h41l-166 -776h-41z" />
<glyph unicode="&#xa7;" horiz-adv-x="1124" d="M-45 125l39 2q12 -193 118.5 -298t288.5 -105q177 0 272 76t95 192q0 74 -42.5 135.5t-160.5 136.5l-248 158q-99 63 -140.5 120.5t-41.5 123.5q0 96 71 160t206 79q-86 90 -86 203q0 118 98 197t270 79q171 0 278 -102.5t126 -280.5l-39 -4q-21 166 -115 258.5 t-250 92.5q-150 0 -238.5 -67.5t-88.5 -170.5q0 -78 45.5 -143t169.5 -144l247 -157q92 -59 131 -116.5t39 -127.5q0 -93 -68.5 -155t-199.5 -85q78 -81 78 -188q0 -134 -107.5 -220.5t-300.5 -86.5q-196 0 -315 115t-131 323zM176 670q0 -58 35.5 -107t130.5 -110l254 -162 q69 -45 102 -76q128 18 194 72t66 127q0 65 -33.5 115.5t-119.5 105.5l-254 162q-65 41 -107 80q-135 -13 -201.5 -69.5t-66.5 -137.5z" />
<glyph unicode="&#xa8;" d="M434 1208l39 176h41l-39 -176h-41zM680 1208l39 176h41l-39 -176h-41z" />
<glyph unicode="&#xa9;" horiz-adv-x="1667" d="M104 715v4q0 154 56.5 290.5t154 234t234.5 154t291 56.5h4q206 0 374.5 -96t264.5 -264.5t96 -374.5v-4q0 -206 -96 -374.5t-264.5 -264.5t-374.5 -96h-4q-154 0 -291 56.5t-234.5 154t-154 234t-56.5 290.5zM145 715q0 -195 90.5 -355t250.5 -252t354 -92h4 q194 0 353.5 92t250 252t90.5 355v4q0 146 -53.5 275.5t-145 222t-220.5 146.5t-275 54h-4q-146 0 -275 -54t-221 -146.5t-145.5 -222t-53.5 -275.5v-4zM492 711v12q0 176 97 284.5t245 108.5q109 0 195 -75.5t112 -202.5l-37 -4q-24 112 -100 178.5t-170 66.5 q-132 0 -217 -98t-85 -258v-12q0 -160 85 -258.5t217 -98.5q102 0 181 66.5t103 179.5l37 -4q-26 -127 -115.5 -203t-205.5 -76q-148 0 -245 109t-97 285z" />
<glyph unicode="&#xaa;" horiz-adv-x="698" d="M59 788q0 263 449 263h137l8 39q54 258 -176 258q-76 0 -139.5 -43.5t-106.5 -122.5l-34 14q44 88 118.5 138t163.5 50q126 0 186 -74.5t29 -219.5l-102 -486h-41l33 152q-114 -168 -305 -168q-96 0 -158 56.5t-62 143.5zM102 791q0 -74 48.5 -120t130.5 -46 q128 0 218.5 79t114.5 197l23 113h-131q-113 0 -193.5 -16.5t-125.5 -47t-65 -69.5t-20 -90z" />
<glyph unicode="&#xab;" horiz-adv-x="645" d="M25 549l315 348h47l-321 -352l165 -344h-38zM244 532l329 365h48l-336 -369l157 -327h-39z" />
<glyph unicode="&#xad;" horiz-adv-x="647" d="M82 723l8 37h504l-8 -37h-504z" />
<glyph unicode="&#xae;" horiz-adv-x="1110" d="M123 958v5q0 210 137 350.5t354 140.5h4q217 0 354.5 -140.5t137.5 -350.5v-5q0 -210 -137.5 -350.5t-354.5 -140.5h-4q-217 0 -354 140.5t-137 350.5zM164 958q0 -127 56 -230.5t159.5 -163.5t234.5 -60h4q199 0 325 130t126 324v5q0 194 -126 324t-325 130h-4 q-131 0 -234.5 -60t-159.5 -163.5t-56 -230.5v-5zM457 709v514h178q86 0 130 -39.5t44 -108.5q0 -131 -150 -145l162 -221h-45l-160 219h-118v-219h-41zM498 965h137q133 0 133 110q0 111 -133 111h-137v-221z" />
<glyph unicode="&#xaf;" d="M375 1278l6 37h450l-6 -37h-450z" />
<glyph unicode="&#xb0;" horiz-adv-x="622" d="M172 1145q0 103 67 171t173 68t172.5 -68t66.5 -171t-66.5 -171.5t-172.5 -68.5t-173 68.5t-67 171.5zM213 1145q0 -86 55.5 -144.5t143.5 -58.5t143 58.5t55 144.5t-55 144.5t-143 58.5t-143.5 -58.5t-55.5 -144.5z" />
<glyph unicode="&#xb1;" horiz-adv-x="1044" d="M10 225l8 37h830l-8 -37h-830zM131 795l8 36h396l79 369h41l-80 -369h394l-8 -36h-392l-80 -369h-40l79 369h-397z" />
<glyph unicode="&#xb4;" d="M532 1165l222 262h49l-221 -262h-50z" />
<glyph unicode="&#xb6;" horiz-adv-x="1241" d="M88 766q0 135 40 244.5t119 188.5t202 122t282 43h483l-350 -1647h-41l342 1610h-247l-343 -1610h-40l135 639h-103q-231 0 -355 110.5t-124 299.5z" />
<glyph unicode="&#xb7;" horiz-adv-x="356" d="M113 580l30 143h90l-30 -143h-90z" />
<glyph unicode="&#xb8;" d="M106 -365l21 33q68 -45 160 -45q85 0 131.5 31.5t46.5 83.5q0 41 -27 65.5t-78 24.5q-50 0 -102 -18l-18 24l122 166h46l-107 -143q31 8 61 8q65 0 105.5 -35t40.5 -90q0 -67 -60 -111.5t-161 -44.5q-105 0 -181 51z" />
<glyph unicode="&#xba;" horiz-adv-x="790" d="M119 907q0 202 115.5 339.5t277.5 137.5q129 0 211 -88t82 -233q0 -202 -115.5 -339.5t-277.5 -137.5q-129 0 -211 88t-82 233zM160 913q0 -133 69 -211.5t185 -78.5q121 0 217 96q62 62 97.5 149.5t35.5 188.5q0 133 -69 212t-185 79q-120 0 -217 -97 q-62 -62 -97.5 -149.5t-35.5 -188.5z" />
<glyph unicode="&#xbb;" horiz-adv-x="645" d="M-29 201l336 368l-157 328h38l160 -332l-330 -364h-47zM205 201l321 352l-166 344h39l168 -348l-315 -348h-47z" />
<glyph unicode="&#xbf;" horiz-adv-x="909" d="M-43 113q0 212 141.5 351.5t376.5 145.5l68 318h41l-76 -355h-25q-146 0 -257.5 -62t-169.5 -167t-58 -235q0 -145 83 -225.5t224 -80.5q149 0 262 107.5t164 298.5l37 -10q-55 -204 -178 -318t-285 -114q-158 0 -253 93.5t-95 252.5zM549 1075l31 146h90l-31 -146h-90z " />
<glyph unicode="&#xc0;" horiz-adv-x="1136" d="M-104 0l811 1434h47l200 -1434h-39l-71 516h-611l-290 -516h-47zM254 553h584l-117 827zM592 1833h43l110 -262h-43z" />
<glyph unicode="&#xc1;" horiz-adv-x="1136" d="M-104 0l811 1434h47l200 -1434h-39l-71 516h-611l-290 -516h-47zM254 553h584l-117 827zM721 1571l221 262h49l-221 -262h-49z" />
<glyph unicode="&#xc2;" horiz-adv-x="1136" d="M-104 0l811 1434h47l200 -1434h-39l-71 516h-611l-290 -516h-47zM254 553h584l-117 827zM514 1577l258 250h45l152 -250h-47l-129 217l-222 -217h-57z" />
<glyph unicode="&#xc3;" horiz-adv-x="1136" d="M-104 0l811 1434h47l200 -1434h-39l-71 516h-611l-290 -516h-47zM254 553h584l-117 827zM467 1640q36 74 83.5 110t96.5 36q37 0 66 -14.5t65 -47.5l23 -20q55 -49 102 -49q75 0 144 127l34 -17q-36 -74 -83.5 -109.5t-96.5 -35.5q-66 0 -133 61l-23 21q-30 27 -51.5 38 t-48.5 11q-74 0 -143 -127z" />
<glyph unicode="&#xc4;" horiz-adv-x="1136" d="M-104 0l811 1434h47l200 -1434h-39l-71 516h-611l-290 -516h-47zM254 553h584l-117 827zM612 1614l39 176h41l-39 -176h-41zM858 1614l39 176h41l-39 -176h-41z" />
<glyph unicode="&#xc5;" horiz-adv-x="1136" d="M-104 0l811 1434h47l200 -1434h-39l-71 516h-611l-290 -516h-47zM254 553h584l-117 827zM596 1690q0 75 53.5 126.5t130.5 51.5q67 0 110.5 -43t43.5 -111q0 -75 -53.5 -126.5t-130.5 -51.5q-67 0 -110.5 43t-43.5 111zM637 1694q0 -57 31 -89t84 -32q59 0 100 39t41 98 q0 57 -31 89t-84 32q-59 0 -100 -39t-41 -98z" />
<glyph unicode="&#xc6;" horiz-adv-x="1916" d="M-102 0l1017 1434h1041l-8 -37h-781l-135 -641h686l-6 -37h-688l-145 -682h780l-8 -37h-822l111 516h-627l-366 -516h-49zM340 553h606l180 844h-188z" />
<glyph unicode="&#xc7;" horiz-adv-x="1236" d="M82 504q0 167 39 317.5t107 264t157.5 197.5t193.5 127.5t212 43.5q177 0 285.5 -109.5t133.5 -302.5l-36 -4q-25 180 -122.5 279.5t-260.5 99.5q-105 0 -207 -46.5t-189 -131.5q-125 -125 -198.5 -314t-73.5 -415q0 -141 46.5 -250.5t145.5 -176.5t238 -67 q157 0 301.5 105.5t222.5 277.5l35 -12q-81 -185 -235 -296t-322 -111l-92 -123q31 8 61 8q65 0 105.5 -35t40.5 -90q0 -67 -60 -111.5t-161 -44.5q-105 0 -181 51l21 33q68 -45 160 -45q85 0 131.5 31.5t46.5 83.5q0 41 -27 65.5t-78 24.5q-50 0 -102 -18l-19 24l109 148 q-203 15 -315.5 160t-112.5 362z" />
<glyph unicode="&#xc8;" horiz-adv-x="1107" d="M10 0l305 1434h832l-8 -37h-791l-135 -641h696l-6 -37h-698l-146 -682h791l-8 -37h-832zM604 1833h43l111 -262h-43z" />
<glyph unicode="&#xc9;" horiz-adv-x="1107" d="M10 0l305 1434h832l-8 -37h-791l-135 -641h696l-6 -37h-698l-146 -682h791l-8 -37h-832zM733 1571l221 262h50l-222 -262h-49z" />
<glyph unicode="&#xca;" horiz-adv-x="1107" d="M10 0l305 1434h832l-8 -37h-791l-135 -641h696l-6 -37h-698l-146 -682h791l-8 -37h-832zM526 1577l258 250h45l152 -250h-47l-129 217l-221 -217h-58z" />
<glyph unicode="&#xcb;" horiz-adv-x="1107" d="M10 0l305 1434h832l-8 -37h-791l-135 -641h696l-6 -37h-698l-146 -682h791l-8 -37h-832zM625 1614l39 176h41l-39 -176h-41zM870 1614l39 176h41l-39 -176h-41z" />
<glyph unicode="&#xcc;" horiz-adv-x="376" d="M25 0l305 1434h41l-305 -1434h-41zM225 1833h43l111 -262h-43z" />
<glyph unicode="&#xcd;" horiz-adv-x="376" d="M25 0l305 1434h41l-305 -1434h-41zM354 1571l221 262h50l-222 -262h-49z" />
<glyph unicode="&#xce;" horiz-adv-x="376" d="M25 0l305 1434h41l-305 -1434h-41zM147 1577l259 250h45l151 -250h-47l-129 217l-221 -217h-58z" />
<glyph unicode="&#xcf;" horiz-adv-x="376" d="M25 0l305 1434h41l-305 -1434h-41zM246 1614l39 176h41l-39 -176h-41zM492 1614l38 176h41l-39 -176h-40z" />
<glyph unicode="&#xd0;" horiz-adv-x="1269" d="M8 0l154 719h-133l6 37h135l143 678h281q302 0 456 -138t154 -395q0 -266 -102.5 -470t-295.5 -317.5t-448 -113.5h-350zM57 37h305q169 0 312.5 56.5t247.5 160.5q116 116 177.5 280t61.5 361q0 249 -142.5 375.5t-424.5 126.5h-248l-135 -641h448l-6 -37h-450z" />
<glyph unicode="&#xd1;" horiz-adv-x="1236" d="M10 0l305 1434h52l542 -1381l295 1381h41l-305 -1434h-51l-543 1380l-295 -1380h-41zM551 1640q36 74 83.5 110t96.5 36q37 0 66 -14.5t65 -47.5l23 -20q55 -49 102 -49q74 0 143 127l35 -17q-36 -74 -83.5 -109.5t-96.5 -35.5q-66 0 -133 61l-23 21q-30 27 -51.5 38 t-48.5 11q-74 0 -143 -127z" />
<glyph unicode="&#xd2;" horiz-adv-x="1339" d="M82 504q0 167 38.5 317.5t107 264.5t159 197.5t197 127t217.5 43.5q153 0 262 -70.5t161 -187.5t52 -266q0 -167 -38.5 -317.5t-107 -264.5t-159 -197.5t-197 -127t-217.5 -43.5q-153 0 -262 70.5t-161 187.5t-52 266zM123 510q0 -144 46.5 -253.5t146 -175t241.5 -65.5 q110 0 215 47.5t193 135.5q124 124 197 312t73 413q0 144 -46.5 253t-146 174.5t-241.5 65.5q-110 0 -215 -47t-193 -135q-124 -124 -197 -312t-73 -413zM707 1833h43l110 -262h-43z" />
<glyph unicode="&#xd3;" horiz-adv-x="1339" d="M82 504q0 167 38.5 317.5t107 264.5t159 197.5t197 127t217.5 43.5q153 0 262 -70.5t161 -187.5t52 -266q0 -167 -38.5 -317.5t-107 -264.5t-159 -197.5t-197 -127t-217.5 -43.5q-153 0 -262 70.5t-161 187.5t-52 266zM123 510q0 -144 46.5 -253.5t146 -175t241.5 -65.5 q110 0 215 47.5t193 135.5q124 124 197 312t73 413q0 144 -46.5 253t-146 174.5t-241.5 65.5q-110 0 -215 -47t-193 -135q-124 -124 -197 -312t-73 -413zM836 1571l221 262h49l-221 -262h-49z" />
<glyph unicode="&#xd4;" horiz-adv-x="1339" d="M82 504q0 167 38.5 317.5t107 264.5t159 197.5t197 127t217.5 43.5q153 0 262 -70.5t161 -187.5t52 -266q0 -167 -38.5 -317.5t-107 -264.5t-159 -197.5t-197 -127t-217.5 -43.5q-153 0 -262 70.5t-161 187.5t-52 266zM123 510q0 -144 46.5 -253.5t146 -175t241.5 -65.5 q110 0 215 47.5t193 135.5q124 124 197 312t73 413q0 144 -46.5 253t-146 174.5t-241.5 65.5q-110 0 -215 -47t-193 -135q-124 -124 -197 -312t-73 -413zM627 1577l258 250h45l151 -250h-47l-129 217l-221 -217h-57z" />
<glyph unicode="&#xd5;" horiz-adv-x="1339" d="M82 504q0 167 38.5 317.5t107 264.5t159 197.5t197 127t217.5 43.5q153 0 262 -70.5t161 -187.5t52 -266q0 -167 -38.5 -317.5t-107 -264.5t-159 -197.5t-197 -127t-217.5 -43.5q-153 0 -262 70.5t-161 187.5t-52 266zM123 510q0 -144 46.5 -253.5t146 -175t241.5 -65.5 q110 0 215 47.5t193 135.5q124 124 197 312t73 413q0 144 -46.5 253t-146 174.5t-241.5 65.5q-110 0 -215 -47t-193 -135q-124 -124 -197 -312t-73 -413zM582 1640q36 74 83.5 110t96.5 36q36 0 65.5 -14.5t65.5 -47.5l22 -20q55 -49 103 -49q74 0 143 127l35 -17 q-36 -74 -83.5 -109.5t-96.5 -35.5q-66 0 -133 61l-23 21q-30 27 -51.5 38t-48.5 11q-75 0 -144 -127z" />
<glyph unicode="&#xd6;" horiz-adv-x="1339" d="M82 504q0 167 38.5 317.5t107 264.5t159 197.5t197 127t217.5 43.5q153 0 262 -70.5t161 -187.5t52 -266q0 -167 -38.5 -317.5t-107 -264.5t-159 -197.5t-197 -127t-217.5 -43.5q-153 0 -262 70.5t-161 187.5t-52 266zM123 510q0 -144 46.5 -253.5t146 -175t241.5 -65.5 q110 0 215 47.5t193 135.5q124 124 197 312t73 413q0 144 -46.5 253t-146 174.5t-241.5 65.5q-110 0 -215 -47t-193 -135q-124 -124 -197 -312t-73 -413zM727 1614l39 176h41l-39 -176h-41zM973 1614l39 176h41l-39 -176h-41z" />
<glyph unicode="&#xd7;" horiz-adv-x="1044" d="M82 342l414 340l-267 342l33 25l264 -340l414 340l25 -31l-414 -340l266 -342l-33 -25l-264 340l-414 -340z" />
<glyph unicode="&#xd8;" horiz-adv-x="1339" d="M39 -6l141 166q-98 137 -98 344q0 167 38.5 317.5t107 264.5t159 197.5t197 127t217.5 43.5q225 0 352 -149l135 159l31 -24l-141 -166q98 -137 98 -344q0 -167 -38.5 -317.5t-107 -264.5t-159 -197.5t-197 -127t-217.5 -43.5q-225 0 -352 149l-135 -160zM123 510 q0 -193 84 -320l921 1086q-115 141 -327 141q-110 0 -215 -47t-193 -135q-124 -124 -197 -312t-73 -413zM229 158q116 -142 328 -142q110 0 215 47.5t193 135.5q124 124 197 312t73 413q0 192 -84 319z" />
<glyph unicode="&#xd9;" horiz-adv-x="1196" d="M100 498l199 936h41l-199 -936q-49 -228 42 -355t304 -127q190 0 316.5 122t177.5 360l199 936h41l-199 -936q-54 -256 -190.5 -387t-348.5 -131q-225 0 -330 138.5t-53 379.5zM621 1833h43l110 -262h-43z" />
<glyph unicode="&#xda;" horiz-adv-x="1196" d="M100 498l199 936h41l-199 -936q-49 -228 42 -355t304 -127q190 0 316.5 122t177.5 360l199 936h41l-199 -936q-54 -256 -190.5 -387t-348.5 -131q-225 0 -330 138.5t-53 379.5zM750 1571l221 262h49l-221 -262h-49z" />
<glyph unicode="&#xdb;" horiz-adv-x="1196" d="M100 498l199 936h41l-199 -936q-49 -228 42 -355t304 -127q190 0 316.5 122t177.5 360l199 936h41l-199 -936q-54 -256 -190.5 -387t-348.5 -131q-225 0 -330 138.5t-53 379.5zM543 1577l258 250h45l151 -250h-47l-129 217l-221 -217h-57z" />
<glyph unicode="&#xdc;" horiz-adv-x="1196" d="M100 498l199 936h41l-199 -936q-49 -228 42 -355t304 -127q190 0 316.5 122t177.5 360l199 936h41l-199 -936q-54 -256 -190.5 -387t-348.5 -131q-225 0 -330 138.5t-53 379.5zM641 1614l39 176h41l-39 -176h-41zM887 1614l39 176h41l-39 -176h-41z" />
<glyph unicode="&#xdd;" horiz-adv-x="1077" d="M186 1434h41l289 -854l651 854h47l-686 -899l-112 -535h-41l114 539zM705 1571l221 262h49l-221 -262h-49z" />
<glyph unicode="&#xde;" horiz-adv-x="1124" d="M10 0l305 1434h41l-61 -289h375q197 0 305 -92.5t108 -245.5q0 -98 -33 -181t-97 -147t-167 -100.5t-235 -36.5h-426l-74 -342h-41zM131 379h420q240 0 364.5 118.5t124.5 309.5q0 138 -95 219.5t-275 81.5h-383z" />
<glyph unicode="&#xdf;" horiz-adv-x="991" d="M-20 0l219 1030q45 213 147.5 318.5t271.5 105.5q151 0 244.5 -85.5t93.5 -209.5q0 -152 -86.5 -246t-236.5 -118q111 -27 173 -116.5t62 -205.5q0 -218 -145 -355.5t-363 -137.5q-96 0 -157 12l8 39q71 -15 158 -15q98 0 185 36t151 100q124 124 124 313 q0 140 -80.5 226.5t-226.5 86.5h-151l8 37h158q183 0 286 103q90 90 90 237q0 113 -80 187.5t-217 74.5q-150 0 -242.5 -95t-133.5 -292l-220 -1030h-40z" />
<glyph unicode="&#xe0;" horiz-adv-x="864" d="M-43 225q0 350 612 350h140l10 54q36 175 -31 258.5t-209 83.5q-213 0 -332 -211l-36 16q57 109 152.5 170.5t219.5 61.5q156 0 236 -96.5t41 -284.5l-133 -627h-41l43 201q-129 -221 -385 -221q-132 0 -209.5 67.5t-77.5 177.5zM-2 229q0 -96 64.5 -154.5t183.5 -58.5 q161 0 273.5 98t144.5 248l36 177h-135q-128 0 -227.5 -16.5t-162.5 -44.5t-103.5 -68.5t-57 -84.5t-16.5 -96zM367 1427h43l110 -262h-43z" />
<glyph unicode="&#xe1;" horiz-adv-x="864" d="M-43 225q0 350 612 350h140l10 54q36 175 -31 258.5t-209 83.5q-213 0 -332 -211l-36 16q57 109 152.5 170.5t219.5 61.5q156 0 236 -96.5t41 -284.5l-133 -627h-41l43 201q-129 -221 -385 -221q-132 0 -209.5 67.5t-77.5 177.5zM-2 229q0 -96 64.5 -154.5t183.5 -58.5 q161 0 273.5 98t144.5 248l36 177h-135q-128 0 -227.5 -16.5t-162.5 -44.5t-103.5 -68.5t-57 -84.5t-16.5 -96zM496 1165l221 262h49l-221 -262h-49z" />
<glyph unicode="&#xe2;" horiz-adv-x="864" d="M-43 225q0 350 612 350h140l10 54q36 175 -31 258.5t-209 83.5q-213 0 -332 -211l-36 16q57 109 152.5 170.5t219.5 61.5q156 0 236 -96.5t41 -284.5l-133 -627h-41l43 201q-129 -221 -385 -221q-132 0 -209.5 67.5t-77.5 177.5zM-2 229q0 -96 64.5 -154.5t183.5 -58.5 q161 0 273.5 98t144.5 248l36 177h-135q-128 0 -227.5 -16.5t-162.5 -44.5t-103.5 -68.5t-57 -84.5t-16.5 -96zM289 1171l258 250h45l151 -250h-47l-129 218l-221 -218h-57z" />
<glyph unicode="&#xe3;" horiz-adv-x="864" d="M-43 225q0 350 612 350h140l10 54q36 175 -31 258.5t-209 83.5q-213 0 -332 -211l-36 16q57 109 152.5 170.5t219.5 61.5q156 0 236 -96.5t41 -284.5l-133 -627h-41l43 201q-129 -221 -385 -221q-132 0 -209.5 67.5t-77.5 177.5zM-2 229q0 -96 64.5 -154.5t183.5 -58.5 q161 0 273.5 98t144.5 248l36 177h-135q-128 0 -227.5 -16.5t-162.5 -44.5t-103.5 -68.5t-57 -84.5t-16.5 -96zM242 1235q36 74 83.5 109.5t96.5 35.5q37 0 66.5 -14.5t64.5 -46.5l22 -21q55 -49 103 -49q74 0 143 127l35 -16q-36 -74 -83.5 -110t-96.5 -36q-65 0 -133 62 l-23 20q-31 28 -52 39t-48 11q-75 0 -144 -127z" />
<glyph unicode="&#xe4;" horiz-adv-x="864" d="M-43 225q0 350 612 350h140l10 54q36 175 -31 258.5t-209 83.5q-213 0 -332 -211l-36 16q57 109 152.5 170.5t219.5 61.5q156 0 236 -96.5t41 -284.5l-133 -627h-41l43 201q-129 -221 -385 -221q-132 0 -209.5 67.5t-77.5 177.5zM-2 229q0 -96 64.5 -154.5t183.5 -58.5 q161 0 273.5 98t144.5 248l36 177h-135q-128 0 -227.5 -16.5t-162.5 -44.5t-103.5 -68.5t-57 -84.5t-16.5 -96zM387 1208l39 176h41l-39 -176h-41zM633 1208l39 176h41l-39 -176h-41z" />
<glyph unicode="&#xe5;" horiz-adv-x="864" d="M-43 225q0 350 612 350h140l10 54q36 175 -31 258.5t-209 83.5q-213 0 -332 -211l-36 16q57 109 152.5 170.5t219.5 61.5q156 0 236 -96.5t41 -284.5l-133 -627h-41l43 201q-129 -221 -385 -221q-132 0 -209.5 67.5t-77.5 177.5zM-2 229q0 -96 64.5 -154.5t183.5 -58.5 q161 0 273.5 98t144.5 248l36 177h-135q-128 0 -227.5 -16.5t-162.5 -44.5t-103.5 -68.5t-57 -84.5t-16.5 -96zM381 1284q0 75 53.5 126.5t130.5 51.5q67 0 110.5 -42.5t43.5 -110.5q0 -75 -53.5 -127t-130.5 -52q-67 0 -110.5 43t-43.5 111zM422 1288q0 -57 31 -89t84 -32 q59 0 100 39.5t41 98.5q0 56 -31 88t-84 32q-59 0 -100 -39t-41 -98z" />
<glyph unicode="&#xe6;" horiz-adv-x="1648" d="M-43 225q0 342 612 342h138l12 62q36 175 -31 258.5t-209 83.5q-213 0 -332 -211l-36 16q57 109 152.5 170.5t219.5 61.5q133 0 212 -71.5t73 -211.5q68 131 179.5 207t250.5 76q162 0 251 -99.5t89 -257.5q0 -43 -12 -121h-787q-14 -63 -14 -137q0 -175 86 -276 t238 -101q107 0 210 62t177 174l32 -23q-171 -249 -430 -249q-145 0 -239 95.5t-107 258.5q-48 -172 -169.5 -263t-278.5 -91q-132 0 -209.5 67.5t-77.5 177.5zM-2 229q0 -96 64.5 -154.5t183.5 -58.5q161 0 273.5 98t144.5 248l34 168h-133q-567 0 -567 -301zM748 567h743 q6 41 6 80q0 150 -77.5 237t-229.5 87q-165 0 -289 -127q-107 -104 -153 -277z" />
<glyph unicode="&#xe7;" horiz-adv-x="925" d="M20 371q0 125 42 242.5t112 204t166.5 138.5t200.5 52q130 0 211.5 -79t103.5 -212l-39 -6q-19 123 -90 191.5t-186 68.5q-162 0 -295 -133q-86 -84 -135.5 -205.5t-49.5 -253.5q0 -173 90.5 -268t233.5 -95q110 0 207.5 73t165.5 218l35 -18q-69 -151 -177 -230 t-231 -79h-12l-92 -123q31 8 61 8q64 0 104.5 -34.5t40.5 -90.5q0 -67 -60 -111.5t-161 -44.5q-104 0 -180 51l20 33q68 -45 160 -45q85 0 131.5 31.5t46.5 83.5q0 41 -26.5 65.5t-77.5 24.5q-50 0 -102 -18l-19 24l111 150q-137 18 -223.5 120t-86.5 267z" />
<glyph unicode="&#xe8;" horiz-adv-x="985" d="M20 385q0 168 65.5 310.5t184.5 227.5t265 85q162 0 250.5 -99.5t88.5 -257.5q0 -43 -12 -121h-786q-15 -68 -15 -137q0 -175 86 -276t238 -101q107 0 210 62t177 174l33 -23q-171 -249 -430 -249q-157 0 -256 111t-99 294zM84 567h743q7 47 7 80q0 150 -78 237t-230 87 q-164 0 -288 -127q-108 -105 -154 -277zM420 1427h43l110 -262h-43z" />
<glyph unicode="&#xe9;" horiz-adv-x="985" d="M20 385q0 168 65.5 310.5t184.5 227.5t265 85q162 0 250.5 -99.5t88.5 -257.5q0 -43 -12 -121h-786q-15 -68 -15 -137q0 -175 86 -276t238 -101q107 0 210 62t177 174l33 -23q-171 -249 -430 -249q-157 0 -256 111t-99 294zM84 567h743q7 47 7 80q0 150 -78 237t-230 87 q-164 0 -288 -127q-108 -105 -154 -277zM549 1165l221 262h49l-221 -262h-49z" />
<glyph unicode="&#xea;" horiz-adv-x="985" d="M20 385q0 168 65.5 310.5t184.5 227.5t265 85q162 0 250.5 -99.5t88.5 -257.5q0 -43 -12 -121h-786q-15 -68 -15 -137q0 -175 86 -276t238 -101q107 0 210 62t177 174l33 -23q-171 -249 -430 -249q-157 0 -256 111t-99 294zM84 567h743q7 47 7 80q0 150 -78 237t-230 87 q-164 0 -288 -127q-108 -105 -154 -277zM342 1171l258 250h45l152 -250h-47l-129 218l-222 -218h-57z" />
<glyph unicode="&#xeb;" horiz-adv-x="985" d="M20 385q0 168 65.5 310.5t184.5 227.5t265 85q162 0 250.5 -99.5t88.5 -257.5q0 -43 -12 -121h-786q-15 -68 -15 -137q0 -175 86 -276t238 -101q107 0 210 62t177 174l33 -23q-171 -249 -430 -249q-157 0 -256 111t-99 294zM84 567h743q7 47 7 80q0 150 -78 237t-230 87 q-164 0 -288 -127q-108 -105 -154 -277zM440 1208l39 176h41l-39 -176h-41zM686 1208l39 176h41l-39 -176h-41z" />
<glyph unicode="&#xec;" horiz-adv-x="307" d="M-10 0l209 987h41l-209 -987h-41zM102 1427h43l111 -262h-43z" />
<glyph unicode="&#xed;" horiz-adv-x="307" d="M-10 0l209 987h41l-209 -987h-41zM231 1165l222 262h49l-221 -262h-50z" />
<glyph unicode="&#xee;" horiz-adv-x="307" d="M-10 0l209 987h41l-209 -987h-41zM25 1171l258 250h45l151 -250h-47l-129 218l-221 -218h-57z" />
<glyph unicode="&#xef;" horiz-adv-x="307" d="M-10 0l209 987h41l-209 -987h-41zM123 1208l39 176h41l-39 -176h-41zM369 1208l39 176h41l-39 -176h-41z" />
<glyph unicode="&#xf0;" d="M20 371q0 125 42 242.5t112 204t166.5 138.5t200.5 52q98 0 175.5 -46t121.5 -131q-51 210 -179 404l-299 -115l-10 31l291 113q-56 82 -127 170h45q70 -90 117 -158l217 84l10 -31l-209 -80q110 -172 155.5 -322.5t45.5 -310.5q0 -167 -70.5 -314t-190.5 -234.5 t-259 -87.5q-153 0 -254 104.5t-101 286.5zM61 379q0 -173 87.5 -268t226.5 -95q161 0 295 134q85 85 134.5 206t49.5 252q0 173 -87 268t-226 95q-162 0 -295 -133q-85 -85 -135 -206.5t-50 -252.5z" />
<glyph unicode="&#xf1;" horiz-adv-x="948" d="M-20 0l208 987h41l-61 -289q60 130 173 220t249 90q147 0 217 -93.5t35 -259.5l-140 -655h-40l139 655q33 155 -25.5 235.5t-189.5 80.5q-153 0 -284.5 -135.5t-176.5 -346.5l-105 -489h-40zM307 1235q36 74 83.5 109.5t96.5 35.5q37 0 66.5 -14.5t64.5 -46.5l23 -21 q55 -49 102 -49q75 0 144 127l35 -16q-36 -74 -84 -110t-97 -36q-65 0 -133 62l-22 20q-31 27 -52.5 38.5t-48.5 11.5q-74 0 -143 -127z" />
<glyph unicode="&#xf2;" d="M20 371q0 125 42 242.5t112 204t166.5 138.5t200.5 52q153 0 253.5 -105t100.5 -287q0 -167 -70.5 -314t-190.5 -234.5t-259 -87.5q-153 0 -254 104.5t-101 286.5zM61 379q0 -173 87.5 -268t226.5 -95q161 0 295 134q85 85 134.5 206t49.5 252q0 173 -87 268t-226 95 q-162 0 -295 -133q-85 -85 -135 -206.5t-50 -252.5zM416 1427h43l110 -262h-43z" />
<glyph unicode="&#xf3;" d="M20 371q0 125 42 242.5t112 204t166.5 138.5t200.5 52q153 0 253.5 -105t100.5 -287q0 -167 -70.5 -314t-190.5 -234.5t-259 -87.5q-153 0 -254 104.5t-101 286.5zM61 379q0 -173 87.5 -268t226.5 -95q161 0 295 134q85 85 134.5 206t49.5 252q0 173 -87 268t-226 95 q-162 0 -295 -133q-85 -85 -135 -206.5t-50 -252.5zM545 1165l221 262h49l-221 -262h-49z" />
<glyph unicode="&#xf4;" d="M20 371q0 125 42 242.5t112 204t166.5 138.5t200.5 52q153 0 253.5 -105t100.5 -287q0 -167 -70.5 -314t-190.5 -234.5t-259 -87.5q-153 0 -254 104.5t-101 286.5zM61 379q0 -173 87.5 -268t226.5 -95q161 0 295 134q85 85 134.5 206t49.5 252q0 173 -87 268t-226 95 q-162 0 -295 -133q-85 -85 -135 -206.5t-50 -252.5zM338 1171l258 250h45l152 -250h-48l-129 218l-221 -218h-57z" />
<glyph unicode="&#xf5;" d="M20 371q0 125 42 242.5t112 204t166.5 138.5t200.5 52q153 0 253.5 -105t100.5 -287q0 -167 -70.5 -314t-190.5 -234.5t-259 -87.5q-153 0 -254 104.5t-101 286.5zM61 379q0 -173 87.5 -268t226.5 -95q161 0 295 134q85 85 134.5 206t49.5 252q0 173 -87 268t-226 95 q-162 0 -295 -133q-85 -85 -135 -206.5t-50 -252.5zM291 1235q36 74 83.5 109.5t96.5 35.5q37 0 66.5 -14.5t64.5 -46.5l23 -21q55 -49 102 -49q74 0 143 127l35 -16q-36 -74 -83.5 -110t-96.5 -36q-65 0 -133 62l-23 20q-31 28 -52 39t-48 11q-74 0 -143 -127z" />
<glyph unicode="&#xf6;" d="M20 371q0 125 42 242.5t112 204t166.5 138.5t200.5 52q153 0 253.5 -105t100.5 -287q0 -167 -70.5 -314t-190.5 -234.5t-259 -87.5q-153 0 -254 104.5t-101 286.5zM61 379q0 -173 87.5 -268t226.5 -95q161 0 295 134q85 85 134.5 206t49.5 252q0 173 -87 268t-226 95 q-162 0 -295 -133q-85 -85 -135 -206.5t-50 -252.5zM436 1208l39 176h41l-39 -176h-41zM682 1208l39 176h41l-39 -176h-41z" />
<glyph unicode="&#xf7;" horiz-adv-x="1044" d="M109 664l8 36h823l-8 -36h-823zM399 309l31 144h90l-31 -144h-90zM528 911l29 144h90l-29 -144h-90z" />
<glyph unicode="&#xf8;" d="M-35 -6l123 131q-68 100 -68 246q0 125 42 242.5t112 204t166.5 138.5t200.5 52q161 0 264 -115l117 125l28 -25l-123 -131q68 -100 68 -246q0 -167 -70.5 -314t-190.5 -234.5t-259 -87.5q-162 0 -264 114l-117 -125zM61 379q0 -132 56 -223l661 708q-87 107 -237 107 q-162 0 -295 -133q-85 -85 -135 -206.5t-50 -252.5zM137 123q87 -107 238 -107q161 0 295 134q85 85 134.5 206t49.5 252q0 133 -55 223z" />
<glyph unicode="&#xf9;" horiz-adv-x="940" d="M29 332l139 655h41l-139 -655q-33 -155 23 -235.5t188 -80.5q153 0 282 135t174 347l105 489h41l-209 -987h-41l59 287q-59 -130 -168 -218.5t-248 -88.5q-148 0 -215 92.5t-32 259.5zM406 1427h43l110 -262h-43z" />
<glyph unicode="&#xfa;" horiz-adv-x="940" d="M29 332l139 655h41l-139 -655q-33 -155 23 -235.5t188 -80.5q153 0 282 135t174 347l105 489h41l-209 -987h-41l59 287q-59 -130 -168 -218.5t-248 -88.5q-148 0 -215 92.5t-32 259.5zM535 1165l221 262h49l-221 -262h-49z" />
<glyph unicode="&#xfb;" horiz-adv-x="940" d="M29 332l139 655h41l-139 -655q-33 -155 23 -235.5t188 -80.5q153 0 282 135t174 347l105 489h41l-209 -987h-41l59 287q-59 -130 -168 -218.5t-248 -88.5q-148 0 -215 92.5t-32 259.5zM328 1171l258 250h45l151 -250h-47l-129 218l-221 -218h-57z" />
<glyph unicode="&#xfc;" horiz-adv-x="940" d="M29 332l139 655h41l-139 -655q-33 -155 23 -235.5t188 -80.5q153 0 282 135t174 347l105 489h41l-209 -987h-41l59 287q-59 -130 -168 -218.5t-248 -88.5q-148 0 -215 92.5t-32 259.5zM426 1208l39 176h41l-39 -176h-41zM672 1208l39 176h41l-39 -176h-41z" />
<glyph unicode="&#xfd;" horiz-adv-x="817" d="M-203 -391l8 37q36 -8 89 -8q85 0 137.5 34.5t118.5 147.5l96 168l-164 999h39l153 -950l549 950h43l-684 -1180q-72 -124 -134.5 -165t-160.5 -41q-59 0 -90 8zM492 1165l221 262h49l-221 -262h-49z" />
<glyph unicode="&#xfe;" horiz-adv-x="1046" d="M-102 -389l387 1823h41l-150 -701q63 125 170.5 200t243.5 75q161 0 261.5 -108.5t100.5 -297.5q0 -168 -65.5 -310t-183.5 -227t-263 -85t-239 90.5t-111 253.5l-151 -713h-41zM119 393q0 -182 87.5 -279.5t237.5 -97.5q164 0 293 129q80 80 127 199.5t47 249.5 q0 182 -87.5 279.5t-237.5 97.5q-164 0 -293 -129q-80 -80 -127 -199.5t-47 -249.5z" />
<glyph unicode="&#xff;" horiz-adv-x="817" d="M-203 -391l8 37q36 -8 89 -8q85 0 137.5 34.5t118.5 147.5l96 168l-164 999h39l153 -950l549 950h43l-684 -1180q-72 -124 -134.5 -165t-160.5 -41q-59 0 -90 8zM383 1208l39 176h41l-39 -176h-41zM629 1208l39 176h41l-39 -176h-41z" />
<glyph unicode="&#x152;" horiz-adv-x="1951" d="M84 532q0 199 60 366.5t168.5 285.5t267 184t350.5 66h1059l-9 -37h-770l-135 -641h676l-6 -37h-678l-145 -682h770l-9 -37h-989q-302 0 -456 137.5t-154 394.5zM127 539q0 -249 142.5 -375.5t424.5 -126.5h187l288 1360h-243q-169 0 -312 -56.5t-247 -160.5 q-116 -116 -178 -280t-62 -361z" />
<glyph unicode="&#x153;" horiz-adv-x="1802" d="M20 371q0 125 42 242.5t112 204t166.5 138.5t200.5 52q145 0 242.5 -95.5t107.5 -263.5q58 162 180.5 260.5t280.5 98.5q162 0 251 -99.5t89 -257.5q0 -37 -13 -121h-786q-14 -63 -14 -137q0 -175 85.5 -276t237.5 -101q107 0 210 62t177 174l33 -23q-171 -249 -430 -249 q-150 0 -245.5 102.5t-102.5 275.5q-63 -168 -190 -273t-279 -105q-153 0 -254 104.5t-101 286.5zM61 379q0 -173 87.5 -268t226.5 -95q161 0 295 134q85 85 134.5 206t49.5 252q0 173 -87 268t-226 95q-162 0 -295 -133q-85 -85 -135 -206.5t-50 -252.5zM901 567h744 q6 41 6 80q0 150 -78 237t-230 87q-164 0 -288 -127q-108 -105 -154 -277z" />
<glyph unicode="&#x178;" horiz-adv-x="1077" d="M186 1434h41l289 -854l651 854h47l-686 -899l-112 -535h-41l114 539zM596 1614l39 176h41l-39 -176h-41zM842 1614l39 176h41l-39 -176h-41z" />
<glyph unicode="&#x2c6;" d="M373 1171l258 250h45l151 -250h-47l-129 218l-221 -218h-57z" />
<glyph unicode="&#x2dc;" d="M319 1235q36 74 84 109.5t97 35.5q37 0 66.5 -14.5t64.5 -46.5l22 -21q55 -49 103 -49q74 0 143 127l35 -16q-36 -74 -83.5 -110t-96.5 -36q-65 0 -133 62l-23 20q-31 28 -52 39t-48 11q-75 0 -144 -127z" />
<glyph unicode="&#x2000;" horiz-adv-x="934" />
<glyph unicode="&#x2001;" horiz-adv-x="1868" />
<glyph unicode="&#x2002;" horiz-adv-x="934" />
<glyph unicode="&#x2003;" horiz-adv-x="1868" />
<glyph unicode="&#x2004;" horiz-adv-x="622" />
<glyph unicode="&#x2005;" horiz-adv-x="467" />
<glyph unicode="&#x2006;" horiz-adv-x="311" />
<glyph unicode="&#x2007;" horiz-adv-x="311" />
<glyph unicode="&#x2008;" horiz-adv-x="233" />
<glyph unicode="&#x2009;" horiz-adv-x="373" />
<glyph unicode="&#x200a;" horiz-adv-x="103" />
<glyph unicode="&#x2010;" horiz-adv-x="647" d="M82 723l8 37h504l-8 -37h-504z" />
<glyph unicode="&#x2011;" horiz-adv-x="647" d="M82 723l8 37h504l-8 -37h-504z" />
<glyph unicode="&#x2012;" horiz-adv-x="647" d="M82 723l8 37h504l-8 -37h-504z" />
<glyph unicode="&#x2013;" horiz-adv-x="1036" d="M82 723l8 37h893l-8 -37h-893z" />
<glyph unicode="&#x2014;" horiz-adv-x="1392" d="M82 723l8 37h1249l-8 -37h-1249z" />
<glyph unicode="&#x2018;" horiz-adv-x="274" d="M186 1116l31 144l86 174h41l-86 -174h49l-31 -144h-90z" />
<glyph unicode="&#x2019;" horiz-adv-x="274" d="M186 1116l86 174h-49l31 144h90l-31 -144l-86 -174h-41z" />
<glyph unicode="&#x201a;" horiz-adv-x="274" d="M-88 -174l86 174h-49l31 143h90l-31 -143l-86 -174h-41z" />
<glyph unicode="&#x201c;" horiz-adv-x="479" d="M186 1116l31 144l86 174h41l-86 -174h49l-31 -144h-90zM391 1116l31 144l86 174h41l-86 -174h49l-31 -144h-90z" />
<glyph unicode="&#x201d;" horiz-adv-x="479" d="M186 1116l86 174h-49l31 144h90l-31 -144l-86 -174h-41zM391 1116l86 174h-49l31 144h90l-31 -144l-86 -174h-41z" />
<glyph unicode="&#x201e;" horiz-adv-x="479" d="M-88 -174l86 174h-49l31 143h90l-31 -143l-86 -174h-41zM117 -174l86 174h-49l30 143h90l-30 -143l-86 -174h-41z" />
<glyph unicode="&#x2022;" horiz-adv-x="712" d="M70 713q0 128 82.5 211.5t212.5 83.5t212 -83.5t82 -211.5t-82 -211.5t-212 -83.5t-212.5 83.5t-82.5 211.5z" />
<glyph unicode="&#x2026;" horiz-adv-x="847" d="M-51 0l31 143h90l-31 -143h-90zM236 0l30 143h90l-30 -143h-90zM522 0l31 143h90l-31 -143h-90z" />
<glyph unicode="&#x202f;" horiz-adv-x="373" />
<glyph unicode="&#x2039;" horiz-adv-x="413" d="M25 549l315 348h47l-321 -352l165 -344h-38z" />
<glyph unicode="&#x203a;" horiz-adv-x="413" d="M-27 201l322 352l-166 344h39l168 -348l-316 -348h-47z" />
<glyph unicode="&#x205f;" horiz-adv-x="467" />
<glyph unicode="&#x20ac;" horiz-adv-x="1173" d="M-29 539l9 36h165q9 116 37 226h-155l8 37h158q76 246 236 396t343 150q160 0 260 -101.5t139 -293.5l-36 -6q-79 365 -363 365q-176 0 -328 -152q-138 -141 -208 -358h499l-8 -37h-502q-30 -105 -39 -226h494l-8 -36h-488v-45q0 -217 100 -347.5t269 -130.5 q145 0 265 99t200 276l31 -14q-80 -186 -208.5 -291.5t-287.5 -105.5q-188 0 -299 140.5t-111 373.5v45h-172z" />
<glyph unicode="&#x2122;" horiz-adv-x="1226" d="M195 1397l8 37h434l-8 -37h-197l-115 -541h-41l115 541h-196zM598 856l123 578h57l111 -533l336 533h61l-123 -578h-41l111 520l-328 -520h-47l-108 522l-111 -522h-41z" />
<glyph unicode="&#x25fc;" horiz-adv-x="983" d="M0 0v983h983v-983h-983z" />
<glyph unicode="&#xfb01;" horiz-adv-x="849" d="M39 0l203 950h-168l6 37h170l43 205q29 135 104 198.5t207 63.5q42 0 88 -8l-8 -37q-44 8 -82 8q-114 0 -178.5 -54t-89.5 -171l-43 -205h313l-6 -37h-315l-203 -950h-41zM532 0l209 987h41l-209 -987h-41zM788 1208l39 176h41l-39 -176h-41z" />
<glyph unicode="&#xfb02;" horiz-adv-x="849" d="M39 0l203 950h-168l6 37h170l43 205q29 135 104 198.5t207 63.5q42 0 88 -8l-8 -37q-44 8 -82 8q-114 0 -178.5 -54t-89.5 -171l-43 -205h313l-6 -37h-315l-203 -950h-41zM532 0l306 1434h41l-306 -1434h-41z" />
</font>
</defs>
</svg>
