<?xml version="1.0" standalone="no"?>
<!DOCTYPE svg PUBLIC "-//W3C//DTD SVG 1.1//EN" "http://www.w3.org/Graphics/SVG/1.1/DTD/svg11.dtd" >
<svg xmlns="http://www.w3.org/2000/svg">
<metadata></metadata>
<defs>
<font id="baltomedium_italic" horiz-adv-x="1153" >
<font-face units-per-em="2048" ascent="1659" descent="-389" />
<missing-glyph horiz-adv-x="428" />
<glyph horiz-adv-x="0" />
<glyph horiz-adv-x="682" />
<glyph unicode=" "  horiz-adv-x="428" />
<glyph unicode="&#x09;" horiz-adv-x="428" />
<glyph unicode="&#xa0;" horiz-adv-x="428" />
<glyph unicode="!" horiz-adv-x="675" d="M51 0l62 287h284l-59 -287h-287zM188 436l134 848l30 150h295l-33 -150l-227 -848h-199z" />
<glyph unicode="&#x22;" horiz-adv-x="860" d="M193 926l92 508h231l-125 -508h-198zM575 926l93 508h231l-125 -508h-199z" />
<glyph unicode="#" horiz-adv-x="1173" d="M-41 360l59 164h205l115 316h-207l62 164h204l129 360h191l-129 -360h229l129 360h191l-129 -360h202l-61 -164h-201l-114 -316h204l-59 -164h-205l-129 -360h-190l129 360h-230l-129 -360h-190l129 360h-205zM414 524h229l115 316h-230z" />
<glyph unicode="$" horiz-adv-x="1183" d="M-18 334l188 115q77 -145 163.5 -215t198.5 -70q103 0 169.5 54t66.5 142q0 58 -38.5 102t-137.5 85l-152 63q-130 55 -200 147.5t-70 215.5q0 178 128 295.5t353 126.5l45 213h203l-49 -240q188 -64 309 -291l-186 -110q-78 128 -150 181.5t-168 53.5t-152.5 -50 t-56.5 -132q0 -113 142 -168l157 -61q168 -66 239 -163.5t71 -230.5q0 -117 -67 -213.5t-181.5 -152.5t-253.5 -62l-47 -213h-203l49 236q-245 69 -370 342z" />
<glyph unicode="%" horiz-adv-x="1687" d="M119 952q0 77 29 155.5t80 142.5t128 104.5t164 40.5q149 0 236.5 -86.5t87.5 -235.5q0 -78 -29.5 -156.5t-81 -142t-128 -103.5t-163.5 -40q-149 0 -236 86t-87 235zM176 0l1161 1364h176l-1161 -1364h-176zM317 932q0 -77 33.5 -116.5t95.5 -39.5q56 0 103 47 q42 42 68 119.5t26 151.5q0 75 -33 114t-94 39q-56 0 -104 -45q-42 -42 -68.5 -119t-26.5 -151zM846 291q0 105 49 205.5t143 168.5t209 68q150 0 237 -86t87 -235q0 -77 -29.5 -155.5t-81 -142.5t-128 -104.5t-163.5 -40.5q-149 0 -236 86.5t-87 235.5zM1047 270 q0 -75 33 -114t94 -39q56 0 104 45q40 42 66 119t26 151q0 156 -127 156q-54 0 -104 -47q-40 -42 -66 -119.5t-26 -151.5z" />
<glyph unicode="&#x26;" horiz-adv-x="1439" d="M-35 360q0 155 95.5 271t293.5 182q-47 127 -47 231q0 183 117.5 301.5t310.5 118.5q175 0 276 -84.5t101 -212.5q0 -134 -109.5 -247.5t-336.5 -182.5q95 -158 262 -325q123 149 221 354l197 -66q-119 -257 -273 -424q44 -36 82 -50.5t88 -14.5h41l-45 -211h-41 q-96 0 -170 25t-145 84q-210 -140 -443 -140q-219 0 -347 106t-128 285zM238 381q0 -104 67 -165.5t176 -61.5q128 0 262 88q-204 213 -315 415q-95 -42 -142.5 -113.5t-47.5 -162.5zM561 1057q0 -82 33 -172q155 54 219 119t64 145q0 64 -38 100.5t-104 36.5 q-75 0 -124.5 -64t-49.5 -165z" />
<glyph unicode="'" horiz-adv-x="475" d="M193 926l92 508h231l-125 -508h-198z" />
<glyph unicode="(" horiz-adv-x="790" d="M84 410q0 291 155 602.5t427 543.5h241q-286 -269 -427.5 -574t-141.5 -583q0 -375 180 -669h-235q-97 144 -148 319.5t-51 360.5z" />
<glyph unicode=")" horiz-adv-x="788" d="M-133 -270q286 269 427.5 574t141.5 583q0 375 -180 669h236q96 -144 147 -319t51 -360q0 -291 -154.5 -603t-424.5 -544h-244z" />
<glyph unicode="*" horiz-adv-x="907" d="M172 1087l94 205l230 -143l4 285h217l-121 -289l276 141l43 -203l-297 -36l166 -211l-194 -109l-70 258l-178 -258l-156 131l256 191z" />
<glyph unicode="+" horiz-adv-x="1187" d="M109 602l36 176h379l82 389h185l-82 -389h378l-36 -176h-381l-82 -387h-185l82 387h-376z" />
<glyph unicode="," horiz-adv-x="542" d="M-70 -299l172 299h-114l61 287h279l-62 -287l-188 -299h-148z" />
<glyph unicode="-" horiz-adv-x="784" d="M76 616l49 228h608l-49 -228h-608z" />
<glyph unicode="." horiz-adv-x="542" d="M-12 0l61 287h279l-62 -287h-278z" />
<glyph unicode="/" horiz-adv-x="991" d="M-215 -287l1128 1884h236l-1129 -1884h-235z" />
<glyph unicode="0" horiz-adv-x="1302" d="M53 492q0 136 29.5 267t89 246t141 202t192.5 137.5t238 50.5q232 0 370 -142t138 -381q0 -136 -29.5 -267t-88.5 -246t-140.5 -202t-193 -137.5t-238.5 -50.5q-231 0 -369.5 142t-138.5 381zM319 459q0 -148 67 -227.5t179 -79.5q114 0 201 90q96 95 157.5 286t61.5 377 q0 148 -67 227.5t-179 79.5q-110 0 -200 -90q-96 -95 -158 -286t-62 -377z" />
<glyph unicode="1" horiz-adv-x="958" d="M-66 0l39 186h285l197 928q-64 -33 -151 -64t-154 -44l38 192q176 52 379 166h205l-252 -1178h279l-39 -186h-826z" />
<glyph unicode="2" horiz-adv-x="1099" d="M-74 0l43 199l520 376q196 144 267 245.5t71 211.5q0 81 -49.5 130.5t-134.5 49.5q-96 0 -176 -79t-139 -228l-232 47q70 205 219.5 324t348.5 119q136 0 235.5 -51.5t148 -134t48.5 -183.5q0 -155 -100.5 -285.5t-354.5 -300.5l-356 -239h637l-43 -201h-953z" />
<glyph unicode="3" horiz-adv-x="1132" d="M-23 403l240 41q53 -292 285 -292q115 0 185.5 68.5t70.5 187.5q0 99 -55 147.5t-177 48.5h-116l39 180h102q150 0 225.5 63t75.5 179q0 84 -54 135t-153 51q-96 0 -171 -68.5t-120 -201.5l-229 47q53 181 195.5 293.5t343.5 112.5q213 0 336.5 -105t123.5 -258 q0 -115 -87.5 -207t-239.5 -127q115 -35 172 -115.5t57 -179.5q0 -183 -151.5 -308.5t-385.5 -125.5q-223 0 -355 115t-157 319z" />
<glyph unicode="4" horiz-adv-x="1191" d="M-55 303l35 170l823 891h311l-186 -872h174l-39 -189h-174l-66 -303h-264l64 303h-678zM238 492h426l131 612z" />
<glyph unicode="5" horiz-adv-x="1165" d="M2 373l242 41q45 -262 264 -262q115 0 195.5 96.5t80.5 255.5q0 102 -50 160.5t-144 58.5q-73 0 -136.5 -36t-131.5 -114l-236 43l199 748h860l-43 -197h-647l-111 -417q69 73 158.5 117t177.5 44q171 0 272 -109t101 -286q0 -154 -72 -279.5t-199.5 -196.5t-283.5 -71 q-219 0 -345 106.5t-151 297.5z" />
<glyph unicode="6" horiz-adv-x="1224" d="M53 489q0 178 50.5 342t140 289t223 200t289.5 75q183 0 293.5 -88t144.5 -242l-242 -45q-49 192 -209 192q-134 0 -238.5 -130t-158.5 -382q75 100 174.5 152.5t204.5 52.5q124 0 217.5 -57.5t140.5 -149t47 -200.5q0 -108 -43 -205t-117.5 -168.5t-183 -113.5 t-233.5 -42q-230 0 -365 137t-135 383zM319 391q0 -109 65.5 -174t166.5 -65q135 0 220 94.5t85 245.5q0 99 -61 164t-162 65q-132 0 -223 -96t-91 -234z" />
<glyph unicode="7" horiz-adv-x="1013" d="M121 1165l43 199h973l-45 -209q-258 -222 -419 -495.5t-267 -659.5h-279q107 361 282.5 646.5t438.5 518.5h-727z" />
<glyph unicode="8" horiz-adv-x="1196" d="M-23 352q0 129 94.5 230.5t270.5 136.5q-95 48 -143.5 121.5t-48.5 158.5q0 77 37 148.5t103.5 126.5t169 88t224.5 33q234 0 359.5 -103.5t125.5 -255.5q0 -114 -86.5 -203.5t-224.5 -125.5q106 -45 167.5 -130.5t61.5 -179.5q0 -184 -158 -306t-421 -122 q-244 0 -387.5 108.5t-143.5 274.5zM248 367q0 -93 73.5 -153t200.5 -60q135 0 218 68.5t83 168.5q0 94 -72.5 155.5t-199.5 61.5q-137 0 -220 -70.5t-83 -170.5zM399 981q0 -85 65.5 -134.5t180.5 -49.5q120 0 195 64.5t75 166.5q0 85 -63 133.5t-178 48.5q-119 0 -197 -66 t-78 -163z" />
<glyph unicode="9" horiz-adv-x="1224" d="M2 330l242 47q50 -225 245 -225q132 0 237.5 131t160.5 387q-69 -89 -163.5 -139t-201.5 -50q-189 0 -305.5 109t-116.5 291q0 101 40 194t112 164t179.5 113.5t234.5 42.5q238 0 375 -134.5t137 -381.5q0 -253 -90 -461.5t-251 -328.5t-360 -120q-203 0 -323.5 95 t-151.5 266zM377 897q0 -108 61.5 -169.5t161.5 -61.5q135 0 224 86t89 213q0 110 -68.5 178.5t-178.5 68.5q-127 0 -208 -90t-81 -225z" />
<glyph unicode=":" horiz-adv-x="583" d="M8 0l62 287h278l-61 -287h-279zM141 623l62 286h278l-61 -286h-279z" />
<glyph unicode=";" horiz-adv-x="583" d="M-49 -299l172 299h-115l62 287h278l-61 -287l-189 -299h-147zM141 623l62 286h278l-61 -286h-279z" />
<glyph unicode="&#x3c;" horiz-adv-x="1187" d="M90 596l39 188l1032 424l-47 -207l-815 -321l680 -322l-39 -186z" />
<glyph unicode="=" horiz-adv-x="1187" d="M86 387l37 172h895l-39 -172h-893zM178 819l37 172h893l-37 -172h-893z" />
<glyph unicode="&#x3e;" horiz-adv-x="1187" d="M33 172l45 207l813 319l-676 322l39 188l850 -424l-41 -188z" />
<glyph unicode="?" horiz-adv-x="1161" d="M145 1040q68 195 212 309.5t341 114.5q213 0 330 -108.5t117 -286.5q0 -199 -140 -328.5t-370 -154.5l-33 -150h-256l68 312h86q179 0 278 81t99 232q0 101 -50.5 159t-144.5 58q-194 0 -305 -283zM238 0l61 287h287l-62 -287h-286z" />
<glyph unicode="@" horiz-adv-x="1908" d="M51 387q0 156 45.5 303t133.5 270.5t207.5 216.5t276 145t330.5 52q361 0 564.5 -182.5t203.5 -495.5q0 -149 -43.5 -278t-117 -215.5t-169 -135.5t-198.5 -49q-89 0 -151 45.5t-74 131.5q-55 -80 -130 -128.5t-157 -48.5q-139 0 -226 101.5t-87 273.5q0 153 62 286.5 t167 212.5t225 79q82 0 142.5 -50.5t87.5 -132.5l33 152h229l-131 -621q-17 -74 1.5 -110.5t63.5 -36.5q54 0 108.5 38t99 104.5t72.5 167t28 214.5q0 256 -156.5 397.5t-446.5 141.5q-148 0 -279.5 -44.5t-230.5 -124t-171.5 -185t-110 -232.5t-37.5 -262 q0 -293 170.5 -443.5t497.5 -150.5q159 0 360 47l25 -135q-211 -55 -385 -55q-396 0 -614 188.5t-218 548.5zM694 371q0 -95 36.5 -146t100.5 -51q73 0 138 62q53 53 87 154t34 212q0 101 -36 156t-102 55q-68 0 -129 -61q-56 -54 -92.5 -161t-36.5 -220z" />
<glyph unicode="A" horiz-adv-x="1355" d="M-119 0l797 1434h323l189 -1434h-279l-41 373h-530l-199 -373h-260zM446 573h402l-68 625z" />
<glyph unicode="B" horiz-adv-x="1312" d="M-12 0l305 1434h549q213 0 322.5 -88.5t109.5 -241.5q0 -140 -101 -238.5t-264 -126.5q133 -23 204 -98t71 -186q0 -212 -156.5 -333.5t-415.5 -121.5h-624zM297 182h276q152 0 242 67.5t90 211.5q0 182 -243 182h-267zM434 823h256q142 0 222.5 67.5t80.5 190.5 q0 170 -233 170h-236z" />
<glyph unicode="C" horiz-adv-x="1355" d="M70 563q0 126 30.5 252.5t93.5 243.5t150 207t209.5 144t261.5 54q218 0 350.5 -124t163.5 -359l-256 -25q-42 314 -258 314q-141 0 -254 -125q-95 -109 -155 -286t-60 -329q0 -173 74 -269.5t207 -96.5q246 0 379 342l237 -55q-86 -236 -247.5 -359t-381.5 -123 q-259 0 -401.5 160t-142.5 434z" />
<glyph unicode="D" horiz-adv-x="1421" d="M-12 0l305 1434h479q125 0 225 -27t169.5 -75t116 -117.5t68 -153t21.5 -182.5q0 -136 -31 -263.5t-96.5 -240t-159 -195.5t-225.5 -131.5t-289 -48.5h-583zM301 199h262q200 0 338 135q92 90 142.5 239.5t50.5 323.5q0 161 -85 249.5t-284 88.5h-203z" />
<glyph unicode="E" horiz-adv-x="1220" d="M-12 0l305 1434h971l-43 -205h-701l-84 -393h608l-43 -201h-606l-92 -430h701l-46 -205h-970z" />
<glyph unicode="F" horiz-adv-x="1148" d="M-12 0l305 1434h948l-43 -205h-678l-92 -438h580l-41 -201h-582l-125 -590h-272z" />
<glyph unicode="G" horiz-adv-x="1419" d="M68 535q0 133 31.5 265t95.5 251.5t153.5 211.5t214.5 146.5t268 54.5q220 0 355 -118.5t162 -323.5l-246 -25q-51 275 -273 275q-143 0 -258 -115q-102 -102 -164.5 -283t-62.5 -344q0 -171 76 -268.5t217 -97.5q82 0 157 38.5t136.5 121.5t85.5 198l6 29h-352l41 197 h614l-158 -748h-217l33 203q-74 -109 -182 -171.5t-242 -62.5q-227 0 -359 155t-132 411z" />
<glyph unicode="H" horiz-adv-x="1392" d="M-12 0l305 1434h272l-127 -596h586l127 596h270l-305 -1434h-270l131 616h-586l-131 -616h-272z" />
<glyph unicode="I" horiz-adv-x="550" d="M-4 0l305 1434h272l-305 -1434h-272z" />
<glyph unicode="J" horiz-adv-x="907" d="M-100 88l110 195q113 -86 217 -86q89 0 143.5 49.5t78.5 165.5l217 1022h272l-221 -1037q-90 -422 -473 -422q-94 0 -186 30.5t-158 82.5z" />
<glyph unicode="K" horiz-adv-x="1370" d="M-12 0l305 1434h272l-159 -752l720 752h304l-580 -600l324 -834h-295l-244 649l-297 -289l-78 -360h-272z" />
<glyph unicode="L" horiz-adv-x="1161" d="M-12 0l305 1434h272l-260 -1219h674l-45 -215h-946z" />
<glyph unicode="M" horiz-adv-x="1753" d="M-12 0l305 1434h377l116 -1135l594 1135h404l-305 -1434h-265l252 1180l-628 -1180h-238l-127 1169l-250 -1169h-235z" />
<glyph unicode="N" horiz-adv-x="1404" d="M-12 0l305 1434h276l402 -1033l219 1033h246l-306 -1434h-266l-407 1055l-224 -1055h-245z" />
<glyph unicode="O" horiz-adv-x="1447" d="M68 561q0 127 30.5 254t94.5 244t152 207t213 144t269 54q276 0 423 -159t147 -433q0 -127 -31 -254t-94.5 -244t-152 -207t-213.5 -144t-269 -54q-276 0 -422.5 159t-146.5 433zM346 530q0 -176 74.5 -272t220.5 -96q143 0 252 112q101 101 164 283.5t63 345.5 q0 176 -75 272.5t-222 96.5q-142 0 -252 -113q-100 -100 -162.5 -282.5t-62.5 -346.5z" />
<glyph unicode="P" horiz-adv-x="1304" d="M-12 0l305 1434h538q248 0 372 -101t124 -291q0 -105 -38.5 -196t-113 -162.5t-195 -112.5t-273.5 -41h-334l-113 -530h-272zM414 723h288q170 0 254 84t84 219q0 107 -64 160t-204 53h-248z" />
<glyph unicode="Q" horiz-adv-x="1447" d="M68 561q0 127 30.5 254t94.5 244t152 207t213 144t269 54q276 0 423 -159t147 -433q0 -166 -51.5 -327.5t-159 -300t-254.5 -209.5q23 -68 59.5 -92.5t108.5 -24.5q36 0 76 4l-43 -198q-47 -7 -93 -7q-129 0 -200.5 59t-98.5 199v2q-44 -8 -104 -8q-276 0 -422.5 159 t-146.5 433zM346 530q0 -176 74.5 -272t220.5 -96q143 0 252 112q101 101 164 283.5t63 345.5q0 176 -75 272.5t-222 96.5q-142 0 -252 -113q-100 -100 -162.5 -282.5t-62.5 -346.5z" />
<glyph unicode="R" horiz-adv-x="1333" d="M-12 0l305 1434h553q224 0 341.5 -103t117.5 -274t-107.5 -286.5t-300.5 -158.5l236 -612h-287l-211 580h-252l-125 -580h-270zM424 772h278q151 0 234.5 73.5t83.5 194.5q0 96 -59.5 147.5t-174.5 51.5h-262z" />
<glyph unicode="S" horiz-adv-x="1290" d="M-12 367l202 120q171 -315 410 -315q116 0 187 56t71 141q0 68 -41.5 114.5t-154.5 91.5l-160 66q-168 70 -240 162.5t-72 230.5q0 84 37 161t104 137t170.5 96t227.5 36q165 0 291.5 -81.5t232.5 -254.5l-192 -118q-91 140 -171.5 198t-178.5 58q-106 0 -170 -54 t-64 -133q0 -64 36.5 -109t123.5 -81l158 -66q194 -81 273 -177t79 -224q0 -197 -154 -325t-395 -128q-214 0 -366.5 104.5t-243.5 293.5z" />
<glyph unicode="T" horiz-adv-x="1179" d="M152 1219l45 215h1110l-47 -215h-420l-258 -1219h-273l258 1219h-415z" />
<glyph unicode="U" horiz-adv-x="1372" d="M90 292q-9 46 -10 97q0 67 16 143l193 902h272l-194 -918q-13 -62 -13 -113q0 -87 39 -141q62 -84 203 -84q279 0 350 338l197 918h264l-193 -904q-63 -290 -223 -425.5t-416 -135.5q-132 0 -234 37.5t-165.5 109t-85.5 176.5z" />
<glyph unicode="V" horiz-adv-x="1280" d="M186 1434h275l92 -1184l604 1184h260l-755 -1434h-330z" />
<glyph unicode="W" horiz-adv-x="1937" d="M211 1434h266l-4 -1147l518 1147h293l31 -1155l487 1155h250l-629 -1434h-325l-25 1147l-510 -1147h-336z" />
<glyph unicode="X" horiz-adv-x="1347" d="M-113 0l635 743l-299 691h295l211 -496l416 496h293l-594 -695l317 -739h-299l-227 543l-451 -543h-297z" />
<glyph unicode="Y" horiz-adv-x="1267" d="M186 1434h275l182 -705l483 705h277l-676 -961l-102 -473h-273l103 475z" />
<glyph unicode="Z" horiz-adv-x="1169" d="M-80 0l45 219l909 1000h-675l45 215h1007l-47 -220l-909 -999h713l-45 -215h-1043z" />
<glyph unicode="[" horiz-adv-x="823" d="M-12 -270l389 1826h522l-43 -202h-266l-303 -1422h266l-43 -202h-522z" />
<glyph unicode="\" horiz-adv-x="991" d="M236 1597h215l346 -1884h-215z" />
<glyph unicode="]" horiz-adv-x="825" d="M-90 -270l43 202h266l303 1422h-268l45 202h522l-389 -1826h-522z" />
<glyph unicode="^" horiz-adv-x="1058" d="M66 637l516 797h219l174 -797h-207l-113 598l-368 -598h-221z" />
<glyph unicode="_" horiz-adv-x="1155" d="M-221 -315l43 198h1175l-41 -198h-1177z" />
<glyph unicode="`" d="M416 1425h258l84 -276h-170z" />
<glyph unicode="a" horiz-adv-x="1060" d="M-39 248q0 67 20 123.5t65.5 105.5t115.5 83t175 53.5t238 19.5h130l4 18q9 42 9 76q0 57 -24 93q-38 58 -131 57q-64 0 -123.5 -42.5t-103.5 -119.5l-213 59q63 132 179.5 205.5t277.5 73.5q216 -1 314 -121q68 -84 69 -208q0 -53 -13 -114l-129 -610h-250l35 164 q-62 -88 -151.5 -139.5t-190.5 -51.5q-136 0 -219.5 76t-83.5 199zM215 276q0 -64 42 -101.5t114 -37.5q98 0 179 76t103 184l21 97h-84q-196 0 -285.5 -59t-89.5 -159z" />
<glyph unicode="b" horiz-adv-x="1185" d="M-33 0l305 1434h252l-121 -566q61 86 146 135.5t180 49.5q155 0 260 -120t105 -315q0 -97 -22.5 -191t-67 -176.5t-105.5 -145.5t-143.5 -99.5t-175.5 -36.5q-113 0 -197 65t-119 171l-45 -205h-252zM307 399q0 -127 61 -196.5t164 -69.5q89 0 160 74q64 64 107 189 t43 251q0 115 -55 178.5t-154 63.5q-96 0 -176 -80q-63 -65 -106.5 -183t-43.5 -227z" />
<glyph unicode="c" horiz-adv-x="1095" d="M25 412q0 122 41 237t115 205t186 144.5t243 54.5q184 0 293 -96.5t131 -272.5l-235 -20q-27 221 -193 221q-98 0 -178 -80q-68 -70 -111 -188t-43 -232q0 -117 52.5 -182.5t144.5 -65.5q161 0 281 248l209 -53q-63 -170 -196 -266.5t-306 -96.5q-192 0 -313 122 t-121 321z" />
<glyph unicode="d" horiz-adv-x="1185" d="M23 403q0 97 22.5 191t67 177t105 146t143 99.5t174.5 36.5q114 0 198 -66t119 -174l131 621h254l-305 -1434h-254l33 156q-61 -87 -146 -137t-178 -50q-156 0 -260 119.5t-104 314.5zM272 377q0 -115 55.5 -179.5t153.5 -64.5q96 0 176 80q64 64 108 183t44 227 q0 128 -61.5 197t-163.5 69q-90 0 -162 -72q-64 -64 -107 -189.5t-43 -250.5z" />
<glyph unicode="e" horiz-adv-x="1118" d="M25 410q0 123 41 238t114 205.5t184 145t242 54.5q192 0 308 -106t116 -285q0 -83 -24 -191h-727q-7 -51 -7 -84q0 -126 57.5 -190t166.5 -64q71 0 146.5 49.5t141.5 145.5l191 -74q-90 -140 -218 -212.5t-282 -72.5q-205 0 -327.5 120t-122.5 321zM313 614h482 q6 38 6 66q0 106 -51 158.5t-146 52.5q-99 0 -176 -80q-72 -69 -115 -197z" />
<glyph unicode="f" horiz-adv-x="718" d="M39 0l182 854h-151l34 168h152l25 115q33 158 131 235.5t284 77.5q78 0 144 -16l-35 -168q-44 10 -98 10q-75 0 -116.5 -32t-58.5 -105l-24 -117h246l-37 -168h-244l-182 -854h-252z" />
<glyph unicode="g" horiz-adv-x="1083" d="M-158 -150q0 194 267 244q-45 23 -69 59t-24 78q0 136 207 177q-73 44 -112 112t-39 148q0 158 135 271.5t348 113.5q169 0 276 -74q83 164 281 164h16l-36 -178q-69 -1 -109.5 -15.5t-71.5 -46.5q56 -74 56 -174q0 -156 -136.5 -270.5t-349.5 -114.5q-58 0 -116 10 q-121 -26 -121 -80q0 -27 22.5 -39.5t83.5 -13.5q176 -3 271 -22t159 -56q121 -71 121 -202q0 -167 -154.5 -263t-416.5 -96q-240 0 -364 73.5t-124 194.5zM80 -131q0 -62 65.5 -97.5t198.5 -35.5q142 0 225.5 43t83.5 110q0 63 -75 97t-261 34q-117 0 -177 -41.5 t-60 -109.5zM307 657q0 -80 48.5 -124t136.5 -44q97 0 163 66q76 76 76 184q0 82 -48.5 126t-137.5 44q-99 0 -164 -65q-74 -74 -74 -187z" />
<glyph unicode="h" horiz-adv-x="1128" d="M-33 0l305 1434h252l-127 -600q143 219 357 219q156 0 232 -103q52 -70 52 -173q0 -49 -12 -105l-141 -672h-252l135 635q10 48 10 85q0 54 -20 86q-34 54 -129 54q-98 0 -182 -91.5t-113 -229.5l-115 -539h-252z" />
<glyph unicode="i" horiz-adv-x="493" d="M-23 0l218 1022h251l-217 -1022h-252zM225 1167l51 242h252l-51 -242h-252z" />
<glyph unicode="j" horiz-adv-x="493" d="M-319 -391l34 166q46 -4 80 -4q73 0 110 32.5t54 110.5l236 1108h251l-231 -1092q-37 -169 -134 -251t-269 -82q-70 0 -131 12zM225 1167l51 242h252l-51 -242h-252z" />
<glyph unicode="k" horiz-adv-x="1105" d="M-33 0l305 1434h252l-190 -895l506 483h268l-428 -410l248 -612h-266l-177 459l-209 -191l-57 -268h-252z" />
<glyph unicode="l" horiz-adv-x="493" d="M-23 0l306 1434h252l-306 -1434h-252z" />
<glyph unicode="m" horiz-adv-x="1742" d="M-33 0l217 1022h252l-41 -191q71 107 162 164.5t191 57.5q111 0 183 -68t81 -178q72 118 166.5 182t197.5 64q156 0 228 -106q49 -72 49 -171q0 -46 -11 -98l-143 -678h-254l137 641q10 46 10 82q0 49 -18 81q-32 56 -114 56q-92 0 -175 -93t-112 -228l-115 -539h-252 l137 641q10 45 10 80q1 51 -19 83q-32 56 -116 56q-91 0 -173 -93t-111 -228l-115 -539h-252z" />
<glyph unicode="n" horiz-adv-x="1128" d="M-33 0l217 1022h252l-39 -188q143 219 357 219q156 0 232 -103q52 -70 52 -173q0 -49 -12 -105l-141 -672h-252l135 635q10 48 10 85q0 54 -20 86q-34 54 -129 54q-98 0 -182 -91.5t-113 -229.5l-115 -539h-252z" />
<glyph unicode="o" d="M25 412q0 122 41 237t115 205t186 144.5t243 54.5q202 0 326.5 -121t124.5 -322q0 -122 -41.5 -237t-116 -205t-187 -144.5t-243.5 -54.5q-202 0 -325 120.5t-123 322.5zM274 377q0 -116 54 -180t155 -64q94 0 172 78q67 65 110.5 190.5t43.5 245.5q0 116 -53.5 179 t-153.5 63q-98 0 -174 -76q-66 -67 -110 -192t-44 -244z" />
<glyph unicode="p" horiz-adv-x="1185" d="M-115 -389l299 1411h252l-30 -152q62 86 145.5 134.5t177.5 48.5q155 0 260 -120t105 -315q0 -97 -22.5 -191t-67 -176.5t-105.5 -145.5t-143.5 -99.5t-175.5 -36.5q-113 0 -197 65t-119 171l-127 -594h-252zM307 399q0 -127 61 -196.5t164 -69.5q89 0 160 74 q64 64 107 189t43 251q0 115 -55 178.5t-154 63.5q-96 0 -176 -80q-63 -65 -106.5 -183t-43.5 -227z" />
<glyph unicode="q" horiz-adv-x="1185" d="M23 403q0 97 22.5 191t67 177t105 146t143 99.5t174.5 36.5q114 0 198 -65.5t119 -172.5l43 207h254l-299 -1411h-254l115 545q-61 -87 -146 -137t-178 -50q-156 0 -260 119.5t-104 314.5zM272 377q0 -115 55.5 -179.5t153.5 -64.5q96 0 176 80q64 64 108 183t44 227 q0 128 -61.5 197t-163.5 69q-90 0 -162 -72q-64 -64 -107 -189.5t-43 -250.5z" />
<glyph unicode="r" horiz-adv-x="788" d="M-33 0l217 1022h252l-47 -217q67 119 160.5 175t222.5 56q21 0 37 -4l-49 -237q-75 6 -80 6q-140 0 -232 -81.5t-126 -238.5l-103 -481h-252z" />
<glyph unicode="s" horiz-adv-x="1036" d="M-41 248l162 104q145 -217 340 -217q79 0 128.5 35t49.5 84q0 46 -31 75.5t-116 57.5l-136 45q-131 43 -191.5 112.5t-60.5 178.5q0 138 116 234t315 96q137 0 237 -60t182 -190l-159 -98q-71 99 -133.5 141.5t-141.5 42.5q-74 0 -121 -34.5t-47 -84.5q0 -45 28 -75 t97 -54l115 -41q165 -60 231 -129t66 -180q0 -138 -125 -230t-313 -92q-160 0 -285.5 70.5t-206.5 208.5z" />
<glyph unicode="t" horiz-adv-x="778" d="M70 854l34 168h156l64 295h249l-63 -295h281l-35 -168h-281l-117 -545q-6 -29 -6 -52q0 -33 13 -53q22 -32 86 -32q46 0 161 14l-39 -178q-128 -22 -223 -22q-154 0 -214 84q-38 54 -39 139q0 47 12 102l116 543h-155z" />
<glyph unicode="u" horiz-adv-x="1126" d="M33 352l141 670h252l-133 -635q-10 -46 -10 -83q0 -142 147 -142q98 0 181 92t112 231l115 537h252l-218 -1022h-251l38 186q-144 -217 -354 -217q-156 0 -232 104q-52 71 -52 174q0 49 12 105z" />
<glyph unicode="v" horiz-adv-x="1042" d="M109 1022h256l65 -825l418 825h242l-549 -1022h-320z" />
<glyph unicode="w" horiz-adv-x="1562" d="M115 1022h247l-6 -813l375 813h264l31 -809l338 809h227l-469 -1022h-291l-32 772l-361 -772h-291z" />
<glyph unicode="x" horiz-adv-x="1097" d="M-111 0l488 530l-238 492h267l153 -322l289 322h264l-448 -487l260 -535h-275l-168 360l-327 -360h-265z" />
<glyph unicode="y" horiz-adv-x="1042" d="M-123 -393l37 174q49 -8 117 -8q82 0 121 21.5t84 96.5l32 58l-162 1073h256l93 -789l399 789h236l-623 -1153q-84 -156 -182 -215.5t-265 -59.5q-73 0 -143 13z" />
<glyph unicode="z" horiz-adv-x="958" d="M-80 0l35 162l661 692h-491l37 168h799l-35 -162l-662 -690h522l-36 -170h-830z" />
<glyph unicode="{" horiz-adv-x="925" d="M55 567l45 207h97q71 0 100.5 28t48.5 113l66 306q38 183 129 259t260 76h200l-43 -202h-133q-78 0 -112 -33t-56 -131l-57 -266q-25 -110 -69 -169t-125 -85q71 -26 91 -87t-3 -163l-70 -332q-20 -92 -0.5 -124t92.5 -32h139l-43 -202h-178q-175 0 -239.5 86t-26.5 270 l76 354q17 75 -1 101t-81 26h-107z" />
<glyph unicode="|" horiz-adv-x="743" d="M53 -287l402 1884h227l-401 -1884h-228z" />
<glyph unicode="}" horiz-adv-x="925" d="M-90 -270l43 202h131q79 0 113.5 33t56.5 131l68 322q24 109 68 168.5t126 85.5q-71 26 -92 87t2 163l61 276q20 91 0 123.5t-94 32.5h-139l45 202h178q175 0 239.5 -86t24.5 -270l-63 -299q-18 -75 0.5 -101t81.5 -26h104l-43 -207h-98q-70 0 -100.5 -28.5t-47.5 -112.5 l-75 -360q-39 -183 -130.5 -259.5t-260.5 -76.5h-199z" />
<glyph unicode="~" horiz-adv-x="1101" d="M186 1190q72 126 157.5 192t170.5 66q55 0 99.5 -17t95.5 -57l41 -33q45 -34 66 -44.5t48 -10.5q71 0 180 156l127 -84q-74 -126 -159.5 -192t-169.5 -66q-53 0 -98 18t-97 58l-41 32q-44 33 -65 43.5t-47 10.5q-76 0 -183 -156z" />
<glyph unicode="&#xa1;" horiz-adv-x="675" d="M4 -199l33 150l227 848h199l-133 -848l-31 -150h-295zM254 948l59 287h287l-61 -287h-285z" />
<glyph unicode="&#xa2;" horiz-adv-x="1093" d="M25 412q0 114 36.5 222.5t102 196.5t165 146.5t218.5 71.5l47 217h203l-49 -230q250 -65 286 -352l-235 -20q-27 221 -193 221q-98 0 -178 -80q-68 -70 -111 -188t-43 -232q0 -117 52.5 -182.5t144.5 -65.5q161 0 281 248l209 -53q-57 -155 -171.5 -248.5t-267.5 -110.5 l-45 -217h-205l50 232q-137 39 -217 151t-80 273z" />
<glyph unicode="&#xa3;" d="M-70 0l35 166q129 50 211 151.5t82 217.5v12h-211l37 172h131q-45 129 -45 211q0 196 143.5 330.5t370.5 134.5q196 0 317.5 -114t151.5 -320l-233 -39q-25 155 -83.5 222.5t-152.5 67.5q-114 0 -183 -75.5t-69 -202.5q0 -19 2.5 -39.5t4.5 -34t9 -38.5t9.5 -32.5 t12.5 -37t11 -33.5h379l-37 -172h-309q-3 -110 -63.5 -204.5t-165.5 -156.5h692l-39 -186h-1008z" />
<glyph unicode="&#xa5;" horiz-adv-x="1198" d="M25 193l34 159h338l29 129h-338l33 160h268l-219 723h262l178 -629l447 629h266l-526 -723h264l-33 -160h-340l-26 -129h337l-34 -159h-338l-41 -193h-262l41 193h-340z" />
<glyph unicode="&#xa6;" horiz-adv-x="743" d="M53 -287l166 776h227l-165 -776h-228zM289 821l166 776h227l-166 -776h-227z" />
<glyph unicode="&#xa7;" horiz-adv-x="1245" d="M-86 -8l184 104q137 -272 353 -272q102 0 162.5 45t60.5 113q0 46 -26.5 79t-86.5 64l-282 143q-124 63 -179 133t-55 154q0 93 62 167t178 118q-58 86 -58 182q0 158 127.5 265.5t347.5 107.5q328 0 500 -336l-180 -103q-78 136 -154 195t-172 59q-98 0 -153.5 -45.5 t-55.5 -115.5q0 -85 109 -140l293 -147q229 -116 229 -279q0 -91 -61 -166.5t-170 -121.5q51 -71 51 -170q0 -163 -142.5 -276.5t-361.5 -113.5q-174 0 -309.5 91t-210.5 266zM299 616q0 -44 27.5 -76.5t85.5 -60.5l317 -155q31 -17 53 -31q88 57 88 125q0 41 -25 72t-85 61 l-320 158q-37 18 -55 32q-86 -51 -86 -125z" />
<glyph unicode="&#xa8;" d="M377 1176l47 225h219l-47 -225h-219zM741 1176l47 225h220l-50 -225h-217z" />
<glyph unicode="&#xa9;" horiz-adv-x="1703" d="M113 707v20q0 206 96.5 375t265.5 265.5t375 96.5h20q154 0 291 -57t235 -154.5t155 -234.5t57 -291v-20q0 -154 -57 -291t-155 -235t-235 -155t-291 -57h-20q-154 0 -291 57t-234.5 155t-154.5 235t-57 291zM246 709q0 -128 46.5 -242t126.5 -196t192.5 -129.5 t240.5 -47.5h16q170 0 309.5 81t218.5 222t79 312v16q0 171 -79 311.5t-218.5 221.5t-309.5 81h-16q-170 0 -309.5 -81t-218 -221.5t-78.5 -311.5v-16zM469 711v12q0 192 109.5 307t287.5 115q129 0 221 -75.5t119 -207.5l-190 -31q-34 158 -154 158q-86 0 -133 -66.5 t-47 -199.5v-12q0 -133 47.5 -200t132.5 -67q59 0 103 43.5t63 120.5l189 -30q-27 -132 -124 -210.5t-227 -78.5q-178 0 -287.5 115t-109.5 307z" />
<glyph unicode="&#xaa;" horiz-adv-x="882" d="M86 786q0 132 118 210.5t374 78.5h69l4 21q17 76 -8.5 114.5t-87.5 38.5q-97 0 -168 -116l-166 47q53 100 142 156.5t206 56.5q171 0 242.5 -90t36.5 -254l-98 -455h-201l26 121q-105 -140 -253 -140q-104 0 -170 58.5t-66 152.5zM299 809q0 -47 27 -73.5t73 -26.5 q80 0 135 49t74 133l15 70h-52q-141 0 -206.5 -42t-65.5 -110z" />
<glyph unicode="&#xab;" horiz-adv-x="1046" d="M59 586l332 393h240l-352 -408l165 -378h-217zM432 569l354 410h236l-369 -424l160 -362h-217z" />
<glyph unicode="&#xad;" horiz-adv-x="784" d="M76 616l49 228h608l-49 -228h-608z" />
<glyph unicode="&#xae;" horiz-adv-x="1193" d="M162 958v15q0 209 141 350t350 141h15q209 0 350 -141t141 -350v-15q0 -209 -141 -350t-350 -141h-15q-209 0 -350 141t-141 350zM264 958q0 -167 112 -282t277 -115h15q165 0 277 115t112 282v15q0 167 -112 282t-277 115h-15q-165 0 -277 -115t-112 -282v-15zM463 709 v514h196q106 0 160.5 -44t54.5 -120q0 -109 -98 -146l111 -204h-142l-96 184h-57v-184h-129zM592 987h57q92 0 92 70q0 69 -92 69h-57v-139z" />
<glyph unicode="&#xaf;" d="M375 1204l35 170h553l-37 -170h-551z" />
<glyph unicode="&#xb0;" horiz-adv-x="856" d="M205 1085q0 132 88 221t221 89t221 -89t88 -221t-88 -220.5t-221 -88.5t-221 88.5t-88 220.5zM352 1085q0 -72 45.5 -122t116.5 -50t116.5 50t45.5 122t-45.5 121t-116.5 49t-116.5 -49t-45.5 -121z" />
<glyph unicode="&#xb1;" horiz-adv-x="1187" d="M20 145l37 174h924l-39 -174h-922zM150 752l36 176h369l72 338h184l-72 -338h371l-39 -176h-369l-69 -336h-187l72 336h-368z" />
<glyph unicode="&#xb4;" d="M573 1149l191 276h276l-290 -276h-177z" />
<glyph unicode="&#xb6;" horiz-adv-x="1441" d="M72 727q0 136 48 252t138 202t227.5 134.5t307.5 48.5h661l-362 -1698h-205l323 1524h-198l-324 -1524h-205l133 631h-12q-259 0 -395.5 114t-136.5 316z" />
<glyph unicode="&#xb7;" horiz-adv-x="595" d="M147 623l62 286h278l-61 -286h-279z" />
<glyph unicode="&#xb8;" d="M176 -393l49 106q75 -35 160 -35q53 0 81 17t28 47q0 23 -20 38t-58 15q-32 0 -76 -14l-66 53l142 166h129l-76 -100h14q88 0 136.5 -43t48.5 -111q0 -83 -76 -133.5t-199 -50.5q-125 0 -217 45z" />
<glyph unicode="&#xba;" horiz-adv-x="946" d="M143 909q0 130 58.5 241t162.5 177t228 66q158 0 250 -94.5t92 -243.5q0 -130 -58.5 -241t-162.5 -177t-228 -66q-158 0 -250 94.5t-92 243.5zM352 893q0 -89 36.5 -135.5t100.5 -46.5q71 0 125 57q46 46 77.5 130t31.5 175q0 88 -36.5 134t-100.5 46q-68 0 -123 -55 q-47 -48 -79 -132t-32 -173z" />
<glyph unicode="&#xbb;" horiz-adv-x="1046" d="M-14 193l368 423l-159 363h217l161 -377l-352 -409h-235zM377 193l352 407l-166 379h217l168 -393l-334 -393h-237z" />
<glyph unicode="&#xbf;" horiz-adv-x="1161" d="M-8 166q0 199 140 328.5t370 154.5l33 150h256l-68 -312h-86q-179 0 -278 -81t-99 -232q0 -101 50.5 -159t144.5 -58q194 0 305 283l231 -45q-68 -195 -212 -309.5t-341 -114.5q-213 0 -329.5 108.5t-116.5 286.5zM551 948l61 287h287l-61 -287h-287z" />
<glyph unicode="&#xc0;" horiz-adv-x="1355" d="M-119 0l797 1434h323l189 -1434h-279l-41 373h-530l-199 -373h-260zM446 573h402l-68 625zM608 1792h258l78 -242h-166z" />
<glyph unicode="&#xc1;" horiz-adv-x="1355" d="M-119 0l797 1434h323l189 -1434h-279l-41 373h-530l-199 -373h-260zM446 573h402l-68 625zM776 1550l180 242h273l-271 -242h-182z" />
<glyph unicode="&#xc2;" horiz-adv-x="1355" d="M-119 0l797 1434h323l189 -1434h-279l-41 373h-530l-199 -373h-260zM446 573h402l-68 625zM535 1548l280 244h213l174 -244h-184l-115 127l-162 -127h-206z" />
<glyph unicode="&#xc3;" horiz-adv-x="1355" d="M-119 0l797 1434h323l189 -1434h-279l-41 373h-530l-199 -373h-260zM446 573h402l-68 625zM532 1614q46 87 116.5 139.5t133.5 52.5q74 0 144 -49l28 -20q52 -37 84 -37q55 0 127 102l101 -67q-46 -87 -116.5 -140t-133.5 -53q-71 0 -144 49l-28 21q-52 37 -82 37 q-57 0 -127 -103z" />
<glyph unicode="&#xc4;" horiz-adv-x="1355" d="M-119 0l797 1434h323l189 -1434h-279l-41 373h-530l-199 -373h-260zM446 573h402l-68 625zM578 1565l47 217h217l-45 -217h-219zM954 1565l45 217h220l-48 -217h-217z" />
<glyph unicode="&#xc5;" horiz-adv-x="1355" d="M-119 0l797 1434h323l189 -1434h-279l-41 373h-530l-199 -373h-260zM446 573h402l-68 625zM664 1722q0 94 69.5 163t167.5 69q91 0 148 -54.5t57 -144.5q0 -93 -70 -161t-168 -68q-92 0 -148 53t-56 143zM778 1726q0 -44 25.5 -70t68.5 -26q52 0 85.5 37t33.5 86 q0 44 -25.5 70t-68.5 26q-52 0 -85.5 -37t-33.5 -86z" />
<glyph unicode="&#xc6;" horiz-adv-x="2050" d="M-119 0l983 1434h1229l-45 -205h-698l-84 -393h608l-43 -201h-606l-92 -430h698l-43 -205h-971l80 373h-491l-254 -373h-271zM543 573h395l139 656h-88z" />
<glyph unicode="&#xc7;" horiz-adv-x="1355" d="M70 563q0 126 30.5 252.5t93.5 243.5t150 207t209.5 144t261.5 54q218 0 350.5 -124t163.5 -359l-256 -25q-42 314 -258 314q-141 0 -254 -125q-95 -109 -155 -286t-60 -329q0 -173 74 -269.5t207 -96.5q246 0 379 342l237 -55q-83 -229 -237.5 -351.5t-362.5 -130.5 l-53 -69h14q88 0 136 -43t48 -111q0 -83 -75.5 -133.5t-198.5 -50.5q-125 0 -217 45l49 106q75 -35 160 -35q53 0 80.5 17t27.5 47q0 23 -19.5 38t-57.5 15q-32 0 -76 -14l-66 53l121 141q-215 30 -330.5 185.5t-115.5 402.5z" />
<glyph unicode="&#xc8;" horiz-adv-x="1220" d="M-12 0l305 1434h971l-43 -205h-701l-84 -393h608l-43 -201h-606l-92 -430h701l-46 -205h-970zM541 1792h258l78 -242h-166z" />
<glyph unicode="&#xc9;" horiz-adv-x="1220" d="M-12 0l305 1434h971l-43 -205h-701l-84 -393h608l-43 -201h-606l-92 -430h701l-46 -205h-970zM709 1550l180 242h272l-270 -242h-182z" />
<glyph unicode="&#xca;" horiz-adv-x="1220" d="M-12 0l305 1434h971l-43 -205h-701l-84 -393h608l-43 -201h-606l-92 -430h701l-46 -205h-970zM465 1548l280 244h213l175 -244h-185l-114 127l-162 -127h-207z" />
<glyph unicode="&#xcb;" horiz-adv-x="1220" d="M-12 0l305 1434h971l-43 -205h-701l-84 -393h608l-43 -201h-606l-92 -430h701l-46 -205h-970zM508 1565l47 217h217l-45 -217h-219zM885 1565l45 217h219l-47 -217h-217z" />
<glyph unicode="&#xcc;" horiz-adv-x="550" d="M-4 0l305 1434h272l-305 -1434h-272zM199 1792h258l78 -242h-166z" />
<glyph unicode="&#xcd;" horiz-adv-x="550" d="M-4 0l305 1434h272l-305 -1434h-272zM367 1550l180 242h272l-270 -242h-182z" />
<glyph unicode="&#xce;" horiz-adv-x="550" d="M-4 0l305 1434h272l-305 -1434h-272zM123 1548l280 244h213l175 -244h-185l-114 127l-162 -127h-207z" />
<glyph unicode="&#xcf;" horiz-adv-x="550" d="M-4 0l305 1434h272l-305 -1434h-272zM168 1565l47 217h217l-45 -217h-219zM545 1565l45 217h219l-47 -217h-217z" />
<glyph unicode="&#xd0;" horiz-adv-x="1423" d="M-8 0l137 649h-121l35 172h123l131 613h479q125 0 225 -27t169.5 -75t116 -117.5t68 -153t21.5 -182.5q0 -136 -31 -263.5t-96.5 -240t-159 -195.5t-225.5 -131.5t-289 -48.5h-583zM305 199h262q200 0 338 135q92 90 142.5 239.5t50.5 323.5q0 161 -85 249.5t-284 88.5 h-203l-88 -414h312l-37 -172h-312z" />
<glyph unicode="&#xd1;" horiz-adv-x="1404" d="M-12 0l305 1434h276l402 -1033l219 1033h246l-306 -1434h-266l-407 1055l-224 -1055h-245zM563 1614q46 87 116.5 139.5t133.5 52.5q73 0 143 -49l29 -20q52 -37 84 -37q55 0 127 102l100 -67q-46 -87 -116 -140t-133 -53q-71 0 -144 49l-29 21q-52 37 -81 37 q-57 0 -127 -103z" />
<glyph unicode="&#xd2;" horiz-adv-x="1447" d="M68 561q0 127 30.5 254t94.5 244t152 207t213 144t269 54q276 0 423 -159t147 -433q0 -127 -31 -254t-94.5 -244t-152 -207t-213.5 -144t-269 -54q-276 0 -422.5 159t-146.5 433zM346 530q0 -176 74.5 -272t220.5 -96q143 0 252 112q101 101 164 283.5t63 345.5 q0 176 -75 272.5t-222 96.5q-142 0 -252 -113q-100 -100 -162.5 -282.5t-62.5 -346.5zM645 1792h258l78 -242h-166z" />
<glyph unicode="&#xd3;" horiz-adv-x="1447" d="M68 561q0 127 30.5 254t94.5 244t152 207t213 144t269 54q276 0 423 -159t147 -433q0 -127 -31 -254t-94.5 -244t-152 -207t-213.5 -144t-269 -54q-276 0 -422.5 159t-146.5 433zM346 530q0 -176 74.5 -272t220.5 -96q143 0 252 112q101 101 164 283.5t63 345.5 q0 176 -75 272.5t-222 96.5q-142 0 -252 -113q-100 -100 -162.5 -282.5t-62.5 -346.5zM813 1550l180 242h273l-271 -242h-182z" />
<glyph unicode="&#xd4;" horiz-adv-x="1447" d="M68 561q0 127 30.5 254t94.5 244t152 207t213 144t269 54q276 0 423 -159t147 -433q0 -127 -31 -254t-94.5 -244t-152 -207t-213.5 -144t-269 -54q-276 0 -422.5 159t-146.5 433zM346 530q0 -176 74.5 -272t220.5 -96q143 0 252 112q101 101 164 283.5t63 345.5 q0 176 -75 272.5t-222 96.5q-142 0 -252 -113q-100 -100 -162.5 -282.5t-62.5 -346.5zM571 1548l281 244h213l174 -244h-184l-115 127l-162 -127h-207z" />
<glyph unicode="&#xd5;" horiz-adv-x="1447" d="M68 561q0 127 30.5 254t94.5 244t152 207t213 144t269 54q276 0 423 -159t147 -433q0 -127 -31 -254t-94.5 -244t-152 -207t-213.5 -144t-269 -54q-276 0 -422.5 159t-146.5 433zM346 530q0 -176 74.5 -272t220.5 -96q143 0 252 112q101 101 164 283.5t63 345.5 q0 176 -75 272.5t-222 96.5q-142 0 -252 -113q-100 -100 -162.5 -282.5t-62.5 -346.5zM569 1614q46 87 116.5 139.5t133.5 52.5q74 0 144 -49l28 -20q52 -37 84 -37q55 0 127 102l101 -67q-46 -87 -116.5 -140t-133.5 -53q-71 0 -144 49l-28 21q-52 37 -82 37 q-57 0 -127 -103z" />
<glyph unicode="&#xd6;" horiz-adv-x="1447" d="M68 561q0 127 30.5 254t94.5 244t152 207t213 144t269 54q276 0 423 -159t147 -433q0 -127 -31 -254t-94.5 -244t-152 -207t-213.5 -144t-269 -54q-276 0 -422.5 159t-146.5 433zM346 530q0 -176 74.5 -272t220.5 -96q143 0 252 112q101 101 164 283.5t63 345.5 q0 176 -75 272.5t-222 96.5q-142 0 -252 -113q-100 -100 -162.5 -282.5t-62.5 -346.5zM614 1565l48 217h217l-45 -217h-220zM991 1565l45 217h219l-47 -217h-217z" />
<glyph unicode="&#xd7;" horiz-adv-x="1187" d="M68 369l403 329l-258 326l145 117l256 -324l402 328l106 -131l-401 -330l258 -328l-148 -114l-256 323l-399 -327z" />
<glyph unicode="&#xd8;" horiz-adv-x="1447" d="M29 14l143 166q-104 146 -104 381q0 127 30.5 254t94.5 244t152 207t213 144t269 54q225 0 367 -108l135 155l107 -92l-144 -166q105 -147 105 -381q0 -127 -31 -254t-94.5 -244t-152 -207t-213.5 -144t-269 -54q-225 0 -365 109l-135 -156zM346 530q0 -78 14 -135 l682 785q-80 92 -219 92q-142 0 -252 -113q-100 -100 -162.5 -282.5t-62.5 -346.5zM424 254q76 -92 217 -92q143 0 252 112q101 101 164 283.5t63 345.5q0 80 -14 137z" />
<glyph unicode="&#xd9;" horiz-adv-x="1372" d="M89.5 292q-21.5 105 6.5 240l193 902h272l-194 -918q-36 -169 26 -253.5t203 -84.5q279 0 350 338l197 918h264l-193 -904q-63 -290 -223 -425.5t-416 -135.5q-132 0 -234 37.5t-166 109t-85.5 176.5zM610 1792h258l78 -242h-166z" />
<glyph unicode="&#xda;" horiz-adv-x="1372" d="M89.5 292q-21.5 105 6.5 240l193 902h272l-194 -918q-36 -169 26 -253.5t203 -84.5q279 0 350 338l197 918h264l-193 -904q-63 -290 -223 -425.5t-416 -135.5q-132 0 -234 37.5t-166 109t-85.5 176.5zM778 1550l180 242h273l-270 -242h-183z" />
<glyph unicode="&#xdb;" horiz-adv-x="1372" d="M89.5 292q-21.5 105 6.5 240l193 902h272l-194 -918q-36 -169 26 -253.5t203 -84.5q279 0 350 338l197 918h264l-193 -904q-63 -290 -223 -425.5t-416 -135.5q-132 0 -234 37.5t-166 109t-85.5 176.5zM535 1548l280 244h213l174 -244h-184l-115 127l-162 -127h-206z" />
<glyph unicode="&#xdc;" horiz-adv-x="1372" d="M89.5 292q-21.5 105 6.5 240l193 902h272l-194 -918q-36 -169 26 -253.5t203 -84.5q279 0 350 338l197 918h264l-193 -904q-63 -290 -223 -425.5t-416 -135.5q-132 0 -234 37.5t-166 109t-85.5 176.5zM580 1565l47 217h217l-45 -217h-219zM956 1565l45 217h220l-47 -217 h-218z" />
<glyph unicode="&#xdd;" horiz-adv-x="1267" d="M186 1434h275l182 -705l483 705h277l-676 -961l-102 -473h-273l103 475zM719 1550l180 242h272l-270 -242h-182z" />
<glyph unicode="&#xde;" horiz-adv-x="1304" d="M-12 0l305 1434h272l-53 -252h262q249 0 372.5 -100t123.5 -291q0 -106 -39 -198t-114 -162.5t-195.5 -111t-272.5 -40.5h-330l-59 -279h-272zM360 473h287q168 0 253 82t85 219q0 106 -63 159.5t-201 53.5h-250z" />
<glyph unicode="&#xdf;" horiz-adv-x="1157" d="M-33 0l211 993q99 471 527 471q197 0 306 -98t109 -242q0 -126 -81 -216t-220 -126q106 -33 164.5 -115t58.5 -190q0 -233 -143 -365t-369 -132q-104 0 -190 12l35 162q67 -13 127 -13q122 0 190 74q96 93 96 274q0 97 -57.5 148t-167.5 51h-76l37 168h82q117 0 187 70 q32 31 51.5 84.5t19.5 113.5q0 84 -44 130t-128 46q-98 0 -162 -71.5t-96 -218.5l-215 -1010h-252z" />
<glyph unicode="&#xe0;" horiz-adv-x="1060" d="M-39 248q0 67 20 123.5t65.5 105.5t115.5 83t175 53.5t238 19.5h130l4 18q23 111 -15.5 168.5t-130.5 57.5q-64 0 -123.5 -42.5t-103.5 -119.5l-213 59q63 132 179.5 205.5t277.5 73.5q217 0 314.5 -120.5t55.5 -322.5l-129 -610h-250l35 164q-62 -88 -151.5 -139.5 t-190.5 -51.5q-136 0 -219.5 76t-83.5 199zM215 276q0 -64 42 -101.5t114 -37.5q98 0 179 76t103 184l21 97h-84q-196 0 -285.5 -59t-89.5 -159zM375 1425h258l84 -276h-170z" />
<glyph unicode="&#xe1;" horiz-adv-x="1060" d="M-39 248q0 67 20 123.5t65.5 105.5t115.5 83t175 53.5t238 19.5h130l4 18q23 111 -15.5 168.5t-130.5 57.5q-64 0 -123.5 -42.5t-103.5 -119.5l-213 59q63 132 179.5 205.5t277.5 73.5q217 0 314.5 -120.5t55.5 -322.5l-129 -610h-250l35 164q-62 -88 -151.5 -139.5 t-190.5 -51.5q-136 0 -219.5 76t-83.5 199zM215 276q0 -64 42 -101.5t114 -37.5q98 0 179 76t103 184l21 97h-84q-196 0 -285.5 -59t-89.5 -159zM545 1149l190 276h277l-291 -276h-176z" />
<glyph unicode="&#xe2;" horiz-adv-x="1060" d="M-39 248q0 67 20 123.5t65.5 105.5t115.5 83t175 53.5t238 19.5h130l4 18q23 111 -15.5 168.5t-130.5 57.5q-64 0 -123.5 -42.5t-103.5 -119.5l-213 59q63 132 179.5 205.5t277.5 73.5q217 0 314.5 -120.5t55.5 -322.5l-129 -610h-250l35 164q-62 -88 -151.5 -139.5 t-190.5 -51.5q-136 0 -219.5 76t-83.5 199zM215 276q0 -64 42 -101.5t114 -37.5q98 0 179 76t103 184l21 97h-84q-196 0 -285.5 -59t-89.5 -159zM307 1155l293 266h207l168 -266h-187l-104 143l-174 -143h-203z" />
<glyph unicode="&#xe3;" horiz-adv-x="1060" d="M-39 248q0 67 20 123.5t65.5 105.5t115.5 83t175 53.5t238 19.5h130l4 18q23 111 -15.5 168.5t-130.5 57.5q-64 0 -123.5 -42.5t-103.5 -119.5l-213 59q63 132 179.5 205.5t277.5 73.5q217 0 314.5 -120.5t55.5 -322.5l-129 -610h-250l35 164q-62 -88 -151.5 -139.5 t-190.5 -51.5q-136 0 -219.5 76t-83.5 199zM215 276q0 -64 42 -101.5t114 -37.5q98 0 179 76t103 184l21 97h-84q-196 0 -285.5 -59t-89.5 -159zM303 1233q48 87 117.5 137.5t132.5 50.5q70 0 141 -45l33 -22q55 -37 84 -37q53 0 123 100l102 -74q-48 -87 -116.5 -137.5 t-131.5 -50.5q-70 0 -141 45l-33 23q-55 37 -84 37q-51 0 -124 -101z" />
<glyph unicode="&#xe4;" horiz-adv-x="1060" d="M-39 248q0 67 20 123.5t65.5 105.5t115.5 83t175 53.5t238 19.5h130l4 18q23 111 -15.5 168.5t-130.5 57.5q-64 0 -123.5 -42.5t-103.5 -119.5l-213 59q63 132 179.5 205.5t277.5 73.5q217 0 314.5 -120.5t55.5 -322.5l-129 -610h-250l35 164q-62 -88 -151.5 -139.5 t-190.5 -51.5q-136 0 -219.5 76t-83.5 199zM215 276q0 -64 42 -101.5t114 -37.5q98 0 179 76t103 184l21 97h-84q-196 0 -285.5 -59t-89.5 -159zM354 1176l47 225h220l-48 -225h-219zM719 1176l47 225h219l-49 -225h-217z" />
<glyph unicode="&#xe5;" horiz-adv-x="1060" d="M-39 248q0 67 20 123.5t65.5 105.5t115.5 83t175 53.5t238 19.5h130l4 18q23 111 -15.5 168.5t-130.5 57.5q-64 0 -123.5 -42.5t-103.5 -119.5l-213 59q63 132 179.5 205.5t277.5 73.5q217 0 314.5 -120.5t55.5 -322.5l-129 -610h-250l35 164q-62 -88 -151.5 -139.5 t-190.5 -51.5q-136 0 -219.5 76t-83.5 199zM215 276q0 -64 42 -101.5t114 -37.5q98 0 179 76t103 184l21 97h-84q-196 0 -285.5 -59t-89.5 -159zM457 1313q0 93 69.5 161t167.5 68q92 0 148.5 -53t56.5 -143q0 -94 -69.5 -163t-167.5 -69q-91 0 -148 54.5t-57 144.5z M571 1315q0 -44 26 -70t69 -26q52 0 85 36.5t33 85.5q0 44 -25.5 70.5t-68.5 26.5q-52 0 -85.5 -37t-33.5 -86z" />
<glyph unicode="&#xe6;" horiz-adv-x="1761" d="M-39 248q0 67 19 121.5t63.5 101.5t114 78.5t175 49t242.5 17.5h125l11 46q22 104 -17.5 159.5t-130.5 55.5q-64 0 -124.5 -42.5t-104.5 -119.5l-213 59q65 131 183 205t274 74q250 0 311 -189q144 189 373 189q182 0 296.5 -106.5t114.5 -284.5q0 -81 -24 -189h-727 q-7 -51 -7 -86q0 -126 57.5 -190t166.5 -64q71 0 146.5 49.5t139.5 145.5l193 -74q-90 -140 -217.5 -212.5t-278.5 -72.5q-141 0 -240 55.5t-145 161.5q-72 -98 -185.5 -155.5t-256.5 -57.5q-152 0 -243 76t-91 199zM215 276q0 -64 42 -101.5t114 -37.5q98 0 178 76t104 184 l17 80h-80q-200 0 -287.5 -51.5t-87.5 -149.5zM956 618h482q6 38 6 62q0 106 -51 158.5t-146 52.5q-98 0 -178 -80q-66 -66 -113 -193z" />
<glyph unicode="&#xe7;" horiz-adv-x="1095" d="M25 412q0 122 41 237t115 205t186 144.5t243 54.5q184 0 293 -96.5t131 -272.5l-235 -20q-27 221 -193 221q-98 0 -178 -80q-68 -70 -111 -188t-43 -232q0 -117 52.5 -182.5t144.5 -65.5q161 0 281 248l209 -53q-60 -162 -183 -257t-284 -104l-54 -71h15q88 0 136 -43 t48 -111q0 -83 -75.5 -133.5t-198.5 -50.5q-126 0 -218 45l50 106q75 -35 159 -35q53 0 81 17t28 47q0 23 -20 38t-58 15q-32 0 -76 -14l-65 53l123 143q-157 28 -250.5 144t-93.5 291z" />
<glyph unicode="&#xe8;" horiz-adv-x="1118" d="M25 410q0 123 41 238t114 205.5t184 145t242 54.5q192 0 308 -106t116 -285q0 -83 -24 -191h-727q-7 -51 -7 -84q0 -126 57.5 -190t166.5 -64q71 0 146.5 49.5t141.5 145.5l191 -74q-90 -140 -218 -212.5t-282 -72.5q-205 0 -327.5 120t-122.5 321zM313 614h482 q6 38 6 66q0 106 -51 158.5t-146 52.5q-99 0 -176 -80q-72 -69 -115 -197zM385 1425h258l84 -276h-170z" />
<glyph unicode="&#xe9;" horiz-adv-x="1118" d="M25 410q0 123 41 238t114 205.5t184 145t242 54.5q192 0 308 -106t116 -285q0 -83 -24 -191h-727q-7 -51 -7 -84q0 -126 57.5 -190t166.5 -64q71 0 146.5 49.5t141.5 145.5l191 -74q-90 -140 -218 -212.5t-282 -72.5q-205 0 -327.5 120t-122.5 321zM313 614h482 q6 38 6 66q0 106 -51 158.5t-146 52.5q-99 0 -176 -80q-72 -69 -115 -197zM555 1149l190 276h277l-291 -276h-176z" />
<glyph unicode="&#xea;" horiz-adv-x="1118" d="M25 410q0 123 41 238t114 205.5t184 145t242 54.5q192 0 308 -106t116 -285q0 -83 -24 -191h-727q-7 -51 -7 -84q0 -126 57.5 -190t166.5 -64q71 0 146.5 49.5t141.5 145.5l191 -74q-90 -140 -218 -212.5t-282 -72.5q-205 0 -327.5 120t-122.5 321zM313 614h482 q6 38 6 66q0 106 -51 158.5t-146 52.5q-99 0 -176 -80q-72 -69 -115 -197zM317 1155l293 266h207l168 -266h-186l-105 143l-174 -143h-203z" />
<glyph unicode="&#xeb;" horiz-adv-x="1118" d="M25 410q0 123 41 238t114 205.5t184 145t242 54.5q192 0 308 -106t116 -285q0 -83 -24 -191h-727q-7 -51 -7 -84q0 -126 57.5 -190t166.5 -64q71 0 146.5 49.5t141.5 145.5l191 -74q-90 -140 -218 -212.5t-282 -72.5q-205 0 -327.5 120t-122.5 321zM313 614h482 q6 38 6 66q0 106 -51 158.5t-146 52.5q-99 0 -176 -80q-72 -69 -115 -197zM365 1176l47 225h219l-47 -225h-219zM729 1176l47 225h219l-49 -225h-217z" />
<glyph unicode="&#xec;" horiz-adv-x="493" d="M-23 0l218 1022h251l-217 -1022h-252zM82 1425h258l84 -276h-170z" />
<glyph unicode="&#xed;" horiz-adv-x="493" d="M-23 0l218 1022h251l-217 -1022h-252zM252 1149l190 276h277l-291 -276h-176z" />
<glyph unicode="&#xee;" horiz-adv-x="493" d="M-23 0l218 1022h251l-217 -1022h-252zM14 1155l293 266h207l168 -266h-186l-105 143l-174 -143h-203z" />
<glyph unicode="&#xef;" horiz-adv-x="493" d="M-23 0l218 1022h251l-217 -1022h-252zM63 1176l48 225h219l-47 -225h-220zM428 1176l47 225h219l-49 -225h-217z" />
<glyph unicode="&#xf0;" horiz-adv-x="1146" d="M25 412q0 118 37 231.5t102.5 204t164.5 146t214 55.5q162 0 252 -140q-47 140 -125 273l-289 -76l-8 119l231 59q-50 74 -108 150h260l69 -93l213 56l9 -117l-156 -41q170 -278 170 -571q0 -144 -42.5 -271.5t-118 -222.5t-186.5 -150t-241 -55q-201 0 -324.5 121 t-123.5 322zM276 377q0 -116 54 -180t153 -64q96 0 176 80q64 64 108 182.5t44 220.5q0 128 -61 197.5t-164 69.5q-88 0 -160 -72q-64 -64 -107 -187t-43 -247z" />
<glyph unicode="&#xf1;" horiz-adv-x="1128" d="M-33 0l217 1022h252l-39 -188q143 219 357 219q156 0 232 -103t40 -278l-141 -672h-252l135 635q24 117 -10.5 171t-128.5 54q-98 0 -182 -91.5t-113 -229.5l-115 -539h-252zM348 1233q48 87 117.5 137.5t132.5 50.5q70 0 141 -45l33 -22q55 -37 84 -37q53 0 123 100 l102 -74q-48 -87 -116 -137.5t-131 -50.5q-71 0 -142 45l-33 23q-55 37 -84 37q-51 0 -124 -101z" />
<glyph unicode="&#xf2;" d="M25 412q0 122 41 237t115 205t186 144.5t243 54.5q202 0 326.5 -121t124.5 -322q0 -122 -41.5 -237t-116 -205t-187 -144.5t-243.5 -54.5q-202 0 -325 120.5t-123 322.5zM274 377q0 -116 54 -180t155 -64q94 0 172 78q67 65 110.5 190.5t43.5 245.5q0 116 -53.5 179 t-153.5 63q-98 0 -174 -76q-66 -67 -110 -192t-44 -244zM393 1425h258l84 -276h-170z" />
<glyph unicode="&#xf3;" d="M25 412q0 122 41 237t115 205t186 144.5t243 54.5q202 0 326.5 -121t124.5 -322q0 -122 -41.5 -237t-116 -205t-187 -144.5t-243.5 -54.5q-202 0 -325 120.5t-123 322.5zM274 377q0 -116 54 -180t155 -64q94 0 172 78q67 65 110.5 190.5t43.5 245.5q0 116 -53.5 179 t-153.5 63q-98 0 -174 -76q-66 -67 -110 -192t-44 -244zM563 1149l191 276h276l-291 -276h-176z" />
<glyph unicode="&#xf4;" d="M25 412q0 122 41 237t115 205t186 144.5t243 54.5q202 0 326.5 -121t124.5 -322q0 -122 -41.5 -237t-116 -205t-187 -144.5t-243.5 -54.5q-202 0 -325 120.5t-123 322.5zM274 377q0 -116 54 -180t155 -64q94 0 172 78q67 65 110.5 190.5t43.5 245.5q0 116 -53.5 179 t-153.5 63q-98 0 -174 -76q-66 -67 -110 -192t-44 -244zM324 1155l292 266h207l168 -266h-186l-105 143l-174 -143h-202z" />
<glyph unicode="&#xf5;" d="M25 412q0 122 41 237t115 205t186 144.5t243 54.5q202 0 326.5 -121t124.5 -322q0 -122 -41.5 -237t-116 -205t-187 -144.5t-243.5 -54.5q-202 0 -325 120.5t-123 322.5zM274 377q0 -116 54 -180t155 -64q94 0 172 78q67 65 110.5 190.5t43.5 245.5q0 116 -53.5 179 t-153.5 63q-98 0 -174 -76q-66 -67 -110 -192t-44 -244zM322 1233q48 87 117 137.5t132 50.5q71 0 142 -45l32 -22q55 -37 84 -37q53 0 123 100l103 -74q-48 -87 -116.5 -137.5t-131.5 -50.5q-70 0 -141 45l-33 23q-55 37 -84 37q-52 0 -125 -101z" />
<glyph unicode="&#xf6;" d="M25 412q0 122 41 237t115 205t186 144.5t243 54.5q202 0 326.5 -121t124.5 -322q0 -122 -41.5 -237t-116 -205t-187 -144.5t-243.5 -54.5q-202 0 -325 120.5t-123 322.5zM274 377q0 -116 54 -180t155 -64q94 0 172 78q67 65 110.5 190.5t43.5 245.5q0 116 -53.5 179 t-153.5 63q-98 0 -174 -76q-66 -67 -110 -192t-44 -244zM373 1176l47 225h219l-47 -225h-219zM737 1176l47 225h220l-50 -225h-217z" />
<glyph unicode="&#xf7;" horiz-adv-x="1187" d="M117 602l37 174h923l-37 -174h-923zM391 205l51 246h205l-51 -246h-205zM545 930l51 246h207l-53 -246h-205z" />
<glyph unicode="&#xf8;" d="M-23 2l129 135q-81 110 -81 275q0 122 41 237t115 205t186 144.5t243 54.5q168 0 287 -86l125 131l84 -78l-129 -135q84 -114 84 -275q0 -122 -41.5 -237t-116 -205t-187 -144.5t-243.5 -54.5q-170 0 -287 88l-125 -131zM274 377q0 -15 5 -60l479 504q-53 68 -156 68 q-98 0 -174 -76q-66 -67 -110 -192t-44 -244zM324 203q58 -70 159 -70q94 0 172 78q67 65 110.5 190.5t43.5 245.5q0 22 -4 58z" />
<glyph unicode="&#xf9;" horiz-adv-x="1126" d="M33 352l141 670h252l-133 -635q-48 -225 137 -225q98 0 181 92t112 231l115 537h252l-218 -1022h-251l38 186q-144 -217 -354 -217q-156 0 -232 104t-40 279zM387 1425h258l84 -276h-170z" />
<glyph unicode="&#xfa;" horiz-adv-x="1126" d="M33 352l141 670h252l-133 -635q-48 -225 137 -225q98 0 181 92t112 231l115 537h252l-218 -1022h-251l38 186q-144 -217 -354 -217q-156 0 -232 104t-40 279zM557 1149l191 276h276l-291 -276h-176z" />
<glyph unicode="&#xfb;" horiz-adv-x="1126" d="M33 352l141 670h252l-133 -635q-48 -225 137 -225q98 0 181 92t112 231l115 537h252l-218 -1022h-251l38 186q-144 -217 -354 -217q-156 0 -232 104t-40 279zM319 1155l293 266h207l168 -266h-186l-105 143l-174 -143h-203z" />
<glyph unicode="&#xfc;" horiz-adv-x="1126" d="M33 352l141 670h252l-133 -635q-48 -225 137 -225q98 0 181 92t112 231l115 537h252l-218 -1022h-251l38 186q-144 -217 -354 -217q-156 0 -232 104t-40 279zM369 1176l47 225h219l-47 -225h-219zM733 1176l47 225h219l-49 -225h-217z" />
<glyph unicode="&#xfd;" horiz-adv-x="1042" d="M-123 -393l37 174q49 -8 117 -8q82 0 121 21.5t84 96.5l32 58l-162 1073h256l93 -789l399 789h236l-623 -1153q-84 -156 -182 -215.5t-265 -59.5q-73 0 -143 13zM545 1149l190 276h277l-291 -276h-176z" />
<glyph unicode="&#xfe;" horiz-adv-x="1183" d="M-115 -389l387 1823h252l-118 -566q62 87 145 136t178 49q155 0 260 -120t105 -315q0 -97 -22.5 -191t-67 -176.5t-105.5 -145.5t-143.5 -99.5t-175.5 -36.5q-113 0 -197 65t-119 171l-127 -594h-252zM307 399q0 -127 61 -196.5t164 -69.5q89 0 160 74q64 64 107 189 t43 251q0 115 -55 178.5t-154 63.5q-96 0 -176 -80q-63 -65 -106.5 -183t-43.5 -227z" />
<glyph unicode="&#xff;" horiz-adv-x="1042" d="M-123 -393l37 174q49 -8 117 -8q82 0 121 21.5t84 96.5l32 58l-162 1073h256l93 -789l399 789h236l-623 -1153q-84 -156 -182 -215.5t-265 -59.5q-73 0 -143 13zM354 1176l47 225h220l-48 -225h-219zM719 1176l47 225h219l-49 -225h-217z" />
<glyph unicode="&#x152;" horiz-adv-x="2031" d="M68 555q0 113 23 221t67 206.5t113 180.5t156.5 142.5t202.5 94.5t247 34h1198l-45 -205h-664l-84 -393h573l-43 -201h-571l-92 -430h663l-43 -205h-1103q-155 0 -271.5 40.5t-187 116t-105 175t-34.5 223.5zM344 537q0 -161 85 -249.5t284 -88.5h161l222 1036h-222 q-199 0 -337 -135q-92 -90 -142.5 -239.5t-50.5 -323.5z" />
<glyph unicode="&#x153;" horiz-adv-x="1884" d="M25 412q0 122 41 237t115 205t186 144.5t243 54.5q127 0 220 -52t143 -149q156 201 399 201q192 0 308 -106t116 -285q0 -83 -24 -191h-728q-6 -43 -6 -84q0 -126 57.5 -190t166.5 -64q71 0 146.5 49.5t141.5 145.5l191 -74q-90 -140 -218 -212.5t-282 -72.5 q-265 0 -364 203q-74 -95 -177.5 -149t-226.5 -54q-202 0 -325 120.5t-123 322.5zM274 377q0 -116 54 -180t155 -64q94 0 172 78q67 65 110.5 190.5t43.5 245.5q0 116 -53.5 179t-153.5 63q-98 0 -174 -76q-66 -67 -110 -192t-44 -244zM1079 614h482q6 38 6 66 q0 106 -51 158.5t-146 52.5q-99 0 -176 -80q-72 -69 -115 -197z" />
<glyph unicode="&#x178;" horiz-adv-x="1267" d="M186 1434h275l182 -705l483 705h277l-676 -961l-102 -473h-273l103 475zM518 1565l47 217h217l-45 -217h-219zM895 1565l45 217h219l-47 -217h-217z" />
<glyph unicode="&#x2c6;" d="M342 1155l293 266h207l168 -266h-187l-104 143l-174 -143h-203z" />
<glyph unicode="&#x2dc;" d="M336 1233q48 87 117.5 137.5t132.5 50.5q70 0 141 -45l33 -22q55 -37 84 -37q53 0 123 100l102 -74q-48 -87 -116.5 -137.5t-131.5 -50.5q-70 0 -141 45l-33 23q-55 37 -84 37q-52 0 -125 -101z" />
<glyph unicode="&#x2000;" horiz-adv-x="977" />
<glyph unicode="&#x2001;" horiz-adv-x="1954" />
<glyph unicode="&#x2002;" horiz-adv-x="977" />
<glyph unicode="&#x2003;" horiz-adv-x="1954" />
<glyph unicode="&#x2004;" horiz-adv-x="651" />
<glyph unicode="&#x2005;" horiz-adv-x="488" />
<glyph unicode="&#x2006;" horiz-adv-x="325" />
<glyph unicode="&#x2007;" horiz-adv-x="325" />
<glyph unicode="&#x2008;" horiz-adv-x="244" />
<glyph unicode="&#x2009;" horiz-adv-x="390" />
<glyph unicode="&#x200a;" horiz-adv-x="108" />
<glyph unicode="&#x2010;" horiz-adv-x="784" d="M76 616l49 228h608l-49 -228h-608z" />
<glyph unicode="&#x2011;" horiz-adv-x="784" d="M76 616l49 228h608l-49 -228h-608z" />
<glyph unicode="&#x2012;" horiz-adv-x="784" d="M76 616l49 228h608l-49 -228h-608z" />
<glyph unicode="&#x2013;" horiz-adv-x="1236" d="M76 616l49 228h1061l-49 -228h-1061z" />
<glyph unicode="&#x2014;" horiz-adv-x="1662" d="M76 616l49 228h1487l-49 -228h-1487z" />
<glyph unicode="&#x2018;" horiz-adv-x="505" d="M170 915l57 273l174 246h144l-154 -246h105l-58 -273h-268z" />
<glyph unicode="&#x2019;" horiz-adv-x="505" d="M174 915l156 246h-107l58 273h268l-57 -273l-175 -246h-143z" />
<glyph unicode="&#x201a;" horiz-adv-x="505" d="M-74 -246l154 246h-105l58 272h268l-57 -272l-174 -246h-144z" />
<glyph unicode="&#x201c;" horiz-adv-x="890" d="M170 915l57 273l174 246h144l-154 -246h105l-58 -273h-268zM555 915l57 273l174 246h144l-156 -246h107l-58 -273h-268z" />
<glyph unicode="&#x201d;" horiz-adv-x="890" d="M174 915l156 246h-107l58 273h268l-57 -273l-175 -246h-143zM559 915l154 246h-105l58 273h268l-57 -273l-175 -246h-143z" />
<glyph unicode="&#x201e;" horiz-adv-x="890" d="M-74 -246l154 246h-105l58 272h268l-57 -272l-174 -246h-144zM309 -246l156 246h-105l56 272h268l-55 -272l-174 -246h-146z" />
<glyph unicode="&#x2022;" horiz-adv-x="841" d="M96 707q0 142 93.5 235.5t236.5 93.5t236.5 -93.5t93.5 -235.5q0 -143 -94 -237.5t-236 -94.5t-236 94.5t-94 237.5z" />
<glyph unicode="&#x2026;" horiz-adv-x="1486" d="M-12 0l61 287h279l-62 -287h-278zM461 0l59 287h279l-60 -287h-278zM932 0l61 287h279l-62 -287h-278z" />
<glyph unicode="&#x202f;" horiz-adv-x="390" />
<glyph unicode="&#x2039;" horiz-adv-x="661" d="M59 586l332 393h240l-352 -408l165 -378h-217z" />
<glyph unicode="&#x203a;" horiz-adv-x="661" d="M-12 193l352 407l-166 379h219l168 -393l-334 -393h-239z" />
<glyph unicode="&#x205f;" horiz-adv-x="488" />
<glyph unicode="&#x20ac;" horiz-adv-x="1304" d="M-14 465l34 158h136q7 73 20 127h-129l35 157h139q86 222 249 355t361 133q195 0 311 -108.5t144 -311.5l-239 -23q-21 139 -73.5 199.5t-144.5 60.5q-109 0 -200 -94q-75 -75 -129 -211h340l-35 -157h-356q-18 -74 -23 -127h352l-35 -158h-327q3 -155 62 -234t169 -79 q91 0 165 65.5t138 212.5l226 -47q-176 -414 -543 -414q-217 0 -345 131t-138 365h-164z" />
<glyph unicode="&#x2122;" horiz-adv-x="1402" d="M221 1317l25 117h465l-25 -117h-164l-96 -461h-139l96 461h-162zM645 856l123 578h201l16 -435l205 435h207l-123 -578h-135l94 449l-211 -449h-133l-23 453l-96 -453h-125z" />
<glyph unicode="&#x25fc;" horiz-adv-x="1024" d="M0 0v1024h1024v-1024h-1024z" />
<glyph unicode="&#xfb01;" horiz-adv-x="1212" d="M39 0l182 854h-151l34 168h152l25 115q33 158 131 235.5t284 77.5q78 0 144 -16l-35 -168q-44 10 -98 10q-75 0 -116.5 -32t-58.5 -105l-24 -117h246l-37 -168h-244l-182 -854h-252zM696 0l217 1022h252l-217 -1022h-252zM944 1167l51 242h252l-51 -242h-252z" />
<glyph unicode="&#xfb02;" horiz-adv-x="1212" d="M39 0l182 854h-151l34 168h152l25 115q33 158 131 235.5t284 77.5q78 0 144 -16l-35 -168q-44 10 -98 10q-75 0 -116.5 -32t-58.5 -105l-24 -117h246l-37 -168h-244l-182 -854h-252zM696 0l305 1434h252l-305 -1434h-252z" />
</font>
</defs>
</svg>
