<?xml version="1.0" standalone="no"?>
<!DOCTYPE svg PUBLIC "-//W3C//DTD SVG 1.1//EN" "http://www.w3.org/Graphics/SVG/1.1/DTD/svg11.dtd" >
<svg xmlns="http://www.w3.org/2000/svg">
<metadata></metadata>
<defs>
<font id="baltoultra" horiz-adv-x="1568" >
<font-face units-per-em="2048" ascent="1659" descent="-389" />
<missing-glyph horiz-adv-x="378" />
<glyph horiz-adv-x="0" />
<glyph horiz-adv-x="682" />
<glyph unicode=" "  horiz-adv-x="378" />
<glyph unicode="&#x09;" horiz-adv-x="378" />
<glyph unicode="&#xa0;" horiz-adv-x="378" />
<glyph unicode="!" horiz-adv-x="768" d="M82 932v502h604v-502l-104 -424h-398zM119 0v438h530v-438h-530z" />
<glyph unicode="&#x22;" horiz-adv-x="1062" d="M51 1434h436l-28 -678h-379zM575 1434h437l-29 -678h-379z" />
<glyph unicode="#" horiz-adv-x="1368" d="M31 274l45 301h168l32 213h-170l46 302h167l41 274h349l-41 -274h151l41 274h348l-41 -274h170l-45 -302h-168l-32 -213h170l-45 -301h-168l-41 -274h-349l41 274h-151l-41 -274h-348l41 274h-170zM592 575h151l33 213h-151z" />
<glyph unicode="$" horiz-adv-x="1355" d="M16 119l170 348q223 -133 445 -133q88 0 88 39q0 21 -16.5 31t-69.5 20l-174 35q-230 46 -327 148.5t-97 297.5q0 177 102 298t307 167v238h453v-226q183 -25 379 -110l-168 -344q-217 114 -424 114q-80 0 -80 -32q0 -16 15.5 -26t60.5 -19l172 -35q248 -50 359.5 -160 t111.5 -289q0 -198 -106.5 -324t-319.5 -167v-234h-453v226q-239 30 -428 137z" />
<glyph unicode="%" horiz-adv-x="1808" d="M49 1006v12q0 168 113 272.5t307 104.5t307 -104.5t113 -272.5v-12q0 -168 -113 -272.5t-307 -104.5t-307 104.5t-113 272.5zM264 0l1055 1364h225l-1055 -1364h-225zM412 1001q0 -87 14 -120t43 -33t43 33t14 120v21q0 87 -14.5 120.5t-42.5 33.5t-42.5 -33.5 t-14.5 -120.5v-21zM920 346v12q0 168 112.5 272.5t306.5 104.5t307 -104.5t113 -272.5v-12q0 -168 -113 -272.5t-307 -104.5t-306.5 104.5t-112.5 272.5zM1282 342q0 -87 14.5 -120.5t42.5 -33.5q29 0 43.5 33.5t14.5 120.5v20q0 87 -14.5 120.5t-43.5 33.5 q-28 0 -42.5 -33.5t-14.5 -120.5v-20z" />
<glyph unicode="&#x26;" horiz-adv-x="1699" d="M31 422v16q0 129 72 215.5t231 137.5q-90 147 -90 258q0 198 140.5 306.5t401.5 108.5q286 0 423 -96t137 -266q0 -98 -72.5 -190.5t-226.5 -159.5q65 -44 147 -93q27 80 41 158l403 -78q-25 -156 -94 -282q34 -19 90 -19h11v-438h-58q-104 0 -199.5 21t-209.5 73 q-230 -125 -521 -125q-294 0 -460 119t-166 334zM555 444q0 -69 47.5 -110t124.5 -41q43 0 98 10q-146 105 -262 215q-8 -24 -8 -69v-5zM743 1063q0 -62 66 -131q74 45 74 127t-68 82q-35 0 -53.5 -21t-18.5 -57z" />
<glyph unicode="'" horiz-adv-x="538" d="M51 1434h436l-28 -678h-379z" />
<glyph unicode="(" horiz-adv-x="929" d="M72 627v32q0 242 97 474.5t275 422.5h465q-144 -182 -228.5 -428t-84.5 -469v-32q0 -223 84.5 -469t228.5 -428h-465q-178 190 -275 422.5t-97 474.5z" />
<glyph unicode=")" horiz-adv-x="929" d="M20 -270q144 182 229 428t85 469v32q0 223 -85 469t-229 428h465q178 -190 275.5 -423t97.5 -474v-32q0 -241 -97.5 -474t-275.5 -423h-465z" />
<glyph unicode="*" horiz-adv-x="839" d="M20 1006l119 368l193 -174l-107 234h389l-106 -234l192 174l119 -368l-260 30l229 -131l-313 -227l-55 260l-55 -260l-314 227l230 131z" />
<glyph unicode="+" horiz-adv-x="1269" d="M125 500v354h315v334h389v-334h316v-354h-316v-336h-389v336h-315z" />
<glyph unicode="," horiz-adv-x="593" d="M51 0v469h492v-469l-230 -313h-262l172 313h-172z" />
<glyph unicode="-" horiz-adv-x="804" d="M51 524v383h703v-383h-703z" />
<glyph unicode="." horiz-adv-x="593" d="M51 0v469h492v-469h-492z" />
<glyph unicode="/" horiz-adv-x="1177" d="M-37 -287l731 1884h473l-731 -1884h-473z" />
<glyph unicode="0" horiz-adv-x="1466" d="M29 655v54q0 321 185.5 503.5t518.5 182.5t519 -182.5t186 -503.5v-54q0 -321 -186 -503.5t-519 -182.5t-518.5 182.5t-185.5 503.5zM662 645q0 -142 8.5 -215.5t22.5 -94t40 -20.5t40 20.5t23 94t9 215.5v74q0 142 -9 215.5t-23 94t-40 20.5t-40 -20.5t-22.5 -94 t-8.5 -215.5v-74z" />
<glyph unicode="1" horiz-adv-x="1212" d="M72 0v362h250v521q-106 -47 -250 -84v399q202 73 370 166h486v-1002h229v-362h-1085z" />
<glyph unicode="2" horiz-adv-x="1320" d="M20 864q9 234 181.5 382.5t455.5 148.5q326 0 479.5 -119t153.5 -328q0 -76 -29 -146.5t-91.5 -139t-170 -129t-254.5 -105.5h531v-428h-1231v430l336 180q100 54 164 98.5t98 86.5t46.5 79.5t12.5 86.5q0 88 -51 88q-22 0 -35.5 -17.5t-21.5 -67t-8 -135.5z" />
<glyph unicode="3" horiz-adv-x="1386" d="M31 477l571 35q0 -119 18.5 -166t55.5 -47q69 0 69 123q0 73 -26 105t-84 32h-193v293h189q50 0 71 29t21 92q0 92 -53 92q-60 0 -60 -168l-565 35q0 99 40 181.5t120.5 146.5t213.5 99.5t308 35.5q288 0 448 -107t160 -266q0 -108 -65 -183t-223 -114 q173 -38 246 -123.5t73 -212.5q0 -189 -171 -304.5t-503 -115.5q-661 0 -661 508z" />
<glyph unicode="4" horiz-adv-x="1411" d="M20 268v375l490 721h743v-705h133v-391h-133v-268h-606v268h-627zM477 659h170v287z" />
<glyph unicode="5" horiz-adv-x="1333" d="M27 442l565 35q0 -162 55 -162q51 0 51 125q0 83 -13.5 111.5t-39.5 28.5q-19 0 -33 -17t-20 -47l-537 55l45 793h1106v-403h-657l-8 -166q117 120 315 120q208 0 327.5 -115t119.5 -325q0 -233 -164.5 -369.5t-470.5 -136.5q-307 0 -474 125.5t-167 347.5z" />
<glyph unicode="6" horiz-adv-x="1417" d="M29 655v54q0 322 186 504t524 182q277 0 431 -112t169 -304l-565 -35q0 54 -13 79.5t-42 25.5q-21 0 -35.5 -16.5t-26.5 -78.5t-16 -172q117 117 342 117q208 0 311 -109.5t103 -302.5q0 -234 -184.5 -376t-485.5 -142q-329 0 -513.5 182.5t-184.5 503.5zM657 434 q0 -135 64 -135q63 0 63 135t-63 135q-64 0 -64 -135z" />
<glyph unicode="7" horiz-adv-x="1210" d="M20 930v434h1170v-446q-114 -80 -184.5 -190t-109.5 -288.5t-44 -439.5h-625q0 286 86 512t285 418h-578z" />
<glyph unicode="8" horiz-adv-x="1429" d="M20 397q0 94 66 167.5t193 115.5q-102 54 -152.5 135.5t-50.5 177.5q0 175 172 288.5t467 113.5q161 0 285.5 -30t200.5 -83.5t114.5 -123t38.5 -152.5q0 -78 -51.5 -145.5t-153.5 -108.5q132 -54 196 -148.5t64 -206.5q0 -191 -185.5 -309.5t-508.5 -118.5 q-174 0 -309 33t-218 91.5t-125.5 135t-42.5 168.5zM631 412q0 -52 22.5 -79.5t61.5 -27.5t61.5 27.5t22.5 79.5q0 51 -22.5 78.5t-61.5 27.5t-61.5 -27.5t-22.5 -78.5zM633 956q0 -49 22.5 -75.5t59.5 -26.5t59.5 26.5t22.5 75.5t-22.5 76t-59.5 27t-59.5 -27t-22.5 -76z " />
<glyph unicode="9" horiz-adv-x="1417" d="M20 913q0 219 177 350.5t493 131.5q329 0 514 -182.5t185 -503.5v-54q0 -322 -186.5 -504t-524.5 -182q-291 0 -465 118.5t-174 330.5l571 35q0 -138 82 -138q28 0 44.5 22.5t27.5 90t14 190.5q-131 -116 -307 -116q-220 0 -335.5 108t-115.5 303zM633 940 q0 -125 63 -125q64 0 64 125t-64 125q-63 0 -63 -125z" />
<glyph unicode=":" horiz-adv-x="655" d="M82 0v469h491v-469h-491zM82 563v469h491v-469h-491z" />
<glyph unicode=";" horiz-adv-x="655" d="M82 0v469h491v-469l-229 -313h-262l172 313h-172zM82 563v469h491v-469h-491z" />
<glyph unicode="&#x3c;" horiz-adv-x="1269" d="M125 477v400l1008 348v-398l-537 -149l537 -152v-397z" />
<glyph unicode="=" horiz-adv-x="1269" d="M127 283v340h1014v-340h-1014zM127 731v342h1014v-342h-1014z" />
<glyph unicode="&#x3e;" horiz-adv-x="1269" d="M137 129v397l537 152l-537 149v398l1008 -348v-400z" />
<glyph unicode="?" horiz-adv-x="1417" d="M37 1016q6 78 32.5 144.5t80 123t131 96t189 62t249.5 22.5q171 0 301.5 -34.5t211 -97.5t121 -145.5t40.5 -182.5q0 -177 -115.5 -281t-359.5 -137v-78h-531v383h242q69 0 100 25t31 79q0 97 -74 97q-33 0 -56.5 -27.5t-27.5 -85.5zM387 0v438h531v-438h-531z" />
<glyph unicode="@" horiz-adv-x="1904" d="M23 408q0 203 74 380t208.5 307t333 204.5t436.5 74.5q377 0 592 -181t215 -493q0 -204 -80.5 -360t-223.5 -240t-325 -84q-102 0 -183 43.5t-107 118.5q-104 -162 -279 -162q-132 0 -222.5 110t-90.5 298q0 154 59 287.5t158 211.5t213 78q76 0 139 -39t96 -110l25 117 h479l-137 -637q-9 -43 2 -61.5t45 -18.5q45 0 93.5 55t84 161t35.5 232q0 234 -145.5 357t-442.5 123q-198 0 -357 -59t-262.5 -163.5t-158.5 -245t-55 -304.5q0 -566 600 -566q186 0 440 62l37 -174q-89 -31 -233.5 -55.5t-243.5 -24.5q-180 0 -329.5 49.5t-259 143 t-170 238.5t-60.5 327zM836 342q0 -63 34 -63q33 0 52 57q25 75 46 184t21 156q0 63 -35 63q-32 0 -51 -57q-25 -75 -46 -184t-21 -156z" />
<glyph unicode="A" horiz-adv-x="1564" d="M8 0l375 1434h799l374 -1434h-638l-41 195h-302l-40 -195h-527zM651 553h150l-74 360z" />
<glyph unicode="B" horiz-adv-x="1515" d="M59 0v1434h918q246 0 363.5 -98t117.5 -267q0 -126 -91 -216t-253 -114q385 -36 385 -348q0 -190 -136 -290.5t-409 -100.5h-895zM694 332h62q60 0 87 25.5t27 88.5t-27 89t-87 26h-62v-229zM694 893h62q60 0 83 23.5t23 80.5t-23 81t-83 24h-62v-209z" />
<glyph unicode="C" horiz-adv-x="1517" d="M31 715v4q0 348 196.5 546.5t556.5 198.5q637 0 695 -594l-580 -36q-8 143 -29 193t-73 50q-41 0 -61 -23t-30 -99.5t-10 -235.5v-4q0 -156 9.5 -232t30 -101.5t61.5 -25.5q37 0 56.5 17.5t31.5 73t16 163.5l586 -37q-21 -310 -197 -457t-504 -147q-362 0 -558.5 198.5 t-196.5 547.5z" />
<glyph unicode="D" horiz-adv-x="1556" d="M59 0v1434h750q180 0 318 -52t224.5 -147t130.5 -225t44 -291v-4q0 -161 -44 -291t-130.5 -225t-224.5 -147t-318 -52h-750zM694 373h35q52 0 78.5 25t39.5 98t13 219v4q0 146 -13 219t-39.5 98t-78.5 25h-35v-688z" />
<glyph unicode="E" horiz-adv-x="1294" d="M59 0v1434h1194v-398h-559v-112h463v-392h-463v-135h559v-397h-1194z" />
<glyph unicode="F" horiz-adv-x="1275" d="M59 0v1434h1188v-398h-553v-196h471v-391h-471v-449h-635z" />
<glyph unicode="G" horiz-adv-x="1527" d="M31 715v4q0 228 84.5 394t256 258.5t416.5 92.5q325 0 491.5 -119.5t193.5 -349.5l-560 -45q-6 127 -102 127q-50 0 -72 -23t-32.5 -97.5t-10.5 -237.5v-4q0 -170 10 -250.5t31.5 -106.5t67.5 -26q38 0 65 32t27 91v55h-141v348h723v-858h-461l-25 166 q-90 -197 -362 -197q-131 0 -238 43.5t-189 131.5t-127.5 233.5t-45.5 337.5z" />
<glyph unicode="H" horiz-adv-x="1533" d="M59 0v1434h635v-471h146v471h635v-1434h-635v473h-146v-473h-635z" />
<glyph unicode="I" horiz-adv-x="765" d="M66 0v1434h634v-1434h-634z" />
<glyph unicode="J" horiz-adv-x="1091" d="M10 63l103 400q92 -39 186 -39q56 0 81.5 28t25.5 89v893h634v-844q0 -312 -127 -458t-411 -146q-232 0 -492 77z" />
<glyph unicode="K" horiz-adv-x="1566" d="M59 0v1434h635v-396l158 396h668l-308 -555l344 -879h-690l-118 375l-54 -90v-285h-635z" />
<glyph unicode="L" horiz-adv-x="1251" d="M59 0v1434h635v-990h516v-444h-1151z" />
<glyph unicode="M" horiz-adv-x="1964" d="M59 0v1434h832l94 -658l92 658h828v-1434h-584v874l-145 -874h-482l-145 874v-874h-490z" />
<glyph unicode="N" horiz-adv-x="1499" d="M59 0v1434h533l326 -461v461h522v-1434h-520l-338 479v-479h-523z" />
<glyph unicode="O" d="M31 715v4q0 355 199 550t554 195t554.5 -195t199.5 -550v-4q0 -355 -199.5 -550.5t-554.5 -195.5t-554 195.5t-199 550.5zM696 715q0 -154 10 -232.5t27.5 -102.5t50.5 -24t50.5 24t27.5 102.5t10 232.5v4q0 153 -10 232t-27.5 102.5t-50.5 23.5t-50.5 -23.5 t-27.5 -102.5t-10 -232v-4z" />
<glyph unicode="P" horiz-adv-x="1525" d="M59 0v1434h832q305 0 465 -136t160 -391q0 -254 -160 -390t-465 -136h-197v-381h-635zM694 748h47q63 0 87 33.5t24 125.5t-24.5 126t-86.5 34h-47v-319z" />
<glyph unicode="Q" d="M31 715v4q0 355 199 550t554 195t554.5 -195t199.5 -550v-4q0 -215 -75.5 -374.5t-217.5 -250.5q39 -20 113 -20q60 0 100 4v-371q-78 -8 -137 -8q-148 0 -242.5 28.5t-147 84.5t-79.5 151l-4 12q-20 -2 -64 -2q-355 0 -554 195.5t-199 550.5zM696 715q0 -154 10 -232.5 t27.5 -102.5t50.5 -24t50.5 24t27.5 102.5t10 232.5v4q0 153 -10 232t-27.5 102.5t-50.5 23.5t-50.5 -23.5t-27.5 -102.5t-10 -232v-4z" />
<glyph unicode="R" horiz-adv-x="1550" d="M59 0v1434h811q341 0 496.5 -123.5t155.5 -362.5q0 -242 -244 -370l262 -578h-659l-156 455h-31v-455h-635zM694 821h51q63 0 89 29t26 100t-26 100t-89 29h-51v-258z" />
<glyph unicode="S" horiz-adv-x="1425" d="M18 135l170 359q122 -69 243 -105.5t220 -36.5q84 0 84 43q0 22 -18 34t-72 22l-158 30q-237 46 -341.5 156t-104.5 313q0 237 186 375.5t514 138.5q301 0 600 -143l-170 -354q-230 129 -417 129q-92 0 -92 -39q0 -33 79 -47l156 -31q261 -51 378.5 -167.5t117.5 -305.5 q0 -254 -173.5 -395.5t-510.5 -141.5q-187 0 -371 44t-320 122z" />
<glyph unicode="T" horiz-adv-x="1394" d="M41 993v441h1313v-441h-336v-993h-641v993h-336z" />
<glyph unicode="U" horiz-adv-x="1499" d="M51 596v838h635v-916q0 -135 74 -135t74 135v916h614v-838q0 -160 -49.5 -280.5t-142 -196t-219 -113t-287.5 -37.5t-288 37.5t-219.5 113t-142 196t-49.5 280.5z" />
<glyph unicode="V" horiz-adv-x="1490" d="M8 1434h643l148 -719l145 719h539l-350 -1434h-775z" />
<glyph unicode="W" horiz-adv-x="2127" d="M16 1434h605l90 -705l116 705h549l117 -705l90 705h528l-243 -1434h-703l-100 672l-102 -672h-703z" />
<glyph unicode="X" horiz-adv-x="1658" d="M0 0l414 715l-381 719h712l123 -277l140 277h614l-377 -652l414 -782h-725l-146 324l-159 -324h-629z" />
<glyph unicode="Y" horiz-adv-x="1548" d="M8 1434h643l178 -420l179 420h532l-448 -992v-442h-635v442z" />
<glyph unicode="Z" horiz-adv-x="1329" d="M41 0v444l506 549h-486v441h1227v-445l-506 -549h496v-440h-1237z" />
<glyph unicode="[" horiz-adv-x="897" d="M102 -270v1826h744v-401h-213v-1024h213v-401h-744z" />
<glyph unicode="\" horiz-adv-x="1177" d="M10 1597h473l731 -1884h-473z" />
<glyph unicode="]" horiz-adv-x="897" d="M51 131h213v1024h-213v401h744v-1826h-744v401z" />
<glyph unicode="^" horiz-adv-x="1116" d="M10 592l289 842h518l289 -842h-438l-109 418l-110 -418h-439z" />
<glyph unicode="_" horiz-adv-x="1173" d="M-2 -57h1178v-377h-1178v377z" />
<glyph unicode="`" horiz-adv-x="940" d="M205 1434h454l76 -295h-342z" />
<glyph unicode="a" horiz-adv-x="1325" d="M16 305q0 74 19 128t65.5 99t125.5 73t199 43t286 16v79q0 31 -15 48.5t-43 17.5q-33 0 -49 -24t-16 -89l-514 37q11 168 165.5 270.5t422.5 102.5q167 0 287.5 -30.5t194 -92t108 -148.5t34.5 -204v-631h-557v170q-43 -93 -131.5 -144t-210.5 -51q-166 0 -268.5 88 t-102.5 242zM594 352q0 -34 15.5 -52.5t41.5 -18.5q60 0 60 75v115q-65 -12 -91 -40.5t-26 -78.5z" />
<glyph unicode="b" horiz-adv-x="1355" d="M51 0v1434h576v-457q43 60 113.5 94.5t160.5 34.5q188 0 311 -158t123 -397v-27q0 -239 -123 -397t-311 -158q-97 0 -172 41t-117 109v-119h-561zM616 535q0 -120 6.5 -178.5t18 -74.5t35.5 -16t35 16t17.5 74.5t6.5 178.5v6q0 120 -6.5 178t-17.5 74t-35 16t-35.5 -15.5 t-18 -74t-6.5 -178.5v-6z" />
<glyph unicode="c" horiz-adv-x="1290" d="M20 535v6q0 258 168.5 411.5t475.5 153.5q278 0 431 -123.5t165 -337.5l-517 -31q0 105 -14.5 150t-46.5 45q-25 0 -36.5 -16.5t-18 -74.5t-6.5 -177v-6q0 -119 7 -177.5t18.5 -75t35.5 -16.5t38 15t22 60t8 128l520 -33q-12 -213 -168 -340t-438 -127q-190 0 -333.5 63 t-227 192.5t-83.5 310.5z" />
<glyph unicode="d" horiz-adv-x="1355" d="M20 524v27q0 239 123.5 397t311.5 158q90 0 160.5 -34.5t113.5 -94.5v457h576v-1434h-562v119q-42 -68 -116.5 -109t-171.5 -41q-188 0 -311.5 158t-123.5 397zM621 535q0 -120 6.5 -178.5t17.5 -74.5t35 -16t35 16t17.5 74.5t6.5 178.5v6q0 120 -6.5 178t-17.5 74 t-35 16t-35 -16t-17.5 -74t-6.5 -178v-6z" />
<glyph unicode="e" horiz-adv-x="1292" d="M20 535v6q0 259 167.5 412t451.5 153q308 0 470.5 -155t162.5 -421v-94h-672q8 -98 38.5 -134t86.5 -36q78 0 125 119l422 -78q-139 -338 -602 -338q-304 0 -477 149t-173 417zM598 657h143q-4 90 -22.5 123t-48.5 33q-33 0 -49.5 -31t-22.5 -125z" />
<glyph unicode="f" horiz-adv-x="872" d="M6 741v334h107q3 189 116.5 281t376.5 92q128 0 256 -25v-284q-54 6 -94 6q-48 0 -64 -10.5t-16 -38.5v-21h174v-334h-174v-741h-575v741h-107z" />
<glyph unicode="g" horiz-adv-x="1292" d="M6 -133q0 155 203 203q-83 21 -123.5 70.5t-40.5 113.5q0 142 199 195q-211 90 -211 290v15q0 163 147 257.5t443 94.5q205 0 338 -47q13 96 69.5 137t163.5 41h80v-319q-65 0 -105 -7q43 -67 43 -157v-15q0 -163 -146.5 -257.5t-442.5 -94.5q-64 0 -93 2 q-20 -11 -20 -27q0 -28 63 -28q260 0 385.5 -17.5t190.5 -56.5q137 -81 137 -266q0 -188 -188 -295t-512 -107q-269 0 -424.5 72t-155.5 203zM496 -104q0 -64 125 -64q122 0 122 64q0 34 -33.5 48.5t-125.5 14.5q-88 0 -88 -63zM563 739q0 -88 13.5 -117.5t46.5 -29.5 t46 29.5t13 117.5v15q0 88 -13 117.5t-46 29.5t-46.5 -29.5t-13.5 -117.5v-15z" />
<glyph unicode="h" horiz-adv-x="1335" d="M51 0v1434h576v-523q45 102 125 148.5t200 46.5q172 0 258 -94.5t86 -270.5v-741h-575v676q0 36 -11 49.5t-36 13.5t-36 -13.5t-11 -49.5v-676h-576z" />
<glyph unicode="i" horiz-adv-x="686" d="M55 0v1075h576v-1075h-576zM55 1139v295h576v-295h-576z" />
<glyph unicode="j" horiz-adv-x="686" d="M-102 -98q52 -6 94 -6q63 0 63 49v1130h576v-1098q0 -200 -118.5 -292.5t-348.5 -92.5q-107 0 -266 27v283zM55 1139v295h576v-295h-576z" />
<glyph unicode="k" horiz-adv-x="1370" d="M51 0v1434h576v-670l192 311h537l-266 -403l270 -672h-598l-86 270l-49 -67v-203h-576z" />
<glyph unicode="l" horiz-adv-x="686" d="M55 0v1434h576v-1434h-576z" />
<glyph unicode="m" horiz-adv-x="1988" d="M51 0v1075h561v-176q88 207 344 207q117 0 196.5 -54t113.5 -153q94 207 352 207q159 0 245.5 -96t86.5 -269v-741h-576v676q0 34 -9.5 48.5t-33.5 14.5t-33.5 -14.5t-9.5 -48.5v-676h-575v676q0 34 -9.5 48.5t-33.5 14.5t-33.5 -14.5t-9.5 -48.5v-676h-576z" />
<glyph unicode="n" horiz-adv-x="1335" d="M51 0v1075h561v-176q86 207 340 207q172 0 258 -94.5t86 -270.5v-741h-575v676q0 36 -11 49.5t-36 13.5t-36 -13.5t-11 -49.5v-676h-576z" />
<glyph unicode="o" horiz-adv-x="1359" d="M20 535v6q0 259 173.5 412t486.5 153t486 -153t173 -412v-6q0 -259 -173 -412.5t-486 -153.5t-486.5 153.5t-173.5 412.5zM621 535q0 -120 6.5 -178.5t17.5 -74.5t35 -16t35 16t17.5 74.5t6.5 178.5v6q0 120 -6.5 178t-17.5 74t-35 16t-35 -16t-17.5 -74t-6.5 -178v-6z " />
<glyph unicode="p" horiz-adv-x="1355" d="M51 -389v1464h561v-119q42 68 117 109t172 41q188 0 311 -158t123 -397v-27q0 -239 -123 -397t-311 -158q-90 0 -160.5 34.5t-113.5 94.5v-487h-576zM616 535q0 -120 6.5 -178.5t18 -74.5t35.5 -16t35 16t17.5 74.5t6.5 178.5v6q0 120 -6.5 178t-17.5 74t-35 16 t-35.5 -15.5t-18 -74t-6.5 -178.5v-6z" />
<glyph unicode="q" horiz-adv-x="1355" d="M20 524v27q0 239 123.5 397t311.5 158q97 0 171.5 -41t116.5 -109v119h562v-1464h-576v487q-43 -60 -113.5 -94.5t-160.5 -34.5q-188 0 -311.5 158t-123.5 397zM621 535q0 -120 6.5 -178.5t17.5 -74.5t35 -16t35 16t17.5 74.5t6.5 178.5v6q0 120 -6.5 178t-17.5 74 t-35 16t-35 -16t-17.5 -74t-6.5 -178v-6z" />
<glyph unicode="r" horiz-adv-x="956" d="M51 0v1075h561v-229q74 235 256 235q24 0 66 -6v-534q-102 12 -160 12q-93 0 -120 -17.5t-27 -70.5v-465h-576z" />
<glyph unicode="s" horiz-adv-x="1181" d="M6 88l121 283q87 -48 209 -80.5t199 -32.5q61 0 61 31q0 29 -57 39l-142 22q-193 31 -275.5 118t-82.5 237q0 184 148 292.5t431 108.5q260 0 496 -98l-117 -283q-91 41 -197.5 67.5t-172.5 26.5q-49 0 -49 -26q0 -23 49 -31l155 -25q200 -31 287.5 -121.5t87.5 -244.5 q0 -183 -155 -292.5t-412 -109.5q-319 0 -584 119z" />
<glyph unicode="t" horiz-adv-x="935" d="M6 741v334h121v271h575v-271h224v-334h-224v-354q0 -37 25.5 -52.5t85.5 -15.5q11 0 113 7v-314q-161 -37 -328 -37q-260 0 -365.5 96t-105.5 324v346h-121z" />
<glyph unicode="u" horiz-adv-x="1335" d="M39 334v741h575v-676q0 -36 11 -49.5t37 -13.5q25 0 36 13.5t11 49.5v676h575v-1075h-561v176q-86 -207 -340 -207q-172 0 -258 94.5t-86 270.5z" />
<glyph unicode="v" horiz-adv-x="1239" d="M8 1075h574l98 -553l98 553h453l-240 -1075h-743z" />
<glyph unicode="w" horiz-adv-x="1816" d="M16 1075h559l80 -530l105 530h422l104 -530l80 530h434l-198 -1075h-613l-80 487l-82 -487h-612z" />
<glyph unicode="x" horiz-adv-x="1355" d="M8 0l334 522l-317 553h593l93 -186l104 186h516l-323 -493l340 -582h-605l-98 199l-110 -199h-527z" />
<glyph unicode="y" horiz-adv-x="1286" d="M8 1075h584l119 -506l114 506h453l-291 -1075q-60 -219 -192 -312.5t-381 -93.5q-133 0 -305 31v293q117 -20 217 -20q35 0 49 2z" />
<glyph unicode="z" horiz-adv-x="1085" d="M16 0v301l394 440h-381v334h1040v-301l-393 -440h389v-334h-1049z" />
<glyph unicode="{" horiz-adv-x="1005" d="M41 471v397h123q26 0 36.5 13t10.5 45v186q0 247 99.5 345.5t344.5 98.5h299v-401h-153q-34 0 -47 -16t-13 -56v-135q0 -116 -48.5 -182t-170.5 -96q122 -30 170.5 -96.5t48.5 -182.5v-188q0 -40 13 -56t47 -16h153v-401h-299q-245 0 -344.5 98.5t-99.5 345.5v240 q0 32 -10.5 44.5t-36.5 12.5h-123z" />
<glyph unicode="|" horiz-adv-x="888" d="M215 -287v1884h459v-1884h-459z" />
<glyph unicode="}" horiz-adv-x="1005" d="M51 131h154q33 0 46 16t13 56v188q0 116 48.5 182.5t170.5 96.5q-122 30 -170.5 96t-48.5 182v135q0 40 -13 56t-46 16h-154v401h299q245 0 345 -98.5t100 -345.5v-186q0 -32 10.5 -45t36.5 -13h123v-397h-123q-26 0 -36.5 -12.5t-10.5 -44.5v-240q0 -247 -100 -345.5 t-345 -98.5h-299v401z" />
<glyph unicode="~" horiz-adv-x="1146" d="M10 1114q148 334 365 334q54 0 97.5 -11.5t113.5 -47.5l49 -25q74 -39 106 -39q33 0 59.5 24t65.5 93l271 -172q-148 -334 -365 -334q-54 0 -97.5 11.5t-113.5 47.5l-49 25q-74 39 -106 39q-33 0 -59.5 -24t-65.5 -93z" />
<glyph unicode="&#xa1;" horiz-adv-x="768" d="M82 -176v502l104 424h398l102 -424v-502h-604zM119 819v438h530v-438h-530z" />
<glyph unicode="&#xa2;" horiz-adv-x="1298" d="M25 535v6q0 204 107 345t308 193v240h453v-240q173 -44 267.5 -156.5t103.5 -277.5l-516 -31q0 105 -14.5 150t-47.5 45q-25 0 -36.5 -16.5t-18 -74.5t-6.5 -177v-6q0 -119 7 -177.5t18.5 -75t35.5 -16.5t38 15t22 60t8 128l520 -33q-9 -165 -106 -280t-275 -160v-240 h-453v240q-194 51 -304.5 188.5t-110.5 350.5z" />
<glyph unicode="&#xa3;" horiz-adv-x="1361" d="M31 0v305q119 67 166 162h-166v274h123q-27 41 -40.5 64.5t-27.5 70.5t-14 99q0 192 164.5 306t474.5 114q276 0 450 -140.5t180 -390.5l-565 -35q0 126 -15.5 173t-47.5 47q-29 0 -41.5 -23.5t-12.5 -81.5q0 -27 7 -55.5t15.5 -47t24 -50.5t23.5 -50h313v-274h-303 q-38 -68 -100 -105h661v-362h-1269z" />
<glyph unicode="&#xa5;" horiz-adv-x="1507" d="M8 1364h654l147 -371l147 371h543l-325 -719h231v-225h-334v-58h334v-225h-334v-137h-635v137h-334v225h334v58h-334v225h232z" />
<glyph unicode="&#xa6;" horiz-adv-x="888" d="M215 -287v776h459v-776h-459zM215 821v776h459v-776h-459z" />
<glyph unicode="&#xa7;" horiz-adv-x="1437" d="M18 -295l138 371q121 -58 282 -94.5t240 -36.5q88 0 88 30q0 15 -14 25t-60 23l-330 92q-327 93 -327 346q0 182 170 280q-88 98 -88 250q0 181 169 292.5t490 111.5q287 0 570 -123l-132 -354q-111 59 -246 91.5t-206 32.5q-88 0 -88 -36q0 -27 74 -48l344 -96 q90 -25 152.5 -63t96.5 -86t49 -99.5t15 -113.5q0 -160 -168 -258q86 -93 86 -240q0 -197 -172 -309.5t-477 -112.5q-190 0 -345.5 30t-310.5 95zM475 569q0 -56 100 -82l379 -106q11 18 11 33q0 25 -24 44.5t-85 37.5l-373 104q-8 -13 -8 -31z" />
<glyph unicode="&#xa8;" horiz-adv-x="1146" d="M205 1139v295h319v-295h-319zM623 1139v295h319v-295h-319z" />
<glyph unicode="&#xa9;" horiz-adv-x="1720" d="M113 707v20q0 206 96.5 375t265.5 265.5t375 96.5h20q154 0 291 -57t235 -154.5t155 -234.5t57 -291v-20q0 -154 -57 -291t-155 -235t-235 -155t-291 -57h-20q-154 0 -291 57t-234.5 155t-154.5 235t-57 291zM246 709q0 -128 46.5 -242t126.5 -196t192.5 -129.5 t240.5 -47.5h16q170 0 309.5 81t218.5 222t79 312v16q0 171 -79 311.5t-218.5 221.5t-309.5 81h-16q-170 0 -309.5 -81t-218 -221.5t-78.5 -311.5v-16zM422 711v12q0 218 115 342.5t323 124.5q187 0 295 -104t117 -285l-350 -23q-8 144 -66 144q-31 0 -47 -42.5t-16 -156.5 v-12q0 -114 16.5 -156.5t48.5 -42.5q28 0 48 38.5t26 113.5l350 -23q-9 -171 -123 -284t-299 -113q-208 0 -323 124.5t-115 342.5z" />
<glyph unicode="&#xaa;" horiz-adv-x="1032" d="M20 797q0 54 14.5 94t50 73.5t95.5 54t152 32t219 12.5v61q0 50 -43 50q-25 0 -37 -18t-12 -66l-396 26q8 127 125 203t328 76q247 0 362 -89.5t115 -267.5v-469h-428v127q-33 -70 -99 -108.5t-159 -38.5q-128 0 -207.5 66.5t-79.5 181.5zM463 831q0 -26 12 -40.5 t33 -14.5q43 0 43 60v84q-49 -9 -68.5 -30.5t-19.5 -58.5z" />
<glyph unicode="&#xab;" horiz-adv-x="1312" d="M61 614l234 461h416l-236 -461l236 -460h-416zM582 614l233 461h416l-236 -461l236 -460h-416z" />
<glyph unicode="&#xad;" horiz-adv-x="804" d="M51 524v383h703v-383h-703z" />
<glyph unicode="&#xae;" horiz-adv-x="1210" d="M106 958v15q0 209 141.5 350t350.5 141h14q209 0 350.5 -141t141.5 -350v-15q0 -209 -141.5 -350t-350.5 -141h-14q-209 0 -350.5 141t-141.5 350zM209 958q0 -167 112 -282t277 -115h14q165 0 277 115t112 282v15q0 167 -112 282t-277 115h-14q-165 0 -277 -115 t-112 -282v-15zM360 709v514h289q104 0 159.5 -46.5t55.5 -127.5q0 -97 -69 -140l79 -200h-235l-47 161h-10v-161h-222zM582 987h12q26 0 35.5 9.5t9.5 37.5t-9.5 37.5t-35.5 9.5h-12v-94z" />
<glyph unicode="&#xaf;" horiz-adv-x="1069" d="M205 1159v254h659v-254h-659z" />
<glyph unicode="&#xb0;" horiz-adv-x="929" d="M113 1063q0 142 99 237t253 95t253 -95t99 -237t-99 -237t-253 -95t-253 95t-99 237zM346 1063q0 -50 33 -83.5t86 -33.5t86 33.5t33 83.5t-33 83.5t-86 33.5t-86 -33.5t-33 -83.5z" />
<glyph unicode="&#xb1;" horiz-adv-x="1269" d="M125 0v354h1020v-354h-1020zM125 721v354h315v289h389v-289h316v-354h-316v-293h-389v293h-315z" />
<glyph unicode="&#xb4;" horiz-adv-x="940" d="M205 1139l76 295h454l-188 -295h-342z" />
<glyph unicode="&#xb6;" horiz-adv-x="1464" d="M10 774v25q0 263 161.5 414t485.5 151h748v-1753h-340v1438h-137v-1438h-340v600q-289 17 -433.5 166t-144.5 397z" />
<glyph unicode="&#xb7;" horiz-adv-x="655" d="M82 563v469h491v-469h-491z" />
<glyph unicode="&#xb8;" horiz-adv-x="1036" d="M205 -430l43 160q91 -31 166 -31q44 0 63 8.5t19 28.5q0 37 -78 37q-25 0 -82 -17l-78 78l158 166h174l-64 -78h17q138 0 213 -52t75 -140q0 -97 -83.5 -151t-245.5 -54q-174 0 -297 45z" />
<glyph unicode="&#xba;" horiz-adv-x="1048" d="M25 969v4q0 194 130.5 308t368.5 114t369 -114t131 -308v-4q0 -194 -131 -308t-369 -114t-368.5 114t-130.5 308zM481 969q0 -90 4 -132.5t12.5 -55.5t26.5 -13t26.5 13t12.5 55.5t4 132.5v4q0 90 -4 132.5t-12.5 55.5t-26.5 13t-26.5 -13t-12.5 -55.5t-4 -132.5v-4z" />
<glyph unicode="&#xbb;" horiz-adv-x="1312" d="M82 154l235 460l-235 461h416l233 -461l-233 -460h-416zM602 154l236 460l-236 461h416l233 -461l-233 -460h-416z" />
<glyph unicode="&#xbf;" horiz-adv-x="1417" d="M25 254q0 177 115.5 281t359.5 137v78h530v-383h-242q-69 0 -100 -25.5t-31 -79.5q0 -96 74 -96q33 0 56.5 27.5t27.5 85.5l565 -37q-6 -78 -32.5 -144.5t-80 -123t-131 -96.5t-189 -62.5t-249.5 -22.5q-171 0 -301.5 35t-211 97.5t-120.5 145.5t-40 183zM500 819v438 h530v-438h-530z" />
<glyph unicode="&#xc0;" horiz-adv-x="1564" d="M8 0l375 1434h799l374 -1434h-638l-41 195h-302l-40 -195h-527zM438 1772h455l70 -275h-342zM651 553h150l-74 360z" />
<glyph unicode="&#xc1;" horiz-adv-x="1564" d="M8 0l375 1434h799l374 -1434h-638l-41 195h-302l-40 -195h-527zM602 1497l70 275h454l-182 -275h-342zM651 553h150l-74 360z" />
<glyph unicode="&#xc2;" horiz-adv-x="1564" d="M8 0l375 1434h799l374 -1434h-638l-41 195h-302l-40 -195h-527zM317 1497l258 275h414l258 -275h-352l-113 98l-112 -98h-353zM651 553h150l-74 360z" />
<glyph unicode="&#xc3;" horiz-adv-x="1564" d="M8 0l375 1434h799l374 -1434h-638l-41 195h-302l-40 -195h-527zM354 1577q28 110 102 175t171 65q59 0 141 -27l70 -23q50 -16 80 -16q70 0 112 61l180 -86q-28 -110 -101.5 -174.5t-170.5 -64.5q-62 0 -141 26l-70 23q-50 16 -80 16q-70 0 -112 -61zM651 553h150 l-74 360z" />
<glyph unicode="&#xc4;" horiz-adv-x="1564" d="M8 0l375 1434h799l374 -1434h-638l-41 195h-302l-40 -195h-527zM414 1497v275h319v-275h-319zM651 553h150l-74 360zM831 1497v275h320v-275h-320z" />
<glyph unicode="&#xc5;" horiz-adv-x="1564" d="M8 0l375 1434h799l374 -1434h-638l-41 195h-302l-40 -195h-527zM551 1706q0 95 65.5 155t165.5 60t166 -60t66 -155t-66 -155t-166 -60t-165.5 60t-65.5 155zM651 553h150l-74 360zM702 1706q0 -35 22.5 -56.5t57.5 -21.5t57.5 21.5t22.5 56.5t-22.5 56.5t-57.5 21.5 t-57.5 -21.5t-22.5 -56.5z" />
<glyph unicode="&#xc6;" horiz-adv-x="2025" d="M8 0l375 1434h1602v-398h-560v-112h463v-392h-463v-135h560v-397h-1194v195h-203l-35 -195h-545zM653 553h138v483h-52z" />
<glyph unicode="&#xc7;" horiz-adv-x="1517" d="M31 715v4q0 348 196.5 546.5t556.5 198.5q637 0 695 -594l-580 -36q-8 143 -29 193t-73 50q-41 0 -61 -23t-30 -99.5t-10 -235.5v-4q0 -156 9.5 -232t30 -101.5t61.5 -25.5q37 0 56.5 17.5t31.5 73t16 163.5l586 -37q-20 -294 -178.5 -441t-452.5 -161l-39 -49h17 q138 0 213 -52t75 -140q0 -97 -83.5 -151t-245.5 -54q-174 0 -297 45l43 160q91 -31 166 -31q44 0 62.5 8.5t18.5 28.5q0 37 -77 37q-25 0 -82 -17l-78 78l133 139q-313 29 -482 225t-169 517z" />
<glyph unicode="&#xc8;" horiz-adv-x="1294" d="M59 0v1434h1194v-398h-559v-112h463v-392h-463v-135h559v-397h-1194zM332 1772h454l70 -275h-342z" />
<glyph unicode="&#xc9;" horiz-adv-x="1294" d="M59 0v1434h1194v-398h-559v-112h463v-392h-463v-135h559v-397h-1194zM496 1497l69 275h455l-182 -275h-342z" />
<glyph unicode="&#xca;" horiz-adv-x="1294" d="M59 0v1434h1194v-398h-559v-112h463v-392h-463v-135h559v-397h-1194zM211 1497l258 275h414l258 -275h-353l-112 98l-113 -98h-352z" />
<glyph unicode="&#xcb;" horiz-adv-x="1294" d="M59 0v1434h1194v-398h-559v-112h463v-392h-463v-135h559v-397h-1194zM307 1497v275h320v-275h-320zM725 1497v275h319v-275h-319z" />
<glyph unicode="&#xcc;" horiz-adv-x="765" d="M39 1772h455l69 -275h-342zM66 0v1434h634v-1434h-634z" />
<glyph unicode="&#xcd;" horiz-adv-x="765" d="M66 0v1434h634v-1434h-634zM203 1497l69 275h455l-182 -275h-342z" />
<glyph unicode="&#xce;" horiz-adv-x="765" d="M-82 1497l258 275h414l258 -275h-352l-113 98l-113 -98h-352zM66 0v1434h634v-1434h-634z" />
<glyph unicode="&#xcf;" horiz-adv-x="765" d="M14 1497v275h320v-275h-320zM66 0v1434h634v-1434h-634zM432 1497v275h320v-275h-320z" />
<glyph unicode="&#xd0;" horiz-adv-x="1576" d="M20 582v307h60v545h749q180 0 318 -52t224.5 -147t130.5 -225t44 -291v-4q0 -161 -44 -291t-130.5 -225t-224.5 -147t-318 -52h-749v582h-60zM715 373h35q52 0 78.5 25t39.5 98t13 219v4q0 146 -13 219t-39.5 98t-78.5 25h-35v-172h100v-307h-100v-209z" />
<glyph unicode="&#xd1;" horiz-adv-x="1499" d="M59 0v1434h533l326 -461v461h522v-1434h-520l-338 479v-479h-523zM322 1577q28 110 101.5 175t170.5 65q59 0 141 -27l70 -23q50 -16 80 -16q70 0 112 61l181 -86q-28 -110 -102 -174.5t-171 -64.5q-62 0 -141 26l-70 23q-50 16 -80 16q-70 0 -112 -61z" />
<glyph unicode="&#xd2;" d="M31 715v4q0 355 199 550t554 195t554.5 -195t199.5 -550v-4q0 -355 -199.5 -550.5t-554.5 -195.5t-554 195.5t-199 550.5zM440 1772h455l70 -275h-342zM696 715q0 -154 10 -232.5t27.5 -102.5t50.5 -24t50.5 24t27.5 102.5t10 232.5v4q0 153 -10 232t-27.5 102.5 t-50.5 23.5t-50.5 -23.5t-27.5 -102.5t-10 -232v-4z" />
<glyph unicode="&#xd3;" d="M31 715v4q0 355 199 550t554 195t554.5 -195t199.5 -550v-4q0 -355 -199.5 -550.5t-554.5 -195.5t-554 195.5t-199 550.5zM604 1497l70 275h454l-182 -275h-342zM696 715q0 -154 10 -232.5t27.5 -102.5t50.5 -24t50.5 24t27.5 102.5t10 232.5v4q0 153 -10 232 t-27.5 102.5t-50.5 23.5t-50.5 -23.5t-27.5 -102.5t-10 -232v-4z" />
<glyph unicode="&#xd4;" d="M31 715v4q0 355 199 550t554 195t554.5 -195t199.5 -550v-4q0 -355 -199.5 -550.5t-554.5 -195.5t-554 195.5t-199 550.5zM319 1497l259 275h413l258 -275h-352l-113 98l-112 -98h-353zM696 715q0 -154 10 -232.5t27.5 -102.5t50.5 -24t50.5 24t27.5 102.5t10 232.5v4 q0 153 -10 232t-27.5 102.5t-50.5 23.5t-50.5 -23.5t-27.5 -102.5t-10 -232v-4z" />
<glyph unicode="&#xd5;" d="M31 715v4q0 355 199 550t554 195t554.5 -195t199.5 -550v-4q0 -355 -199.5 -550.5t-554.5 -195.5t-554 195.5t-199 550.5zM356 1577q28 110 102 175t171 65q59 0 141 -27l70 -23q50 -16 80 -16q70 0 112 61l180 -86q-28 -110 -101.5 -174.5t-170.5 -64.5q-62 0 -141 26 l-70 23q-50 16 -80 16q-70 0 -112 -61zM696 715q0 -154 10 -232.5t27.5 -102.5t50.5 -24t50.5 24t27.5 102.5t10 232.5v4q0 153 -10 232t-27.5 102.5t-50.5 23.5t-50.5 -23.5t-27.5 -102.5t-10 -232v-4z" />
<glyph unicode="&#xd6;" d="M31 715v4q0 355 199 550t554 195t554.5 -195t199.5 -550v-4q0 -355 -199.5 -550.5t-554.5 -195.5t-554 195.5t-199 550.5zM416 1497v275h319v-275h-319zM696 715q0 -154 10 -232.5t27.5 -102.5t50.5 -24t50.5 24t27.5 102.5t10 232.5v4q0 153 -10 232t-27.5 102.5 t-50.5 23.5t-50.5 -23.5t-27.5 -102.5t-10 -232v-4zM834 1497v275h319v-275h-319z" />
<glyph unicode="&#xd7;" horiz-adv-x="1269" d="M102 412l265 264l-265 264l260 260l265 -264l264 264l258 -260l-264 -264l264 -264l-258 -258l-264 264l-265 -264z" />
<glyph unicode="&#xd8;" d="M31 715v4q0 355 199 550t554 195q225 0 394 -82l98 129l141 -100l-96 -127q217 -195 217 -565v-4q0 -355 -199.5 -550.5t-554.5 -195.5q-224 0 -393 82l-98 -129l-141 101l96 127q-217 195 -217 565zM696 743l166 220q-10 68 -28 91t-50 23t-49 -22t-27.5 -95.5 t-11.5 -216.5zM707 471q10 -68 27.5 -91.5t49.5 -23.5t49 22t27.5 95.5t11.5 216.5z" />
<glyph unicode="&#xd9;" horiz-adv-x="1499" d="M51 596v838h635v-916q0 -135 74 -135t74 135v916h614v-838q0 -160 -49.5 -280.5t-142 -196t-219 -113t-287.5 -37.5t-288 37.5t-219.5 113t-142 196t-49.5 280.5zM406 1772h454l70 -275h-342z" />
<glyph unicode="&#xda;" horiz-adv-x="1499" d="M51 596v838h635v-916q0 -135 74 -135t74 135v916h614v-838q0 -160 -49.5 -280.5t-142 -196t-219 -113t-287.5 -37.5t-288 37.5t-219.5 113t-142 196t-49.5 280.5zM569 1497l70 275h455l-183 -275h-342z" />
<glyph unicode="&#xdb;" horiz-adv-x="1499" d="M51 596v838h635v-916q0 -135 74 -135t74 135v916h614v-838q0 -160 -49.5 -280.5t-142 -196t-219 -113t-287.5 -37.5t-288 37.5t-219.5 113t-142 196t-49.5 280.5zM285 1497l258 275h413l258 -275h-352l-112 98l-113 -98h-352z" />
<glyph unicode="&#xdc;" horiz-adv-x="1499" d="M51 596v838h635v-916q0 -135 74 -135t74 135v916h614v-838q0 -160 -49.5 -280.5t-142 -196t-219 -113t-287.5 -37.5t-288 37.5t-219.5 113t-142 196t-49.5 280.5zM381 1497v275h319v-275h-319zM799 1497v275h319v-275h-319z" />
<glyph unicode="&#xdd;" horiz-adv-x="1548" d="M8 1434h643l178 -420l179 420h532l-448 -992v-442h-635v442zM594 1497l70 275h454l-182 -275h-342z" />
<glyph unicode="&#xde;" horiz-adv-x="1525" d="M59 0v1434h635v-195h197q305 0 465 -136t160 -390q0 -255 -160 -391t-465 -136h-197v-186h-635zM694 553h47q62 0 86.5 34t24.5 126t-24 125.5t-87 33.5h-47v-319z" />
<glyph unicode="&#xdf;" horiz-adv-x="1370" d="M51 0v981q0 483 643 483q308 0 462.5 -98.5t154.5 -284.5v-6q0 -242 -242 -311q138 -39 209.5 -128t71.5 -218v-12q0 -207 -129 -314.5t-365 -107.5q-104 0 -194 12v287h8q51 0 74.5 28t23.5 111v8q0 83 -23.5 111t-74.5 28h-8v332h18q27 0 40 26.5t13 94.5v16 q0 68 -13 94.5t-40 26.5q-28 0 -40.5 -30t-12.5 -119v-1010h-576z" />
<glyph unicode="&#xe0;" horiz-adv-x="1325" d="M16 305q0 74 19 128t65.5 99t125.5 73t199 43t286 16v79q0 31 -15 48.5t-43 17.5q-33 0 -49 -24t-16 -89l-514 37q11 168 165.5 270.5t422.5 102.5q167 0 287.5 -30.5t194 -92t108 -148.5t34.5 -204v-631h-557v170q-43 -93 -131.5 -144t-210.5 -51q-166 0 -268.5 88 t-102.5 242zM328 1434h454l76 -295h-342zM594 352q0 -34 15.5 -52.5t41.5 -18.5q60 0 60 75v115q-65 -12 -91 -40.5t-26 -78.5z" />
<glyph unicode="&#xe1;" horiz-adv-x="1325" d="M16 305q0 74 19 128t65.5 99t125.5 73t199 43t286 16v79q0 31 -15 48.5t-43 17.5q-33 0 -49 -24t-16 -89l-514 37q11 168 165.5 270.5t422.5 102.5q167 0 287.5 -30.5t194 -92t108 -148.5t34.5 -204v-631h-557v170q-43 -93 -131.5 -144t-210.5 -51q-166 0 -268.5 88 t-102.5 242zM494 1139l75 295h455l-188 -295h-342zM594 352q0 -34 15.5 -52.5t41.5 -18.5q60 0 60 75v115q-65 -12 -91 -40.5t-26 -78.5z" />
<glyph unicode="&#xe2;" horiz-adv-x="1325" d="M16 305q0 74 19 128t65.5 99t125.5 73t199 43t286 16v79q0 31 -15 48.5t-43 17.5q-33 0 -49 -24t-16 -89l-514 37q11 168 165.5 270.5t422.5 102.5q167 0 287.5 -30.5t194 -92t108 -148.5t34.5 -204v-631h-557v170q-43 -93 -131.5 -144t-210.5 -51q-166 0 -268.5 88 t-102.5 242zM211 1139l258 295h414l258 -295h-353l-112 110l-113 -110h-352zM594 352q0 -34 15.5 -52.5t41.5 -18.5q60 0 60 75v115q-65 -12 -91 -40.5t-26 -78.5z" />
<glyph unicode="&#xe3;" horiz-adv-x="1325" d="M16 305q0 74 19 128t65.5 99t125.5 73t199 43t286 16v79q0 31 -15 48.5t-43 17.5q-33 0 -49 -24t-16 -89l-514 37q11 168 165.5 270.5t422.5 102.5q167 0 287.5 -30.5t194 -92t108 -148.5t34.5 -204v-631h-557v170q-43 -93 -131.5 -144t-210.5 -51q-166 0 -268.5 88 t-102.5 242zM248 1219q28 110 101.5 174.5t170.5 64.5q63 0 142 -26l69 -23q50 -16 80 -16q71 0 113 61l180 -86q-28 -110 -102 -175t-171 -65q-59 0 -141 27l-69 23q-50 16 -80 16q-71 0 -113 -61zM594 352q0 -34 15.5 -52.5t41.5 -18.5q60 0 60 75v115q-65 -12 -91 -40.5 t-26 -78.5z" />
<glyph unicode="&#xe4;" horiz-adv-x="1325" d="M16 305q0 74 19 128t65.5 99t125.5 73t199 43t286 16v79q0 31 -15 48.5t-43 17.5q-33 0 -49 -24t-16 -89l-514 37q11 168 165.5 270.5t422.5 102.5q167 0 287.5 -30.5t194 -92t108 -148.5t34.5 -204v-631h-557v170q-43 -93 -131.5 -144t-210.5 -51q-166 0 -268.5 88 t-102.5 242zM307 1139v295h320v-295h-320zM594 352q0 -34 15.5 -52.5t41.5 -18.5q60 0 60 75v115q-65 -12 -91 -40.5t-26 -78.5zM725 1139v295h319v-295h-319z" />
<glyph unicode="&#xe5;" horiz-adv-x="1325" d="M16 305q0 74 19 128t65.5 99t125.5 73t199 43t286 16v79q0 31 -15 48.5t-43 17.5q-33 0 -49 -24t-16 -89l-514 37q11 168 165.5 270.5t422.5 102.5q167 0 287.5 -30.5t194 -92t108 -148.5t34.5 -204v-631h-557v170q-43 -93 -131.5 -144t-210.5 -51q-166 0 -268.5 88 t-102.5 242zM444 1348q0 95 66 155t166 60t165.5 -60t65.5 -155t-65.5 -155t-165.5 -60t-166 60t-66 155zM594 352q0 -34 15.5 -52.5t41.5 -18.5q60 0 60 75v115q-65 -12 -91 -40.5t-26 -78.5zM596 1348q0 -35 22.5 -56.5t57.5 -21.5t57.5 21.5t22.5 56.5t-22 56t-58 21 t-58 -21t-22 -56z" />
<glyph unicode="&#xe6;" horiz-adv-x="1982" d="M16 305q0 74 19 128t65.5 99t125.5 73t199 43t286 16v79q0 31 -15 48.5t-43 17.5q-33 0 -49 -24t-16 -89l-514 37q11 166 162.5 269.5t404.5 103.5q235 0 369 -125q131 125 340 125q290 0 451 -156t161 -420v-94h-672q8 -98 38.5 -134t86.5 -36q78 0 125 119l422 -78 q-139 -338 -602 -338q-274 0 -404 168q-153 -162 -487 -162q-226 0 -339.5 84t-113.5 246zM594 352q0 -34 15.5 -52.5t41.5 -18.5q60 0 60 75v115q-65 -12 -91 -40.5t-26 -78.5zM1288 657h144q-4 90 -23 123t-49 33q-33 0 -49.5 -31t-22.5 -125z" />
<glyph unicode="&#xe7;" horiz-adv-x="1290" d="M20 535v6q0 258 168.5 411.5t475.5 153.5q278 0 431 -123.5t165 -337.5l-517 -31q0 105 -14.5 150t-46.5 45q-25 0 -36.5 -16.5t-18 -74.5t-6.5 -177v-6q0 -119 7 -177.5t18.5 -75t35.5 -16.5t38 15t22 60t8 128l520 -33q-11 -196 -145 -320.5t-377 -142.5l-41 -51h16 q138 0 213.5 -52t75.5 -140q0 -97 -84 -151t-246 -54q-174 0 -297 45l43 160q91 -31 166 -31q44 0 63 8.5t19 28.5q0 37 -78 37q-25 0 -82 -17l-78 78l133 139q-252 24 -401.5 169t-149.5 393z" />
<glyph unicode="&#xe8;" horiz-adv-x="1292" d="M20 535v6q0 259 167.5 412t451.5 153q308 0 470.5 -155t162.5 -421v-94h-672q8 -98 38.5 -134t86.5 -36q78 0 125 119l422 -78q-139 -338 -602 -338q-304 0 -477 149t-173 417zM297 1434h455l75 -295h-342zM598 657h143q-4 90 -22.5 123t-48.5 33q-33 0 -49.5 -31 t-22.5 -125z" />
<glyph unicode="&#xe9;" horiz-adv-x="1292" d="M20 535v6q0 259 167.5 412t451.5 153q308 0 470.5 -155t162.5 -421v-94h-672q8 -98 38.5 -134t86.5 -36q78 0 125 119l422 -78q-139 -338 -602 -338q-304 0 -477 149t-173 417zM463 1139l76 295h454l-188 -295h-342zM598 657h143q-4 90 -22.5 123t-48.5 33 q-33 0 -49.5 -31t-22.5 -125z" />
<glyph unicode="&#xea;" horiz-adv-x="1292" d="M20 535v6q0 259 167.5 412t451.5 153q308 0 470.5 -155t162.5 -421v-94h-672q8 -98 38.5 -134t86.5 -36q78 0 125 119l422 -78q-139 -338 -602 -338q-304 0 -477 149t-173 417zM180 1139l258 295h414l258 -295h-352l-113 110l-113 -110h-352zM598 657h143 q-4 90 -22.5 123t-48.5 33q-33 0 -49.5 -31t-22.5 -125z" />
<glyph unicode="&#xeb;" horiz-adv-x="1292" d="M20 535v6q0 259 167.5 412t451.5 153q308 0 470.5 -155t162.5 -421v-94h-672q8 -98 38.5 -134t86.5 -36q78 0 125 119l422 -78q-139 -338 -602 -338q-304 0 -477 149t-173 417zM276 1139v295h320v-295h-320zM598 657h143q-4 90 -22.5 123t-48.5 33q-33 0 -49.5 -31 t-22.5 -125zM694 1139v295h320v-295h-320z" />
<glyph unicode="&#xec;" horiz-adv-x="686" d="M-6 1434h455l75 -295h-342zM55 0v1075h576v-1075h-576z" />
<glyph unicode="&#xed;" horiz-adv-x="686" d="M55 0v1075h576v-1075h-576zM160 1139l76 295h454l-188 -295h-342z" />
<glyph unicode="&#xee;" horiz-adv-x="686" d="M-123 1139l258 295h414l258 -295h-352l-113 110l-113 -110h-352zM55 0v1075h576v-1075h-576z" />
<glyph unicode="&#xef;" horiz-adv-x="686" d="M-27 1139v295h320v-295h-320zM55 0v1075h576v-1075h-576zM391 1139v295h320v-295h-320z" />
<glyph unicode="&#xf0;" horiz-adv-x="1359" d="M20 535v6q0 245 117 391.5t314 146.5q99 0 174 -78q-58 91 -107 152l-338 -53l-24 151l243 37q-72 79 -139 146h606q9 -7 72 -62l215 33l25 -150l-111 -16q132 -159 202 -330t70 -315v-59q0 -259 -173 -412.5t-486 -153.5t-486.5 153.5t-173.5 412.5zM621 535 q0 -120 6.5 -178.5t17.5 -74.5t35 -16t35 16t17.5 74.5t6.5 178.5v6q0 120 -6.5 178t-17.5 74t-35 16t-35 -16t-17.5 -74t-6.5 -178v-6z" />
<glyph unicode="&#xf1;" horiz-adv-x="1335" d="M51 0v1075h561v-176q86 207 340 207q172 0 258 -94.5t86 -270.5v-741h-575v676q0 36 -11 49.5t-36 13.5t-36 -13.5t-11 -49.5v-676h-576zM266 1219q28 110 102 174.5t171 64.5q62 0 141 -26l70 -23q50 -16 79 -16q71 0 113 61l180 -86q-28 -110 -101.5 -175t-170.5 -65 q-59 0 -141 27l-70 23q-50 16 -80 16q-71 0 -113 -61z" />
<glyph unicode="&#xf2;" horiz-adv-x="1359" d="M20 535v6q0 259 173.5 412t486.5 153t486 -153t173 -412v-6q0 -259 -173 -412.5t-486 -153.5t-486.5 153.5t-173.5 412.5zM332 1434h454l76 -295h-342zM621 535q0 -120 6.5 -178.5t17.5 -74.5t35 -16t35 16t17.5 74.5t6.5 178.5v6q0 120 -6.5 178t-17.5 74t-35 16 t-35 -16t-17.5 -74t-6.5 -178v-6z" />
<glyph unicode="&#xf3;" horiz-adv-x="1359" d="M20 535v6q0 259 173.5 412t486.5 153t486 -153t173 -412v-6q0 -259 -173 -412.5t-486 -153.5t-486.5 153.5t-173.5 412.5zM498 1139l75 295h455l-188 -295h-342zM621 535q0 -120 6.5 -178.5t17.5 -74.5t35 -16t35 16t17.5 74.5t6.5 178.5v6q0 120 -6.5 178t-17.5 74 t-35 16t-35 -16t-17.5 -74t-6.5 -178v-6z" />
<glyph unicode="&#xf4;" horiz-adv-x="1359" d="M20 535v6q0 259 173.5 412t486.5 153t486 -153t173 -412v-6q0 -259 -173 -412.5t-486 -153.5t-486.5 153.5t-173.5 412.5zM215 1139l258 295h414l258 -295h-352l-113 110l-113 -110h-352zM621 535q0 -120 6.5 -178.5t17.5 -74.5t35 -16t35 16t17.5 74.5t6.5 178.5v6 q0 120 -6.5 178t-17.5 74t-35 16t-35 -16t-17.5 -74t-6.5 -178v-6z" />
<glyph unicode="&#xf5;" horiz-adv-x="1359" d="M20 535v6q0 259 173.5 412t486.5 153t486 -153t173 -412v-6q0 -259 -173 -412.5t-486 -153.5t-486.5 153.5t-173.5 412.5zM252 1219q28 110 101.5 174.5t170.5 64.5q63 0 142 -26l69 -23q50 -16 80 -16q71 0 113 61l180 -86q-28 -110 -101.5 -175t-170.5 -65 q-60 0 -142 27l-69 23q-50 16 -80 16q-71 0 -113 -61zM621 535q0 -120 6.5 -178.5t17.5 -74.5t35 -16t35 16t17.5 74.5t6.5 178.5v6q0 120 -6.5 178t-17.5 74t-35 16t-35 -16t-17.5 -74t-6.5 -178v-6z" />
<glyph unicode="&#xf6;" horiz-adv-x="1359" d="M20 535v6q0 259 173.5 412t486.5 153t486 -153t173 -412v-6q0 -259 -173 -412.5t-486 -153.5t-486.5 153.5t-173.5 412.5zM311 1139v295h320v-295h-320zM621 535q0 -120 6.5 -178.5t17.5 -74.5t35 -16t35 16t17.5 74.5t6.5 178.5v6q0 120 -6.5 178t-17.5 74t-35 16 t-35 -16t-17.5 -74t-6.5 -178v-6zM729 1139v295h320v-295h-320z" />
<glyph unicode="&#xf7;" horiz-adv-x="1269" d="M125 500v356h1020v-356h-1020zM446 70v342h377v-342h-377zM446 942v342h377v-342h-377z" />
<glyph unicode="&#xf8;" horiz-adv-x="1359" d="M20 535v6q0 259 173.5 412t486.5 153q193 0 340 -64l94 113l100 -78l-81 -98q101 -73 153.5 -185.5t52.5 -252.5v-6q0 -259 -173 -412.5t-486 -153.5q-193 0 -340 64l-94 -113l-101 78l82 98q-101 73 -154 186t-53 253zM621 565l114 137q-6 66 -18 86.5t-37 20.5 q-23 0 -34 -14.5t-17.5 -67.5t-7.5 -162zM625 373q6 -66 18 -86.5t37 -20.5q23 0 34 14.5t17.5 67.5t7.5 162z" />
<glyph unicode="&#xf9;" horiz-adv-x="1335" d="M39 334v741h575v-676q0 -36 11 -49.5t37 -13.5q25 0 36 13.5t11 49.5v676h575v-1075h-561v176q-86 -207 -340 -207q-172 0 -258 94.5t-86 270.5zM313 1434h455l76 -295h-342z" />
<glyph unicode="&#xfa;" horiz-adv-x="1335" d="M39 334v741h575v-676q0 -36 11 -49.5t37 -13.5q25 0 36 13.5t11 49.5v676h575v-1075h-561v176q-86 -207 -340 -207q-172 0 -258 94.5t-86 270.5zM479 1139l76 295h455l-189 -295h-342z" />
<glyph unicode="&#xfb;" horiz-adv-x="1335" d="M39 334v741h575v-676q0 -36 11 -49.5t37 -13.5q25 0 36 13.5t11 49.5v676h575v-1075h-561v176q-86 -207 -340 -207q-172 0 -258 94.5t-86 270.5zM197 1139l258 295h413l258 -295h-352l-112 110l-113 -110h-352z" />
<glyph unicode="&#xfc;" horiz-adv-x="1335" d="M39 334v741h575v-676q0 -36 11 -49.5t37 -13.5q25 0 36 13.5t11 49.5v676h575v-1075h-561v176q-86 -207 -340 -207q-172 0 -258 94.5t-86 270.5zM293 1139v295h319v-295h-319zM711 1139v295h319v-295h-319z" />
<glyph unicode="&#xfd;" horiz-adv-x="1286" d="M8 1075h584l119 -506l114 506h453l-291 -1075q-60 -219 -192 -312.5t-381 -93.5q-133 0 -305 31v293q117 -20 217 -20q35 0 49 2zM461 1139l76 295h454l-188 -295h-342z" />
<glyph unicode="&#xfe;" horiz-adv-x="1355" d="M51 -389v1823h576v-457q43 60 113.5 94.5t160.5 34.5q188 0 311 -158t123 -397v-27q0 -239 -123 -397t-311 -158q-90 0 -160.5 34.5t-113.5 94.5v-487h-576zM616 535q0 -120 6.5 -178.5t18 -74.5t35.5 -16t35 16t17.5 74.5t6.5 178.5v6q0 120 -6.5 178t-17.5 74t-35 16 t-35.5 -15.5t-18 -74t-6.5 -178.5v-6z" />
<glyph unicode="&#xff;" horiz-adv-x="1286" d="M8 1075h584l119 -506l114 506h453l-291 -1075q-60 -219 -192 -312.5t-381 -93.5q-133 0 -305 31v293q117 -20 217 -20q35 0 49 2zM274 1139v295h320v-295h-320zM692 1139v295h320v-295h-320z" />
<glyph unicode="&#x152;" horiz-adv-x="2056" d="M31 715v4q0 161 44 291t130.5 225t224.5 147t318 52h1267v-398h-518v-112h422v-392h-422v-135h518v-397h-1267q-180 0 -318 52t-224.5 147t-130.5 225t-44 291zM696 715q0 -146 13 -219t39.5 -98t78.5 -25h35v688h-35q-52 0 -78.5 -25t-39.5 -98t-13 -219v-4z" />
<glyph unicode="&#x153;" horiz-adv-x="2011" d="M20 535v6q0 259 173.5 412t486.5 153q218 0 356 -119q135 119 342 119q294 0 453.5 -155.5t159.5 -420.5v-94h-672q8 -98 38.5 -134t86.5 -36q78 0 125 119l422 -78q-139 -338 -602 -338q-216 0 -351 119q-141 -119 -358 -119q-313 0 -486.5 153.5t-173.5 412.5zM621 535 q0 -120 6.5 -178.5t17.5 -74.5t35 -16t35 16t17.5 74.5t6.5 178.5v6q0 120 -6.5 178t-17.5 74t-35 16t-35 -16t-17.5 -74t-6.5 -178v-6zM1317 657h143q-4 90 -22.5 123t-48.5 33q-33 0 -49.5 -31t-22.5 -125z" />
<glyph unicode="&#x178;" horiz-adv-x="1548" d="M8 1434h643l178 -420l179 420h532l-448 -992v-442h-635v442zM406 1497v275h319v-275h-319zM823 1497v275h320v-275h-320z" />
<glyph unicode="&#x2c6;" horiz-adv-x="1339" d="M205 1139l258 295h414l258 -295h-353l-112 110l-113 -110h-352z" />
<glyph unicode="&#x2dc;" horiz-adv-x="1265" d="M205 1219q28 110 101.5 174.5t170.5 64.5q62 0 141 -26l70 -23q50 -16 80 -16q71 0 113 61l180 -86q-28 -110 -102 -175t-171 -65q-59 0 -141 27l-69 23q-50 16 -80 16q-71 0 -113 -61z" />
<glyph unicode="&#x2000;" horiz-adv-x="960" />
<glyph unicode="&#x2001;" horiz-adv-x="1921" />
<glyph unicode="&#x2002;" horiz-adv-x="960" />
<glyph unicode="&#x2003;" horiz-adv-x="1921" />
<glyph unicode="&#x2004;" horiz-adv-x="640" />
<glyph unicode="&#x2005;" horiz-adv-x="480" />
<glyph unicode="&#x2006;" horiz-adv-x="320" />
<glyph unicode="&#x2007;" horiz-adv-x="320" />
<glyph unicode="&#x2008;" horiz-adv-x="240" />
<glyph unicode="&#x2009;" horiz-adv-x="384" />
<glyph unicode="&#x200a;" horiz-adv-x="106" />
<glyph unicode="&#x2010;" horiz-adv-x="804" d="M51 524v383h703v-383h-703z" />
<glyph unicode="&#x2011;" horiz-adv-x="804" d="M51 524v383h703v-383h-703z" />
<glyph unicode="&#x2012;" horiz-adv-x="804" d="M51 524v383h703v-383h-703z" />
<glyph unicode="&#x2013;" horiz-adv-x="1259" d="M51 524v383h1157v-383h-1157z" />
<glyph unicode="&#x2014;" horiz-adv-x="1564" d="M51 524v383h1462v-383h-1462z" />
<glyph unicode="&#x2018;" horiz-adv-x="593" d="M51 717v442l215 275h277l-172 -275h172v-442h-492z" />
<glyph unicode="&#x2019;" horiz-adv-x="593" d="M51 717l172 274h-172v443h492v-443l-215 -274h-277z" />
<glyph unicode="&#x201a;" horiz-adv-x="593" d="M51 0v442h492v-442l-215 -274h-277l172 274h-172z" />
<glyph unicode="&#x201c;" horiz-adv-x="1157" d="M51 717v442l215 275h277l-172 -275h172v-442h-492zM614 717v442l215 275h277l-172 -275h172v-442h-492z" />
<glyph unicode="&#x201d;" horiz-adv-x="1157" d="M51 717l172 274h-172v443h492v-443l-215 -274h-277zM614 717l172 274h-172v443h492v-443l-215 -274h-277z" />
<glyph unicode="&#x201e;" horiz-adv-x="1157" d="M51 0v442h492v-442l-215 -274h-277l172 274h-172zM614 0v442h492v-442l-215 -274h-277l172 274h-172z" />
<glyph unicode="&#x2022;" horiz-adv-x="868" d="M51 733q0 165 109 274t274 109q164 0 273.5 -109.5t109.5 -273.5t-109.5 -273.5t-273.5 -109.5q-165 0 -274 109t-109 274z" />
<glyph unicode="&#x2026;" horiz-adv-x="1761" d="M51 0v469h492v-469h-492zM635 0v469h491v-469h-491zM1219 0v469h491v-469h-491z" />
<glyph unicode="&#x202f;" horiz-adv-x="384" />
<glyph unicode="&#x2039;" horiz-adv-x="792" d="M61 614l234 461h416l-236 -461l236 -460h-416z" />
<glyph unicode="&#x203a;" horiz-adv-x="792" d="M82 154l235 460l-235 461h416l233 -461l-233 -460h-416z" />
<glyph unicode="&#x205f;" horiz-adv-x="480" />
<glyph unicode="&#x20ac;" horiz-adv-x="1499" d="M20 438v226h95v45h-95v225h123q57 220 231.5 340.5t442.5 120.5q299 0 468.5 -144t178.5 -379l-546 -36q-3 120 -24 166.5t-60 46.5q-29 0 -47.5 -24t-28.5 -91h125v-225h-135v-45h135v-226h-125q8 -73 26.5 -98t49.5 -25q40 0 61 51.5t27 192.5l546 -37 q-18 -256 -186.5 -404.5t-462.5 -148.5q-271 0 -446.5 123t-231.5 346h-121z" />
<glyph unicode="&#x2122;" horiz-adv-x="1421" d="M41 1227v207h530v-207h-139v-371h-252v371h-139zM614 856v578h340l29 -273l27 273h340v-578h-230v397l-49 -397h-199l-49 397v-397h-209z" />
<glyph unicode="&#x25fc;" horiz-adv-x="1075" d="M0 0v1075h1075v-1075h-1075z" />
<glyph unicode="&#xfb01;" horiz-adv-x="1558" d="M6 741v334h107q3 189 116.5 281t376.5 92q128 0 256 -25v-284q-54 6 -94 6q-48 0 -64 -10.5t-16 -38.5v-21h174v-334h-174v-741h-575v741h-107zM928 0v1075h575v-1075h-575zM928 1139v295h575v-295h-575z" />
<glyph unicode="&#xfb02;" horiz-adv-x="1558" d="M6 741v334h107q3 189 116.5 281t376.5 92q128 0 256 -25v-284q-54 6 -94 6q-48 0 -64 -10.5t-16 -38.5v-21h174v-334h-174v-741h-575v741h-107zM928 0v1434h575v-1434h-575z" />
</font>
</defs>
</svg>
