<?xml version="1.0" standalone="no"?>
<!DOCTYPE svg PUBLIC "-//W3C//DTD SVG 1.1//EN" "http://www.w3.org/Graphics/SVG/1.1/DTD/svg11.dtd" >
<svg xmlns="http://www.w3.org/2000/svg">
<metadata></metadata>
<defs>
<font id="baltobold" horiz-adv-x="1175" >
<font-face units-per-em="2048" ascent="1659" descent="-389" />
<missing-glyph horiz-adv-x="440" />
<glyph horiz-adv-x="0" />
<glyph horiz-adv-x="682" />
<glyph unicode=" "  horiz-adv-x="440" />
<glyph unicode="&#x09;" horiz-adv-x="440" />
<glyph unicode="&#xa0;" horiz-adv-x="440" />
<glyph unicode="!" horiz-adv-x="737" d="M168 1106v328h403v-328l-67 -631h-271zM180 0v358h377v-358h-377z" />
<glyph unicode="&#x22;" horiz-adv-x="950" d="M98 1434h318l-23 -574h-272zM535 1434h315l-21 -574h-272z" />
<glyph unicode="#" horiz-adv-x="1247" d="M12 330l33 221h199l37 262h-199l33 221h198l49 330h254l-49 -330h201l49 330h254l-49 -330h199l-33 -221h-199l-37 -262h199l-33 -221h-198l-50 -330h-254l50 330h-201l-49 -330h-254l49 330h-199zM498 551h200l37 262h-200z" />
<glyph unicode="$" horiz-adv-x="1257" d="M12 258l226 203q97 -121 185 -172t189 -51q81 0 127.5 34t46.5 93q0 57 -36.5 91t-133.5 56l-155 35q-192 42 -282.5 144t-90.5 272q0 158 97.5 270t289.5 147v228h299v-224q248 -42 391 -225l-221 -196q-78 90 -147.5 130t-149.5 40q-88 0 -132 -30.5t-44 -84.5 q0 -97 135 -125l160 -35q226 -49 325 -159t99 -279q0 -165 -112 -282t-304 -154v-228h-299v226q-146 23 -267.5 96t-195.5 180z" />
<glyph unicode="%" horiz-adv-x="1716" d="M47 1008v8q0 167 104.5 273t274.5 106q169 0 274 -106t105 -273v-8q0 -166 -105 -272.5t-274 -106.5q-170 0 -274.5 106.5t-104.5 272.5zM295 0l926 1364h200l-925 -1364h-201zM313 1008q0 -203 113 -203t113 203v8q0 203 -113 203t-113 -203v-8zM911 348v8 q0 166 104.5 272.5t274.5 106.5q169 0 274 -106.5t105 -272.5v-8q0 -167 -105 -273t-274 -106q-170 0 -274.5 106t-104.5 273zM1178 348q0 -203 112 -203q113 0 113 203v8q0 203 -113 203q-112 0 -112 -203v-8z" />
<glyph unicode="&#x26;" horiz-adv-x="1536" d="M33 399v15q0 144 68 243t216 156q-81 147 -81 266q0 176 123 280.5t348 104.5q207 0 317.5 -95t110.5 -247q0 -121 -80 -215t-252 -166q103 -101 264 -221q79 125 147 299l273 -106q-80 -217 -184 -365q2 -1 6 -4t6 -4q66 -45 151 -45h15v-295h-58q-201 0 -360 98l-6 4 q-198 -133 -461 -133q-255 0 -409 115.5t-154 314.5zM403 420q0 -100 62.5 -155.5t169.5 -55.5q95 0 186 55q-209 156 -354 334q-64 -61 -64 -172v-6zM588 1096q0 -80 63 -181q90 37 128 84t38 115q0 56 -29 88.5t-81 32.5q-53 0 -86 -36.5t-33 -102.5z" />
<glyph unicode="'" horiz-adv-x="514" d="M98 1434h318l-23 -574h-272z" />
<glyph unicode="(" horiz-adv-x="866" d="M109 633v20q0 242 99.5 483.5t272.5 419.5h332q-159 -198 -250.5 -445.5t-91.5 -457.5v-20q0 -210 91.5 -457.5t250.5 -445.5h-332q-173 178 -272.5 419.5t-99.5 483.5z" />
<glyph unicode=")" horiz-adv-x="866" d="M53 -270q159 198 250.5 445.5t91.5 457.5v20q0 210 -91.5 457.5t-250.5 445.5h332q173 -179 273 -420.5t100 -482.5v-20q0 -241 -100 -482.5t-273 -420.5h-332z" />
<glyph unicode="*" horiz-adv-x="935" d="M70 1026l94 293l244 -176l-93 291h306l-93 -291l242 176l94 -293l-284 -2l229 -168l-248 -180l-92 280l-94 -280l-248 180l229 168z" />
<glyph unicode="+" horiz-adv-x="1234" d="M127 565v240h362v375h256v-375h363v-240h-363v-372h-256v372h-362z" />
<glyph unicode="," horiz-adv-x="604" d="M121 0v358h362v-358l-147 -326h-201l123 326h-137z" />
<glyph unicode="-" horiz-adv-x="831" d="M84 563v326h664v-326h-664z" />
<glyph unicode="." horiz-adv-x="604" d="M121 0v358h362v-358h-362z" />
<glyph unicode="/" horiz-adv-x="1087" d="M-23 -287l760 1884h322l-758 -1884h-324z" />
<glyph unicode="0" horiz-adv-x="1345" d="M57 672v20q0 326 165 514.5t450 188.5q286 0 451 -188t165 -515v-20q0 -327 -165 -515t-451 -188q-285 0 -450 188.5t-165 514.5zM446 672q0 -128 16 -219t46.5 -143.5t70.5 -76.5t93 -24t93 24t70.5 76.5t46 143.5t15.5 219v20q0 128 -15.5 219t-46 143.5t-70.5 76.5 t-93 24t-93 -24t-70.5 -76.5t-46.5 -143.5t-16 -219v-20z" />
<glyph unicode="1" horiz-adv-x="1060" d="M82 0v248h276v784q-123 -63 -276 -98v264q180 59 356 166h297v-1116h266v-248h-919z" />
<glyph unicode="2" horiz-adv-x="1171" d="M33 915q35 229 172.5 354.5t382.5 125.5q252 0 386 -116t134 -298q0 -167 -100 -296.5t-365 -299.5l-158 -102h619v-283h-1041v281l357 299q184 154 241.5 238t57.5 181q0 72 -37 114t-100 42q-77 0 -124.5 -63.5t-66.5 -217.5z" />
<glyph unicode="3" horiz-adv-x="1208" d="M39 430l356 43q14 -140 66.5 -202t138.5 -62q79 0 125.5 50t46.5 138q0 94 -44.5 136t-158.5 42h-139v240h129q189 0 189 176q0 76 -39 120t-113 44q-153 0 -186 -229l-347 41q26 197 160.5 312.5t376.5 115.5q260 0 399.5 -107t139.5 -272q0 -231 -256 -305 q148 -36 217 -122t69 -204q0 -185 -153.5 -300.5t-411.5 -115.5t-402 116t-163 345z" />
<glyph unicode="4" horiz-adv-x="1284" d="M25 293v233l600 838h444v-813h166v-258h-166v-293h-379v293h-665zM354 551h336v496z" />
<glyph unicode="5" horiz-adv-x="1228" d="M63 403l359 41q13 -120 61.5 -177.5t122.5 -57.5q81 0 127.5 57.5t46.5 169.5q0 238 -157 238q-111 0 -177 -121l-352 47l37 764h954v-268h-657l-12 -318q123 148 317 148q206 0 322 -125.5t116 -331.5q0 -232 -154.5 -366t-408.5 -134q-245 0 -381 110.5t-164 323.5z " />
<glyph unicode="6" horiz-adv-x="1275" d="M57 672v20q0 326 165.5 514.5t455.5 188.5q397 0 504 -357l-353 -49q-52 166 -172 166q-192 0 -208 -414q58 82 145.5 125t193.5 43q213 0 331 -120.5t118 -319.5q0 -220 -157.5 -360t-413.5 -140q-281 0 -445 184t-164 519zM473 438q0 -103 55.5 -166t135.5 -63 q82 0 132 62t50 167q0 103 -49 164.5t-129 61.5q-88 0 -141.5 -61t-53.5 -165z" />
<glyph unicode="7" horiz-adv-x="1081" d="M25 1087v277h1030v-289q-207 -189 -301.5 -443t-118.5 -632h-397q24 328 133.5 595.5t330.5 491.5h-677z" />
<glyph unicode="8" horiz-adv-x="1271" d="M39 381q0 105 64 187t194 130q-211 99 -211 310q0 161 147 274t402 113q257 0 403 -105t146 -260q0 -95 -60.5 -174.5t-169.5 -126.5q279 -98 279 -344q0 -187 -166.5 -301.5t-431.5 -114.5q-271 0 -433.5 116.5t-162.5 295.5zM428 383q0 -76 55.5 -122t151.5 -46 q99 0 154 47t55 125q0 74 -62.5 125t-160.5 51q-84 0 -138.5 -52t-54.5 -128zM446 995q0 -73 57 -120.5t144 -47.5q75 0 126.5 49t51.5 121q0 67 -49 109.5t-141 42.5q-91 0 -140 -42.5t-49 -111.5z" />
<glyph unicode="9" horiz-adv-x="1275" d="M39 930q0 96 39 180.5t110.5 148t181.5 100t244 36.5q276 0 440.5 -184t164.5 -515v-20q0 -330 -163.5 -518.5t-447.5 -188.5q-234 0 -378 103.5t-181 294.5l354 51q45 -209 213 -209q46 0 82.5 23t65.5 73.5t45.5 139t19.5 212.5q-61 -83 -148 -126.5t-187 -43.5 q-216 0 -335.5 117.5t-119.5 325.5zM430 944q0 -103 48.5 -157t129.5 -54q86 0 139.5 54.5t53.5 152.5q0 101 -52 158t-133 57q-86 0 -136 -55t-50 -156z" />
<glyph unicode=":" horiz-adv-x="645" d="M141 0v358h363v-358h-363zM141 604v359h363v-359h-363z" />
<glyph unicode=";" horiz-adv-x="645" d="M141 0v358h363v-358l-148 -326h-200l123 326h-138zM141 604v359h363v-359h-363z" />
<glyph unicode="&#x3c;" horiz-adv-x="1234" d="M111 553v264l987 420v-266l-727 -285l727 -285v-268z" />
<glyph unicode="=" horiz-adv-x="1234" d="M139 344v231h957v-231h-957zM139 795v231h957v-231h-957z" />
<glyph unicode="&#x3e;" horiz-adv-x="1234" d="M137 133v268l727 285l-727 285v266l987 -420v-264z" />
<glyph unicode="?" horiz-adv-x="1257" d="M59 1030q39 206 181 320t383 114q262 0 406.5 -124t144.5 -326q0 -171 -107 -277t-315 -143v-119h-363v322h135q136 0 198 54t62 165q0 93 -43 144.5t-125 51.5q-157 0 -198 -223zM383 0v358h377v-358h-377z" />
<glyph unicode="@" horiz-adv-x="1908" d="M59 393q0 158 46.5 305t135.5 269.5t211 213.5t282 142t339 51q366 0 573 -182t207 -494q0 -199 -73.5 -356t-198 -241.5t-276.5 -84.5q-95 0 -166 43t-92 121q-54 -76 -128 -120t-155 -44q-134 0 -224.5 105t-90.5 282q0 116 38 224t99.5 185t143 123t165.5 46 q80 0 140.5 -44.5t90.5 -121.5l29 135h315l-135 -626q-26 -125 60 -125q47 0 96 36.5t89 99.5t65.5 159t25.5 204q0 248 -153 383.5t-445 135.5q-188 0 -345.5 -65.5t-262.5 -178t-163 -262.5t-58 -318q0 -289 163 -436t480 -147q166 0 387 51l31 -148q-90 -26 -210.5 -44.5 t-207.5 -18.5q-254 0 -438.5 83t-287 251.5t-102.5 408.5zM766 371q0 -156 102 -156q49 0 90 41q45 45 80 155t35 210q0 161 -102 161q-47 0 -88 -41q-46 -46 -81.5 -157t-35.5 -213z" />
<glyph unicode="A" horiz-adv-x="1443" d="M16 0l463 1434h486l462 -1434h-409l-86 299h-475l-86 -299h-355zM537 569h317l-160 545z" />
<glyph unicode="B" horiz-adv-x="1378" d="M109 0v1434h698q243 0 361 -99.5t118 -269.5q0 -123 -80.5 -211.5t-232.5 -118.5q180 -22 267 -114.5t87 -235.5q0 -185 -138 -285t-386 -100h-694zM502 240h203q113 0 164 44t51 142t-51 142t-164 44h-203v-372zM502 850h190q101 0 147 42t46 130t-46 130t-147 42h-190 v-344z" />
<glyph unicode="C" horiz-adv-x="1411" d="M66 715v4q0 342 179 543.5t492 201.5q265 0 415.5 -133t188.5 -379l-358 -43q-22 154 -79.5 223.5t-160.5 69.5q-130 0 -199 -114.5t-69 -368.5v-4q0 -256 69 -370t199 -114q103 0 164.5 69.5t85.5 236.5l361 -41q-35 -262 -195.5 -394.5t-421.5 -132.5 q-310 0 -490.5 200t-180.5 546z" />
<glyph unicode="D" horiz-adv-x="1460" d="M109 0v1434h583q347 0 525 -184t178 -531v-4q0 -347 -178 -531t-525 -184h-583zM502 268h135q193 0 270.5 101.5t77.5 345.5v4q0 244 -77.5 345t-270.5 101h-135v-897z" />
<glyph unicode="E" horiz-adv-x="1243" d="M109 0v1434h1038v-279h-645v-283h553v-276h-553v-317h645v-279h-1038z" />
<glyph unicode="F" horiz-adv-x="1185" d="M109 0v1434h1024v-279h-631v-340h540v-276h-540v-539h-393z" />
<glyph unicode="G" horiz-adv-x="1445" d="M66 715v4q0 340 180 542.5t502 202.5q518 0 595 -442l-348 -41q-49 221 -241 221q-139 0 -209 -113t-70 -370v-4q0 -258 69.5 -371t213.5 -113q105 0 170 73.5t65 205.5v8h-266v268h633v-786h-293l-20 199q-102 -230 -390 -230q-128 0 -235.5 48t-187 140t-124 234.5 t-44.5 323.5z" />
<glyph unicode="H" horiz-adv-x="1441" d="M109 0v1434h393v-553h436v553h395v-1434h-395v565h-436v-565h-393z" />
<glyph unicode="I" horiz-adv-x="630" d="M119 0v1434h393v-1434h-393z" />
<glyph unicode="J" horiz-adv-x="974" d="M20 72l95 274q91 -51 180 -51q94 0 137 40.5t43 135.5v963h393v-955q0 -250 -118.5 -373.5t-366.5 -123.5q-101 0 -198.5 24.5t-164.5 65.5z" />
<glyph unicode="K" horiz-adv-x="1449" d="M109 0v1434h393v-619l446 619h422l-428 -588l471 -846h-455l-294 565l-162 -209v-356h-393z" />
<glyph unicode="L" horiz-adv-x="1202" d="M109 0v1434h393v-1131h622v-303h-1015z" />
<glyph unicode="M" horiz-adv-x="1845" d="M109 0v1434h557l264 -959l262 959h545v-1434h-377v1055l-299 -1055h-326l-299 1049v-1049h-327z" />
<glyph unicode="N" horiz-adv-x="1452" d="M109 0v1434h372l510 -813v813h352v-1434h-354l-528 842v-842h-352z" />
<glyph unicode="O" horiz-adv-x="1476" d="M66 715v4q0 347 182 546t491 199q308 0 490 -199.5t182 -545.5v-4q0 -347 -182 -546.5t-490 -199.5q-309 0 -491 199.5t-182 546.5zM475 715q0 -486 264 -486q262 0 262 486v4q0 485 -262 485q-264 0 -264 -485v-4z" />
<glyph unicode="P" horiz-adv-x="1376" d="M109 0v1434h655q272 0 420.5 -126t148.5 -352q0 -227 -148.5 -353t-420.5 -126h-262v-477h-393zM502 739h192q230 0 230 217q0 215 -230 215h-192v-432z" />
<glyph unicode="Q" horiz-adv-x="1476" d="M66 715v4q0 347 182 546t491 199q308 0 490 -199.5t182 -545.5v-4q0 -218 -75 -381.5t-212 -255.5q30 -58 69.5 -79.5t109.5 -21.5q22 0 67 5v-271q-34 -6 -94 -6q-166 0 -256 56t-139 194l-9 25q-79 -11 -133 -11q-309 0 -491 199.5t-182 546.5zM475 715 q0 -484 264 -484q262 0 262 484v4q0 483 -262 483q-264 0 -264 -483v-4z" />
<glyph unicode="R" horiz-adv-x="1404" d="M109 0v1434h643q280 0 419.5 -123t139.5 -334q0 -264 -275 -373l334 -604h-424l-268 526h-176v-526h-393zM502 788h188q109 0 159 47.5t50 145.5q0 97 -50 143.5t-159 46.5h-188v-383z" />
<glyph unicode="S" horiz-adv-x="1329" d="M10 309l266 195q85 -131 178.5 -191.5t202.5 -60.5q90 0 143.5 37.5t53.5 99.5q0 58 -44 94t-148 60l-164 37q-204 46 -305 152.5t-101 279.5q0 93 37.5 174.5t109 143.5t184.5 98t255 36q188 0 344 -74t246 -202l-262 -193q-83 105 -161 150t-167 45q-84 0 -132 -32.5 t-48 -90.5q0 -49 36 -81t119 -50l164 -35q243 -52 352 -168.5t109 -292.5q0 -204 -168.5 -337.5t-452.5 -133.5q-227 0 -396 89t-251 251z" />
<glyph unicode="T" horiz-adv-x="1253" d="M39 1130v304h1175v-304h-391v-1130h-395v1130h-389z" />
<glyph unicode="U" horiz-adv-x="1411" d="M102 571v863h394v-920q0 -256 217 -256t217 256v920h379v-863q0 -285 -152.5 -443.5t-449.5 -158.5q-299 0 -452 158t-153 444z" />
<glyph unicode="V" horiz-adv-x="1361" d="M16 1434h410l285 -1088l282 1088h355l-422 -1434h-490z" />
<glyph unicode="W" horiz-adv-x="2011" d="M35 1434h409l168 -1067l217 1067h410l219 -1063l168 1063h350l-282 -1434h-494l-192 952l-195 -952h-494z" />
<glyph unicode="X" horiz-adv-x="1474" d="M27 0l487 733l-446 701h458l240 -394l250 394h399l-450 -676l483 -758h-459l-276 453l-287 -453h-399z" />
<glyph unicode="Y" horiz-adv-x="1380" d="M23 1434h423l273 -609l274 609h363l-469 -969v-465h-393v465z" />
<glyph unicode="Z" horiz-adv-x="1234" d="M61 0v299l648 831h-627v304h1085v-299l-645 -832h649v-303h-1110z" />
<glyph unicode="[" horiz-adv-x="884" d="M170 -270v1826h621v-282h-259v-1262h259v-282h-621z" />
<glyph unicode="\" horiz-adv-x="1087" d="M29 1597h321l760 -1884h-324z" />
<glyph unicode="]" horiz-adv-x="884" d="M94 12h260v1262h-260v282h623v-1826h-623v282z" />
<glyph unicode="^" horiz-adv-x="1089" d="M55 621l328 813h324l327 -813h-293l-196 555l-197 -555h-293z" />
<glyph unicode="_" horiz-adv-x="1210" d="M-6 -96h1223v-262h-1223v262z" />
<glyph unicode="`" horiz-adv-x="868" d="M205 1430h344l115 -291h-250z" />
<glyph unicode="a" horiz-adv-x="1122" d="M35 289q0 65 15 114t56 94t109 74.5t177 49t257 24.5l35 2v39q0 145 -131 145q-56 0 -90 -30.5t-53 -93.5l-320 38q31 147 149 236.5t312 89.5q252 0 372.5 -113.5t120.5 -341.5v-616h-352v154q-86 -174 -315 -174q-150 0 -246 84.5t-96 224.5zM397 311q0 -55 35 -86.5 t88 -31.5q75 0 119.5 49.5t44.5 140.5v92h-6q-110 -8 -174 -32t-85.5 -55t-21.5 -77z" />
<glyph unicode="b" horiz-adv-x="1210" d="M88 0v1434h361v-551q40 87 119 137.5t180 50.5q185 0 300 -150t115 -380v-39q0 -232 -115 -382.5t-300 -150.5q-101 0 -180 50.5t-119 138.5v-158h-361zM440 502q0 -160 47 -239t127 -79q174 0 174 318v39q0 317 -174 317q-80 0 -127 -79.5t-47 -237.5v-39z" />
<glyph unicode="c" horiz-adv-x="1142" d="M47 508v24q0 237 151 388t392 151q215 0 345 -103.5t155 -289.5l-318 -37q-19 110 -59 158.5t-111 48.5q-89 0 -134.5 -72.5t-45.5 -234.5v-39q0 -163 45 -236t135 -73q74 0 115 49t61 172l322 -37q-25 -198 -156 -303t-354 -105q-154 0 -276.5 65t-194.5 189t-72 285z " />
<glyph unicode="d" horiz-adv-x="1210" d="M47 502v39q0 230 115.5 380t300.5 150q101 0 180 -50.5t119 -137.5v551h360v-1434h-360v158q-40 -88 -119 -138.5t-180 -50.5q-185 0 -300.5 151t-115.5 382zM422 502q0 -318 174 -318q80 0 127 79t47 239v39q0 158 -47 237.5t-127 79.5q-174 0 -174 -317v-39z" />
<glyph unicode="e" horiz-adv-x="1146" d="M47 508v24q0 236 150.5 387.5t380.5 151.5q250 0 386 -145.5t136 -405.5v-65h-688q14 -271 206 -271q126 0 226 166l250 -98q-59 -130 -189 -206.5t-299 -76.5q-251 0 -405 146.5t-154 392.5zM414 633h325q-7 126 -44.5 177.5t-112.5 51.5q-146 0 -168 -229z" />
<glyph unicode="f" horiz-adv-x="759" d="M18 815v225h146v47q0 182 94 271.5t295 89.5q111 0 184 -18v-222q-47 6 -104 6q-59 0 -84 -22t-25 -76v-76h213v-225h-213v-815h-360v815h-146z" />
<glyph unicode="g" horiz-adv-x="1146" d="M8 -131q0 162 209 207q-66 21 -101.5 65t-35.5 101q0 124 176 174q-95 45 -144 122t-49 175v6q0 158 124.5 255t355.5 97q196 0 319 -74q17 89 79 130.5t179 41.5h13v-235q-112 0 -162 -35q51 -74 51 -180v-6q0 -160 -123.5 -257.5t-355.5 -97.5q-32 0 -86 4 q-66 -22 -66 -59q0 -41 70 -41q219 -1 340.5 -19t185.5 -55q63 -35 97 -97t34 -140q0 -167 -153.5 -266t-429.5 -99q-248 0 -387.5 74t-139.5 209zM336 -109q0 -114 217 -114q111 0 170 30.5t59 81.5t-62 79t-210 28q-88 0 -131 -28.5t-43 -76.5zM393 713q0 -87 38.5 -131.5 t111.5 -44.5t112 44.5t39 131.5v6q0 87 -39 131.5t-112 44.5t-111.5 -44.5t-38.5 -131.5v-6z" />
<glyph unicode="h" d="M88 0v1434h361v-574q95 211 315 211q167 0 250.5 -100.5t83.5 -268.5v-702h-361v645q0 156 -129 156q-76 0 -117.5 -51t-41.5 -142v-608h-361z" />
<glyph unicode="i" horiz-adv-x="557" d="M98 0v1040h361v-1040h-361zM98 1147v276h361v-276h-361z" />
<glyph unicode="j" horiz-adv-x="557" d="M-94 -166q29 -4 92 -4q55 0 77.5 22t22.5 76v1112h361v-1085q0 -187 -95 -272.5t-282 -85.5q-78 0 -176 16v221zM98 1147v276h361v-276h-361z" />
<glyph unicode="k" horiz-adv-x="1198" d="M88 0v1434h361v-807l335 413h357l-324 -391l350 -649h-393l-211 403l-114 -139v-264h-361z" />
<glyph unicode="l" horiz-adv-x="557" d="M98 0v1434h361v-1434h-361z" />
<glyph unicode="m" horiz-adv-x="1787" d="M88 0v1040h361v-178q98 209 311 209q118 0 195 -57.5t106 -165.5q50 109 130.5 166t184.5 57q163 0 247.5 -99.5t84.5 -269.5v-702h-360v645q0 80 -29.5 118t-95.5 38t-105 -51.5t-39 -141.5v-608h-360v645q0 79 -30 117.5t-95 38.5q-68 0 -106.5 -51t-38.5 -142v-608 h-361z" />
<glyph unicode="n" d="M88 0v1040h361v-180q95 211 315 211q167 0 250.5 -100.5t83.5 -268.5v-702h-361v645q0 156 -129 156q-76 0 -117.5 -51t-41.5 -142v-608h-361z" />
<glyph unicode="o" horiz-adv-x="1191" d="M47 508v24q0 155 66.5 277t192 192t290.5 70t290.5 -70t192 -192t66.5 -277v-24q0 -155 -66.5 -277t-192 -192t-290.5 -70t-290.5 70t-192 192t-66.5 277zM422 502q0 -318 174 -318t174 318v39q0 317 -174 317t-174 -317v-39z" />
<glyph unicode="p" horiz-adv-x="1210" d="M88 -389v1429h361v-157q40 87 119 137.5t180 50.5q185 0 300 -150t115 -380v-39q0 -232 -115 -382.5t-300 -150.5q-101 0 -180 50.5t-119 138.5v-547h-361zM440 502q0 -160 47 -239t127 -79q174 0 174 318v39q0 317 -174 317q-80 0 -127 -79.5t-47 -237.5v-39z" />
<glyph unicode="q" horiz-adv-x="1210" d="M47 502v39q0 230 115.5 380t300.5 150q101 0 180 -50.5t119 -137.5v157h360v-1429h-360v547q-40 -88 -119 -138.5t-180 -50.5q-185 0 -300.5 151t-115.5 382zM422 502q0 -318 174 -318q80 0 127 79t47 239v39q0 158 -47 237.5t-127 79.5q-174 0 -174 -317v-39z" />
<glyph unicode="r" horiz-adv-x="837" d="M88 0v1040h361v-252q80 269 299 269q31 0 55 -6v-344q-77 10 -115 10q-124 0 -181.5 -57t-57.5 -187v-473h-361z" />
<glyph unicode="s" horiz-adv-x="1089" d="M18 197l170 170q73 -89 160.5 -136t169.5 -47q80 0 122 26t42 66q0 39 -31 60.5t-116 38.5l-150 28q-152 29 -230.5 113.5t-78.5 208.5q0 156 125.5 251t355.5 95q139 0 260.5 -51.5t190.5 -136.5l-168 -162q-61 66 -134.5 101.5t-146.5 35.5q-70 0 -106.5 -22.5 t-36.5 -59.5q0 -34 26.5 -55.5t92.5 -34.5l149 -29q190 -36 273 -121.5t83 -224.5q0 -147 -138.5 -244.5t-358.5 -97.5q-169 0 -307.5 60t-217.5 168z" />
<glyph unicode="t" horiz-adv-x="827" d="M18 815v225h152v287h360v-287h261v-225h-261v-475q0 -57 25 -78.5t86 -21.5q29 0 147 10v-240q-144 -28 -258 -28q-200 0 -280 80.5t-80 271.5v481h-152z" />
<glyph unicode="u" d="M78 338v702h360v-645q0 -155 129 -155q76 0 118 50.5t42 141.5v608h360v-1040h-360v182q-96 -213 -315 -213q-167 0 -250.5 100.5t-83.5 268.5z" />
<glyph unicode="v" horiz-adv-x="1132" d="M27 1040h383l188 -770l186 770h324l-315 -1040h-453z" />
<glyph unicode="w" horiz-adv-x="1644" d="M33 1040h366l117 -745l168 745h336l168 -751l117 751h307l-238 -1040h-399l-154 666l-153 -666h-400z" />
<glyph unicode="x" horiz-adv-x="1210" d="M27 0l385 532l-355 508h398l170 -270l180 270h350l-352 -489l381 -551h-398l-200 317l-211 -317h-348z" />
<glyph unicode="y" horiz-adv-x="1132" d="M27 1040h383l202 -737l172 737h324l-332 -1110q-54 -183 -157 -259.5t-293 -76.5q-84 0 -203 21v227q74 -12 158 -12q64 0 97 18t52 64v2z" />
<glyph unicode="z" horiz-adv-x="993" d="M45 0v211l483 604h-460v225h878v-211l-481 -602h483v-227h-903z" />
<glyph unicode="{" horiz-adv-x="995" d="M82 528v285h117q50 0 67 21t17 84v247q0 216 86 303.5t299 87.5h233v-282h-143q-66 0 -89.5 -28t-23.5 -105v-191q0 -118 -35.5 -184.5t-130.5 -95.5q95 -29 130.5 -96t35.5 -185v-244q0 -77 23.5 -105t89.5 -28h143v-282h-233q-213 0 -299 87.5t-86 303.5v303 q0 61 -17 82.5t-67 21.5h-117z" />
<glyph unicode="|" horiz-adv-x="862" d="M274 -287v1884h314v-1884h-314z" />
<glyph unicode="}" horiz-adv-x="995" d="M94 12h144q66 0 89 28t23 105v244q0 118 36 185t132 96q-96 29 -132 95.5t-36 184.5v191q0 77 -23 105t-89 28h-144v282h236q213 0 298 -87.5t85 -303.5v-247q0 -63 17.5 -84t68.5 -21h116v-285h-116q-51 0 -68.5 -21t-17.5 -83v-303q0 -216 -85 -303.5t-298 -87.5h-236 v282z" />
<glyph unicode="~" horiz-adv-x="1128" d="M55 1159q57 141 141 215t185 74q52 0 92 -13.5t105 -54.5l49 -30q50 -31 71.5 -40.5t44.5 -9.5q35 0 68 31.5t74 110.5l188 -111q-57 -141 -140.5 -215t-184.5 -74q-51 0 -91.5 14t-105.5 54l-49 31q-47 31 -69.5 40t-47.5 9q-35 0 -67.5 -31t-73.5 -110z" />
<glyph unicode="&#xa1;" horiz-adv-x="737" d="M166 137l67 631h271l65 -631v-327h-403v327zM180 885v358h377v-358h-377z" />
<glyph unicode="&#xa2;" horiz-adv-x="1140" d="M47 508v24q0 197 106 337.5t285 183.5v231h299v-227q151 -32 242 -130t111 -249l-320 -37q-17 110 -57.5 158.5t-112.5 48.5q-88 0 -134 -72.5t-46 -234.5v-39q0 -163 45.5 -236t134.5 -73q74 0 116 49.5t62 171.5l322 -37q-20 -162 -113 -262t-250 -131v-228h-299v232 q-176 44 -283.5 182t-107.5 338z" />
<glyph unicode="&#xa3;" horiz-adv-x="1220" d="M68 0v215q93 51 146.5 128.5t53.5 168.5h-200v215h118q-37 64 -57 120.5t-20 127.5q0 184 145 302t381 118t371 -120.5t157 -350.5l-348 -41q-11 150 -53.5 211t-112.5 61q-73 0 -113 -45.5t-40 -136.5q0 -18 2 -36t5 -32.5t9 -33t10 -29t13.5 -30.5t13 -27.5t15 -29.5 t14.5 -28h350v-215h-289q0 -76 -39.5 -147t-107.5 -117h659v-248h-1083z" />
<glyph unicode="&#xa5;" horiz-adv-x="1277" d="M23 1364h405l248 -555l248 555h346l-344 -705h225v-190h-315v-100h315v-191h-315v-178h-379v178h-316v191h316v100h-316v190h228z" />
<glyph unicode="&#xa6;" horiz-adv-x="862" d="M274 -287v776h314v-776h-314zM274 821v776h314v-776h-314z" />
<glyph unicode="&#xa7;" horiz-adv-x="1304" d="M10 -111l209 177q88 -107 183.5 -155t230.5 -48q70 0 115 26t45 66q0 32 -22.5 54t-84.5 46l-307 111q-165 56 -236 138t-71 202q0 89 49 160t143 110q-114 96 -114 256q0 155 133 259t366 104q164 0 302.5 -64t224.5 -180l-205 -172q-85 94 -156 132t-156 38 q-66 0 -102.5 -23.5t-36.5 -62.5q0 -31 21.5 -53.5t81.5 -46.5l319 -129q153 -59 219 -141t66 -189q0 -88 -49.5 -159t-141.5 -112q115 -96 115 -245q0 -105 -71 -192.5t-191.5 -137t-263.5 -49.5q-413 0 -615 280zM399 584q0 -39 29 -68.5t100 -56.5l312 -123q59 35 59 88 q0 39 -26.5 67.5t-92.5 55.5l-321 127q-60 -35 -60 -90z" />
<glyph unicode="&#xa8;" horiz-adv-x="1060" d="M205 1153v264h268v-264h-268zM588 1153v264h268v-264h-268z" />
<glyph unicode="&#xa9;" horiz-adv-x="1714" d="M109 707v20q0 206 96.5 375t265.5 265.5t375 96.5h20q154 0 291 -57t235 -154.5t155 -234.5t57 -291v-20q0 -154 -57 -291t-155 -235t-235 -155t-291 -57h-20q-154 0 -291 57t-234.5 155t-154.5 235t-57 291zM242 709q0 -128 46.5 -242t126.5 -196t192.5 -129.5 t240.5 -47.5h16q128 0 240.5 47.5t192.5 129.5t126.5 196t46.5 242v16q0 171 -78.5 311.5t-218 221.5t-309.5 81h-16q-170 0 -309.5 -81t-218 -221.5t-78.5 -311.5v-16zM449 711v12q0 202 114 320t305 118q140 0 235.5 -85t117.5 -226l-246 -31q-13 77 -42 112.5t-75 35.5 q-141 0 -141 -244v-12q0 -244 141 -244q48 0 83 39.5t50 114.5l246 -31q-22 -144 -123 -231t-246 -87q-191 0 -305 118.5t-114 320.5z" />
<glyph unicode="&#xaa;" horiz-adv-x="933" d="M55 803q0 61 21 105t73.5 80.5t148.5 57t239 27.5l18 2v27q0 106 -94 106q-83 0 -103 -90l-260 29q21 109 116 177.5t245 68.5q387 0 387 -344v-463h-287v112q-69 -127 -237 -127q-117 0 -192 63t-75 169zM348 819q0 -40 24 -61t64 -21q56 0 87.5 35t31.5 102v66 q-119 -8 -163 -38.5t-44 -82.5z" />
<glyph unicode="&#xab;" d="M82 606l250 416h301l-250 -416l250 -418h-301zM524 606l252 416h301l-250 -416l250 -418h-301z" />
<glyph unicode="&#xad;" horiz-adv-x="831" d="M84 563v326h664v-326h-664z" />
<glyph unicode="&#xae;" horiz-adv-x="1204" d="M102 958v15q0 209 141.5 350t350.5 141h14q209 0 350.5 -141t141.5 -350v-15q0 -209 -141.5 -350t-350.5 -141h-14q-209 0 -350.5 141t-141.5 350zM205 958q0 -167 112 -282t277 -115h14q165 0 277 115t112 282v15q0 167 -112 282t-277 115h-14q-165 0 -277 -115 t-112 -282v-15zM387 709v514h229q105 0 160 -45.5t55 -122.5q0 -107 -90 -144l103 -202h-174l-82 176h-39v-176h-162zM549 987h39q78 0 78 62q0 61 -78 61h-39v-123z" />
<glyph unicode="&#xaf;" horiz-adv-x="999" d="M205 1180v211h590v-211h-590z" />
<glyph unicode="&#xb0;" horiz-adv-x="888" d="M127 1077q0 135 90.5 226.5t226.5 91.5t227 -91.5t91 -226.5t-91 -226t-227 -91t-226.5 91t-90.5 226zM307 1077q0 -62 38.5 -105.5t98.5 -43.5t98 43.5t38 105.5t-38 105t-98 43t-98.5 -43t-38.5 -105z" />
<glyph unicode="&#xb1;" horiz-adv-x="1234" d="M131 72v239h973v-239h-973zM131 731v240h358v332h256v-332h359v-240h-359v-332h-256v332h-358z" />
<glyph unicode="&#xb4;" horiz-adv-x="868" d="M205 1139l112 291h347l-211 -291h-248z" />
<glyph unicode="&#xb6;" horiz-adv-x="1454" d="M43 803v24q0 247 159 392t474 145h674v-1724h-252v1486h-180v-1486h-254v624q-309 3 -465 148t-156 391z" />
<glyph unicode="&#xb7;" horiz-adv-x="673" d="M156 604v359h362v-359h-362z" />
<glyph unicode="&#xb8;" horiz-adv-x="931" d="M205 -406l35 123q94 -32 157 -32q99 0 99 53q0 49 -82 49q-38 0 -78 -14l-78 61l115 166h153l-45 -92h17q104 0 166.5 -47.5t62.5 -124.5q0 -84 -78 -135.5t-211 -51.5q-123 0 -233 45z" />
<glyph unicode="&#xba;" horiz-adv-x="995" d="M74 971v16q0 181 117.5 293.5t306.5 112.5t307.5 -112.5t118.5 -293.5v-16q0 -183 -118.5 -295.5t-307.5 -112.5t-306.5 112.5t-117.5 295.5zM373 965q0 -123 32 -176.5t93 -53.5t93 53.5t32 176.5v28q0 121 -32 174.5t-93 53.5t-93 -53.5t-32 -174.5v-28z" />
<glyph unicode="&#xbb;" d="M96 188l252 418l-252 416h303l250 -416l-250 -418h-303zM541 188l252 418l-252 416h303l250 -416l-250 -418h-303z" />
<glyph unicode="&#xbf;" horiz-adv-x="1257" d="M84 229q0 171 107 277t315 143v119h362v-322h-135q-136 0 -198 -54t-62 -165q0 -93 43 -144.5t125 -51.5q158 0 199 223l358 -41q-39 -206 -180.5 -320t-382.5 -114q-262 0 -406.5 124t-144.5 326zM498 885v358h376v-358h-376z" />
<glyph unicode="&#xc0;" horiz-adv-x="1443" d="M16 0l463 1434h486l462 -1434h-409l-86 299h-475l-86 -299h-355zM399 1786h344l103 -260h-248zM537 569h317l-160 545z" />
<glyph unicode="&#xc1;" horiz-adv-x="1443" d="M16 0l463 1434h486l462 -1434h-409l-86 299h-475l-86 -299h-355zM537 569h317l-160 545zM598 1526l102 260h344l-198 -260h-248z" />
<glyph unicode="&#xc2;" horiz-adv-x="1443" d="M16 0l463 1434h486l462 -1434h-409l-86 299h-475l-86 -299h-355zM348 1526l230 254h288l230 -254h-256l-117 104l-119 -104h-256zM537 569h317l-160 545z" />
<glyph unicode="&#xc3;" horiz-adv-x="1443" d="M16 0l463 1434h486l462 -1434h-409l-86 299h-475l-86 -299h-355zM348 1599q38 98 102.5 152.5t137.5 54.5q76 0 151 -43l41 -24q47 -27 72 -27q28 0 51 20.5t51 69.5l142 -78q-37 -98 -101.5 -152t-136.5 -54q-79 0 -151 43l-43 24q-47 27 -72 27q-28 0 -52 -20.5 t-51 -69.5zM537 569h317l-160 545z" />
<glyph unicode="&#xc4;" horiz-adv-x="1443" d="M16 0l463 1434h486l462 -1434h-409l-86 299h-475l-86 -299h-355zM377 1536v244h270v-244h-270zM537 569h317l-160 545zM799 1536v244h268v-244h-268z" />
<glyph unicode="&#xc5;" horiz-adv-x="1443" d="M16 0l463 1434h486l462 -1434h-409l-86 299h-475l-86 -299h-355zM498 1729q0 94 64 156.5t161 62.5t161 -62.5t64 -156.5q0 -93 -64.5 -155.5t-160.5 -62.5t-160.5 62.5t-64.5 155.5zM537 569h317l-160 545zM631 1729q0 -40 26.5 -68.5t65.5 -28.5q38 0 64 28.5t26 68.5 q0 41 -26 69.5t-64 28.5q-40 0 -66 -28t-26 -70z" />
<glyph unicode="&#xc6;" horiz-adv-x="2054" d="M16 0l576 1434h1366v-279h-645v-283h553v-276h-553v-317h645v-279h-1038v299h-416l-117 -299h-371zM608 569h312v586h-82z" />
<glyph unicode="&#xc7;" horiz-adv-x="1411" d="M66 715v4q0 342 179 543.5t492 201.5q265 0 415.5 -133t188.5 -379l-358 -43q-22 154 -79.5 223.5t-160.5 69.5q-130 0 -199 -114.5t-69 -368.5v-4q0 -256 69 -370t199 -114q103 0 164.5 69.5t85.5 236.5l361 -41q-33 -246 -177 -378t-378 -147l-31 -63h16 q104 0 167 -47.5t63 -124.5q0 -84 -78 -135.5t-211 -51.5q-123 0 -233 45l34 123q94 -32 158 -32q98 0 98 53q0 49 -82 49q-37 0 -77 -14l-78 61l96 141q-267 31 -421 227t-154 513z" />
<glyph unicode="&#xc8;" horiz-adv-x="1243" d="M109 0v1434h1038v-279h-645v-283h553v-276h-553v-317h645v-279h-1038zM319 1786h345l102 -260h-248z" />
<glyph unicode="&#xc9;" horiz-adv-x="1243" d="M109 0v1434h1038v-279h-645v-283h553v-276h-553v-317h645v-279h-1038zM518 1526l103 260h344l-199 -260h-248z" />
<glyph unicode="&#xca;" horiz-adv-x="1243" d="M109 0v1434h1038v-279h-645v-283h553v-276h-553v-317h645v-279h-1038zM268 1526l230 254h288l230 -254h-256l-117 104l-119 -104h-256z" />
<glyph unicode="&#xcb;" horiz-adv-x="1243" d="M109 0v1434h1038v-279h-645v-283h553v-276h-553v-317h645v-279h-1038zM297 1536v244h270v-244h-270zM719 1536v244h268v-244h-268z" />
<glyph unicode="&#xcc;" horiz-adv-x="630" d="M-8 1786h344l102 -260h-248zM119 0v1434h393v-1434h-393z" />
<glyph unicode="&#xcd;" horiz-adv-x="630" d="M119 0v1434h393v-1434h-393zM190 1526l103 260h344l-199 -260h-248z" />
<glyph unicode="&#xce;" horiz-adv-x="630" d="M-59 1526l229 254h289l229 -254h-256l-117 104l-118 -104h-256zM119 0v1434h393v-1434h-393z" />
<glyph unicode="&#xcf;" horiz-adv-x="630" d="M-31 1536v244h271v-244h-271zM119 0v1434h393v-1434h-393zM391 1536v244h268v-244h-268z" />
<glyph unicode="&#xd0;" horiz-adv-x="1468" d="M16 627v217h101v590h583q347 0 525 -184t178 -531v-4q0 -347 -178 -531t-525 -184h-583v627h-101zM510 268h135q193 0 270.5 101.5t77.5 345.5v4q0 244 -77.5 345t-270.5 101h-135v-321h276v-217h-276v-359z" />
<glyph unicode="&#xd1;" horiz-adv-x="1452" d="M109 0v1434h372l510 -813v813h352v-1434h-354l-528 842v-842h-352zM352 1599q38 98 102.5 152.5t137.5 54.5q76 0 151 -43l41 -24q47 -27 72 -27q28 0 51 20.5t51 69.5l142 -78q-37 -98 -101.5 -152t-136.5 -54q-79 0 -151 43l-43 24q-47 27 -72 27q-28 0 -51 -20.5 t-51 -69.5z" />
<glyph unicode="&#xd2;" horiz-adv-x="1476" d="M66 715v4q0 347 182 546t491 199q308 0 490 -199.5t182 -545.5v-4q0 -347 -182 -546.5t-490 -199.5q-309 0 -491 199.5t-182 546.5zM416 1786h344l102 -260h-248zM475 715q0 -486 264 -486q262 0 262 486v4q0 485 -262 485q-264 0 -264 -485v-4z" />
<glyph unicode="&#xd3;" horiz-adv-x="1476" d="M66 715v4q0 347 182 546t491 199q308 0 490 -199.5t182 -545.5v-4q0 -347 -182 -546.5t-490 -199.5q-309 0 -491 199.5t-182 546.5zM475 715q0 -486 264 -486q262 0 262 486v4q0 485 -262 485q-264 0 -264 -485v-4zM614 1526l103 260h344l-199 -260h-248z" />
<glyph unicode="&#xd4;" horiz-adv-x="1476" d="M66 715v4q0 347 182 546t491 199q308 0 490 -199.5t182 -545.5v-4q0 -347 -182 -546.5t-490 -199.5q-309 0 -491 199.5t-182 546.5zM365 1526l229 254h289l229 -254h-256l-117 104l-118 -104h-256zM475 715q0 -486 264 -486q262 0 262 486v4q0 485 -262 485 q-264 0 -264 -485v-4z" />
<glyph unicode="&#xd5;" horiz-adv-x="1476" d="M66 715v4q0 347 182 546t491 199q308 0 490 -199.5t182 -545.5v-4q0 -347 -182 -546.5t-490 -199.5q-309 0 -491 199.5t-182 546.5zM365 1599q38 98 102 152.5t137 54.5q77 0 152 -43l41 -24q47 -27 71 -27q28 0 52 20.5t51 69.5l141 -78q-37 -98 -101.5 -152t-136.5 -54 q-79 0 -151 43l-43 24q-47 27 -72 27q-28 0 -51 -20.5t-51 -69.5zM475 715q0 -486 264 -486q262 0 262 486v4q0 485 -262 485q-264 0 -264 -485v-4z" />
<glyph unicode="&#xd6;" horiz-adv-x="1476" d="M66 715v4q0 347 182 546t491 199q308 0 490 -199.5t182 -545.5v-4q0 -347 -182 -546.5t-490 -199.5q-309 0 -491 199.5t-182 546.5zM393 1536v244h271v-244h-271zM475 715q0 -486 264 -486q262 0 262 486v4q0 485 -262 485q-264 0 -264 -485v-4zM815 1536v244h268v-244 h-268z" />
<glyph unicode="&#xd7;" horiz-adv-x="1234" d="M123 371l315 315l-315 315l174 175l315 -316l318 316l172 -175l-316 -315l316 -315l-172 -174l-318 315l-315 -315z" />
<glyph unicode="&#xd8;" horiz-adv-x="1476" d="M66 715v4q0 347 182 546t491 199q208 0 357 -90l96 137l131 -90l-102 -147q190 -203 190 -555v-4q0 -347 -182 -546.5t-490 -199.5q-205 0 -358 90l-94 -137l-133 90l102 148q-190 203 -190 555zM475 715q0 -113 17 -213l423 610q-63 90 -176 90q-264 0 -264 -483v-4z M561 319q65 -88 178 -88q262 0 262 484v4q0 119 -16 213z" />
<glyph unicode="&#xd9;" horiz-adv-x="1411" d="M102 571v863h394v-920q0 -256 217 -256t217 256v920h379v-863q0 -285 -152.5 -443.5t-449.5 -158.5q-299 0 -452 158t-153 444zM383 1786h344l102 -260h-247z" />
<glyph unicode="&#xda;" horiz-adv-x="1411" d="M102 571v863h394v-920q0 -256 217 -256t217 256v920h379v-863q0 -285 -152.5 -443.5t-449.5 -158.5q-299 0 -452 158t-153 444zM580 1526l102 260h344l-199 -260h-247z" />
<glyph unicode="&#xdb;" horiz-adv-x="1411" d="M102 571v863h394v-920q0 -256 217 -256t217 256v920h379v-863q0 -285 -152.5 -443.5t-449.5 -158.5q-299 0 -452 158t-153 444zM330 1526l229 254h289l229 -254h-256l-116 104l-119 -104h-256z" />
<glyph unicode="&#xdc;" horiz-adv-x="1411" d="M102 571v863h394v-920q0 -256 217 -256t217 256v920h379v-863q0 -285 -152.5 -443.5t-449.5 -158.5q-299 0 -452 158t-153 444zM358 1536v244h271v-244h-271zM780 1536v244h269v-244h-269z" />
<glyph unicode="&#xdd;" horiz-adv-x="1380" d="M23 1434h423l273 -609l274 609h363l-469 -969v-465h-393v465zM565 1526l103 260h344l-199 -260h-248z" />
<glyph unicode="&#xde;" horiz-adv-x="1378" d="M109 0v1434h393v-232h262q272 0 420.5 -126t148.5 -353q0 -226 -148.5 -351.5t-420.5 -125.5h-262v-246h-393zM502 508h192q230 0 230 215q0 217 -230 217h-192v-432z" />
<glyph unicode="&#xdf;" horiz-adv-x="1218" d="M88 0v987q0 228 130 352.5t384 124.5q233 0 365.5 -104t132.5 -273v-6q0 -103 -53.5 -178.5t-159.5 -109.5q135 -40 209.5 -138.5t74.5 -236.5v-12q0 -206 -126 -316t-347 -110q-91 0 -157 12v207q35 -6 90 -6q166 0 166 215v12q0 116 -50.5 170.5t-150.5 54.5h-55v227 h49q71 0 106 43t35 142v10q0 99 -35 140.5t-106 41.5q-73 0 -107 -51t-34 -188v-1010h-361z" />
<glyph unicode="&#xe0;" horiz-adv-x="1122" d="M35 289q0 65 15 114t56 94t109 74.5t177 49t257 24.5l35 2v39q0 145 -131 145q-56 0 -90 -30.5t-53 -93.5l-320 38q31 147 149 236.5t312 89.5q252 0 372.5 -113.5t120.5 -341.5v-616h-352v154q-86 -174 -315 -174q-150 0 -246 84.5t-96 224.5zM233 1430h345l114 -291 h-250zM397 311q0 -55 35 -86.5t88 -31.5q75 0 119.5 49.5t44.5 140.5v92h-6q-110 -8 -174 -32t-85.5 -55t-21.5 -77z" />
<glyph unicode="&#xe1;" horiz-adv-x="1122" d="M35 289q0 65 15 114t56 94t109 74.5t177 49t257 24.5l35 2v39q0 145 -131 145q-56 0 -90 -30.5t-53 -93.5l-320 38q31 147 149 236.5t312 89.5q252 0 372.5 -113.5t120.5 -341.5v-616h-352v154q-86 -174 -315 -174q-150 0 -246 84.5t-96 224.5zM397 311q0 -55 35 -86.5 t88 -31.5q75 0 119.5 49.5t44.5 140.5v92h-6q-110 -8 -174 -32t-85.5 -55t-21.5 -77zM434 1139l113 291h346l-211 -291h-248z" />
<glyph unicode="&#xe2;" horiz-adv-x="1122" d="M35 289q0 65 15 114t56 94t109 74.5t177 49t257 24.5l35 2v39q0 145 -131 145q-56 0 -90 -30.5t-53 -93.5l-320 38q31 147 149 236.5t312 89.5q252 0 372.5 -113.5t120.5 -341.5v-616h-352v154q-86 -174 -315 -174q-150 0 -246 84.5t-96 224.5zM190 1141l230 286h289 l229 -286h-256l-117 127l-119 -127h-256zM397 311q0 -55 35 -86.5t88 -31.5q75 0 119.5 49.5t44.5 140.5v92h-6q-110 -8 -174 -32t-85.5 -55t-21.5 -77z" />
<glyph unicode="&#xe3;" horiz-adv-x="1122" d="M35 289q0 65 15 114t56 94t109 74.5t177 49t257 24.5l35 2v39q0 145 -131 145q-56 0 -90 -30.5t-53 -93.5l-320 38q31 147 149 236.5t312 89.5q252 0 372.5 -113.5t120.5 -341.5v-616h-352v154q-86 -174 -315 -174q-150 0 -246 84.5t-96 224.5zM190 1229q36 97 101 152 t137 55q80 0 152 -43l41 -25q51 -29 73 -29q27 0 49.5 21t51.5 70l141 -89q-36 -97 -101 -151.5t-137 -54.5q-76 0 -151 43l-41 24q-47 27 -74 27t-50 -20.5t-50 -69.5zM397 311q0 -55 35 -86.5t88 -31.5q75 0 119.5 49.5t44.5 140.5v92h-6q-110 -8 -174 -32t-85.5 -55 t-21.5 -77z" />
<glyph unicode="&#xe4;" horiz-adv-x="1122" d="M35 289q0 65 15 114t56 94t109 74.5t177 49t257 24.5l35 2v39q0 145 -131 145q-56 0 -90 -30.5t-53 -93.5l-320 38q31 147 149 236.5t312 89.5q252 0 372.5 -113.5t120.5 -341.5v-616h-352v154q-86 -174 -315 -174q-150 0 -246 84.5t-96 224.5zM238 1153v264h268v-264 h-268zM397 311q0 -55 35 -86.5t88 -31.5q75 0 119.5 49.5t44.5 140.5v92h-6q-110 -8 -174 -32t-85.5 -55t-21.5 -77zM621 1153v264h268v-264h-268z" />
<glyph unicode="&#xe5;" horiz-adv-x="1122" d="M35 289q0 65 15 114t56 94t109 74.5t177 49t257 24.5l35 2v39q0 145 -131 145q-56 0 -90 -30.5t-53 -93.5l-320 38q31 147 149 236.5t312 89.5q252 0 372.5 -113.5t120.5 -341.5v-616h-352v154q-86 -174 -315 -174q-150 0 -246 84.5t-96 224.5zM338 1337q0 94 64 155.5 t161 61.5t161 -61.5t64 -155.5t-64 -156.5t-161 -62.5t-161 62.5t-64 156.5zM397 311q0 -55 35 -86.5t88 -31.5q75 0 119.5 49.5t44.5 140.5v92h-6q-110 -8 -174 -32t-85.5 -55t-21.5 -77zM471 1337q0 -42 26 -70t66 -28t66 28t26 70q0 41 -26 69t-66 28t-66 -28t-26 -69z " />
<glyph unicode="&#xe6;" horiz-adv-x="1781" d="M35 289q0 64 16 111.5t57 90t109.5 70.5t176.5 46.5t255 23.5l35 2v53q0 145 -131 145q-56 0 -90 -30.5t-53 -93.5l-320 38q31 146 147.5 236t305.5 90q227 0 340 -147q114 147 358 147q227 0 360.5 -147t133.5 -404v-65h-688q14 -271 206 -271q126 0 226 166l250 -98 q-59 -130 -189 -206.5t-299 -76.5q-142 0 -249.5 47t-164.5 134q-62 -80 -169 -125t-252 -45q-170 0 -270.5 83.5t-100.5 225.5zM397 311q0 -55 35 -86.5t88 -31.5q75 0 119.5 49.5t44.5 140.5v76h-6q-111 -8 -174 -28t-85 -48t-22 -72zM1049 633h325q-7 125 -45 177 t-112 52q-146 0 -168 -229z" />
<glyph unicode="&#xe7;" horiz-adv-x="1142" d="M47 508v24q0 237 151 388t392 151q215 0 345 -103.5t155 -289.5l-318 -37q-19 110 -59 158.5t-111 48.5q-89 0 -134.5 -72.5t-45.5 -234.5v-39q0 -163 45 -236t135 -73q74 0 115 49t61 172l322 -37q-23 -181 -134 -284t-302 -120l-31 -65h16q104 0 167 -47.5t63 -124.5 q0 -84 -78 -135.5t-211 -51.5q-124 0 -234 45l35 123q94 -32 158 -32q98 0 98 53q0 49 -82 49q-38 0 -78 -14l-77 61l96 141q-202 25 -330.5 169t-128.5 364z" />
<glyph unicode="&#xe8;" horiz-adv-x="1146" d="M47 508v24q0 236 150.5 387.5t380.5 151.5q250 0 386 -145.5t136 -405.5v-65h-688q14 -271 206 -271q126 0 226 166l250 -98q-59 -130 -189 -206.5t-299 -76.5q-251 0 -405 146.5t-154 392.5zM244 1430h344l114 -291h-249zM414 633h325q-7 126 -44.5 177.5t-112.5 51.5 q-146 0 -168 -229z" />
<glyph unicode="&#xe9;" horiz-adv-x="1146" d="M47 508v24q0 236 150.5 387.5t380.5 151.5q250 0 386 -145.5t136 -405.5v-65h-688q14 -271 206 -271q126 0 226 166l250 -98q-59 -130 -189 -206.5t-299 -76.5q-251 0 -405 146.5t-154 392.5zM414 633h325q-7 126 -44.5 177.5t-112.5 51.5q-146 0 -168 -229zM444 1139 l113 291h346l-211 -291h-248z" />
<glyph unicode="&#xea;" horiz-adv-x="1146" d="M47 508v24q0 236 150.5 387.5t380.5 151.5q250 0 386 -145.5t136 -405.5v-65h-688q14 -271 206 -271q126 0 226 166l250 -98q-59 -130 -189 -206.5t-299 -76.5q-251 0 -405 146.5t-154 392.5zM199 1141l229 286h289l229 -286h-256l-117 127l-118 -127h-256zM414 633h325 q-7 126 -44.5 177.5t-112.5 51.5q-146 0 -168 -229z" />
<glyph unicode="&#xeb;" horiz-adv-x="1146" d="M47 508v24q0 236 150.5 387.5t380.5 151.5q250 0 386 -145.5t136 -405.5v-65h-688q14 -271 206 -271q126 0 226 166l250 -98q-59 -130 -189 -206.5t-299 -76.5q-251 0 -405 146.5t-154 392.5zM248 1153v264h268v-264h-268zM414 633h325q-7 126 -44.5 177.5t-112.5 51.5 q-146 0 -168 -229zM631 1153v264h268v-264h-268z" />
<glyph unicode="&#xec;" horiz-adv-x="557" d="M-51 1430h344l115 -291h-250zM98 0v1040h361v-1040h-361z" />
<glyph unicode="&#xed;" horiz-adv-x="557" d="M98 0v1040h361v-1040h-361zM150 1139l112 291h346l-211 -291h-247z" />
<glyph unicode="&#xee;" horiz-adv-x="557" d="M-94 1141l229 286h289l229 -286h-256l-116 127l-119 -127h-256zM98 0v1040h361v-1040h-361z" />
<glyph unicode="&#xef;" horiz-adv-x="557" d="M-47 1153v264h268v-264h-268zM98 0v1040h361v-1040h-361zM336 1153v264h268v-264h-268z" />
<glyph unicode="&#xf0;" horiz-adv-x="1191" d="M47 508v18q0 230 115.5 380.5t300.5 150.5q127 0 215 -78q-52 91 -131 195l-279 -64l-28 127l215 49q-57 66 -133 148h391q12 -11 69 -74l187 43l28 -127l-120 -27q268 -345 268 -698v-43q0 -155 -66.5 -277t-192 -192t-290.5 -70t-290.5 70t-192 192t-66.5 277zM422 502 q0 -318 174 -318t174 318v24q0 158 -47 238t-127 80q-174 0 -174 -318v-24z" />
<glyph unicode="&#xf1;" d="M88 0v1040h361v-180q95 211 315 211q167 0 250.5 -100.5t83.5 -268.5v-702h-361v645q0 156 -129 156q-76 0 -117.5 -51t-41.5 -142v-608h-361zM242 1229q36 97 100.5 152t136.5 55q80 0 152 -43l41 -25q51 -29 73 -29q27 0 49.5 21t51.5 70l141 -89 q-36 -97 -100.5 -151.5t-136.5 -54.5q-77 0 -152 43l-41 24q-47 27 -74 27t-50 -20.5t-50 -69.5z" />
<glyph unicode="&#xf2;" horiz-adv-x="1191" d="M47 508v24q0 155 66.5 277t192 192t290.5 70t290.5 -70t192 -192t66.5 -277v-24q0 -155 -66.5 -277t-192 -192t-290.5 -70t-290.5 70t-192 192t-66.5 277zM266 1430h344l115 -291h-250zM422 502q0 -318 174 -318t174 318v39q0 317 -174 317t-174 -317v-39z" />
<glyph unicode="&#xf3;" horiz-adv-x="1191" d="M47 508v24q0 155 66.5 277t192 192t290.5 70t290.5 -70t192 -192t66.5 -277v-24q0 -155 -66.5 -277t-192 -192t-290.5 -70t-290.5 70t-192 192t-66.5 277zM422 502q0 -318 174 -318t174 318v39q0 317 -174 317t-174 -317v-39zM467 1139l113 291h346l-211 -291h-248z" />
<glyph unicode="&#xf4;" horiz-adv-x="1191" d="M47 508v24q0 155 66.5 277t192 192t290.5 70t290.5 -70t192 -192t66.5 -277v-24q0 -155 -66.5 -277t-192 -192t-290.5 -70t-290.5 70t-192 192t-66.5 277zM221 1141l230 286h288l230 -286h-256l-117 127l-119 -127h-256zM422 502q0 -318 174 -318t174 318v39 q0 317 -174 317t-174 -317v-39z" />
<glyph unicode="&#xf5;" horiz-adv-x="1191" d="M47 508v24q0 155 66.5 277t192 192t290.5 70t290.5 -70t192 -192t66.5 -277v-24q0 -155 -66.5 -277t-192 -192t-290.5 -70t-290.5 70t-192 192t-66.5 277zM223 1229q36 97 101 152t137 55q79 0 151 -43l41 -25q51 -29 74 -29q27 0 49 21t51 70l142 -89 q-36 -97 -101 -151.5t-137 -54.5q-76 0 -151 43l-41 24q-47 27 -74 27t-50 -20.5t-50 -69.5zM422 502q0 -318 174 -318t174 318v39q0 317 -174 317t-174 -317v-39z" />
<glyph unicode="&#xf6;" horiz-adv-x="1191" d="M47 508v24q0 155 66.5 277t192 192t290.5 70t290.5 -70t192 -192t66.5 -277v-24q0 -155 -66.5 -277t-192 -192t-290.5 -70t-290.5 70t-192 192t-66.5 277zM270 1153v264h269v-264h-269zM422 502q0 -318 174 -318t174 318v39q0 317 -174 317t-174 -317v-39zM653 1153v264 h269v-264h-269z" />
<glyph unicode="&#xf7;" horiz-adv-x="1234" d="M131 565v240h973v-240h-973zM483 150v280h267v-280h-267zM483 942v279h267v-279h-267z" />
<glyph unicode="&#xf8;" horiz-adv-x="1191" d="M47 508v24q0 155 66.5 277t192 192t290.5 70q156 0 276 -63l82 110l107 -76l-80 -108q79 -73 121.5 -176.5t42.5 -225.5v-24q0 -155 -66.5 -277t-192 -192t-290.5 -70q-154 0 -279 64l-79 -111l-107 78l80 109q-79 73 -121.5 175t-42.5 224zM416 500q0 -58 6 -105 l297 404q-44 61 -123 61q-180 0 -180 -321v-39zM471 242q49 -64 125 -64q178 0 178 322v39q0 57 -6 106z" />
<glyph unicode="&#xf9;" d="M78 338v702h360v-645q0 -155 129 -155q76 0 118 50.5t42 141.5v608h360v-1040h-360v182q-96 -213 -315 -213q-167 0 -250.5 100.5t-83.5 268.5zM252 1430h344l115 -291h-250z" />
<glyph unicode="&#xfa;" d="M78 338v702h360v-645q0 -155 129 -155q76 0 118 50.5t42 141.5v608h360v-1040h-360v182q-96 -213 -315 -213q-167 0 -250.5 100.5t-83.5 268.5zM455 1139l112 291h346l-211 -291h-247z" />
<glyph unicode="&#xfb;" d="M78 338v702h360v-645q0 -155 129 -155q76 0 118 50.5t42 141.5v608h360v-1040h-360v182q-96 -213 -315 -213q-167 0 -250.5 100.5t-83.5 268.5zM209 1141l229 286h289l229 -286h-256l-116 127l-119 -127h-256z" />
<glyph unicode="&#xfc;" d="M78 338v702h360v-645q0 -155 129 -155q76 0 118 50.5t42 141.5v608h360v-1040h-360v182q-96 -213 -315 -213q-167 0 -250.5 100.5t-83.5 268.5zM256 1153v264h268v-264h-268zM639 1153v264h268v-264h-268z" />
<glyph unicode="&#xfd;" horiz-adv-x="1132" d="M27 1040h383l202 -737l172 737h324l-332 -1110q-54 -183 -157 -259.5t-293 -76.5q-84 0 -203 21v227q74 -12 158 -12q64 0 97 18t52 64v2zM467 1139l113 291h346l-211 -291h-248z" />
<glyph unicode="&#xfe;" horiz-adv-x="1210" d="M88 -389v1823h361v-551q40 87 119 137.5t180 50.5q185 0 300 -150t115 -380v-39q0 -232 -115 -382.5t-300 -150.5q-101 0 -180 50.5t-119 138.5v-547h-361zM440 502q0 -160 47 -239t127 -79q174 0 174 318v39q0 317 -174 317q-80 0 -127 -79.5t-47 -237.5v-39z" />
<glyph unicode="&#xff;" horiz-adv-x="1132" d="M27 1040h383l202 -737l172 737h324l-332 -1110q-54 -183 -157 -259.5t-293 -76.5q-84 0 -203 21v227q74 -12 158 -12q64 0 97 18t52 64v2zM268 1153v264h269v-264h-269zM651 1153v264h269v-264h-269z" />
<glyph unicode="&#x152;" horiz-adv-x="2017" d="M66 715v4q0 347 177.5 531t524.5 184h1151v-279h-600v-283h508v-276h-508v-317h600v-279h-1151q-347 0 -524.5 184t-177.5 531zM475 715q0 -244 77.5 -345.5t270.5 -101.5h103v897h-103q-193 0 -270.5 -101t-77.5 -345v-4z" />
<glyph unicode="&#x153;" horiz-adv-x="1869" d="M47 508v24q0 155 66.5 277t192 192t290.5 70q237 0 362 -153q131 153 357 153q238 0 373 -146.5t135 -404.5v-65h-688q14 -271 206 -271q126 0 226 166l252 -98q-61 -130 -191 -206.5t-297 -76.5q-238 0 -370 154q-129 -154 -365 -154q-165 0 -290.5 70t-192 192 t-66.5 277zM422 502q0 -318 174 -318t174 318v39q0 317 -174 317t-174 -317v-39zM1137 633h325q-7 126 -44.5 177.5t-112.5 51.5q-146 0 -168 -229z" />
<glyph unicode="&#x178;" horiz-adv-x="1380" d="M23 1434h423l273 -609l274 609h363l-469 -969v-465h-393v465zM344 1536v244h270v-244h-270zM766 1536v244h268v-244h-268z" />
<glyph unicode="&#x2c6;" horiz-adv-x="1157" d="M205 1141l229 286h289l229 -286h-256l-116 127l-119 -127h-256z" />
<glyph unicode="&#x2dc;" horiz-adv-x="1155" d="M205 1229q36 97 100.5 152t136.5 55q80 0 152 -43l41 -25q51 -29 74 -29q27 0 49 21t51 70l141 -89q-36 -97 -100.5 -151.5t-136.5 -54.5q-77 0 -152 43l-41 24q-47 27 -74 27t-50 -20.5t-50 -69.5z" />
<glyph unicode="&#x2000;" horiz-adv-x="974" />
<glyph unicode="&#x2001;" horiz-adv-x="1948" />
<glyph unicode="&#x2002;" horiz-adv-x="974" />
<glyph unicode="&#x2003;" horiz-adv-x="1948" />
<glyph unicode="&#x2004;" horiz-adv-x="649" />
<glyph unicode="&#x2005;" horiz-adv-x="487" />
<glyph unicode="&#x2006;" horiz-adv-x="324" />
<glyph unicode="&#x2007;" horiz-adv-x="324" />
<glyph unicode="&#x2008;" horiz-adv-x="243" />
<glyph unicode="&#x2009;" horiz-adv-x="389" />
<glyph unicode="&#x200a;" horiz-adv-x="108" />
<glyph unicode="&#x2010;" horiz-adv-x="831" d="M84 563v326h664v-326h-664z" />
<glyph unicode="&#x2011;" horiz-adv-x="831" d="M84 563v326h664v-326h-664z" />
<glyph unicode="&#x2012;" horiz-adv-x="831" d="M84 563v326h664v-326h-664z" />
<glyph unicode="&#x2013;" horiz-adv-x="1306" d="M84 563v326h1139v-326h-1139z" />
<glyph unicode="&#x2014;" horiz-adv-x="1746" d="M84 563v326h1579v-326h-1579z" />
<glyph unicode="&#x2018;" horiz-adv-x="524" d="M92 836v327l144 271h184l-113 -271h125v-327h-340z" />
<glyph unicode="&#x2019;" horiz-adv-x="524" d="M92 1106v328h340v-328l-143 -270h-185l111 270h-123z" />
<glyph unicode="&#x201a;" horiz-adv-x="524" d="M92 0v328h340v-328l-143 -270h-185l111 270h-123z" />
<glyph unicode="&#x201c;" horiz-adv-x="970" d="M92 836v327l144 271h184l-113 -271h125v-327h-340zM539 836v327l143 271h184l-112 -271h125v-327h-340z" />
<glyph unicode="&#x201d;" horiz-adv-x="970" d="M92 1106v328h340v-328l-143 -270h-185l111 270h-123zM539 1106v328h340v-328l-144 -270h-184l113 270h-125z" />
<glyph unicode="&#x201e;" horiz-adv-x="970" d="M92 0v328h340v-328l-143 -270h-185l111 270h-123zM539 0v328h340v-328l-144 -270h-184l113 270h-125z" />
<glyph unicode="&#x2022;" horiz-adv-x="880" d="M92 717q0 151 98.5 249.5t249.5 98.5t249.5 -98.5t98.5 -249.5q0 -152 -98.5 -251t-249.5 -99t-249.5 99t-98.5 251z" />
<glyph unicode="&#x2026;" horiz-adv-x="1687" d="M121 0v358h362v-358h-362zM664 0v358h360v-358h-360zM1204 0v358h361v-358h-361z" />
<glyph unicode="&#x202f;" horiz-adv-x="389" />
<glyph unicode="&#x2039;" horiz-adv-x="731" d="M82 606l250 416h301l-250 -416l250 -418h-301z" />
<glyph unicode="&#x203a;" horiz-adv-x="731" d="M96 188l252 418l-252 416h303l250 -416l-250 -418h-303z" />
<glyph unicode="&#x205f;" horiz-adv-x="487" />
<glyph unicode="&#x20ac;" horiz-adv-x="1355" d="M31 451v186h125v35v20v43h-125v187h149q52 224 200.5 348.5t362.5 124.5q231 0 373 -120t170 -329l-328 -49q-41 258 -202 258q-148 0 -191 -233h260v-187h-278v-43v-20v-35h278v-186h-262q43 -242 193 -242q76 0 131 67t76 207l329 -47q-29 -221 -171.5 -344 t-377.5 -123q-216 0 -365 127t-200 355h-147z" />
<glyph unicode="&#x2122;" horiz-adv-x="1417" d="M76 1286v148h487v-148h-153v-430h-179v430h-155zM621 856v578h260l73 -383l74 383h252v-578h-166v430l-90 -430h-160l-90 430v-430h-153z" />
<glyph unicode="&#x25fc;" horiz-adv-x="1044" d="M0 0v1044h1044v-1044h-1044z" />
<glyph unicode="&#xfb01;" horiz-adv-x="1318" d="M18 815v225h146v47q0 182 94 271.5t295 89.5q111 0 184 -18v-222q-47 6 -104 6q-59 0 -84 -22t-25 -76v-76h213v-225h-213v-815h-360v815h-146zM858 0v1040h361v-1040h-361zM858 1147v276h361v-276h-361z" />
<glyph unicode="&#xfb02;" horiz-adv-x="1318" d="M18 815v225h146v47q0 182 94 271.5t295 89.5q111 0 184 -18v-222q-47 6 -104 6q-59 0 -84 -22t-25 -76v-76h213v-225h-213v-815h-360v815h-146zM858 0v1434h361v-1434h-361z" />
</font>
</defs>
</svg>
