<?xml version="1.0" standalone="no"?>
<!DOCTYPE svg PUBLIC "-//W3C//DTD SVG 1.1//EN" "http://www.w3.org/Graphics/SVG/1.1/DTD/svg11.dtd" >
<svg xmlns="http://www.w3.org/2000/svg">
<metadata></metadata>
<defs>
<font id="baltoultra_italic" horiz-adv-x="1353" >
<font-face units-per-em="2048" ascent="1659" descent="-389" />
<missing-glyph horiz-adv-x="378" />
<glyph horiz-adv-x="0" />
<glyph horiz-adv-x="682" />
<glyph unicode=" "  horiz-adv-x="378" />
<glyph unicode="&#x09;" horiz-adv-x="378" />
<glyph unicode="&#xa0;" horiz-adv-x="378" />
<glyph unicode="!" horiz-adv-x="768" d="M-25 0l93 438h530l-92 -438h-531zM137 932l107 502h604l-107 -502l-194 -424h-397z" />
<glyph unicode="&#x22;" horiz-adv-x="1062" d="M96 756l117 678h436l-174 -678h-379zM621 756l116 678h437l-175 -678h-378z" />
<glyph unicode="#" horiz-adv-x="1368" d="M-55 274l110 301h168l78 213h-170l109 302h170l98 274h348l-98 -274h151l99 274h348l-99 -274h168l-108 -302h-168l-78 -213h170l-111 -301h-167l-99 -274h-348l98 274h-151l-98 -274h-349l99 274h-170zM571 575h152l78 213h-152z" />
<glyph unicode="$" horiz-adv-x="1355" d="M-57 133l172 356q102 -68 234 -111.5t226 -43.5q80 0 80 41q0 15 -14.5 26.5t-58.5 24.5l-162 47q-187 55 -269.5 147.5t-82.5 245.5q0 89 31 170t93.5 150t165 119.5t236.5 72.5l49 230h453l-52 -236q120 -25 295 -110l-178 -359q-232 139 -391 139q-94 0 -94 -32 q0 -14 13.5 -22.5t53.5 -20.5l162 -47q207 -60 298 -157.5t91 -242.5q0 -204 -145.5 -349.5t-398.5 -186.5l-48 -228h-452l49 242q-162 36 -356 135z" />
<glyph unicode="%" horiz-adv-x="1808" d="M109 969q0 116 66.5 215t173.5 155t224 56q187 0 287.5 -91t100.5 -249q0 -115 -67 -214.5t-174 -155.5t-224 -56q-187 0 -287 91t-100 249zM121 0l1343 1364h228l-1344 -1364h-227zM459 918q0 -34 12 -52t31 -18q34 0 61 61q16 37 31.5 97.5t15.5 99.5q0 34 -12 52 t-31 18q-33 0 -61 -62q-17 -37 -32 -97t-15 -99zM852 309q0 115 67 214.5t174 155.5t224 56q187 0 287 -91t100 -249q0 -115 -67 -214.5t-174 -155.5t-224 -56q-187 0 -287 91t-100 249zM1202 258q0 -34 12 -52t31 -18q34 0 62 62q17 37 32 97t15 99q0 34 -12 52t-31 18 q-35 0 -62 -61q-16 -37 -31.5 -97.5t-15.5 -99.5z" />
<glyph unicode="&#x26;" horiz-adv-x="1687" d="M-33 358q0 158 91.5 264t291.5 166q-63 129 -63 238q0 203 153 320.5t437 117.5q263 0 393.5 -91.5t130.5 -242.5q0 -113 -91 -213.5t-286 -173.5q25 -19 145 -104q53 88 91 184l378 -90q-56 -150 -159 -284q34 -11 92 -11h10l-92 -438h-45q-107 0 -192.5 21.5 t-186.5 76.5q-249 -129 -520 -129q-279 0 -428.5 104t-149.5 285zM502 436q0 -68 43 -105.5t127 -37.5q38 0 86 10q-132 108 -232 225q-24 -43 -24 -92zM780 1038q0 -55 47 -118q58 31 78.5 67.5t20.5 81.5q0 32 -18 51t-50 19q-78 0 -78 -101z" />
<glyph unicode="'" horiz-adv-x="538" d="M96 756l117 678h436l-174 -678h-379z" />
<glyph unicode="(" horiz-adv-x="929" d="M35 418q0 302 156 599.5t442 538.5h465q-266 -266 -402.5 -570.5t-136.5 -586.5q0 -187 39.5 -365t110.5 -304h-465q-209 308 -209 688z" />
<glyph unicode=")" horiz-adv-x="929" d="M-180 -270q266 266 402 570.5t136 586.5q0 187 -39 365t-110 304h465q209 -308 209 -688q0 -302 -156 -599.5t-442 -538.5h-465z" />
<glyph unicode="*" horiz-adv-x="839" d="M96 1024l176 350l158 -166l-57 226h389l-162 -246l242 186l57 -368l-262 26l207 -166l-338 -188l-27 252l-106 -252l-273 227l260 133z" />
<glyph unicode="+" horiz-adv-x="1269" d="M88 500l76 354h313l72 334h389l-72 -334h318l-76 -354h-315l-72 -336h-389l71 336h-315z" />
<glyph unicode="," horiz-adv-x="595" d="M-160 -313l240 313h-172l100 469h492l-101 -469l-297 -313h-262z" />
<glyph unicode="-" horiz-adv-x="798" d="M18 524l82 383h697l-82 -383h-697z" />
<glyph unicode="." horiz-adv-x="593" d="M-92 0l100 469h492l-101 -469h-491z" />
<glyph unicode="/" horiz-adv-x="1177" d="M-242 -287l1119 1884h487l-1118 -1884h-488z" />
<glyph unicode="0" horiz-adv-x="1470" d="M8 508q0 263 102 464t291.5 312t440.5 111q289 0 456.5 -149.5t167.5 -389.5q0 -263 -101.5 -464t-291 -312t-440.5 -111q-289 0 -457 149.5t-168 389.5zM616 393q0 -74 46 -74q20 0 37.5 18t37.5 69q43 108 82 288.5t39 280.5q0 74 -45 74q-21 0 -38.5 -18t-37.5 -68 q-43 -108 -82 -289t-39 -281z" />
<glyph unicode="1" horiz-adv-x="1204" d="M-72 0l78 362h246l110 521q-120 -49 -264 -84l84 399q209 69 404 166h485l-213 -1002h225l-77 -362h-1078z" />
<glyph unicode="2" horiz-adv-x="1312" d="M-98 0l92 430l368 174q120 57 199.5 108t122 98.5t58.5 89t16 91.5q0 58 -39 58q-61 0 -105 -220l-557 35q55 235 245.5 383t475.5 148q277 0 423.5 -105t146.5 -274q0 -87 -35.5 -168t-111.5 -159.5t-208.5 -146t-312.5 -114.5h534l-90 -428h-1222z" />
<glyph unicode="3" horiz-adv-x="1378" d="M-16 401q0 39 6 80l573 27q-14 -66 -14 -133q0 -76 55 -76q36 0 62 47.5t26 122.5q0 50 -15.5 70t-60.5 20h-198l61 293h191q110 0 110 160q0 53 -37 53q-29 0 -50.5 -38.5t-39.5 -131.5l-557 41q20 97 73 178.5t138 145t211.5 99.5t282.5 36q306 0 454 -97t148 -254 q0 -112 -85 -199.5t-251 -127.5q127 -37 183.5 -109.5t56.5 -163.5q0 -97 -47.5 -182.5t-135.5 -151t-224.5 -103.5t-303.5 -38q-312 0 -462 113t-150 319z" />
<glyph unicode="4" horiz-adv-x="1402" d="M-66 268l80 375l635 721h744l-150 -705h131l-82 -391h-133l-57 -268h-606l57 268h-619zM479 659h158l57 275z" />
<glyph unicode="5" horiz-adv-x="1333" d="M-29 367q0 35 6 75l568 35q-8 -52 -8 -98q0 -64 43 -64q34 0 58 59t24 146q0 60 -37 60q-41 0 -66 -64l-526 55l215 793h1106l-86 -403h-658l-47 -181q145 135 316 135q192 0 293.5 -99.5t101.5 -291.5q0 -107 -46.5 -205.5t-131.5 -177t-217.5 -125.5t-292.5 -47 q-297 0 -456 104.5t-159 293.5z" />
<glyph unicode="6" horiz-adv-x="1417" d="M8 508q0 200 61 367t169 280.5t259 176.5t328 63q280 0 431 -101t151 -272q0 -29 -2 -43l-574 -35q7 40 7 55q0 50 -39 50q-76 0 -142 -287q80 75 165 106t194 31q114 0 196 -50t121 -132.5t39 -188.5q0 -112 -52.5 -214t-145 -178.5t-227.5 -121.5t-292 -45 q-311 0 -479 144.5t-168 394.5zM598 367q0 -68 47 -68q38 0 68 58.5t30 144.5q0 67 -47 67q-38 0 -68 -58t-30 -144z" />
<glyph unicode="7" horiz-adv-x="1210" d="M76 930l92 434h1169l-96 -446q-195 -118 -313.5 -324t-204.5 -594h-631q58 287 190 513t371 417h-577z" />
<glyph unicode="8" horiz-adv-x="1429" d="M-47 360q0 129 87 219t267 132q-88 47 -133 116.5t-45 153.5q0 64 26 123.5t82 112.5t135.5 92.5t193.5 62.5t249 23q295 0 452.5 -104.5t157.5 -260.5q0 -105 -78.5 -185.5t-222.5 -123.5q117 -46 175.5 -123.5t58.5 -171.5q0 -201 -199.5 -329t-550.5 -128 q-169 0 -297 30t-205 84.5t-115 123.5t-38 153zM571 381q0 -35 19.5 -55.5t52.5 -20.5q44 0 74.5 40.5t30.5 96.5q0 35 -19.5 55.5t-52.5 20.5q-44 0 -74.5 -40.5t-30.5 -96.5zM682 924q0 -34 19.5 -52t52.5 -18q43 0 72.5 40.5t29.5 94.5q0 34 -19.5 52t-52.5 18 q-43 0 -72.5 -40.5t-29.5 -94.5z" />
<glyph unicode="9" horiz-adv-x="1417" d="M-18 369q0 33 2 49l575 35q-2 -14 -2 -41q0 -52 14 -74.5t45 -22.5q41 0 76 67.5t74 242.5q-149 -123 -311 -123q-193 0 -294.5 98.5t-101.5 267.5q0 82 28 158t87 143.5t144 117.5t207 79t268 29q291 0 456.5 -147.5t165.5 -391.5q0 -264 -102.5 -464.5t-294.5 -311.5 t-449 -111q-283 0 -435 106t-152 294zM682 879q0 -64 47 -64q40 0 68 55.5t28 130.5q0 64 -47 64q-40 0 -68 -55.5t-28 -130.5z" />
<glyph unicode=":" horiz-adv-x="657" d="M-61 0l100 469h491l-100 -469h-491zM57 563l101 469h491l-100 -469h-492z" />
<glyph unicode=";" horiz-adv-x="657" d="M-129 -313l240 313h-172l100 469h491l-100 -469l-297 -313h-262zM57 563l101 469h491l-100 -469h-492z" />
<glyph unicode="&#x3c;" horiz-adv-x="1269" d="M84 477l84 400l1081 348l-86 -414l-567 -149l504 -152l-84 -381z" />
<glyph unicode="=" horiz-adv-x="1269" d="M43 283l74 340h1013l-73 -340h-1014zM139 731l72 342h1014l-72 -342h-1014z" />
<glyph unicode="&#x3e;" horiz-adv-x="1269" d="M23 129l86 414l567 149l-504 152l84 381l932 -348l-84 -400z" />
<glyph unicode="?" horiz-adv-x="1409" d="M109 1016q29 99 85.5 178.5t142 141t207.5 95t271 33.5q312 0 474.5 -107.5t162.5 -297.5q0 -419 -559 -479l-16 -72h-531l82 383h264q133 0 133 137q0 64 -61 64q-64 0 -96 -113zM240 0l92 438h530l-92 -438h-530z" />
<glyph unicode="@" horiz-adv-x="1904" d="M2 408q0 135 33.5 260t95.5 232t155 194.5t208 149.5t258.5 96t302.5 34q377 0 592 -181t215 -493q0 -204 -80.5 -360t-223.5 -240t-325 -84q-103 0 -184 43.5t-107 118.5q-104 -162 -278 -162q-132 0 -223 110t-91 298q0 154 59 287.5t158 211.5t213 78q76 0 139.5 -39 t96.5 -110l24 117h480l-138 -637q-9 -42 2.5 -61t45.5 -19q45 0 93.5 55t83.5 161t35 232q0 480 -587 480q-198 0 -357 -59t-262.5 -163.5t-159 -245t-55.5 -304.5q0 -566 600 -566q187 0 441 62l36 -174q-89 -31 -233.5 -55.5t-243.5 -24.5q-180 0 -329.5 49.5t-259 143 t-170 238.5t-60.5 327zM815 342q0 -63 35 -63q32 0 51 57q25 75 46.5 184.5t21.5 155.5q0 63 -35 63q-32 0 -51 -57q-25 -75 -46.5 -184.5t-21.5 -155.5z" />
<glyph unicode="A" horiz-adv-x="1556" d="M-135 0l676 1434h798l66 -1434h-635l2 195h-295l-82 -195h-530zM627 553h147l2 354z" />
<glyph unicode="B" horiz-adv-x="1511" d="M-84 0l305 1434h854q239 0 354 -88.5t115 -245.5q0 -140 -114.5 -239.5t-301.5 -121.5q314 -40 314 -288q0 -92 -39 -172.5t-114 -143.5t-196.5 -99t-275.5 -36h-901zM621 332h63q135 0 135 147q0 44 -24 63t-78 19h-47zM739 893h56q133 0 133 133q0 40 -23.5 58 t-75.5 18h-45z" />
<glyph unicode="C" horiz-adv-x="1503" d="M18 567q0 192 62 357.5t173 284.5t274 187t358 68q316 0 475.5 -153.5t159.5 -440.5l-586 -36q8 85 8 137q0 41 -5 61q-11 46 -58 45q-36 0 -58 -24t-45 -82q-39 -98 -78 -275t-39 -252q0 -88 66 -88q50 0 88 53.5t74 200.5l579 -37q-141 -604 -811 -604 q-298 0 -467.5 164t-169.5 434z" />
<glyph unicode="D" horiz-adv-x="1536" d="M-84 0l305 1434h721q301 0 448.5 -149.5t147.5 -418.5q0 -130 -31 -253t-98.5 -235t-164 -195.5t-237.5 -133t-309 -49.5h-782zM631 373h39q47 0 77 24t50 82q36 105 68 257t32 216q0 62 -22 85.5t-74 23.5h-25z" />
<glyph unicode="E" horiz-adv-x="1286" d="M-84 0l305 1434h1186l-84 -398h-551l-24 -112h454l-84 -392h-454l-29 -135h551l-84 -397h-1186z" />
<glyph unicode="F" horiz-adv-x="1267" d="M-84 0l305 1434h1180l-84 -398h-545l-41 -196h461l-82 -391h-463l-96 -449h-635z" />
<glyph unicode="G" horiz-adv-x="1515" d="M10 465q0 162 34 309.5t104.5 273.5t171.5 218.5t243 145t311 52.5q623 0 635 -510l-569 -16q-1 74 -19 106.5t-53 32.5q-30 0 -53 -25.5t-45 -80.5q-42 -107 -79.5 -277.5t-37.5 -249.5q0 -57 17 -83.5t55 -26.5q32 0 57.5 31t38.5 90l13 55h-111l72 348h702l-184 -858 h-467l8 156q-129 -187 -393 -187q-208 0 -329.5 132t-121.5 364z" />
<glyph unicode="H" horiz-adv-x="1525" d="M-84 0l305 1434h635l-100 -471h137l100 471h635l-305 -1434h-635l100 473h-137l-100 -473h-635z" />
<glyph unicode="I" horiz-adv-x="765" d="M-78 0l305 1434h635l-305 -1434h-635z" />
<glyph unicode="J" horiz-adv-x="1091" d="M-104 74l161 393q101 -43 197 -43q100 0 123 117l190 893h635l-184 -863q-66 -305 -217 -445t-408 -140q-121 0 -257 23.5t-240 64.5z" />
<glyph unicode="K" horiz-adv-x="1548" d="M-84 0l305 1434h635l-80 -375l230 375h667l-430 -564l162 -870h-680l-45 371l-68 -84l-61 -287h-635z" />
<glyph unicode="L" horiz-adv-x="1245" d="M-84 0l305 1434h635l-211 -990h510l-94 -444h-1145z" />
<glyph unicode="M" horiz-adv-x="1951" d="M-84 0l305 1434h832l-49 -637l223 637h827l-305 -1434h-584l185 860l-324 -860h-481l45 860l-184 -860h-490z" />
<glyph unicode="N" horiz-adv-x="1460" d="M-84 0l305 1434h512l203 -490l104 490h523l-306 -1434h-499l-211 512l-109 -512h-522z" />
<glyph unicode="O" horiz-adv-x="1558" d="M18 567q0 152 38 288t112.5 247t179 192t244 125.5t301.5 44.5q152 0 277.5 -44.5t210.5 -124t131.5 -189.5t46.5 -240q0 -152 -38 -288t-112.5 -247t-179 -192t-244 -125.5t-301.5 -44.5q-152 0 -277.5 44.5t-210.5 124t-131.5 189.5t-46.5 240zM659 444q0 -88 52 -88 q28 0 47.5 24.5t42.5 82.5q39 98 78 274.5t39 251.5q0 88 -52 88q-28 0 -47.5 -24t-42.5 -82q-39 -98 -78 -275t-39 -252z" />
<glyph unicode="P" horiz-adv-x="1517" d="M-84 0l305 1434h764q296 0 431.5 -115.5t135.5 -333.5q0 -122 -47.5 -231t-135 -192.5t-223.5 -132t-302 -48.5h-211l-82 -381h-635zM711 748h39q74 0 115.5 58.5t41.5 176.5q0 45 -21.5 64.5t-68.5 19.5h-39z" />
<glyph unicode="Q" horiz-adv-x="1558" d="M18 567q0 152 38 288t112.5 247t179 192t244 125.5t301.5 44.5q152 0 277.5 -44.5t210.5 -124t131.5 -189.5t46.5 -240q0 -258 -108 -463.5t-306 -318.5q36 -23 119 -23q50 0 108 5l-78 -363q-78 -8 -145 -8q-187 0 -284 68.5t-122 207.5q-20 -2 -59 -2 q-152 0 -277.5 44.5t-210.5 124t-131.5 189.5t-46.5 240zM659 444q0 -88 52 -88q28 0 47.5 24.5t42.5 82.5q39 98 78 274.5t39 251.5q0 88 -52 88q-28 0 -47.5 -24t-42.5 -82q-39 -98 -78 -275t-39 -252z" />
<glyph unicode="R" horiz-adv-x="1542" d="M-84 0l305 1434h783q293 0 437 -112t144 -312q0 -130 -87 -246t-253 -189l144 -575h-652l-65 455h-25l-96 -455h-635zM725 821h49q68 0 106 43t38 129q0 44 -24.5 65t-78.5 21h-35z" />
<glyph unicode="S" horiz-adv-x="1411" d="M-88 168l219 352q115 -76 241 -121t222 -45q82 0 82 45q0 15 -15 26t-57 24l-137 43q-218 68 -301.5 158.5t-83.5 244.5q0 82 26 161t84 153.5t141.5 130.5t208 90t273.5 34q339 0 633 -172l-219 -350q-234 152 -430 152q-46 0 -63 -10t-17 -29q0 -13 13 -23.5t52 -21.5 l150 -45q228 -68 320 -168.5t92 -257.5q0 -247 -202.5 -409.5t-525.5 -162.5q-210 0 -392.5 55.5t-313.5 145.5z" />
<glyph unicode="T" horiz-adv-x="1386" d="M109 993l94 441h1304l-94 -441h-332l-211 -993h-641l211 993h-331z" />
<glyph unicode="U" horiz-adv-x="1490" d="M35 596l178 838h635l-199 -934q-6 -29 -6 -51q0 -66 55 -66q65 0 90 117l199 934h615l-179 -838q-134 -627 -782 -627q-349 0 -509 166q-114 119 -115 304q0 73 18 157z" />
<glyph unicode="V" horiz-adv-x="1482" d="M170 1434h639l-8 -709l293 709h542l-651 -1434h-774z" />
<glyph unicode="W" horiz-adv-x="2111" d="M113 0l65 1434h600l-63 -695l262 695h549l-35 -695l233 695h533l-545 -1434h-702l43 662l-238 -662h-702z" />
<glyph unicode="X" horiz-adv-x="1652" d="M-143 0l575 721l-237 713h696l70 -265l192 265h625l-527 -658l258 -776h-708l-80 311l-225 -311h-639z" />
<glyph unicode="Y" horiz-adv-x="1536" d="M170 1434h635l84 -414l260 414h541l-654 -990l-94 -444h-635l94 442z" />
<glyph unicode="Z" horiz-adv-x="1320" d="M-102 0l94 444l590 549h-453l94 441h1219l-94 -445l-590 -549h463l-95 -440h-1228z" />
<glyph unicode="[" horiz-adv-x="897" d="M-98 -270l389 1826h743l-86 -401h-213l-217 -1024h213l-86 -401h-743z" />
<glyph unicode="\" horiz-adv-x="1177" d="M207 1597h459l344 -1884h-459z" />
<glyph unicode="]" horiz-adv-x="897" d="M-150 -270l87 401h213l217 1024h-213l86 401h743l-389 -1826h-744z" />
<glyph unicode="^" horiz-adv-x="1116" d="M-8 592l469 842h518l108 -842h-434l-20 418l-199 -418h-442z" />
<glyph unicode="_" horiz-adv-x="1153" d="M-238 -434l80 377h1157l-79 -377h-1158z" />
<glyph unicode="`" d="M453 1434h448l33 -295h-316z" />
<glyph unicode="a" horiz-adv-x="1314" d="M-53 258q0 406 694 406h57l15 69q3 14 3 26q0 50 -52 50q-30 0 -48.5 -25t-33.5 -88l-506 37q21 82 69 148.5t124 117.5t186.5 79t246.5 28q339 0 476 -124q100 -90 100 -240q0 -56 -14 -119l-131 -623h-558l37 170q-60 -86 -153.5 -140.5t-190.5 -54.5q-157 0 -239 77.5 t-82 205.5zM514 338q0 -57 49 -57q27 0 44 17t26 58l26 123h-10q-58 0 -96.5 -42t-38.5 -99z" />
<glyph unicode="b" horiz-adv-x="1347" d="M-92 0l305 1434h575l-96 -455q120 127 289 127q154 0 242 -113.5t88 -324.5q0 -144 -44.5 -274.5t-117.5 -223t-171 -147t-202 -54.5t-177.5 40t-104.5 112l-25 -121h-561zM551 322q0 -56 39 -56q18 0 32 16t31 58q34 85 62 219t28 195q0 55 -38 55q-18 0 -32.5 -16.5 t-31.5 -57.5q-34 -85 -62 -219t-28 -194z" />
<glyph unicode="c" horiz-adv-x="1277" d="M-16 451q0 135 52 255t144.5 208.5t230 140t300.5 51.5q270 0 404 -119t134 -342l-522 -31q16 84 16 140q0 55 -38 55q-18 0 -32.5 -16.5t-31.5 -57.5q-34 -85 -62 -219t-28 -194q0 -56 39 -56q31 0 57 43t55 160l512 -33q-45 -213 -227.5 -340t-435.5 -127 q-263 0 -415 129t-152 353z" />
<glyph unicode="d" horiz-adv-x="1349" d="M-20 408q0 144 44 274.5t117.5 222.5t171 146.5t201.5 54.5q97 0 167.5 -34t104.5 -97l99 459h575l-305 -1434h-561l27 121q-58 -69 -138 -110.5t-174 -41.5q-154 0 -241.5 114t-87.5 325zM547 322q0 -56 39 -56q18 0 32 16t31 58q34 85 62 219t28 195q0 55 -39 55 q-18 0 -32 -16t-31 -58q-34 -85 -62 -219t-28 -194z" />
<glyph unicode="e" horiz-adv-x="1290" d="M-18 440q0 137 52.5 259t146 212t230.5 142.5t298 52.5q268 0 407 -115t139 -309q0 -127 -36 -246h-668q-10 -68 -10 -98q0 -72 65 -72q82 0 164 123l422 -82q-101 -172 -259.5 -255t-383.5 -83q-259 0 -413 129t-154 342zM600 657h131q14 65 14 97q0 59 -45 59t-73 -78 q-3 -9 -12.5 -35.5t-14.5 -42.5z" />
<glyph unicode="f" horiz-adv-x="872" d="M-31 0l158 741h-107l72 334h107l2 10q38 179 168 271t381 92q147 0 272 -25l-61 -284q-54 6 -93 6q-48 0 -67 -13.5t-25 -44.5l-2 -12h174l-71 -334h-175l-157 -741h-576z" />
<glyph unicode="g" horiz-adv-x="1271" d="M-170 -156q0 80 64 140.5t194 87.5q-68 21 -102.5 62t-34.5 93q0 171 256 228q-168 80 -168 237q0 195 164.5 304.5t470.5 109.5q214 0 346 -55q35 99 105 142.5t190 43.5h57l-67 -319q-68 0 -115 -7q27 -52 27 -110q0 -195 -164.5 -304.5t-470.5 -109.5q-43 0 -117 4 q-31 -13 -31 -35t58 -22q244 0 353.5 -21t178.5 -67q49 -32 77.5 -87.5t28.5 -113.5q0 -201 -198 -327t-520 -126q-292 0 -437 68.5t-145 183.5zM317 -106q0 -28 26.5 -45t78.5 -17q68 0 106.5 20.5t38.5 51.5q0 29 -26.5 42t-91.5 13q-62 0 -97 -17.5t-35 -47.5zM553 662 q0 -70 45 -70q20 0 34.5 14.5t29.5 50.5q17 39 28.5 90t11.5 84q0 70 -45 70q-20 0 -34 -14.5t-29 -50.5q-17 -39 -29 -90t-12 -84z" />
<glyph unicode="h" horiz-adv-x="1335" d="M-92 0l305 1434h575l-110 -521q128 193 344 193q172 0 248 -101q52 -68 51 -169q0 -49 -12 -105l-156 -731h-575l143 676q7 34 -2.5 48.5t-36.5 14.5q-22 0 -35 -14.5t-20 -48.5l-144 -676h-575z" />
<glyph unicode="i" horiz-adv-x="686" d="M-88 0l229 1075h576l-230 -1075h-575zM154 1139l63 295h576l-64 -295h-575z" />
<glyph unicode="j" horiz-adv-x="686" d="M-326 -381l62 283q50 -6 92 -6q64 0 72 49l241 1130h576l-234 -1098q-82 -385 -522 -385q-125 0 -287 27zM154 1139l63 295h576l-64 -295h-575z" />
<glyph unicode="k" horiz-adv-x="1368" d="M-92 0l305 1434h575l-143 -670l260 311h535l-377 -432l151 -643h-596l-45 252l-47 -47l-43 -205h-575z" />
<glyph unicode="l" horiz-adv-x="686" d="M-88 0l305 1434h576l-306 -1434h-575z" />
<glyph unicode="m" horiz-adv-x="1988" d="M-92 0l229 1075h561l-36 -174q129 205 366 205q124 0 196.5 -54t86.5 -157q138 211 379 211q162 0 234 -104q48 -69 49 -167q0 -51 -13 -110l-154 -725h-575l143 676q7 35 -0.5 49t-32.5 14q-41 0 -53 -63l-143 -676h-576l144 676q7 35 -0.5 49t-32.5 14q-41 0 -53 -63 l-144 -676h-575z" />
<glyph unicode="n" horiz-adv-x="1335" d="M-92 0l229 1075h561l-36 -172q131 203 360 203q172 0 248 -101q52 -68 51 -169q0 -49 -12 -105l-156 -731h-575l143 676q7 34 -2.5 48.5t-36.5 14.5q-22 0 -35 -14.5t-20 -48.5l-144 -676h-575z" />
<glyph unicode="o" d="M-16 451q0 135 52 255t144.5 208.5t230 140t300.5 51.5q285 0 442.5 -127.5t157.5 -353.5q0 -135 -52 -255t-144.5 -209t-230 -140.5t-300.5 -51.5q-285 0 -442.5 128t-157.5 354zM551 322q0 -56 39 -56q18 0 32 16t31 58q34 85 62 219t28 195q0 55 -38 55 q-18 0 -32.5 -16.5t-31.5 -57.5q-34 -85 -62 -219t-28 -194z" />
<glyph unicode="p" horiz-adv-x="1347" d="M-174 -389l311 1464h561l-24 -119q55 68 134.5 109t172.5 41q154 0 242 -113.5t88 -324.5q0 -144 -44.5 -274.5t-117.5 -223t-171 -147t-202 -54.5q-97 0 -167.5 34t-104.5 97l-103 -489h-575zM551 322q0 -56 39 -56q18 0 32 16t31 58q34 85 62 219t28 195q0 55 -38 55 q-18 0 -32.5 -16.5t-31.5 -57.5q-34 -85 -62 -219t-28 -194z" />
<glyph unicode="q" horiz-adv-x="1349" d="M-20 408q0 144 44 274.5t117.5 222.5t171 146.5t201.5 54.5q105 0 179.5 -40.5t103.5 -113.5l26 123h561l-311 -1464h-575l102 489q-121 -131 -291 -131q-154 0 -241.5 114t-87.5 325zM547 322q0 -56 39 -56q18 0 32 16t31 58q34 85 62 219t28 195q0 55 -39 55 q-18 0 -32 -16t-31 -58q-34 -85 -62 -219t-28 -194z" />
<glyph unicode="r" horiz-adv-x="956" d="M-92 0l229 1075h561l-47 -221q120 227 318 227q9 0 51 -6l-115 -534q-98 12 -157 12q-93 0 -124.5 -19t-43.5 -77l-97 -457h-575z" />
<glyph unicode="s" horiz-adv-x="1153" d="M-90 88l141 283q89 -47 204.5 -80t193.5 -33q67 0 67 33q0 25 -59 37l-129 24q-163 31 -233 108t-70 226q0 80 41.5 155t117.5 134t195.5 95t263.5 36q264 0 477 -94l-137 -283q-86 42 -186.5 66t-169.5 24q-56 0 -56 -28q0 -21 43 -29l142 -25q172 -30 250.5 -108 t78.5 -211q0 -89 -43.5 -170t-122 -143t-197.5 -99t-261 -37q-316 0 -551 119z" />
<glyph unicode="t" horiz-adv-x="942" d="M20 741l72 334h121l57 271h576l-58 -271h224l-72 -334h-223l-72 -335q-3 -14 -3 -25q0 -26 15 -41q21 -21 80 -21q7 0 115 7l-68 -314q-167 -37 -335 -37q-243 0 -333 112q-60 75 -59 196q0 61 15 133l69 325h-121z" />
<glyph unicode="u" horiz-adv-x="1335" d="M-31 344l156 731h575l-143 -676q-7 -34 2.5 -48.5t36.5 -14.5q22 0 35 14.5t20 48.5l144 676h575l-229 -1075h-561l36 172q-131 -203 -360 -203q-172 0 -248 101q-52 68 -51 169q0 49 12 105z" />
<glyph unicode="v" horiz-adv-x="1239" d="M94 1075h563l-20 -581l227 581h453l-469 -1075h-744z" />
<glyph unicode="w" horiz-adv-x="1816" d="M72 0l30 1075h555l-32 -530l217 530h422l-9 -530l193 530h438l-428 -1075h-612l22 487l-184 -487h-612z" />
<glyph unicode="x" horiz-adv-x="1351" d="M-135 0l448 526l-202 549h579l58 -190l149 190h516l-432 -497l219 -578h-590l-63 203l-156 -203h-526z" />
<glyph unicode="y" horiz-adv-x="1286" d="M-115 -375l62 293q113 -20 223 -20q23 0 55 4l-131 1173h580l8 -510l225 510h457l-535 -1106q-99 -204 -243.5 -289.5t-395.5 -85.5q-140 0 -305 31z" />
<glyph unicode="z" horiz-adv-x="1085" d="M-127 0l64 301l481 440h-375l72 334h1040l-65 -301l-482 -440h385l-71 -334h-1049z" />
<glyph unicode="{" horiz-adv-x="1005" d="M-2 471l84 397h119q28 0 42.5 13t20.5 45l39 186q52 248 165.5 346t342.5 98h332l-86 -401h-152q-35 0 -52 -16t-26 -56l-28 -135q-27 -126 -87 -191t-186 -89q111 -32 145 -100t11 -177l-41 -188q-9 -39 3.5 -55.5t49.5 -16.5h146l-86 -401h-273q-244 0 -335.5 105 t-41.5 339l52 240q6 33 -1.5 45t-35.5 12h-121z" />
<glyph unicode="|" horiz-adv-x="888" d="M10 -287l402 1884h458l-401 -1884h-459z" />
<glyph unicode="}" horiz-adv-x="1005" d="M-150 -270l87 401h151q35 0 53 16t25 56l39 188q26 125 86 191t186 90q-111 32 -145 100t-10 176l30 135q9 39 -3.5 55.5t-49.5 16.5h-145l86 401h272q244 0 336.5 -105t40.5 -339l-41 -186q-7 -32 1 -45t36 -13h121l-84 -397h-119q-28 0 -43 -12.5t-21 -44.5l-49 -240 q-51 -247 -165 -345.5t-343 -98.5h-332z" />
<glyph unicode="~" horiz-adv-x="1146" d="M104 1114q187 334 414 334q44 0 88 -13.5t121 -50.5l51 -24q71 -35 109 -35q62 0 143 117l234 -172q-187 -334 -414 -334q-45 0 -89 13.5t-120 49.5l-51 25q-71 35 -109 35q-62 0 -143 -117z" />
<glyph unicode="&#xa1;" horiz-adv-x="768" d="M-98 -176l106 502l195 424h397l12 -424l-106 -502h-604zM152 819l92 438h530l-92 -438h-530z" />
<glyph unicode="&#xa2;" horiz-adv-x="1277" d="M-16 451q0 234 144.5 408t391.5 226l49 234h453l-53 -248h-8q288 -93 288 -426l-522 -31q16 84 16 140q0 55 -38 55q-18 0 -32.5 -16.5t-31.5 -57.5q-34 -85 -62 -219t-28 -194q0 -56 39 -56q31 0 57 43t55 160l512 -33q-36 -171 -163.5 -288.5t-311.5 -157.5l-49 -234 h-452l51 248h20q-155 50 -240 165.5t-85 281.5z" />
<glyph unicode="&#xa3;" horiz-adv-x="1351" d="M-113 0l66 305q156 63 215 162h-182l59 274h129q-4 11 -15 41.5t-16.5 47t-10.5 44t-5 54.5q0 96 43 180t123 148.5t205 101.5t280 37q277 0 427 -133.5t163 -397.5l-514 -33q-7 128 -23.5 173t-50.5 45q-30 0 -48.5 -32t-18.5 -87q0 -36 5.5 -67.5t15.5 -68t14 -53.5 h309l-60 -274h-307q-55 -68 -133 -105h678l-78 -362h-1270z" />
<glyph unicode="&#xa5;" horiz-adv-x="1490" d="M-12 137l49 225h323l13 58h-324l47 225h232l-172 719h639l67 -369l225 369h543l-479 -719h231l-47 -225h-327l-13 -58h328l-49 -225h-326l-28 -137h-635l28 137h-325z" />
<glyph unicode="&#xa6;" horiz-adv-x="888" d="M10 -287l166 776h459l-166 -776h-459zM246 821l166 776h458l-165 -776h-459z" />
<glyph unicode="&#xa7;" horiz-adv-x="1427" d="M-168 -279l197 355q92 -52 246.5 -91.5t254.5 -39.5q86 0 86 35q0 13 -12 22.5t-51 20.5l-281 83q-290 85 -290 316q0 99 61 182t180 141q-59 83 -59 193q0 99 45 181.5t132 144.5t225 96.5t313 34.5q153 0 303 -37.5t270 -104.5l-190 -335q-105 56 -223.5 90t-196.5 34 q-64 0 -86.5 -8.5t-22.5 -27.5q0 -30 64 -48l274 -81q297 -89 297 -316q0 -101 -60.5 -184t-177.5 -139q60 -80 60 -197q0 -97 -47 -180t-135.5 -146t-227 -99t-311.5 -36q-179 0 -327 33.5t-310 107.5zM451 559q0 -24 15.5 -40t55.5 -27l365 -109q14 17 14 41 q0 23 -16.5 38.5t-63.5 29.5l-356 106q-14 -17 -14 -39z" />
<glyph unicode="&#xa8;" d="M391 1139l64 295h319l-63 -295h-320zM809 1139l63 295h320l-64 -295h-319z" />
<glyph unicode="&#xa9;" horiz-adv-x="1720" d="M123 707v20q0 206 96.5 375t265.5 265.5t375 96.5h21q206 0 375 -96.5t265.5 -265.5t96.5 -375v-20q0 -154 -57 -291t-154.5 -235t-234.5 -155t-291 -57h-21q-154 0 -291 57t-234.5 155t-154.5 235t-57 291zM256 709q0 -128 46.5 -242t126.5 -196t192.5 -129.5 t240.5 -47.5h17q128 0 240.5 47.5t192.5 129.5t126.5 196t46.5 242v16q0 171 -78.5 311.5t-218 221.5t-309.5 81h-17q-170 0 -309.5 -81t-218 -221.5t-78.5 -311.5v-16zM432 711v12q0 218 115 342.5t323 124.5q187 0 295 -104t117 -285l-350 -23q-8 144 -66 144 q-31 0 -47 -42.5t-16 -156.5v-12q0 -114 16.5 -156.5t48.5 -42.5q28 0 48 38.5t26 113.5l350 -23q-9 -171 -123 -284t-299 -113q-208 0 -323 124.5t-115 342.5z" />
<glyph unicode="&#xaa;" horiz-adv-x="1032" d="M41 760q0 54 14.5 96.5t54 82t104.5 66t171 42t248 16.5l12 53q12 58 -35 58q-25 0 -39 -17.5t-24 -66.5l-389 28q43 128 165.5 202.5t319.5 74.5q245 0 353 -99.5t71 -277.5l-96 -449h-428l26 125q-48 -68 -120 -106.5t-156 -38.5q-117 0 -184.5 56.5t-67.5 154.5z M494 823q0 -47 45 -47q35 0 47 60l18 90q-110 -8 -110 -103z" />
<glyph unicode="&#xab;" horiz-adv-x="1312" d="M53 614l332 461h416l-346 -469l133 -452h-400zM569 598l353 477h407l-358 -485l129 -436h-398z" />
<glyph unicode="&#xad;" horiz-adv-x="798" d="M18 524l82 383h697l-82 -383h-697z" />
<glyph unicode="&#xae;" horiz-adv-x="1210" d="M170 958v15q0 209 141.5 350t350.5 141h14q209 0 350 -141t141 -350v-15q0 -209 -141 -350t-350 -141h-14q-209 0 -350.5 141t-141.5 350zM272 958q0 -166 112.5 -281.5t277.5 -115.5h14q165 0 277 115t112 282v15q0 167 -112 282t-277 115h-14q-165 0 -277.5 -115.5 t-112.5 -281.5v-15zM424 709v514h289q104 0 159.5 -46.5t55.5 -127.5q0 -97 -70 -140l80 -200h-236l-47 161h-10v-161h-221zM645 987h12q26 0 35.5 9.5t9.5 37.5t-9.5 37.5t-35.5 9.5h-12v-94z" />
<glyph unicode="&#xaf;" d="M436 1159l56 254h659l-55 -254h-660z" />
<glyph unicode="&#xb0;" horiz-adv-x="929" d="M195 1063q0 142 99 237t253 95t253 -95t99 -237t-99 -237t-253 -95t-253 95t-99 237zM428 1063q0 -50 33 -83.5t86 -33.5t86 33.5t33 83.5t-33 83.5t-86 33.5t-86 -33.5t-33 -83.5z" />
<glyph unicode="&#xb1;" horiz-adv-x="1269" d="M-18 0l75 354h1020l-76 -354h-1019zM135 721l76 354h315l62 289h389l-62 -289h316l-76 -354h-315l-64 -293h-389l64 293h-316z" />
<glyph unicode="&#xb4;" d="M582 1139l159 295h463l-299 -295h-323z" />
<glyph unicode="&#xb6;" horiz-adv-x="1454" d="M14 610q0 227 85.5 395.5t256 263.5t408.5 95h778l-373 -1753h-340l306 1438h-134l-305 -1438h-340l127 602q-231 22 -350 123.5t-119 273.5z" />
<glyph unicode="&#xb7;" horiz-adv-x="655" d="M57 563l101 469h491l-100 -469h-492z" />
<glyph unicode="&#xb8;" d="M197 -426l77 160q81 -35 170 -35q78 0 78 37t-71 37q-38 0 -84 -17l-62 78l193 166h174l-80 -78h16q118 0 181 -49t63 -131q0 -98 -98.5 -157.5t-270.5 -59.5q-159 0 -286 49z" />
<glyph unicode="&#xba;" horiz-adv-x="1048" d="M76 901q0 215 159 354.5t412 139.5q210 0 331.5 -96t121.5 -259q0 -215 -159.5 -354t-412.5 -139q-210 0 -331 95.5t-121 258.5zM518 815q0 -47 29 -47q14 0 25 12.5t24 46.5q17 43 39 149t22 150q0 48 -28 48q-14 0 -25 -13t-24 -47q-18 -44 -40 -150t-22 -149z" />
<glyph unicode="&#xbb;" horiz-adv-x="1312" d="M-41 154l358 485l-129 436h398l133 -444l-352 -477h-408zM487 154l347 469l-134 452h400l135 -461l-332 -460h-416z" />
<glyph unicode="&#xbf;" horiz-adv-x="1409" d="M-61 199q0 419 559 479l16 72h530l-81 -383h-265q-133 0 -133 -138q0 -63 62 -63q64 0 96 113l559 -37q-29 -98 -86 -178.5t-142.5 -142t-207.5 -95t-271 -33.5q-312 0 -474 108t-162 298zM528 819l93 438h530l-92 -438h-531z" />
<glyph unicode="&#xc0;" horiz-adv-x="1556" d="M-135 0l676 1434h798l66 -1434h-635l2 195h-295l-82 -195h-530zM625 1772h448l33 -275h-315zM627 553h147l2 354z" />
<glyph unicode="&#xc1;" horiz-adv-x="1556" d="M-135 0l676 1434h798l66 -1434h-635l2 195h-295l-82 -195h-530zM627 553h147l2 354zM778 1497l160 275h463l-299 -275h-324z" />
<glyph unicode="&#xc2;" horiz-adv-x="1556" d="M-135 0l676 1434h798l66 -1434h-635l2 195h-295l-82 -195h-530zM483 1497l328 275h397l205 -275h-330l-98 105l-147 -105h-355zM627 553h147l2 354z" />
<glyph unicode="&#xc3;" horiz-adv-x="1556" d="M-135 0l676 1434h798l66 -1434h-635l2 195h-295l-82 -195h-530zM537 1577q44 111 126.5 175.5t180.5 64.5q57 0 139 -27l72 -25q46 -14 88 -14q72 0 121 61l161 -86q-44 -110 -126.5 -174.5t-180.5 -64.5q-60 0 -139 26l-72 25q-46 14 -88 14q-72 0 -121 -61zM627 553 h147l2 354z" />
<glyph unicode="&#xc4;" horiz-adv-x="1556" d="M-135 0l676 1434h798l66 -1434h-635l2 195h-295l-82 -195h-530zM580 1497l59 275h319l-59 -275h-319zM627 553h147l2 354zM997 1497l60 275h319l-59 -275h-320z" />
<glyph unicode="&#xc5;" horiz-adv-x="1556" d="M-135 0l676 1434h798l66 -1434h-635l2 195h-295l-82 -195h-530zM627 553h147l2 354zM756 1698q0 94 74 158.5t178 64.5q100 0 159.5 -57t59.5 -150q0 -94 -74 -158.5t-178 -64.5q-100 0 -159.5 57t-59.5 150zM909 1698q0 -33 22 -51.5t58 -18.5q37 0 60.5 25t23.5 61 q0 33 -22 51.5t-58 18.5q-37 0 -60.5 -25t-23.5 -61z" />
<glyph unicode="&#xc6;" horiz-adv-x="2013" d="M-135 0l655 1434h1614l-84 -398h-551l-24 -112h454l-84 -392h-454l-29 -135h551l-84 -397h-1186l41 195h-203l-78 -195h-538zM625 553h137l102 483h-45z" />
<glyph unicode="&#xc7;" horiz-adv-x="1503" d="M18 567q0 192 62 357.5t173 284.5t274 187t358 68q316 0 475.5 -153.5t159.5 -440.5l-586 -36q14 152 3 197.5t-58 45.5q-36 0 -58 -24t-45 -82q-39 -98 -78 -275t-39 -252q0 -88 66 -88q50 0 88 53.5t74 200.5l579 -37q-136 -575 -747 -602l-49 -49h16q118 0 181 -49 t63 -131q0 -98 -98.5 -157.5t-270.5 -59.5q-160 0 -287 49l78 160q81 -35 170 -35q78 0 78 37t-72 37q-38 0 -84 -17l-61 78l164 141q-250 30 -389.5 189t-139.5 403z" />
<glyph unicode="&#xc8;" horiz-adv-x="1286" d="M-84 0l305 1434h1186l-84 -398h-551l-24 -112h454l-84 -392h-454l-29 -135h551l-84 -397h-1186zM504 1772h448l33 -275h-315z" />
<glyph unicode="&#xc9;" horiz-adv-x="1286" d="M-84 0l305 1434h1186l-84 -398h-551l-24 -112h454l-84 -392h-454l-29 -135h551l-84 -397h-1186zM657 1497l160 275h463l-299 -275h-324z" />
<glyph unicode="&#xca;" horiz-adv-x="1286" d="M-84 0l305 1434h1186l-84 -398h-551l-24 -112h454l-84 -392h-454l-29 -135h551l-84 -397h-1186zM362 1497l328 275h397l205 -275h-329l-99 105l-147 -105h-355z" />
<glyph unicode="&#xcb;" horiz-adv-x="1286" d="M-84 0l305 1434h1186l-84 -398h-551l-24 -112h454l-84 -392h-454l-29 -135h551l-84 -397h-1186zM459 1497l59 275h320l-60 -275h-319zM877 1497l59 275h319l-59 -275h-319z" />
<glyph unicode="&#xcc;" horiz-adv-x="765" d="M-78 0l305 1434h635l-305 -1434h-635zM233 1772h449l33 -275h-316z" />
<glyph unicode="&#xcd;" horiz-adv-x="765" d="M-78 0l305 1434h635l-305 -1434h-635zM387 1497l160 275h463l-299 -275h-324z" />
<glyph unicode="&#xce;" horiz-adv-x="765" d="M-78 0l305 1434h635l-305 -1434h-635zM92 1497l328 275h397l205 -275h-330l-98 105l-148 -105h-354z" />
<glyph unicode="&#xcf;" horiz-adv-x="765" d="M-78 0l305 1434h635l-305 -1434h-635zM188 1497l60 275h319l-59 -275h-320zM606 1497l60 275h319l-59 -275h-320z" />
<glyph unicode="&#xd0;" horiz-adv-x="1556" d="M-63 0l122 582h-59l66 307h59l117 545h721q301 0 448.5 -149.5t147.5 -418.5q0 -130 -31 -253t-98.5 -235t-164 -195.5t-237.5 -133t-309 -49.5h-782zM651 373h39q47 0 77 24t50 82q36 106 68.5 257.5t32.5 215.5q0 62 -22.5 85.5t-74.5 23.5h-24l-37 -172h96l-65 -307 h-95z" />
<glyph unicode="&#xd1;" horiz-adv-x="1460" d="M-84 0l305 1434h512l203 -490l104 490h523l-306 -1434h-499l-211 512l-109 -512h-522zM510 1577q44 111 126.5 175.5t180.5 64.5q57 0 139 -27l72 -25q46 -14 88 -14q72 0 121 61l162 -86q-44 -110 -126.5 -174.5t-180.5 -64.5q-61 0 -140 26l-71 25q-46 14 -88 14 q-72 0 -121 -61z" />
<glyph unicode="&#xd2;" horiz-adv-x="1558" d="M18 567q0 152 38 288t112.5 247t179 192t244 125.5t301.5 44.5q152 0 277.5 -44.5t210.5 -124t131.5 -189.5t46.5 -240q0 -152 -38 -288t-112.5 -247t-179 -192t-244 -125.5t-301.5 -44.5q-152 0 -277.5 44.5t-210.5 124t-131.5 189.5t-46.5 240zM631 1772h448l33 -275 h-315zM659 444q0 -88 52 -88q28 0 47.5 24.5t42.5 82.5q39 98 78 274.5t39 251.5q0 88 -52 88q-28 0 -47.5 -24t-42.5 -82q-39 -98 -78 -275t-39 -252z" />
<glyph unicode="&#xd3;" horiz-adv-x="1558" d="M18 567q0 152 38 288t112.5 247t179 192t244 125.5t301.5 44.5q152 0 277.5 -44.5t210.5 -124t131.5 -189.5t46.5 -240q0 -152 -38 -288t-112.5 -247t-179 -192t-244 -125.5t-301.5 -44.5q-152 0 -277.5 44.5t-210.5 124t-131.5 189.5t-46.5 240zM659 444q0 -88 52 -88 q28 0 47.5 24.5t42.5 82.5q39 98 78 274.5t39 251.5q0 88 -52 88q-28 0 -47.5 -24t-42.5 -82q-39 -98 -78 -275t-39 -252zM784 1497l160 275h463l-299 -275h-324z" />
<glyph unicode="&#xd4;" horiz-adv-x="1558" d="M18 567q0 152 38 288t112.5 247t179 192t244 125.5t301.5 44.5q152 0 277.5 -44.5t210.5 -124t131.5 -189.5t46.5 -240q0 -152 -38 -288t-112.5 -247t-179 -192t-244 -125.5t-301.5 -44.5q-152 0 -277.5 44.5t-210.5 124t-131.5 189.5t-46.5 240zM489 1497l328 275h397 l205 -275h-329l-99 105l-147 -105h-355zM659 444q0 -88 52 -88q28 0 47.5 24.5t42.5 82.5q39 98 78 274.5t39 251.5q0 88 -52 88q-28 0 -47.5 -24t-42.5 -82q-39 -98 -78 -275t-39 -252z" />
<glyph unicode="&#xd5;" horiz-adv-x="1558" d="M18 567q0 152 38 288t112.5 247t179 192t244 125.5t301.5 44.5q152 0 277.5 -44.5t210.5 -124t131.5 -189.5t46.5 -240q0 -152 -38 -288t-112.5 -247t-179 -192t-244 -125.5t-301.5 -44.5q-152 0 -277.5 44.5t-210.5 124t-131.5 189.5t-46.5 240zM543 1577 q44 111 126.5 175.5t180.5 64.5q57 0 139 -27l72 -25q46 -14 88 -14q72 0 121 61l162 -86q-44 -110 -127 -174.5t-181 -64.5q-60 0 -139 26l-72 25q-46 14 -88 14q-71 0 -120 -61zM659 444q0 -88 52 -88q28 0 47.5 24.5t42.5 82.5q39 98 78 274.5t39 251.5q0 88 -52 88 q-28 0 -47.5 -24t-42.5 -82q-39 -98 -78 -275t-39 -252z" />
<glyph unicode="&#xd6;" horiz-adv-x="1558" d="M18 567q0 152 38 288t112.5 247t179 192t244 125.5t301.5 44.5q152 0 277.5 -44.5t210.5 -124t131.5 -189.5t46.5 -240q0 -152 -38 -288t-112.5 -247t-179 -192t-244 -125.5t-301.5 -44.5q-152 0 -277.5 44.5t-210.5 124t-131.5 189.5t-46.5 240zM586 1497l59 275h320 l-60 -275h-319zM659 444q0 -88 52 -88q28 0 47.5 24.5t42.5 82.5q39 98 78 274.5t39 251.5q0 88 -52 88q-28 0 -47.5 -24t-42.5 -82q-39 -98 -78 -275t-39 -252zM1004 1497l59 275h319l-59 -275h-319z" />
<glyph unicode="&#xd7;" horiz-adv-x="1269" d="M47 414l322 268l-209 258l305 252l207 -256l315 264l219 -260l-321 -268l209 -260l-306 -252l-206 258l-316 -264z" />
<glyph unicode="&#xd8;" horiz-adv-x="1558" d="M8 29l148 151q-138 160 -138 387q0 152 38 288t112.5 247t179 192t244 125.5t301.5 44.5q237 0 407 -106l150 153l119 -106l-148 -152q138 -160 138 -387q0 -152 -38 -288t-112.5 -247t-179 -192t-244 -125.5t-301.5 -44.5q-236 0 -408 107l-149 -154zM659 444 q0 -88 52 -88q28 0 47.5 24.5t42.5 82.5q30 71 65 219l-204 -211q-3 -15 -3 -27zM711 752l204 211q3 15 3 26q0 88 -52 88q-28 0 -47.5 -24t-42.5 -82q-30 -71 -65 -219z" />
<glyph unicode="&#xd9;" horiz-adv-x="1490" d="M35 596l178 838h635l-199 -934q-24 -117 49 -117q65 0 90 117l199 934h615l-179 -838q-134 -627 -782 -627q-350 0 -509.5 166t-96.5 461zM608 1772h449l33 -275h-316z" />
<glyph unicode="&#xda;" horiz-adv-x="1490" d="M35 596l178 838h635l-199 -934q-24 -117 49 -117q65 0 90 117l199 934h615l-179 -838q-134 -627 -782 -627q-350 0 -509.5 166t-96.5 461zM762 1497l160 275h462l-299 -275h-323z" />
<glyph unicode="&#xdb;" horiz-adv-x="1490" d="M35 596l178 838h635l-199 -934q-24 -117 49 -117q65 0 90 117l199 934h615l-179 -838q-134 -627 -782 -627q-350 0 -509.5 166t-96.5 461zM467 1497l328 275h397l205 -275h-330l-98 105l-148 -105h-354z" />
<glyph unicode="&#xdc;" horiz-adv-x="1490" d="M35 596l178 838h635l-199 -934q-24 -117 49 -117q65 0 90 117l199 934h615l-179 -838q-134 -627 -782 -627q-350 0 -509.5 166t-96.5 461zM563 1497l60 275h319l-59 -275h-320zM981 1497l59 275h320l-60 -275h-319z" />
<glyph unicode="&#xdd;" horiz-adv-x="1536" d="M170 1434h635l84 -414l260 414h541l-654 -990l-94 -444h-635l94 442zM784 1497l160 275h463l-299 -275h-324z" />
<glyph unicode="&#xde;" horiz-adv-x="1517" d="M-84 0l305 1434h635l-41 -195h129q296 0 431.5 -115t135.5 -333q0 -122 -47.5 -231t-135 -192.5t-223.5 -132.5t-302 -49h-213l-39 -186h-635zM668 553h41q74 0 115.5 58.5t41.5 176.5q0 45 -21.5 64.5t-68.5 19.5h-39z" />
<glyph unicode="&#xdf;" horiz-adv-x="1359" d="M-92 0l209 981q51 240 220 361.5t482 121.5q294 0 436 -102.5t142 -271.5q0 -122 -84 -209.5t-240 -122.5q112 -34 166.5 -114t54.5 -193q0 -219 -150.5 -343t-400.5 -124q-139 0 -225 12l60 287h20q33 0 51 9.5t33 35.5t27 78.5t12 93.5q0 36 -17.5 52.5t-56.5 16.5h-8 l72 332h24q19 0 31 9t22 32q29 67 29 150q0 37 -9 52t-32 15q-25 0 -42 -30t-36 -119l-215 -1010h-575z" />
<glyph unicode="&#xe0;" horiz-adv-x="1314" d="M-53 258q0 406 694 406h57l15 69q15 76 -49 76q-30 0 -48.5 -25t-33.5 -88l-506 37q21 82 69 148.5t124 117.5t186.5 79t246.5 28q339 0 476 -124t86 -359l-131 -623h-558l37 170q-60 -86 -153.5 -140.5t-190.5 -54.5q-157 0 -239 77.5t-82 205.5zM455 1434h448l33 -295 h-315zM514 338q0 -57 49 -57q27 0 44 17t26 58l26 123h-10q-58 0 -96.5 -42t-38.5 -99z" />
<glyph unicode="&#xe1;" horiz-adv-x="1314" d="M-53 258q0 406 694 406h57l15 69q15 76 -49 76q-30 0 -48.5 -25t-33.5 -88l-506 37q21 82 69 148.5t124 117.5t186.5 79t246.5 28q339 0 476 -124t86 -359l-131 -623h-558l37 170q-60 -86 -153.5 -140.5t-190.5 -54.5q-157 0 -239 77.5t-82 205.5zM514 338q0 -57 49 -57 q27 0 44 17t26 58l26 123h-10q-58 0 -96.5 -42t-38.5 -99zM608 1139l160 295h463l-299 -295h-324z" />
<glyph unicode="&#xe2;" horiz-adv-x="1314" d="M-53 258q0 406 694 406h57l15 69q15 76 -49 76q-30 0 -48.5 -25t-33.5 -88l-506 37q21 82 69 148.5t124 117.5t186.5 79t246.5 28q339 0 476 -124t86 -359l-131 -623h-558l37 170q-60 -86 -153.5 -140.5t-190.5 -54.5q-157 0 -239 77.5t-82 205.5zM301 1139l334 295h397 l199 -295h-330l-94 116l-152 -116h-354zM514 338q0 -57 49 -57q27 0 44 17t26 58l26 123h-10q-58 0 -96.5 -42t-38.5 -99z" />
<glyph unicode="&#xe3;" horiz-adv-x="1314" d="M-53 258q0 406 694 406h57l15 69q15 76 -49 76q-30 0 -48.5 -25t-33.5 -88l-506 37q21 82 69 148.5t124 117.5t186.5 79t246.5 28q339 0 476 -124t86 -359l-131 -623h-558l37 170q-60 -86 -153.5 -140.5t-190.5 -54.5q-157 0 -239 77.5t-82 205.5zM365 1219 q44 110 126.5 174.5t180.5 64.5q60 0 139 -26l72 -25q46 -14 88 -14q72 0 121 61l161 -86q-44 -111 -126.5 -175.5t-180.5 -64.5q-57 0 -139 27l-72 25q-46 14 -88 14q-72 0 -121 -61zM514 338q0 -57 49 -57q27 0 44 17t26 58l26 123h-10q-58 0 -96.5 -42t-38.5 -99z" />
<glyph unicode="&#xe4;" horiz-adv-x="1314" d="M-53 258q0 406 694 406h57l15 69q15 76 -49 76q-30 0 -48.5 -25t-33.5 -88l-506 37q21 82 69 148.5t124 117.5t186.5 79t246.5 28q339 0 476 -124t86 -359l-131 -623h-558l37 170q-60 -86 -153.5 -140.5t-190.5 -54.5q-157 0 -239 77.5t-82 205.5zM408 1139l63 295h320 l-64 -295h-319zM514 338q0 -57 49 -57q27 0 44 17t26 58l26 123h-10q-58 0 -96.5 -42t-38.5 -99zM825 1139l64 295h319l-63 -295h-320z" />
<glyph unicode="&#xe5;" horiz-adv-x="1314" d="M-53 258q0 406 694 406h57l15 69q15 76 -49 76q-30 0 -48.5 -25t-33.5 -88l-506 37q21 82 69 148.5t124 117.5t186.5 79t246.5 28q339 0 476 -124t86 -359l-131 -623h-558l37 170q-60 -86 -153.5 -140.5t-190.5 -54.5q-157 0 -239 77.5t-82 205.5zM514 338q0 -57 49 -57 q27 0 44 17t26 58l26 123h-10q-58 0 -96.5 -42t-38.5 -99zM586 1339q0 94 74 159t178 65q100 0 159.5 -57t59.5 -150q0 -94 -74 -158.5t-178 -64.5q-100 0 -159.5 56.5t-59.5 149.5zM739 1339q0 -33 22 -51t58 -18q37 0 60.5 25t23.5 61q0 33 -22 51t-58 18q-37 0 -60.5 -25 t-23.5 -61z" />
<glyph unicode="&#xe6;" horiz-adv-x="1966" d="M-53 258q0 406 694 406h57l15 69q15 76 -49 76q-30 0 -48.5 -25t-33.5 -88l-506 37q43 168 199.5 270.5t408.5 102.5q237 0 348 -133q155 133 379 133q241 0 378.5 -116.5t137.5 -307.5q0 -123 -37 -246h-667q-11 -75 -11 -98q0 -35 17.5 -53.5t48.5 -18.5q82 0 164 123 l422 -82q-101 -172 -259.5 -255t-383.5 -83q-121 0 -218.5 42.5t-156.5 125.5q-196 -162 -506 -162q-203 0 -298 76t-95 207zM514 338q0 -57 49 -57q27 0 44 17t26 58l26 123h-10q-58 0 -96.5 -42t-38.5 -99zM1272 657h131q14 65 14 97q0 59 -45 59q-46 0 -74 -78 q-2 -7 -11.5 -34t-14.5 -44z" />
<glyph unicode="&#xe7;" horiz-adv-x="1277" d="M-16 451q0 135 52 255t144.5 208.5t230 140t300.5 51.5q270 0 404 -119t134 -342l-522 -31q16 84 16 140q0 55 -38 55q-18 0 -32.5 -16.5t-31.5 -57.5q-34 -85 -62 -219t-28 -194q0 -56 39 -56q31 0 57 43t55 160l512 -33q-42 -199 -206 -324.5t-394 -140.5l-51 -49h17 q118 0 180.5 -49t62.5 -131q0 -98 -98 -157.5t-270 -59.5q-160 0 -287 49l78 160q81 -35 170 -35q78 0 78 37t-72 37q-38 0 -84 -17l-62 78l164 141q-214 26 -335 151.5t-121 324.5z" />
<glyph unicode="&#xe8;" horiz-adv-x="1290" d="M-18 440q0 137 52.5 259t146 212t230.5 142.5t298 52.5q268 0 407 -115t139 -309q0 -127 -36 -246h-668q-10 -68 -10 -98q0 -72 65 -72q82 0 164 123l422 -82q-101 -172 -259.5 -255t-383.5 -83q-259 0 -413 129t-154 342zM406 1434h448l33 -295h-316zM600 657h131 q14 65 14 97q0 59 -45 59t-73 -78q-3 -9 -12.5 -35.5t-14.5 -42.5z" />
<glyph unicode="&#xe9;" horiz-adv-x="1290" d="M-18 440q0 137 52.5 259t146 212t230.5 142.5t298 52.5q268 0 407 -115t139 -309q0 -127 -36 -246h-668q-10 -68 -10 -98q0 -72 65 -72q82 0 164 123l422 -82q-101 -172 -259.5 -255t-383.5 -83q-259 0 -413 129t-154 342zM559 1139l160 295h463l-299 -295h-324zM600 657 h131q14 65 14 97q0 59 -45 59t-73 -78q-3 -9 -12.5 -35.5t-14.5 -42.5z" />
<glyph unicode="&#xea;" horiz-adv-x="1290" d="M-18 440q0 137 52.5 259t146 212t230.5 142.5t298 52.5q268 0 407 -115t139 -309q0 -127 -36 -246h-668q-10 -68 -10 -98q0 -72 65 -72q82 0 164 123l422 -82q-101 -172 -259.5 -255t-383.5 -83q-259 0 -413 129t-154 342zM250 1139l334 295h397l199 -295h-330l-94 116 l-152 -116h-354zM600 657h131q14 65 14 97q0 59 -45 59t-73 -78q-3 -9 -12.5 -35.5t-14.5 -42.5z" />
<glyph unicode="&#xeb;" horiz-adv-x="1290" d="M-18 440q0 137 52.5 259t146 212t230.5 142.5t298 52.5q268 0 407 -115t139 -309q0 -127 -36 -246h-668q-10 -68 -10 -98q0 -72 65 -72q82 0 164 123l422 -82q-101 -172 -259.5 -255t-383.5 -83q-259 0 -413 129t-154 342zM358 1139l64 295h319l-63 -295h-320zM600 657 h131q14 65 14 97q0 59 -45 59t-73 -78q-3 -9 -12.5 -35.5t-14.5 -42.5zM776 1139l64 295h319l-63 -295h-320z" />
<glyph unicode="&#xec;" horiz-adv-x="686" d="M-88 0l229 1075h576l-230 -1075h-575zM121 1434h448l33 -295h-315z" />
<glyph unicode="&#xed;" horiz-adv-x="686" d="M-88 0l229 1075h576l-230 -1075h-575zM274 1139l160 295h463l-299 -295h-324z" />
<glyph unicode="&#xee;" horiz-adv-x="686" d="M-88 0l229 1075h576l-230 -1075h-575zM-33 1139l334 295h397l199 -295h-330l-94 116l-151 -116h-355z" />
<glyph unicode="&#xef;" horiz-adv-x="686" d="M-88 0l229 1075h576l-230 -1075h-575zM74 1139l63 295h320l-64 -295h-319zM492 1139l63 295h319l-63 -295h-319z" />
<glyph unicode="&#xf0;" horiz-adv-x="1343" d="M-16 451q0 128 44 245t117 200.5t171 133t202 49.5q92 0 160 -30q-18 39 -55 104l-353 -53l9 151l251 37q-49 69 -120 146h577q40 -40 62 -68l260 39l-9 -150l-149 -22q160 -241 160 -514q0 -343 -195.5 -546.5t-531.5 -203.5q-285 0 -442.5 128t-157.5 354zM551 322 q0 -56 39 -56q18 0 32 16t31 58q34 85 62 219t28 195q0 55 -38 55q-18 0 -32.5 -16.5t-31.5 -57.5q-34 -85 -62 -219t-28 -194z" />
<glyph unicode="&#xf1;" horiz-adv-x="1335" d="M-92 0l229 1075h561l-36 -172q131 203 360 203q171 0 247.5 -101t39.5 -274l-156 -731h-575l143 676q7 34 -2.5 48.5t-36.5 14.5q-22 0 -35 -14.5t-20 -48.5l-144 -676h-575zM393 1219q44 110 126.5 174.5t180.5 64.5q61 0 140 -26l71 -25q46 -14 88 -14q72 0 121 61 l162 -86q-44 -111 -126.5 -175.5t-180.5 -64.5q-57 0 -139 27l-72 25q-46 14 -88 14q-72 0 -121 -61z" />
<glyph unicode="&#xf2;" d="M-16 451q0 135 52 255t144.5 208.5t230 140t300.5 51.5q285 0 442.5 -127.5t157.5 -353.5q0 -135 -52 -255t-144.5 -209t-230 -140.5t-300.5 -51.5q-285 0 -442.5 128t-157.5 354zM426 1434h448l33 -295h-315zM551 322q0 -56 39 -56q18 0 32 16t31 58q34 85 62 219 t28 195q0 55 -38 55q-18 0 -32.5 -16.5t-31.5 -57.5q-34 -85 -62 -219t-28 -194z" />
<glyph unicode="&#xf3;" d="M-16 451q0 135 52 255t144.5 208.5t230 140t300.5 51.5q285 0 442.5 -127.5t157.5 -353.5q0 -135 -52 -255t-144.5 -209t-230 -140.5t-300.5 -51.5q-285 0 -442.5 128t-157.5 354zM551 322q0 -56 39 -56q18 0 32 16t31 58q34 85 62 219t28 195q0 55 -38 55 q-18 0 -32.5 -16.5t-31.5 -57.5q-34 -85 -62 -219t-28 -194zM580 1139l159 295h463l-299 -295h-323z" />
<glyph unicode="&#xf4;" d="M-16 451q0 135 52 255t144.5 208.5t230 140t300.5 51.5q285 0 442.5 -127.5t157.5 -353.5q0 -135 -52 -255t-144.5 -209t-230 -140.5t-300.5 -51.5q-285 0 -442.5 128t-157.5 354zM270 1139l334 295h397l199 -295h-330l-94 116l-151 -116h-355zM551 322q0 -56 39 -56 q18 0 32 16t31 58q34 85 62 219t28 195q0 55 -38 55q-18 0 -32.5 -16.5t-31.5 -57.5q-34 -85 -62 -219t-28 -194z" />
<glyph unicode="&#xf5;" d="M-16 451q0 135 52 255t144.5 208.5t230 140t300.5 51.5q285 0 442.5 -127.5t157.5 -353.5q0 -135 -52 -255t-144.5 -209t-230 -140.5t-300.5 -51.5q-285 0 -442.5 128t-157.5 354zM334 1219q44 110 126.5 174.5t180.5 64.5q60 0 139 -26l72 -25q46 -14 88 -14 q72 0 121 61l162 -86q-44 -111 -127 -175.5t-181 -64.5q-57 0 -139 27l-71 25q-46 14 -89 14q-71 0 -120 -61zM551 322q0 -56 39 -56q18 0 32 16t31 58q34 85 62 219t28 195q0 55 -38 55q-18 0 -32.5 -16.5t-31.5 -57.5q-34 -85 -62 -219t-28 -194z" />
<glyph unicode="&#xf6;" d="M-16 451q0 135 52 255t144.5 208.5t230 140t300.5 51.5q285 0 442.5 -127.5t157.5 -353.5q0 -135 -52 -255t-144.5 -209t-230 -140.5t-300.5 -51.5q-285 0 -442.5 128t-157.5 354zM379 1139l63 295h320l-64 -295h-319zM551 322q0 -56 39 -56q18 0 32 16t31 58 q34 85 62 219t28 195q0 55 -38 55q-18 0 -32.5 -16.5t-31.5 -57.5q-34 -85 -62 -219t-28 -194zM797 1139l63 295h320l-64 -295h-319z" />
<glyph unicode="&#xf7;" horiz-adv-x="1269" d="M88 500l76 356h1020l-76 -356h-1020zM317 70l74 342h377l-74 -342h-377zM504 942l71 342h377l-71 -342h-377z" />
<glyph unicode="&#xf8;" d="M-16 451q0 135 52 255t144.5 208.5t230 140t300.5 51.5q215 0 364 -76l131 125l84 -82l-116 -112q137 -125 137 -336q0 -135 -52 -255t-144.5 -209t-230 -140.5t-300.5 -51.5q-216 0 -365 76l-131 -125l-84 82l117 113q-137 125 -137 336zM551 322q0 -56 39 -56 q18 0 32 16t31 58q33 86 52 172l-152 -145q0 -10 -1 -25t-1 -20zM590 563l151 146q0 10 1 25t1 20q0 55 -38 55q-18 0 -32.5 -16.5t-31.5 -57.5q-30 -79 -51 -172z" />
<glyph unicode="&#xf9;" horiz-adv-x="1335" d="M-31 344l156 731h575l-143 -676q-7 -34 2.5 -48.5t36.5 -14.5q22 0 35 14.5t20 48.5l144 676h575l-229 -1075h-561l36 172q-131 -203 -360 -203q-171 0 -247.5 101t-39.5 274zM440 1434h449l33 -295h-316z" />
<glyph unicode="&#xfa;" horiz-adv-x="1335" d="M-31 344l156 731h575l-143 -676q-7 -34 2.5 -48.5t36.5 -14.5q22 0 35 14.5t20 48.5l144 676h575l-229 -1075h-561l36 172q-131 -203 -360 -203q-171 0 -247.5 101t-39.5 274zM594 1139l160 295h463l-299 -295h-324z" />
<glyph unicode="&#xfb;" horiz-adv-x="1335" d="M-31 344l156 731h575l-143 -676q-7 -34 2.5 -48.5t36.5 -14.5q22 0 35 14.5t20 48.5l144 676h575l-229 -1075h-561l36 172q-131 -203 -360 -203q-171 0 -247.5 101t-39.5 274zM287 1139l334 295h397l199 -295h-330l-94 116l-152 -116h-354z" />
<glyph unicode="&#xfc;" horiz-adv-x="1335" d="M-31 344l156 731h575l-143 -676q-7 -34 2.5 -48.5t36.5 -14.5q22 0 35 14.5t20 48.5l144 676h575l-229 -1075h-561l36 172q-131 -203 -360 -203q-171 0 -247.5 101t-39.5 274zM393 1139l64 295h319l-63 -295h-320zM811 1139l63 295h320l-64 -295h-319z" />
<glyph unicode="&#xfd;" horiz-adv-x="1286" d="M-115 -375l62 293q113 -20 223 -20q23 0 55 4l-131 1173h580l8 -510l225 510h457l-535 -1106q-99 -204 -243.5 -289.5t-395.5 -85.5q-140 0 -305 31zM629 1139l159 295h463l-299 -295h-323z" />
<glyph unicode="&#xfe;" horiz-adv-x="1347" d="M-174 -389l387 1823h575l-96 -455q120 127 289 127q154 0 242 -113.5t88 -324.5q0 -144 -44.5 -274.5t-117.5 -223t-171 -147t-202 -54.5q-97 0 -167.5 34t-104.5 97l-103 -489h-575zM551 322q0 -56 39 -56q18 0 32 16t31 58q34 85 62 219t28 195q0 55 -38 55 q-18 0 -32.5 -16.5t-31.5 -57.5q-34 -85 -62 -219t-28 -194z" />
<glyph unicode="&#xff;" horiz-adv-x="1286" d="M-115 -375l62 293q113 -20 223 -20q23 0 55 4l-131 1173h580l8 -510l225 510h457l-535 -1106q-99 -204 -243.5 -289.5t-395.5 -85.5q-140 0 -305 31zM428 1139l64 295h319l-63 -295h-320zM846 1139l63 295h320l-64 -295h-319z" />
<glyph unicode="&#x152;" horiz-adv-x="2070" d="M16 567q0 130 31 253t98.5 235t164 196t237.5 133.5t309 49.5h1333l-84 -398h-551l-24 -112h455l-84 -392h-455l-29 -135h551l-84 -397h-1272q-301 0 -448.5 149t-147.5 418zM657 481q0 -61 22 -84.5t75 -23.5h24l146 688h-39q-47 0 -77 -24.5t-50 -82.5 q-36 -106 -68.5 -257.5t-32.5 -215.5z" />
<glyph unicode="&#x153;" horiz-adv-x="2013" d="M-16 451q0 135 49.5 255t138.5 208.5t221.5 140t290.5 51.5q234 0 369 -129q160 129 391 129q260 0 397 -115t137 -309q0 -127 -36 -246h-668q-10 -68 -10 -98q0 -72 65 -72q82 0 164 123l422 -82q-101 -172 -259.5 -255t-383.5 -83q-206 0 -330 121q-156 -121 -364 -121 q-281 0 -437.5 128t-156.5 354zM551 322q0 -56 39 -56q18 0 32 16t31 58q34 85 62 219t28 195q0 55 -38 55q-18 0 -32.5 -16.5t-31.5 -57.5q-34 -85 -62 -219t-28 -194zM1323 657h131q14 65 14 97q0 59 -45 59t-73 -78q-3 -9 -12.5 -35.5t-14.5 -42.5z" />
<glyph unicode="&#x178;" horiz-adv-x="1536" d="M170 1434h635l84 -414l260 414h541l-654 -990l-94 -444h-635l94 442zM586 1497l59 275h320l-60 -275h-319zM1004 1497l59 275h319l-59 -275h-319z" />
<glyph unicode="&#x2c6;" d="M317 1139l334 295h398l198 -295h-329l-95 116l-151 -116h-355z" />
<glyph unicode="&#x2dc;" d="M360 1219q44 110 127 174.5t181 64.5q60 0 139 -26l72 -25q46 -14 88 -14q71 0 120 61l162 -86q-44 -111 -126.5 -175.5t-180.5 -64.5q-57 0 -139 27l-72 25q-46 14 -88 14q-72 0 -121 -61z" />
<glyph unicode="&#x2000;" horiz-adv-x="960" />
<glyph unicode="&#x2001;" horiz-adv-x="1921" />
<glyph unicode="&#x2002;" horiz-adv-x="960" />
<glyph unicode="&#x2003;" horiz-adv-x="1921" />
<glyph unicode="&#x2004;" horiz-adv-x="640" />
<glyph unicode="&#x2005;" horiz-adv-x="480" />
<glyph unicode="&#x2006;" horiz-adv-x="320" />
<glyph unicode="&#x2007;" horiz-adv-x="320" />
<glyph unicode="&#x2008;" horiz-adv-x="240" />
<glyph unicode="&#x2009;" horiz-adv-x="384" />
<glyph unicode="&#x200a;" horiz-adv-x="106" />
<glyph unicode="&#x2010;" horiz-adv-x="798" d="M18 524l82 383h697l-82 -383h-697z" />
<glyph unicode="&#x2011;" horiz-adv-x="798" d="M18 524l82 383h697l-82 -383h-697z" />
<glyph unicode="&#x2012;" horiz-adv-x="798" d="M18 524l82 383h697l-82 -383h-697z" />
<glyph unicode="&#x2013;" horiz-adv-x="1253" d="M18 524l82 383h1151l-82 -383h-1151z" />
<glyph unicode="&#x2014;" horiz-adv-x="1558" d="M18 524l82 383h1456l-81 -383h-1457z" />
<glyph unicode="&#x2018;" horiz-adv-x="595" d="M59 717l95 442l274 275h277l-232 -275h172l-94 -442h-492z" />
<glyph unicode="&#x2019;" horiz-adv-x="593" d="M59 717l232 274h-172l94 443h492l-95 -443l-274 -274h-277z" />
<glyph unicode="&#x201a;" horiz-adv-x="593" d="M-152 -274l232 274h-172l94 442h492l-95 -442l-274 -274h-277z" />
<glyph unicode="&#x201c;" horiz-adv-x="1138" d="M59 717l95 442l274 275h277l-232 -275h172l-94 -442h-492zM602 717l94 442l275 275h276l-231 -275h172l-94 -442h-492z" />
<glyph unicode="&#x201d;" horiz-adv-x="1136" d="M59 717l232 274h-172l94 443h492l-95 -443l-274 -274h-277zM602 717l232 274h-172l94 443h491l-94 -443l-274 -274h-277z" />
<glyph unicode="&#x201e;" horiz-adv-x="1136" d="M-152 -274l232 274h-172l94 442h492l-95 -442l-274 -274h-277zM391 -274l232 274h-172l94 442h491l-94 -442l-274 -274h-277z" />
<glyph unicode="&#x2022;" horiz-adv-x="868" d="M63 733q0 165 109 274t274 109q164 0 273.5 -109.5t109.5 -273.5t-109.5 -273.5t-273.5 -109.5q-165 0 -274 109t-109 274z" />
<glyph unicode="&#x2026;" horiz-adv-x="1761" d="M-92 0l100 469h492l-101 -469h-491zM492 0l100 469h491l-100 -469h-491zM1075 0l101 469h491l-100 -469h-492z" />
<glyph unicode="&#x202f;" horiz-adv-x="384" />
<glyph unicode="&#x2039;" horiz-adv-x="784" d="M53 614l332 461h416l-346 -469l133 -452h-400z" />
<glyph unicode="&#x203a;" horiz-adv-x="784" d="M-41 154l346 469l-133 452h399l136 -461l-332 -460h-416z" />
<glyph unicode="&#x205f;" horiz-adv-x="480" />
<glyph unicode="&#x20ac;" horiz-adv-x="1499" d="M-31 438l49 226h82q1 7 3 22.5t3 22.5h-77l47 225h98q95 215 282 338t433 123q294 0 437.5 -130.5t162.5 -392.5l-516 -34q-2 89 -11 136.5t-21.5 61t-35.5 13.5q-27 0 -48.5 -26t-45.5 -89h127l-47 -225h-148q-7 -25 -10 -45h148l-50 -226h-133v-30q0 -43 16.5 -68 t43.5 -25q90 0 143 244l529 -35q-66 -255 -256 -405t-469 -150q-260 0 -423 126.5t-188 342.5h-125z" />
<glyph unicode="&#x2122;" horiz-adv-x="1421" d="M158 1227l45 207h530l-45 -207h-139l-78 -371h-252l78 371h-139zM653 856l123 578h340l-31 -273l86 273h340l-122 -578h-230l84 393l-133 -393h-199l35 399l-84 -399h-209z" />
<glyph unicode="&#x25fc;" horiz-adv-x="1075" d="M0 0v1075h1075v-1075h-1075z" />
<glyph unicode="&#xfb01;" horiz-adv-x="1558" d="M-31 0l158 741h-107l72 334h107l2 10q38 179 168 271t381 92q147 0 272 -25l-61 -284q-54 6 -93 6q-48 0 -67 -13.5t-25 -44.5l-2 -12h174l-71 -334h-175l-157 -741h-576zM784 0l230 1075h575l-229 -1075h-576zM1026 1139l64 295h575l-63 -295h-576z" />
<glyph unicode="&#xfb02;" horiz-adv-x="1558" d="M-31 0l158 741h-107l72 334h107l2 10q38 179 168 271t381 92q147 0 272 -25l-61 -284q-54 6 -93 6q-48 0 -67 -13.5t-25 -44.5l-2 -12h174l-71 -334h-175l-157 -741h-576zM784 0l306 1434h575l-305 -1434h-576z" />
</font>
</defs>
</svg>
