<?xml version="1.0" standalone="no"?>
<!DOCTYPE svg PUBLIC "-//W3C//DTD SVG 1.1//EN" "http://www.w3.org/Graphics/SVG/1.1/DTD/svg11.dtd" >
<svg xmlns="http://www.w3.org/2000/svg">
<metadata></metadata>
<defs>
<font id="baltosuper_italic" horiz-adv-x="1269" >
<font-face units-per-em="2048" ascent="1659" descent="-389" />
<missing-glyph horiz-adv-x="403" />
<glyph horiz-adv-x="0" />
<glyph horiz-adv-x="682" />
<glyph unicode=" "  horiz-adv-x="403" />
<glyph unicode="&#x09;" horiz-adv-x="403" />
<glyph unicode="&#xa0;" horiz-adv-x="403" />
<glyph unicode="!" horiz-adv-x="776" d="M0 0l90 426h490l-91 -426h-489zM170 506l2 444l102 484h549l-102 -484l-189 -444h-362z" />
<glyph unicode="&#x22;" horiz-adv-x="1042" d="M115 780l112 654h410l-166 -654h-356zM616 780l113 654h410l-166 -654h-357z" />
<glyph unicode="#" horiz-adv-x="1337" d="M-66 289l103 284h182l78 218h-182l102 284h182l105 289h325l-104 -289h166l104 289h326l-104 -289h180l-103 -284h-180l-78 -218h181l-103 -284h-180l-105 -289h-325l104 289h-166l-104 -289h-326l105 289h-183zM545 573h166l77 218h-165z" />
<glyph unicode="$" horiz-adv-x="1325" d="M-57 170l192 315q105 -80 220 -125t208 -45q101 0 101 56q0 20 -19 35.5t-70 31.5l-155 47q-172 52 -253 148t-81 239q0 95 31 177.5t92.5 150.5t161 115.5t229.5 66.5l47 226h412l-51 -240q150 -41 305 -137l-195 -318q-215 146 -375 146q-98 0 -98 -47 q0 -19 16.5 -30.5t59.5 -25.5l162 -49q194 -59 279 -158.5t85 -242.5q0 -203 -143.5 -345.5t-390.5 -178.5l-47 -226h-412l51 244q-184 46 -362 170z" />
<glyph unicode="%" horiz-adv-x="1769" d="M106 967q0 87 38 167.5t100 137t143 90t164 33.5q180 0 278.5 -90t98.5 -248q0 -87 -38 -167.5t-100 -137t-143 -90t-164 -33.5q-180 0 -278.5 90t-98.5 248zM119 0l1306 1364h228l-1307 -1364h-227zM434 915q0 -77 51 -77q30 0 56 43q21 34 40 103t19 124q0 78 -51 78 q-29 0 -55 -43q-21 -34 -40.5 -103.5t-19.5 -124.5zM844 307q0 116 64 216t166 156t214 56q180 0 278.5 -90t98.5 -248q0 -116 -64 -216t-166.5 -156t-215.5 -56q-179 0 -277 90t-98 248zM1171 256q0 -78 52 -78q29 0 55 43q21 34 40 103.5t19 124.5q0 77 -51 77 q-29 0 -55 -43q-21 -34 -40.5 -103t-19.5 -124z" />
<glyph unicode="&#x26;" horiz-adv-x="1646" d="M-33 358q0 163 89 273t286 170q-51 121 -51 221q0 206 147 324t412 118q248 0 375 -88.5t127 -238.5q0 -119 -93.5 -223t-295.5 -175q52 -47 159 -127q63 101 105 203l354 -94q-64 -163 -174 -303q49 -17 98 -17h17l-84 -401h-45q-101 0 -185 21.5t-182 74.5 q-238 -127 -500 -127q-267 0 -413 104.5t-146 284.5zM473 426q0 -72 45 -112t127 -40q40 0 103 17q-137 116 -242 246q-33 -47 -33 -111zM756 1042q0 -60 35 -116q127 54 127 159q0 37 -19.5 58.5t-54.5 21.5q-42 0 -65 -32t-23 -91z" />
<glyph unicode="'" horiz-adv-x="540" d="M115 780l112 654h410l-166 -654h-356z" />
<glyph unicode="(" horiz-adv-x="921" d="M49 416q0 300 154.5 599.5t433.5 540.5h440q-270 -267 -407.5 -571.5t-137.5 -585.5q0 -186 40.5 -362t115.5 -307h-432q-207 308 -207 686z" />
<glyph unicode=")" horiz-adv-x="921" d="M-168 -270q270 267 407.5 571.5t137.5 585.5q0 186 -40.5 362t-115.5 307h430q207 -304 207 -686q0 -300 -153.5 -599.5t-432.5 -540.5h-440z" />
<glyph unicode="*" horiz-adv-x="892" d="M113 1022l166 334l180 -168l-49 246h366l-164 -269l262 189l58 -348l-279 16l207 -182l-321 -181l-35 269l-127 -269l-258 218l270 151z" />
<glyph unicode="+" d="M94 518l70 324h330l73 346h353l-74 -346h332l-70 -324h-330l-73 -348h-355l74 348h-330z" />
<glyph unicode="," horiz-adv-x="620" d="M-125 -328l225 328h-163l94 444h461l-95 -444l-268 -328h-254z" />
<glyph unicode="-" horiz-adv-x="823" d="M33 524l84 389h692l-84 -389h-692z" />
<glyph unicode="." horiz-adv-x="620" d="M-63 0l94 444h461l-95 -444h-460z" />
<glyph unicode="/" horiz-adv-x="1169" d="M-238 -287l1149 1884h441l-1151 -1884h-439z" />
<glyph unicode="0" horiz-adv-x="1415" d="M14 508q0 260 96 461.5t275 313.5t414 112q284 0 445 -148.5t161 -390.5q0 -260 -96 -461.5t-274.5 -313.5t-413.5 -112q-284 0 -445.5 148.5t-161.5 390.5zM557 406q0 -117 78 -117q40 0 78 63q51 88 99 281t48 328q0 116 -76 116q-40 0 -77 -63q-52 -91 -101 -282.5 t-49 -325.5z" />
<glyph unicode="1" horiz-adv-x="1167" d="M-68 0l72 330h254l127 594q-94 -40 -274 -88l75 362q206 67 402 166h432l-221 -1034h235l-69 -330h-1033z" />
<glyph unicode="2" horiz-adv-x="1261" d="M-98 0l84 387l393 221q149 81 233 151.5t112 126.5t28 122q0 69 -58 69q-77 0 -133 -235l-498 37q58 233 237.5 374.5t453.5 141.5q259 0 396.5 -104.5t137.5 -272.5q0 -424 -731 -629h592l-84 -389h-1163z" />
<glyph unicode="3" horiz-adv-x="1316" d="M-16 424q0 29 2 43l508 29q-7 -44 -7 -80q0 -69 26 -104.5t69 -35.5q44 0 75 49t31 124q0 63 -22.5 85.5t-85.5 22.5h-168l61 289h162q145 0 145 170q0 71 -59 71q-38 0 -66 -41t-55 -143l-496 43q23 98 75 178t132.5 141.5t197.5 95.5t261 34q279 0 422 -96t143 -255 q0 -114 -86 -203t-250 -128q126 -37 183 -112t57 -167q0 -94 -46 -178t-129.5 -148t-212.5 -101.5t-284 -37.5q-296 0 -439.5 120.5t-143.5 334.5z" />
<glyph unicode="4" horiz-adv-x="1374" d="M-59 276l71 330l676 758h651l-155 -733h143l-74 -355h-145l-59 -276h-541l59 276h-626zM444 631h197l70 327z" />
<glyph unicode="5" horiz-adv-x="1298" d="M-14 379q0 30 6 51l495 35q-4 -25 -4 -45q0 -65 21.5 -99t58.5 -34q48 0 80.5 65t32.5 166q0 86 -60 86q-51 0 -88 -78l-477 54l211 784h1043l-78 -367h-639l-58 -213q69 66 152 104t166 38q178 0 276.5 -100.5t98.5 -284.5q0 -115 -44.5 -217.5t-127.5 -182t-212 -126 t-286 -46.5q-273 0 -420 108t-147 302z" />
<glyph unicode="6" horiz-adv-x="1366" d="M14 504q0 264 100 467t278.5 313.5t408.5 110.5q265 0 408 -104t143 -271q0 -11 -2 -25l-504 -37q2 16 2 25q0 94 -70 94q-107 0 -182 -327q80 82 163.5 118.5t182.5 36.5q90 0 161.5 -31t116.5 -84.5t68 -122t23 -147.5q0 -112 -49.5 -212.5t-137 -175.5t-216.5 -119 t-279 -44q-294 0 -454.5 144.5t-160.5 390.5zM549 377q0 -101 69 -101q52 0 89.5 63t37.5 155q0 100 -69 100q-52 0 -89.5 -62.5t-37.5 -154.5z" />
<glyph unicode="7" horiz-adv-x="1167" d="M86 0q69 298 212.5 536.5t393.5 440.5h-602l82 387h1118l-86 -401q-209 -135 -334.5 -355t-218.5 -608h-565z" />
<glyph unicode="8" horiz-adv-x="1368" d="M-43 358q0 129 87.5 221.5t266.5 133.5q-178 93 -178 272q0 79 41.5 151.5t119.5 131t204.5 93t283.5 34.5q277 0 427.5 -104t150.5 -261q0 -106 -80.5 -189t-222.5 -124q117 -44 175 -123t58 -174q0 -196 -190.5 -323.5t-515.5 -127.5q-310 0 -468.5 108.5t-158.5 280.5 zM512 379q0 -43 27 -68.5t73 -25.5q56 0 93.5 42t37.5 101q0 44 -27 69t-73 25q-56 0 -93.5 -42t-37.5 -101zM631 938q0 -42 24.5 -64t69.5 -22q52 0 88.5 41t36.5 100q0 42 -24.5 64t-69.5 22q-52 0 -88.5 -41t-36.5 -100z" />
<glyph unicode="9" horiz-adv-x="1368" d="M-16 365q0 18 4 43l506 36q-2 -12 -2 -20q0 -137 96 -137q55 0 100.5 76.5t87.5 263.5q-145 -129 -307 -129q-192 0 -296.5 98.5t-104.5 265.5q0 108 44 203t127 169.5t215.5 117.5t297.5 43q290 0 448 -144t158 -391q0 -261 -97.5 -462.5t-281.5 -315t-428 -113.5 q-263 0 -415 109t-152 287zM629 895q0 -43 20 -68.5t56 -25.5q51 0 85.5 55.5t34.5 134.5q0 45 -19.5 70.5t-55.5 25.5q-51 0 -86 -56t-35 -136z" />
<glyph unicode=":" horiz-adv-x="671" d="M-37 0l94 444h461l-94 -444h-461zM84 575l94 445h461l-94 -445h-461z" />
<glyph unicode=";" horiz-adv-x="671" d="M-98 -328l225 328h-164l94 444h461l-94 -444l-270 -328h-252zM84 575l94 445h461l-94 -445h-461z" />
<glyph unicode="&#x3c;" d="M82 498l76 362l1097 381l-79 -375l-672 -202l586 -203l-74 -344z" />
<glyph unicode="=" d="M49 295l68 311h1007l-67 -311h-1008zM147 752l64 311h1010l-66 -311h-1008z" />
<glyph unicode="&#x3e;" d="M16 117l80 377l674 200l-588 203l74 344l934 -381l-76 -362z" />
<glyph unicode="?" horiz-adv-x="1359" d="M115 1022q62 201 234.5 321.5t443.5 120.5q288 0 439.5 -108t151.5 -297q0 -196 -131.5 -319t-402.5 -154l-19 -80h-489l76 360h233q86 0 130 43t44 125q0 90 -80 90q-86 0 -133 -141zM236 0l90 426h489l-90 -426h-489z" />
<glyph unicode="@" horiz-adv-x="1904" d="M12 403q0 201 74 379t207 309t329.5 207t430.5 76q373 0 585.5 -181t212.5 -493q0 -306 -168.5 -495t-431.5 -189q-101 0 -179.5 42.5t-104.5 117.5q-110 -160 -281 -160q-131 0 -223 109.5t-92 292.5q0 118 36.5 225.5t96.5 184t139 122t162 45.5q78 0 140.5 -39.5 t94.5 -111.5l25 119h432l-135 -633q-10 -50 2 -71t49 -21q80 0 154.5 133.5t74.5 328.5q0 239 -146.5 364.5t-442.5 125.5q-195 0 -353.5 -61t-262.5 -167.5t-160 -249.5t-56 -309q0 -571 613 -571q177 0 423 59l35 -165q-89 -30 -226.5 -53t-231.5 -23q-183 0 -333.5 48.5 t-259.5 142t-169 237t-60 325.5zM797 354q0 -90 53 -90q31 0 55 47q30 58 57 169.5t27 178.5q0 91 -53 91q-30 0 -55 -48q-30 -58 -57 -169.5t-27 -178.5z" />
<glyph unicode="A" horiz-adv-x="1519" d="M-135 0l702 1434h711l90 -1434h-569l-4 217h-344l-97 -217h-489zM602 559h186l-6 408z" />
<glyph unicode="B" horiz-adv-x="1464" d="M-70 0l306 1434h788q234 0 347.5 -88.5t113.5 -245.5q0 -139 -112.5 -238.5t-295.5 -122.5q309 -40 309 -288q0 -95 -37.5 -176t-110.5 -143t-189.5 -97t-264.5 -35h-854zM561 309h92q172 0 172 166q0 53 -30.5 75.5t-98.5 22.5h-78zM684 881h82q79 0 121.5 39.5 t42.5 115.5q0 48 -30 68t-95 20h-70z" />
<glyph unicode="C" horiz-adv-x="1474" d="M29 567q0 189 58 353.5t164 285t263 189.5t346 69q299 0 456 -148t163 -425l-523 -33q1 31 1 58q0 60 -6 98q-9 56 -29.5 77t-59.5 21q-41 0 -70 -25t-57 -83q-49 -98 -92 -275t-43 -268q0 -139 105 -139q62 0 110 58t90 210l514 -41q-148 -580 -766 -580 q-292 0 -458 162t-166 436z" />
<glyph unicode="D" horiz-adv-x="1507" d="M-70 0l306 1434h669q301 0 448.5 -150t147.5 -416q0 -131 -30.5 -254.5t-96 -235.5t-160 -195.5t-232 -133t-302.5 -49.5h-750zM571 348h74q101 0 156 96q49 88 88 233t39 257q0 79 -34.5 115t-115.5 36h-51z" />
<glyph unicode="E" horiz-adv-x="1267" d="M-70 0l306 1434h1134l-80 -369h-567l-33 -154h473l-78 -362h-471l-39 -180h568l-78 -369h-1135z" />
<glyph unicode="F" horiz-adv-x="1236" d="M-70 0l306 1434h1128l-80 -369h-561l-49 -229h477l-76 -363h-477l-100 -473h-568z" />
<glyph unicode="G" horiz-adv-x="1488" d="M23 473q0 165 34.5 313.5t103.5 272.5t168 214t234.5 140.5t294.5 50.5q295 0 447 -125.5t163 -371.5l-507 -17q-6 86 -31 125t-74 39q-28 0 -50.5 -19.5t-49.5 -60.5q-62 -98 -111 -282t-49 -291q0 -152 106 -152q51 0 92 43t56 115l8 35h-158l70 336h684l-180 -838 h-414l10 166q-135 -197 -391 -197q-210 0 -333 135t-123 369z" />
<glyph unicode="H" horiz-adv-x="1497" d="M-70 0l306 1434h567l-105 -494h215l105 494h565l-305 -1434h-565l106 498h-215l-106 -498h-568z" />
<glyph unicode="I" horiz-adv-x="731" d="M-61 0l305 1434h567l-305 -1434h-567z" />
<glyph unicode="J" horiz-adv-x="1056" d="M-104 76l161 375q102 -52 197 -52q58 0 92 32t49 104l191 899h567l-192 -895q-62 -289 -208 -422t-388 -133q-115 0 -243.5 25t-225.5 67z" />
<glyph unicode="K" horiz-adv-x="1519" d="M-70 0l306 1434h567l-101 -473l328 473h598l-471 -590l205 -844h-606l-82 430l-113 -133l-63 -297h-568z" />
<glyph unicode="L" horiz-adv-x="1232" d="M-70 0l306 1434h567l-219 -1024h536l-86 -410h-1104z" />
<glyph unicode="M" horiz-adv-x="1921" d="M-70 0l306 1434h761l-22 -721l280 721h754l-305 -1434h-528l188 889l-367 -889h-440l10 889l-188 -889h-449z" />
<glyph unicode="N" horiz-adv-x="1466" d="M-70 0l306 1434h481l235 -570l121 570h479l-305 -1434h-463l-245 602l-127 -602h-482z" />
<glyph unicode="O" horiz-adv-x="1521" d="M29 565q0 189 57.5 353t163 285.5t264 191t350.5 69.5q299 0 472 -162.5t173 -433.5q0 -189 -57.5 -353t-163 -285.5t-264 -191t-350.5 -69.5q-299 0 -472 162.5t-173 433.5zM600 461q0 -139 88 -139q27 0 48.5 18.5t45.5 58.5q55 89 105.5 278.5t50.5 295.5 q0 139 -88 139q-27 0 -48 -18.5t-46 -59.5q-55 -89 -105.5 -278t-50.5 -295z" />
<glyph unicode="P" horiz-adv-x="1468" d="M-70 0l306 1434h716q553 0 553 -437q0 -119 -46 -225t-131 -187.5t-218 -129t-297 -47.5h-229l-86 -408h-568zM657 750h76q191 0 191 235q0 58 -29 82.5t-96 24.5h-70z" />
<glyph unicode="Q" horiz-adv-x="1521" d="M29 565q0 189 57.5 353t163 285.5t264 191t350.5 69.5q299 0 472 -162.5t173 -433.5q0 -264 -108.5 -474t-306.5 -322q33 -29 116 -29q65 0 111 4l-74 -344q-74 -8 -135 -8q-168 0 -260.5 68t-118.5 208q-18 -2 -59 -2q-299 0 -472 162.5t-173 433.5zM600 461 q0 -139 88 -139q27 0 48.5 18.5t45.5 58.5q55 89 105.5 278.5t50.5 295.5q0 139 -88 139q-27 0 -48 -18.5t-46 -59.5q-55 -89 -105.5 -278t-50.5 -295z" />
<glyph unicode="R" horiz-adv-x="1495" d="M-70 0l306 1434h725q280 0 419.5 -110t139.5 -306q0 -139 -90 -258.5t-263 -190.5l166 -569h-581l-97 469h-57l-100 -469h-568zM670 811h78q84 0 131 48t47 138q0 51 -31 76t-98 25h-66z" />
<glyph unicode="S" horiz-adv-x="1392" d="M-82 197l238 321q114 -90 230 -137t212 -47q107 0 107 59q0 20 -17 35t-61 29l-158 53q-202 68 -283.5 162.5t-81.5 249.5q0 79 25 155t80.5 146.5t135 123.5t197.5 85t259 32q343 0 622 -196l-229 -312q-214 158 -399 158q-105 0 -105 -57q0 -21 15.5 -34t60.5 -28 l143 -47q220 -72 310 -175.5t90 -256.5q0 -115 -50.5 -216t-139.5 -174.5t-219 -116t-282 -42.5q-211 0 -390 61.5t-310 168.5z" />
<glyph unicode="T" horiz-adv-x="1341" d="M117 1026l86 408h1257l-86 -408h-344l-219 -1026h-569l217 1026h-342z" />
<glyph unicode="U" horiz-adv-x="1460" d="M47 584l180 850h566l-195 -922q-9 -38 -9 -67q1 -31 11 -53q20 -40 76 -40q102 0 137 160l199 922h544l-182 -850q-65 -309 -249.5 -462t-495.5 -153q-335 1 -490 163q-110 116 -110 295q0 73 18 157z" />
<glyph unicode="V" horiz-adv-x="1445" d="M170 1434h573l-2 -842l363 842h493l-669 -1434h-697z" />
<glyph unicode="W" horiz-adv-x="2078" d="M129 0l53 1434h543l-61 -789l305 789h520l-33 -789l277 789h487l-559 -1434h-637l39 774l-289 -774h-645z" />
<glyph unicode="X" horiz-adv-x="1593" d="M-139 0l592 731l-254 703h622l97 -301l227 301h567l-543 -670l273 -764h-631l-109 350l-262 -350h-579z" />
<glyph unicode="Y" horiz-adv-x="1484" d="M172 1434h569l95 -459l290 459h508l-657 -981l-96 -453h-566l97 453z" />
<glyph unicode="Z" horiz-adv-x="1298" d="M-92 0l84 406l633 620h-480l88 408h1176l-86 -406l-633 -620h494l-86 -408h-1190z" />
<glyph unicode="[" horiz-adv-x="907" d="M-74 -270l389 1826h715l-82 -374h-223l-229 -1078h225l-80 -374h-715z" />
<glyph unicode="\" horiz-adv-x="1169" d="M211 1597h414l372 -1884h-411z" />
<glyph unicode="]" horiz-adv-x="907" d="M-135 -270l80 374h225l227 1078h-223l80 374h715l-389 -1826h-715z" />
<glyph unicode="^" horiz-adv-x="1112" d="M8 600l477 834h465l121 -834h-393l-35 465l-233 -465h-402z" />
<glyph unicode="_" horiz-adv-x="1183" d="M-233 -414l73 346h1188l-72 -346h-1189z" />
<glyph unicode="`" horiz-adv-x="1282" d="M414 1434h411l43 -299h-288z" />
<glyph unicode="a" horiz-adv-x="1234" d="M-53 256q0 192 156.5 299t494.5 107h70l10 45q4 21 4 38q0 58 -55 58q-32 0 -54.5 -24.5t-40.5 -82.5l-450 41q48 166 192.5 262.5t380.5 96.5q315 0 439 -128q88 -92 89 -236q0 -57 -14 -122l-127 -610h-503l30 150q-57 -77 -142 -123.5t-175 -46.5q-146 0 -225.5 75 t-79.5 201zM455 326q0 -32 16 -50t45 -18q67 0 90 107l23 104q-81 -3 -127.5 -43t-46.5 -100z" />
<glyph unicode="b" horiz-adv-x="1284" d="M-82 0l305 1434h514l-100 -476q111 138 270 138q153 0 241.5 -115t88.5 -324q0 -186 -70 -345t-189 -251t-257 -92q-97 0 -167 42t-103 116l-27 -127h-506zM504 328q0 -82 55 -82q32 0 64 55q37 67 71.5 207.5t34.5 230.5q0 82 -55 82q-32 0 -64 -55 q-37 -67 -71.5 -207.5t-34.5 -230.5z" />
<glyph unicode="c" horiz-adv-x="1224" d="M-8 442q0 134 48 253t134.5 208t217 141t286.5 52q250 0 379.5 -114.5t132.5 -328.5l-467 -28q10 72 10 102q0 88 -59 88q-32 0 -66 -55q-42 -70 -76 -203t-34 -217q0 -88 61 -88q37 0 68.5 44t66.5 157l455 -37q-51 -205 -220.5 -326t-402.5 -121q-248 0 -391 126.5 t-143 346.5z" />
<glyph unicode="d" horiz-adv-x="1284" d="M-12 408q0 186 70 345t188.5 251t255.5 92q95 0 164.5 -38.5t101.5 -109.5l104 486h514l-305 -1434h-508l27 121q-54 -70 -126.5 -111t-156.5 -41q-153 0 -241 115.5t-88 323.5zM496 328q0 -82 55 -82q31 0 63 55q37 67 72 208t35 230q0 82 -55 82q-32 0 -64 -55 q-37 -67 -71.5 -207.5t-34.5 -230.5z" />
<glyph unicode="e" horiz-adv-x="1226" d="M-10 434q0 136 48 256.5t134.5 210.5t216 142.5t283.5 52.5q250 0 381 -113.5t131 -306.5q0 -96 -35 -238h-649q-8 -41 -8 -86q0 -106 81 -106q82 0 168 131l381 -80q-100 -167 -246 -247.5t-354 -80.5q-245 0 -388.5 126t-143.5 339zM551 653h166q10 55 10 90 q0 82 -59 82q-36 0 -68 -55q-24 -43 -49 -117z" />
<glyph unicode="f" horiz-adv-x="829" d="M-16 0l161 762h-118l65 303h119l6 31q37 174 159.5 263t360.5 89q127 0 242 -23l-59 -276q-46 8 -93 8q-49 0 -69.5 -14.5t-28.5 -48.5l-6 -29h180l-65 -303h-179l-161 -762h-514z" />
<glyph unicode="g" horiz-adv-x="1224" d="M-170 -156q0 84 64.5 145t199.5 85q-66 21 -99.5 62t-33.5 91q0 77 56 132.5t192 84.5q-168 85 -168 248q0 186 158 295t440 109q204 0 334 -62q35 94 102 137t180 43h50l-64 -299q-91 -3 -121 -12q29 -60 29 -119q0 -187 -157.5 -296t-440.5 -109q-61 0 -113 6 q-43 -16 -43 -43q0 -29 66 -29q231 0 333.5 -20.5t172.5 -65.5q50 -33 79 -88t29 -114q0 -195 -188 -315t-498 -120q-281 0 -420 69.5t-139 184.5zM272 -111q0 -69 129 -69q81 0 125.5 24t44.5 60q0 32 -32.5 47.5t-116.5 15.5q-74 0 -112 -21.5t-38 -56.5zM504 662 q0 -84 61 -84q20 0 35.5 12t34.5 41q22 37 37.5 91.5t15.5 92.5q0 41 -16.5 62.5t-44.5 21.5q-39 0 -70 -53q-23 -36 -38 -90t-15 -94z" />
<glyph unicode="h" d="M-82 0l305 1434h514l-112 -529q131 191 333 191q164 0 236 -100q48 -66 48 -165q0 -51 -13 -110l-152 -721h-514l139 653q5 23 5 40q0 21 -7 33q-12 22 -47 22q-33 0 -54 -25.5t-34 -87.5l-133 -635h-514z" />
<glyph unicode="i" horiz-adv-x="649" d="M-76 0l228 1065h514l-228 -1065h-514zM166 1135l63 299h514l-63 -299h-514z" />
<glyph unicode="j" horiz-adv-x="649" d="M-324 -383l60 272q62 -4 88 -4q40 0 61.5 16t28.5 52l238 1112h514l-234 -1096q-80 -377 -500 -377q-102 0 -256 25zM166 1135l63 299h514l-63 -299h-514z" />
<glyph unicode="k" horiz-adv-x="1310" d="M-82 0l305 1434h514l-151 -715l299 346h483l-389 -436l174 -629h-532l-64 289l-80 -80l-45 -209h-514z" />
<glyph unicode="l" horiz-adv-x="649" d="M-76 0l305 1434h514l-305 -1434h-514z" />
<glyph unicode="m" horiz-adv-x="1896" d="M-82 0l225 1065h506l-37 -172q132 203 357 203q115 0 183.5 -55t80.5 -156q132 211 358 211q159 0 229 -102q45 -66 46 -164q0 -52 -13 -113l-149 -717h-514l137 653q5 27 5 46q0 17 -4 27q-9 22 -40 22q-34 0 -54 -26.5t-32 -86.5l-135 -635h-514l139 653q5 24 5 42 q0 53 -44 53q-35 0 -54.5 -26t-33.5 -87l-133 -635h-514z" />
<glyph unicode="n" d="M-82 0l225 1065h506l-35 -168q131 199 344 199q164 0 236 -100q48 -66 48 -165q0 -51 -13 -110l-152 -721h-514l139 653q5 23 5 40q0 21 -7 33q-12 22 -47 22q-33 0 -54 -25.5t-34 -87.5l-133 -635h-514z" />
<glyph unicode="o" horiz-adv-x="1282" d="M-8 442q0 134 48 253t134.5 208t216.5 141t285 52q261 0 408 -125t147 -348q0 -134 -48 -253t-134.5 -208t-217 -141t-286.5 -52q-261 0 -407 125t-146 348zM498 328q0 -82 55 -82q31 0 63 55q37 67 72 208t35 230q0 82 -55 82q-32 0 -64 -55q-37 -67 -71.5 -207.5 t-34.5 -230.5z" />
<glyph unicode="p" horiz-adv-x="1284" d="M-164 -389l307 1454h506l-24 -121q117 152 282 152q153 0 241.5 -115t88.5 -324q0 -186 -70 -345t-189 -251t-257 -92q-94 0 -162.5 39t-101.5 109l-107 -506h-514zM504 328q0 -82 55 -82q32 0 64 55q37 67 71.5 207.5t34.5 230.5q0 82 -55 82q-32 0 -64 -55 q-37 -67 -71.5 -207.5t-34.5 -230.5z" />
<glyph unicode="q" horiz-adv-x="1284" d="M-12 408q0 186 70 345t188.5 251t255.5 92q98 0 169.5 -42.5t102.5 -117.5l27 129h506l-308 -1454h-514l105 498q-116 -140 -273 -140q-153 0 -241 115.5t-88 323.5zM496 328q0 -82 55 -82q31 0 63 55q37 67 72 208t35 230q0 82 -55 82q-32 0 -64 -55 q-37 -67 -71.5 -207.5t-34.5 -230.5z" />
<glyph unicode="r" horiz-adv-x="913" d="M-82 0l225 1065h506l-45 -211q123 223 326 223q23 0 47 -6l-105 -483q-86 12 -141 12q-101 0 -143 -30.5t-60 -108.5l-96 -461h-514z" />
<glyph unicode="s" horiz-adv-x="1134" d="M-84 115l158 262q89 -61 191.5 -97t178.5 -36q91 0 91 43q0 32 -70 47l-127 28q-159 35 -229 111.5t-70 218.5q0 79 39 151t110 128.5t183 90.5t247 34q258 0 474 -119l-152 -260q-83 53 -172.5 80.5t-155.5 27.5q-73 0 -73 -39q0 -18 14.5 -29t50.5 -18l117 -24 q172 -36 247.5 -114t75.5 -208q0 -178 -162 -301t-429 -123q-316 0 -537 146z" />
<glyph unicode="t" horiz-adv-x="899" d="M27 762l65 303h131l60 276h514l-60 -276h226l-66 -303h-225l-76 -359q-4 -19 -4 -34q0 -27 12 -41q20 -23 82 -23q43 0 117 8l-66 -301q-157 -35 -309 -35q-226 0 -308 107q-54 70 -55 183q0 59 15 128l78 367h-131z" />
<glyph unicode="u" d="M-18 344l151 721h514l-139 -653q-4 -21 -5 -38q0 -57 54 -57q33 0 53.5 26t32.5 87l135 635h514l-225 -1065h-508l35 168q-128 -199 -342 -199q-165 1 -236 101q-47 66 -47 163q0 51 13 111z" />
<glyph unicode="v" horiz-adv-x="1202" d="M98 1065h514l-16 -639l256 639h430l-489 -1065h-658z" />
<glyph unicode="w" horiz-adv-x="1740" d="M78 0l14 1065h504l-43 -576l235 576h414l-8 -571l201 571h411l-438 -1065h-551l14 508l-200 -508h-553z" />
<glyph unicode="x" horiz-adv-x="1298" d="M-131 0l459 526l-211 539h520l74 -205l166 205h475l-434 -496l227 -569h-539l-74 219l-178 -219h-485z" />
<glyph unicode="y" horiz-adv-x="1228" d="M-104 -379l59 283q116 -19 190 -19q61 0 91 13l-140 1167h522l19 -565l248 565h422l-547 -1114q-94 -194 -230.5 -275.5t-371.5 -81.5q-117 0 -262 27z" />
<glyph unicode="z" horiz-adv-x="1042" d="M-121 0l60 276l497 486h-379l66 303h979l-60 -277l-495 -483h391l-66 -305h-993z" />
<glyph unicode="{" horiz-adv-x="1019" d="M20 483l78 373h115q37 0 55 16t25 58l43 203q51 235 160 329t325 94h322l-80 -374h-154q-44 0 -64 -19t-30 -71l-33 -148q-29 -124 -85.5 -188t-172.5 -88q103 -30 135.5 -97t8.5 -174l-45 -204q-10 -50 4 -69.5t57 -19.5h150l-80 -374h-271q-229 0 -315 101.5t-39 326.5 l53 256q9 39 -1 54t-44 15h-117z" />
<glyph unicode="|" horiz-adv-x="919" d="M43 -287l401 1884h422l-401 -1884h-422z" />
<glyph unicode="}" horiz-adv-x="1019" d="M-135 -270l80 374h153q45 0 65.5 19.5t29.5 71.5l45 200q27 124 83.5 188.5t172.5 88.5q-104 30 -136 96.5t-8 173.5l35 152q10 50 -3.5 69t-57.5 19h-150l80 374h270q230 0 317 -101.5t38 -326.5l-43 -202q-9 -40 1 -55t44 -15h118l-77 -373h-117q-36 0 -54.5 -15.5 t-25.5 -57.5l-53 -256q-49 -235 -159 -329.5t-327 -94.5h-321z" />
<glyph unicode="~" horiz-adv-x="1146" d="M121 1126q183 322 397 322q47 0 91 -14.5t116 -51.5l47 -24q47 -25 66 -32t43 -7q67 0 155 123l215 -156q-183 -321 -397 -321q-52 0 -97 13t-110 52l-45 27q-42 25 -63 32t-47 7q-70 0 -154 -125z" />
<glyph unicode="&#xa1;" horiz-adv-x="776" d="M-68 -180l103 483l188 445h363l-2 -445l-103 -483h-549zM176 827l90 426h490l-90 -426h-490z" />
<glyph unicode="&#xa2;" horiz-adv-x="1224" d="M-8 442q0 236 140 412t380 225l51 230h412l-55 -250q132 -45 200 -148.5t70 -257.5l-467 -28q10 72 10 102q0 88 -59 88q-32 0 -66 -55q-42 -70 -76 -203t-34 -217q0 -88 61 -88q37 0 68.5 44t66.5 157l455 -37q-41 -166 -162.5 -278.5t-294.5 -149.5l-47 -232h-412 l52 252q-139 52 -216 164t-77 270z" />
<glyph unicode="&#xa3;" horiz-adv-x="1306" d="M-98 0l59 281q176 71 236 194h-195l55 262h129q-3 8 -12 34t-13 38t-9.5 34.5t-8 42.5t-2.5 42q0 96 41 181t117 148.5t192.5 100.5t258.5 37q262 0 407 -130.5t160 -383.5l-467 -35q-9 135 -29.5 183t-62.5 48q-39 0 -61.5 -37.5t-22.5 -109.5q0 -27 4 -55t8 -46 t12 -47.5t11 -44.5h315l-55 -262h-291q-54 -91 -162 -145h660l-72 -330h-1202z" />
<glyph unicode="&#xa5;" horiz-adv-x="1411" d="M6 152l49 219h307l15 67h-309l47 219h213l-172 707h563l76 -412l254 412h499l-475 -707h215l-45 -219h-311l-14 -67h311l-49 -219h-308l-32 -152h-557l32 152h-309z" />
<glyph unicode="&#xa6;" horiz-adv-x="917" d="M43 -287l166 776h422l-166 -776h-422zM279 821l165 776h422l-166 -776h-421z" />
<glyph unicode="&#xa7;" horiz-adv-x="1382" d="M-152 -227l205 301q91 -65 224.5 -109.5t234.5 -44.5q104 0 104 49q0 20 -15 33t-60 27l-258 86q-146 49 -214.5 125.5t-68.5 185.5q0 102 63.5 185t190.5 137q-72 91 -72 206q0 94 41 174t119 139.5t199.5 93.5t273.5 34q333 0 584 -181l-199 -288q-103 70 -211.5 107.5 t-197.5 37.5q-99 0 -99 -51q0 -20 16 -34.5t56 -27.5l262 -86q283 -95 283 -311q0 -101 -63 -183.5t-185 -135.5q69 -87 69 -211q0 -193 -176 -320t-485 -127q-332 0 -621 189zM444 553q0 -53 78 -78l314 -102q36 27 36 63q0 25 -18 42.5t-63 31.5l-314 102q-33 -26 -33 -59 z" />
<glyph unicode="&#xa8;" horiz-adv-x="1282" d="M350 1137l64 295h313l-63 -295h-314zM760 1137l61 295h314l-62 -295h-313z" />
<glyph unicode="&#xa9;" horiz-adv-x="1720" d="M123 707v20q0 206 96.5 375t265.5 265.5t375 96.5h21q206 0 375 -96.5t265.5 -265.5t96.5 -375v-20q0 -154 -57 -291t-154.5 -235t-234.5 -155t-291 -57h-21q-154 0 -291 57t-234.5 155t-154.5 235t-57 291zM256 709q0 -128 46.5 -242t126.5 -196t192.5 -129.5 t240.5 -47.5h17q128 0 240.5 47.5t192.5 129.5t126.5 196t46.5 242v16q0 171 -78.5 311.5t-218 221.5t-309.5 81h-17q-170 0 -309.5 -81t-218 -221.5t-78.5 -311.5v-16zM440 711v12q0 214 116.5 336.5t320.5 122.5q170 0 273.5 -99t115.5 -264l-322 -26q-14 141 -78 141 q-41 0 -62.5 -47t-21.5 -164v-12q0 -117 21.5 -164t64.5 -47q34 0 57.5 36.5t32.5 110.5l322 -26q-12 -162 -121.5 -265.5t-281.5 -103.5q-204 0 -320.5 122.5t-116.5 336.5z" />
<glyph unicode="&#xaa;" horiz-adv-x="991" d="M57 766q0 53 15.5 96t55 82t103 65.5t164 42t232.5 15.5h2l6 33q15 76 -41 76q-25 0 -43 -18.5t-33 -61.5l-346 32q46 123 162.5 195t296.5 72q228 0 325.5 -98.5t59.5 -272.5l-96 -451h-385l24 115q-101 -131 -262 -131q-110 0 -175 57t-65 152zM465 819q0 -55 49 -55 q51 0 68 84l16 80q-133 -9 -133 -109z" />
<glyph unicode="&#xab;" horiz-adv-x="1294" d="M57 616l332 449h395l-348 -459l139 -438h-376zM557 598l354 467h387l-362 -477l133 -420h-375z" />
<glyph unicode="&#xad;" horiz-adv-x="823" d="M33 524l84 389h692l-84 -389h-692z" />
<glyph unicode="&#xae;" horiz-adv-x="1210" d="M170 958v15q0 209 141.5 350t350.5 141h14q209 0 350 -141t141 -350v-15q0 -209 -141 -350t-350 -141h-14q-209 0 -350.5 141t-141.5 350zM272 958q0 -166 112.5 -281.5t277.5 -115.5h14q165 0 277 115t112 282v15q0 167 -112 282t-277 115h-14q-165 0 -277.5 -115.5 t-112.5 -281.5v-15zM430 709v514h272q105 0 160.5 -46t55.5 -126q0 -99 -76 -142l88 -200h-219l-58 165h-18v-165h-205zM635 987h20q30 0 42 11t12 40q0 28 -12.5 40t-41.5 12h-20v-103z" />
<glyph unicode="&#xaf;" horiz-adv-x="1282" d="M379 1159l53 250h637l-53 -250h-637z" />
<glyph unicode="&#xb0;" horiz-adv-x="921" d="M205 1067q0 141 96 234.5t244 93.5q147 0 242.5 -94t95.5 -234t-95.5 -234t-242.5 -94q-148 0 -244 93.5t-96 234.5zM426 1067q0 -52 33 -87.5t86 -35.5t85 35.5t32 87.5t-32 87.5t-85 35.5t-86 -35.5t-33 -87.5z" />
<glyph unicode="&#xb1;" d="M-14 8l69 324h1014l-68 -324h-1015zM137 719l70 321h330l65 308h352l-65 -308h332l-70 -321h-332l-65 -309h-353l66 309h-330z" />
<glyph unicode="&#xb4;" horiz-adv-x="1282" d="M557 1135l166 299h428l-297 -299h-297z" />
<glyph unicode="&#xb6;" horiz-adv-x="1452" d="M27 643q0 159 48.5 291t141 228t234 149t319.5 53h758l-373 -1749h-315l309 1460h-143l-312 -1460h-315l131 612q-240 17 -361.5 123t-121.5 293z" />
<glyph unicode="&#xb7;" horiz-adv-x="690" d="M94 575l94 445h461l-96 -445h-459z" />
<glyph unicode="&#xb8;" horiz-adv-x="1282" d="M174 -420l74 150q78 -35 168 -35q82 0 82 43q0 39 -72 39q-38 0 -84 -17l-61 74l182 166h172l-80 -82h12q113 0 172.5 -48t59.5 -128q0 -95 -94 -153t-256 -58q-152 0 -275 49z" />
<glyph unicode="&#xba;" horiz-adv-x="1028" d="M96 903q0 213 151 352.5t388 139.5q195 0 310.5 -96t115.5 -257q0 -212 -151.5 -351.5t-387.5 -139.5q-196 0 -311 96t-115 256zM496 836q0 -74 39 -74q26 0 49 43q25 43 51.5 142t26.5 163q0 74 -39 74q-27 0 -50 -43q-25 -42 -51 -141.5t-26 -163.5z" />
<glyph unicode="&#xbb;" horiz-adv-x="1294" d="M-29 168l363 479l-133 418h372l140 -428l-357 -469h-385zM485 168l349 459l-140 438h377l141 -449l-331 -448h-396z" />
<glyph unicode="&#xbf;" horiz-adv-x="1359" d="M-43 195q0 196 131.5 319t403.5 154l18 80h489l-75 -361h-234q-86 0 -130 -43t-44 -125q0 -90 80 -90q86 0 133 141l498 -39q-62 -201 -234.5 -321.5t-443.5 -120.5q-287 0 -439.5 108.5t-152.5 297.5zM526 827l90 426h490l-90 -426h-490z" />
<glyph unicode="&#xc0;" horiz-adv-x="1519" d="M-135 0l702 1434h711l90 -1434h-569l-4 217h-344l-97 -217h-489zM602 559h186l-6 408zM618 1776h416l41 -273h-289z" />
<glyph unicode="&#xc1;" horiz-adv-x="1519" d="M-135 0l702 1434h711l90 -1434h-569l-4 217h-344l-97 -217h-489zM602 559h186l-6 408zM772 1503l164 273h430l-295 -273h-299z" />
<glyph unicode="&#xc2;" horiz-adv-x="1519" d="M-135 0l702 1434h711l90 -1434h-569l-4 217h-344l-97 -217h-489zM494 1503l311 269h373l190 -269h-305l-98 109l-144 -109h-327zM602 559h186l-6 408z" />
<glyph unicode="&#xc3;" horiz-adv-x="1519" d="M-135 0l702 1434h711l90 -1434h-569l-4 217h-344l-97 -217h-489zM541 1583q44 104 126.5 166.5t172.5 62.5q69 0 141 -34l49 -19q51 -22 88 -22q65 0 119 71l152 -86q-44 -104 -126.5 -167.5t-172.5 -63.5q-61 0 -142 35l-49 20q-46 21 -88 21q-64 0 -119 -72zM602 559 h186l-6 408z" />
<glyph unicode="&#xc4;" horiz-adv-x="1519" d="M-135 0l702 1434h711l90 -1434h-569l-4 217h-344l-97 -217h-489zM565 1505l58 271h315l-59 -271h-314zM602 559h186l-6 408zM991 1505l58 271h313l-57 -271h-314z" />
<glyph unicode="&#xc5;" horiz-adv-x="1519" d="M-135 0l702 1434h711l90 -1434h-569l-4 217h-344l-97 -217h-489zM602 559h186l-6 408zM723 1702q0 98 73.5 164.5t178.5 66.5q99 0 159 -57t60 -150q0 -97 -74 -163t-178 -66q-99 0 -159 56t-60 149zM872 1708q0 -36 22.5 -56t59.5 -20q39 0 63.5 26t24.5 64 q0 36 -21.5 55t-59.5 19q-39 0 -64 -25.5t-25 -62.5z" />
<glyph unicode="&#xc6;" horiz-adv-x="2021" d="M-135 0l727 1434h1530l-78 -369h-567l-33 -154h473l-78 -362h-471l-39 -180h567l-79 -369h-1133l47 217h-268l-101 -217h-497zM623 559h180l108 506h-53z" />
<glyph unicode="&#xc7;" horiz-adv-x="1474" d="M29 567q0 189 58 353.5t164 285t263 189.5t346 69q299 0 456 -148t163 -425l-523 -33q4 101 -5 156.5t-29.5 76.5t-59.5 21q-41 0 -70 -25t-57 -83q-49 -98 -92 -275t-43 -268q0 -139 105 -139q62 0 110 58t90 210l514 -41q-143 -554 -708 -578l-52 -53h13 q112 0 171.5 -48t59.5 -128q0 -95 -94 -153t-256 -58q-151 0 -274 49l73 150q78 -35 168 -35q82 0 82 43q0 39 -72 39q-38 0 -84 -17l-61 74l156 141q-242 31 -377 188.5t-135 403.5z" />
<glyph unicode="&#xc8;" horiz-adv-x="1267" d="M-70 0l306 1434h1134l-80 -369h-567l-33 -154h473l-78 -362h-471l-39 -180h568l-78 -369h-1135zM502 1776h416l40 -273h-288z" />
<glyph unicode="&#xc9;" horiz-adv-x="1267" d="M-70 0l306 1434h1134l-80 -369h-567l-33 -154h473l-78 -362h-471l-39 -180h568l-78 -369h-1135zM655 1503l164 273h430l-295 -273h-299z" />
<glyph unicode="&#xca;" horiz-adv-x="1267" d="M-70 0l306 1434h1134l-80 -369h-567l-33 -154h473l-78 -362h-471l-39 -180h568l-78 -369h-1135zM377 1503l311 269h373l190 -269h-305l-98 109l-143 -109h-328z" />
<glyph unicode="&#xcb;" horiz-adv-x="1267" d="M-70 0l306 1434h1134l-80 -369h-567l-33 -154h473l-78 -362h-471l-39 -180h568l-78 -369h-1135zM449 1505l57 271h315l-59 -271h-313zM874 1505l58 271h313l-57 -271h-314z" />
<glyph unicode="&#xcc;" horiz-adv-x="731" d="M-61 0l305 1434h567l-305 -1434h-567zM225 1776h416l41 -273h-289z" />
<glyph unicode="&#xcd;" horiz-adv-x="731" d="M-61 0l305 1434h567l-305 -1434h-567zM379 1503l164 273h430l-295 -273h-299z" />
<glyph unicode="&#xce;" horiz-adv-x="731" d="M-61 0l305 1434h567l-305 -1434h-567zM100 1503l312 269h372l191 -269h-305l-99 109l-143 -109h-328z" />
<glyph unicode="&#xcf;" horiz-adv-x="731" d="M-61 0l305 1434h567l-305 -1434h-567zM172 1505l57 271h316l-60 -271h-313zM598 1505l57 271h314l-58 -271h-313z" />
<glyph unicode="&#xd0;" horiz-adv-x="1523" d="M-53 0l127 594h-72l61 283h70l119 557h670q301 0 448.5 -150t147.5 -416q0 -131 -30.5 -254.5t-96.5 -235.5t-160.5 -195.5t-232 -133t-302.5 -49.5h-749zM588 348h74q100 0 155 96q49 88 88 233t39 257q0 79 -34 115t-115 36h-52l-45 -208h168l-61 -283h-166z" />
<glyph unicode="&#xd1;" horiz-adv-x="1466" d="M-70 0l306 1434h481l235 -570l121 570h479l-305 -1434h-463l-245 602l-127 -602h-482zM535 1583q44 104 126.5 166.5t172.5 62.5q69 0 141 -34l49 -19q51 -22 88 -22q65 0 119 71l151 -86q-44 -104 -126.5 -167.5t-172.5 -63.5q-60 0 -141 35l-49 20q-46 21 -88 21 q-64 0 -119 -72z" />
<glyph unicode="&#xd2;" horiz-adv-x="1521" d="M29 565q0 189 57.5 353t163 285.5t264 191t350.5 69.5q299 0 472 -162.5t173 -433.5q0 -189 -57.5 -353t-163 -285.5t-264 -191t-350.5 -69.5q-299 0 -472 162.5t-173 433.5zM600 461q0 -139 88 -139q27 0 48.5 18.5t45.5 58.5q55 89 105.5 278.5t50.5 295.5 q0 139 -88 139q-27 0 -48 -18.5t-46 -59.5q-55 -89 -105.5 -278t-50.5 -295zM621 1776h415l41 -273h-289z" />
<glyph unicode="&#xd3;" horiz-adv-x="1521" d="M29 565q0 189 57.5 353t163 285.5t264 191t350.5 69.5q299 0 472 -162.5t173 -433.5q0 -189 -57.5 -353t-163 -285.5t-264 -191t-350.5 -69.5q-299 0 -472 162.5t-173 433.5zM600 461q0 -139 88 -139q27 0 48.5 18.5t45.5 58.5q55 89 105.5 278.5t50.5 295.5 q0 139 -88 139q-27 0 -48 -18.5t-46 -59.5q-55 -89 -105.5 -278t-50.5 -295zM774 1503l164 273h430l-295 -273h-299z" />
<glyph unicode="&#xd4;" horiz-adv-x="1521" d="M29 565q0 189 57.5 353t163 285.5t264 191t350.5 69.5q299 0 472 -162.5t173 -433.5q0 -189 -57.5 -353t-163 -285.5t-264 -191t-350.5 -69.5q-299 0 -472 162.5t-173 433.5zM496 1503l311 269h373l190 -269h-305l-98 109l-144 -109h-327zM600 461q0 -139 88 -139 q27 0 48.5 18.5t45.5 58.5q55 89 105.5 278.5t50.5 295.5q0 139 -88 139q-27 0 -48 -18.5t-46 -59.5q-55 -89 -105.5 -278t-50.5 -295z" />
<glyph unicode="&#xd5;" horiz-adv-x="1521" d="M29 565q0 189 57.5 353t163 285.5t264 191t350.5 69.5q299 0 472 -162.5t173 -433.5q0 -189 -57.5 -353t-163 -285.5t-264 -191t-350.5 -69.5q-299 0 -472 162.5t-173 433.5zM545 1583q44 104 126.5 166.5t172.5 62.5q69 0 141 -34l49 -19q51 -22 88 -22q65 0 119 71 l152 -86q-44 -104 -126.5 -167.5t-172.5 -63.5q-61 0 -142 35l-49 20q-46 21 -88 21q-64 0 -119 -72zM600 461q0 -139 88 -139q27 0 48.5 18.5t45.5 58.5q55 89 105.5 278.5t50.5 295.5q0 139 -88 139q-27 0 -48 -18.5t-46 -59.5q-55 -89 -105.5 -278t-50.5 -295z" />
<glyph unicode="&#xd6;" horiz-adv-x="1521" d="M29 565q0 189 57.5 353t163 285.5t264 191t350.5 69.5q299 0 472 -162.5t173 -433.5q0 -189 -57.5 -353t-163 -285.5t-264 -191t-350.5 -69.5q-299 0 -472 162.5t-173 433.5zM567 1505l58 271h315l-59 -271h-314zM600 461q0 -139 88 -139q27 0 48.5 18.5t45.5 58.5 q55 89 105.5 278.5t50.5 295.5q0 139 -88 139q-27 0 -48 -18.5t-46 -59.5q-55 -89 -105.5 -278t-50.5 -295zM993 1505l58 271h313l-57 -271h-314z" />
<glyph unicode="&#xd7;" d="M47 399l348 289l-223 283l279 223l219 -279l342 283l198 -240l-348 -288l223 -285l-278 -223l-219 280l-340 -282z" />
<glyph unicode="&#xd8;" horiz-adv-x="1521" d="M6 27l148 155q-125 152 -125 383q0 189 57.5 353t163 285.5t264 191t350.5 69.5q241 0 402 -106l143 153l123 -104l-148 -156q127 -155 127 -383q0 -189 -58 -353t-163.5 -285.5t-264.5 -191t-351 -69.5q-241 0 -400 107l-145 -154zM602 422q11 -100 86 -100 q28 0 48.5 18t45.5 59q66 111 121 342zM635 692l301 320q-11 100 -86 100q-27 0 -48 -18.5t-46 -59.5q-66 -111 -121 -342z" />
<glyph unicode="&#xd9;" horiz-adv-x="1460" d="M47 584l180 850h566l-195 -922q-19 -79 1.5 -119.5t76.5 -40.5q102 0 137 160l199 922h544l-182 -850q-65 -309 -249.5 -462t-495.5 -153q-335 0 -490 162.5t-92 452.5zM604 1776h416l41 -273h-289z" />
<glyph unicode="&#xda;" horiz-adv-x="1460" d="M47 584l180 850h566l-195 -922q-19 -79 1.5 -119.5t76.5 -40.5q102 0 137 160l199 922h544l-182 -850q-65 -309 -249.5 -462t-495.5 -153q-335 0 -490 162.5t-92 452.5zM758 1503l164 273h430l-295 -273h-299z" />
<glyph unicode="&#xdb;" horiz-adv-x="1460" d="M47 584l180 850h566l-195 -922q-19 -79 1.5 -119.5t76.5 -40.5q102 0 137 160l199 922h544l-182 -850q-65 -309 -249.5 -462t-495.5 -153q-335 0 -490 162.5t-92 452.5zM479 1503l312 269h372l191 -269h-305l-99 109l-143 -109h-328z" />
<glyph unicode="&#xdc;" horiz-adv-x="1460" d="M47 584l180 850h566l-195 -922q-19 -79 1.5 -119.5t76.5 -40.5q102 0 137 160l199 922h544l-182 -850q-65 -309 -249.5 -462t-495.5 -153q-335 0 -490 162.5t-92 452.5zM551 1505l57 271h316l-60 -271h-313zM977 1505l57 271h314l-58 -271h-313z" />
<glyph unicode="&#xdd;" horiz-adv-x="1484" d="M172 1434h569l95 -459l290 459h508l-657 -981l-96 -453h-566l97 453zM764 1503l164 273h430l-295 -273h-299z" />
<glyph unicode="&#xde;" horiz-adv-x="1464" d="M-70 0l306 1434h567l-43 -205h143q288 0 421.5 -112t133.5 -326q0 -121 -46.5 -227.5t-132.5 -187t-218.5 -127t-294.5 -46.5h-225l-43 -203h-568zM614 545h74q91 0 142 57.5t51 177.5q0 56 -29.5 81.5t-93.5 25.5h-72z" />
<glyph unicode="&#xdf;" horiz-adv-x="1304" d="M-82 0l209 983q51 240 207 360.5t448 120.5q276 0 408.5 -100t132.5 -268q0 -124 -82 -211.5t-233 -122.5q112 -36 168.5 -117.5t56.5 -189.5q0 -223 -146 -347t-387 -124q-133 0 -219 12l54 264q6 -2 38 -2q64 0 91 39q22 28 37.5 84.5t15.5 110.5q0 53 -23 75.5 t-73 22.5h-15l66 303h20q47 0 68 35q18 26 31.5 77.5t13.5 100.5q0 42 -13.5 60t-43.5 18q-35 0 -57.5 -36t-43.5 -138l-215 -1010h-514z" />
<glyph unicode="&#xe0;" horiz-adv-x="1234" d="M-53 256q0 192 156.5 299t494.5 107h70l10 45q20 96 -51 96q-32 0 -54.5 -24.5t-40.5 -82.5l-450 41q48 166 192.5 262.5t380.5 96.5q316 0 439.5 -128.5t74.5 -357.5l-127 -610h-503l30 150q-57 -77 -142 -123.5t-175 -46.5q-146 0 -225.5 75t-79.5 201zM424 1434h412 l43 -299h-289zM455 326q0 -32 16 -50t45 -18q67 0 90 107l23 104q-81 -3 -127.5 -43t-46.5 -100z" />
<glyph unicode="&#xe1;" horiz-adv-x="1234" d="M-53 256q0 192 156.5 299t494.5 107h70l10 45q20 96 -51 96q-32 0 -54.5 -24.5t-40.5 -82.5l-450 41q48 166 192.5 262.5t380.5 96.5q316 0 439.5 -128.5t74.5 -357.5l-127 -610h-503l30 150q-57 -77 -142 -123.5t-175 -46.5q-146 0 -225.5 75t-79.5 201zM455 326 q0 -32 16 -50t45 -18q67 0 90 107l23 104q-81 -3 -127.5 -43t-46.5 -100zM575 1135l166 299h428l-297 -299h-297z" />
<glyph unicode="&#xe2;" horiz-adv-x="1234" d="M-53 256q0 192 156.5 299t494.5 107h70l10 45q20 96 -51 96q-32 0 -54.5 -24.5t-40.5 -82.5l-450 41q48 166 192.5 262.5t380.5 96.5q316 0 439.5 -128.5t74.5 -357.5l-127 -610h-503l30 150q-57 -77 -142 -123.5t-175 -46.5q-146 0 -225.5 75t-79.5 201zM291 1135 l321 299h365l188 -299h-303l-94 129l-152 -129h-325zM455 326q0 -32 16 -50t45 -18q67 0 90 107l23 104q-81 -3 -127.5 -43t-46.5 -100z" />
<glyph unicode="&#xe3;" horiz-adv-x="1234" d="M-53 256q0 192 156.5 299t494.5 107h70l10 45q20 96 -51 96q-32 0 -54.5 -24.5t-40.5 -82.5l-450 41q48 166 192.5 262.5t380.5 96.5q316 0 439.5 -128.5t74.5 -357.5l-127 -610h-503l30 150q-57 -77 -142 -123.5t-175 -46.5q-146 0 -225.5 75t-79.5 201zM344 1225 q47 105 127 166t170 61q55 0 137 -31l58 -22q61 -23 88 -23q57 0 114 72l152 -96q-46 -105 -125.5 -166.5t-169.5 -61.5q-68 0 -139 31l-56 23q-58 22 -90 22q-58 0 -112 -72zM455 326q0 -32 16 -50t45 -18q67 0 90 107l23 104q-81 -3 -127.5 -43t-46.5 -100z" />
<glyph unicode="&#xe4;" horiz-adv-x="1234" d="M-53 256q0 192 156.5 299t494.5 107h70l10 45q20 96 -51 96q-32 0 -54.5 -24.5t-40.5 -82.5l-450 41q48 166 192.5 262.5t380.5 96.5q316 0 439.5 -128.5t74.5 -357.5l-127 -610h-503l30 150q-57 -77 -142 -123.5t-175 -46.5q-146 0 -225.5 75t-79.5 201zM375 1137 l63 295h314l-64 -295h-313zM455 326q0 -32 16 -50t45 -18q67 0 90 107l23 104q-81 -3 -127.5 -43t-46.5 -100zM784 1137l62 295h313l-61 -295h-314z" />
<glyph unicode="&#xe5;" horiz-adv-x="1234" d="M-53 256q0 192 156.5 299t494.5 107h70l10 45q20 96 -51 96q-32 0 -54.5 -24.5t-40.5 -82.5l-450 41q48 166 192.5 262.5t380.5 96.5q316 0 439.5 -128.5t74.5 -357.5l-127 -610h-503l30 150q-57 -77 -142 -123.5t-175 -46.5q-146 0 -225.5 75t-79.5 201zM455 326 q0 -32 16 -50t45 -18q67 0 90 107l23 104q-81 -3 -127.5 -43t-46.5 -100zM545 1333q0 98 73.5 164t178.5 66q99 0 159 -56t60 -149q0 -97 -74 -163.5t-178 -66.5q-99 0 -159 56t-60 149zM696 1339q0 -36 22 -55.5t58 -19.5q39 0 63.5 26t24.5 64q0 35 -22.5 54t-59.5 19 q-39 0 -62.5 -25.5t-23.5 -62.5z" />
<glyph unicode="&#xe6;" horiz-adv-x="1867" d="M-53 256q0 192 156.5 299t494.5 107h72l12 57q15 84 -55 84q-32 0 -54.5 -24.5t-40.5 -82.5l-450 41q47 163 194.5 261t368.5 98q239 0 334 -133q146 133 364 133q222 0 350 -115t128 -305q0 -113 -35 -238h-649q-9 -47 -9 -86q0 -106 82 -106t168 131l381 -80 q-197 -328 -596 -328q-269 0 -377 168q-177 -157 -464 -157q-183 0 -279 75t-96 201zM457 326q0 -68 59 -68q67 0 90 107l23 104q-81 -3 -126.5 -43t-45.5 -100zM1188 653h166q10 55 10 90q0 82 -59 82q-36 0 -68 -55q-24 -46 -49 -117z" />
<glyph unicode="&#xe7;" horiz-adv-x="1224" d="M-8 442q0 134 48 253t134.5 208t217 141t286.5 52q250 0 379.5 -114.5t132.5 -328.5l-467 -28q10 72 10 102q0 88 -59 88q-32 0 -66 -55q-42 -70 -76 -203t-34 -217q0 -88 61 -88q37 0 68.5 44t66.5 157l455 -37q-47 -193 -200.5 -312t-368.5 -133l-52 -53h13 q112 0 171.5 -48t59.5 -128q0 -95 -94 -153t-256 -58q-152 0 -275 49l74 150q78 -35 168 -35q82 0 82 43q0 39 -72 39q-38 0 -84 -17l-61 74l158 143q-197 28 -308.5 150t-111.5 315z" />
<glyph unicode="&#xe8;" horiz-adv-x="1226" d="M-10 434q0 136 48 256.5t134.5 210.5t216 142.5t283.5 52.5q250 0 381 -113.5t131 -306.5q0 -96 -35 -238h-649q-8 -41 -8 -86q0 -106 81 -106q82 0 168 131l381 -80q-100 -167 -246 -247.5t-354 -80.5q-245 0 -388.5 126t-143.5 339zM391 1434h412l43 -299h-289z M551 653h166q10 55 10 90q0 82 -59 82q-36 0 -68 -55q-24 -43 -49 -117z" />
<glyph unicode="&#xe9;" horiz-adv-x="1226" d="M-10 434q0 136 48 256.5t134.5 210.5t216 142.5t283.5 52.5q250 0 381 -113.5t131 -306.5q0 -96 -35 -238h-649q-8 -41 -8 -86q0 -106 81 -106q82 0 168 131l381 -80q-100 -167 -246 -247.5t-354 -80.5q-245 0 -388.5 126t-143.5 339zM543 1135l166 299h428l-297 -299 h-297zM551 653h166q10 55 10 90q0 82 -59 82q-36 0 -68 -55q-24 -43 -49 -117z" />
<glyph unicode="&#xea;" horiz-adv-x="1226" d="M-10 434q0 136 48 256.5t134.5 210.5t216 142.5t283.5 52.5q250 0 381 -113.5t131 -306.5q0 -96 -35 -238h-649q-8 -41 -8 -86q0 -106 81 -106q82 0 168 131l381 -80q-100 -167 -246 -247.5t-354 -80.5q-245 0 -388.5 126t-143.5 339zM258 1135l322 299h364l189 -299 h-304l-94 129l-151 -129h-326zM551 653h166q10 55 10 90q0 82 -59 82q-36 0 -68 -55q-24 -43 -49 -117z" />
<glyph unicode="&#xeb;" horiz-adv-x="1226" d="M-10 434q0 136 48 256.5t134.5 210.5t216 142.5t283.5 52.5q250 0 381 -113.5t131 -306.5q0 -96 -35 -238h-649q-8 -41 -8 -86q0 -106 81 -106q82 0 168 131l381 -80q-100 -167 -246 -247.5t-354 -80.5q-245 0 -388.5 126t-143.5 339zM342 1137l64 295h313l-64 -295h-313 zM551 653h166q10 55 10 90q0 82 -59 82q-36 0 -68 -55q-24 -43 -49 -117zM752 1137l61 295h313l-61 -295h-313z" />
<glyph unicode="&#xec;" horiz-adv-x="649" d="M-76 0l228 1065h514l-228 -1065h-514zM111 1434h411l43 -299h-289z" />
<glyph unicode="&#xed;" horiz-adv-x="649" d="M-76 0l228 1065h514l-228 -1065h-514zM262 1135l166 299h428l-297 -299h-297z" />
<glyph unicode="&#xee;" horiz-adv-x="649" d="M-76 0l228 1065h514l-228 -1065h-514zM-23 1135l322 299h365l188 -299h-303l-94 129l-152 -129h-326z" />
<glyph unicode="&#xef;" horiz-adv-x="649" d="M-76 0l228 1065h514l-228 -1065h-514zM61 1137l64 295h313l-63 -295h-314zM471 1137l61 295h314l-62 -295h-313z" />
<glyph unicode="&#xf0;" horiz-adv-x="1267" d="M-8 442q0 168 72 314.5t191.5 231.5t254.5 85q104 0 174 -51q-28 70 -63 133l-322 -53l4 145l234 39q-63 84 -119 148h518q42 -46 61 -72l250 41l-4 -143l-156 -27q144 -235 144 -502q0 -223 -81.5 -395t-238 -269.5t-366.5 -97.5q-261 0 -407 125t-146 348zM500 328 q0 -82 55 -82q33 0 59 49q39 70 74 207.5t35 226.5q0 82 -55 82q-35 0 -60 -49q-39 -70 -73.5 -207.5t-34.5 -226.5z" />
<glyph unicode="&#xf1;" d="M-82 0l225 1065h506l-35 -168q131 199 344 199q164 0 236 -100.5t35 -274.5l-152 -721h-514l139 653q10 51 -2 73t-47 22q-33 0 -54 -25.5t-34 -87.5l-133 -635h-514zM375 1225q47 105 127 166t170 61q55 0 137 -31l57 -22q61 -23 88 -23q58 0 115 72l152 -96 q-46 -105 -125.5 -166.5t-169.5 -61.5q-69 0 -140 31l-55 23q-58 22 -90 22q-59 0 -113 -72z" />
<glyph unicode="&#xf2;" horiz-adv-x="1282" d="M-8 442q0 134 48 253t134.5 208t216.5 141t285 52q261 0 408 -125t147 -348q0 -134 -48 -253t-134.5 -208t-217 -141t-286.5 -52q-261 0 -407 125t-146 348zM406 1434h411l43 -299h-289zM498 328q0 -82 55 -82q31 0 63 55q37 67 72 208t35 230q0 82 -55 82q-32 0 -64 -55 q-37 -67 -71.5 -207.5t-34.5 -230.5z" />
<glyph unicode="&#xf3;" horiz-adv-x="1282" d="M-8 442q0 134 48 253t134.5 208t216.5 141t285 52q261 0 408 -125t147 -348q0 -134 -48 -253t-134.5 -208t-217 -141t-286.5 -52q-261 0 -407 125t-146 348zM498 328q0 -82 55 -82q31 0 63 55q37 67 72 208t35 230q0 82 -55 82q-32 0 -64 -55q-37 -67 -71.5 -207.5 t-34.5 -230.5zM557 1135l166 299h428l-297 -299h-297z" />
<glyph unicode="&#xf4;" horiz-adv-x="1282" d="M-8 442q0 134 48 253t134.5 208t216.5 141t285 52q261 0 408 -125t147 -348q0 -134 -48 -253t-134.5 -208t-217 -141t-286.5 -52q-261 0 -407 125t-146 348zM272 1135l322 299h364l189 -299h-303l-94 129l-152 -129h-326zM498 328q0 -82 55 -82q31 0 63 55q37 67 72 208 t35 230q0 82 -55 82q-32 0 -64 -55q-37 -67 -71.5 -207.5t-34.5 -230.5z" />
<glyph unicode="&#xf5;" horiz-adv-x="1282" d="M-8 442q0 134 48 253t134.5 208t216.5 141t285 52q261 0 408 -125t147 -348q0 -134 -48 -253t-134.5 -208t-217 -141t-286.5 -52q-261 0 -407 125t-146 348zM326 1225q47 105 127 166t170 61q55 0 137 -31l57 -22q61 -23 88 -23q58 0 115 72l151 -96 q-46 -105 -125 -166.5t-169 -61.5q-69 0 -140 31l-55 23q-58 22 -90 22q-59 0 -113 -72zM498 328q0 -82 55 -82q31 0 63 55q37 67 72 208t35 230q0 82 -55 82q-32 0 -64 -55q-37 -67 -71.5 -207.5t-34.5 -230.5z" />
<glyph unicode="&#xf6;" horiz-adv-x="1282" d="M-8 442q0 134 48 253t134.5 208t216.5 141t285 52q261 0 408 -125t147 -348q0 -134 -48 -253t-134.5 -208t-217 -141t-286.5 -52q-261 0 -407 125t-146 348zM356 1137l64 295h313l-63 -295h-314zM498 328q0 -82 55 -82q31 0 63 55q37 67 72 208t35 230q0 82 -55 82 q-32 0 -64 -55q-37 -67 -71.5 -207.5t-34.5 -230.5zM766 1137l61 295h314l-62 -295h-313z" />
<glyph unicode="&#xf7;" d="M94 518l70 324h1014l-70 -324h-1014zM336 88l70 324h348l-72 -324h-346zM520 946l68 326h346l-68 -326h-346z" />
<glyph unicode="&#xf8;" horiz-adv-x="1282" d="M-8 442q0 134 48 253t134.5 208t216.5 141t285 52q200 0 336 -76l123 125l90 -82l-115 -117q121 -124 121 -323q0 -134 -48 -253t-134.5 -208t-217 -141t-286.5 -52q-195 0 -334 74l-123 -123l-90 82l115 115q-121 124 -121 325zM498 328q0 -82 55 -82q31 0 63 55 q42 73 76 227l-194 -196v-4zM526 532l197 199v8q0 82 -55 82q-32 0 -64 -55q-46 -83 -78 -234z" />
<glyph unicode="&#xf9;" d="M-18 344l151 721h514l-139 -653q-20 -95 49 -95q33 0 53.5 26t32.5 87l135 635h514l-225 -1065h-508l35 168q-128 -199 -342 -199q-165 0 -236 100.5t-34 274.5zM414 1434h411l43 -299h-288z" />
<glyph unicode="&#xfa;" d="M-18 344l151 721h514l-139 -653q-20 -95 49 -95q33 0 53.5 26t32.5 87l135 635h514l-225 -1065h-508l35 168q-128 -199 -342 -199q-165 0 -236 100.5t-34 274.5zM565 1135l166 299h428l-297 -299h-297z" />
<glyph unicode="&#xfb;" d="M-18 344l151 721h514l-139 -653q-20 -95 49 -95q33 0 53.5 26t32.5 87l135 635h514l-225 -1065h-508l35 168q-128 -199 -342 -199q-165 0 -236 100.5t-34 274.5zM281 1135l321 299h365l188 -299h-303l-94 129l-152 -129h-325z" />
<glyph unicode="&#xfc;" d="M-18 344l151 721h514l-139 -653q-20 -95 49 -95q33 0 53.5 26t32.5 87l135 635h514l-225 -1065h-508l35 168q-128 -199 -342 -199q-165 0 -236 100.5t-34 274.5zM365 1137l63 295h313l-63 -295h-313zM774 1137l62 295h313l-62 -295h-313z" />
<glyph unicode="&#xfd;" horiz-adv-x="1228" d="M-104 -379l59 283q116 -19 190 -19q61 0 91 13l-140 1167h522l19 -565l248 565h422l-547 -1114q-94 -194 -230.5 -275.5t-371.5 -81.5q-117 0 -262 27zM596 1135l166 299h428l-297 -299h-297z" />
<glyph unicode="&#xfe;" horiz-adv-x="1284" d="M-164 -389l387 1823h514l-100 -476q111 138 270 138q153 0 241.5 -115t88.5 -324q0 -186 -70 -345t-189 -251t-257 -92q-94 0 -162.5 39t-101.5 109l-107 -506h-514zM504 328q0 -82 55 -82q32 0 64 55q37 67 71.5 207.5t34.5 230.5q0 82 -55 82q-32 0 -64 -55 q-37 -67 -71.5 -207.5t-34.5 -230.5z" />
<glyph unicode="&#xff;" horiz-adv-x="1228" d="M-104 -379l59 283q116 -19 190 -19q61 0 91 13l-140 1167h522l19 -565l248 565h422l-547 -1114q-94 -194 -230.5 -275.5t-371.5 -81.5q-117 0 -262 27zM395 1137l64 295h313l-63 -295h-314zM805 1137l61 295h314l-62 -295h-313z" />
<glyph unicode="&#x152;" horiz-adv-x="2060" d="M25 565q0 131 31 255t98 236t163 195.5t235.5 133t305.5 49.5h1303l-78 -369h-567l-33 -154h473l-78 -362h-471l-39 -180h565l-78 -369h-1234q-302 0 -449 149t-147 416zM598 500q0 -79 34.5 -115.5t115.5 -36.5h51l155 737h-73q-103 0 -158 -96q-48 -89 -86.5 -233.5 t-38.5 -255.5z" />
<glyph unicode="&#x153;" horiz-adv-x="1929" d="M-8 442q0 180 79 327.5t233.5 237t357.5 89.5q226 0 350 -127q152 127 366 127q246 0 376 -113.5t130 -306.5q0 -113 -35 -238h-649q-8 -41 -8 -86q0 -106 84 -106q78 0 168 131l379 -80q-99 -167 -245.5 -247.5t-354.5 -80.5q-211 0 -330 125q-154 -125 -352 -125 q-258 0 -403.5 125t-145.5 348zM500 328q0 -82 55 -82q31 0 63 55q37 67 72 208t35 230q0 82 -55 82q-32 0 -64 -55q-37 -67 -71.5 -207.5t-34.5 -230.5zM1251 653h166q13 72 13 90q0 82 -62 82q-36 0 -68 -55q-24 -43 -49 -117z" />
<glyph unicode="&#x178;" horiz-adv-x="1484" d="M172 1434h569l95 -459l290 459h508l-657 -981l-96 -453h-566l97 453zM557 1505l57 271h316l-60 -271h-313zM983 1505l57 271h314l-58 -271h-313z" />
<glyph unicode="&#x2c6;" horiz-adv-x="1282" d="M309 1135l322 299h364l189 -299h-303l-95 129l-151 -129h-326z" />
<glyph unicode="&#x2dc;" horiz-adv-x="1282" d="M342 1225q47 105 127 166t170 61q55 0 137 -31l58 -22q61 -23 88 -23q57 0 114 72l152 -96q-46 -105 -125.5 -166.5t-169.5 -61.5q-68 0 -139 31l-56 23q-58 22 -90 22q-58 0 -112 -72z" />
<glyph unicode="&#x2000;" horiz-adv-x="966" />
<glyph unicode="&#x2001;" horiz-adv-x="1933" />
<glyph unicode="&#x2002;" horiz-adv-x="966" />
<glyph unicode="&#x2003;" horiz-adv-x="1933" />
<glyph unicode="&#x2004;" horiz-adv-x="644" />
<glyph unicode="&#x2005;" horiz-adv-x="483" />
<glyph unicode="&#x2006;" horiz-adv-x="322" />
<glyph unicode="&#x2007;" horiz-adv-x="322" />
<glyph unicode="&#x2008;" horiz-adv-x="241" />
<glyph unicode="&#x2009;" horiz-adv-x="386" />
<glyph unicode="&#x200a;" horiz-adv-x="107" />
<glyph unicode="&#x2010;" horiz-adv-x="823" d="M33 524l84 389h692l-84 -389h-692z" />
<glyph unicode="&#x2011;" horiz-adv-x="823" d="M33 524l84 389h692l-84 -389h-692z" />
<glyph unicode="&#x2012;" horiz-adv-x="823" d="M33 524l84 389h692l-84 -389h-692z" />
<glyph unicode="&#x2013;" horiz-adv-x="1294" d="M33 524l84 389h1163l-84 -389h-1163z" />
<glyph unicode="&#x2014;" horiz-adv-x="1667" d="M33 524l84 389h1536l-84 -389h-1536z" />
<glyph unicode="&#x2018;" horiz-adv-x="567" d="M76 743l86 410l250 281h250l-209 -281h155l-86 -410h-446z" />
<glyph unicode="&#x2019;" horiz-adv-x="567" d="M84 743l207 281h-156l88 410h445l-86 -410l-250 -281h-248z" />
<glyph unicode="&#x201a;" horiz-adv-x="567" d="M-135 -281l209 281h-156l86 410h447l-89 -410l-249 -281h-248z" />
<glyph unicode="&#x201c;" horiz-adv-x="1087" d="M76 743l86 410l250 281h250l-209 -281h155l-86 -410h-446zM596 743l86 410l250 281h250l-209 -281h155l-86 -410h-446z" />
<glyph unicode="&#x201d;" horiz-adv-x="1087" d="M84 743l207 281h-156l88 410h445l-86 -410l-250 -281h-248zM602 743l209 281h-156l88 410h445l-86 -410l-250 -281h-250z" />
<glyph unicode="&#x201e;" horiz-adv-x="1087" d="M-135 -281l209 281h-158l88 410h447l-89 -410l-249 -281h-248zM385 -281l207 281h-156l88 410h445l-86 -410l-250 -281h-248z" />
<glyph unicode="&#x2022;" horiz-adv-x="886" d="M82 729q0 160 106 266.5t267 106.5t267.5 -106.5t106.5 -266.5q0 -161 -106.5 -268t-267.5 -107t-267 107t-106 268z" />
<glyph unicode="&#x2026;" horiz-adv-x="1796" d="M-63 0l94 444h461l-95 -444h-460zM524 0l94 444h461l-94 -444h-461zM1112 0l96 444h459l-94 -444h-461z" />
<glyph unicode="&#x202f;" horiz-adv-x="386" />
<glyph unicode="&#x2039;" horiz-adv-x="778" d="M57 616l332 449h395l-348 -459l139 -438h-376z" />
<glyph unicode="&#x203a;" horiz-adv-x="778" d="M-37 168l348 459l-139 438h377l141 -449l-332 -448h-395z" />
<glyph unicode="&#x205f;" horiz-adv-x="483" />
<glyph unicode="&#x20ac;" horiz-adv-x="1449" d="M-23 438l48 217h90q2 10 5 31t5 31h-88l47 217h106q91 214 267.5 337.5t406.5 123.5q274 0 407 -125t154 -377l-462 -33q-4 128 -23.5 172.5t-60.5 44.5q-24 0 -45 -19t-48 -67q-20 -41 -26 -57h162l-48 -217h-182q-9 -46 -14 -62h184l-47 -217h-166v-18q0 -133 74 -133 q49 0 88.5 57.5t75.5 190.5l469 -37q-69 -246 -243 -387.5t-433 -141.5q-249 0 -398 125t-171 344h-134z" />
<glyph unicode="&#x2122;" horiz-adv-x="1425" d="M170 1243l43 191h518l-41 -191h-143l-82 -387h-232l82 387h-145zM657 856l123 578h320l-27 -299l103 299h315l-123 -578h-211l86 401l-145 -401h-187l25 410l-86 -410h-193z" />
<glyph unicode="&#x25fc;" horiz-adv-x="1064" d="M0 0v1065h1065v-1065h-1065z" />
<glyph unicode="&#xfb01;" horiz-adv-x="1478" d="M-16 0l161 762h-118l65 303h119l6 31q37 174 159.5 263t360.5 89q127 0 242 -23l-59 -276q-46 8 -93 8q-49 0 -69.5 -14.5t-28.5 -48.5l-6 -29h180l-65 -303h-179l-161 -762h-514zM754 0l227 1065h514l-227 -1065h-514zM995 1135l64 299h514l-64 -299h-514z" />
<glyph unicode="&#xfb02;" horiz-adv-x="1478" d="M-16 0l161 762h-118l65 303h119l6 31q37 174 159.5 263t360.5 89q127 0 242 -23l-59 -276q-46 8 -93 8q-49 0 -69.5 -14.5t-28.5 -48.5l-6 -29h180l-65 -303h-179l-161 -762h-514zM754 0l305 1434h514l-305 -1434h-514z" />
</font>
</defs>
</svg>
