<?xml version="1.0" standalone="no"?>
<!DOCTYPE svg PUBLIC "-//W3C//DTD SVG 1.1//EN" "http://www.w3.org/Graphics/SVG/1.1/DTD/svg11.dtd" >
<svg xmlns="http://www.w3.org/2000/svg">
<metadata></metadata>
<defs>
<font id="baltobold_italic" horiz-adv-x="1179" >
<font-face units-per-em="2048" ascent="1659" descent="-389" />
<missing-glyph horiz-adv-x="428" />
<glyph horiz-adv-x="0" />
<glyph horiz-adv-x="682" />
<glyph unicode=" "  horiz-adv-x="428" />
<glyph unicode="&#x09;" horiz-adv-x="428" />
<glyph unicode="&#xa0;" horiz-adv-x="428" />
<glyph unicode="!" horiz-adv-x="737" d="M37 0l76 358h376l-75 -358h-377zM193 475l67 631l70 328h403l-69 -328l-203 -631h-268z" />
<glyph unicode="&#x22;" horiz-adv-x="950" d="M160 860l100 574h318l-144 -574h-274zM596 860l100 574h316l-144 -574h-272z" />
<glyph unicode="#" horiz-adv-x="1247" d="M-61 330l79 221h199l94 262h-200l82 221h198l119 330h254l-119 -330h201l119 330h254l-119 -330h198l-81 -221h-197l-94 -262h198l-80 -221h-198l-119 -330h-254l119 330h-201l-119 -330h-254l119 330h-198zM471 551h201l94 262h-201z" />
<glyph unicode="$" horiz-adv-x="1245" d="M-49 254l225 211q181 -227 361 -227q82 0 129 34t47 90q0 40 -29.5 70.5t-105.5 59.5l-148 55q-295 111 -295 373q0 194 125.5 320.5t364.5 150.5l47 217h295l-52 -240q181 -57 318 -219l-217 -203q-97 105 -166 146t-148 41q-81 0 -122 -31t-41 -84q0 -38 26 -64.5 t84 -48.5l160 -57q175 -63 250.5 -162.5t75.5 -236.5q0 -190 -147 -322.5t-370 -153.5l-45 -217h-294l51 240q-227 60 -379 258z" />
<glyph unicode="%" horiz-adv-x="1705" d="M111 958q0 84 33 164t88 140t132 96.5t160 36.5q160 0 252 -87.5t92 -242.5q0 -112 -55 -212.5t-150.5 -162t-205.5 -61.5q-162 0 -254 87t-92 242zM141 0l1221 1364h205l-1221 -1364h-205zM369 920q0 -115 88 -115q40 0 71 31q33 34 58.5 114t25.5 154q0 115 -90 115 q-35 0 -71 -31q-33 -34 -57.5 -113.5t-24.5 -154.5zM840 299q0 112 55 212.5t150.5 162t205.5 61.5q162 0 254 -87t92 -242q0 -84 -33 -164t-88 -140t-132 -96.5t-160 -36.5q-160 0 -252 87.5t-92 242.5zM1096 260q0 -115 90 -115q35 0 71 31q33 34 57.5 113.5t24.5 154.5 q0 115 -88 115q-40 0 -71 -31q-33 -34 -58.5 -114t-25.5 -154z" />
<glyph unicode="&#x26;" horiz-adv-x="1529" d="M-33 358q0 340 377 457q-43 116 -43 215q0 196 130.5 315t350.5 119q206 0 320.5 -85t114.5 -224q0 -132 -104.5 -244.5t-324.5 -177.5q86 -107 218 -225q96 128 165 280l271 -83q-88 -207 -228 -369q64 -41 136 -41h30l-63 -295h-41q-95 0 -175 23t-163 77 q-217 -131 -461 -131q-240 0 -375 105t-135 284zM354 399q0 -88 55.5 -139t147.5 -51q82 0 182 53q-173 162 -288 342q-97 -79 -97 -205zM655 1051q0 -67 27 -140q118 44 165.5 96.5t47.5 116.5q0 51 -28 81t-79 30q-59 0 -96 -50t-37 -134z" />
<glyph unicode="'" horiz-adv-x="514" d="M160 860l100 574h318l-144 -574h-274z" />
<glyph unicode="(" horiz-adv-x="860" d="M74 412q0 295 153 601t424 543h340q-280 -267 -419.5 -572t-139.5 -585q0 -388 170 -669h-326q-202 302 -202 682z" />
<glyph unicode=")" horiz-adv-x="858" d="M-145 -270q280 267 419.5 572t139.5 585q0 388 -170 669h325q201 -301 201 -682q0 -295 -152 -601t-423 -543h-340z" />
<glyph unicode="*" horiz-adv-x="935" d="M150 1049l129 266l215 -158l-21 277h287l-144 -291l281 168l49 -271l-299 -14l191 -207l-256 -143l-58 270l-159 -270l-205 172l270 180z" />
<glyph unicode="+" horiz-adv-x="1234" d="M104 565l52 240h360l80 375h256l-80 -375h363l-50 -240h-362l-80 -372h-258l80 372h-361z" />
<glyph unicode="," horiz-adv-x="604" d="M-78 -326l193 326h-138l76 358h363l-76 -358l-217 -326h-201z" />
<glyph unicode="-" horiz-adv-x="821" d="M61 563l70 326h651l-69 -326h-652z" />
<glyph unicode="." horiz-adv-x="604" d="M-23 0l76 358h363l-76 -358h-363z" />
<glyph unicode="/" horiz-adv-x="1087" d="M-227 -287l1163 1884h319l-1161 -1884h-321z" />
<glyph unicode="0" horiz-adv-x="1331" d="M35 502q0 182 50 344.5t140 284.5t225 193t295 71q259 0 406 -144.5t147 -388.5q0 -182 -50 -344.5t-140 -284.5t-225 -193t-295 -71q-259 0 -406 144.5t-147 388.5zM418 438q0 -112 46.5 -170.5t125.5 -58.5q70 0 129 59q78 78 137 277t59 381q0 112 -46.5 170.5 t-125.5 58.5q-70 0 -129 -59q-78 -78 -137 -277t-59 -381z" />
<glyph unicode="1" horiz-adv-x="1052" d="M-61 0l51 248h274l166 784q-137 -64 -295 -98l58 264q192 59 387 166h299l-238 -1116h260l-51 -248h-911z" />
<glyph unicode="2" horiz-adv-x="1157" d="M-86 0l59 276l465 320q198 135 270 232t72 200q0 58 -32 92.5t-91 34.5q-141 0 -231 -278l-344 43q65 220 224 347.5t392 127.5q224 0 345.5 -104.5t121.5 -268.5q0 -84 -26 -155.5t-88 -146t-165.5 -150.5t-258.5 -162l-228 -127h609l-62 -281h-1032z" />
<glyph unicode="3" horiz-adv-x="1198" d="M-20 428l350 39q17 -135 67.5 -196.5t134.5 -61.5q79 0 131 57.5t52 151.5q0 86 -41.5 121.5t-141.5 35.5h-124l51 240h119q231 0 231 207q0 62 -35 97.5t-100 35.5q-70 0 -122 -54.5t-93 -174.5l-340 45q55 194 203.5 309t379.5 115q232 0 364 -99.5t132 -257.5 q0 -115 -87 -205.5t-245 -127.5q121 -36 178.5 -114.5t57.5 -174.5q0 -188 -162.5 -317.5t-425.5 -129.5q-253 0 -387.5 121.5t-146.5 337.5z" />
<glyph unicode="4" horiz-adv-x="1275" d="M-53 293l49 233l768 838h444l-174 -813h164l-53 -258h-166l-61 -293h-379l61 293h-653zM332 551h323l105 489z" />
<glyph unicode="5" horiz-adv-x="1218" d="M4 397l342 37q22 -225 186 -225q82 0 140.5 83.5t58.5 217.5q0 78 -33 121t-98 43q-93 0 -180 -121l-342 49l203 762h923l-59 -268h-629l-88 -328q66 72 155 115t173 43q165 0 262.5 -105t97.5 -280q0 -121 -42.5 -226t-118.5 -181.5t-188 -120.5t-245 -44 q-247 0 -376.5 112t-141.5 316z" />
<glyph unicode="6" horiz-adv-x="1271" d="M35 496q0 188 52.5 353t146.5 285.5t232 190.5t300 70q216 0 338 -96t143 -263l-348 -41q-15 83 -50.5 121.5t-98.5 38.5q-96 0 -174.5 -107t-129.5 -329q156 190 355 190q124 0 215 -57.5t134.5 -148t43.5 -199.5t-45 -207t-124 -170.5t-195.5 -115t-251.5 -42.5 q-255 0 -399 142t-144 385zM418 389q0 -85 41.5 -132.5t111.5 -47.5q97 0 160.5 78.5t63.5 199.5q0 82 -40 129.5t-112 47.5q-94 0 -159.5 -79.5t-65.5 -195.5z" />
<glyph unicode="7" horiz-adv-x="1073" d="M100 0q93 334 256 600.5t426 486.5h-669l59 277h1020l-62 -289q-237 -182 -382.5 -434.5t-247.5 -640.5h-400z" />
<glyph unicode="8" horiz-adv-x="1253" d="M-31 354q0 128 88 227t260 140q-174 97 -174 272q0 79 38.5 150.5t109 128t182 90t246.5 33.5q247 0 381.5 -103t134.5 -258q0 -108 -81 -197t-216 -130q106 -46 162.5 -126.5t56.5 -172.5q0 -189 -169.5 -314t-450.5 -125q-269 0 -418.5 108.5t-149.5 276.5zM360 373 q0 -70 52 -114t141 -44q98 0 159.5 54t61.5 134q0 71 -51.5 115.5t-140.5 44.5q-99 0 -160.5 -55.5t-61.5 -134.5zM496 967q0 -66 46.5 -103t129.5 -37q87 0 144.5 52t57.5 131q0 68 -44.5 103.5t-129.5 35.5q-87 0 -145.5 -52t-58.5 -130z" />
<glyph unicode="9" horiz-adv-x="1271" d="M-4 369l346 43q25 -203 184 -203q96 0 173.5 105t127.5 329q-146 -156 -325 -156q-190 0 -303 104t-113 275q0 107 41 203t116 168.5t190 115t253 42.5q267 0 411 -137t144 -386q0 -257 -91 -462.5t-259 -323t-383 -117.5q-233 0 -363.5 105.5t-148.5 294.5zM485 907 q0 -82 43.5 -128t116.5 -46q94 0 156.5 69.5t62.5 172.5q0 83 -46.5 131.5t-123.5 48.5q-92 0 -150.5 -70.5t-58.5 -177.5z" />
<glyph unicode=":" horiz-adv-x="645" d="M-2 0l76 358h362l-76 -358h-362zM127 604l76 359h362l-78 -359h-360z" />
<glyph unicode=";" horiz-adv-x="645" d="M-57 -326l192 326h-137l76 358h362l-76 -358l-217 -326h-200zM127 604l76 359h362l-78 -359h-360z" />
<glyph unicode="&#x3c;" horiz-adv-x="1234" d="M84 553l55 264l1080 420l-60 -276l-792 -289l669 -287l-53 -252z" />
<glyph unicode="=" horiz-adv-x="1234" d="M68 344l51 231h956l-51 -231h-956zM166 795l47 231h956l-47 -231h-956z" />
<glyph unicode="&#x3e;" horiz-adv-x="1234" d="M20 133l60 277l792 286l-669 289l51 252l899 -420l-55 -264z" />
<glyph unicode="?" horiz-adv-x="1243" d="M133 1034q64 196 221 313t383 117q239 0 369.5 -109t130.5 -292q0 -194 -133 -320t-375 -155l-24 -113h-365l70 322h149q137 0 213 66.5t76 187.5q0 78 -36 119.5t-107 41.5q-148 0 -232 -221zM233 0l76 358h377l-76 -358h-377z" />
<glyph unicode="@" horiz-adv-x="1908" d="M35 393q0 198 73.5 377t203.5 312.5t321.5 212.5t415.5 79q366 0 573 -182t207 -494q0 -150 -43 -278t-117 -216.5t-175.5 -138t-215.5 -49.5q-94 0 -165 43.5t-91 122.5q-56 -77 -130 -121.5t-155 -44.5q-134 0 -224.5 105t-90.5 282q0 116 38 224t99.5 185t143 123 t165.5 46q82 0 143 -44.5t91 -121.5l28 135h314l-133 -626q-28 -125 59 -125q47 0 96 36.5t89.5 99.5t66 159t25.5 204q0 248 -153 383.5t-445 135.5q-189 0 -347 -65.5t-263.5 -178t-163.5 -262.5t-58 -318q0 -290 163 -436.5t482 -146.5q164 0 387 51l29 -148 q-90 -26 -210 -44.5t-206 -18.5q-255 0 -439 83t-286 251t-102 409zM739 371q0 -78 27 -117t76 -39q51 0 92 41q45 45 79 154.5t34 210.5q0 161 -103 161q-47 0 -88 -41q-46 -46 -81.5 -157t-35.5 -213z" />
<glyph unicode="A" horiz-adv-x="1425" d="M-127 0l760 1434h485l150 -1434h-402l-22 299h-461l-147 -299h-363zM518 569h307l-39 541z" />
<glyph unicode="B" horiz-adv-x="1368" d="M-35 0l305 1434h641q222 0 333.5 -88.5t111.5 -241.5q0 -140 -105 -240.5t-274 -126.5q140 -22 212.5 -95.5t72.5 -188.5q0 -206 -152 -329.5t-422 -123.5h-723zM410 240h190q262 0 262 227q0 74 -46.5 109.5t-147.5 35.5h-179zM539 850h176q116 0 179.5 54.5t63.5 158.5 q0 68 -47 99.5t-143 31.5h-156z" />
<glyph unicode="C" horiz-adv-x="1404" d="M51 563q0 139 32.5 271t98.5 246t157.5 200t216.5 135t269 49q254 0 397.5 -134t163.5 -386l-366 -29q-10 153 -56.5 220t-132.5 67q-113 0 -198 -117q-75 -103 -127.5 -279.5t-52.5 -303.5q0 -132 52.5 -201.5t151.5 -69.5q94 0 169.5 72t134.5 238l352 -49 q-83 -259 -255 -391t-423 -132q-275 0 -429.5 159t-154.5 435z" />
<glyph unicode="D" horiz-adv-x="1449" d="M-35 0l305 1434h553q154 0 269.5 -40.5t186.5 -115.5t105.5 -176t34.5 -228q0 -112 -21.5 -218t-63.5 -204t-109 -180t-153.5 -143t-202 -95t-248.5 -34h-656zM416 268h178q146 0 254 105q76 78 124 221t48 311q0 127 -65 193.5t-216 66.5h-133z" />
<glyph unicode="E" horiz-adv-x="1234" d="M-35 0l305 1434h1028l-59 -279h-635l-59 -283h542l-59 -276h-541l-67 -317h633l-60 -279h-1028z" />
<glyph unicode="F" horiz-adv-x="1177" d="M-35 0l305 1434h1016l-59 -279h-623l-72 -340h531l-57 -276h-533l-115 -539h-393z" />
<glyph unicode="G" horiz-adv-x="1439" d="M51 504q0 193 53 366t151 305.5t248.5 210.5t332.5 78q250 0 391 -121t162 -344l-355 -22q-18 118 -64 173.5t-134 55.5q-93 0 -168 -78q-93 -93 -155 -284.5t-62 -341.5q0 -129 54 -200t154 -71q96 0 176 72t107 197l2 18h-272l57 268h641l-168 -786h-293l21 190 q-148 -221 -406 -221q-218 0 -345.5 145t-127.5 390z" />
<glyph unicode="H" horiz-adv-x="1431" d="M-35 0l305 1434h394l-117 -553h428l117 553h393l-305 -1434h-394l121 565h-428l-121 -565h-393z" />
<glyph unicode="I" horiz-adv-x="630" d="M-25 0l306 1434h393l-305 -1434h-394z" />
<glyph unicode="J" horiz-adv-x="968" d="M-102 84l139 283q109 -72 207 -72q74 0 119.5 42.5t66.5 139.5l203 957h393l-209 -977q-53 -247 -184 -362t-338 -115q-104 0 -211.5 27.5t-185.5 76.5z" />
<glyph unicode="K" horiz-adv-x="1435" d="M-35 0l305 1434h396l-138 -648l559 648h426l-542 -609l282 -825h-424l-178 561l-221 -229l-70 -332h-395z" />
<glyph unicode="L" horiz-adv-x="1191" d="M-35 0l305 1434h394l-240 -1131h612l-63 -303h-1008z" />
<glyph unicode="M" horiz-adv-x="1828" d="M-35 0l305 1434h551l53 -959l453 959h555l-305 -1434h-377l223 1051l-514 -1051h-325l-68 1044l-223 -1044h-328z" />
<glyph unicode="N" horiz-adv-x="1443" d="M-35 0l305 1434h373l326 -824l176 824h352l-305 -1434h-354l-338 854l-183 -854h-352z" />
<glyph unicode="O" horiz-adv-x="1464" d="M51 563q0 116 23.5 227.5t67.5 212t112 185t152.5 146t193 96t229.5 34.5q286 0 443.5 -158.5t157.5 -435.5q0 -139 -33 -271t-99 -246t-158 -200t-218 -135t-271 -49q-286 0 -443 158.5t-157 435.5zM453 502q0 -134 51 -203.5t149 -69.5q89 0 166 74q85 86 147 280.5 t62 348.5q0 134 -51 203t-150 69q-89 0 -163 -74q-86 -86 -148.5 -280t-62.5 -348z" />
<glyph unicode="P" horiz-adv-x="1366" d="M-35 0l305 1434h609q263 0 390.5 -106t127.5 -304q0 -111 -41.5 -208.5t-120 -173.5t-204.5 -120.5t-283 -44.5h-287l-103 -477h-393zM516 739h193q138 0 207 70.5t69 194.5q0 87 -49.5 127t-161.5 40h-166z" />
<glyph unicode="Q" horiz-adv-x="1464" d="M51 563q0 116 23.5 227.5t67.5 212t112 185t152.5 146t193 96t229.5 34.5q286 0 443.5 -158.5t157.5 -435.5q0 -265 -117 -490t-326 -333q20 -40 51 -55t90 -15q47 0 97 5l-58 -271q-47 -6 -110 -6q-138 0 -218.5 64t-107.5 204q-54 -4 -80 -4q-286 0 -443 158.5 t-157 435.5zM453 502q0 -134 51 -203.5t149 -69.5q89 0 166 74q85 86 147 280.5t62 348.5q0 134 -51 203t-150 69q-89 0 -163 -74q-86 -86 -148.5 -280t-62.5 -348z" />
<glyph unicode="R" horiz-adv-x="1394" d="M-35 0l305 1434h613q248 0 373.5 -106t125.5 -288q0 -159 -98 -278.5t-285 -175.5l211 -586h-401l-166 526h-172l-113 -526h-393zM526 788h185q123 0 191.5 62t68.5 168q0 153 -191 153h-172z" />
<glyph unicode="S" horiz-adv-x="1337" d="M-43 295l246 227q221 -270 411 -270q81 0 129 35.5t48 91.5q0 43 -30 74t-104 59l-174 66q-177 66 -252 163t-75 246q0 91 37.5 174.5t110 152t192 109.5t268.5 41q334 0 563 -268l-235 -219q-169 213 -344 213q-78 0 -123 -33.5t-45 -87.5q0 -44 26.5 -73.5t91.5 -55.5 l148 -57q202 -78 285 -180t83 -242q0 -138 -75.5 -250.5t-210.5 -177t-301 -64.5q-424 0 -670 326z" />
<glyph unicode="T" horiz-adv-x="1241" d="M137 1130l64 304h1163l-64 -304h-387l-239 -1130h-395l239 1130h-381z" />
<glyph unicode="U" horiz-adv-x="1402" d="M76 553l188 881h393l-194 -912q-10 -51 -10 -91q1 -66 27 -107q44 -66 147 -66q202 0 260 264l196 912h379l-188 -881q-125 -584 -676 -584q-298 1 -440 155q-100 109 -99 278q0 70 17 151z" />
<glyph unicode="V" horiz-adv-x="1351" d="M178 1434h400l40 -1082l515 1082h362l-719 -1434h-489z" />
<glyph unicode="W" horiz-adv-x="1994" d="M182 0l15 1434h387l-37 -1008l426 1008h403l-4 -1014l395 1014h355l-596 -1434h-461l8 1010l-418 -1010h-473z" />
<glyph unicode="X" horiz-adv-x="1449" d="M-125 0l619 743l-281 691h432l164 -410l332 410h409l-575 -691l303 -743h-438l-178 459l-369 -459h-418z" />
<glyph unicode="Y" horiz-adv-x="1355" d="M180 1434h398l141 -600l393 600h387l-670 -969l-98 -465h-393l98 465z" />
<glyph unicode="Z" horiz-adv-x="1226" d="M-82 0l64 299l778 831h-580l64 304h1075l-64 -299l-780 -832h608l-63 -303h-1102z" />
<glyph unicode="[" horiz-adv-x="878" d="M-33 -270l389 1826h615l-62 -282h-250l-268 -1262h250l-59 -282h-615z" />
<glyph unicode="\" horiz-adv-x="1087" d="M225 1597h297l383 -1884h-299z" />
<glyph unicode="]" horiz-adv-x="878" d="M-106 -270l59 282h250l268 1262h-250l62 282h612l-389 -1826h-612z" />
<glyph unicode="^" horiz-adv-x="1087" d="M43 621l500 813h323l154 -813h-289l-78 553l-311 -553h-299z" />
<glyph unicode="_" horiz-adv-x="1193" d="M-225 -358l57 262h1202l-55 -262h-1204z" />
<glyph unicode="`" d="M387 1430h322l67 -291h-219z" />
<glyph unicode="a" horiz-adv-x="1107" d="M-47 252q0 88 33 158t103.5 124t189.5 83.5t280 29.5h107l4 17q7 34 7 61q0 106 -104 106q-97 0 -157 -126l-312 51q55 148 180 231.5t308 83.5q258 -1 362 -129q73 -90 74 -220q0 -56 -14 -120l-127 -602h-361l31 141q-56 -75 -138 -118t-173 -43q-133 0 -213 74.5 t-80 197.5zM313 297q0 -50 28.5 -77t80.5 -27q67 0 117 52t69 138l21 90h-21q-150 0 -222.5 -48t-72.5 -128z" />
<glyph unicode="b" horiz-adv-x="1200" d="M-55 0l305 1434h360l-110 -527q54 76 127 120t155 44q152 0 247 -117.5t95 -318.5q0 -128 -37 -249t-101.5 -213t-158.5 -148t-202 -56q-101 0 -175.5 53t-107.5 144l-37 -166h-360zM387 362q0 -87 37.5 -132.5t103.5 -45.5q56 0 99 43q53 53 96 193.5t43 267.5 q0 83 -34.5 126.5t-98.5 43.5q-60 0 -107 -47q-53 -55 -96 -192t-43 -257z" />
<glyph unicode="c" horiz-adv-x="1134" d="M10 424q0 102 26.5 197.5t79.5 177t126.5 142.5t173 95.5t213.5 34.5q208 0 324.5 -104t131.5 -295l-333 -25q-8 103 -38 152t-89 49q-62 0 -115 -53q-59 -59 -101 -184.5t-42 -237.5q0 -90 35 -135t98 -45q60 0 111.5 50t101.5 171l311 -47q-58 -186 -203 -292 t-340 -106q-213 0 -342 123.5t-129 331.5z" />
<glyph unicode="d" horiz-adv-x="1198" d="M8 406q0 173 62.5 324.5t179 246t260.5 94.5q100 0 174.5 -53.5t108.5 -145.5l118 562h361l-305 -1434h-361l29 133q-56 -77 -128.5 -120.5t-154.5 -43.5q-152 0 -248 118t-96 319zM367 352q0 -82 35.5 -125t99.5 -43q57 0 104 47q53 53 96 190.5t43 256.5 q0 88 -37.5 134t-103.5 46q-53 0 -98 -45q-53 -53 -96 -193.5t-43 -267.5z" />
<glyph unicode="e" horiz-adv-x="1138" d="M10 420q0 130 42 247t118 207.5t192 143.5t256 53q213 0 332 -109t119 -296q0 -85 -29 -211h-669q-6 -41 -6 -78q0 -193 155 -193q112 0 221 164l271 -76q-187 -303 -529 -303q-219 0 -346 121t-127 330zM412 633h327q9 65 9 76q0 153 -130 153q-59 0 -110 -51t-96 -178z " />
<glyph unicode="f" horiz-adv-x="753" d="M16 0l174 815h-141l47 225h142l16 78q35 166 142.5 248t316.5 82q112 0 178 -18l-47 -224q-41 8 -94 8q-63 0 -94.5 -22t-41.5 -76l-16 -76h211l-49 -225h-209l-172 -815h-363z" />
<glyph unicode="g" horiz-adv-x="1132" d="M-166 -152q0 189 270 238q-57 20 -85.5 57.5t-28.5 85.5q0 149 225 195q-77 42 -117.5 109.5t-40.5 146.5q0 169 143.5 280t381.5 111q181 0 299 -72q39 87 104 128.5t170 41.5h29l-47 -235q-111 -3 -154 -33q43 -67 43 -151q0 -168 -144 -280t-380 -112q-62 0 -115 9 q-84 -24 -84 -64q0 -22 19.5 -32t70.5 -11q198 -1 292.5 -21t162.5 -61q56 -33 86.5 -87t30.5 -116q0 -179 -167.5 -284t-449.5 -105q-256 0 -385 71.5t-129 190.5zM160 -121q0 -102 205 -102q116 0 180.5 33.5t64.5 85.5q0 49 -54.5 74.5t-195.5 25.5q-101 0 -150.5 -32 t-49.5 -85zM387 662q0 -62 32.5 -93.5t92.5 -31.5q66 0 113 47q33 33 52 83t19 103q0 62 -32.5 93.5t-92.5 31.5q-65 0 -112 -47q-34 -34 -53 -83.5t-19 -102.5z" />
<glyph unicode="h" horiz-adv-x="1165" d="M-55 0l305 1434h360l-118 -566q134 203 335 203q157 1 229 -101q47 -67 47 -167q0 -51 -13 -111l-146 -692h-360l133 631q9 40 9 71q0 36 -13 58q-24 40 -90 41q-68 0 -120.5 -60.5t-76.5 -173.5l-121 -567h-360z" />
<glyph unicode="i" horiz-adv-x="557" d="M-45 0l221 1040h361l-222 -1040h-360zM199 1147l59 276h360l-59 -276h-360z" />
<glyph unicode="j" horiz-adv-x="557" d="M-322 -387l48 221q54 -4 84 -4q60 0 89.5 25.5t43.5 85.5l233 1099h361l-232 -1093q-38 -178 -147.5 -264t-296.5 -86q-85 0 -183 16zM199 1147l59 276h360l-59 -276h-360z" />
<glyph unicode="k" horiz-adv-x="1185" d="M-55 0l305 1434h360l-176 -826l418 432h358l-413 -428l219 -612h-375l-125 387l-162 -151l-49 -236h-360z" />
<glyph unicode="l" horiz-adv-x="557" d="M-45 0l305 1434h361l-306 -1434h-360z" />
<glyph unicode="m" horiz-adv-x="1767" d="M-55 0l221 1040h360l-37 -176q138 207 345 207q109 0 175.5 -62t75.5 -169q137 231 351 231q156 0 224 -103q44 -67 45 -162q0 -52 -13 -112l-146 -694h-360l135 635q8 38 8 68q0 98 -88 98q-67 0 -118 -61.5t-76 -172.5l-121 -567h-361l135 635q8 38 8 68q0 98 -87 98 q-66 0 -118 -62t-77 -172l-121 -567h-360z" />
<glyph unicode="n" horiz-adv-x="1165" d="M-55 0l221 1040h360l-34 -172q134 203 335 203q157 1 229 -101q47 -67 47 -167q0 -51 -13 -111l-146 -692h-360l133 631q9 40 9 71q0 36 -13 58q-24 40 -90 41q-68 0 -120.5 -60.5t-76.5 -173.5l-121 -567h-360z" />
<glyph unicode="o" d="M10 424q0 128 42.5 244.5t120 206.5t195 143t257.5 53q220 0 349.5 -121.5t129.5 -333.5q0 -128 -42.5 -244.5t-120 -206.5t-195.5 -143t-259 -53q-218 0 -347.5 122t-129.5 333zM369 352q0 -83 34 -125.5t99 -42.5q56 0 104 45q54 54 96.5 194.5t42.5 264.5 q0 83 -34 126.5t-99 43.5q-57 0 -104 -47q-54 -54 -96.5 -193.5t-42.5 -265.5z" />
<glyph unicode="p" horiz-adv-x="1200" d="M-137 -389l303 1429h360l-28 -133q120 164 284 164q152 0 247 -117.5t95 -318.5q0 -128 -37 -249t-101.5 -213t-158.5 -148t-202 -56q-100 0 -175 53.5t-108 143.5l-119 -555h-360zM387 362q0 -87 37.5 -132.5t103.5 -45.5q56 0 99 43q53 53 96 193.5t43 267.5 q0 83 -34.5 126.5t-98.5 43.5q-60 0 -107 -47q-53 -55 -96 -192t-43 -257z" />
<glyph unicode="q" horiz-adv-x="1198" d="M8 406q0 173 62.5 324.5t179 246t260.5 94.5q100 0 174 -53.5t107 -145.5l34 168h363l-303 -1429h-361l109 522q-55 -76 -127 -120t-154 -44q-152 0 -248 118t-96 319zM367 352q0 -82 35.5 -125t99.5 -43q57 0 104 47q53 53 96 190.5t43 256.5q0 88 -37.5 134t-103.5 46 q-53 0 -98 -45q-53 -53 -96 -193.5t-43 -267.5z" />
<glyph unicode="r" horiz-adv-x="831" d="M-55 0l221 1040h360l-43 -204q128 221 353 221q21 0 41 -4l-74 -344q-66 8 -105 8q-124 0 -194 -59.5t-98 -184.5l-101 -473h-360z" />
<glyph unicode="s" horiz-adv-x="1079" d="M-59 190l176 181q162 -185 334 -185q65 0 104 23.5t39 60.5q0 30 -24.5 51t-86.5 39l-129 37q-145 41 -210.5 115.5t-65.5 198.5q0 150 131 255t356 105q277 0 451 -192l-174 -177q-144 156 -293 156q-47 0 -80 -24t-33 -58q0 -33 24 -54t83 -40l100 -31 q168 -52 237.5 -125.5t69.5 -193.5q0 -156 -142 -259.5t-366 -103.5q-163 0 -297.5 59.5t-203.5 161.5z" />
<glyph unicode="t" horiz-adv-x="817" d="M49 815l47 225h150l61 287h361l-62 -287h250l-47 -225h-250l-98 -455q-6 -26 -6 -47q0 -29 12 -45q20 -28 82 -28q51 0 139 10l-51 -242q-137 -26 -256 -26q-185 0 -253 94q-44 61 -44 155q0 52 14 115l101 469h-150z" />
<glyph unicode="u" horiz-adv-x="1165" d="M10 348l146 692h360l-133 -628q-8 -38 -9 -68q0 -104 103 -104q69 0 121 60.5t76 174.5l119 565h360l-219 -1040h-363l37 172q-134 -203 -338 -203q-156 -1 -226 101q-46 67 -47 166q0 51 13 112z" />
<glyph unicode="v" horiz-adv-x="1110" d="M104 1040h371l21 -768l346 768h334l-529 -1040h-454z" />
<glyph unicode="w" horiz-adv-x="1615" d="M94 1040h361l-41 -727l313 727h346l4 -723l269 723h315l-459 -1040h-397l-8 651l-285 -651h-399z" />
<glyph unicode="x" horiz-adv-x="1177" d="M-119 0l475 528l-227 512h373l121 -268l229 268h356l-442 -491l246 -549h-389l-123 293l-258 -293h-361z" />
<glyph unicode="y" horiz-adv-x="1110" d="M-106 -387l49 229q70 -12 139 -12q72 0 107 16.5t67 69.5l-154 1124h369l57 -712l330 712h318l-588 -1136q-88 -172 -201.5 -241t-308.5 -69q-87 0 -184 19z" />
<glyph unicode="z" horiz-adv-x="976" d="M-98 0l45 211l577 604h-428l47 225h863l-43 -211l-578 -602h453l-50 -227h-886z" />
<glyph unicode="{" horiz-adv-x="989" d="M49 528l62 285h104q56 0 82 24t39 89l55 258q42 204 141 288t287 84h262l-59 -282h-145q-65 0 -94 -28t-46 -107l-45 -207q-27 -117 -75 -178t-142 -86q83 -29 107 -90t2 -168l-58 -269q-17 -74 0 -101.5t78 -27.5h150l-62 -282h-227q-198 0 -271 92t-32 293l65 309 q13 61 -1 82.5t-66 21.5h-111z" />
<glyph unicode="|" horiz-adv-x="862" d="M70 -287l401 1884h313l-401 -1884h-313z" />
<glyph unicode="}" horiz-adv-x="989" d="M-106 -270l59 282h145q65 0 94 28t46 107l57 261q25 116 74 177t143 87q-83 29 -108 90.5t-1 167.5l48 215q15 75 -2.5 102t-77.5 27h-150l62 282h229q197 0 269.5 -92t31.5 -293l-53 -256q-13 -61 1 -81.5t66 -20.5h111l-61 -285h-105q-56 0 -82 -23.5t-39 -90.5 l-65 -312q-44 -205 -143 -288.5t-287 -83.5h-262z" />
<glyph unicode="~" horiz-adv-x="1126" d="M160 1161q82 142 174 214.5t184 72.5q99 0 199 -70l41 -30q44 -30 64.5 -39t47.5 -9q72 0 174 142l164 -113q-82 -141 -174 -214t-182 -73q-53 0 -98.5 16.5t-102.5 55.5l-41 29q-43 29 -63.5 38t-46.5 9q-76 0 -174 -141z" />
<glyph unicode="&#xa1;" horiz-adv-x="737" d="M-18 -193l69 328l203 631h268l-67 -631l-70 -328h-403zM225 883l76 358h377l-76 -358h-377z" />
<glyph unicode="&#xa2;" horiz-adv-x="1132" d="M10 424q0 155 59.5 290t177.5 229.5t275 119.5l49 221h295l-51 -240q122 -39 190 -134.5t80 -237.5l-333 -25q-8 103 -38 152t-89 49q-62 0 -115 -53q-59 -59 -101 -184.5t-42 -237.5q0 -90 35 -135t98 -45q60 0 111.5 50t101.5 171l311 -47q-51 -159 -164.5 -260.5 t-269.5 -129.5l-47 -221h-297l51 242q-135 46 -211 157t-76 269z" />
<glyph unicode="&#xa3;" horiz-adv-x="1208" d="M-76 0l45 215q114 46 187 124.5t88 172.5h-211l45 215h129q-43 131 -43 201q0 200 147.5 333.5t390.5 133.5q224 0 355.5 -121.5t154.5 -347.5l-335 -39q-17 149 -56 208.5t-108 59.5q-78 0 -123 -57.5t-45 -165.5q0 -27 4.5 -58t8 -45.5t15 -55t13.5 -46.5h346l-45 -215 h-287q-36 -172 -209 -264h660l-54 -248h-1073z" />
<glyph unicode="&#xa5;" horiz-adv-x="1265" d="M27 178l43 191h309l20 100h-309l41 190h223l-192 705h383l125 -539l356 539h373l-492 -705h221l-38 -190h-312l-20 -100h309l-41 -191h-309l-39 -178h-377l37 178h-311z" />
<glyph unicode="&#xa6;" horiz-adv-x="862" d="M70 -287l166 776h313l-166 -776h-313zM305 821l166 776h313l-166 -776h-313z" />
<glyph unicode="&#xa7;" horiz-adv-x="1294" d="M-125 -109l219 197q84 -107 182.5 -166t202.5 -59q75 0 118.5 28.5t43.5 75.5q0 34 -22 58.5t-78 48.5l-254 110q-135 59 -195.5 131t-60.5 168q0 210 256 303q-74 93 -74 207q0 173 141 287.5t387 114.5q168 0 307.5 -70t237.5 -199l-213 -188q-167 211 -338 211 q-79 0 -119.5 -29.5t-40.5 -77.5q0 -33 22 -57t75 -47l264 -117q134 -60 193 -131.5t59 -161.5q0 -96 -64 -176t-184 -129q70 -82 70 -200q0 -176 -154 -295t-403 -119q-177 0 -332 76t-246 206zM377 575q0 -36 23.5 -62t74.5 -48l309 -129q68 47 68 100q0 33 -21.5 57.5 t-74.5 47.5l-314 131q-65 -41 -65 -97z" />
<glyph unicode="&#xa8;" d="M334 1153l55 264h270l-55 -264h-270zM717 1153l57 264h268l-55 -264h-270z" />
<glyph unicode="&#xa9;" horiz-adv-x="1714" d="M117 707v20q0 206 96.5 375t265.5 265.5t375 96.5h20q154 0 291 -57t235 -154.5t155 -234.5t57 -291v-20q0 -154 -57 -291t-155 -235t-235 -155t-291 -57h-20q-154 0 -291 57t-234.5 155t-154.5 235t-57 291zM250 709q0 -128 46.5 -242t126.5 -196t192.5 -129.5 t240.5 -47.5h16q170 0 309.5 81t218.5 222t79 312v16q0 171 -79 311.5t-218.5 221.5t-309.5 81h-16q-170 0 -309.5 -81t-218 -221.5t-78.5 -311.5v-16zM457 711v12q0 202 114.5 320t305.5 118q140 0 235 -85t117 -226l-246 -31q-13 77 -42 112.5t-75 35.5q-141 0 -141 -244 v-12q0 -244 141 -244q48 0 83 39.5t50 114.5l246 -31q-22 -145 -122.5 -231.5t-245.5 -86.5q-191 0 -305.5 118.5t-114.5 320.5z" />
<glyph unicode="&#xaa;" horiz-adv-x="917" d="M80 778q0 136 122 216.5t394 80.5h37l2 12q27 121 -70 121q-69 0 -123 -92l-239 41q51 110 151 173t242 63q193 0 271 -93.5t42 -261.5l-96 -452h-276l22 110q-46 -60 -110.5 -92.5t-137.5 -32.5q-104 0 -167.5 57t-63.5 150zM375 813q0 -39 20 -59.5t56 -20.5 q51 0 87.5 36t51.5 103l14 68h-12q-110 0 -163.5 -34t-53.5 -93z" />
<glyph unicode="&#xab;" horiz-adv-x="1175" d="M59 606l334 416h314l-351 -430l156 -404h-295zM496 586l356 436h307l-368 -449l149 -385h-293z" />
<glyph unicode="&#xad;" horiz-adv-x="821" d="M61 563l70 326h651l-69 -326h-652z" />
<glyph unicode="&#xae;" horiz-adv-x="1204" d="M166 958v15q0 209 141 350t350 141h15q209 0 350 -141t141 -350v-15q0 -209 -141 -350t-350 -141h-15q-209 0 -350 141t-141 350zM268 958q0 -167 112 -282t277 -115h15q165 0 277 115t112 282v15q0 167 -112 282t-277 115h-15q-165 0 -277 -115t-112 -282v-15zM449 709 v514h229q106 0 160.5 -45t54.5 -123q0 -107 -90 -144l102 -202h-174l-80 176h-41v-176h-161zM610 987h39q41 0 59.5 15t18.5 47t-18.5 46.5t-59.5 14.5h-39v-123z" />
<glyph unicode="&#xaf;" d="M340 1180l45 211h584l-45 -211h-584z" />
<glyph unicode="&#xb0;" horiz-adv-x="888" d="M211 1077q0 135 90.5 226.5t226.5 91.5q138 0 229 -91.5t91 -226.5t-91 -226t-229 -91q-136 0 -226.5 91t-90.5 226zM393 1077q0 -62 37.5 -105.5t97.5 -43.5q61 0 99.5 43.5t38.5 105.5t-38.5 105t-99.5 43q-60 0 -97.5 -43t-37.5 -105z" />
<glyph unicode="&#xb1;" horiz-adv-x="1234" d="M4 72l51 239h971l-51 -239h-971zM143 731l52 240h356l72 332h256l-70 -332h356l-51 -240h-356l-70 -332h-258l72 332h-359z" />
<glyph unicode="&#xb4;" d="M549 1139l180 291h340l-295 -291h-225z" />
<glyph unicode="&#xb6;" horiz-adv-x="1445" d="M53 700q0 142 48.5 263t139 210.5t229.5 140t312 50.5h703l-367 -1724h-252l318 1501h-172l-322 -1501h-252l133 628q-256 6 -387 117.5t-131 314.5z" />
<glyph unicode="&#xb7;" horiz-adv-x="673" d="M141 604l76 359h363l-78 -359h-361z" />
<glyph unicode="&#xb8;" d="M160 -406l59 125q75 -34 164 -34q98 0 98 55q0 21 -19 34t-56 13q-33 0 -80 -14l-64 61l158 166h151l-77 -92h10q97 0 150 -45t53 -117q0 -88 -83.5 -142.5t-222.5 -54.5t-241 45z" />
<glyph unicode="&#xba;" horiz-adv-x="978" d="M131 907q0 204 136.5 345t340.5 141q169 0 270 -94.5t101 -247.5q0 -205 -136.5 -346.5t-340.5 -141.5q-169 0 -270 95t-101 249zM418 874q0 -67 25 -103t67 -36t78 39q40 39 72 129t32 180q0 67 -25 102.5t-67 35.5q-41 0 -78 -37q-40 -40 -72 -130t-32 -180z" />
<glyph unicode="&#xbb;" horiz-adv-x="1175" d="M-16 188l368 451l-147 383h293l151 -395l-356 -439h-309zM438 188l350 430l-155 404h295l155 -416l-331 -418h-314z" />
<glyph unicode="&#xbf;" horiz-adv-x="1243" d="M-16 178q0 194 133 320t375 155l24 113h365l-70 -322h-149q-137 0 -213 -66.5t-76 -187.5q0 -78 36 -119.5t107 -41.5q148 0 232 221l339 -43q-64 -196 -221 -313t-383 -117q-239 0 -369 109t-130 292zM535 883l75 358h377l-76 -358h-376z" />
<glyph unicode="&#xc0;" horiz-adv-x="1425" d="M-127 0l760 1434h485l150 -1434h-402l-22 299h-461l-147 -299h-363zM518 569h307l-39 541zM610 1786h324l63 -260h-219z" />
<glyph unicode="&#xc1;" horiz-adv-x="1425" d="M-127 0l760 1434h485l150 -1434h-402l-22 299h-461l-147 -299h-363zM518 569h307l-39 541zM770 1526l172 260h342l-280 -260h-234z" />
<glyph unicode="&#xc2;" horiz-adv-x="1425" d="M-127 0l760 1434h485l150 -1434h-402l-22 299h-461l-147 -299h-363zM518 569h307l-39 541zM518 1526l285 254h287l176 -254h-238l-104 119l-150 -119h-256z" />
<glyph unicode="&#xc3;" horiz-adv-x="1425" d="M-127 0l760 1434h485l150 -1434h-402l-22 299h-461l-147 -299h-363zM518 569h307l-39 541zM543 1599q45 92 122 149.5t150 57.5q78 0 143 -45l25 -16q50 -33 84 -33q58 0 123 90l123 -78q-45 -92 -122 -149t-151 -57q-78 0 -143 45l-25 16q-50 33 -86 33q-57 0 -122 -90z " />
<glyph unicode="&#xc4;" horiz-adv-x="1425" d="M-127 0l760 1434h485l150 -1434h-402l-22 299h-461l-147 -299h-363zM518 569h307l-39 541zM559 1536l53 244h269l-54 -244h-268zM969 1536l51 244h270l-53 -244h-268z" />
<glyph unicode="&#xc5;" horiz-adv-x="1425" d="M-127 0l760 1434h485l150 -1434h-402l-22 299h-461l-147 -299h-363zM518 569h307l-39 541zM676 1714q0 98 72 167t174 69q96 0 154.5 -55.5t58.5 -147.5q0 -97 -72.5 -165.5t-173.5 -68.5q-96 0 -154.5 54.5t-58.5 146.5zM809 1722q0 -41 24 -64.5t64 -23.5q46 0 75 31.5 t29 75.5q0 41 -24 64.5t-64 23.5q-46 0 -75 -32t-29 -75z" />
<glyph unicode="&#xc6;" horiz-adv-x="2037" d="M-127 0l883 1434h1347l-61 -279h-633l-59 -283h540l-59 -276h-541l-67 -317h635l-60 -279h-1030l63 299h-405l-180 -299h-373zM588 569h301l125 586h-74z" />
<glyph unicode="&#xc7;" horiz-adv-x="1404" d="M51 563q0 139 32.5 271t98.5 246t157.5 200t216.5 135t269 49q254 0 397.5 -134t163.5 -386l-366 -29q-10 153 -56.5 220t-132.5 67q-113 0 -198 -117q-75 -103 -127.5 -279.5t-52.5 -303.5q0 -132 52.5 -201.5t151.5 -69.5q94 0 169.5 72t134.5 238l352 -49 q-79 -249 -241 -380.5t-396 -142.5l-53 -61h10q97 0 150 -45t53 -117q0 -88 -83.5 -142.5t-222.5 -54.5t-241 45l59 125q75 -34 164 -34q98 0 98 55q0 21 -19 34t-56 13q-33 0 -80 -14l-64 61l135 141q-225 32 -350 187t-125 401z" />
<glyph unicode="&#xc8;" horiz-adv-x="1234" d="M-35 0l305 1434h1028l-59 -279h-635l-59 -283h542l-59 -276h-541l-67 -317h633l-60 -279h-1028zM518 1786h324l63 -260h-219z" />
<glyph unicode="&#xc9;" horiz-adv-x="1234" d="M-35 0l305 1434h1028l-59 -279h-635l-59 -283h542l-59 -276h-541l-67 -317h633l-60 -279h-1028zM678 1526l172 260h342l-281 -260h-233z" />
<glyph unicode="&#xca;" horiz-adv-x="1234" d="M-35 0l305 1434h1028l-59 -279h-635l-59 -283h542l-59 -276h-541l-67 -317h633l-60 -279h-1028zM426 1526l285 254h286l177 -254h-238l-105 119l-149 -119h-256z" />
<glyph unicode="&#xcb;" horiz-adv-x="1234" d="M-35 0l305 1434h1028l-59 -279h-635l-59 -283h542l-59 -276h-541l-67 -317h633l-60 -279h-1028zM467 1536l53 244h268l-53 -244h-268zM877 1536l51 244h270l-53 -244h-268z" />
<glyph unicode="&#xcc;" horiz-adv-x="630" d="M-25 0l306 1434h393l-305 -1434h-394zM211 1786h324l63 -260h-219z" />
<glyph unicode="&#xcd;" horiz-adv-x="630" d="M-25 0l306 1434h393l-305 -1434h-394zM369 1526l172 260h342l-281 -260h-233z" />
<glyph unicode="&#xce;" horiz-adv-x="630" d="M-25 0l306 1434h393l-305 -1434h-394zM117 1526l284 254h287l176 -254h-237l-105 119l-149 -119h-256z" />
<glyph unicode="&#xcf;" horiz-adv-x="630" d="M-25 0l306 1434h393l-305 -1434h-394zM160 1536l53 244h268l-53 -244h-268zM569 1536l52 244h270l-53 -244h-269z" />
<glyph unicode="&#xd0;" horiz-adv-x="1458" d="M-27 0l133 627h-100l47 217h101l125 590h552q154 0 269.5 -40.5t186.5 -115.5t105.5 -176t34.5 -228q0 -112 -21.5 -218t-63.5 -204t-109 -180t-153.5 -143t-202 -95t-248.5 -34h-656zM424 268h178q146 0 254 105q76 78 124 221t48 311q0 127 -64.5 193.5t-215.5 66.5 h-134l-67 -321h274l-45 -217h-276z" />
<glyph unicode="&#xd1;" horiz-adv-x="1443" d="M-35 0l305 1434h373l326 -824l176 824h352l-305 -1434h-354l-338 854l-183 -854h-352zM563 1599q45 92 122.5 149.5t150.5 57.5q78 0 143 -45l25 -16q50 -33 83 -33q58 0 123 90l123 -78q-45 -92 -122 -149t-150 -57q-78 0 -143 45l-25 16q-50 33 -86 33q-58 0 -123 -90z " />
<glyph unicode="&#xd2;" horiz-adv-x="1464" d="M51 563q0 116 23.5 227.5t67.5 212t112 185t152.5 146t193 96t229.5 34.5q286 0 443.5 -158.5t157.5 -435.5q0 -139 -33 -271t-99 -246t-158 -200t-218 -135t-271 -49q-286 0 -443 158.5t-157 435.5zM453 502q0 -134 51 -203.5t149 -69.5q89 0 166 74q85 86 147 280.5 t62 348.5q0 134 -51 203t-150 69q-89 0 -163 -74q-86 -86 -148.5 -280t-62.5 -348zM627 1786h323l64 -260h-219z" />
<glyph unicode="&#xd3;" horiz-adv-x="1464" d="M51 563q0 116 23.5 227.5t67.5 212t112 185t152.5 146t193 96t229.5 34.5q286 0 443.5 -158.5t157.5 -435.5q0 -139 -33 -271t-99 -246t-158 -200t-218 -135t-271 -49q-286 0 -443 158.5t-157 435.5zM453 502q0 -134 51 -203.5t149 -69.5q89 0 166 74q85 86 147 280.5 t62 348.5q0 134 -51 203t-150 69q-89 0 -163 -74q-86 -86 -148.5 -280t-62.5 -348zM784 1526l172 260h342l-280 -260h-234z" />
<glyph unicode="&#xd4;" horiz-adv-x="1464" d="M51 563q0 116 23.5 227.5t67.5 212t112 185t152.5 146t193 96t229.5 34.5q286 0 443.5 -158.5t157.5 -435.5q0 -139 -33 -271t-99 -246t-158 -200t-218 -135t-271 -49q-286 0 -443 158.5t-157 435.5zM453 502q0 -134 51 -203.5t149 -69.5q89 0 166 74q85 86 147 280.5 t62 348.5q0 134 -51 203t-150 69q-89 0 -163 -74q-86 -86 -148.5 -280t-62.5 -348zM532 1526l285 254h287l176 -254h-238l-104 119l-150 -119h-256z" />
<glyph unicode="&#xd5;" horiz-adv-x="1464" d="M51 563q0 116 23.5 227.5t67.5 212t112 185t152.5 146t193 96t229.5 34.5q286 0 443.5 -158.5t157.5 -435.5q0 -139 -33 -271t-99 -246t-158 -200t-218 -135t-271 -49q-286 0 -443 158.5t-157 435.5zM453 502q0 -134 51 -203.5t149 -69.5q89 0 166 74q85 86 147 280.5 t62 348.5q0 134 -51 203t-150 69q-89 0 -163 -74q-86 -86 -148.5 -280t-62.5 -348zM557 1599q45 92 122 149.5t150 57.5q79 0 144 -45l24 -16q50 -33 84 -33q58 0 123 90l123 -78q-45 -92 -122 -149t-150 -57q-79 0 -144 45l-24 16q-50 33 -86 33q-58 0 -123 -90z" />
<glyph unicode="&#xd6;" horiz-adv-x="1464" d="M51 563q0 116 23.5 227.5t67.5 212t112 185t152.5 146t193 96t229.5 34.5q286 0 443.5 -158.5t157.5 -435.5q0 -139 -33 -271t-99 -246t-158 -200t-218 -135t-271 -49q-286 0 -443 158.5t-157 435.5zM453 502q0 -134 51 -203.5t149 -69.5q89 0 166 74q85 86 147 280.5 t62 348.5q0 134 -51 203t-150 69q-89 0 -163 -74q-86 -86 -148.5 -280t-62.5 -348zM575 1536l54 244h268l-53 -244h-269zM985 1536l51 244h271l-54 -244h-268z" />
<glyph unicode="&#xd7;" horiz-adv-x="1234" d="M57 375l389 319l-247 320l202 157l244 -313l383 316l148 -179l-390 -319l248 -320l-203 -157l-243 313l-383 -315z" />
<glyph unicode="&#xd8;" horiz-adv-x="1464" d="M14 20l146 164q-109 148 -109 379q0 116 23.5 227.5t67.5 212t112 185t152.5 146t193 96t229.5 34.5q236 0 381 -106l138 153l118 -98l-145 -164q109 -148 109 -379q0 -139 -33 -271t-99 -246t-158 -200t-218 -135t-271 -49q-234 0 -381 107l-137 -154zM453 510l538 604 q-50 90 -164 90q-89 0 -163 -74q-85 -85 -147 -275t-64 -345zM489 322q50 -93 164 -93q89 0 166 74q84 86 146.5 279.5t62.5 341.5z" />
<glyph unicode="&#xd9;" horiz-adv-x="1402" d="M76 553l188 881h393l-194 -912q-27 -132 16.5 -198t147.5 -66q202 0 260 264l196 912h379l-188 -881q-125 -584 -676 -584q-298 0 -439.5 154.5t-82.5 429.5zM604 1786h324l63 -260h-219z" />
<glyph unicode="&#xda;" horiz-adv-x="1402" d="M76 553l188 881h393l-194 -912q-27 -132 16.5 -198t147.5 -66q202 0 260 264l196 912h379l-188 -881q-125 -584 -676 -584q-298 0 -439.5 154.5t-82.5 429.5zM764 1526l172 260h342l-281 -260h-233z" />
<glyph unicode="&#xdb;" horiz-adv-x="1402" d="M76 553l188 881h393l-194 -912q-27 -132 16.5 -198t147.5 -66q202 0 260 264l196 912h379l-188 -881q-125 -584 -676 -584q-298 0 -439.5 154.5t-82.5 429.5zM512 1526l285 254h286l177 -254h-238l-104 119l-150 -119h-256z" />
<glyph unicode="&#xdc;" horiz-adv-x="1402" d="M76 553l188 881h393l-194 -912q-27 -132 16.5 -198t147.5 -66q202 0 260 264l196 912h379l-188 -881q-125 -584 -676 -584q-298 0 -439.5 154.5t-82.5 429.5zM555 1536l53 244h269l-54 -244h-268zM965 1536l51 244h270l-53 -244h-268z" />
<glyph unicode="&#xdd;" horiz-adv-x="1355" d="M180 1434h398l141 -600l393 600h387l-670 -969l-98 -465h-393l98 465zM731 1526l172 260h342l-280 -260h-234z" />
<glyph unicode="&#xde;" horiz-adv-x="1359" d="M-35 0l305 1434h394l-50 -232h207q520 0 520 -411q0 -114 -42 -212.5t-122 -173t-205.5 -117t-281.5 -42.5h-278l-54 -246h-393zM467 508h190q135 0 207 68t72 196q0 85 -49.5 126.5t-157.5 41.5h-170z" />
<glyph unicode="&#xdf;" horiz-adv-x="1204" d="M-55 0l209 989q51 236 187.5 355.5t383.5 119.5q228 0 344.5 -97.5t116.5 -254.5q0 -124 -80.5 -213.5t-220.5 -124.5q109 -34 167 -118t58 -189q0 -230 -141 -358.5t-369 -128.5q-130 0 -205 14l43 205q30 -6 88 -6q91 0 138 47q37 37 59 103t22 142q0 84 -40.5 122 t-126.5 38h-46l50 227h45q83 0 129 46q27 27 46 85.5t19 118.5q0 127 -116 127q-68 0 -112.5 -54.5t-72.5 -184.5l-215 -1010h-360z" />
<glyph unicode="&#xe0;" horiz-adv-x="1107" d="M-47 252q0 88 33 158t103.5 124t189.5 83.5t280 29.5h107l4 17q33 167 -97 167q-97 0 -157 -126l-312 51q55 148 180 231.5t308 83.5q258 0 362.5 -128.5t59.5 -340.5l-127 -602h-361l31 141q-56 -75 -138 -118t-173 -43q-133 0 -213 74.5t-80 197.5zM313 297 q0 -50 28.5 -77t80.5 -27q67 0 117 52t69 138l21 90h-21q-150 0 -222.5 -48t-72.5 -128zM381 1430h321l68 -291h-219z" />
<glyph unicode="&#xe1;" horiz-adv-x="1107" d="M-47 252q0 88 33 158t103.5 124t189.5 83.5t280 29.5h107l4 17q33 167 -97 167q-97 0 -157 -126l-312 51q55 148 180 231.5t308 83.5q258 0 362.5 -128.5t59.5 -340.5l-127 -602h-361l31 141q-56 -75 -138 -118t-173 -43q-133 0 -213 74.5t-80 197.5zM313 297 q0 -50 28.5 -77t80.5 -27q67 0 117 52t69 138l21 90h-21q-150 0 -222.5 -48t-72.5 -128zM541 1139l180 291h340l-295 -291h-225z" />
<glyph unicode="&#xe2;" horiz-adv-x="1107" d="M-47 252q0 88 33 158t103.5 124t189.5 83.5t280 29.5h107l4 17q33 167 -97 167q-97 0 -157 -126l-312 51q55 148 180 231.5t308 83.5q258 0 362.5 -128.5t59.5 -340.5l-127 -602h-361l31 141q-56 -75 -138 -118t-173 -43q-133 0 -213 74.5t-80 197.5zM291 1141l303 286 h272l172 -286h-233l-96 145l-164 -145h-254zM313 297q0 -50 28.5 -77t80.5 -27q67 0 117 52t69 138l21 90h-21q-150 0 -222.5 -48t-72.5 -128z" />
<glyph unicode="&#xe3;" horiz-adv-x="1107" d="M-47 252q0 88 33 158t103.5 124t189.5 83.5t280 29.5h107l4 17q33 167 -97 167q-97 0 -157 -126l-312 51q55 148 180 231.5t308 83.5q258 0 362.5 -128.5t59.5 -340.5l-127 -602h-361l31 141q-56 -75 -138 -118t-173 -43q-133 0 -213 74.5t-80 197.5zM313 297 q0 -50 28.5 -77t80.5 -27q67 0 117 52t69 138l21 90h-21q-150 0 -222.5 -48t-72.5 -128zM313 1233q49 93 123 148t146 55q71 0 139 -41l37 -21q53 -35 86 -35q47 0 114 93l125 -95q-49 -93 -122.5 -147.5t-145.5 -54.5q-71 0 -139 41l-37 20q-54 33 -86 33q-50 0 -115 -90z " />
<glyph unicode="&#xe4;" horiz-adv-x="1107" d="M-47 252q0 88 33 158t103.5 124t189.5 83.5t280 29.5h107l4 17q33 167 -97 167q-97 0 -157 -126l-312 51q55 148 180 231.5t308 83.5q258 0 362.5 -128.5t59.5 -340.5l-127 -602h-361l31 141q-56 -75 -138 -118t-173 -43q-133 0 -213 74.5t-80 197.5zM313 297 q0 -50 28.5 -77t80.5 -27q67 0 117 52t69 138l21 90h-21q-150 0 -222.5 -48t-72.5 -128zM342 1153l55 264h271l-56 -264h-270zM725 1153l57 264h269l-56 -264h-270z" />
<glyph unicode="&#xe5;" horiz-adv-x="1107" d="M-47 252q0 88 33 158t103.5 124t189.5 83.5t280 29.5h107l4 17q33 167 -97 167q-97 0 -157 -126l-312 51q55 148 180 231.5t308 83.5q258 0 362.5 -128.5t59.5 -340.5l-127 -602h-361l31 141q-56 -75 -138 -118t-173 -43q-133 0 -213 74.5t-80 197.5zM313 297 q0 -50 28.5 -77t80.5 -27q67 0 117 52t69 138l21 90h-21q-150 0 -222.5 -48t-72.5 -128zM479 1321q0 97 72.5 165t173.5 68q96 0 154.5 -54t58.5 -146q0 -98 -72 -167t-174 -69q-96 0 -154.5 55.5t-58.5 147.5zM612 1327q0 -41 24 -64.5t64 -23.5q46 0 75.5 32t29.5 75 q0 41 -24 64.5t-64 23.5q-46 0 -75.5 -31.5t-29.5 -75.5z" />
<glyph unicode="&#xe6;" horiz-adv-x="1755" d="M-49 252q0 88 33 157t103 121.5t189.5 80.5t282.5 28h105l10 45q13 70 -13 108.5t-86 38.5q-99 0 -159 -126l-312 51q54 146 184 230.5t302 84.5q243 0 315 -156q139 156 357 156q193 0 308.5 -110t115.5 -295q0 -85 -29 -211h-672q-6 -41 -6 -78q0 -193 156 -193 q112 0 221 164l272 -76q-187 -303 -522 -303q-280 0 -379 185q-160 -174 -428 -174q-158 0 -253 75t-95 197zM313 297q0 -50 28 -77t79 -27q67 0 118 52t70 138l19 82h-19q-151 0 -223 -44.5t-72 -123.5zM1028 635h328q8 58 8 74q0 153 -129 153q-59 0 -113 -51 q-49 -49 -94 -176z" />
<glyph unicode="&#xe7;" horiz-adv-x="1134" d="M10 424q0 102 26.5 197.5t79.5 177t126.5 142.5t173 95.5t213.5 34.5q208 0 324.5 -104t131.5 -295l-333 -25q-8 103 -38 152t-89 49q-62 0 -115 -53q-59 -59 -101 -184.5t-42 -237.5q0 -90 35 -135t98 -45q60 0 111.5 50t101.5 171l311 -47q-55 -176 -188 -280.5 t-314 -115.5l-53 -63h10q97 0 150 -45t53 -117q0 -88 -83 -142.5t-222 -54.5q-140 0 -242 45l60 125q75 -34 163 -34q48 0 73.5 15t25.5 40q0 21 -19.5 34t-56.5 13q-33 0 -80 -14l-63 61l137 143q-169 31 -267 149t-98 298z" />
<glyph unicode="&#xe8;" horiz-adv-x="1138" d="M10 420q0 130 42 247t118 207.5t192 143.5t256 53q213 0 332 -109t119 -296q0 -85 -29 -211h-669q-6 -41 -6 -78q0 -193 155 -193q112 0 221 164l271 -76q-187 -303 -529 -303q-219 0 -346 121t-127 330zM379 1430h321l68 -291h-219zM412 633h327q9 65 9 76 q0 153 -130 153q-59 0 -110 -51t-96 -178z" />
<glyph unicode="&#xe9;" horiz-adv-x="1138" d="M10 420q0 130 42 247t118 207.5t192 143.5t256 53q213 0 332 -109t119 -296q0 -85 -29 -211h-669q-6 -41 -6 -78q0 -193 155 -193q112 0 221 164l271 -76q-187 -303 -529 -303q-219 0 -346 121t-127 330zM412 633h327q9 65 9 76q0 153 -130 153q-59 0 -110 -51t-96 -178z M539 1139l180 291h340l-295 -291h-225z" />
<glyph unicode="&#xea;" horiz-adv-x="1138" d="M10 420q0 130 42 247t118 207.5t192 143.5t256 53q213 0 332 -109t119 -296q0 -85 -29 -211h-669q-6 -41 -6 -78q0 -193 155 -193q112 0 221 164l271 -76q-187 -303 -529 -303q-219 0 -346 121t-127 330zM289 1141l303 286h272l172 -286h-233l-96 145l-164 -145h-254z M412 633h327q9 65 9 76q0 153 -130 153q-59 0 -110 -51t-96 -178z" />
<glyph unicode="&#xeb;" horiz-adv-x="1138" d="M10 420q0 130 42 247t118 207.5t192 143.5t256 53q213 0 332 -109t119 -296q0 -85 -29 -211h-669q-6 -41 -6 -78q0 -193 155 -193q112 0 221 164l271 -76q-187 -303 -529 -303q-219 0 -346 121t-127 330zM340 1153l55 264h271l-56 -264h-270zM412 633h327q9 65 9 76 q0 153 -130 153q-59 0 -110 -51t-96 -178zM723 1153l57 264h269l-56 -264h-270z" />
<glyph unicode="&#xec;" horiz-adv-x="557" d="M-45 0l221 1040h361l-222 -1040h-360zM92 1430h322l67 -291h-219z" />
<glyph unicode="&#xed;" horiz-adv-x="557" d="M-45 0l221 1040h361l-222 -1040h-360zM252 1139l180 291h340l-295 -291h-225z" />
<glyph unicode="&#xee;" horiz-adv-x="557" d="M-45 0l221 1040h361l-222 -1040h-360zM0 1141l303 286h272l173 -286h-234l-96 145l-164 -145h-254z" />
<glyph unicode="&#xef;" horiz-adv-x="557" d="M-45 0l221 1040h361l-222 -1040h-360zM53 1153l56 264h270l-55 -264h-271zM436 1153l58 264h268l-55 -264h-271z" />
<glyph unicode="&#xf0;" horiz-adv-x="1167" d="M10 424q0 163 66 309t184 236t258 90q142 0 223 -121q-40 121 -102 229l-285 -61l-4 129l219 47q-64 95 -112 152h366q55 -69 64 -84l231 49l4 -127l-161 -35q143 -251 143 -524q0 -209 -73.5 -377t-215 -267.5t-328.5 -99.5q-218 0 -347.5 122t-129.5 333zM369 352 q0 -82 34.5 -125t98.5 -43q57 0 104 47q55 53 98.5 185.5t43.5 249.5q0 87 -38 132.5t-104 45.5q-53 0 -96 -43q-55 -53 -98 -187.5t-43 -261.5z" />
<glyph unicode="&#xf1;" horiz-adv-x="1165" d="M-55 0l221 1040h360l-34 -172q134 203 335 203q157 0 228.5 -101.5t34.5 -277.5l-146 -692h-360l133 631q20 89 -4 129.5t-90 40.5q-68 0 -120.5 -60.5t-76.5 -173.5l-121 -567h-360zM352 1233q49 93 123 148t146 55q71 0 139 -41l37 -21q53 -35 86 -35q47 0 114 93 l125 -95q-49 -93 -122.5 -147.5t-145.5 -54.5q-71 0 -139 41l-37 20q-54 33 -86 33q-50 0 -115 -90z" />
<glyph unicode="&#xf2;" d="M10 424q0 128 42.5 244.5t120 206.5t195 143t257.5 53q220 0 349.5 -121.5t129.5 -333.5q0 -128 -42.5 -244.5t-120 -206.5t-195.5 -143t-259 -53q-218 0 -347.5 122t-129.5 333zM369 352q0 -83 34 -125.5t99 -42.5q56 0 104 45q54 54 96.5 194.5t42.5 264.5 q0 83 -34 126.5t-99 43.5q-57 0 -104 -47q-54 -54 -96.5 -193.5t-42.5 -265.5zM385 1430h322l67 -291h-219z" />
<glyph unicode="&#xf3;" d="M10 424q0 128 42.5 244.5t120 206.5t195 143t257.5 53q220 0 349.5 -121.5t129.5 -333.5q0 -128 -42.5 -244.5t-120 -206.5t-195.5 -143t-259 -53q-218 0 -347.5 122t-129.5 333zM369 352q0 -83 34 -125.5t99 -42.5q56 0 104 45q54 54 96.5 194.5t42.5 264.5 q0 83 -34 126.5t-99 43.5q-57 0 -104 -47q-54 -54 -96.5 -193.5t-42.5 -265.5zM545 1139l180 291h340l-295 -291h-225z" />
<glyph unicode="&#xf4;" d="M10 424q0 128 42.5 244.5t120 206.5t195 143t257.5 53q220 0 349.5 -121.5t129.5 -333.5q0 -128 -42.5 -244.5t-120 -206.5t-195.5 -143t-259 -53q-218 0 -347.5 122t-129.5 333zM295 1141l303 286h272l172 -286h-233l-96 145l-164 -145h-254zM369 352q0 -83 34 -125.5 t99 -42.5q56 0 104 45q54 54 96.5 194.5t42.5 264.5q0 83 -34 126.5t-99 43.5q-57 0 -104 -47q-54 -54 -96.5 -193.5t-42.5 -265.5z" />
<glyph unicode="&#xf5;" d="M10 424q0 128 42.5 244.5t120 206.5t195 143t257.5 53q220 0 349.5 -121.5t129.5 -333.5q0 -128 -42.5 -244.5t-120 -206.5t-195.5 -143t-259 -53q-218 0 -347.5 122t-129.5 333zM317 1233q49 93 123 148t146 55q71 0 139 -41l37 -21q53 -35 86 -35q48 0 115 93l124 -95 q-49 -93 -122.5 -147.5t-145.5 -54.5q-71 0 -139 41l-37 20q-54 33 -86 33q-50 0 -115 -90zM369 352q0 -83 34 -125.5t99 -42.5q56 0 104 45q54 54 96.5 194.5t42.5 264.5q0 83 -34 126.5t-99 43.5q-57 0 -104 -47q-54 -54 -96.5 -193.5t-42.5 -265.5z" />
<glyph unicode="&#xf6;" d="M10 424q0 128 42.5 244.5t120 206.5t195 143t257.5 53q220 0 349.5 -121.5t129.5 -333.5q0 -128 -42.5 -244.5t-120 -206.5t-195.5 -143t-259 -53q-218 0 -347.5 122t-129.5 333zM348 1153l55 264h271l-56 -264h-270zM369 352q0 -83 34 -125.5t99 -42.5q56 0 104 45 q54 54 96.5 194.5t42.5 264.5q0 83 -34 126.5t-99 43.5q-57 0 -104 -47q-54 -54 -96.5 -193.5t-42.5 -265.5zM731 1153l57 264h269l-56 -264h-270z" />
<glyph unicode="&#xf7;" horiz-adv-x="1234" d="M109 565l51 240h970l-51 -240h-970zM373 150l59 280h266l-59 -280h-266zM541 942l59 279h266l-59 -279h-266z" />
<glyph unicode="&#xf8;" d="M-16 2l120 127q-94 117 -94 295q0 128 42.5 244.5t120 206.5t195 143t257.5 53q176 0 295 -78l118 125l92 -80l-120 -127q94 -117 94 -295q0 -128 -42.5 -244.5t-120 -206.5t-195.5 -143t-259 -53q-173 0 -292 78l-119 -125zM371 412l356 376q-31 70 -115 70 q-57 0 -104 -47t-86.5 -163.5t-50.5 -235.5zM387 252q35 -68 115 -68q56 0 104 45q47 47 86.5 164.5t50.5 235.5z" />
<glyph unicode="&#xf9;" horiz-adv-x="1165" d="M10 348l146 692h360l-133 -628q-38 -172 94 -172q69 0 121 60.5t76 174.5l119 565h360l-219 -1040h-363l37 172q-134 -203 -338 -203q-156 0 -226.5 101.5t-33.5 277.5zM383 1430h322l67 -291h-219z" />
<glyph unicode="&#xfa;" horiz-adv-x="1165" d="M10 348l146 692h360l-133 -628q-38 -172 94 -172q69 0 121 60.5t76 174.5l119 565h360l-219 -1040h-363l37 172q-134 -203 -338 -203q-156 0 -226.5 101.5t-33.5 277.5zM543 1139l180 291h340l-295 -291h-225z" />
<glyph unicode="&#xfb;" horiz-adv-x="1165" d="M10 348l146 692h360l-133 -628q-38 -172 94 -172q69 0 121 60.5t76 174.5l119 565h360l-219 -1040h-363l37 172q-134 -203 -338 -203q-156 0 -226.5 101.5t-33.5 277.5zM293 1141l303 286h272l172 -286h-233l-96 145l-164 -145h-254z" />
<glyph unicode="&#xfc;" horiz-adv-x="1165" d="M10 348l146 692h360l-133 -628q-38 -172 94 -172q69 0 121 60.5t76 174.5l119 565h360l-219 -1040h-363l37 172q-134 -203 -338 -203q-156 0 -226.5 101.5t-33.5 277.5zM346 1153l55 264h271l-56 -264h-270zM729 1153l57 264h269l-56 -264h-270z" />
<glyph unicode="&#xfd;" horiz-adv-x="1110" d="M-106 -387l49 229q70 -12 139 -12q72 0 107 16.5t67 69.5l-154 1124h369l57 -712l330 712h318l-588 -1136q-88 -172 -201.5 -241t-308.5 -69q-87 0 -184 19zM555 1139l180 291h340l-295 -291h-225z" />
<glyph unicode="&#xfe;" horiz-adv-x="1198" d="M-137 -389l387 1823h360l-110 -525q122 162 282 162q152 0 247 -117.5t95 -318.5q0 -128 -37 -249t-101.5 -213t-158.5 -148t-202 -56q-100 0 -175 53.5t-108 143.5l-119 -555h-360zM387 362q0 -87 37.5 -132.5t103.5 -45.5q56 0 99 43q53 53 96 193.5t43 267.5 q0 83 -34.5 126.5t-98.5 43.5q-60 0 -107 -47q-53 -55 -96 -192t-43 -257z" />
<glyph unicode="&#xff;" horiz-adv-x="1110" d="M-106 -387l49 229q70 -12 139 -12q72 0 107 16.5t67 69.5l-154 1124h369l57 -712l330 712h318l-588 -1136q-88 -172 -201.5 -241t-308.5 -69q-87 0 -184 19zM356 1153l56 264h270l-55 -264h-271zM739 1153l58 264h268l-55 -264h-271z" />
<glyph unicode="&#x152;" horiz-adv-x="2039" d="M49 559q0 134 31.5 260t98 238t161.5 195.5t231 132.5t297 49h1237l-59 -279h-621l-59 -283h526l-57 -276h-528l-68 -317h621l-60 -279h-1155q-303 0 -449.5 149t-146.5 410zM449 528q0 -127 64 -193.5t214 -66.5h117l190 897h-160q-146 0 -253 -104q-76 -77 -124 -221 t-48 -312z" />
<glyph unicode="&#x153;" horiz-adv-x="1853" d="M10 424q0 128 42.5 244.5t120 206.5t195 143t257.5 53q235 0 344 -153q150 153 364 153q213 0 332 -109t119 -296q0 -85 -29 -211h-672q-6 -41 -6 -78q0 -193 156 -193q111 0 223 164l270 -76q-94 -153 -224 -228t-304 -75q-242 0 -344 158q-155 -158 -367 -158 q-218 0 -347.5 122t-129.5 333zM369 352q0 -83 34 -125.5t99 -42.5q56 0 104 45q54 54 96.5 194.5t42.5 264.5q0 83 -34 126.5t-99 43.5q-57 0 -104 -47q-54 -54 -96.5 -193.5t-42.5 -265.5zM1124 633h330q8 58 8 76q0 153 -129 153q-59 0 -110 -51q-55 -55 -99 -178z" />
<glyph unicode="&#x178;" horiz-adv-x="1355" d="M180 1434h398l141 -600l393 600h387l-670 -969l-98 -465h-393l98 465zM522 1536l53 244h269l-53 -244h-269zM932 1536l51 244h270l-53 -244h-268z" />
<glyph unicode="&#x2c6;" d="M317 1141l304 286h272l172 -286h-234l-96 145l-164 -145h-254z" />
<glyph unicode="&#x2dc;" d="M328 1233q49 94 122.5 148.5t145.5 54.5q71 0 139 -41l37 -21q53 -35 86 -35q48 0 115 93l125 -95q-48 -93 -122.5 -147.5t-146.5 -54.5q-71 0 -139 41l-37 20q-54 33 -86 33q-49 0 -114 -90z" />
<glyph unicode="&#x2000;" horiz-adv-x="975" />
<glyph unicode="&#x2001;" horiz-adv-x="1950" />
<glyph unicode="&#x2002;" horiz-adv-x="975" />
<glyph unicode="&#x2003;" horiz-adv-x="1950" />
<glyph unicode="&#x2004;" horiz-adv-x="650" />
<glyph unicode="&#x2005;" horiz-adv-x="487" />
<glyph unicode="&#x2006;" horiz-adv-x="325" />
<glyph unicode="&#x2007;" horiz-adv-x="325" />
<glyph unicode="&#x2008;" horiz-adv-x="243" />
<glyph unicode="&#x2009;" horiz-adv-x="390" />
<glyph unicode="&#x200a;" horiz-adv-x="108" />
<glyph unicode="&#x2010;" horiz-adv-x="821" d="M61 563l70 326h651l-69 -326h-652z" />
<glyph unicode="&#x2011;" horiz-adv-x="821" d="M61 563l70 326h651l-69 -326h-652z" />
<glyph unicode="&#x2012;" horiz-adv-x="821" d="M61 563l70 326h651l-69 -326h-652z" />
<glyph unicode="&#x2013;" horiz-adv-x="1296" d="M61 563l70 326h1126l-69 -326h-1127z" />
<glyph unicode="&#x2014;" horiz-adv-x="1738" d="M61 563l70 326h1569l-70 -326h-1569z" />
<glyph unicode="&#x2018;" horiz-adv-x="524" d="M127 836l70 327l200 271h185l-170 -271h123l-68 -327h-340z" />
<glyph unicode="&#x2019;" horiz-adv-x="524" d="M137 836l172 270h-125l70 328h340l-70 -328l-200 -270h-187z" />
<glyph unicode="&#x201a;" horiz-adv-x="524" d="M-98 -270l170 270h-123l69 328h338l-67 -328l-201 -270h-186z" />
<glyph unicode="&#x201c;" horiz-adv-x="970" d="M127 836l70 327l200 271h185l-170 -271h123l-68 -327h-340zM573 836l70 327l201 271h184l-170 -271h125l-70 -327h-340z" />
<glyph unicode="&#x201d;" horiz-adv-x="970" d="M137 836l172 270h-125l70 328h340l-70 -328l-200 -270h-187zM584 836l172 270h-125l69 328h340l-69 -328l-201 -270h-186z" />
<glyph unicode="&#x201e;" horiz-adv-x="970" d="M-98 -270l170 270h-123l69 328h338l-67 -328l-201 -270h-186zM348 -270l170 270h-123l70 328h338l-68 -328l-200 -270h-187z" />
<glyph unicode="&#x2022;" horiz-adv-x="880" d="M100 717q0 151 99 249.5t250 98.5t249.5 -98.5t98.5 -249.5q0 -152 -98.5 -251t-249.5 -99t-250 99t-99 251z" />
<glyph unicode="&#x2026;" horiz-adv-x="1687" d="M-23 0l76 358h363l-76 -358h-363zM520 0l76 358h360l-75 -358h-361zM1061 0l76 358h362l-78 -358h-360z" />
<glyph unicode="&#x202f;" horiz-adv-x="390" />
<glyph unicode="&#x2039;" horiz-adv-x="724" d="M59 606l334 416h314l-351 -430l156 -404h-295z" />
<glyph unicode="&#x203a;" horiz-adv-x="724" d="M-23 188l351 430l-154 404h293l158 -416l-334 -418h-314z" />
<glyph unicode="&#x205f;" horiz-adv-x="487" />
<glyph unicode="&#x20ac;" horiz-adv-x="1353" d="M-14 451l41 186h114q2 13 17 98h-111l41 187h125q87 216 250.5 344.5t370.5 128.5q441 0 489 -455l-332 -27q-12 133 -47.5 187.5t-103.5 54.5q-70 0 -131 -61q-54 -54 -99 -172h264l-40 -187h-283q-3 -16 -9.5 -48.5t-9.5 -49.5h281l-39 -186h-258q0 -242 152 -242 q70 0 126.5 61t108.5 203l328 -41q-165 -463 -588 -463q-229 0 -360.5 127.5t-145.5 354.5h-151z" />
<glyph unicode="&#x2122;" horiz-adv-x="1417" d="M201 1286l32 148h488l-31 -148h-155l-91 -430h-178l90 430h-155zM655 856l123 578h254l-6 -379l160 379h252l-123 -578h-166l92 430l-184 -430h-156l-2 436l-92 -436h-152z" />
<glyph unicode="&#x25fc;" horiz-adv-x="1044" d="M0 0v1044h1044v-1044h-1044z" />
<glyph unicode="&#xfb01;" horiz-adv-x="1310" d="M16 0l174 815h-141l47 225h142l16 78q35 166 142.5 248t316.5 82q112 0 178 -18l-47 -224q-41 8 -94 8q-63 0 -94.5 -22t-41.5 -76l-16 -76h211l-49 -225h-209l-172 -815h-363zM709 0l221 1040h360l-221 -1040h-360zM952 1147l60 276h360l-59 -276h-361z" />
<glyph unicode="&#xfb02;" horiz-adv-x="1310" d="M16 0l174 815h-141l47 225h142l16 78q35 166 142.5 248t316.5 82q112 0 178 -18l-47 -224q-41 8 -94 8q-63 0 -94.5 -22t-41.5 -76l-16 -76h211l-49 -225h-209l-172 -815h-363zM709 0l305 1434h360l-305 -1434h-360z" />
</font>
</defs>
</svg>
