<?xml version="1.0" standalone="no"?>
<!DOCTYPE svg PUBLIC "-//W3C//DTD SVG 1.1//EN" "http://www.w3.org/Graphics/SVG/1.1/DTD/svg11.dtd" >
<svg xmlns="http://www.w3.org/2000/svg">
<metadata></metadata>
<defs>
<font id="equip_slabextralight" horiz-adv-x="1136" >
<font-face units-per-em="2048" ascent="1536" descent="-512" />
<missing-glyph horiz-adv-x="446" />
<glyph unicode="&#xfb01;" horiz-adv-x="1275" d="M57 0v100h185v805h-185v103h187v135q0 190 80 276q85 97 247 97q105 0 168 -48v-110h-8q-60 51 -158 51q-116 0 -178 -74q-43 -52 -43 -196v-131h688v-908h191v-100h-488v100h187v805h-578v-805h240v-100h-535zM874 1343q0 43 26.5 68t64.5 25q37 0 62.5 -25t25.5 -68 q0 -40 -25 -65t-63 -25q-39 0 -65 25t-26 65z" />
<glyph unicode="&#xfb02;" horiz-adv-x="1257" d="M57 0v100h185v805h-185v103h187v79q0 213 94 314q107 110 328 110q115 0 212 -25.5t144 -58.5v-1327h190v-100h-487v100h186v1258q-119 49 -249 49q-180 0 -250 -88q-60 -75 -60 -236v-75h293v-103h-293v-805h240v-100h-535z" />
<glyph unicode="&#xfb03;" horiz-adv-x="1949" d="M57 0v100h185v805h-185v103h187v94q0 190 80 276q85 97 247 97q105 0 168 -48v-110h-8q-60 51 -158 51q-116 0 -178 -74q-43 -52 -43 -196v-90h566v135q0 191 79 276q85 97 248 97q105 0 168 -48v-110h-8q-60 51 -158 51q-116 0 -178 -74q-43 -52 -43 -196v-131h688v-908 h191v-100h-488v100h187v805h-578v-805h238v-100h-533v100h184v805h-563v-805h240v-100h-535zM1548 1343q0 43 26 68t64 25q37 0 62.5 -25t25.5 -68q4 -56 -43 -79.5t-93.5 0t-41.5 79.5z" />
<glyph unicode="&#xfb04;" horiz-adv-x="1931" d="M57 0v100h185v805h-185v103h187v94q0 190 80 276q85 97 247 97q105 0 168 -48v-110h-8q-60 51 -158 51q-116 0 -178 -74q-43 -52 -43 -196v-90h566v79q0 213 94 314q107 110 327 110q116 0 213 -25.5t144 -58.5v-1327h190v-100h-487v100h186v1258q-119 49 -252 49 q-178 0 -248 -88q-59 -74 -59 -236v-75h305v-103h-305v-805h238v-100h-533v100h184v805h-563v-805h240v-100h-535z" />
<glyph horiz-adv-x="0" />
<glyph horiz-adv-x="682" />
<glyph unicode=" "  horiz-adv-x="446" />
<glyph unicode="&#x09;" horiz-adv-x="446" />
<glyph unicode="&#xa0;" horiz-adv-x="446" />
<glyph unicode="!" horiz-adv-x="589" d="M242 74q0 45 29.5 70.5t64.5 25.5t64.5 -25.5t29.5 -70.5q0 -42 -27.5 -68t-66.5 -26q-42 0 -68 26t-26 68zM266 1411h137q0 -184 -22 -989h-92q-23 941 -23 989z" />
<glyph unicode="&#x22;" horiz-adv-x="710" d="M119 1442h139l-31 -572h-75zM451 1442h141l-33 -572h-74z" />
<glyph unicode="#" horiz-adv-x="1243" d="M94 442v109h271l38 280h-260v107h277l63 455h88l-65 -455h305l66 455h88l-66 -455h248v-107h-262l-41 -280h254v-109h-269l-65 -471h-88l65 471h-305l-65 -471h-88l67 471h-256zM453 551h305l39 280h-305z" />
<glyph unicode="$" horiz-adv-x="1134" d="M109 365h92l10 -168q160 -97 332 -103v531l-133 45q-269 89 -269 336q0 156 106 252.5t296 109.5v205h78v-203q101 -3 202 -37q104 -35 152 -80l8 -237h-94l-12 170q-109 68 -256 74v-533l104 -35q164 -55 236.5 -131.5t72.5 -204.5q0 -160 -103.5 -259t-309.5 -111v-215 h-78v213q-258 6 -426 139zM264 1012q0 -89 52 -145t178 -97l49 -16v506q-279 -18 -279 -248zM621 96q290 15 290 246q0 92 -62 147t-228 111v-504z" />
<glyph unicode="%" horiz-adv-x="1734" d="M70 940q0 199 92 320q95 120 241 120q156 0 240 -118q88 -119 88 -322q0 -200 -90 -322q-88 -116 -242 -116q-152 0 -240.5 117.5t-88.5 320.5zM168 942q0 -166 63 -260t170 -94t169.5 94t62.5 260q0 164 -62.5 258t-169.5 94t-170 -94t-63 -258zM479 -25l690 1422h88 l-688 -1422h-90zM1004 422q0 198 92 319q95 121 241 121q155 0 240 -119q88 -119 88 -321q0 -200 -90 -322q-88 -116 -242 -116q-152 0 -240.5 117.5t-88.5 320.5zM1104 424q0 -166 62 -260t169 -94q109 0 170.5 93.5t61.5 260.5q0 165 -62 258.5t-168 93.5 q-109 0 -171 -93.5t-62 -258.5z" />
<glyph unicode="&#x26;" horiz-adv-x="1480" d="M113 383q0 275 295 395q-105 138 -105 277q0 145 105.5 237t289.5 92q160 0 254 -79v-131h-8q-87 100 -254 100q-127 0 -196.5 -60.5t-69.5 -162.5q0 -115 108 -244l119 -131l115 -117l154 -149q57 -54 124 -121q43 46 72 126.5t29 162.5q0 7 -4 73h-162v105h426v-105 h-150q2 -14 2 -63q0 -226 -133 -377q94 -88 119 -107h189v-104h-244l-137 125q-177 -154 -426 -154q-235 0 -373 117q-139 121 -139 295zM231 395q0 -133 105 -225q110 -90 293 -90q203 0 340 119q-313 295 -498 495q-240 -82 -240 -299z" />
<glyph unicode="'" horiz-adv-x="376" d="M119 1442h139l-31 -572h-75z" />
<glyph unicode="(" horiz-adv-x="700" d="M96 578q0 610 494 938h119v-9q-496 -341 -496 -927q0 -545 496 -918v-8h-119q-494 340 -494 924z" />
<glyph unicode=")" horiz-adv-x="700" d="M-8 -338q497 340 497 928q0 549 -497 917v9h119q493 -339 493 -924q0 -610 -491 -938h-121v8z" />
<glyph unicode="*" horiz-adv-x="860" d="M63 1133l33 98q190 -62 301 -115q-17 163 -20 320h104q0 -98 -16 -324q208 90 301 119l33 -96q-113 -38 -318 -88q87 -95 207 -248l-84 -60q-102 140 -178 267q-63 -102 -176 -269l-82 56q90 130 205 256q-186 43 -310 84z" />
<glyph unicode="+" horiz-adv-x="1433" d="M184 557v94h484v482h96v-482h485v-94h-485v-487h-94v487h-486z" />
<glyph unicode="," horiz-adv-x="387" d="M-4 -313q81 63 129.5 165t48.5 218q0 92 -35 170h129q33 -56 33 -162q0 -119 -54.5 -225t-142.5 -175h-108v9z" />
<glyph unicode="-" horiz-adv-x="653" d="M82 502v108h489v-108h-489z" />
<glyph unicode="." horiz-adv-x="385" d="M119 74q0 46 26.5 71t69.5 25q39 0 65.5 -25.5t26.5 -70.5q0 -42 -27.5 -68t-66.5 -26q-42 0 -68 26t-26 68z" />
<glyph unicode="/" horiz-adv-x="784" d="M-12 -117l698 1614h105l-699 -1614h-104z" />
<glyph unicode="0" horiz-adv-x="1167" d="M82 680q0 321 139 516q142 195 367 195q232 0 364 -193q133 -192 133 -518q0 -324 -137 -516q-135 -191 -366 -191q-232 0 -367 191q-133 192 -133 516zM203 684q0 -280 102 -444q106 -160 281 -160q173 0 276 160q103 165 103 444q0 282 -103 440q-103 160 -276 160 q-175 0 -281 -160q-102 -156 -102 -440z" />
<glyph unicode="1" horiz-adv-x="1167" d="M283 1087v117l319 189h88v-1289h209v-104h-565v104h237v1149z" />
<glyph unicode="2" horiz-adv-x="1167" d="M96 0v66q405 344 563 505q199 205 199 414q0 134 -80 215.5t-239 81.5q-110 0 -218.5 -55t-181.5 -150h-8v129q67 84 182 134.5t232 50.5q211 0 322.5 -105.5t111.5 -292.5q0 -224 -199 -448q-149 -168 -493 -439q181 3 669 3l15 219h96l-8 -328h-963z" />
<glyph unicode="3" horiz-adv-x="1167" d="M143 92v137h9q46 -54 121.5 -90.5t155 -49t156.5 -8.5t132 25q54 23 90.5 54t53.5 70t23.5 72.5t8.5 78.5q0 83 -54.5 151t-154.5 93q-99 22 -219 22h-59v105h61q168 0 248 45q135 71 135 231q0 116 -73.5 185t-225.5 69q-90 0 -199 -47t-170 -129h-8v129q58 67 168 111 q110 43 217 43q198 0 305 -92.5t107 -264.5q0 -111 -67 -200t-181 -125q134 -24 212.5 -107.5t78.5 -214.5q0 -194 -129 -304t-353 -110q-247 0 -389 121z" />
<glyph unicode="4" horiz-adv-x="1167" d="M70 371v73l712 947h99v-914h235v-106h-235v-267h206v-104h-550v104h227v267h-694zM219 477h545q0 369 8 737q-90 -135 -553 -737z" />
<glyph unicode="5" horiz-adv-x="1167" d="M145 92v133h9q154 -145 383 -145q182 0 281.5 93.5t99.5 256.5q0 150 -89.5 229.5t-265.5 79.5q-93 0 -189.5 -36.5t-156.5 -88.5h-8l78 748h688l8 -287h-96l-13 178h-493l-51 -479q107 76 282 76q183 0 303 -102q121 -103 121 -306q0 -233 -143 -352 q-140 -119 -365 -119q-235 0 -383 121z" />
<glyph unicode="6" horiz-adv-x="1167" d="M131 643q0 195 48 345.5t134 236.5q166 166 398 166q210 0 311 -88v-136h-10q-103 115 -299 115q-458 0 -467 -661q37 108 145 184q110 78 258 78q186 0 305 -113q123 -114 123 -326q0 -224 -121 -348.5t-325 -124.5q-195 0 -334 133q-77 74 -121.5 213t-44.5 326z M270 483q3 -134 56 -229q44 -82 121.5 -130t177.5 -48q146 0 239.5 93t93.5 261t-87 257t-240 89q-143 0 -244 -88q-99 -89 -117 -205z" />
<glyph unicode="7" horiz-adv-x="1167" d="M109 1075l10 287h913v-82q-324 -712 -538 -1280h-129q231 598 544 1253h-692l-12 -178h-96z" />
<glyph unicode="8" horiz-adv-x="1167" d="M119 350q0 124 77.5 213.5t213.5 128.5q-112 39 -177 123.5t-65 204.5q0 162 119 266q120 105 303 105q190 0 303 -97t113 -266q0 -113 -67 -200.5t-177 -118.5q133 -39 210 -129.5t77 -217.5q0 -175 -131 -282q-130 -109 -334 -109q-203 0 -334 101t-131 278zM238 356 q0 -130 102 -204q104 -72 246 -72q151 0 247.5 76.5t96.5 203.5q0 126 -98 201t-254 88q-151 -14 -245.5 -92.5t-94.5 -200.5zM285 1026q0 -125 82.5 -196.5t220.5 -79.5q299 27 299 274q0 116 -82.5 188t-218.5 72q-132 0 -217 -76q-84 -75 -84 -182z" />
<glyph unicode="9" horiz-adv-x="1167" d="M102 918q0 221 131 346q133 127 330 127q228 0 356 -170t128 -512q0 -161 -29.5 -288t-80 -210.5t-122 -138t-150.5 -78t-171 -23.5q-101 0 -200 26.5t-151 72.5v129h9q116 -119 342 -119q160 0 258 88q96 87 135.5 222t44.5 347q-40 -113 -147 -185.5t-250 -72.5 q-183 0 -308 113t-125 326zM219 934q0 -168 88 -257t240 -89q142 0 237 86q99 93 125 205q0 99 -45 198q-92 207 -299 207q-139 0 -243 -90q-103 -89 -103 -260z" />
<glyph unicode=":" horiz-adv-x="428" d="M160 74q0 46 26.5 71t69.5 25q39 0 65.5 -25.5t26.5 -70.5q0 -42 -27.5 -68t-66.5 -26q-42 0 -68 26t-26 68zM160 915q0 45 28 72t68 27q38 0 65 -27t27 -72q0 -41 -27.5 -67.5t-66.5 -26.5q-42 0 -68 26t-26 68z" />
<glyph unicode=";" horiz-adv-x="428" d="M37 -313q81 63 129.5 165t48.5 218q0 92 -35 170h129q33 -56 33 -162q0 -119 -54.5 -225t-142.5 -175h-108v9zM160 915q0 45 28 72t68 27q38 0 65 -27t27 -72q0 -41 -27.5 -67.5t-66.5 -26.5q-42 0 -68 26t-26 68z" />
<glyph unicode="&#x3c;" horiz-adv-x="1433" d="M238 549v98l921 453v-113l-811 -387l811 -377v-117z" />
<glyph unicode="=" horiz-adv-x="1433" d="M184 360v95h1065v-95h-1065zM184 739v97h1065v-97h-1065z" />
<glyph unicode="&#x3e;" horiz-adv-x="1433" d="M274 106v115l813 389l-813 375v115l924 -443v-96z" />
<glyph unicode="?" horiz-adv-x="876" d="M76 1174v122q57 66 154.5 107t201.5 41q180 0 276.5 -85t96.5 -245q0 -105 -62.5 -194.5t-216.5 -198.5q-80 -59 -104 -123q-24 -75 -27 -176h-92q0 73 4 135q7 53 40 112t91 103q134 97 189 173t55 159q0 107 -66 169t-200 62q-199 0 -332 -161h-8zM258 74 q0 45 29.5 70.5t64.5 25.5t64.5 -25.5t29.5 -70.5q0 -42 -27.5 -68t-66.5 -26q-42 0 -68 26t-26 68z" />
<glyph unicode="@" horiz-adv-x="1757" d="M123 432q0 362 254 619q255 258 624 258q295 0 472 -162q178 -159 178 -430q0 -240 -123 -422t-291 -182q-106 0 -127 92q-4 36 -4 74q-132 -175 -334 -175q-142 0 -226.5 80.5t-84.5 225.5q0 115 52 225t144 192q137 119 310 119q86 0 151.5 -37.5t89.5 -105.5l33 125 h92l-112 -500q-21 -102 -21 -152q0 -79 62 -79q115 0 204 157q93 162 93 344q0 240 -154 385q-155 146 -404 146q-313 0 -548 -232q-234 -231 -234 -563q0 -274 182 -450q183 -174 471 -174q324 0 560 163h8l-21 -104q-227 -145 -557 -145q-329 0 -534 196 q-205 193 -205 512zM561 428q0 -231 230 -231q93 0 183.5 60t149.5 165l54 246q-35 194 -224 194q-134 0 -235 -94q-71 -64 -114.5 -156t-43.5 -184z" />
<glyph unicode="A" horiz-adv-x="1490" d="M6 0v104h154l536 1307h109l522 -1307h158v-104h-502v104h215l-143 347h-629l-145 -347h223v-104h-498zM465 557h551q-209 528 -266 709q-29 -78 -285 -709z" />
<glyph unicode="B" horiz-adv-x="1294" d="M70 0v104h190v1203h-190v104h467q116 0 217 -8q166 -14 257 -97t91 -229q0 -257 -240 -334q326 -47 326 -337q0 -273 -250 -365q-109 -41 -363 -41h-505zM377 104h223q214 0 307 43q164 71 164 267q0 80 -46 141t-120 86q-104 39 -274 39h-254v-576zM377 786h235 q176 0 244 39q127 74 127 242q0 171 -174 217q-94 23 -223 23h-209v-521z" />
<glyph unicode="C" horiz-adv-x="1413" d="M106 707q0 337 216 538q217 199 528 199q124 0 239.5 -35t176.5 -92l10 -293h-102l-17 231q-135 78 -311 78q-270 0 -445 -172q-174 -168 -174 -446q0 -295 170 -465q171 -168 445 -168q257 0 428 154h8v-130q-75 -62 -196 -98.5t-251 -36.5q-313 0 -518 199 q-207 201 -207 537z" />
<glyph unicode="D" horiz-adv-x="1546" d="M70 0v104h190v1203h-190v104h546q241 0 392 -45q432 -126 432 -643q0 -505 -416 -662q-168 -61 -455 -61h-499zM377 104h213q292 0 454 84q275 151 275 531q0 190 -81.5 332t-238.5 200q-154 56 -376 56h-246v-1203z" />
<glyph unicode="E" horiz-adv-x="1220" d="M70 0v104h190v1203h-190v104h985l8 -291h-100l-15 187h-571v-521h569v-104h-569v-578h622l15 205h102l-10 -309h-1036z" />
<glyph unicode="F" horiz-adv-x="1150" d="M70 0v102h190v1207h-190v102h985l8 -291h-100l-15 189h-571v-564h555v-104h-555v-539h233v-102h-540z" />
<glyph unicode="G" horiz-adv-x="1501" d="M102 707q0 344 217 540q218 197 531 197q127 0 252 -35q127 -36 188 -88l8 -291h-100l-18 225q-144 78 -334 78q-278 0 -449 -168q-172 -166 -172 -448q0 -297 170 -467q171 -168 447 -168q207 0 364 86v422h-245v106h481v-106h-117v-477q-201 -142 -498 -142 q-311 0 -518 195q-207 198 -207 541z" />
<glyph unicode="H" horiz-adv-x="1558" d="M70 0v104h190v1203h-190v104h501v-104h-194v-521h801v521h-191v104h500v-104h-191v-1203h191v-104h-500v104h191v578h-801v-578h194v-104h-501z" />
<glyph unicode="I" horiz-adv-x="638" d="M70 0v104h190v1203h-190v104h499v-104h-192v-1203h192v-104h-499z" />
<glyph unicode="J" horiz-adv-x="886" d="M49 33v121h8q90 -72 213 -72q169 0 224 108q30 62 30 256v861h-209v104h506v-104h-178v-867q0 -220 -39 -299q-80 -170 -325 -170q-141 0 -230 62z" />
<glyph unicode="K" horiz-adv-x="1435" d="M70 0v104h190v1203h-190v104h499v-104h-192v-639l610 639h-149v104h493v-104h-188l-443 -449l519 -754h194v-104h-280l-517 766l-239 -242v-420h192v-104h-499z" />
<glyph unicode="L" horiz-adv-x="1230" d="M70 0v104h190v1203h-190v104h510v-104h-203v-1203h608l14 211h103l-10 -315h-1022z" />
<glyph unicode="M" horiz-adv-x="1816" d="M70 0v104h190v1203h-190v104h340q423 -798 512 -983q69 146 505 983h320v-104h-178v-1203h178v-104h-502v104h205q0 987 6 1143q-97 -199 -502 -964h-80l-505 964q8 -232 8 -1143h192v-104h-499z" />
<glyph unicode="N" horiz-adv-x="1538" d="M70 0v104h190v1203h-190v104h315q746 -1077 815 -1188q-6 325 -6 1084h-199v104h502v-104h-186v-1307h-99l-837 1235q2 -164 2 -1131h194v-104h-501z" />
<glyph unicode="O" horiz-adv-x="1656" d="M106 705q0 310 209 522q212 215 514 215q315 0 517 -211q204 -207 204 -526q0 -311 -209 -523q-205 -211 -514 -211t-514 211q-207 213 -207 523zM227 707q0 -270 174 -447q175 -178 428 -178q262 0 431 178q172 178 172 447q0 263 -172 444q-173 182 -431 182 q-252 0 -428 -182q-174 -180 -174 -444z" />
<glyph unicode="P" horiz-adv-x="1312" d="M70 0v104h190v1203h-190v104h592q201 0 323 -43q105 -37 163 -132.5t58 -231.5q0 -312 -264 -400q-116 -39 -303 -39h-262v-461h231v-104h-538zM377 670h258q206 0 297 45q153 77 153 286q0 195 -147 265q-84 41 -283 41h-278v-637z" />
<glyph unicode="Q" horiz-adv-x="1656" d="M106 705q0 310 209 522q212 215 514 215q315 0 517 -211q204 -207 204 -526q0 -209 -101.5 -382t-274.5 -266l325 -262l-80 -96l-375 305q-103 -33 -217 -33q-309 0 -514 211q-207 213 -207 523zM227 707q0 -270 174 -447q175 -178 428 -178q262 0 431 178 q172 178 172 447q0 263 -172 444q-173 182 -431 182q-252 0 -428 -182q-174 -180 -174 -444z" />
<glyph unicode="R" horiz-adv-x="1374" d="M70 0v104h190v1203h-190v104h563q218 0 328 -37q107 -36 165 -125t58 -223q0 -157 -88.5 -255.5t-245.5 -129.5l328 -537h182v-104h-264l-365 621q-20 -1 -45.5 -2t-42.5 -2t-29 -1h-237v-512h194v-104h-501zM377 721h239q190 0 285 39q162 64 162 258q0 174 -129 244 q-86 45 -291 45h-266v-586z" />
<glyph unicode="S" horiz-adv-x="1165" d="M78 397h98l14 -200q162 -113 388 -113q383 0 383 276q0 94 -72 154q-66 55 -246 115l-233 76q-297 99 -297 350q0 179 137.5 284t372.5 105q114 0 233 -35q121 -35 170 -84l10 -283h-100l-16 211q-139 80 -312 80q-186 0 -280.5 -73.5t-94.5 -196.5q0 -98 62.5 -158.5 t204.5 -103.5l250 -80q173 -56 253 -136.5t80 -213.5q0 -181 -130.5 -290.5t-383.5 -109.5q-299 0 -481 156z" />
<glyph unicode="T" horiz-adv-x="1253" d="M68 1096l10 315h1093l11 -315h-103l-12 204h-391v-1198h192v-102h-497v102h186v1198h-373l-14 -204h-102z" />
<glyph unicode="U" horiz-adv-x="1560" d="M47 1309v102h502v-102h-203v-682q0 -248 60 -365q43 -82 141 -131t239 -49q250 0 367 172q72 110 72 369v686h-211v102h499v-102h-176v-701q0 -274 -71 -395q-64 -109 -189.5 -175.5t-292.5 -66.5q-180 0 -309.5 66t-189.5 190q-58 122 -58 375v707h-180z" />
<glyph unicode="V" horiz-adv-x="1509" d="M8 1309v102h502v-102h-205q328 -797 457 -1145q130 350 450 1145h-213v102h502v-102h-160l-532 -1309h-107l-530 1309h-164z" />
<glyph unicode="W" horiz-adv-x="2140" d="M23 1309v102h501v-102h-211q257 -909 308 -1114q58 206 397 1216h106q321 -1006 381 -1216q43 174 318 1114h-207v102h502v-102h-164l-400 -1309h-108q-352 1116 -383 1229q-103 -331 -397 -1229h-109l-375 1309h-159z" />
<glyph unicode="X" horiz-adv-x="1529" d="M33 0v102h176l479 643l-422 564h-166v102h502v-102h-188l360 -484l348 484h-204v102h503v-102h-164l-415 -568l479 -639h178v-102h-506v102h181l-416 557l-410 -557h189v-102h-504z" />
<glyph unicode="Y" horiz-adv-x="1439" d="M4 1309v102h502v-102h-187q318 -490 400 -629q76 130 403 629h-188v102h500v-102h-174l-488 -740v-467h195v-102h-504v102h190v467l-477 740h-172z" />
<glyph unicode="Z" horiz-adv-x="1304" d="M76 0v68l968 1232h-798l-13 -208h-100l8 319h1067v-78l-960 -1224h868l14 217h101l-8 -326h-1147z" />
<glyph unicode="[" horiz-adv-x="585" d="M174 -334v1841h377v-88h-268v-1665h268v-88h-377z" />
<glyph unicode="\" horiz-adv-x="784" d="M-10 1497h104l699 -1614h-105z" />
<glyph unicode="]" horiz-adv-x="575" d="M25 -246h268v1667h-268v86h376v-1841h-376v88z" />
<glyph unicode="^" horiz-adv-x="1443" d="M281 578l383 806h116l383 -806h-112l-332 692l-326 -692h-112z" />
<glyph unicode="_" horiz-adv-x="1073" d="M0 -162h1073v-86h-1073v86z" />
<glyph unicode="`" horiz-adv-x="430" d="M-4 1516v8h174l266 -330v-8h-112z" />
<glyph unicode="a" d="M86 281q0 180 176 254q127 53 350 53q96 0 181 -15v78q0 120 -35 176q-64 101 -242 101q-86 0 -192 -41q-103 -41 -162 -115h-8v123q66 66 169 104.5t209 38.5q213 0 302 -114q69 -90 69 -273v-551h189v-100h-293v135q-55 -76 -146 -119t-200 -43q-164 0 -267 86 q-100 84 -100 222zM201 283q0 -91 70 -147t200 -56q103 0 191 46t131 120v231q-116 17 -191 17q-172 0 -268 -35q-133 -53 -133 -176z" />
<glyph unicode="b" horiz-adv-x="1329" d="M16 1391v100h297v-690q50 105 166 171t254 66q211 0 354 -143q148 -142 148 -383q0 -248 -156 -395q-155 -146 -360 -146q-135 0 -244.5 55.5t-165.5 149.5l-2 -180h-104v1395h-187zM313 338q41 -121 154 -191q112 -69 244 -69q170 0 290 117q119 116 119 317 q0 192 -121 307q-119 113 -282 113q-133 0 -246 -76q-115 -77 -158 -205v-313z" />
<glyph unicode="c" horiz-adv-x="1095" d="M94 500q0 237 156 387q157 151 395 151q96 0 185.5 -29.5t140.5 -74.5v-256h-99l-8 194q-105 60 -227 60q-174 0 -301 -115t-127 -311q0 -209 127 -318q127 -106 297 -106q200 0 338 129h8v-123q-133 -115 -358 -115t-377 146q-150 144 -150 381z" />
<glyph unicode="d" horiz-adv-x="1376" d="M94 498q0 249 158 395q160 145 373 145q130 0 233 -50.5t160 -143.5v547h-187v100h297v-1391h189v-100h-297v205q-51 -107 -158 -169.5t-250 -62.5q-212 0 -366 142q-152 143 -152 383zM209 498q0 -202 123 -310q126 -108 293 -108q134 0 242 74t151 204v314 q-42 121 -150 190.5t-239 69.5q-169 0 -295 -111q-125 -110 -125 -323z" />
<glyph unicode="e" d="M94 500q0 249 150 393q151 145 356 145q213 0 330 -123.5t119 -345.5q0 -58 -7 -102h-831q9 -169 123 -277t311 -108q230 0 367 137h8v-121q-60 -55 -167 -90t-216 -35q-246 0 -395 146q-148 145 -148 381zM211 567h723v21q0 163 -88.5 254.5t-257.5 91.5 q-137 0 -250 -94q-115 -95 -127 -273z" />
<glyph unicode="f" horiz-adv-x="673" d="M57 0v100h185v805h-185v103h187v135q0 190 80 276q85 97 247 97q105 0 168 -48v-110h-8q-60 51 -158 51q-116 0 -178 -74q-43 -52 -43 -196v-131h289v-103h-289v-805h240v-100h-535z" />
<glyph unicode="g" horiz-adv-x="1337" d="M94 498q0 257 160 399q164 141 369 141q129 0 226.5 -52t147.5 -146v168h287v-101h-180v-809q0 -207 -66 -321q-123 -203 -444 -203q-251 0 -389 129v131h8q67 -70 170.5 -110.5t218.5 -40.5q235 0 334 141q59 89 59 276v119q-49 -103 -152.5 -165t-240.5 -62 q-215 0 -362 135q-146 137 -146 371zM209 500q0 -194 117 -299q118 -103 288 -103q131 0 234 71.5t147 195.5v315q-42 120 -142.5 186t-231.5 66q-169 0 -291 -113q-121 -115 -121 -319z" />
<glyph unicode="h" horiz-adv-x="1314" d="M51 0v100h187v1291h-187v100h297v-653q57 91 155 142.5t228 51.5q135 0 220 -56.5t110 -160.5q20 -79 20 -229v-486h189v-100h-492v100h193v473q0 167 -35 232q-68 121 -234 121q-107 0 -210 -62q-99 -57 -144 -149v-615h193v-100h-490z" />
<glyph unicode="i" horiz-adv-x="598" d="M66 0v100h186v807h-186v101h296v-908h191v-100h-487zM197 1343q0 44 28 68.5t62 24.5t62 -24.5t28 -68.5q0 -4 1 -9q0 -48 -44 -70q-24 -12 -47 -12l-47 12q-43 22 -43 70v9z" />
<glyph unicode="j" horiz-adv-x="520" d="M-92 -276h8q60 -48 139 -48q86 0 121 41q39 45 39 197v993h-186v101h297v-1092q0 -196 -52 -260q-65 -86 -198 -86q-106 0 -168 39v115zM162 1343q0 43 25.5 68t64.5 25q37 0 62.5 -25t25.5 -68v-9q0 -49 -43 -70q-23 -12 -46.5 -12t-46.5 12q-42 21 -42 68v11z" />
<glyph unicode="k" horiz-adv-x="1171" d="M51 0v100h187v1291h-187v100h297v-977l428 393h-123v101h441v-101h-174l-322 -289l385 -518h162v-100h-230l-395 545l-172 -154v-291h193v-100h-490z" />
<glyph unicode="l" horiz-adv-x="585" d="M51 0v100h187v1291h-187v100h297v-1391h193v-100h-490z" />
<glyph unicode="m" horiz-adv-x="2007" d="M66 0v100h186v807h-186v101h294v-172q123 196 375 196q256 0 312 -203q58 92 158.5 147.5t230.5 55.5q267 0 319 -217q21 -82 21 -225v-490h186v-100h-489v100h192v478q0 155 -35 227q-62 121 -223 121q-109 0 -202 -58.5t-138 -150.5q4 -62 4 -129v-488h193v-100h-490 v100h187v478q0 155 -35 227q-62 121 -221 121q-107 0 -202.5 -59.5t-140.5 -149.5v-617h193v-100h-489z" />
<glyph unicode="n" horiz-adv-x="1329" d="M66 0v100h186v807h-186v101h294v-172q123 196 383 196q136 0 221.5 -56.5t110.5 -160.5q21 -82 21 -229v-486h188v-100h-493v100h194v473q0 168 -37 232q-68 121 -233 121q-106 0 -209 -62q-101 -61 -144 -149v-615h195v-100h-491z" />
<glyph unicode="o" horiz-adv-x="1245" d="M94 506q0 224 156 377q155 155 377 155q229 0 377 -151q147 -150 147 -381q0 -224 -152 -379q-151 -154 -376 -154q-226 0 -377 154q-152 155 -152 379zM209 506q0 -183 119 -305q121 -121 297 -121q178 0 295 123q116 122 116 303q0 182 -118 303q-117 123 -295 123 q-176 0 -295 -125q-119 -122 -119 -301z" />
<glyph unicode="p" horiz-adv-x="1351" d="M41 907v101h293v-209q46 105 166 172q119 67 256 67q201 0 352 -139q149 -137 149 -383q0 -252 -153 -393q-151 -139 -367 -139q-129 0 -238.5 53.5t-164.5 146.5v-481h225v-100h-514v100h178v1204h-182zM334 352q46 -129 160 -196q117 -66 245 -66q168 0 285 111 t117 313q0 105 -38 188.5t-98.5 132t-128.5 73t-137 24.5q-128 0 -243 -74q-115 -71 -162 -205v-301z" />
<glyph unicode="q" horiz-adv-x="1374" d="M94 500q0 249 158 395q158 143 369 143q130 0 235.5 -51.5t161.5 -146.5v168h287v-101h-181v-1204h181v-100h-517v100h228v516q-44 -105 -158 -170t-250 -65q-213 0 -364 133q-150 135 -150 383zM209 500q0 -205 117 -307q119 -101 292 -101q87 0 166 31.5t140.5 95 t89.5 150.5v305q-41 124 -148.5 191t-242.5 67q-101 0 -191 -41q-97 -44 -160 -147t-63 -244z" />
<glyph unicode="r" horiz-adv-x="821" d="M66 0v100h186v807h-186v101h294v-166q22 72 97 133q76 61 176 61q79 0 129 -30v-127h-8q-39 39 -125 39q-191 0 -267 -211v-607h232v-100h-528z" />
<glyph unicode="s" horiz-adv-x="991" d="M96 334h97l20 -189q116 -67 287 -67q140 0 209 48t69 130q0 70 -47.5 110t-169.5 72l-211 54q-221 59 -221 262q0 130 108 207t291 77q85 0 183 -28q96 -26 139 -66l4 -242h-94l-12 177q-116 55 -228 55q-134 0 -206 -47t-72 -127q0 -68 42.5 -108.5t135.5 -65.5l217 -58 q131 -32 193.5 -95t62.5 -167q0 -132 -103 -213.5t-294 -81.5q-108 0 -215.5 30.5t-167.5 80.5z" />
<glyph unicode="t" horiz-adv-x="677" d="M31 905v103h180q0 16 6 295h102v-295h297v-103h-297v-604q0 -105 27 -154q35 -65 150 -65q100 0 161 43h9v-102q-67 -48 -195 -48q-149 0 -215 93q-47 77 -47 229v608h-178z" />
<glyph unicode="u" horiz-adv-x="1294" d="M23 907v101h292v-570q0 -162 37 -235q62 -121 244 -121q109 0 202.5 56.5t145.5 148.5v620h-199v101h310v-908h176v-100h-283v166q-114 -191 -379 -191q-138 0 -227 57t-115 161q-22 93 -22 233v481h-182z" />
<glyph unicode="v" horiz-adv-x="1169" d="M6 907v101h445v-101h-181q243 -569 314 -757q89 221 321 757h-180v101h438v-101h-139l-399 -907h-90l-392 907h-137z" />
<glyph unicode="w" horiz-adv-x="1679" d="M10 907v101h445v-101h-187q194 -595 234 -735q61 189 297 836h90q269 -724 303 -838q55 209 225 737h-188v101h440v-101h-137l-299 -907h-88q-260 710 -305 854q-72 -227 -303 -854h-91l-303 907h-133z" />
<glyph unicode="x" horiz-adv-x="1146" d="M16 0v100h152l319 424l-280 383h-160v101h232l296 -422l234 321h-137v101h428v-101h-160l-295 -383l311 -424h168v-100h-237l-330 461l-266 -361h155v-100h-430z" />
<glyph unicode="y" horiz-adv-x="1171" d="M8 907v101h443v-101h-179q239 -546 324 -774l315 774h-188v101h442v-101h-137l-389 -925q-92 -225 -135 -287q-83 -129 -236 -129q-97 0 -155 37v110h8q53 -41 145 -41q99 0 158 90q30 49 74 156l39 94l-392 895h-137z" />
<glyph unicode="z" horiz-adv-x="1009" d="M80 0v70l686 837h-535l-10 -202h-102l4 303h788v-76q-508 -627 -682 -832h596l17 213h102l-10 -313h-854z" />
<glyph unicode="{" horiz-adv-x="694" d="M76 547v80q124 18 164 82q41 65 41 241v244q0 183 76.5 254.5t238.5 71.5h63v-86h-81q-189 0 -189 -242v-236q0 -137 -22 -217q-19 -70 -51 -97t-111 -54q99 -18 141 -96q43 -76 43 -273v-239q0 -131 49 -185.5t146 -54.5h75v-86h-63q-156 0 -236 65q-79 64 -79 258v244 q0 179 -48 246q-47 66 -157 80z" />
<glyph unicode="|" horiz-adv-x="452" d="M174 -377v1944h105v-1944h-105z" />
<glyph unicode="}" horiz-adv-x="677" d="M25 -260h75q189 0 189 240v239q0 145 20 215q21 77 56 101q32 25 108 53q-100 18 -143 94q-41 77 -41 272v242q0 131 -49 186.5t-146 55.5h-69v86h57q154 0 235 -66q80 -65 80 -260v-244q0 -185 45 -247q48 -66 158 -78v-82q-121 -15 -162 -80t-41 -242v-248 q0 -192 -82 -256q-79 -67 -233 -67h-57v86z" />
<glyph unicode="~" horiz-adv-x="1433" d="M180 537q83 113 157.5 160.5t158.5 47.5q90 0 252 -98q124 -74 200 -74q65 0 116.5 38.5t113.5 133.5l73 -51q-74 -118 -142.5 -169.5t-160.5 -51.5q-96 0 -243 84q-149 88 -220 88q-116 0 -233 -164z" />
<glyph unicode="&#xa1;" horiz-adv-x="587" d="M160 961q-4 58 46 82t99.5 0t44.5 -82q0 -46 -26.5 -71.5t-69.5 -25.5q-39 0 -66.5 26t-27.5 71zM188 -377q0 212 21 989h92q23 -848 23 -989h-136z" />
<glyph unicode="&#xa2;" horiz-adv-x="1126" d="M164 500q0 215 121 354q125 143 317 164v211h78v-207q98 -2 187.5 -29t131.5 -69l2 -244h-96l-8 184q-95 48 -217 51v-821q205 3 326 127h8v-119q-57 -50 -149 -81.5t-185 -32.5v-213h-78v217q-193 18 -315 149q-123 132 -123 359zM281 506q0 -178 89 -282.5t232 -125.5 v811q-146 -21 -233.5 -124.5t-87.5 -278.5z" />
<glyph unicode="&#xa3;" horiz-adv-x="1224" d="M123 0v80q139 70 207.5 164t68.5 192q0 74 -26 148h-215v92h188q-74 201 -74 315q0 187 121.5 293.5t347.5 106.5q206 0 326 -99v-135h-8q-59 59 -146 92t-174 33q-342 0 -342 -291q0 -105 74 -315h453v-92h-430q22 -80 22 -158q0 -191 -203 -317h719l15 202h94l-11 -311 h-1007z" />
<glyph unicode="&#xa4;" horiz-adv-x="1226" d="M137 252l137 139q-92 115 -92 275q0 153 94 272l-137 139l74 72l133 -139q112 92 268 92q157 0 267 -90l137 139l72 -72l-138 -141q92 -109 92 -270q0 -164 -92 -273l138 -143l-72 -68l-135 140q-118 -95 -271 -95q-158 0 -268 88l-133 -135zM287 670q0 -151 92 -246 q93 -96 235 -96q141 0 234 96q94 94 94 244q0 147 -94 241q-94 97 -234 97q-138 0 -233 -99q-94 -94 -94 -237z" />
<glyph unicode="&#xa5;" horiz-adv-x="1423" d="M25 1243v103h495v-103h-194q307 -465 381 -588q49 82 385 588h-187v103h494v-103h-170l-314 -461h254v-77h-303l-106 -160v-31h409v-78h-409v-334h198v-102h-507v102h192v334h-391v78h391v31l-104 160h-287v77h237l-307 461h-157z" />
<glyph unicode="&#xa6;" horiz-adv-x="452" d="M174 -193v674h105v-674h-105zM174 791v673h105v-673h-105z" />
<glyph unicode="&#xa7;" horiz-adv-x="1001" d="M98 676q0 96 59 164.5t156 99.5q-129 94 -129 244q0 110 86 196q88 88 271 88q190 0 297 -94v-125h-9q-117 117 -294 117q-112 0 -172 -50t-60 -126q0 -63 36.5 -109t127.5 -100l102 -57q155 -85 244 -152q107 -79 107 -223q0 -95 -54.5 -163t-144.5 -95 q131 -101 131 -248q0 -129 -99 -215t-272 -86q-243 0 -372 129v131h8q66 -72 166.5 -114t203.5 -42q112 0 178 51t66 136q0 111 -121 188q-47 31 -178 98q-115 59 -186 109q-82 55 -115 113.5t-33 134.5zM211 692q0 -58 32.5 -101.5t106.5 -92.5q107 -66 289 -158 q72 22 118 71.5t46 120.5q0 60 -35.5 106t-116.5 97q-45 27 -143 80l-119 68q-58 -6 -119 -58q-59 -53 -59 -133z" />
<glyph unicode="&#xa8;" horiz-adv-x="430" d="M-45 1343q0 40 24 63.5t60 23.5q34 0 58 -23.5t24 -63.5q0 -36 -23.5 -58.5t-60.5 -22.5q-36 0 -59 22.5t-23 58.5zM309 1343q0 40 24 63.5t60 23.5q34 0 58 -23.5t24 -63.5q4 -50 -40.5 -71t-88 0t-37.5 71z" />
<glyph unicode="&#xa9;" horiz-adv-x="1695" d="M104 707q0 311 213 524t529 213q326 0 534 -211q211 -208 211 -526q0 -312 -213 -525q-211 -211 -530 -211q-322 0 -533 211t-211 525zM176 707q0 -286 191 -480q189 -192 481 -192q293 0 483 190q191 194 191 482t-193 481q-189 192 -483 192q-285 0 -479 -194 q-191 -194 -191 -479zM408 711q0 210 139 340q138 129 340 129q81 0 157 -22.5t113 -59.5v-228h-90l-8 174q-84 41 -176 41q-156 0 -262 -100q-109 -103 -109 -270q0 -182 106 -279q107 -98 263 -98q157 0 272 100h8v-106q-107 -88 -289 -88q-200 0 -333 127 q-131 128 -131 340z" />
<glyph unicode="&#xaa;" horiz-adv-x="755" d="M76 776q0 122 114 168q87 35 230 35q22 0 102 -6v39q0 77 -20 110q-40 58 -137 58q-59 0 -125.5 -25.5t-106.5 -67.5h-8v91q95 86 250 86q135 0 192 -72q45 -51 45 -172v-346h113v-76h-197v82q-76 -98 -211 -98q-109 0 -175 53t-66 141zM166 778q0 -53 42.5 -86 t121.5 -33q124 0 192 103v133q-58 10 -108 10q-113 -3 -174 -26q-74 -30 -74 -101z" />
<glyph unicode="&#xab;" horiz-adv-x="886" d="M53 516l283 377h127l-279 -377l281 -377h-127zM412 516l282 377h127l-278 -377l280 -377h-127z" />
<glyph unicode="&#xac;" horiz-adv-x="1433" d="M168 557v94h1065v-581h-98v487h-967z" />
<glyph unicode="&#xad;" horiz-adv-x="653" d="M82 502v108h489v-108h-489z" />
<glyph unicode="&#xae;" horiz-adv-x="1695" d="M104 707q0 311 213 524t529 213q326 0 534 -211q211 -208 211 -526q0 -312 -213 -525q-211 -211 -530 -211q-322 0 -533 211t-211 525zM176 707q0 -286 191 -480q189 -192 481 -192q293 0 483 190q191 194 191 482t-193 481q-189 192 -483 192q-285 0 -479 -194 q-191 -194 -191 -479zM459 270v82h127v713h-127v82h372q123 0 203 -25q146 -47 146 -219q0 -85 -47.5 -144.5t-131.5 -86.5l183 -320h123v-82h-189l-215 383q-54 -4 -223 -4v-297h121v-82h-342zM680 731h135q118 0 184 29q80 35 80 141q0 51 -24 92t-66 54q-50 16 -170 16 h-139v-332z" />
<glyph unicode="&#xaf;" horiz-adv-x="430" d="M-86 1223v104h602v-104h-602z" />
<glyph unicode="&#xb0;" horiz-adv-x="638" d="M45 1174q0 125 80 202q83 80 197 80q122 0 197 -77t75 -197q0 -124 -82 -203q-84 -78 -195 -78q-117 0 -194 80q-78 81 -78 193zM125 1178q0 -87 54.5 -145t139.5 -58t141 58.5t56 148.5q0 83 -54.5 142.5t-144.5 59.5q-86 0 -139 -59t-53 -147z" />
<glyph unicode="&#xb1;" horiz-adv-x="1433" d="M184 0v96h1065v-96h-1065zM184 725v96h484v467h96v-467h485v-96h-485v-473h-94v473h-486z" />
<glyph unicode="&#xb2;" horiz-adv-x="800" d="M66 819v55q234 193 348 304q125 119 125 245q0 75 -50 122.5t-143 47.5q-149 0 -250 -125h-8v101q44 50 118 81t148 31q135 0 210 -66.5t75 -180.5q0 -132 -127 -277q-39 -42 -135 -125q-93 -82 -162 -131q76 2 399 2l13 141h75l-6 -225h-630z" />
<glyph unicode="&#xb3;" horiz-adv-x="800" d="M100 877v104h9q89 -92 245 -92q217 0 217 170q0 103 -118 137q-55 14 -150 14h-37v82h39q99 0 162 29q78 41 78 131q0 64 -45.5 102.5t-134.5 38.5q-62 0 -132 -29t-106 -77h-8v100q38 38 112.5 65t143.5 27q270 0 270 -223q0 -66 -43.5 -120t-116.5 -79 q86 -14 137.5 -67t51.5 -131q0 -121 -86 -189.5t-234 -68.5q-166 0 -254 76z" />
<glyph unicode="&#xb4;" horiz-adv-x="430" d="M-4 1186v8l264 330h170v-8l-324 -330h-110z" />
<glyph unicode="&#xb5;" horiz-adv-x="1206" d="M184 -432v1440h111v-572q0 -172 37 -233q74 -117 246 -117q109 0 205.5 57t144.5 146v719h110v-1008h-104v170q-114 -193 -371 -193q-88 0 -161 32.5t-105 88.5v-530h-113z" />
<glyph unicode="&#xb6;" horiz-adv-x="1142" d="M90 926q0 485 590 485h309v-1706h-80v1632h-243v-1632h-82v766q-230 0 -363 127q-131 128 -131 328z" />
<glyph unicode="&#xb7;" horiz-adv-x="387" d="M98 537q0 45 28.5 71.5t68.5 26.5q39 0 66.5 -26.5t27.5 -71.5q4 -56 -46 -80t-100 -1t-45 81z" />
<glyph unicode="&#xb8;" horiz-adv-x="430" d="M18 -373h9q50 -47 139 -47q141 0 141 109q0 49 -36.5 77.5t-106.5 28.5q-48 0 -78 -12l-6 4l72 233h88l-47 -149h14q89 0 146 -48t57 -128q0 -97 -64 -150t-176 -53q-94 0 -152 43v92z" />
<glyph unicode="&#xb9;" horiz-adv-x="800" d="M182 1462v92l211 119h74v-770h166v-84h-445v84h181v662z" />
<glyph unicode="&#xba;" horiz-adv-x="804" d="M63 926q0 162 105 250q107 90 235 90q147 0 241.5 -88.5t94.5 -247.5q0 -170 -102 -258q-104 -90 -240 -90q-134 0 -235 88q-99 88 -99 256zM156 928q0 -126 69 -194t178 -68q107 0 175.5 69.5t68.5 194.5t-67 189.5t-181 64.5q-104 0 -173.5 -68t-69.5 -188z" />
<glyph unicode="&#xbb;" horiz-adv-x="886" d="M63 893h127l285 -377l-282 -377h-127l278 377zM422 893h127l285 -377l-283 -377h-127l278 377z" />
<glyph unicode="&#xbc;" horiz-adv-x="1734" d="M174 1161v92l211 119h74v-770h166v-84h-445v84h180v662zM494 -25l690 1422h88l-688 -1422h-90zM936 225v64l455 573h79v-549h150v-88h-150v-225h-96v225h-438zM1051 313h323q0 87 6 418q-87 -126 -329 -418z" />
<glyph unicode="&#xbd;" horiz-adv-x="1734" d="M143 1161v92l211 119h74v-770h166v-84h-444v84h180v662zM446 -25l691 1422h88l-688 -1422h-91zM1014 0v55q241 199 348 303q125 119 125 246q0 75 -50 122.5t-143 47.5q-149 0 -250 -125h-8v101q44 50 118.5 81t148.5 31q135 0 209.5 -67t74.5 -181q0 -131 -127 -276 q-39 -42 -135 -125q-93 -82 -162 -131q76 2 400 2l12 141h76l-6 -225h-631z" />
<glyph unicode="&#xbe;" horiz-adv-x="1734" d="M127 575v105h8q89 -92 246 -92q217 0 217 170q0 103 -119 137q-55 14 -149 14h-37v82h39q99 0 162 29q77 41 77 131q0 64 -45.5 102.5t-134.5 38.5q-62 0 -131.5 -29t-105.5 -77h-9v100q38 38 112.5 65t143.5 27q271 0 271 -223q0 -66 -43.5 -120t-116.5 -79 q86 -14 137 -66.5t51 -131.5q0 -121 -85.5 -189.5t-233.5 -68.5q-167 0 -254 75zM518 -25l690 1422h88l-688 -1422h-90zM946 225v64l455 573h80v-549h149v-88h-149v-225h-97v225h-438zM1061 313h323q0 31 7 418q-82 -119 -330 -418z" />
<glyph unicode="&#xbf;" horiz-adv-x="866" d="M61 -80q0 105 62 193.5t219 199.5q82 61 102 121q24 75 27 178h92q0 -90 -6 -137q-5 -52 -37.5 -110.5t-91.5 -102.5q-133 -97 -187.5 -173t-54.5 -159q0 -108 65.5 -169.5t199.5 -61.5q195 0 331 160h9v-123q-57 -66 -155 -106t-202 -40q-180 0 -276.5 85t-96.5 245z M420 961q-4 58 46 82t99.5 0t44.5 -82q0 -46 -26.5 -71.5t-69.5 -25.5q-39 0 -66.5 26t-27.5 71z" />
<glyph unicode="&#xc0;" horiz-adv-x="1490" d="M6 0v104h154l536 1307h109l522 -1307h158v-104h-502v104h215l-143 347h-629l-145 -347h223v-104h-498zM410 1802v8h198l318 -266v-8h-133zM465 557h551q-209 528 -266 709q-29 -78 -285 -709z" />
<glyph unicode="&#xc1;" horiz-adv-x="1490" d="M6 0v104h154l536 1307h109l522 -1307h158v-104h-502v104h215l-143 347h-629l-145 -347h223v-104h-498zM465 557h551q-209 528 -266 709q-29 -78 -285 -709zM594 1536v8l317 266h199v-8l-381 -266h-135z" />
<glyph unicode="&#xc2;" horiz-adv-x="1490" d="M6 0v104h154l536 1307h109l522 -1307h158v-104h-502v104h215l-143 347h-629l-145 -347h223v-104h-498zM418 1536v8l293 266h77l293 -266v-8h-129l-207 162l-198 -162h-129zM465 557h551q-209 528 -266 709q-29 -78 -285 -709z" />
<glyph unicode="&#xc3;" horiz-adv-x="1490" d="M6 0v104h154l536 1307h109l522 -1307h158v-104h-502v104h215l-143 347h-629l-145 -347h223v-104h-498zM422 1546q10 108 61.5 165.5t128.5 57.5q66 0 158 -65q89 -59 133 -59q73 0 88 124h90q-6 -108 -58 -169.5t-124 -61.5q-64 0 -170 68q-86 57 -123 57q-72 0 -90 -117 h-94zM465 557h551q-209 528 -266 709q-29 -78 -285 -709z" />
<glyph unicode="&#xc4;" horiz-adv-x="1490" d="M6 0v104h154l536 1307h109l522 -1307h158v-104h-502v104h215l-143 347h-629l-145 -347h223v-104h-498zM465 557h551q-209 528 -266 709q-29 -78 -285 -709zM484 1638q-4 27 5 50.5t30.5 39t47.5 11.5q34 0 58 -22.5t24 -61.5q0 -55 -52.5 -77.5t-90.5 15.5q-18 18 -22 45 zM848 1655q0 37 25 60.5t59 23.5q37 0 60.5 -22t23.5 -62q0 -36 -24 -60t-60 -24q-37 0 -60.5 23t-23.5 61z" />
<glyph unicode="&#xc5;" horiz-adv-x="1490" d="M6 0v104h154l536 1307h109l522 -1307h158v-104h-502v104h215l-143 347h-629l-145 -347h223v-104h-498zM465 557h551q-209 528 -266 709q-29 -78 -285 -709zM537 1673q0 87 60 144t151 57t146.5 -55t55.5 -146q0 -85 -59.5 -142.5t-147.5 -57.5t-147 57t-59 143z M622.5 1601q35.5 -72 122.5 -65q61 0 98.5 39t37.5 100q0 60 -38.5 97.5t-101.5 37.5q-83 7 -118.5 -65t0 -144z" />
<glyph unicode="&#xc6;" horiz-adv-x="2066" d="M4 0v104h146l821 1203h-234v104h1164l8 -291h-103l-12 189h-588v-525h572v-102h-572v-580h639l15 207h102l-10 -309h-1065v104h200v353h-552l-246 -353h217v-104h-502zM592 561h495v739q-112 -177 -495 -739z" />
<glyph unicode="&#xc7;" horiz-adv-x="1413" d="M106 707q0 337 216 538q217 199 528 199q124 0 239.5 -35t176.5 -92l10 -293h-102l-17 231q-135 78 -311 78q-270 0 -445 -172q-174 -168 -174 -446q0 -295 170 -465q171 -168 445 -168q257 0 428 154h8v-130q-75 -62 -196 -98.5t-251 -36.5q-33 0 -43 2l-32 -106h14 q93 0 150 -49.5t57 -134.5q0 -98 -65 -152.5t-177 -54.5q-95 0 -157 45v92h8q59 -47 147 -47q139 0 139 115q0 51 -37 79.5t-108 28.5q-48 0 -80 -14l-6 4l61 203q-263 41 -430 231q-166 193 -166 494z" />
<glyph unicode="&#xc8;" horiz-adv-x="1220" d="M70 0v104h190v1203h-190v104h985l8 -291h-100l-15 187h-571v-521h569v-104h-569v-578h622l15 205h102l-10 -309h-1036zM266 1802v8h199l317 -266v-8h-133z" />
<glyph unicode="&#xc9;" horiz-adv-x="1220" d="M70 0v104h190v1203h-190v104h985l8 -291h-100l-15 187h-571v-521h569v-104h-569v-578h622l15 205h102l-10 -309h-1036zM467 1536v8l317 266h199v-8l-381 -266h-135z" />
<glyph unicode="&#xca;" horiz-adv-x="1220" d="M70 0v104h190v1203h-190v104h985l8 -291h-100l-15 187h-571v-521h569v-104h-569v-578h622l15 205h102l-10 -309h-1036zM289 1536v8l293 266h77l293 -266v-8h-129l-207 162l-198 -162h-129z" />
<glyph unicode="&#xcb;" horiz-adv-x="1220" d="M70 0v104h190v1203h-190v104h985l8 -291h-100l-15 187h-571v-521h569v-104h-569v-578h622l15 205h102l-10 -309h-1036zM377.5 1638q-3.5 27 5.5 50.5t30.5 39t47.5 11.5q34 0 58 -22.5t24 -61.5q0 -55 -53 -77.5t-91 15.5q-18 18 -21.5 45zM741 1655q0 37 25 60.5 t59 23.5q37 0 60.5 -22t23.5 -62q0 -36 -24 -60t-60 -24q-37 0 -60.5 23t-23.5 61z" />
<glyph unicode="&#xcc;" horiz-adv-x="638" d="M-23 1802v8h199l318 -266v-8h-134zM70 0v104h190v1203h-190v104h499v-104h-192v-1203h192v-104h-499z" />
<glyph unicode="&#xcd;" horiz-adv-x="638" d="M70 0v104h190v1203h-190v104h499v-104h-192v-1203h192v-104h-499zM158 1536v8l317 266h199v-8l-381 -266h-135z" />
<glyph unicode="&#xce;" horiz-adv-x="638" d="M-12 1536v8l293 266h77l293 -266v-8h-129l-207 162l-198 -162h-129zM70 0v104h190v1203h-190v104h499v-104h-192v-1203h192v-104h-499z" />
<glyph unicode="&#xcf;" horiz-adv-x="638" d="M56 1638q-4 27 5 50.5t30.5 39t47.5 11.5q34 0 58 -22.5t24 -61.5q0 -55 -52.5 -77.5t-90.5 15.5q-18 18 -22 45zM70 0v104h190v1203h-190v104h499v-104h-192v-1203h192v-104h-499zM420 1655q0 37 25 60.5t59 23.5q37 0 60.5 -22t23.5 -62q0 -36 -24 -60t-60 -24 q-37 0 -60.5 23t-23.5 61z" />
<glyph unicode="&#xd0;" horiz-adv-x="1546" d="M66 682v104h194v521h-190v104h546q241 0 392 -45q432 -126 432 -643q0 -505 -416 -662q-168 -61 -455 -61h-499v104h190v578h-194zM377 104h213q292 0 454 84q275 151 275 531q0 190 -81.5 332t-238.5 200q-154 56 -376 56h-246v-521h459v-104h-459v-578z" />
<glyph unicode="&#xd1;" horiz-adv-x="1538" d="M70 0v104h190v1203h-190v104h315q746 -1077 815 -1188q-6 325 -6 1084h-199v104h502v-104h-186v-1307h-99l-837 1235q2 -164 2 -1131h194v-104h-501zM471 1546q10 107 62 165t129 58q65 0 157 -65q89 -59 133 -59q73 0 88 124h90q-6 -108 -58 -169.5t-124 -61.5 q-64 0 -170 68q-86 57 -123 57q-72 0 -90 -117h-94z" />
<glyph unicode="&#xd2;" horiz-adv-x="1656" d="M106 705q0 310 209 522q212 215 514 215q315 0 517 -211q204 -207 204 -526q0 -311 -209 -523q-205 -211 -514 -211t-514 211q-207 213 -207 523zM227 707q0 -270 174 -447q175 -178 428 -178q262 0 431 178q172 178 172 447q0 263 -172 444q-173 182 -431 182 q-252 0 -428 -182q-174 -180 -174 -444zM547 1802v8h198l318 -266v-8h-133z" />
<glyph unicode="&#xd3;" horiz-adv-x="1656" d="M106 705q0 310 209 522q212 215 514 215q315 0 517 -211q204 -207 204 -526q0 -311 -209 -523q-205 -211 -514 -211t-514 211q-207 213 -207 523zM227 707q0 -270 174 -447q175 -178 428 -178q262 0 431 178q172 178 172 447q0 263 -172 444q-173 182 -431 182 q-252 0 -428 -182q-174 -180 -174 -444zM659 1536v8l318 266h199v-8l-381 -266h-136z" />
<glyph unicode="&#xd4;" horiz-adv-x="1656" d="M106 705q0 310 209 522q212 215 514 215q315 0 517 -211q204 -207 204 -526q0 -311 -209 -523q-205 -211 -514 -211t-514 211q-207 213 -207 523zM227 707q0 -270 174 -447q175 -178 428 -178q262 0 431 178q172 178 172 447q0 263 -172 444q-173 182 -431 182 q-252 0 -428 -182q-174 -180 -174 -444zM510 1536v8l293 266h78l293 -266v-8h-130l-206 162l-199 -162h-129z" />
<glyph unicode="&#xd5;" horiz-adv-x="1656" d="M106 705q0 310 209 522q212 215 514 215q315 0 517 -211q204 -207 204 -526q0 -311 -209 -523q-205 -211 -514 -211t-514 211q-207 213 -207 523zM227 707q0 -270 174 -447q175 -178 428 -178q262 0 431 178q172 178 172 447q0 263 -172 444q-173 182 -431 182 q-252 0 -428 -182q-174 -180 -174 -444zM506 1546q10 108 61.5 165.5t128.5 57.5q66 0 158 -65q89 -59 133 -59q73 0 88 124h90q-6 -108 -58 -169.5t-124 -61.5q-64 0 -170 68q-86 57 -123 57q-72 0 -90 -117h-94z" />
<glyph unicode="&#xd6;" horiz-adv-x="1656" d="M106 705q0 310 209 522q212 215 514 215q315 0 517 -211q204 -207 204 -526q0 -311 -209 -523q-205 -211 -514 -211t-514 211q-207 213 -207 523zM227 707q0 -270 174 -447q175 -178 428 -178q262 0 431 178q172 178 172 447q0 263 -172 444q-173 182 -431 182 q-252 0 -428 -182q-174 -180 -174 -444zM570 1638q-4 27 5 50.5t30.5 39t47.5 11.5q34 0 58 -22.5t24 -61.5q0 -55 -52.5 -77.5t-90.5 15.5q-18 18 -22 45zM934 1655q0 37 25 60.5t59 23.5q37 0 60.5 -22t23.5 -62q0 -36 -24 -60t-60 -24q-37 0 -60.5 23t-23.5 61z" />
<glyph unicode="&#xd7;" horiz-adv-x="1454" d="M287 983l71 74l371 -371l371 371l67 -70l-370 -371l368 -368l-71 -74l-369 369l-369 -371l-67 72l368 368z" />
<glyph unicode="&#xd8;" horiz-adv-x="1656" d="M106 705q0 310 209 522q212 215 514 215q192 0 355 -88l106 166h113l-139 -217q136 -100 211 -256.5t75 -341.5q0 -311 -209 -523q-205 -211 -514 -211q-200 0 -364 95l-98 -154h-107l131 203q-135 104 -209 256.5t-74 333.5zM227 707q0 -309 226 -494l669 1044 q-131 76 -293 76q-252 0 -428 -182q-174 -180 -174 -444zM526 162q139 -80 303 -80q262 0 431 178q172 178 172 447q0 151 -61 280.5t-171 218.5z" />
<glyph unicode="&#xd9;" horiz-adv-x="1560" d="M47 1309v102h502v-102h-203v-682q0 -248 60 -365q43 -82 141 -131t239 -49q250 0 367 172q72 110 72 369v686h-211v102h499v-102h-176v-701q0 -274 -71 -395q-64 -109 -189.5 -175.5t-292.5 -66.5q-180 0 -309.5 66t-189.5 190q-58 122 -58 375v707h-180zM444 1802v8h199 l318 -266v-8h-134z" />
<glyph unicode="&#xda;" horiz-adv-x="1560" d="M47 1309v102h502v-102h-203v-682q0 -248 60 -365q43 -82 141 -131t239 -49q250 0 367 172q72 110 72 369v686h-211v102h499v-102h-176v-701q0 -274 -71 -395q-64 -109 -189.5 -175.5t-292.5 -66.5q-180 0 -309.5 66t-189.5 190q-58 122 -58 375v707h-180zM639 1536v8 l317 266h199v-8l-381 -266h-135z" />
<glyph unicode="&#xdb;" horiz-adv-x="1560" d="M47 1309v102h502v-102h-203v-682q0 -248 60 -365q43 -82 141 -131t239 -49q250 0 367 172q72 110 72 369v686h-211v102h499v-102h-176v-701q0 -274 -71 -395q-64 -109 -189.5 -175.5t-292.5 -66.5q-180 0 -309.5 66t-189.5 190q-58 122 -58 375v707h-180zM451 1536v8 l292 266h78l293 -266v-8h-129l-207 162l-198 -162h-129z" />
<glyph unicode="&#xdc;" horiz-adv-x="1560" d="M47 1309v102h502v-102h-203v-682q0 -248 60 -365q43 -82 141 -131t239 -49q250 0 367 172q72 110 72 369v686h-211v102h499v-102h-176v-701q0 -274 -71 -395q-64 -109 -189.5 -175.5t-292.5 -66.5q-180 0 -309.5 66t-189.5 190q-58 122 -58 375v707h-180zM513 1638 q-4 27 5 50.5t30.5 39t47.5 11.5q34 0 58 -22.5t24 -61.5q0 -55 -52.5 -77.5t-90.5 15.5q-18 18 -22 45zM877 1655q0 37 25 60.5t59 23.5q37 0 60 -22t23 -62q0 -37 -24 -60.5t-59 -23.5q-37 0 -60.5 23t-23.5 61z" />
<glyph unicode="&#xdd;" horiz-adv-x="1439" d="M4 1309v102h502v-102h-187q318 -490 400 -629q76 130 403 629h-188v102h500v-102h-174l-488 -740v-467h195v-102h-504v102h190v467l-477 740h-172zM600 1536v8l318 266h198v-8l-381 -266h-135z" />
<glyph unicode="&#xde;" horiz-adv-x="1312" d="M70 0v104h190v1203h-190v104h516v-104h-209v-166h291q203 0 319 -45q104 -38 161.5 -134t57.5 -231q0 -306 -256 -395q-107 -39 -288 -39h-285v-193h231v-104h-538zM377 403h270q204 0 295 48q143 76 143 276q0 191 -141 262q-89 45 -280 45h-287v-631z" />
<glyph unicode="&#xdf;" horiz-adv-x="1249" d="M45 0v100h180v875q0 253 70 360q117 181 358 181q195 0 289 -113t94 -252q0 -293 -270 -387q175 -11 281 -112t106 -275q0 -187 -103.5 -296.5t-287.5 -109.5q-171 0 -275 84v119h9q96 -96 260 -96q133 0 207.5 75t74.5 224q0 154 -114.5 236.5t-339.5 82.5h-39v103h37 q148 0 241 96q95 95 95 238q0 121 -69.5 199.5t-197.5 78.5q-180 0 -256 -119q-59 -95 -59 -305v-987h-291z" />
<glyph unicode="&#xe0;" d="M86 281q0 180 176 254q127 53 350 53q96 0 181 -15v78q0 120 -35 176q-64 101 -242 101q-86 0 -192 -41q-103 -41 -162 -115h-8v123q66 66 169 104.5t209 38.5q213 0 302 -114q69 -90 69 -273v-551h189v-100h-293v135q-55 -76 -146 -119t-200 -43q-164 0 -267 86 q-100 84 -100 222zM201 283q0 -91 70 -147t200 -56q103 0 191 46t131 120v231q-116 17 -191 17q-172 0 -268 -35q-133 -53 -133 -176zM260 1516v8h174l266 -330v-8h-112z" />
<glyph unicode="&#xe1;" d="M86 281q0 180 176 254q127 53 350 53q96 0 181 -15v78q0 120 -35 176q-64 101 -242 101q-86 0 -192 -41q-103 -41 -162 -115h-8v123q66 66 169 104.5t209 38.5q213 0 302 -114q69 -90 69 -273v-551h189v-100h-293v135q-55 -76 -146 -119t-200 -43q-164 0 -267 86 q-100 84 -100 222zM201 283q0 -91 70 -147t200 -56q103 0 191 46t131 120v231q-116 17 -191 17q-172 0 -268 -35q-133 -53 -133 -176zM410 1186v8l264 330h170v-8l-324 -330h-110z" />
<glyph unicode="&#xe2;" d="M86 281q0 180 176 254q127 53 350 53q96 0 181 -15v78q0 120 -35 176q-64 101 -242 101q-86 0 -192 -41q-103 -41 -162 -115h-8v123q66 66 169 104.5t209 38.5q213 0 302 -114q69 -90 69 -273v-551h189v-100h-293v135q-55 -76 -146 -119t-200 -43q-164 0 -267 86 q-100 84 -100 222zM201 283q0 -91 70 -147t200 -56q103 0 191 46t131 120v231q-116 17 -191 17q-172 0 -268 -35q-133 -53 -133 -176zM229 1178v8l273 319h67l277 -319v-8h-113l-201 204l-194 -204h-109z" />
<glyph unicode="&#xe3;" d="M86 281q0 180 176 254q127 53 350 53q96 0 181 -15v78q0 120 -35 176q-64 101 -242 101q-86 0 -192 -41q-103 -41 -162 -115h-8v123q66 66 169 104.5t209 38.5q213 0 302 -114q69 -90 69 -273v-551h189v-100h-293v135q-55 -76 -146 -119t-200 -43q-164 0 -267 86 q-100 84 -100 222zM201 283q0 -91 70 -147t200 -56q103 0 191 46t131 120v231q-116 17 -191 17q-172 0 -268 -35q-133 -53 -133 -176zM227 1233q10 108 59 164.5t124 56.5q62 0 151 -63q85 -60 123 -60t56.5 27t25.5 98h88q-6 -109 -54.5 -170t-117.5 -61q-41 0 -71 12.5 t-93 52.5q-82 58 -115 58q-70 0 -88 -115h-88z" />
<glyph unicode="&#xe4;" d="M86 281q0 180 176 254q127 53 350 53q96 0 181 -15v78q0 120 -35 176q-64 101 -242 101q-86 0 -192 -41q-103 -41 -162 -115h-8v123q66 66 169 104.5t209 38.5q213 0 302 -114q69 -90 69 -273v-551h189v-100h-293v135q-55 -76 -146 -119t-200 -43q-164 0 -267 86 q-100 84 -100 222zM201 283q0 -91 70 -147t200 -56q103 0 191 46t131 120v231q-116 17 -191 17q-172 0 -268 -35q-133 -53 -133 -176zM276 1343q0 40 24 63.5t60 23.5q34 0 58 -23.5t24 -63.5q0 -36 -23.5 -58.5t-60.5 -22.5q-36 0 -59 22.5t-23 58.5zM631 1343 q0 40 24 63.5t60 23.5q34 0 58 -23.5t24 -63.5q4 -50 -40.5 -71t-88 0t-37.5 71z" />
<glyph unicode="&#xe5;" d="M86 281q0 180 176 254q127 53 350 53q96 0 181 -15v78q0 120 -35 176q-64 101 -242 101q-86 0 -192 -41q-103 -41 -162 -115h-8v123q66 66 169 104.5t209 38.5q213 0 302 -114q69 -90 69 -273v-551h189v-100h-293v135q-55 -76 -146 -119t-200 -43q-164 0 -267 86 q-100 84 -100 222zM201 283q0 -91 70 -147t200 -56q103 0 191 46t131 120v231q-116 17 -191 17q-172 0 -268 -35q-133 -53 -133 -176zM340 1370q0 90 60 147.5t153 57.5q92 0 149.5 -57t57.5 -148q0 -86 -61.5 -145.5t-149.5 -59.5q-90 0 -149.5 58.5t-59.5 146.5zM410 1370 q0 -62 38.5 -101.5t104.5 -39.5q61 0 99 41t38 102q0 63 -40 102t-103 39q-61 0 -99 -40.5t-38 -102.5z" />
<glyph unicode="&#xe6;" horiz-adv-x="1828" d="M90 279q0 177 174 253q113 52 350 52q102 0 187 -15v84q0 117 -39 176q-58 101 -232 101q-90 0 -194 -39t-164 -105h-8v115q67 63 171.5 100t209.5 37q285 0 344 -215q59 101 165.5 158t229.5 57q217 0 336.5 -121t124.5 -344q0 -57 -6 -98h-828q5 -182 121 -289.5 t316 -107.5q222 0 366 147h8v-119q-61 -60 -168.5 -97.5t-216.5 -37.5q-300 0 -444 199q-170 -197 -432 -197q-165 0 -268 85.5t-103 220.5zM205 285q0 -93 71 -150t199 -57q111 0 211 49.5t160 126.5q-39 79 -45 219q-82 16 -191 16q-181 0 -274 -34q-131 -52 -131 -170z M911 573h719v19q0 161 -90.5 252.5t-261.5 91.5q-141 0 -248 -94q-107 -90 -119 -269z" />
<glyph unicode="&#xe7;" horiz-adv-x="1095" d="M94 500q0 237 156 387q157 151 395 151q96 0 185.5 -29.5t140.5 -74.5v-256h-99l-8 194q-105 60 -227 60q-174 0 -301 -115t-127 -311q0 -209 127 -318q127 -106 297 -106q200 0 338 129h8v-123q-133 -115 -358 -115h-9l-32 -102h14q89 0 146 -48t57 -128q0 -97 -64 -150 t-176 -53q-93 0 -151 43v92h8q50 -47 139 -47q141 0 141 109q0 49 -36.5 77.5t-106.5 28.5q-48 0 -78 -12l-6 4l59 195q-189 30 -311 170q-121 139 -121 348z" />
<glyph unicode="&#xe8;" d="M94 500q0 249 150 393q151 145 356 145q213 0 330 -123.5t119 -345.5q0 -58 -7 -102h-831q9 -169 123 -277t311 -108q230 0 367 137h8v-121q-60 -55 -167 -90t-216 -35q-246 0 -395 146q-148 145 -148 381zM211 567h723v21q0 163 -88.5 254.5t-257.5 91.5 q-137 0 -250 -94q-115 -95 -127 -273zM319 1516v8h175l266 -330v-8h-113z" />
<glyph unicode="&#xe9;" d="M94 500q0 249 150 393q151 145 356 145q213 0 330 -123.5t119 -345.5q0 -58 -7 -102h-831q9 -169 123 -277t311 -108q230 0 367 137h8v-121q-60 -55 -167 -90t-216 -35q-246 0 -395 146q-148 145 -148 381zM211 567h723v21q0 163 -88.5 254.5t-257.5 91.5 q-137 0 -250 -94q-115 -95 -127 -273zM496 1186v8l264 330h170v-8l-324 -330h-110z" />
<glyph unicode="&#xea;" d="M94 500q0 249 150 393q151 145 356 145q213 0 330 -123.5t119 -345.5q0 -58 -7 -102h-831q9 -169 123 -277t311 -108q230 0 367 137h8v-121q-60 -55 -167 -90t-216 -35q-246 0 -395 146q-148 145 -148 381zM211 567h723v21q0 163 -88.5 254.5t-257.5 91.5 q-137 0 -250 -94q-115 -95 -127 -273zM305 1178v8l273 319h67l277 -319v-8h-113l-201 204l-194 -204h-109z" />
<glyph unicode="&#xeb;" d="M94 500q0 249 150 393q151 145 356 145q213 0 330 -123.5t119 -345.5q0 -58 -7 -102h-831q9 -169 123 -277t311 -108q230 0 367 137h8v-121q-60 -55 -167 -90t-216 -35q-246 0 -395 146q-148 145 -148 381zM211 567h723v21q0 163 -88.5 254.5t-257.5 91.5 q-137 0 -250 -94q-115 -95 -127 -273zM350 1343q0 40 24 63.5t60 23.5q34 0 58 -23.5t24 -63.5q0 -36 -23.5 -58.5t-60.5 -22.5q-36 0 -59 22.5t-23 58.5zM705 1343q0 40 23.5 63.5t59.5 23.5q34 0 58 -23.5t24 -63.5q4 -50 -40 -71t-87.5 0t-37.5 71z" />
<glyph unicode="&#xec;" horiz-adv-x="598" d="M-45 1516v8h174l266 -330v-8h-112zM66 0v100h186v807h-186v101h296v-908h191v-100h-487z" />
<glyph unicode="&#xed;" horiz-adv-x="598" d="M66 0v100h186v807h-186v101h296v-908h191v-100h-487zM131 1186v8l264 330h170v-8l-323 -330h-111z" />
<glyph unicode="&#xee;" horiz-adv-x="598" d="M-33 1178v8l273 319h67l277 -319v-8h-113l-201 204l-194 -204h-109zM66 0v100h186v807h-186v101h296v-908h191v-100h-487z" />
<glyph unicode="&#xef;" horiz-adv-x="598" d="M20 1343q0 40 24 63.5t60 23.5q34 0 58 -23.5t24 -63.5q0 -36 -23.5 -58.5t-60.5 -22.5q-36 0 -59 22.5t-23 58.5zM66 0v100h186v807h-186v101h296v-908h191v-100h-487zM375 1343q0 40 24 63.5t60 23.5q34 0 58 -23.5t24 -63.5q4 -50 -40.5 -71t-88 0t-37.5 71z" />
<glyph unicode="&#xf0;" horiz-adv-x="1251" d="M94 510q0 165 84 287q81 118 197 174.5t252 56.5q129 0 229.5 -49.5t155.5 -136.5q-15 93 -69 200t-142 195l-252 -143v102l182 104q-121 95 -282 138l32 86q197 -52 344 -168l213 121v-103l-143 -82q256 -265 256 -735q0 -287 -152 -436q-151 -148 -374 -148 q-216 0 -373 136q-158 137 -158 401zM209 510q0 -219 119 -326q118 -106 295 -106q171 0 290 110q121 112 121 326q0 202 -121 305t-292 103q-166 0 -289 -111q-123 -108 -123 -301z" />
<glyph unicode="&#xf1;" horiz-adv-x="1329" d="M66 0v100h186v807h-186v101h294v-172q123 196 383 196q136 0 221.5 -56.5t110.5 -160.5q21 -82 21 -229v-486h188v-100h-493v100h194v473q0 168 -37 232q-68 121 -233 121q-106 0 -209 -62q-101 -61 -144 -149v-615h195v-100h-491zM340 1233q10 108 58.5 164.5 t123.5 56.5q63 0 152 -63q85 -60 123 -60t56.5 27t25.5 98h88q-6 -109 -54.5 -170t-117.5 -61q-41 0 -71 12.5t-93 52.5q-82 58 -115 58q-70 0 -88 -115h-88z" />
<glyph unicode="&#xf2;" horiz-adv-x="1245" d="M94 506q0 224 156 377q155 155 377 155q229 0 377 -151q147 -150 147 -381q0 -224 -152 -379q-151 -154 -376 -154q-226 0 -377 154q-152 155 -152 379zM209 506q0 -183 119 -305q121 -121 297 -121q178 0 295 123q116 122 116 303q0 182 -118 303q-117 123 -295 123 q-176 0 -295 -125q-119 -122 -119 -301zM346 1516v8h174l266 -330v-8h-112z" />
<glyph unicode="&#xf3;" horiz-adv-x="1245" d="M94 506q0 224 156 377q155 155 377 155q229 0 377 -151q147 -150 147 -381q0 -224 -152 -379q-151 -154 -376 -154q-226 0 -377 154q-152 155 -152 379zM209 506q0 -183 119 -305q121 -121 297 -121q178 0 295 123q116 122 116 303q0 182 -118 303q-117 123 -295 123 q-176 0 -295 -125q-119 -122 -119 -301zM494 1186v8l264 330h170v-8l-324 -330h-110z" />
<glyph unicode="&#xf4;" horiz-adv-x="1245" d="M94 506q0 224 156 377q155 155 377 155q229 0 377 -151q147 -150 147 -381q0 -224 -152 -379q-151 -154 -376 -154q-226 0 -377 154q-152 155 -152 379zM209 506q0 -183 119 -305q121 -121 297 -121q178 0 295 123q116 122 116 303q0 182 -118 303q-117 123 -295 123 q-176 0 -295 -125q-119 -122 -119 -301zM326 1178v8l272 319h68l276 -319v-8h-113l-200 204l-195 -204h-108z" />
<glyph unicode="&#xf5;" horiz-adv-x="1245" d="M94 506q0 224 156 377q155 155 377 155q229 0 377 -151q147 -150 147 -381q0 -224 -152 -379q-151 -154 -376 -154q-226 0 -377 154q-152 155 -152 379zM209 506q0 -183 119 -305q121 -121 297 -121q178 0 295 123q116 122 116 303q0 182 -118 303q-117 123 -295 123 q-176 0 -295 -125q-119 -122 -119 -301zM311 1233q10 108 59 164.5t124 56.5q62 0 151 -63q85 -60 123 -60t56.5 27t25.5 98h88q-6 -109 -54.5 -170t-117.5 -61q-41 0 -71 12.5t-93 52.5q-82 58 -115 58q-70 0 -88 -115h-88z" />
<glyph unicode="&#xf6;" horiz-adv-x="1245" d="M94 506q0 224 156 377q155 155 377 155q229 0 377 -151q147 -150 147 -381q0 -224 -152 -379q-151 -154 -376 -154q-226 0 -377 154q-152 155 -152 379zM209 506q0 -183 119 -305q121 -121 297 -121q178 0 295 123q116 122 116 303q0 182 -118 303q-117 123 -295 123 q-176 0 -295 -125q-119 -122 -119 -301zM375 1343q0 40 24 63.5t60 23.5q34 0 58 -23.5t24 -63.5q0 -36 -23.5 -58.5t-60.5 -22.5q-36 0 -59 22.5t-23 58.5zM729 1343q0 40 24 63.5t60 23.5q34 0 58 -23.5t24 -63.5q4 -50 -40.5 -71t-88 0t-37.5 71z" />
<glyph unicode="&#xf7;" horiz-adv-x="1433" d="M184 557v96h1065v-96h-1065zM643 268q0 40 21 61t53 21q74 0 74 -82q0 -35 -22 -55t-54 -20q-31 0 -51.5 20t-20.5 55zM643 926q0 36 21 57t53 21q74 0 74 -78q0 -37 -21.5 -57.5t-54.5 -20.5q-31 0 -51.5 20.5t-20.5 57.5z" />
<glyph unicode="&#xf8;" horiz-adv-x="1245" d="M98 506q0 224 156 377q155 155 377 155q129 0 250 -59l90 139h96l-117 -182q203 -153 203 -430q0 -224 -152 -379q-151 -154 -376 -154q-133 0 -254 62l-88 -137h-97l117 182q-205 156 -205 426zM213 506q0 -209 149 -334l457 713q-96 47 -192 47q-176 0 -295 -125 q-119 -122 -119 -301zM430 127q89 -47 197 -47q178 0 295 123q116 122 116 303q0 207 -151 334z" />
<glyph unicode="&#xf9;" horiz-adv-x="1294" d="M23 907v101h292v-570q0 -162 37 -235q62 -121 244 -121q109 0 202.5 56.5t145.5 148.5v620h-199v101h310v-908h176v-100h-283v166q-114 -191 -379 -191q-138 0 -227 57t-115 161q-22 93 -22 233v481h-182zM299 1516v8h174l266 -330v-8h-112z" />
<glyph unicode="&#xfa;" horiz-adv-x="1294" d="M23 907v101h292v-570q0 -162 37 -235q62 -121 244 -121q109 0 202.5 56.5t145.5 148.5v620h-199v101h310v-908h176v-100h-283v166q-114 -191 -379 -191q-138 0 -227 57t-115 161q-22 93 -22 233v481h-182zM479 1186v8l264 330h170v-8l-323 -330h-111z" />
<glyph unicode="&#xfb;" horiz-adv-x="1294" d="M23 907v101h292v-570q0 -162 37 -235q62 -121 244 -121q109 0 202.5 56.5t145.5 148.5v620h-199v101h310v-908h176v-100h-283v166q-114 -191 -379 -191q-138 0 -227 57t-115 161q-22 93 -22 233v481h-182zM305 1178v8l273 319h67l277 -319v-8h-113l-201 204l-194 -204 h-109z" />
<glyph unicode="&#xfc;" horiz-adv-x="1294" d="M23 907v101h292v-570q0 -162 37 -235q62 -121 244 -121q109 0 202.5 56.5t145.5 148.5v620h-199v101h310v-908h176v-100h-283v166q-114 -191 -379 -191q-138 0 -227 57t-115 161q-22 93 -22 233v481h-182zM348 1343q0 40 24 63.5t60 23.5q34 0 58 -23.5t24 -63.5 q0 -36 -23.5 -58.5t-60.5 -22.5q-36 0 -59 22.5t-23 58.5zM702 1343q0 40 24 63.5t60 23.5q34 0 58 -23.5t24 -63.5q4 -50 -40.5 -71t-88 0t-37.5 71z" />
<glyph unicode="&#xfd;" horiz-adv-x="1171" d="M8 907v101h443v-101h-179q239 -546 324 -774l315 774h-188v101h442v-101h-137l-389 -925q-92 -225 -135 -287q-83 -129 -236 -129q-97 0 -155 37v110h8q53 -41 145 -41q99 0 158 90q30 49 74 156l39 94l-392 895h-137zM483 1186v8l265 330h170v-8l-324 -330h-111z" />
<glyph unicode="&#xfe;" horiz-adv-x="1339" d="M27 1391v100h292v-692q50 105 168 172q119 67 256 67q203 0 351 -139q149 -137 149 -383q0 -252 -153 -393q-151 -139 -367 -139q-129 0 -238.5 53.5t-162.5 146.5v-481h223v-100h-516v100h182v1688h-184zM322 352q46 -125 156.5 -193.5t246.5 -68.5q168 0 285 111 q118 109 118 313q0 205 -124 311q-125 107 -277 107q-131 0 -246 -74q-111 -69 -159 -205v-301z" />
<glyph unicode="&#xff;" horiz-adv-x="1171" d="M8 907v101h443v-101h-179q239 -546 324 -774l315 774h-188v101h442v-101h-137l-389 -925q-92 -225 -135 -287q-83 -129 -236 -129q-97 0 -155 37v110h8q53 -41 145 -41q99 0 158 90q30 49 74 156l39 94l-392 895h-137zM328 1343q0 40 24 63.5t60 23.5q34 0 58 -23.5 t24 -63.5q0 -36 -23.5 -58.5t-60.5 -22.5q-36 0 -59 22.5t-23 58.5zM682 1343q0 40 24 63.5t60 23.5q34 0 58 -23.5t24 -63.5q4 -50 -40.5 -71t-88 0t-37.5 71z" />
<glyph unicode="&#x152;" horiz-adv-x="2328" d="M102 707q0 168 61.5 311.5t166.5 236.5q105 91 233 140t264 49q183 0 327 -71.5t220 -209.5v248h793l10 -291h-102l-13 187h-571v-523h567v-102h-567v-578h623l14 205h102l-12 -309h-844v268q-78 -146 -224 -221.5t-331 -75.5q-184 0 -346 78q-157 78 -266 250 q-105 172 -105 408zM225 715q0 -302 174 -467q175 -166 424 -166q193 0 338.5 94.5t212.5 269.5v529q-67 175 -210 266.5t-343 91.5q-248 0 -422 -168t-174 -450z" />
<glyph unicode="&#x153;" horiz-adv-x="2048" d="M86 508q0 250 160 389q159 141 366 141q161 0 281 -68.5t174 -205.5q56 132 169.5 203t256.5 71q217 0 335.5 -121.5t123.5 -347.5q0 -47 -6 -102h-822q8 -180 120 -284.5t312 -104.5q224 0 365 147h8v-119q-63 -60 -169 -97.5t-212 -37.5q-356 0 -483 281 q-60 -138 -178.5 -209.5t-274.5 -71.5q-199 0 -358 125q-77 65 -122.5 172.5t-45.5 239.5zM201 510q0 -210 121 -322q123 -108 288 -108q173 0 287 108q117 111 117 324q0 208 -117 313q-116 107 -291 107q-167 0 -287 -111q-118 -109 -118 -311zM1126 567h711v21 q0 163 -90 255.5t-260 92.5q-134 0 -244 -96q-108 -94 -117 -273z" />
<glyph unicode="&#x178;" horiz-adv-x="1439" d="M4 1309v102h502v-102h-187q318 -490 400 -629q76 130 403 629h-188v102h500v-102h-174l-488 -740v-467h195v-102h-504v102h190v467l-477 740h-172zM461.5 1638q-3.5 27 5.5 50.5t30.5 39t47.5 11.5q34 0 58 -22.5t24 -61.5q0 -55 -53 -77.5t-91 15.5q-18 18 -21.5 45z M825 1655q0 37 25 60.5t59 23.5q37 0 60.5 -22t23.5 -62q0 -36 -24 -60t-60 -24q-37 0 -60.5 23t-23.5 61z" />
<glyph unicode="&#x2c6;" horiz-adv-x="430" d="M-92 1178v8l272 319h68l276 -319v-8h-112l-201 204l-195 -204h-108z" />
<glyph unicode="&#x2dc;" horiz-adv-x="430" d="M-98 1233q10 108 58.5 164.5t123.5 56.5q63 0 152 -63q85 -60 122 -60q38 0 56.5 27t25.5 98h88q-6 -109 -54.5 -170t-117.5 -61q-41 0 -70 12t-93 53q-82 58 -115 58q-70 0 -88 -115h-88z" />
<glyph unicode="&#x2000;" horiz-adv-x="937" />
<glyph unicode="&#x2001;" horiz-adv-x="1874" />
<glyph unicode="&#x2002;" horiz-adv-x="937" />
<glyph unicode="&#x2003;" horiz-adv-x="1874" />
<glyph unicode="&#x2004;" horiz-adv-x="624" />
<glyph unicode="&#x2005;" horiz-adv-x="468" />
<glyph unicode="&#x2006;" horiz-adv-x="312" />
<glyph unicode="&#x2007;" horiz-adv-x="312" />
<glyph unicode="&#x2008;" horiz-adv-x="234" />
<glyph unicode="&#x2009;" horiz-adv-x="374" />
<glyph unicode="&#x200a;" horiz-adv-x="104" />
<glyph unicode="&#x2010;" horiz-adv-x="653" d="M82 502v108h489v-108h-489z" />
<glyph unicode="&#x2011;" horiz-adv-x="653" d="M82 502v108h489v-108h-489z" />
<glyph unicode="&#x2012;" horiz-adv-x="653" d="M82 502v108h489v-108h-489z" />
<glyph unicode="&#x2013;" horiz-adv-x="1101" d="M82 504v100h938v-100h-938z" />
<glyph unicode="&#x2014;" horiz-adv-x="1716" d="M82 504v100h1550v-100h-1550z" />
<glyph unicode="&#x2018;" horiz-adv-x="380" d="M88 1096q0 114 51.5 213.5t136.5 163.5h105v-9q-77 -63 -124.5 -158t-47.5 -200q0 -92 33 -162h-125q-29 63 -29 152z" />
<glyph unicode="&#x2019;" horiz-adv-x="380" d="M0 944v8q77 62 124.5 158t47.5 201q0 92 -33 162h125q29 -63 29 -152q0 -113 -52 -213t-137 -164h-104z" />
<glyph unicode="&#x201a;" horiz-adv-x="382" d="M0 -281q77 63 124.5 157.5t47.5 199.5q0 92 -33 162h125q29 -63 29 -150q0 -113 -52 -213t-137 -164h-104v8z" />
<glyph unicode="&#x201c;" horiz-adv-x="696" d="M88 1096q0 114 51.5 213.5t136.5 163.5h105v-9q-77 -63 -124.5 -158t-47.5 -200q0 -92 33 -162h-125q-29 63 -29 152zM403 1096q0 113 52 213t137 164h104v-9q-77 -63 -124.5 -158t-47.5 -200q0 -92 33 -162h-125q-29 63 -29 152z" />
<glyph unicode="&#x201d;" horiz-adv-x="696" d="M0 944v8q77 62 124.5 158t47.5 201q0 92 -33 162h125q29 -63 29 -152q0 -113 -52 -213t-137 -164h-104zM315 944v8q77 62 124.5 158t47.5 201q0 94 -32 162h125q28 -61 28 -152q0 -114 -51.5 -213.5t-136.5 -163.5h-105z" />
<glyph unicode="&#x201e;" horiz-adv-x="696" d="M0 -281q77 63 124.5 157.5t47.5 199.5q0 92 -33 162h125q29 -63 29 -150q0 -113 -52 -213t-137 -164h-104v8zM315 -281q77 63 124.5 157.5t47.5 199.5q0 94 -32 162h125q28 -61 28 -150q0 -114 -51.5 -213.5t-136.5 -163.5h-105v8z" />
<glyph unicode="&#x2022;" horiz-adv-x="671" d="M115 520q-2 87 43.5 146.5t111.5 73t132 0t111.5 -73t43.5 -146.5q0 -97 -63 -160t-158 -63q-96 0 -158.5 61t-62.5 162z" />
<glyph unicode="&#x2026;" horiz-adv-x="1800" d="M221 74q0 46 26.5 71t69.5 25q38 0 66.5 -26.5t28.5 -69.5q4 -58 -46 -82t-100 0t-45 82zM805 74q0 46 26.5 71t69.5 25q38 0 66 -26.5t28 -69.5q4 -58 -46 -82t-99.5 0t-44.5 82zM1389 74q0 46 26.5 71t69.5 25q38 0 66 -26.5t28 -69.5q4 -58 -46 -82t-99.5 0t-44.5 82z " />
<glyph unicode="&#x202f;" horiz-adv-x="374" />
<glyph unicode="&#x2039;" horiz-adv-x="528" d="M53 516l283 377h127l-279 -377l281 -377h-127z" />
<glyph unicode="&#x203a;" horiz-adv-x="528" d="M63 893h127l285 -377l-282 -377h-127l278 377z" />
<glyph unicode="&#x205f;" horiz-adv-x="468" />
<glyph unicode="&#x20ac;" horiz-adv-x="1366" d="M113 498v77h159q-4 94 -4 109q0 64 2 82h-157v78h168q41 261 205.5 404t412.5 143q233 0 354 -109l11 -264h-95l-12 199q-121 65 -260 65q-202 0 -333 -109t-165 -329h594v-78h-602q-2 -16 -2 -76q0 -21 4 -115h600v-77h-587q71 -416 491 -416q210 0 365 137h8v-121 q-62 -56 -169.5 -91.5t-221.5 -35.5q-248 0 -401.5 135.5t-194.5 391.5h-170z" />
<glyph unicode="&#x2122;" horiz-adv-x="1828" d="M88 1192v219h619v-219h-78l-6 147h-183v-594h115v-71h-324v71h117v594h-176l-6 -147h-78zM805 674v71h113v594h-113v72h246q175 -369 231 -498l219 498h240v-72h-107v-594h107v-71h-311v71h110q0 519 2 574q-32 -86 -229 -516h-70q-241 513 -242 516q7 -171 7 -574h104 v-71h-307z" />
<glyph unicode="&#x25fc;" horiz-adv-x="1003" d="M0 0v1004h1004v-1004h-1004z" />
</font>
</defs>
</svg>
