<?xml version="1.0" standalone="no"?>
<!DOCTYPE svg PUBLIC "-//W3C//DTD SVG 1.1//EN" "http://www.w3.org/Graphics/SVG/1.1/DTD/svg11.dtd" >
<svg xmlns="http://www.w3.org/2000/svg">
<metadata></metadata>
<defs>
<font id="equip_slabmedium" horiz-adv-x="1204" >
<font-face units-per-em="2048" ascent="1536" descent="-512" />
<missing-glyph horiz-adv-x="446" />
<glyph unicode="&#xfb01;" horiz-adv-x="1376" d="M49 813v205h170v96q0 194 103 297q108 105 309 105q120 0 184 -46v-202h-8q-64 43 -152 43q-99 0 -153 -54q-45 -42 -45 -155v-84h725v-817h155v-201h-555v201h164v612h-489v-612h213v-201h-613v201h162v612h-170zM905 1337q0 39 15.5 69.5t40.5 46.5t55 23.5t60.5 0 t55.5 -23.5t40.5 -46.5t15.5 -69.5q0 -65 -39.5 -104t-101.5 -39q-59 0 -100.5 39.5t-41.5 103.5z" />
<glyph unicode="&#xfb02;" horiz-adv-x="1368" d="M49 813v205h170v67q0 212 109 312q125 116 391 116q147 0 273.5 -23.5t183.5 -51.5v-1237h155v-201h-555v201h164v1079q-129 29 -233 29q-138 0 -197 -62q-53 -59 -53 -182v-47h262v-205h-262v-612h213v-201h-613v201h162v612h-170z" />
<glyph unicode="&#xfb03;" horiz-adv-x="2103" d="M51 813v205h170v55q0 197 103 297q108 105 309 105q122 0 184 -45v-203h-8q-70 43 -152 43q-102 0 -155 -53q-45 -45 -45 -154v-45h491v96q0 196 101 297q108 105 309 105q126 0 184 -46v-202h-8q-64 43 -152 43q-99 0 -153 -54q-45 -45 -45 -155v-84h725v-817h155v-201 h-555v201h164v612h-489v-612h213v-201h-613v201h164v612h-491v-612h213v-201h-611v201h162v612h-170zM1632 1337q0 66 42 105t102 39q58 0 98.5 -39t40.5 -105q0 -65 -38.5 -104t-100.5 -39q-63 0 -103.5 39t-40.5 104z" />
<glyph unicode="&#xfb04;" horiz-adv-x="2095" d="M51 813v205h170v55q0 197 103 297q108 105 309 105q122 0 184 -45v-203h-8q-70 43 -152 43q-102 0 -155 -53q-45 -45 -45 -154v-45h491v67q0 218 107 312q131 116 393 116q147 0 272.5 -23.5t182.5 -51.5v-1237h155v-201h-555v201h164v1079q-132 29 -231 29 q-140 0 -199 -62q-53 -59 -53 -182v-47h262v-205h-262v-612h213v-201h-613v201h164v612h-491v-612h213v-201h-611v201h162v612h-170z" />
<glyph horiz-adv-x="0" />
<glyph horiz-adv-x="682" />
<glyph unicode=" "  horiz-adv-x="446" />
<glyph unicode="&#x09;" horiz-adv-x="446" />
<glyph unicode="&#xa0;" horiz-adv-x="446" />
<glyph unicode="!" horiz-adv-x="616" d="M193 127q-2 59 29.5 100t77.5 50.5t92 0t77 -50.5t29 -100q0 -67 -43 -109.5t-109 -42.5q-67 0 -110 42t-43 110zM209 1411h270q0 -178 -41 -946h-186q-43 747 -43 946z" />
<glyph unicode="&#x22;" horiz-adv-x="772" d="M98 1450h217l-47 -571h-125zM459 1450h215l-45 -571h-125z" />
<glyph unicode="#" horiz-adv-x="1267" d="M86 418v168h279l30 211h-260v168h283l61 428h137l-61 -428h242l61 428h137l-61 -428h248v-168h-271l-30 -211h252v-168h-275l-63 -447h-138l62 447h-240l-63 -447h-137l61 447h-254zM502 586h241l29 211h-240z" />
<glyph unicode="$" horiz-adv-x="1177" d="M109 117v309h170l8 -164q131 -58 266 -67v366l-115 35q-313 94 -313 375q0 165 109.5 270t318.5 125v207h111v-203q97 -3 200 -37q108 -30 160 -73l10 -297h-178l-12 157q-83 33 -180 41v-379l84 -26q189 -56 268.5 -142t79.5 -225q0 -167 -109 -275t-323 -126v-217h-111 v213q-258 6 -444 133zM379 991q0 -62 35.5 -101.5t138.5 -74.5v344q-174 -21 -174 -168zM664 199q172 21 172 163q0 57 -39 93.5t-133 68.5v-325z" />
<glyph unicode="%" horiz-adv-x="1785" d="M66 938q0 209 100 324q100 118 254 118q161 0 252.5 -114t91.5 -322q0 -211 -94.5 -327.5t-255.5 -116.5q-158 0 -253 116t-95 322zM244 940q0 -139 45.5 -213t124.5 -74q172 0 172 287q0 289 -170 289q-81 0 -126.5 -75t-45.5 -214zM487 -25l691 1422h131l-688 -1422 h-134zM1020 420q0 208 100 323q101 119 254 119q161 0 252.5 -114t91.5 -322q0 -211 -93.5 -327.5t-254.5 -116.5q-160 0 -255 115.5t-95 322.5zM1198 422q0 -139 45.5 -213t124.5 -74q172 0 172 287q0 144 -45 215q-44 74 -123 74q-80 0 -127 -74t-47 -215z" />
<glyph unicode="&#x26;" horiz-adv-x="1501" d="M96 393q0 268 266 391q-71 109 -71 244q0 146 115 252q113 104 319 104q174 0 266 -71v-230h-8q-88 88 -240 88q-96 0 -149 -44.5t-53 -118.5q0 -84 67 -172q121 -155 410 -408q43 62 57 156h-137v207h500v-207h-133q-15 -185 -123 -326l55 -53h195v-205h-299 q-72 57 -109 92q-168 -121 -401 -121q-235 0 -381 119q-146 122 -146 303zM336 414q0 -106 81.5 -170t217.5 -64q141 0 223 70q-239 205 -383 366q-139 -62 -139 -202z" />
<glyph unicode="'" horiz-adv-x="413" d="M98 1450h217l-47 -571h-125z" />
<glyph unicode="(" horiz-adv-x="786" d="M88 578q0 220 65 403t176 312.5t267 222.5h192v-9q-487 -345 -487 -927q0 -530 487 -918v-8h-190q-211 132 -362 364q-148 236 -148 560z" />
<glyph unicode=")" horiz-adv-x="786" d="M-2 -338q487 339 487 928q0 529 -487 917v9h190q215 -134 361 -367q149 -229 149 -557q0 -220 -65 -403t-176 -312.5t-267 -222.5h-192v8z" />
<glyph unicode="*" horiz-adv-x="884" d="M51 1108l51 156q149 -49 275 -105q-18 169 -21 291h166q0 -70 -18 -295q196 82 278 109l49 -160q-35 -12 -290 -74q127 -132 190 -225l-131 -98q-86 121 -162 247q-88 -153 -157 -245l-136 92q71 106 193 231q-196 47 -287 76z" />
<glyph unicode="+" horiz-adv-x="1433" d="M184 526v156h455v453h158v-453h452v-156h-452v-454h-156v454h-457z" />
<glyph unicode="," horiz-adv-x="487" d="M6 -322q82 69 132 178.5t50 229.5q0 113 -32 184h233q25 -55 25 -168q0 -129 -68 -247q-63 -117 -156 -185h-184v8z" />
<glyph unicode="-" horiz-adv-x="659" d="M78 465v192h504v-192h-504z" />
<glyph unicode="." horiz-adv-x="489" d="M121 127q0 43 17 77t44 51t59.5 25.5t65.5 0t60 -25.5t44 -51t17 -77q0 -67 -43.5 -109.5t-110.5 -42.5q-64 0 -108.5 43t-44.5 109z" />
<glyph unicode="/" horiz-adv-x="827" d="M-23 -117l699 1614h162l-699 -1614h-162z" />
<glyph unicode="0" d="M74 678q0 333 149 522q150 191 383 191q245 0 383 -187q141 -188 141 -520q0 -335 -145 -524t-385 -189q-241 0 -385 187q-141 187 -141 520zM317 682q0 -238 76 -367t209 -129q132 0 206.5 127.5t74.5 368.5q0 240 -73.5 367t-207.5 127q-135 0 -210 -128.5t-75 -365.5z " />
<glyph unicode="1" d="M240 975v225l344 193h188v-1192h195v-201h-662v201h223v927z" />
<glyph unicode="2" d="M94 0v141q316 277 484 451q178 187 178 360q0 101 -62 161.5t-170 60.5q-218 0 -387 -193h-8v236q75 79 191 126.5t235 47.5q216 0 334.5 -110.5t118.5 -299.5q0 -231 -193 -442q-59 -65 -174 -168q-92 -83 -199 -166q394 4 478 4l14 192h184l-8 -401h-1016z" />
<glyph unicode="3" d="M147 82v246h9q151 -142 372 -142q267 0 267 205q0 133 -136 174q-106 29 -204 29h-56v207h62q138 0 205 37q90 50 90 166q0 78 -58.5 125t-156.5 47q-96 0 -194.5 -39.5t-164.5 -114.5h-8v227q70 63 179.5 102.5t221.5 39.5q211 0 323 -98.5t112 -272.5q0 -105 -66 -189 t-182 -122q295 -55 295 -320q0 -191 -144 -305q-140 -113 -376 -113q-243 0 -390 111z" />
<glyph unicode="4" d="M74 352v154l661 885h201v-840h211v-199h-211v-149h199v-203h-662v203h227v149h-626zM326 551h374q0 212 7 524q-125 -183 -381 -524z" />
<glyph unicode="5" d="M143 84v233h9q164 -129 378 -129q139 0 212 66t73 188q0 226 -278 226q-181 0 -334 -90h-8l79 784h744l8 -358h-186l-11 149h-372l-39 -336q80 51 231 51q202 0 315 -104t113 -307q0 -236 -153 -359q-150 -123 -389 -123q-235 0 -392 109z" />
<glyph unicode="6" d="M113 627q0 198 52 351.5t142 242.5q179 170 422 170q217 0 324 -82v-246h-11q-108 111 -299 111q-171 0 -272.5 -117t-114.5 -330q52 75 140.5 118.5t195.5 43.5q195 0 309.5 -114.5t114.5 -325.5q0 -222 -135 -351q-136 -127 -342 -127q-201 0 -356 140q-80 73 -125 207 t-45 309zM371 512q0 -100 32 -182q25 -67 86 -108.5t136 -41.5q110 0 178.5 67t68.5 193q0 124 -65 189t-174 65q-94 0 -166 -52.5t-96 -129.5z" />
<glyph unicode="7" d="M113 1004l8 358h948v-158q-303 -676 -504 -1204h-256q215 537 512 1153h-514l-8 -149h-186z" />
<glyph unicode="8" d="M100 365q0 115 68 199.5t192 127.5q-98 41 -153 125t-55 193q0 168 133 274q131 107 323 107q206 0 329.5 -101t123.5 -278q0 -102 -57.5 -181t-157.5 -114q123 -38 189.5 -125t66.5 -211q0 -182 -139 -297q-137 -113 -363 -113q-221 0 -360 103q-140 103 -140 291z M342 393q0 -97 74 -154t188 -57q116 0 187 57.5t71 153.5q0 94 -71 148t-197 65q-112 -12 -182 -70t-70 -143zM381 997q0 -182 233 -209q213 38 213 207q0 87 -59.5 137t-163.5 50q-98 0 -160.5 -52.5t-62.5 -132.5z" />
<glyph unicode="9" d="M90 913q0 213 143 344q146 134 347 134q265 0 391 -187q125 -183 125 -491q0 -195 -48 -343.5t-135 -234.5q-164 -164 -415 -164q-236 0 -361 90v244h8q131 -110 340 -110q339 0 369 432q-49 -73 -135 -113.5t-187 -40.5q-192 0 -317 113t-125 327zM332 915 q0 -115 69.5 -182t176.5 -67q97 0 163.5 52t92.5 140q0 55 -23 139q-25 83 -84 130t-143 47q-109 0 -180.5 -68t-71.5 -191z" />
<glyph unicode=":" horiz-adv-x="530" d="M162 127q0 43 17 77t44 51t60 25.5t65.5 0t59.5 -25.5t44 -51t17 -77q0 -67 -43.5 -109.5t-110.5 -42.5q-64 0 -108.5 43t-44.5 109zM162 868q0 43 17 77t44 51t60 25.5t65.5 0t59.5 -25.5t44 -51t17 -77q0 -67 -43.5 -109t-110.5 -42q-64 0 -108.5 42.5t-44.5 108.5z " />
<glyph unicode=";" horiz-adv-x="530" d="M45 -322q82 70 132 178.5t50 229.5q0 114 -30 184h233q25 -55 25 -168q0 -129 -68 -247q-63 -117 -156 -185h-186v8zM162 868q0 43 17 77t44 51t60 25.5t65.5 0t59.5 -25.5t44 -51t17 -77q0 -67 -43.5 -109t-110.5 -42q-64 0 -108.5 42.5t-44.5 108.5z" />
<glyph unicode="&#x3c;" horiz-adv-x="1433" d="M231 518v164l928 455v-181l-760 -352l760 -346v-184z" />
<glyph unicode="=" horiz-adv-x="1433" d="M184 322v153h1065v-153h-1065zM184 723v158h1065v-158h-1065z" />
<glyph unicode="&#x3e;" horiz-adv-x="1433" d="M274 74v180l762 354l-762 344v185l928 -447v-162z" />
<glyph unicode="?" horiz-adv-x="905" d="M76 1096v221q61 55 164 90t190 35q205 0 313.5 -88.5t108.5 -259.5q0 -110 -56.5 -197.5t-201.5 -187.5q-69 -48 -95 -104t-28 -146h-188q0 114 22 188q21 70 107 137q100 79 142 139t42 126q0 172 -215 172q-160 0 -297 -125h-8zM223 127q0 43 17 77t44 51t59.5 25.5 t65.5 0t60 -25.5t44 -51t17 -77q0 -67 -43.5 -109.5t-109.5 -42.5q-64 0 -109 43t-45 109z" />
<glyph unicode="@" horiz-adv-x="1726" d="M109 446q0 364 247 611q250 250 617 250q299 0 475 -170q178 -169 178 -451q0 -226 -127 -403q-125 -174 -303 -174q-104 0 -141 63q-16 32 -19 72q-114 -138 -286 -138q-131 0 -213 81t-82 225q0 110 47.5 215.5t132.5 183.5q130 121 293 121q75 0 132.5 -32t82.5 -89 l22 104h138l-99 -479q-16 -78 -16 -135q0 -70 57 -70q91 0 168 136q80 139 80 313q0 229 -141 367q-138 141 -381 141q-297 0 -508 -211q-209 -212 -209 -531q0 -267 172 -436q174 -168 457 -168q329 0 565 172h8l-24 -149q-240 -146 -560 -146q-340 0 -553 201 q-210 198 -210 526zM610 430q0 -182 185 -182q71 0 144 46.5t114 125.5l49 239q-12 67 -60 104.5t-116 37.5q-48 0 -104.5 -25t-98.5 -67q-49 -49 -81 -128t-32 -151z" />
<glyph unicode="A" horiz-adv-x="1497" d="M6 0v205h139l486 1206h237l482 -1206h141v-205h-598v205h180l-74 192h-534l-74 -192h195v-205h-580zM535 598h393q-139 365 -193 522q-69 -193 -200 -522z" />
<glyph unicode="B" horiz-adv-x="1382" d="M61 0v205h168v999h-168v207h564q145 0 213 -8q169 -14 267.5 -101.5t98.5 -234.5q0 -123 -50.5 -197.5t-164.5 -126.5q297 -61 297 -335q0 -129 -70 -227.5t-192 -139.5q-118 -41 -373 -41h-590zM481 207h172q158 0 250 29q133 50 133 190q0 134 -133 178q-83 25 -248 25 h-174v-422zM481 829h144q179 0 237 27q101 43 101 172q0 135 -144 162q-71 14 -203 14h-135v-375z" />
<glyph unicode="C" horiz-adv-x="1423" d="M96 707q0 168 62.5 309.5t171.5 234.5q106 92 243.5 141.5t286.5 49.5q130 0 249.5 -34t180.5 -89l8 -367h-202l-17 242q-110 37 -209 37q-219 0 -368 -137q-150 -138 -150 -379q0 -254 146 -391q149 -134 374 -134q244 0 414 144h8v-236q-68 -56 -192 -91.5t-256 -35.5 q-326 0 -539 201q-211 199 -211 535z" />
<glyph unicode="D" horiz-adv-x="1572" d="M61 0v205h168v1001h-168v205h564q257 0 419 -49q433 -132 433 -637q0 -506 -439 -659q-195 -66 -463 -66h-514zM481 209h135q259 0 396 84q211 126 211 426q0 148 -65.5 260t-186.5 166q-126 57 -328 57h-162v-993z" />
<glyph unicode="E" horiz-adv-x="1241" d="M61 0v205h168v1001h-168v205h1049l8 -369h-203l-10 160h-422v-364h488v-213h-488v-418h469l13 182h202l-8 -389h-1098z" />
<glyph unicode="F" horiz-adv-x="1167" d="M61 0v205h168v1001h-168v205h1049l8 -367h-203l-10 158h-422v-405h475v-213h-475v-379h209v-205h-631z" />
<glyph unicode="G" horiz-adv-x="1513" d="M96 707q0 170 62 312.5t170 235.5q224 187 538 187q142 0 268.5 -31t194.5 -84l8 -358h-202l-19 225q-110 35 -231 35q-235 0 -381 -131q-148 -133 -148 -381q0 -253 146 -393q145 -136 370 -136q154 0 250 41v310h-223v211h576v-211h-109v-435q-219 -133 -524 -133 q-327 0 -537 195q-209 197 -209 541z" />
<glyph unicode="H" horiz-adv-x="1619" d="M61 0v205h168v1001h-168v205h596v-205h-174v-368h654v368h-174v205h596v-205h-170v-1001h170v-205h-596v205h174v420h-654v-420h174v-205h-596z" />
<glyph unicode="I" horiz-adv-x="712" d="M61 0v205h168v1001h-168v205h592v-205h-170v-1001h170v-205h-592z" />
<glyph unicode="J" horiz-adv-x="913" d="M41 18v222h8q83 -50 191 -50q132 0 178 82q33 53 33 248v686h-183v205h592v-205h-155v-704q0 -243 -54 -348q-95 -183 -368 -183q-139 0 -242 47z" />
<glyph unicode="K" horiz-adv-x="1482" d="M61 0v205h168v1001h-168v205h590v-205h-168v-458l428 458h-96v205h561v-205h-190l-340 -354l409 -647h195v-205h-377l-409 655l-181 -188v-262h172v-205h-594z" />
<glyph unicode="L" horiz-adv-x="1200" d="M61 0v205h168v1001h-168v205h603v-205h-181v-999h451l14 196h197l-8 -403h-1076z" />
<glyph unicode="M" horiz-adv-x="1865" d="M61 0v205h168v1001h-168v205h478l409 -809l400 809h458v-205h-166v-1001h166v-205h-594v205h179q0 685 8 868q-10 -23 -70 -145l-131 -264q-24 -48 -85.5 -172.5t-94.5 -192.5h-166q-23 47 -61 123.5t-68 137t-55 110.5l-129 254q-50 97 -72 151q8 -213 8 -870h176v-205 h-590z" />
<glyph unicode="N" horiz-adv-x="1607" d="M61 0v205h168v1001h-168v205h443q540 -766 655 -956q-8 227 -8 751h-172v205h588v-205h-168v-1206h-236q-564 838 -690 1044q6 -360 6 -839h174v-205h-592z" />
<glyph unicode="O" horiz-adv-x="1652" d="M96 707q0 313 211 524t524 211q326 0 525 -205q200 -203 200 -530q0 -318 -206 -527t-527 -209q-315 0 -522 207q-205 208 -205 529zM352 705q0 -234 135 -375q140 -140 344 -140q211 0 340 144q132 144 132 371q0 226 -132 370q-130 148 -342 148q-205 0 -342 -146 q-135 -144 -135 -372z" />
<glyph unicode="P" horiz-adv-x="1380" d="M61 0v205h168v1001h-168v205h633q208 0 336 -43q119 -39 186.5 -142t67.5 -253q0 -324 -280 -426q-130 -47 -310 -47h-211v-295h197v-205h-619zM483 709h197q162 0 233 36q115 53 115 222q0 145 -119 200q-84 35 -229 35h-197v-493z" />
<glyph unicode="Q" horiz-adv-x="1652" d="M96 707q0 313 211 524t524 211q326 0 525 -205q200 -203 200 -530q0 -194 -81 -353t-228 -258l289 -215l-150 -190l-391 299q-87 -19 -172 -19q-315 0 -522 207q-205 208 -205 529zM352 705q0 -234 135 -375q140 -140 344 -140q211 0 340 144q132 144 132 371 q0 226 -132 370q-130 148 -342 148q-205 0 -342 -146q-135 -144 -135 -372z" />
<glyph unicode="R" horiz-adv-x="1386" d="M61 0v205h168v1001h-168v205h605q217 0 338 -41q118 -39 183.5 -133.5t65.5 -232.5q0 -292 -278 -400l221 -399h168v-205h-344l-289 557q-23 -2 -110 -2h-138v-350h174v-205h-596zM483 756h154q178 0 252 39q108 49 108 194q0 135 -127 182q-76 29 -231 29h-156v-444z " />
<glyph unicode="S" horiz-adv-x="1220" d="M84 453h192l19 -209q143 -58 297 -58q295 0 295 193q0 75 -59 119.5t-205 81.5l-185 49q-329 89 -329 393q0 182 149 301t408 119q104 0 233 -29q123 -27 174 -72l8 -352h-196l-13 203q-124 39 -235 39q-136 0 -204 -50.5t-68 -133.5q0 -73 44 -119t162 -80l203 -57 q198 -56 282.5 -147t84.5 -241q0 -180 -142 -307q-140 -125 -417 -125q-322 0 -488 138z" />
<glyph unicode="T" horiz-adv-x="1325" d="M53 1022l8 389h1203l8 -389h-201l-12 176h-279v-993h176v-205h-606v205h176v993h-260l-12 -176h-201z" />
<glyph unicode="U" horiz-adv-x="1583" d="M37 1206v205h594v-205h-178v-573q0 -223 49 -311q35 -62 115.5 -98t185.5 -36q210 0 293 127q61 94 61 308v583h-190v205h577v-205h-162v-594q0 -273 -75 -397q-68 -111 -203.5 -177.5t-310.5 -66.5q-181 0 -321 65t-206 183q-67 119 -67 389v598h-162z" />
<glyph unicode="V" horiz-adv-x="1490" d="M6 1206v205h606v-205h-174q255 -666 332 -895q111 309 332 895h-197v205h580v-205h-144l-479 -1206h-233l-475 1206h-148z" />
<glyph unicode="W" horiz-adv-x="2166" d="M20 1206v205h603v-205h-181q167 -603 226 -858q78 309 325 1063h207q273 -829 332 -1063q71 295 227 858h-207v205h592v-205h-141l-358 -1206h-230q-264 817 -334 1071q-73 -267 -333 -1071h-232l-354 1206h-142z" />
<glyph unicode="X" horiz-adv-x="1548" d="M29 0v205h176l403 530l-352 471h-160v205h594v-205h-123q34 -44 135 -186q27 -38 55 -76t29 -39l222 301h-146v205h582v-205h-172l-344 -454l415 -547h175v-205h-609v205h131q-196 250 -284 373l-277 -373h154v-205h-604z" />
<glyph unicode="Y" horiz-adv-x="1398" d="M6 1206v205h598v-205h-153l262 -444q88 155 272 444h-170v205h578v-205h-154l-418 -649v-352h178v-205h-612v205h180v352l-409 649h-152z" />
<glyph unicode="Z" horiz-adv-x="1312" d="M49 0v145l842 1055h-576l-12 -184h-201l9 395h1118v-156l-834 -1044h639l15 197h200l-6 -408h-1194z" />
<glyph unicode="[" horiz-adv-x="663" d="M156 -336v1845h458v-141h-264v-1563h264v-141h-458z" />
<glyph unicode="\" horiz-adv-x="827" d="M-20 1497h163l699 -1614h-164z" />
<glyph unicode="]" horiz-adv-x="634" d="M20 -193h263v1563h-263v141h459v-1847h-459v143z" />
<glyph unicode="^" horiz-adv-x="1462" d="M252 575l389 807h178l389 -807h-180l-301 619l-297 -619h-178z" />
<glyph unicode="_" horiz-adv-x="1073" d="M0 -160h1073v-123h-1073v123z" />
<glyph unicode="`" horiz-adv-x="430" d="M-57 1511v9h284l262 -334v-8h-192z" />
<glyph unicode="a" horiz-adv-x="1163" d="M78 295q0 205 203 276q125 43 319 43q66 0 137 -12v33q0 82 -39 127q-55 61 -184 61q-98 0 -198 -35.5t-164 -103.5h-9v225q76 66 189 102t229 36q198 0 303 -91q105 -92 105 -311v-446h159v-199h-374v129q-36 -73 -122.5 -114.5t-197.5 -41.5q-160 0 -258 90t-98 232z M315 297q0 -60 48.5 -94.5t130.5 -34.5q74 0 144 37t99 92v133q-73 12 -129 12q-123 0 -190 -20q-103 -27 -103 -125z" />
<glyph unicode="b" horiz-adv-x="1314" d="M-6 1286v205h399v-627q49 78 149 130.5t212 52.5q218 0 350 -144q133 -145 133 -389q0 -240 -145 -391q-144 -150 -357 -150q-240 0 -352 160l-6 -133h-219v1286h-164zM393 367q35 -86 117.5 -135.5t187.5 -49.5q138 0 218.5 90.5t80.5 239.5q0 148 -82.5 236t-218.5 88 q-101 0 -186 -54t-117 -141v-274z" />
<glyph unicode="c" horiz-adv-x="1101" d="M76 504q0 240 162 389q165 154 411 154q99 0 192 -25t140 -66v-311h-186l-11 170q-65 19 -131 19q-149 0 -243.5 -87.5t-94.5 -236.5t95 -235.5t245 -86.5q202 0 330 119h8v-231q-139 -103 -368 -103q-237 0 -394 142q-155 143 -155 389z" />
<glyph unicode="d" horiz-adv-x="1357" d="M76 504q0 136 47 243.5t123.5 171t165.5 96t182 32.5q223 0 328 -132v371h-168v205h403v-1290h160v-201h-387v150q-103 -177 -346 -177q-209 0 -359 138q-149 137 -149 393zM317 508q0 -155 87 -237.5t223 -82.5q224 0 295 189v282q-34 88 -110.5 134.5t-172.5 46.5 q-143 0 -232.5 -84.5t-89.5 -247.5z" />
<glyph unicode="e" horiz-adv-x="1153" d="M76 504q0 249 155 395q157 148 377 148q225 0 343.5 -125.5t123.5 -356.5q0 -91 -6 -131h-752q14 -109 108 -177.5t243 -68.5q223 0 366 125h8v-223q-62 -50 -180 -86q-118 -31 -225 -31q-255 0 -410 146q-151 145 -151 385zM319 621h529v10q0 106 -68 161.5t-182 55.5 q-105 0 -182.5 -57t-96.5 -170z" />
<glyph unicode="f" horiz-adv-x="729" d="M51 813v205h170v96q0 197 103 297q108 105 309 105q120 0 184 -46v-202h-8q-70 43 -152 43q-101 0 -155 -54q-45 -45 -45 -155v-84h254v-205h-254v-612h213v-201h-611v201h162v612h-170z" />
<glyph unicode="g" horiz-adv-x="1347" d="M76 506q0 138 47 247.5t127 172.5q156 121 338 121q110 0 196.5 -41t118.5 -107v119h385v-205h-160v-684q0 -219 -75 -340q-126 -211 -475 -211q-255 0 -398 113v241h8q151 -139 387 -139q186 0 263 92q61 70 61 236v59q-40 -75 -125.5 -121.5t-200.5 -46.5 q-209 0 -354 127q-143 125 -143 367zM317 512q0 -140 89 -217q88 -76 215 -76q93 0 165 44t107 122v289q-70 168 -270 168q-134 0 -220 -86t-86 -244z" />
<glyph unicode="h" horiz-adv-x="1323" d="M47 0v201h164v1085h-164v205h399v-621q45 80 132.5 126t201.5 46q272 0 324 -217q20 -70 20 -223v-401h158v-201h-547v201h154v360q0 131 -21 172q-47 92 -166 92q-80 0 -149.5 -41t-106.5 -110v-473h150v-201h-549z" />
<glyph unicode="i" horiz-adv-x="647" d="M55 0v201h164v612h-164v205h400v-817h155v-201h-555zM176 1337q0 66 41.5 105t99.5 39q60 0 101 -39t41 -105q0 -65 -40 -104t-102 -39q-61 0 -101 39t-40 104z" />
<glyph unicode="j" horiz-adv-x="591" d="M-117 -176h8q58 -43 144 -43q82 0 112 37q37 40 37 188v807h-164v205h402v-1020q0 -237 -68 -320q-88 -108 -282 -108q-112 0 -189 41v213zM143 1337q0 66 42 105t102 39q58 0 98.5 -39t40.5 -105q0 -65 -39.5 -104t-101.5 -39q-61 0 -101.5 39t-40.5 104z" />
<glyph unicode="k" horiz-adv-x="1228" d="M47 0v201h164v1085h-164v205h399v-916l259 250v193h450v-205h-197l-206 -190l292 -422h166v-201h-317l-307 461l-140 -127v-133h150v-201h-549z" />
<glyph unicode="l" horiz-adv-x="641" d="M49 0v201h162v1085h-162v205h400v-1290h155v-201h-555z" />
<glyph unicode="m" horiz-adv-x="1959" d="M57 0v201h164v612h-164v205h394v-156q45 81 135 130.5t198 49.5q236 0 297 -180q46 82 137.5 131t215.5 49q263 0 315 -217q20 -70 20 -223v-401h154v-201h-543v201h152v358q0 122 -16 172q-35 90 -158 90q-169 0 -246 -145q2 -16 2 -90v-385h152v-201h-535v201h148v358 q0 117 -19 172q-35 90 -153 90q-167 0 -250 -147v-473h151v-201h-551z" />
<glyph unicode="n" horiz-adv-x="1331" d="M57 0v201h164v612h-164v205h394v-158q45 86 133 134t204 48q274 0 326 -217q21 -73 21 -223v-401h157v-201h-549v201h154v356q0 135 -20 174q-47 90 -166 90q-80 0 -148.5 -40t-105.5 -109v-471h157v-201h-557z" />
<glyph unicode="o" horiz-adv-x="1247" d="M76 510q0 232 157 383q160 154 396 154q241 0 391 -150q151 -151 151 -387q0 -233 -155 -385t-393 -152q-239 0 -394 152q-153 150 -153 385zM317 510q0 -146 87.5 -235t222.5 -89q136 0 220.5 91t84.5 233t-85 234t-220 92q-134 0 -224 -93q-86 -89 -86 -233z" />
<glyph unicode="p" horiz-adv-x="1335" d="M31 -197h147v1010h-147v205h379v-166q40 78 143 137q101 58 221 58q208 0 346 -138q140 -140 140 -387q0 -259 -152 -399q-150 -135 -356 -135q-105 0 -198.5 39.5t-139.5 107.5v-332h176v-200h-559v200zM414 379q42 -92 124.5 -137t180.5 -45q124 0 213 77q88 76 88 246 q0 161 -92 238q-90 78 -209 78q-97 0 -183 -50t-122 -143v-264z" />
<glyph unicode="q" horiz-adv-x="1374" d="M76 506q0 109 32 201.5t84 154t119.5 105t138.5 63t142 19.5q228 0 334 -152v121h381v-205h-156v-1010h156v-200h-566v200h174v367q-38 -82 -130.5 -132t-204.5 -50q-211 0 -357 131q-147 132 -147 387zM317 508q0 -153 82.5 -231t216.5 -78q98 0 178.5 49.5t114.5 142.5 v268q-64 181 -280 181q-125 0 -219 -82q-93 -81 -93 -250z" />
<glyph unicode="r" horiz-adv-x="899" d="M57 0v201h164v612h-164v205h396v-158q25 79 93 131.5t167 52.5q84 0 133 -32v-240h-8q-58 37 -146 37q-182 0 -235 -150v-458h202v-201h-602z" />
<glyph unicode="s" horiz-adv-x="1030" d="M90 371h184l17 -160q104 -37 221 -37q195 0 195 94q0 52 -35.5 79.5t-132.5 47.5l-168 37q-260 58 -260 297q0 144 117.5 231t324.5 87q81 0 192 -27q116 -28 152 -59v-279h-182l-10 137q-89 27 -168 27q-187 0 -187 -105q0 -79 133 -106l181 -39q159 -34 222.5 -105.5 t63.5 -199.5q0 -142 -114.5 -230t-327.5 -88q-112 0 -232 27q-112 25 -176 76z" />
<glyph unicode="t" horiz-adv-x="755" d="M25 813v205h155q0 48 8 291h226v-291h272v-205h-272v-446q0 -95 28 -134q33 -45 129 -45q104 0 154 35h8v-200q-70 -46 -239 -46q-182 0 -252 99q-64 88 -64 250v487h-153z" />
<glyph unicode="u" horiz-adv-x="1304" d="M20 813v205h392v-541q0 -133 24 -188q40 -94 174 -94q167 0 262 133v485h-174v205h410v-817h160v-201h-389v139q-94 -166 -334 -166q-286 0 -344 217q-25 92 -25 244v379h-156z" />
<glyph unicode="v" horiz-adv-x="1191" d="M8 813v205h520v-205h-127q159 -395 209 -534q72 190 215 534h-129v205h488v-205h-133l-361 -813h-201l-354 813h-127z" />
<glyph unicode="w" horiz-adv-x="1701" d="M8 813v205h512v-205h-135q65 -216 143 -500q44 139 242 705h191q174 -488 243 -707q36 142 144 502h-144v205h490v-205h-127l-264 -813h-199q-207 588 -252 731q-51 -173 -252 -731h-201l-264 813h-127z" />
<glyph unicode="x" horiz-adv-x="1198" d="M27 0v201h161l240 317l-211 295h-164v205h320l243 -373q54 78 129 182h-98v191h490v-205h-176l-207 -276l245 -336h175v-201h-330l-281 406l-153 -211h114v-195h-497z" />
<glyph unicode="y" horiz-adv-x="1193" d="M10 813v205h512v-205h-119q140 -345 218 -567q71 209 213 567h-142v205h494v-205h-127l-346 -854q-67 -168 -121 -250q-98 -149 -303 -149q-116 0 -187 41v209h9q53 -41 155 -41q99 0 144 57q43 56 63 133l12 47l-348 807h-127z" />
<glyph unicode="z" horiz-adv-x="1052" d="M66 0v139l589 674h-352l-8 -149h-195l2 354h867v-152q-398 -465 -588 -661h412l8 155h194l-4 -360h-925z" />
<glyph unicode="{" horiz-adv-x="753" d="M41 514v139q125 15 166 74q43 58 43 219v228q0 198 92 272t272 74h97v-138h-78q-97 0 -144 -47.5t-47 -171.5v-219q0 -136 -26 -207q-24 -73 -60 -98q-39 -27 -112 -53q102 -20 151 -101q47 -77 47 -264v-217q0 -119 46.5 -167t142.5 -48h80v-137h-95q-189 0 -278 74 q-88 70 -88 274v219q0 166 -47 225q-46 58 -162 70z" />
<glyph unicode="|" horiz-adv-x="501" d="M156 -377v1944h190v-1944h-190z" />
<glyph unicode="}" horiz-adv-x="716" d="M20 -213h64q97 0 143.5 47.5t46.5 171.5v223q0 106 12 169.5t42 99.5q29 35 54.5 50t90.5 40q-103 21 -151 100t-48 264v222q0 122 -47 169.5t-143 47.5h-64v137h80q191 0 277 -74q88 -70 88 -276v-224q0 -167 43 -225q46 -58 162 -70v-139q-123 -15 -164 -74t-41 -219 v-231q0 -192 -87.5 -269t-277.5 -77h-80v137z" />
<glyph unicode="~" horiz-adv-x="1433" d="M166 547q159 221 334 221q87 0 241 -86q120 -66 193 -66q63 0 112.5 35t106.5 121l115 -88q-77 -120 -154.5 -175.5t-179.5 -55.5q-110 0 -238 73q-139 80 -200 80q-107 0 -220 -155z" />
<glyph unicode="&#xa1;" horiz-adv-x="610" d="M117 903q0 67 43.5 109.5t109.5 42.5q67 0 110.5 -42t43.5 -110q0 -43 -17 -77t-44 -51t-60 -25.5t-65.5 0t-59.5 25.5t-44 51t-17 77zM135 -381q0 157 43 946h187q43 -747 43 -946h-273z" />
<glyph unicode="&#xa2;" horiz-adv-x="1110" d="M133 502q0 205 123 346q128 144 324 170v211h112v-205q88 -3 180 -31q91 -24 132 -65l6 -293h-172l-9 162q-72 23 -137 26v-630q192 3 307 112h9v-215q-117 -91 -316 -100v-215h-112v217q-192 21 -320 158q-127 139 -127 352zM365 508q0 -117 57.5 -196.5t157.5 -106.5 v606q-99 -27 -157 -105.5t-58 -197.5z" />
<glyph unicode="&#xa3;" horiz-adv-x="1257" d="M125 0v156q144 73 204 143t60 154q0 55 -22 110h-207v158h157q-55 162 -55 264q0 185 132.5 295.5t363.5 110.5q232 0 352 -97v-241h-8q-131 125 -322 125q-260 0 -260 -215q0 -81 53 -242h392v-158h-353q15 -77 15 -112q0 -141 -162 -242h549l10 153h180l-6 -362h-1073z " />
<glyph unicode="&#xa4;" horiz-adv-x="1255" d="M133 1040l119 117l133 -137q103 74 244 74q137 0 241 -72l131 135l115 -115l-133 -139q80 -100 80 -246q0 -142 -78 -249l135 -142l-121 -114l-129 139q-109 -74 -252 -74q-141 0 -235 64l-135 -131l-113 116l135 137q-82 101 -82 250q0 141 80 250zM362 659 q0 -126 73.5 -201t193.5 -75q113 0 186.5 75.5t73.5 196.5t-73.5 198t-186.5 77q-117 0 -192 -76t-75 -195z" />
<glyph unicode="&#xa5;" horiz-adv-x="1361" d="M23 1161v201h573v-201h-143q172 -290 235 -411l250 411h-154v201h555v-201h-151l-227 -356h204v-119h-276l-90 -139v-19h366v-118h-366v-209h188v-201h-618v201h186v209h-362v118h362v19l-88 139h-274v119h202l-225 356h-147z" />
<glyph unicode="&#xa6;" horiz-adv-x="501" d="M156 -193v674h190v-674h-190zM156 791v673h190v-673h-190z" />
<glyph unicode="&#xa7;" horiz-adv-x="1060" d="M90 96h8q174 -157 396 -157q190 0 190 122q0 40 -22.5 70t-83.5 64q-22 12 -156 81q-118 62 -180 101q-152 96 -152 248q0 92 55 160t158 100q-143 104 -143 262q0 133 102 227q104 96 307 96q226 0 346 -108v-223h-8q-145 139 -334 139q-174 0 -174 -121q0 -81 111 -139 l108 -53q157 -77 240 -136q123 -89 123 -237q0 -86 -54.5 -158t-146.5 -102q152 -100 152 -248q0 -163 -118.5 -253.5t-326.5 -90.5q-245 0 -397 125v231zM311 668q0 -72 92 -131q180 -100 238 -121q48 13 83.5 51t35.5 86q0 66 -71 117t-253 129q-44 -2 -84.5 -42 t-40.5 -89z" />
<glyph unicode="&#xa8;" horiz-adv-x="430" d="M-92 1346q0 48 25.5 81.5t62 41t73 0t62 -41t25.5 -81.5q0 -55 -34.5 -90t-88.5 -35q-52 0 -88.5 35.5t-36.5 89.5zM274 1346q0 48 25.5 81.5t62 41t73 0t62 -41t25.5 -81.5q0 -55 -35.5 -90t-89.5 -35q-52 0 -87.5 35t-35.5 90z" />
<glyph unicode="&#xa9;" horiz-adv-x="1695" d="M104 707q0 311 213 524t529 213q326 0 534 -211q211 -208 211 -526q0 -312 -213 -525q-211 -211 -530 -211q-322 0 -533 211t-211 525zM190 707q0 -281 187 -471q189 -189 471 -189t471 189q188 188 188 471t-188 471q-187 190 -473 190q-282 0 -469 -190t-187 -471z M412 709q0 201 133 331q131 131 334 131q88 0 167 -24t115 -64v-247h-141l-10 155q-59 21 -125 21q-120 0 -209 -80q-86 -80 -86 -219t84.5 -220t212.5 -81q170 0 270 100h8v-168q-119 -90 -301 -90q-190 0 -321 125t-131 330z" />
<glyph unicode="&#xaa;" horiz-adv-x="763" d="M68 780q0 137 125 183q77 26 206 26q47 0 82 -6v12q0 56 -18 80q-27 37 -107 37q-144 0 -227 -74h-8v154q104 76 266 76q122 0 191 -54q67 -52 67 -192v-281h90v-141h-243v72q-65 -92 -193 -92q-104 0 -167.5 54.5t-63.5 145.5zM238 782q0 -75 96 -75q91 0 147 71v84 q-49 6 -75 6q-83 0 -132 -22q-36 -14 -36 -64z" />
<glyph unicode="&#xab;" horiz-adv-x="989" d="M45 516l283 377h211l-279 -377l281 -377h-211zM436 516l283 377h211l-279 -377l281 -377h-211z" />
<glyph unicode="&#xac;" horiz-adv-x="1433" d="M168 526v156h1065v-610h-156v454h-909z" />
<glyph unicode="&#xad;" horiz-adv-x="659" d="M78 465v192h504v-192h-504z" />
<glyph unicode="&#xae;" horiz-adv-x="1695" d="M104 707q0 311 213 524t529 213q326 0 534 -211q211 -208 211 -526q0 -312 -213 -525q-211 -211 -530 -211q-322 0 -533 211t-211 525zM190 707q0 -281 187 -471q189 -189 471 -189t471 189q188 188 188 471t-188 471q-187 190 -473 190q-282 0 -469 -190t-187 -471z M461 270v133h106v613h-106v133h405q144 0 211 -27q142 -56 142 -235q0 -174 -172 -238l139 -246h110v-133h-219l-188 348q-23 -2 -166 -2v-213h100v-133h-362zM723 748h94q124 0 168 20q70 27 70 115q0 97 -78 118q-30 9 -141 9h-113v-262z" />
<glyph unicode="&#xaf;" horiz-adv-x="430" d="M-92 1208v164h612v-164h-612z" />
<glyph unicode="&#xb0;" horiz-adv-x="636" d="M39 1176q0 124 80 203t203 79q122 0 198 -78t76 -202q0 -119 -82 -201q-79 -82 -199 -82q-118 0 -198 80q-78 81 -78 201zM147 1176q0 -78 45.5 -129.5t124.5 -51.5q77 0 123.5 52.5t46.5 132.5q0 78 -48.5 127t-123.5 49q-77 0 -122.5 -50t-45.5 -130z" />
<glyph unicode="&#xb1;" horiz-adv-x="1433" d="M184 0v154h1065v-154h-1065zM184 731v156h455v436h158v-436h452v-156h-452v-440h-156v440h-457z" />
<glyph unicode="&#xb2;" horiz-adv-x="829" d="M66 819v96q174 135 313 271q110 110 110 209q0 63 -38 98t-107 35q-137 0 -248 -117h-8v162q114 108 285 108q144 0 221.5 -69.5t77.5 -190.5q0 -140 -129 -272q-105 -109 -221 -188q61 2 292 2l11 116h131l-6 -260h-684z" />
<glyph unicode="&#xb3;" horiz-adv-x="829" d="M113 868v172h8q103 -86 241 -86q170 0 170 115q0 70 -81 94q-59 17 -142 17h-33v141h43q95 0 134 20q53 27 53 93q0 43 -35.5 68.5t-97.5 25.5q-141 0 -236 -92h-8v157q107 88 268 88q297 0 297 -229q0 -66 -46 -116.5t-126 -75.5q203 -35 203 -199q0 -123 -93 -191.5 t-263 -68.5q-155 0 -256 67z" />
<glyph unicode="&#xb4;" horiz-adv-x="430" d="M-57 1178v8l260 334h272v-9l-340 -333h-192z" />
<glyph unicode="&#xb5;" horiz-adv-x="1224" d="M147 -432v1448h236v-547q0 -127 25 -182q41 -90 172 -90q180 0 262 137v682h235v-1016h-227v141q-82 -155 -279 -155q-135 0 -186 69v-487h-238z" />
<glyph unicode="&#xb6;" horiz-adv-x="1153" d="M88 918q0 493 604 493h316v-1706h-97v1616h-223v-1616h-96v750q-234 0 -369 129q-135 132 -135 334z" />
<glyph unicode="&#xb7;" horiz-adv-x="489" d="M94 528q0 72 44.5 114t107.5 42q64 0 108.5 -42t44.5 -114q0 -68 -42.5 -110.5t-110.5 -42.5q-64 0 -108 42.5t-44 110.5z" />
<glyph unicode="&#xb8;" horiz-adv-x="430" d="M2 -354h8q58 -37 129 -37q113 0 113 80t-111 80q-48 0 -78 -15l-6 4l76 262h129l-45 -139h8q92 0 145.5 -48.5t53.5 -135.5q0 -106 -71 -163.5t-201 -57.5q-92 0 -150 37v133z" />
<glyph unicode="&#xb9;" horiz-adv-x="829" d="M172 1389v159l227 123h138v-708h145v-144h-492v144h168v524z" />
<glyph unicode="&#xba;" horiz-adv-x="811" d="M53 928q0 158 109 250t244 92q142 0 245 -86t103 -252q0 -170 -107 -258q-107 -90 -248 -90q-139 0 -243 88q-103 89 -103 256zM225 928q0 -90 51 -140.5t127 -50.5q77 0 129 51.5t52 141.5q0 91 -50.5 139.5t-132.5 48.5q-75 0 -125.5 -51t-50.5 -139z" />
<glyph unicode="&#xbb;" horiz-adv-x="989" d="M57 893h211l285 -377l-283 -377h-211l279 377zM449 893h210l285 -377l-282 -377h-211l278 377z" />
<glyph unicode="&#xbc;" horiz-adv-x="1785" d="M164 1087v160l227 123h137v-708h146v-144h-492v144h168v524zM496 -25l690 1422h131l-688 -1422h-133zM940 211v111l428 536h145v-502h138v-145h-138v-211h-170v211h-403zM1120 356h223q0 63 5 293q-62 -91 -228 -293z" />
<glyph unicode="&#xbd;" horiz-adv-x="1785" d="M133 1087v160l227 123h138v-708h145v-144h-491v144h167v524zM469 -25l690 1422h131l-688 -1422h-133zM1038 0v96q179 139 314 271q110 110 110 208q0 63 -38 98.5t-107 35.5q-137 0 -248 -117h-8v162q114 108 285 108q144 0 221.5 -69.5t77.5 -190.5q0 -140 -129 -272 q-106 -110 -222 -189q61 2 293 2l10 117h132l-7 -260h-684z" />
<glyph unicode="&#xbe;" horiz-adv-x="1785" d="M125 567v172h8q103 -86 242 -86q170 0 170 115q0 70 -82 94q-60 17 -141 17h-33v141h43q94 0 133 20q53 27 53 93q0 43 -35.5 68.5t-97.5 25.5q-140 0 -235 -92h-9v157q107 88 269 88q297 0 297 -229q0 -66 -46 -117t-126 -76q202 -34 202 -198q0 -123 -93 -191.5 t-263 -68.5q-155 0 -256 67zM508 -25l690 1422h131l-688 -1422h-133zM950 211v111l428 536h146v-502h137v-145h-137v-211h-170v211h-404zM1130 356h224q0 109 4 293q-62 -91 -228 -293z" />
<glyph unicode="&#xbf;" horiz-adv-x="884" d="M31 -63q0 110 56.5 197.5t201.5 187.5q70 48 95.5 103.5t27.5 145.5h188q0 -116 -22 -190q-21 -69 -105 -135q-101 -79 -143.5 -138.5t-42.5 -125.5q0 -172 215 -172q161 0 297 124h8v-221q-61 -55 -164 -90t-188 -35q-205 0 -314.5 89t-109.5 260zM354 903 q0 67 43 109.5t109 42.5q67 0 110 -42t43 -110q2 -59 -29.5 -100t-77.5 -50.5t-92 0t-77 50.5t-29 100z" />
<glyph unicode="&#xc0;" horiz-adv-x="1497" d="M6 0v205h139l486 1206h237l482 -1206h141v-205h-598v205h180l-74 192h-534l-74 -192h195v-205h-580zM354 1804v8h312l305 -268v-8h-219zM535 598h393q-139 365 -193 522q-69 -193 -200 -522z" />
<glyph unicode="&#xc1;" horiz-adv-x="1497" d="M6 0v205h139l486 1206h237l482 -1206h141v-205h-598v205h180l-74 192h-534l-74 -192h195v-205h-580zM535 598h393q-139 365 -193 522q-69 -193 -200 -522zM559 1536v8l305 268h312v-8l-396 -268h-221z" />
<glyph unicode="&#xc2;" horiz-adv-x="1497" d="M6 0v205h139l486 1206h237l482 -1206h141v-205h-598v205h180l-74 192h-534l-74 -192h195v-205h-580zM367 1536v8l303 271h145l299 -271v-8h-207l-170 119l-159 -119h-211zM535 598h393q-139 365 -193 522q-69 -193 -200 -522z" />
<glyph unicode="&#xc3;" horiz-adv-x="1497" d="M6 0v205h139l486 1206h237l482 -1206h141v-205h-598v205h180l-74 192h-534l-74 -192h195v-205h-580zM381 1536q7 134 66 204t155 70q63 0 162 -57q70 -43 119 -43q32 0 48 22.5t23 82.5h150q-7 -133 -64.5 -206t-146.5 -73q-74 0 -168 49q-96 51 -125 51q-59 0 -68 -100 h-151zM535 598h393q-139 365 -193 522q-69 -193 -200 -522z" />
<glyph unicode="&#xc4;" horiz-adv-x="1497" d="M6 0v205h139l486 1206h237l482 -1206h141v-205h-598v205h180l-74 192h-534l-74 -192h195v-205h-580zM428 1663q0 36 13.5 64t35.5 42.5t48.5 21.5t53 0t48.5 -21.5t35.5 -42.5t13.5 -64q0 -55 -34.5 -89t-88.5 -34q-55 0 -90 34t-35 89zM535 598h393q-139 365 -193 522 q-69 -193 -200 -522zM811 1663q0 42 18.5 72.5t46 44t59.5 13.5t59.5 -13.5t46 -44t18.5 -72.5q0 -55 -34.5 -89t-90.5 -34q-52 0 -87.5 34.5t-35.5 88.5z" />
<glyph unicode="&#xc5;" horiz-adv-x="1497" d="M6 0v205h139l486 1206h237l482 -1206h141v-205h-598v205h180l-74 192h-534l-74 -192h195v-205h-580zM530 1673q0 87 61 144t152 57q90 0 147.5 -56.5t57.5 -144.5q0 -85 -60.5 -142.5t-148.5 -57.5t-148.5 57t-60.5 143zM535 598h393q-139 365 -193 522 q-69 -193 -200 -522zM625 1673q0 -51 31 -82.5t87 -31.5q50 0 80.5 33t30.5 83q0 51 -32 83t-83 32q-53 0 -83.5 -32.5t-30.5 -84.5z" />
<glyph unicode="&#xc6;" horiz-adv-x="2058" d="M2 0v205h137l660 1001h-205v205h1331l12 -369h-202l-13 164h-432v-372h500v-211h-500v-416h477l15 180h205l-13 -387h-1106v205h170v205h-483l-139 -205h176v-205h-590zM662 608h376v586q-99 -167 -376 -586z" />
<glyph unicode="&#xc7;" horiz-adv-x="1423" d="M96 707q0 168 62.5 309.5t171.5 234.5q106 92 243.5 141.5t286.5 49.5q130 0 249.5 -34t180.5 -89l8 -367h-202l-17 242q-110 37 -209 37q-219 0 -368 -137q-150 -138 -150 -379q0 -254 146 -391q149 -134 374 -134q244 0 414 144h8v-236q-68 -56 -189.5 -91.5 t-244.5 -35.5q-35 0 -45 2l-31 -96h9q94 0 148 -52.5t54 -143.5q0 -104 -72.5 -162t-203.5 -58q-94 0 -152 37v137h8q61 -38 140 -38q106 0 106 84q0 37 -29.5 59t-82.5 22q-48 0 -80 -16l-6 4l67 236q-268 47 -430 235q-164 194 -164 486z" />
<glyph unicode="&#xc8;" horiz-adv-x="1241" d="M61 0v205h168v1001h-168v205h1049l8 -369h-203l-10 160h-422v-364h488v-213h-488v-418h469l13 182h202l-8 -389h-1098zM201 1804v8h311l305 -268v-8h-219z" />
<glyph unicode="&#xc9;" horiz-adv-x="1241" d="M61 0v205h168v1001h-168v205h1049l8 -369h-203l-10 160h-422v-364h488v-213h-488v-418h469l13 182h202l-8 -389h-1098zM434 1536v8l305 268h312v-8l-396 -268h-221z" />
<glyph unicode="&#xca;" horiz-adv-x="1241" d="M61 0v205h168v1001h-168v205h1049l8 -369h-203l-10 160h-422v-364h488v-213h-488v-418h469l13 182h202l-8 -389h-1098zM256 1536v8l303 271h146l299 -271v-8h-207l-170 119l-160 -119h-211z" />
<glyph unicode="&#xcb;" horiz-adv-x="1241" d="M61 0v205h168v1001h-168v205h1049l8 -369h-203l-10 160h-422v-364h488v-213h-488v-418h469l13 182h202l-8 -389h-1098zM322 1663q0 36 13.5 64t35.5 42.5t48.5 21.5t52.5 0t48 -21.5t35.5 -42.5t13.5 -64q0 -55 -34.5 -89t-88.5 -34t-89 34t-35 89zM705 1663 q0 42 18.5 72.5t45.5 44t59.5 13.5t59.5 -13.5t45.5 -44t18.5 -72.5q0 -55 -34.5 -89t-90.5 -34q-52 0 -87 34t-35 89z" />
<glyph unicode="&#xcc;" horiz-adv-x="712" d="M-39 1804v8h311l306 -268v-8h-220zM61 0v205h168v1001h-168v205h592v-205h-170v-1001h170v-205h-592z" />
<glyph unicode="&#xcd;" horiz-adv-x="712" d="M61 0v205h168v1001h-168v205h592v-205h-170v-1001h170v-205h-592zM147 1536v8l306 268h311v-8l-395 -268h-222z" />
<glyph unicode="&#xce;" horiz-adv-x="712" d="M-18 1536v8l303 271h145l299 -271v-8h-207l-170 119l-159 -119h-211zM61 0v205h168v1001h-168v205h592v-205h-170v-1001h170v-205h-592z" />
<glyph unicode="&#xcf;" horiz-adv-x="712" d="M41 1663q0 42 18.5 72.5t46 44t59.5 13.5t59.5 -13.5t46 -44t18.5 -72.5q0 -55 -34.5 -89t-88.5 -34q-55 0 -90 34t-35 89zM61 0v205h168v1001h-168v205h592v-205h-170v-1001h170v-205h-592zM424 1663q0 36 13.5 64t35.5 42.5t48.5 21.5t53 0t48.5 -21.5t35.5 -42.5 t13.5 -64q0 -55 -34.5 -89t-90.5 -34q-52 0 -87.5 34.5t-35.5 88.5z" />
<glyph unicode="&#xd0;" horiz-adv-x="1572" d="M61 0v205h168v432h-166v188h166v381h-168v205h564q257 0 419 -49q433 -132 433 -637q0 -506 -439 -659q-195 -66 -463 -66h-514zM481 209h135q259 0 396 84q211 126 211 426q0 148 -65.5 260t-186.5 166q-126 57 -328 57h-162v-377h357v-188h-357v-428z" />
<glyph unicode="&#xd1;" horiz-adv-x="1607" d="M61 0v205h168v1001h-168v205h443q540 -766 655 -956q-8 227 -8 751h-172v205h588v-205h-168v-1206h-236q-564 838 -690 1044q6 -360 6 -839h174v-205h-592zM465 1536q7 134 66 204t155 70q63 0 162 -57q70 -43 119 -43q32 0 48 22.5t23 82.5h150q-7 -133 -64.5 -206 t-146.5 -73q-74 0 -168 49q-96 51 -125 51q-59 0 -68 -100h-151z" />
<glyph unicode="&#xd2;" horiz-adv-x="1652" d="M96 707q0 313 211 524t524 211q326 0 525 -205q200 -203 200 -530q0 -318 -206 -527t-527 -209q-315 0 -522 207q-205 208 -205 529zM352 705q0 -234 135 -375q140 -140 344 -140q211 0 340 144q132 144 132 371q0 226 -132 370q-130 148 -342 148q-205 0 -342 -146 q-135 -144 -135 -372zM461 1804v8h311l305 -268v-8h-219z" />
<glyph unicode="&#xd3;" horiz-adv-x="1652" d="M96 707q0 313 211 524t524 211q326 0 525 -205q200 -203 200 -530q0 -318 -206 -527t-527 -209q-315 0 -522 207q-205 208 -205 529zM352 705q0 -234 135 -375q140 -140 344 -140q211 0 340 144q132 144 132 371q0 226 -132 370q-130 148 -342 148q-205 0 -342 -146 q-135 -144 -135 -372zM643 1536v8l305 268h312v-8l-396 -268h-221z" />
<glyph unicode="&#xd4;" horiz-adv-x="1652" d="M96 707q0 313 211 524t524 211q326 0 525 -205q200 -203 200 -530q0 -318 -206 -527t-527 -209q-315 0 -522 207q-205 208 -205 529zM352 705q0 -234 135 -375q140 -140 344 -140q211 0 340 144q132 144 132 371q0 226 -132 370q-130 148 -342 148q-205 0 -342 -146 q-135 -144 -135 -372zM471 1536v8l303 271h146l299 -271v-8h-207l-170 119l-160 -119h-211z" />
<glyph unicode="&#xd5;" horiz-adv-x="1652" d="M96 707q0 313 211 524t524 211q326 0 525 -205q200 -203 200 -530q0 -318 -206 -527t-527 -209q-315 0 -522 207q-205 208 -205 529zM352 705q0 -234 135 -375q140 -140 344 -140q211 0 340 144q132 144 132 371q0 226 -132 370q-130 148 -342 148q-205 0 -342 -146 q-135 -144 -135 -372zM477 1536q7 134 66 204t155 70q63 0 162 -57q70 -43 119 -43q33 0 49 23t23 82h149q-7 -133 -64.5 -206t-146.5 -73q-74 0 -168 49q-96 51 -125 51q-58 0 -67 -100h-152z" />
<glyph unicode="&#xd6;" horiz-adv-x="1652" d="M96 707q0 313 211 524t524 211q326 0 525 -205q200 -203 200 -530q0 -318 -206 -527t-527 -209q-315 0 -522 207q-205 208 -205 529zM352 705q0 -234 135 -375q140 -140 344 -140q211 0 340 144q132 144 132 371q0 226 -132 370q-130 148 -342 148q-205 0 -342 -146 q-135 -144 -135 -372zM522 1663q0 42 18.5 72.5t46 44t59.5 13.5t59.5 -13.5t46 -44t18.5 -72.5q0 -55 -34.5 -89t-88.5 -34q-55 0 -90 34t-35 89zM905 1663q0 36 13.5 64t35.5 42.5t48.5 21.5t53 0t48.5 -21.5t35.5 -42.5t13.5 -64q0 -55 -34.5 -89t-90.5 -34 q-52 0 -87.5 34.5t-35.5 88.5z" />
<glyph unicode="&#xd7;" horiz-adv-x="1484" d="M270 979l117 121l356 -361l359 359l110 -115l-358 -356l354 -353l-112 -118l-357 352l-356 -356l-109 114l357 357z" />
<glyph unicode="&#xd8;" horiz-adv-x="1652" d="M96 707q0 313 211 524t524 211q184 0 338 -74l93 143h170l-142 -217q266 -205 266 -587q0 -318 -206 -527t-527 -209q-191 0 -340 76l-86 -133h-164l134 207q-129 101 -200 253t-71 333zM352 705q0 -239 144 -383l548 854q-92 51 -215 51q-206 0 -342 -148 q-135 -147 -135 -374zM608 240q105 -54 223 -54q209 0 340 146q132 147 132 373q0 240 -144 387z" />
<glyph unicode="&#xd9;" horiz-adv-x="1583" d="M37 1206v205h594v-205h-178v-573q0 -223 49 -311q35 -62 115.5 -98t185.5 -36q210 0 293 127q61 94 61 308v583h-190v205h577v-205h-162v-594q0 -273 -75 -397q-68 -111 -203.5 -177.5t-310.5 -66.5q-181 0 -321 65t-206 183q-67 119 -67 389v598h-162zM397 1804v8h312 l305 -268v-8h-219z" />
<glyph unicode="&#xda;" horiz-adv-x="1583" d="M37 1206v205h594v-205h-178v-573q0 -223 49 -311q35 -62 115.5 -98t185.5 -36q210 0 293 127q61 94 61 308v583h-190v205h577v-205h-162v-594q0 -273 -75 -397q-68 -111 -203.5 -177.5t-310.5 -66.5q-181 0 -321 65t-206 183q-67 119 -67 389v598h-162zM594 1536v8 l305 268h311v-8l-395 -268h-221z" />
<glyph unicode="&#xdb;" horiz-adv-x="1583" d="M37 1206v205h594v-205h-178v-573q0 -223 49 -311q35 -62 115.5 -98t185.5 -36q210 0 293 127q61 94 61 308v583h-190v205h577v-205h-162v-594q0 -273 -75 -397q-68 -111 -203.5 -177.5t-310.5 -66.5q-181 0 -321 65t-206 183q-67 119 -67 389v598h-162zM430 1536v8 l303 271h146l299 -271v-8h-207l-170 119l-160 -119h-211z" />
<glyph unicode="&#xdc;" horiz-adv-x="1583" d="M37 1206v205h594v-205h-178v-573q0 -223 49 -311q35 -62 115.5 -98t185.5 -36q210 0 293 127q61 94 61 308v583h-190v205h577v-205h-162v-594q0 -273 -75 -397q-68 -111 -203.5 -177.5t-310.5 -66.5q-181 0 -321 65t-206 183q-67 119 -67 389v598h-162zM487 1663 q0 42 18.5 72.5t46 44t59.5 13.5t59.5 -13.5t46 -44t18.5 -72.5q0 -55 -34.5 -89t-88.5 -34q-55 0 -90 34t-35 89zM870 1663q0 36 13.5 64t35.5 42.5t48.5 21.5t53 0t48.5 -21.5t35.5 -42.5t13.5 -64q0 -55 -34.5 -89t-90.5 -34q-52 0 -87.5 34.5t-35.5 88.5z" />
<glyph unicode="&#xdd;" horiz-adv-x="1398" d="M6 1206v205h598v-205h-153l262 -444q88 155 272 444h-170v205h578v-205h-154l-418 -649v-352h178v-205h-612v205h180v352l-409 649h-152zM543 1536v8l305 268h311v-8l-395 -268h-221z" />
<glyph unicode="&#xde;" horiz-adv-x="1380" d="M61 0v205h158v1001h-158v205h580v-205h-170v-80h231q214 0 336 -43q234 -83 234 -356q0 -300 -266 -391q-128 -45 -314 -45h-221v-86h193v-205h-603zM471 498h209q163 0 240 41q96 53 96 174q0 112 -98 164q-77 41 -230 41h-217v-420z" />
<glyph unicode="&#xdf;" horiz-adv-x="1286" d="M29 0v201h149v739q0 250 74 371q60 97 168.5 151t247.5 54q221 0 325 -113q105 -111 105 -262q0 -140 -59.5 -231.5t-192.5 -139.5q173 -11 269.5 -111t96.5 -278q0 -183 -112 -295q-110 -113 -303 -113q-164 0 -271 64v215h9q93 -72 235 -72q97 0 150 55.5t53 157.5 q0 132 -86.5 191t-274.5 59h-30v205h28q118 0 184 68.5t66 191.5q0 92 -53.5 148.5t-144.5 56.5q-134 0 -197 -84q-51 -68 -51 -258v-971h-385z" />
<glyph unicode="&#xe0;" horiz-adv-x="1163" d="M82 295q0 205 203 276q125 43 319 43q66 0 137 -12v33q0 82 -39 127q-55 61 -184 61q-98 0 -198 -35.5t-164 -103.5h-9v225q76 66 189 102t229 36q198 0 303 -91q105 -92 105 -311v-446h160v-199h-375v129q-36 -73 -122.5 -114.5t-197.5 -41.5q-160 0 -258 90t-98 232z M195 1511v9h284l262 -334v-8h-192zM319 297q0 -60 48.5 -94.5t130.5 -34.5q74 0 144 37t99 92v133q-73 12 -129 12q-123 0 -190 -20q-103 -27 -103 -125z" />
<glyph unicode="&#xe1;" horiz-adv-x="1163" d="M82 295q0 205 203 276q125 43 319 43q66 0 137 -12v33q0 82 -39 127q-55 61 -184 61q-98 0 -198 -35.5t-164 -103.5h-9v225q76 66 189 102t229 36q198 0 303 -91q105 -92 105 -311v-446h160v-199h-375v129q-36 -73 -122.5 -114.5t-197.5 -41.5q-160 0 -258 90t-98 232z M319 297q0 -60 48.5 -94.5t130.5 -34.5q74 0 144 37t99 92v133q-73 12 -129 12q-123 0 -190 -20q-103 -27 -103 -125zM397 1178v8l260 334h273v-9l-340 -333h-193z" />
<glyph unicode="&#xe2;" horiz-adv-x="1163" d="M82 295q0 205 203 276q125 43 319 43q66 0 137 -12v33q0 82 -39 127q-55 61 -184 61q-98 0 -198 -35.5t-164 -103.5h-9v225q76 66 189 102t229 36q198 0 303 -91q105 -92 105 -311v-446h160v-199h-375v129q-36 -73 -122.5 -114.5t-197.5 -41.5q-160 0 -258 90t-98 232z M217 1178v8l277 327h131l278 -327v-8h-192l-158 151l-150 -151h-186zM319 297q0 -60 48.5 -94.5t130.5 -34.5q74 0 144 37t99 92v133q-73 12 -129 12q-123 0 -190 -20q-103 -27 -103 -125z" />
<glyph unicode="&#xe3;" horiz-adv-x="1163" d="M82 295q0 205 203 276q125 43 319 43q66 0 137 -12v33q0 82 -39 127q-55 61 -184 61q-98 0 -198 -35.5t-164 -103.5h-9v225q76 66 189 102t229 36q198 0 303 -91q105 -92 105 -311v-446h160v-199h-375v129q-36 -73 -122.5 -114.5t-197.5 -41.5q-160 0 -258 90t-98 232z M221 1206q7 134 65 207.5t148 73.5q69 0 158 -57q73 -46 110 -46q31 0 46.5 23.5t21.5 83.5h148q-7 -136 -63 -211.5t-140 -75.5q-71 0 -162 49q-98 52 -117 52q-56 0 -65 -99h-150zM319 297q0 -60 48.5 -94.5t130.5 -34.5q74 0 144 37t99 92v133q-73 12 -129 12 q-123 0 -190 -20q-103 -27 -103 -125z" />
<glyph unicode="&#xe4;" horiz-adv-x="1163" d="M82 295q0 205 203 276q125 43 319 43q66 0 137 -12v33q0 82 -39 127q-55 61 -184 61q-98 0 -198 -35.5t-164 -103.5h-9v225q76 66 189 102t229 36q198 0 303 -91q105 -92 105 -311v-446h160v-199h-375v129q-36 -73 -122.5 -114.5t-197.5 -41.5q-160 0 -258 90t-98 232z M256 1346q0 48 25.5 81.5t62 41t73 0t62 -41t25.5 -81.5q0 -55 -34.5 -90t-88.5 -35q-52 0 -88.5 35.5t-36.5 89.5zM319 297q0 -60 48.5 -94.5t130.5 -34.5q74 0 144 37t99 92v133q-73 12 -129 12q-123 0 -190 -20q-103 -27 -103 -125zM623 1346q0 48 25.5 81.5t61.5 41 t72.5 0t62 -41t25.5 -81.5q0 -55 -35.5 -90t-89.5 -35q-52 0 -87 35t-35 90z" />
<glyph unicode="&#xe5;" horiz-adv-x="1163" d="M82 295q0 205 203 276q125 43 319 43q66 0 137 -12v33q0 82 -39 127q-55 61 -184 61q-98 0 -198 -35.5t-164 -103.5h-9v225q76 66 189 102t229 36q198 0 303 -91q105 -92 105 -311v-446h160v-199h-375v129q-36 -73 -122.5 -114.5t-197.5 -41.5q-160 0 -258 90t-98 232z M319 297q0 -60 48.5 -94.5t130.5 -34.5q74 0 144 37t99 92v133q-73 12 -129 12q-123 0 -190 -20q-103 -27 -103 -125zM352 1370q0 90 61 148.5t154 58.5q94 0 151.5 -57.5t57.5 -149.5q0 -87 -61.5 -146t-151.5 -59q-91 0 -151 58.5t-60 146.5zM446 1370q0 -52 32.5 -86.5 t88.5 -34.5q50 0 82.5 35.5t32.5 87.5q0 56 -32.5 89.5t-86.5 33.5t-85.5 -34.5t-31.5 -90.5z" />
<glyph unicode="&#xe6;" horiz-adv-x="1775" d="M86 293q0 102 53.5 174t141.5 104q119 43 325 43q64 0 129 -12v51q0 73 -37 119q-45 57 -178 57q-198 0 -342 -114h-8v213q165 119 391 119q249 0 330 -146q56 67 152 106.5t196 39.5q225 0 342.5 -124.5t122.5 -355.5q0 -86 -8 -133h-735q9 -109 104 -180 q98 -70 233 -70q208 0 363 125h8v-219q-67 -55 -174.5 -86t-224.5 -31q-272 0 -418 168q-149 -168 -403 -168q-161 0 -262 89.5t-101 230.5zM324 299q0 -63 47 -99t127 -36q175 0 270 121q-18 49 -29 143q-45 10 -129 10q-124 0 -192 -22q-94 -30 -94 -117zM961 610h514v13 q0 110 -64 168.5t-180 58.5q-100 0 -178.5 -64t-91.5 -176z" />
<glyph unicode="&#xe7;" horiz-adv-x="1101" d="M76 504q0 240 162 389q165 154 411 154q99 0 192 -25t140 -66v-311h-186l-11 170q-65 19 -131 19q-149 0 -243.5 -87.5t-94.5 -236.5t95 -235.5t245 -86.5q202 0 330 119h8v-231q-129 -100 -356 -103l-29 -92h8q92 0 145.5 -48.5t53.5 -135.5q0 -106 -71 -163.5 t-201 -57.5q-92 0 -150 37v133h8q58 -37 129 -37q113 0 113 80t-111 80q-47 0 -77 -15l-6 4l63 226q-194 30 -315 166q-121 139 -121 354z" />
<glyph unicode="&#xe8;" horiz-adv-x="1153" d="M76 504q0 249 155 395q157 148 377 148q225 0 343.5 -125.5t123.5 -356.5q0 -91 -6 -131h-752q14 -109 108 -177.5t243 -68.5q223 0 366 125h8v-223q-62 -50 -180 -86q-118 -31 -225 -31q-255 0 -410 146q-151 145 -151 385zM266 1511v9h285l262 -334v-8h-192zM319 621 h529v10q0 106 -68 161.5t-182 55.5q-105 0 -182.5 -57t-96.5 -170z" />
<glyph unicode="&#xe9;" horiz-adv-x="1153" d="M76 504q0 249 155 395q157 148 377 148q225 0 343.5 -125.5t123.5 -356.5q0 -91 -6 -131h-752q14 -109 108 -177.5t243 -68.5q223 0 366 125h8v-223q-62 -50 -180 -86q-118 -31 -225 -31q-255 0 -410 146q-151 145 -151 385zM319 621h529v10q0 106 -68 161.5t-182 55.5 q-105 0 -182.5 -57t-96.5 -170zM446 1178v8l261 334h272v-9l-340 -333h-193z" />
<glyph unicode="&#xea;" horiz-adv-x="1153" d="M76 504q0 249 155 395q157 148 377 148q225 0 343.5 -125.5t123.5 -356.5q0 -91 -6 -131h-752q14 -109 108 -177.5t243 -68.5q223 0 366 125h8v-223q-62 -50 -180 -86q-118 -31 -225 -31q-255 0 -410 146q-151 145 -151 385zM258 1178v8l277 327h131l278 -327v-8h-192 l-158 151l-150 -151h-186zM319 621h529v10q0 106 -68 161.5t-182 55.5q-105 0 -182.5 -57t-96.5 -170z" />
<glyph unicode="&#xeb;" horiz-adv-x="1153" d="M76 504q0 249 155 395q157 148 377 148q225 0 343.5 -125.5t123.5 -356.5q0 -91 -6 -131h-752q14 -109 108 -177.5t243 -68.5q223 0 366 125h8v-223q-62 -50 -180 -86q-118 -31 -225 -31q-255 0 -410 146q-151 145 -151 385zM301 1346q0 48 25.5 81.5t62 41t73 0t62 -41 t25.5 -81.5q0 -55 -34.5 -90t-88.5 -35q-52 0 -88.5 35.5t-36.5 89.5zM319 621h529v10q0 106 -68 161.5t-182 55.5q-105 0 -182.5 -57t-96.5 -170zM668 1346q0 48 25.5 81.5t62 41t72.5 0t61.5 -41t25.5 -81.5q0 -55 -35 -90t-89 -35q-52 0 -87.5 35t-35.5 90z" />
<glyph unicode="&#xec;" horiz-adv-x="647" d="M-80 1511v9h285l262 -334v-8h-193zM53 0v201h164v612h-164v205h400v-817h155v-201h-555z" />
<glyph unicode="&#xed;" horiz-adv-x="647" d="M53 0v201h164v612h-164v205h400v-817h155v-201h-555zM123 1178v8l260 334h272v-9l-340 -333h-192z" />
<glyph unicode="&#xee;" horiz-adv-x="647" d="M-41 1178v8l277 327h131l278 -327v-8h-192l-158 151l-150 -151h-186zM53 0v201h164v612h-164v205h400v-817h155v-201h-555z" />
<glyph unicode="&#xef;" horiz-adv-x="647" d="M-10 1346q0 48 25.5 81.5t62 41t73 0t62 -41t25.5 -81.5q0 -55 -34.5 -90t-88.5 -35q-52 0 -88.5 35.5t-36.5 89.5zM53 0v201h164v612h-164v205h400v-817h155v-201h-555zM356 1346q0 48 25.5 81.5t62 41t73 0t62 -41t25.5 -81.5q0 -55 -35.5 -90t-89.5 -35 q-52 0 -87.5 35t-35.5 90z" />
<glyph unicode="&#xf0;" horiz-adv-x="1251" d="M76 512q0 101 31.5 186.5t84.5 144t122 100t142.5 60.5t147.5 19q84 0 162.5 -30.5t120.5 -88.5q-29 141 -160 275l-227 -131v170l110 63q-91 62 -209 98l68 158q181 -45 324 -147l215 124v-167l-101 -58q262 -274 262 -721q-1 -147 -46 -264t-122 -189t-174 -108 t-206 -33q-82 0 -158.5 18.5t-147.5 60.5t-123.5 103.5t-84 153t-31.5 203.5zM317 508q0 -158 85.5 -243t220.5 -85t221 86t86 246q0 154 -86 234.5t-223 80.5q-125 0 -215 -84q-89 -83 -89 -235z" />
<glyph unicode="&#xf1;" horiz-adv-x="1331" d="M57 0v201h164v612h-164v205h394v-158q45 86 133 134t204 48q274 0 326 -217q21 -73 21 -223v-401h157v-201h-549v201h154v356q0 135 -20 174q-47 90 -166 90q-80 0 -148.5 -40t-105.5 -109v-471h157v-201h-557zM326 1206q7 134 65 207.5t148 73.5q68 0 157 -57 q73 -46 111 -46q31 0 46 23t21 84h148q-7 -136 -63 -211.5t-140 -75.5q-71 0 -162 49q-98 52 -116 52q-57 0 -66 -99h-149z" />
<glyph unicode="&#xf2;" horiz-adv-x="1247" d="M76 510q0 232 157 383q160 154 396 154q241 0 391 -150q151 -151 151 -387q0 -233 -155 -385t-393 -152q-239 0 -394 152q-153 150 -153 385zM268 1511v9h285l262 -334v-8h-192zM317 510q0 -146 87.5 -235t222.5 -89q136 0 220.5 91t84.5 233t-85 234t-220 92 q-134 0 -224 -93q-86 -89 -86 -233z" />
<glyph unicode="&#xf3;" horiz-adv-x="1247" d="M76 510q0 232 157 383q160 154 396 154q241 0 391 -150q151 -151 151 -387q0 -233 -155 -385t-393 -152q-239 0 -394 152q-153 150 -153 385zM317 510q0 -146 87.5 -235t222.5 -89q136 0 220.5 91t84.5 233t-85 234t-220 92q-134 0 -224 -93q-86 -89 -86 -233zM459 1178 v8l260 334h272v-9l-340 -333h-192z" />
<glyph unicode="&#xf4;" horiz-adv-x="1247" d="M76 510q0 232 157 383q160 154 396 154q241 0 391 -150q151 -151 151 -387q0 -233 -155 -385t-393 -152q-239 0 -394 152q-153 150 -153 385zM293 1178v8l276 327h131l279 -327v-8h-193l-157 151l-150 -151h-186zM317 510q0 -146 87.5 -235t222.5 -89q136 0 220.5 91 t84.5 233t-85 234t-220 92q-134 0 -224 -93q-86 -89 -86 -233z" />
<glyph unicode="&#xf5;" horiz-adv-x="1247" d="M76 510q0 232 157 383q160 154 396 154q241 0 391 -150q151 -151 151 -387q0 -233 -155 -385t-393 -152q-239 0 -394 152q-153 150 -153 385zM270 1206q7 134 65 207.5t148 73.5q69 0 158 -57q73 -46 111 -46q31 0 46 23t21 84h148q-7 -136 -63 -211.5t-140 -75.5 q-71 0 -162 49q-98 52 -117 52q-56 0 -65 -99h-150zM317 510q0 -146 87.5 -235t222.5 -89q136 0 220.5 91t84.5 233t-85 234t-220 92q-134 0 -224 -93q-86 -89 -86 -233z" />
<glyph unicode="&#xf6;" horiz-adv-x="1247" d="M76 510q0 232 157 383q160 154 396 154q241 0 391 -150q151 -151 151 -387q0 -233 -155 -385t-393 -152q-239 0 -394 152q-153 150 -153 385zM317 510q0 -146 87.5 -235t222.5 -89q136 0 220.5 91t84.5 233t-85 234t-220 92q-134 0 -224 -93q-86 -89 -86 -233zM324 1346 q0 48 25.5 81.5t62 41t72.5 0t61.5 -41t25.5 -81.5q0 -55 -34 -90t-88 -35q-52 0 -88.5 35.5t-36.5 89.5zM690 1346q0 48 25.5 81.5t62 41t73 0t62 -41t25.5 -81.5q0 -55 -35.5 -90t-89.5 -35q-52 0 -87.5 35t-35.5 90z" />
<glyph unicode="&#xf7;" horiz-adv-x="1433" d="M184 526v158h1065v-158h-1065zM614 248q0 52 29.5 81t75.5 29q100 0 100 -110q0 -50 -28 -78.5t-76 -28.5q-45 0 -73 27t-28 80zM614 948q-5 68 49.5 97.5t108.5 1t47 -98.5q0 -50 -28 -78t-76 -28q-45 0 -73 26.5t-28 79.5z" />
<glyph unicode="&#xf8;" horiz-adv-x="1247" d="M86 510q0 231 158 383q160 154 393 154q126 0 237 -48l82 127h148l-121 -190q197 -150 197 -426q0 -232 -156 -385q-158 -152 -393 -152q-123 0 -238 47l-78 -120h-147l119 184q-201 157 -201 426zM326 510q0 -144 84 -234l346 539q-55 25 -121 25q-134 0 -223 -95 q-86 -92 -86 -235zM512 205q64 -23 123 -23q135 0 220 93t85 235q0 139 -82 233z" />
<glyph unicode="&#xf9;" horiz-adv-x="1304" d="M20 813v205h392v-541q0 -133 24 -188q40 -94 174 -94q167 0 262 133v485h-174v205h410v-817h160v-201h-389v139q-94 -166 -334 -166q-286 0 -344 217q-25 92 -25 244v379h-156zM260 1511v9h285l262 -334v-8h-193z" />
<glyph unicode="&#xfa;" horiz-adv-x="1304" d="M20 813v205h392v-541q0 -133 24 -188q40 -94 174 -94q167 0 262 133v485h-174v205h410v-817h160v-201h-389v139q-94 -166 -334 -166q-286 0 -344 217q-25 92 -25 244v379h-156zM457 1178v8l260 334h272v-9l-340 -333h-192z" />
<glyph unicode="&#xfb;" horiz-adv-x="1304" d="M20 813v205h392v-541q0 -133 24 -188q40 -94 174 -94q167 0 262 133v485h-174v205h410v-817h160v-201h-389v139q-94 -166 -334 -166q-286 0 -344 217q-25 92 -25 244v379h-156zM293 1178v8l276 327h131l279 -327v-8h-193l-157 151l-150 -151h-186z" />
<glyph unicode="&#xfc;" horiz-adv-x="1304" d="M20 813v205h392v-541q0 -133 24 -188q40 -94 174 -94q167 0 262 133v485h-174v205h410v-817h160v-201h-389v139q-94 -166 -334 -166q-286 0 -344 217q-25 92 -25 244v379h-156zM315 1346q0 48 25.5 81.5t62 41t73 0t62 -41t25.5 -81.5q0 -55 -34.5 -90t-88.5 -35 q-52 0 -88.5 35.5t-36.5 89.5zM682 1346q0 48 25.5 81.5t62 41t73 0t62 -41t25.5 -81.5q0 -55 -35.5 -90t-89.5 -35q-52 0 -87.5 35t-35.5 90z" />
<glyph unicode="&#xfd;" horiz-adv-x="1193" d="M10 813v205h512v-205h-119q140 -345 218 -567q71 209 213 567h-142v205h494v-205h-127l-346 -854q-67 -168 -121 -250q-98 -149 -303 -149q-116 0 -187 41v209h9q53 -41 155 -41q99 0 144 57q43 56 63 133l12 47l-348 807h-127zM438 1178v8l260 334h273v-9l-340 -333 h-193z" />
<glyph unicode="&#xfe;" horiz-adv-x="1327" d="M20 -197h148v1483h-148v205h381v-635q41 77 144 133q104 58 221 58q206 0 344 -138q139 -139 139 -387q0 -260 -151 -399q-150 -135 -357 -135q-105 0 -196.5 39.5t-138.5 107.5v-332h161v-200h-547v200zM406 379q41 -92 122.5 -137t180.5 -45q132 0 215.5 81.5 t83.5 241.5t-90 238t-209 78q-98 0 -182.5 -49.5t-120.5 -143.5v-264z" />
<glyph unicode="&#xff;" horiz-adv-x="1193" d="M10 813v205h512v-205h-119q140 -345 218 -567q71 209 213 567h-142v205h494v-205h-127l-346 -854q-67 -168 -121 -250q-98 -149 -303 -149q-116 0 -187 41v209h9q53 -41 155 -41q99 0 144 57q43 56 63 133l12 47l-348 807h-127zM299 1346q0 48 25.5 81.5t62 41t73 0 t62 -41t25.5 -81.5q0 -55 -34.5 -90t-88.5 -35q-52 0 -88.5 35.5t-36.5 89.5zM666 1346q0 48 25.5 81.5t62 41t72.5 0t61.5 -41t25.5 -81.5q0 -55 -35.5 -90t-89.5 -35q-52 0 -87 35t-35 90z" />
<glyph unicode="&#x152;" horiz-adv-x="2254" d="M98 700q0 337 209 537q212 203 512 203q295 0 436 -172v143h877l12 -369h-202l-13 160h-424v-368h488v-211h-488v-414h471l13 180h202l-12 -389h-924v152q-156 -181 -444 -181q-303 0 -510 201q-203 200 -203 528zM352 711q0 -233 133 -375q135 -141 349 -141 q296 0 421 229v559q-114 238 -421 238q-215 0 -349 -146q-133 -145 -133 -364z" />
<glyph unicode="&#x153;" horiz-adv-x="1980" d="M86 512q0 125 48.5 230.5t129.5 170.5q80 63 175 98.5t188 35.5q288 0 411 -191q67 92 176 139q113 52 222 52q229 0 347.5 -125t123.5 -357q0 -85 -6 -131h-742q17 -118 107 -184t235 -66q213 0 363 123h8v-221q-152 -113 -397 -113q-294 0 -439 195 q-148 -195 -413 -195q-217 0 -377 142q-160 145 -160 397zM326 514q0 -160 90 -244t209 -84q133 0 217 86t84 242q0 154 -84.5 238t-214.5 84q-122 0 -211 -86q-90 -84 -90 -236zM1161 621h518v10q0 105 -65 162t-184 57q-90 0 -170 -57q-84 -60 -99 -172z" />
<glyph unicode="&#x178;" horiz-adv-x="1398" d="M6 1206v205h598v-205h-153l262 -444q88 155 272 444h-170v205h578v-205h-154l-418 -649v-352h178v-205h-612v205h180v352l-409 649h-152zM387 1663q0 36 13.5 64t35.5 42.5t48.5 21.5t53 0t48.5 -21.5t35.5 -42.5t13.5 -64q0 -55 -34.5 -89t-88.5 -34q-55 0 -90 34 t-35 89zM770 1663q0 42 18.5 72.5t46 44t59.5 13.5t59.5 -13.5t46 -44t18.5 -72.5q0 -55 -34.5 -89t-90.5 -34q-52 0 -87.5 34.5t-35.5 88.5z" />
<glyph unicode="&#x2c6;" horiz-adv-x="430" d="M-127 1178v8l277 327h131l278 -327v-8h-192l-158 151l-150 -151h-186z" />
<glyph unicode="&#x2dc;" horiz-adv-x="430" d="M-133 1206q7 134 65 207.5t148 73.5q69 0 158 -57q73 -46 110 -46q31 0 46.5 23.5t21.5 83.5h147q-7 -136 -63 -211.5t-140 -75.5q-70 0 -161 49q-98 52 -117 52q-57 0 -66 -99h-149z" />
<glyph unicode="&#x2000;" horiz-adv-x="937" />
<glyph unicode="&#x2001;" horiz-adv-x="1874" />
<glyph unicode="&#x2002;" horiz-adv-x="937" />
<glyph unicode="&#x2003;" horiz-adv-x="1874" />
<glyph unicode="&#x2004;" horiz-adv-x="624" />
<glyph unicode="&#x2005;" horiz-adv-x="468" />
<glyph unicode="&#x2006;" horiz-adv-x="312" />
<glyph unicode="&#x2007;" horiz-adv-x="312" />
<glyph unicode="&#x2008;" horiz-adv-x="234" />
<glyph unicode="&#x2009;" horiz-adv-x="374" />
<glyph unicode="&#x200a;" horiz-adv-x="104" />
<glyph unicode="&#x2010;" horiz-adv-x="659" d="M78 465v192h504v-192h-504z" />
<glyph unicode="&#x2011;" horiz-adv-x="659" d="M78 465v192h504v-192h-504z" />
<glyph unicode="&#x2012;" horiz-adv-x="659" d="M78 465v192h504v-192h-504z" />
<glyph unicode="&#x2013;" horiz-adv-x="1101" d="M78 471v174h948v-174h-948z" />
<glyph unicode="&#x2014;" horiz-adv-x="1722" d="M78 471v174h1564v-174h-1564z" />
<glyph unicode="&#x2018;" horiz-adv-x="399" d="M39 1069q0 118 58.5 226t148.5 178h172v-9q-75 -66 -121.5 -165.5t-46.5 -211.5q0 -103 31 -176h-220q-22 61 -22 158z" />
<glyph unicode="&#x2019;" horiz-adv-x="399" d="M-20 911v9q75 65 121 165.5t46 212.5q0 102 -28 175h217q22 -61 22 -156q0 -119 -59 -229.5t-149 -176.5h-170z" />
<glyph unicode="&#x201a;" horiz-adv-x="397" d="M-20 -281q75 66 121 165.5t46 211.5q0 101 -28 174h217q22 -58 22 -155q0 -119 -59 -228.5t-149 -175.5h-170v8z" />
<glyph unicode="&#x201c;" horiz-adv-x="776" d="M39 1069q0 118 58.5 226t148.5 178h172v-9q-75 -66 -121.5 -165.5t-46.5 -211.5q0 -103 31 -176h-220q-22 61 -22 158zM418 1069q0 118 59 228t148 176h170v-9q-75 -65 -120.5 -165t-45.5 -212q0 -100 28 -176h-217q-22 61 -22 158z" />
<glyph unicode="&#x201d;" horiz-adv-x="776" d="M-20 911v9q75 65 121 165.5t46 212.5q0 102 -28 175h217q22 -61 22 -156q0 -119 -59 -229.5t-149 -176.5h-170zM358 911v9q73 67 119.5 167t46.5 211q0 102 -28 175h219q22 -61 22 -156q0 -118 -60 -229t-149 -177h-170z" />
<glyph unicode="&#x201e;" horiz-adv-x="776" d="M-20 -281q75 66 121 165.5t46 211.5q0 101 -28 174h217q22 -58 22 -155q0 -119 -59 -228.5t-149 -175.5h-170v8zM358 -281q75 65 120.5 165t45.5 212q0 101 -28 174h219q22 -58 22 -155q0 -118 -60 -228t-149 -176h-170v8z" />
<glyph unicode="&#x2022;" horiz-adv-x="729" d="M94 522q0 133 82 203q84 72 189 72q102 0 186 -72q82 -70 82 -203q0 -120 -75.5 -195t-192.5 -75q-119 0 -195 73.5t-76 196.5z" />
<glyph unicode="&#x2026;" horiz-adv-x="1888" d="M182 127q0 43 17 77t44 51t60 25.5t65.5 0t59.5 -25.5t44 -51t17 -77q0 -67 -43.5 -109.5t-109.5 -42.5q-67 0 -110.5 42t-43.5 110zM793 127q0 75 44 116.5t109 41.5q63 0 107.5 -43t44.5 -115q0 -67 -43 -109.5t-109 -42.5q-67 0 -110 42t-43 110zM1401 127 q-2 59 29 100t77 50.5t92 0t77.5 -50.5t29.5 -100q0 -67 -43 -109.5t-111 -42.5q-64 0 -107.5 42.5t-43.5 109.5z" />
<glyph unicode="&#x202f;" horiz-adv-x="374" />
<glyph unicode="&#x2039;" horiz-adv-x="595" d="M45 516l283 377h211l-279 -377l281 -377h-211z" />
<glyph unicode="&#x203a;" horiz-adv-x="595" d="M57 893h211l285 -377l-283 -377h-211l279 377z" />
<glyph unicode="&#x205f;" horiz-adv-x="468" />
<glyph unicode="&#x20ac;" horiz-adv-x="1384" d="M106 477v117h148q-4 78 -4 90q0 54 2 70h-146v116h160q47 250 219 385q177 136 420 136q272 0 395 -111l9 -297h-176l-11 158q-107 37 -202 37q-325 0 -402 -308h494v-116h-510q-2 -14 -2 -64q0 -76 2 -96h510v-117h-488q82 -289 402 -289q221 0 370 125h9v-227 q-151 -115 -416 -115q-251 0 -411.5 130t-209.5 376h-162z" />
<glyph unicode="&#x2122;" horiz-adv-x="1898" d="M86 1165v246h666v-246h-117l-4 113h-135v-479h98v-125h-361v125h103v479h-129l-4 -113h-117zM838 674v125h102v481h-102v131h329q121 -297 162 -418q20 62 164 418h313v-131h-96v-481h96v-125h-344v125h94q0 385 3 461q-16 -55 -181 -457h-110l-185 459q7 -161 7 -463h92 v-125h-344z" />
<glyph unicode="&#x25fc;" horiz-adv-x="1013" d="M0 0v1014h1014v-1014h-1014z" />
</font>
</defs>
</svg>
