<?xml version="1.0" standalone="no"?>
<!DOCTYPE svg PUBLIC "-//W3C//DTD SVG 1.1//EN" "http://www.w3.org/Graphics/SVG/1.1/DTD/svg11.dtd" >
<svg xmlns="http://www.w3.org/2000/svg">
<metadata></metadata>
<defs>
<font id="equip_slablight" horiz-adv-x="1173" >
<font-face units-per-em="2048" ascent="1536" descent="-512" />
<missing-glyph horiz-adv-x="446" />
<glyph unicode="&#xfb01;" horiz-adv-x="1310" d="M57 0v135h183v739h-183v138h183v116q0 193 90 289q99 99 270 99q108 0 172 -46v-141h-8q-64 49 -158 49q-113 0 -174 -67q-45 -51 -45 -187v-112h700v-877h181v-135h-510v135h182v739h-553v-739h234v-135h-564zM885 1343q0 52 30.5 80.5t77.5 28.5q45 0 76 -28.5 t31 -80.5q6 -66 -50.5 -94.5t-113 -1t-51.5 95.5z" />
<glyph unicode="&#xfb02;" horiz-adv-x="1296" d="M57 0v135h183v739h-183v138h183v75q0 215 102 314q116 110 346 110q129 0 235 -24.5t150 -54.5v-1297h180v-135h-510v135h183v1200q-128 41 -248 41q-163 0 -232 -78q-59 -68 -59 -221v-65h287v-138h-287v-739h234v-135h-564z" />
<glyph unicode="&#xfb03;" horiz-adv-x="2002" d="M57 0v135h183v739h-183v138h183v75q0 193 90 289q99 99 270 99q110 0 172 -45v-142h-8q-64 49 -158 49q-113 0 -174 -67q-45 -51 -45 -187v-71h547v116q0 193 90 289q94 99 270 99q109 0 170 -46v-141h-8q-64 49 -158 49q-114 0 -172 -67q-47 -53 -47 -187v-112h701v-877 h180v-135h-510v135h182v739h-553v-739h234v-135h-561v135h180v739h-545v-739h234v-135h-564zM1579 1343q0 51 33.5 79.5t74 28.5t74 -28.5t33.5 -79.5q0 -49 -30 -78.5t-78 -29.5q-46 0 -76.5 29t-30.5 79z" />
<glyph unicode="&#xfb04;" horiz-adv-x="1990" d="M57 0v135h183v739h-183v138h183v75q0 193 90 289q99 99 270 99q110 0 172 -45v-142h-8q-64 49 -158 49q-113 0 -174 -67q-45 -51 -45 -187v-71h547v75q0 221 100 314q113 110 348 110q126 0 231 -24.5t154 -54.5v-1297h181v-135h-510v135h182v1200q-128 41 -250 41 q-163 0 -229 -78q-62 -71 -62 -221v-65h295v-138h-295v-739h234v-135h-561v135h180v739h-545v-739h234v-135h-564z" />
<glyph horiz-adv-x="0" />
<glyph horiz-adv-x="682" />
<glyph unicode=" "  horiz-adv-x="446" />
<glyph unicode="&#x09;" horiz-adv-x="446" />
<glyph unicode="&#xa0;" horiz-adv-x="446" />
<glyph unicode="!" horiz-adv-x="593" d="M221 90q0 44 23.5 74t57 37t67 0t57 -37t23.5 -74q0 -49 -32.5 -81t-82.5 -32q-48 0 -80.5 31.5t-32.5 81.5zM246 1411h176q0 -91 -29 -979h-119q-28 857 -28 979z" />
<glyph unicode="&#x22;" horiz-adv-x="729" d="M111 1444h165l-36 -572h-90zM453 1444h163l-36 -572h-91z" />
<glyph unicode="#" horiz-adv-x="1249" d="M90 436v127h275l36 256h-262v127h279l65 447h107l-66 -447h279l63 447h107l-64 -447h248v-127h-266l-37 -256h254v-127h-270l-66 -465h-106l65 465h-278l-64 -465h-106l63 465h-256zM471 563h279l34 256h-276z" />
<glyph unicode="$" horiz-adv-x="1140" d="M109 379h116l8 -162q141 -81 306 -90v473l-123 41q-281 95 -281 350q0 157 105 256.5t299 118.5v207h92v-203q98 -3 198 -37q104 -30 156 -76l8 -253h-121l-12 161q-95 56 -229 62v-486l96 -30q172 -56 247 -135.5t75 -208.5q0 -162 -105 -265t-313 -116v-215h-92v213 q-251 6 -426 135zM295 1004q0 -82 48.5 -134t174.5 -92l21 -6v455q-125 -11 -184.5 -70.5t-59.5 -152.5zM631 129q254 15 254 217q0 78 -54.5 125.5t-199.5 99.5v-442z" />
<glyph unicode="%" horiz-adv-x="1746" d="M68 938q0 203 94 322q95 120 246 120q155 0 244 -117t89 -321q0 -203 -92 -322.5t-246 -119.5t-244.5 118t-90.5 320zM193 940q0 -156 57.5 -244t155.5 -88q99 0 154.5 87t55.5 245t-55 246t-153 88q-99 0 -157 -88.5t-58 -245.5zM479 -25l690 1422h105l-688 -1422h-107z M1006 420q0 202 94 321q95 121 246 121q155 0 243 -117t88 -321t-91 -323t-245 -119t-244.5 118t-90.5 320zM1130 422q0 -157 56.5 -244.5t154.5 -87.5q100 0 156.5 87t56.5 245t-56 246t-155 88t-156 -88.5t-57 -245.5z" />
<glyph unicode="&#x26;" horiz-adv-x="1482" d="M109 383q0 273 280 393q-92 127 -92 268q0 142 109 242q107 98 303 98q161 0 254 -75v-162h-9q-91 98 -254 98q-115 0 -180 -56.5t-65 -150.5q0 -101 92 -219q121 -149 485 -487q86 109 86 266v31h-145v137h444v-137h-151v-23q0 -223 -129 -379l100 -90h176v-137h-239 l-132 115q-172 -144 -415 -144q-231 0 -375 117q-143 119 -143 295zM266 403q0 -131 99.5 -211.5t269.5 -80.5q182 0 297 100q-305 280 -467 459q-199 -76 -199 -267z" />
<glyph unicode="'" horiz-adv-x="389" d="M111 1444h165l-36 -572h-90z" />
<glyph unicode="(" horiz-adv-x="731" d="M94 578q0 618 498 938h143v-9q-493 -339 -493 -927q0 -539 493 -918v-8h-141q-196 127 -336 338q-77 115 -120.5 266.5t-43.5 319.5z" />
<glyph unicode=")" horiz-adv-x="731" d="M-4 -338q493 339 493 928q0 538 -493 917v9h141q196 -127 336 -338q77 -115 120.5 -266.5t43.5 -319.5q0 -619 -498 -938h-143v8z" />
<glyph unicode="*" horiz-adv-x="860" d="M55 1124l39 119q134 -43 293 -113q-17 166 -20 314h125q0 -68 -19 -318q186 83 295 117l39 -119q-123 -38 -309 -82q119 -130 202 -241l-100 -74q-92 129 -174 264q-62 -106 -170 -264l-100 70q90 130 202 245q-208 52 -303 82z" />
<glyph unicode="+" horiz-adv-x="1433" d="M184 547v115h475v473h115v-473h475v-115h-475v-475h-112v475h-478z" />
<glyph unicode="," horiz-adv-x="421" d="M4 -317q80 64 128 167.5t48 219.5q0 104 -33 174h166q29 -63 29 -162q0 -119 -58.5 -230.5t-146.5 -177.5h-133v9z" />
<glyph unicode="-" horiz-adv-x="655" d="M82 489v138h493v-138h-493z" />
<glyph unicode="." horiz-adv-x="421" d="M123 90q0 44 23.5 74t56.5 37t66.5 0t57 -37t23.5 -74q0 -49 -32 -81t-82 -32q-48 0 -80.5 31.5t-32.5 81.5z" />
<glyph unicode="/" horiz-adv-x="792" d="M-20 -117l698 1614h127l-699 -1614h-126z" />
<glyph unicode="0" d="M78 680q0 322 141 516q145 195 371 195q239 0 371 -193q135 -190 135 -518q0 -320 -140 -516q-138 -193 -372 -193q-233 0 -371 191q-135 194 -135 518zM236 682q0 -268 94.5 -419.5t259.5 -151.5q160 0 253 152t93 419t-93 419t-253 152q-165 0 -259.5 -151.5 t-94.5 -419.5z" />
<glyph unicode="1" d="M268 1057v147l328 189h117v-1256h205v-137h-594v137h233v1077z" />
<glyph unicode="2" d="M98 0v88l129 117l142 125q161 149 252 245q198 204 198 406q0 122 -74 196t-213 74q-108 0 -212.5 -53.5t-178.5 -150.5h-8v165q69 81 181.5 130t228.5 49q211 0 323.5 -106.5t112.5 -293.5q0 -230 -199 -450q-161 -177 -444 -404q117 2 602 2l14 215h127l-8 -354h-973z " />
<glyph unicode="3" d="M145 90v170h9q143 -149 372 -149q182 0 256 77q76 79 76 195q0 76 -48 136.5t-134 84.5q-95 27 -211 27h-62v137h64q157 0 231 45q117 65 117 209q0 103 -69.5 166t-200.5 63q-90 0 -195 -45q-105 -43 -170 -127h-8v162q63 66 171 108t216 42q197 0 306.5 -96.5 t109.5 -268.5q0 -106 -67 -193.5t-179 -125.5q136 -25 212.5 -107t76.5 -213q0 -191 -135 -305q-132 -111 -355 -111q-243 0 -383 119z" />
<glyph unicode="4" d="M72 360v103l690 928h129v-895h227v-136h-227v-223h205v-137h-588v137h231v223h-667zM254 496h485q0 414 9 669q-101 -151 -494 -669z" />
<glyph unicode="5" d="M143 88v168h9q160 -145 380 -145q166 0 258.5 85.5t92.5 235.5q0 285 -332 285q-191 0 -340 -113h-10l80 758h700l8 -309h-125l-12 170h-449l-49 -428q95 65 262 65q196 0 311 -106t115 -310q0 -232 -147 -352q-145 -121 -371 -121q-225 0 -381 117z" />
<glyph unicode="6" d="M123 635q0 199 49 351.5t137 238.5q169 166 406 166q204 0 311 -84v-172h-10q-107 116 -299 116q-206 0 -319 -151.5t-124 -435.5q46 98 148 160.5t233 62.5q187 0 308 -115q120 -114 120 -328q0 -222 -129 -348q-125 -125 -325 -125q-152 0 -277 80q-229 159 -229 584z M295 498q0 -112 47 -215q38 -80 110 -127t164 -47q139 0 225.5 83.5t86.5 239.5t-81 238t-220 82q-128 0 -221 -78q-91 -79 -111 -176z" />
<glyph unicode="7" d="M111 1053l8 309h913v-105q-293 -639 -526 -1257h-166q217 553 532 1223h-626l-10 -170h-125z" />
<glyph unicode="8" d="M113 356q0 118 74 204.5t208 129.5q-108 44 -169.5 128t-61.5 200q0 160 121 266q122 107 307 107q194 0 310 -99.5t116 -269.5q0 -106 -65 -190.5t-171 -116.5q131 -39 205 -129t74 -219q0 -177 -131 -287q-133 -109 -344 -109q-209 0 -342 103q-131 101 -131 282z M268 367q0 -119 91 -187.5t231 -68.5q142 0 228.5 69t86.5 189q0 115 -89.5 183.5t-237.5 80.5q-136 -14 -223 -86t-87 -180zM315 1020q0 -115 74.5 -178.5t206.5 -75.5q266 34 266 254q0 105 -75 169t-199 64q-118 0 -195.5 -66.5t-77.5 -166.5z" />
<glyph unicode="9" d="M96 918q0 215 135 344q138 129 336 129q237 0 364.5 -177t127.5 -505q0 -198 -45.5 -346t-128.5 -234q-158 -158 -396 -158q-99 0 -197 27t-151 70v159h9q122 -116 335 -116q401 0 422 581q-45 -98 -144.5 -158.5t-225.5 -60.5q-187 0 -314 115t-127 330zM252 928 q0 -152 83 -236t220 -84q124 0 211.5 73.5t118.5 184.5q0 80 -35 176q-37 98 -110 153.5t-171 55.5q-131 0 -225 -82q-92 -83 -92 -241z" />
<glyph unicode=":" horiz-adv-x="462" d="M164 90q0 44 23.5 74t57 37t66.5 0t56.5 -37t23.5 -74q0 -49 -32.5 -81t-82.5 -32q-48 0 -80 31.5t-32 81.5zM164 899q0 55 33 86t82 31q47 0 79.5 -31t32.5 -86q0 -49 -32.5 -81t-82.5 -32q-48 0 -80 31.5t-32 81.5z" />
<glyph unicode=";" horiz-adv-x="462" d="M45 -317q80 64 128 167.5t48 219.5q0 104 -33 174h166q29 -63 29 -162q0 -119 -58.5 -230.5t-146.5 -177.5h-133v9zM164 899q0 55 33 86t82 31q47 0 79.5 -31t32.5 -86q0 -49 -32.5 -81t-82.5 -32q-48 0 -80 31.5t-32 81.5z" />
<glyph unicode="&#x3c;" horiz-adv-x="1433" d="M236 539v118l923 455v-135l-794 -375l794 -369v-137z" />
<glyph unicode="=" horiz-adv-x="1433" d="M184 348v115h1065v-115h-1065zM184 735v115h1065v-115h-1065z" />
<glyph unicode="&#x3e;" horiz-adv-x="1433" d="M274 96v135l797 377l-797 367v137l924 -444v-117z" />
<glyph unicode="?" horiz-adv-x="876" d="M72 1153v152q59 61 158 99t194 38q189 0 288 -85t99 -249q0 -106 -59.5 -193.5t-210.5 -195.5q-82 -60 -105 -119q-23 -68 -26 -168h-121q0 71 4 133q7 50 41 109.5t92 105.5q121 90 172 162t51 150q0 101 -63.5 156t-186.5 55q-178 0 -319 -150h-8zM238 90q0 44 23.5 74 t57 37t66.5 0t56.5 -37t23.5 -74q0 -49 -32.5 -81t-82.5 -32q-48 0 -80 31.5t-32 81.5z" />
<glyph unicode="@" horiz-adv-x="1746" d="M121 440q0 360 250 613q251 254 618 254q296 0 471 -166q178 -163 178 -439q0 -230 -127 -413q-126 -178 -294 -178q-109 0 -130 82q-10 30 -10 69q-128 -158 -313 -158q-137 0 -220 81t-83 227q0 113 50 222t138 187q139 121 303 121q81 0 144.5 -35.5t87.5 -97.5 l28 115h105l-107 -498q-20 -94 -20 -150q0 -71 61 -71q104 0 193 151q90 156 90 334q0 239 -150 383q-147 144 -395 144q-308 0 -534 -226q-224 -224 -224 -551q0 -273 179 -446q180 -174 469 -174q324 0 559 168h8l-23 -119q-236 -145 -557 -145q-336 0 -540 198 q-205 196 -205 518zM580 426q0 -211 211 -211q84 0 168 55.5t137 151.5l53 250q-13 83 -67.5 127.5t-137.5 44.5q-121 0 -225 -96q-62 -57 -100.5 -146t-38.5 -176z" />
<glyph unicode="A" horiz-adv-x="1488" d="M6 0v137h152l518 1274h143l508 -1274h156v-137h-535v137h207l-117 293h-604l-119 -293h217v-137h-526zM485 565h502q-194 502 -246 656q-52 -144 -256 -656z" />
<glyph unicode="B" horiz-adv-x="1323" d="M68 0v137h186v1137h-186v137h495q147 0 215 -8q167 -14 261 -99t94 -231q0 -129 -53 -206t-175 -124q312 -53 312 -337q0 -130 -66.5 -226t-187.5 -139q-109 -41 -365 -41h-530zM410 137h206q193 0 291 39q156 64 156 240q0 77 -42.5 134.5t-115.5 80.5q-110 35 -272 35 h-223v-529zM410 799h196q189 0 254 35q121 65 121 219q0 163 -168 200q-94 21 -225 21h-178v-475z" />
<glyph unicode="C" horiz-adv-x="1413" d="M106 707q0 229 107 397q104 167 271.5 252.5t373.5 85.5q119 0 238 -35q122 -36 176 -90l10 -320h-137l-17 242q-122 61 -276 61q-250 0 -420 -159q-168 -158 -168 -426q0 -287 164 -443q165 -157 420 -157q246 0 426 157h8v-168q-74 -58 -196 -95.5t-248 -37.5 q-320 0 -525 199q-207 201 -207 537z" />
<glyph unicode="D" horiz-adv-x="1560" d="M68 0v137h186v1137h-186v137h559q226 0 391 -47q207 -58 321.5 -220.5t114.5 -420.5q0 -507 -428 -660q-171 -63 -451 -63h-507zM410 137h186q289 0 444 88q256 142 256 494q0 175 -78.5 309.5t-222.5 188.5q-140 57 -366 57h-219v-1137z" />
<glyph unicode="E" horiz-adv-x="1224" d="M68 0v137h186v1137h-186v137h1005l8 -315h-135l-14 178h-522v-469h546v-139h-546v-529h571l14 197h138l-11 -334h-1054z" />
<glyph unicode="F" horiz-adv-x="1153" d="M68 0v137h186v1137h-186v137h1005l8 -315h-135l-14 178h-522v-512h530v-139h-530v-486h225v-137h-567z" />
<glyph unicode="G" horiz-adv-x="1503" d="M104 707q0 342 220 538q218 197 534 197q131 0 253.5 -32t188.5 -87l9 -315h-135l-19 233q-133 59 -299 59q-258 0 -424 -153t-166 -430q0 -286 164 -445q165 -157 422 -157q189 0 330 69v387h-240v142h510v-142h-117v-462q-205 -138 -501 -138q-316 0 -523 195 q-207 198 -207 541z" />
<glyph unicode="H" horiz-adv-x="1589" d="M68 0v137h186v1137h-186v137h532v-137h-190v-469h768v469h-191v137h533v-137h-187v-1137h187v-137h-533v137h191v529h-768v-529h190v-137h-532z" />
<glyph unicode="I" horiz-adv-x="665" d="M68 0v137h186v1137h-186v137h530v-137h-188v-1137h188v-137h-530z" />
<glyph unicode="J" horiz-adv-x="888" d="M47 27v149h8q88 -61 205 -61q152 0 205 96q33 59 33 266v797h-201v137h532v-137h-174v-811q0 -233 -43 -320q-82 -172 -338 -172q-132 0 -227 56z" />
<glyph unicode="K" horiz-adv-x="1454" d="M68 0v137h186v1137h-186v137h532v-137h-190v-584l548 584h-131v137h516v-137h-192l-406 -420l478 -717h204v-137h-315l-479 733l-223 -227v-369h190v-137h-532z" />
<glyph unicode="L" horiz-adv-x="1212" d="M68 0v137h186v1137h-186v137h540v-137h-198v-1137h555l14 209h137l-8 -346h-1040z" />
<glyph unicode="M" horiz-adv-x="1835" d="M68 0v137h186v1137h-186v137h372q425 -787 492 -922q127 255 485 922h350v-137h-178v-1137h178v-137h-532v137h199q0 891 6 1041q-51 -106 -467 -881h-105q-126 244 -237 448l-152 281l-80 154q9 -252 9 -1043h188v-137h-528z" />
<glyph unicode="N" horiz-adv-x="1570" d="M68 0v137h186v1137h-186v137h350q698 -986 778 -1112q-8 260 -8 975h-193v137h533v-137h-182v-1274h-132l-808 1178q4 -356 4 -1041h190v-137h-532z" />
<glyph unicode="O" horiz-adv-x="1656" d="M106 707q0 310 209 522q213 213 516 213q317 0 517 -209q202 -205 202 -526q0 -312 -207 -525q-205 -211 -518 -211q-308 0 -514 209q-205 211 -205 527zM264 705q0 -256 164 -426q163 -166 403 -166q249 0 404 168q160 171 160 424q0 249 -160 423q-156 172 -406 172 q-240 0 -403 -172q-162 -171 -162 -423z" />
<glyph unicode="P" horiz-adv-x="1335" d="M68 0v137h186v1137h-186v137h604q210 0 332 -43q105 -38 165 -136.5t60 -234.5q0 -319 -271 -411q-116 -39 -296 -39h-252v-410h223v-137h-565zM410 684h243q192 0 279 43q139 68 139 266q0 178 -139 240q-90 41 -266 41h-256v-590z" />
<glyph unicode="Q" horiz-adv-x="1656" d="M106 707q0 310 209 522q213 213 516 213q317 0 517 -209q202 -205 202 -526q0 -206 -95 -375.5t-261 -263.5l315 -250l-106 -125l-377 305q-102 -27 -201 -27q-308 0 -514 209q-205 211 -205 527zM264 705q0 -256 164 -426q163 -166 403 -166q249 0 404 168 q160 171 160 424q0 249 -160 423q-156 172 -406 172q-240 0 -403 -172q-162 -171 -162 -423z" />
<glyph unicode="R" horiz-adv-x="1374" d="M68 0v137h186v1137h-186v137h571q226 0 336 -39q107 -37 167 -128.5t60 -223.5q0 -153 -81 -251.5t-230 -137.5l285 -494h180v-137h-287l-334 602q-102 -4 -121 -4h-204v-461h190v-137h-532zM410 733h211q191 0 282 39q141 62 141 240q0 161 -133 223q-79 39 -274 39 h-227v-541z" />
<glyph unicode="S" horiz-adv-x="1179" d="M80 414h133l14 -207q166 -90 351 -90q360 0 360 250q0 89 -68.5 141.5t-244.5 107.5l-207 64q-305 92 -305 362q0 179 143 289q144 111 383 111q106 0 227 -31q116 -29 168 -78l10 -307h-133l-16 213q-131 61 -281 61q-172 0 -258 -66.5t-86 -176.5q0 -90 58 -148 t196 -98l230 -70q181 -56 261.5 -139t80.5 -221q0 -177 -131 -293q-132 -117 -396 -117q-302 0 -479 148z" />
<glyph unicode="T" horiz-adv-x="1277" d="M63 1075l9 336h1132l8 -336h-135l-14 193h-356v-1131h188v-137h-530v137h186v1131h-338l-14 -193h-136z" />
<glyph unicode="U" horiz-adv-x="1576" d="M43 1274v137h535v-137h-199v-639q0 -244 59 -356q39 -74 134 -119t223 -45q239 0 346 155q69 100 69 357v647h-206v137h528v-137h-176v-662q0 -268 -72 -397q-66 -109 -196 -176.5t-297 -67.5q-180 0 -315.5 67t-194.5 189q-58 113 -58 381v666h-180z" />
<glyph unicode="V" horiz-adv-x="1497" d="M8 1274v137h533v-137h-197q296 -731 414 -1065q116 324 411 1065h-213v137h533v-137h-158l-512 -1274h-141l-510 1274h-160z" />
<glyph unicode="W" horiz-adv-x="2148" d="M20 1274v137h535v-137h-205q230 -805 283 -1030q76 268 377 1167h137q328 -1004 371 -1167q57 222 286 1030h-211v137h533v-137h-158l-383 -1274h-143q-280 873 -373 1186q-57 -196 -379 -1186h-143l-371 1274h-156z" />
<glyph unicode="X" horiz-adv-x="1533" d="M29 0v137h178l457 604l-398 533h-166v137h531v-137h-168l311 -426l307 426h-190v137h534v-137h-168l-395 -529l463 -608h176v-137h-538v137h163q-294 387 -370 496l-369 -496h182v-137h-540z" />
<glyph unicode="Y" horiz-adv-x="1411" d="M6 1274v137h533v-137h-183q228 -360 351 -567q56 101 358 567h-193v137h533v-137h-166l-461 -705v-432h193v-137h-541v137h191v432l-451 705h-164z" />
<glyph unicode="Z" horiz-adv-x="1304" d="M66 0v90l929 1178h-725l-12 -195h-135l8 338h1083v-100l-925 -1170h792l15 209h137l-10 -350h-1157z" />
<glyph unicode="[" horiz-adv-x="614" d="M166 -334v1841h403v-104h-268v-1632h268v-105h-403z" />
<glyph unicode="\" horiz-adv-x="792" d="M-18 1497h127l698 -1614h-127z" />
<glyph unicode="]" horiz-adv-x="591" d="M23 -227h266v1632h-266v104h401v-1841h-401v105z" />
<glyph unicode="^" horiz-adv-x="1449" d="M272 575l383 807h138l385 -807h-134l-321 670l-317 -670h-134z" />
<glyph unicode="_" horiz-adv-x="1073" d="M0 -160h1073v-100h-1073v100z" />
<glyph unicode="`" horiz-adv-x="430" d="M-23 1511v9h213l265 -330v-8h-142z" />
<glyph unicode="a" horiz-adv-x="1144" d="M84 285q0 190 188 264q128 49 344 49q88 0 158 -12v57q0 114 -37 166q-60 84 -221 84q-91 0 -192 -39q-104 -37 -166 -111h-8v154q71 68 175.5 105.5t215.5 37.5q208 0 295 -100q86 -92 86 -293v-512h180v-135h-318v135q-50 -76 -139.5 -119t-200.5 -43q-162 0 -261 87.5 t-99 224.5zM240 289q0 -81 62 -129.5t173 -48.5q96 0 179 44t120 113v195q-94 16 -168 16q-156 0 -244 -30q-122 -40 -122 -160z" />
<glyph unicode="b" horiz-adv-x="1320" d="M6 1356v135h330v-668q50 95 160 156t237 61q220 0 359 -145t139 -385q0 -237 -150 -387t-364 -150q-128 0 -229.5 50t-157.5 137l-4 -160h-138v1356h-182zM336 346q38 -105 142 -170t229 -65q164 0 268 110t104 289t-106 285t-264 106q-124 0 -228 -70 q-104 -67 -145 -182v-303z" />
<glyph unicode="c" horiz-adv-x="1097" d="M90 500q0 235 158 387q156 153 397 153q94 0 185.5 -27.5t138.5 -70.5v-270h-125l-10 184q-91 45 -199 45q-167 0 -279 -106q-114 -105 -114 -289q0 -190 116 -291q116 -98 277 -98q203 0 336 127h8v-162q-136 -109 -358 -109q-231 0 -381 144t-150 383z" />
<glyph unicode="d" horiz-adv-x="1366" d="M90 498q0 253 158 399q158 143 370 143q253 0 367 -170v486h-182v135h330v-1356h182v-135h-326v180q-52 -95 -150.5 -151t-234.5 -56q-210 0 -362 140q-152 143 -152 385zM242 500q0 -189 112 -289q113 -98 267 -98q127 0 224.5 63.5t139.5 181.5v312 q-40 112 -136.5 172.5t-217.5 60.5q-161 0 -275 -102t-114 -301z" />
<glyph unicode="e" horiz-adv-x="1140" d="M90 500q0 249 150 393q150 147 360 147q215 0 333 -125t120 -348q0 -71 -6 -112h-803q12 -152 119.5 -245t287.5 -93q224 0 365 135h8v-158q-60 -54 -170 -88q-106 -33 -217 -33q-247 0 -399 146q-148 145 -148 381zM246 584h657v16q0 143 -83 224t-232 81 q-122 0 -223 -82q-104 -81 -119 -239z" />
<glyph unicode="f" horiz-adv-x="692" d="M57 0v135h183v739h-183v138h183v116q0 193 90 289q99 99 270 99q108 0 172 -46v-141h-8q-64 49 -158 49q-113 0 -174 -67q-45 -51 -45 -187v-112h279v-138h-279v-739h234v-135h-564z" />
<glyph unicode="g" horiz-adv-x="1339" d="M90 500q0 110 32 202t84 153.5t121 104t141 61.5t146 19q120 0 213.5 -49t135.5 -131v152h317v-135h-176v-768q0 -207 -74 -328q-123 -205 -452 -205q-238 0 -385 123v168h8q151 -148 385 -148q218 0 309 123q63 81 63 269v90q-44 -89 -140.5 -145t-223.5 -56 q-216 0 -361 133q-143 131 -143 367zM242 502q0 -176 106 -269q107 -94 266 -94q118 0 209.5 60.5t132.5 165.5v319q-38 103 -129 161t-209 58q-156 0 -266 -104q-110 -101 -110 -297z" />
<glyph unicode="h" horiz-adv-x="1314" d="M51 0v135h182v1221h-182v135h330v-641q110 186 362 186q134 0 218.5 -57.5t109.5 -161.5q21 -82 21 -223v-459h180v-135h-512v135h184v436q0 151 -31 211q-61 113 -211 113q-98 0 -188 -53t-133 -135v-572h180v-135h-510z" />
<glyph unicode="i" horiz-adv-x="614" d="M61 0v135h183v742h-183v135h330v-877h180v-135h-510zM190 1343q0 51 34 79.5t74 28.5t74 -28.5t34 -79.5q0 -49 -30.5 -78.5t-78.5 -29.5q-46 0 -76.5 29t-30.5 79z" />
<glyph unicode="j" horiz-adv-x="542" d="M-106 -244h8q62 -47 145 -47q86 0 121 41q39 45 39 207v920h-182v135h329v-1057q0 -219 -55 -289q-78 -96 -229 -96q-111 0 -176 41v145zM154 1343q0 51 33.5 79.5t73 28.5t73 -28.5t33.5 -79.5q1 -6 1 -12q0 -57 -52 -83q-28 -14 -57 -14q-27 0 -55 14q-51 24 -51 82 q0 6 1 13z" />
<glyph unicode="k" horiz-adv-x="1187" d="M51 0v135h182v1221h-182v135h330v-967l375 353h-99v135h459v-135h-178l-291 -265l350 -477h166v-135h-256l-364 512l-162 -147v-230h180v-135h-510z" />
<glyph unicode="l" horiz-adv-x="604" d="M51 0v135h182v1221h-182v135h330v-1356h180v-135h-510z" />
<glyph unicode="m" horiz-adv-x="1982" d="M61 0v135h183v742h-183v135h328v-166q51 87 145 138.5t214 51.5q245 0 303 -192q54 87 150.5 139.5t225.5 52.5q264 0 316 -217q20 -70 20 -223v-461h176v-135h-507v135h184v438q0 140 -29 209q-52 113 -201 113q-101 0 -184 -51t-127 -135q4 -66 4 -117v-457h183v-135 h-508v135h178v438q0 140 -29 209q-52 113 -196 113q-101 0 -186 -51.5t-130 -134.5v-574h182v-135h-512z" />
<glyph unicode="n" horiz-adv-x="1325" d="M61 0v135h183v742h-183v135h328v-166q51 88 145.5 139t219.5 51q133 0 217.5 -57.5t109.5 -161.5q21 -74 21 -223v-459h180v-135h-514v135h186v436q0 155 -30 211q-58 113 -209 113q-98 0 -189.5 -53t-134.5 -135v-572h187v-135h-517z" />
<glyph unicode="o" horiz-adv-x="1241" d="M90 506q0 227 154 381q156 153 381 153q233 0 379 -149q147 -150 147 -385q0 -227 -154 -381q-152 -152 -379 -152q-226 0 -378 152q-150 153 -150 381zM242 506q0 -172 108 -283q107 -110 273 -110q167 0 270 112q106 112 106 281q0 168 -106 280q-106 115 -270 115 q-161 0 -273 -115q-108 -114 -108 -280z" />
<glyph unicode="p" horiz-adv-x="1339" d="M37 -262h170v1139h-170v135h315v-193q46 94 160 158q111 63 244 63q205 0 350 -139q143 -137 143 -383q0 -254 -151 -393t-367 -139q-117 0 -220.5 49t-156.5 133v-430h207v-135h-524v135zM354 360q48 -114 150 -174.5t225 -60.5q153 0 260 98q109 103 109 295t-115 287 q-116 96 -254 96q-123 0 -228 -65t-147 -183v-293z" />
<glyph unicode="q" horiz-adv-x="1374" d="M90 500q0 253 158 399q158 143 366 143q120 0 218 -47.5t153 -134.5v152h318v-135h-175v-1139h175v-135h-529v135h207v465q-43 -97 -148 -156t-233 -59q-213 0 -362 131q-148 133 -148 381zM242 502q0 -193 106 -283q109 -92 264 -92q122 0 222.5 65.5t142.5 180.5v297 q-40 114 -136 173.5t-220 59.5q-150 0 -265 -100q-114 -102 -114 -301z" />
<glyph unicode="r" horiz-adv-x="851" d="M61 0v135h183v742h-183v135h328v-162q25 79 97.5 134.5t170.5 55.5q79 0 131 -34v-160h-8q-51 39 -133 39q-185 0 -256 -185v-565h221v-135h-551z" />
<glyph unicode="s" horiz-adv-x="1001" d="M98 348h121l21 -182q116 -55 264 -55q252 0 252 147q0 66 -44.5 102.5t-162.5 65.5l-193 45q-231 59 -231 272q0 134 112 215.5t300 81.5q76 0 182 -28q101 -27 141 -64l2 -254h-121l-12 166q-105 45 -205 45q-250 0 -250 -151q0 -114 166 -154l205 -49 q138 -32 200 -98.5t62 -178.5q0 -133 -107 -217t-300 -84q-103 0 -217 27q-109 27 -172 80z" />
<glyph unicode="t" horiz-adv-x="710" d="M31 874v138h172l6 295h139v-295h293v-138h-293v-552q0 -104 29 -148q37 -57 145 -57q105 0 164 41h8v-135q-64 -46 -213 -46q-73 0 -135.5 26t-91.5 69q-53 77 -53 235v567h-170z" />
<glyph unicode="u" horiz-adv-x="1296" d="M20 877v135h326v-559q0 -148 31 -224q53 -114 221 -114q210 0 324 176v586h-193v135h340v-877h174v-135h-315v150q-109 -177 -361 -177q-288 0 -346 217q-22 86 -22 242v445h-179z" />
<glyph unicode="v" horiz-adv-x="1167" d="M6 877v135h465v-135h-160l277 -689q60 170 280 689h-161v135h454v-135h-141l-381 -877h-123l-373 877h-137z" />
<glyph unicode="w" horiz-adv-x="1679" d="M8 877v135h465v-135h-170q163 -516 203 -658q65 203 278 793h123q263 -711 287 -795q55 204 197 660h-177v135h455v-135h-131l-289 -877h-119q-248 684 -292 813q-46 -150 -285 -813h-123l-289 877h-133z" />
<glyph unicode="x" horiz-adv-x="1159" d="M20 0v135h154l293 385l-258 357h-160v135h256l279 -408l192 273h-125v135h455v-135h-166l-262 -349l289 -393h170v-135h-263l-315 442l-223 -307h143v-135h-459z" />
<glyph unicode="y" horiz-adv-x="1169" d="M8 877v135h461v-135h-156q212 -509 287 -711q84 227 277 711h-175v135h461v-135h-137l-369 -912q-88 -216 -127 -274q-85 -129 -254 -129q-102 0 -163 37v139h8q45 -39 147 -39q100 0 152 76q38 58 74 153l26 74l-375 875h-137z" />
<glyph unicode="z" horiz-adv-x="1017" d="M78 0v94l651 785h-471l-8 -183h-135l4 316h807v-103q-543 -655 -656 -778h537l14 188h133l-6 -319h-870z" />
<glyph unicode="{" horiz-adv-x="714" d="M63 539v96q121 15 162 78q43 64 43 237v238q0 190 84 262q82 70 244 70h78v-103h-82q-94 0 -141.5 -52t-47.5 -179v-230q0 -137 -22 -217q-21 -73 -55 -100q-37 -25 -109 -51q100 -21 143 -101q43 -76 43 -272v-227q0 -129 47.5 -180.5t143.5 -51.5h80v-102h-78 q-81 0 -133.5 12.5t-100.5 46.5q-94 64 -94 273v233q0 182 -45 242q-45 63 -160 78z" />
<glyph unicode="|" horiz-adv-x="466" d="M166 -377v1944h133v-1944h-133z" />
<glyph unicode="}" horiz-adv-x="684" d="M23 -246h69q94 0 142.5 52.5t48.5 179.5v233q0 145 20 215q21 78 55 101q31 24 109 53q-98 20 -143 100q-41 77 -41 275v231q0 127 -49 179t-146 52h-65v101h65q161 0 244 -68q84 -66 84 -262v-240q0 -182 43 -243t157 -76v-94q-120 -18 -161 -80q-39 -59 -39 -238v-239 q0 -193 -84 -265q-81 -69 -244 -69h-65v102z" />
<glyph unicode="~" horiz-adv-x="1433" d="M176 543q156 211 322 211q81 0 245 -95q121 -71 201 -71q63 0 114 38t111 130l88 -66q-73 -118 -146 -170.5t-169 -52.5q-103 0 -242 80q-149 88 -211 88q-112 0 -229 -164z" />
<glyph unicode="&#xa1;" horiz-adv-x="587" d="M143 942q-5 68 55 97.5t120 1t55 -98.5q0 -53 -34 -85t-81 -32q-49 0 -82 31t-33 86zM172 -379q0 143 27 979h120q29 -888 29 -979h-176z" />
<glyph unicode="&#xa2;" horiz-adv-x="1118" d="M154 500q0 210 120 348q120 141 316 168v213h92v-207q96 -2 184.5 -29.5t130.5 -70.5l7 -256h-123l-9 176q-90 40 -190 43v-760q197 3 317 123h9v-150q-119 -104 -326 -110v-213h-92v217q-189 21 -314 155q-122 134 -122 353zM307 506q0 -154 78 -250.5t205 -122.5v744 q-129 -24 -206 -120.5t-77 -250.5z" />
<glyph unicode="&#xa3;" horiz-adv-x="1230" d="M123 0v106q270 141 270 332q0 74 -24 133h-211v117h176q-66 192 -66 301q0 187 124 294.5t353 107.5q210 0 330 -99v-168h-8q-127 127 -322 127q-313 0 -313 -262q0 -97 68 -301h432v-117h-402q19 -84 19 -139q0 -173 -187 -293h664l12 183h121l-8 -322h-1028z" />
<glyph unicode="&#xa4;" horiz-adv-x="1236" d="M139 1057l90 86l133 -137q109 86 259 86q149 0 253 -82l136 137l86 -88l-133 -139q88 -110 88 -263q0 -158 -88 -262l135 -141l-90 -86l-131 139q-115 -86 -263 -86q-147 0 -254 78l-133 -133l-86 88l135 139q-88 104 -88 262q0 144 86 265zM315 662q0 -141 85.5 -229.5 t220.5 -88.5q130 0 215 88q86 89 86 225q0 137 -86 226q-82 88 -215 88q-132 0 -220 -88q-86 -89 -86 -221z" />
<glyph unicode="&#xa5;" horiz-adv-x="1380" d="M23 1217v137h522v-137h-183q245 -380 326 -527q34 59 336 527h-184v137h518v-137h-162l-276 -420h231v-92h-291l-100 -154v-27h391v-94h-391v-293h196v-137h-544v137h192v293h-379v94h379v27l-98 154h-281v92h224l-273 420h-153z" />
<glyph unicode="&#xa6;" horiz-adv-x="466" d="M166 -193v674h133v-674h-133zM166 791v673h133v-673h-133z" />
<glyph unicode="&#xa7;" horiz-adv-x="1013" d="M96 657q0 95 59 165t156 100q-135 94 -135 249q0 118 92 207q93 90 283 90q92 0 175.5 -27t131.5 -71v-158h-8q-126 129 -305 129q-106 0 -160.5 -44t-54.5 -115q0 -56 31.5 -98.5t105.5 -84.5q10 -6 25.5 -14.5t39.5 -21.5t43 -23q159 -78 246 -145q111 -82 111 -230 q0 -90 -54 -160.5t-145 -101.5q139 -95 139 -246q0 -143 -105.5 -230t-291.5 -87q-236 0 -375 127v162h9q68 -72 170.5 -114t201.5 -42q114 0 174 44t60 124q0 96 -113 166q-36 24 -174 96q-127 66 -184 107q-148 103 -148 247zM242 684q0 -100 118 -172q144 -88 275 -147 q64 18 106.5 65t42.5 113q0 97 -118 172q-25 17 -80 45q-80 44 -109 57l-74 39q-52 -3 -108 -53q-53 -50 -53 -119z" />
<glyph unicode="&#xa8;" horiz-adv-x="430" d="M-59 1343q0 45 29 73t69 28q39 0 67.5 -28t28.5 -73q0 -43 -26.5 -69.5t-69.5 -26.5t-70.5 26.5t-27.5 69.5zM295 1343q0 47 30.5 74t66.5 27t66.5 -27t30.5 -74q0 -43 -27.5 -69.5t-70.5 -26.5q-42 0 -69 27t-27 69z" />
<glyph unicode="&#xa9;" horiz-adv-x="1695" d="M104 707q0 311 213 524t529 213q326 0 534 -211q211 -208 211 -526q0 -312 -213 -525q-211 -211 -530 -211q-322 0 -533 211t-211 525zM182 707q0 -286 189 -478q187 -190 477 -190t477 190q191 191 191 478q0 286 -191 477q-186 192 -479 192q-286 0 -475 -192 q-189 -195 -189 -477zM412 711q0 204 135 333q136 130 338 130q83 0 159.5 -23t112.5 -61v-236h-108l-9 170q-81 35 -161 35q-139 0 -240 -94q-100 -90 -100 -250q0 -167 98 -258q103 -92 242 -92q166 0 274 102h8v-127q-116 -90 -295 -90q-194 0 -325 125 q-129 126 -129 336z" />
<glyph unicode="&#xaa;" horiz-adv-x="755" d="M74 778q0 128 116 174q79 33 226 33q50 0 94 -8v27q0 66 -21 100q-34 49 -127 49q-59 0 -124.5 -22.5t-104.5 -61.5h-8v115q101 82 256 82q121 0 186 -62q58 -58 58 -184v-324h102v-98h-211v80q-70 -98 -207 -98q-104 0 -169.5 55.5t-65.5 142.5zM193 778q0 -45 35 -72.5 t100 -27.5q117 0 182 92v111q-52 10 -100 10q-101 -3 -162 -27q-55 -27 -55 -86z" />
<glyph unicode="&#xab;" horiz-adv-x="923" d="M49 516l283 377h160l-279 -377l281 -377h-160zM418 516l282 377h158l-278 -377l280 -377h-158z" />
<glyph unicode="&#xac;" horiz-adv-x="1433" d="M168 547v115h1065v-590h-117v475h-948z" />
<glyph unicode="&#xad;" horiz-adv-x="655" d="M82 489v138h493v-138h-493z" />
<glyph unicode="&#xae;" horiz-adv-x="1695" d="M104 707q0 311 213 524t529 213q326 0 534 -211q211 -208 211 -526q0 -312 -213 -525q-211 -211 -530 -211q-322 0 -533 211t-211 525zM182 707q0 -286 189 -478q187 -190 477 -190t477 190q191 191 191 478q0 286 -191 477q-186 192 -479 192q-286 0 -475 -192 q-189 -195 -189 -477zM461 270v99h119v680h-119v100h383q130 0 207 -25q143 -52 143 -227q0 -173 -178 -231l166 -297h121v-99h-197l-207 373q-25 -2 -205 -2v-272h115v-99h-348zM694 737h121q116 0 180 25q78 31 78 135q0 107 -86 137q-44 13 -160 13h-133v-310z" />
<glyph unicode="&#xaf;" horiz-adv-x="430" d="M-84 1210v125h598v-125h-598z" />
<glyph unicode="&#xb0;" horiz-adv-x="638" d="M41 1174q0 123 80.5 203.5t200.5 80.5q123 0 198.5 -77.5t75.5 -200.5q0 -122 -82 -201q-83 -80 -199 -80t-196 80q-78 81 -78 195zM133 1176q0 -83 50.5 -138t133.5 -55q84 0 135.5 56t51.5 143q0 81 -51.5 135.5t-135.5 54.5t-134 -55t-50 -141z" />
<glyph unicode="&#xb1;" horiz-adv-x="1433" d="M184 0v115h1065v-115h-1065zM184 727v115h475v456h115v-456h475v-115h-475v-463h-112v463h-478z" />
<glyph unicode="&#xb2;" horiz-adv-x="808" d="M63 819v70q222 181 334 293q121 121 121 235q0 70 -45 113t-127 43q-144 0 -252 -123h-8v121q107 110 272 110q138 0 212.5 -66t74.5 -183q0 -139 -127 -275q-38 -41 -123 -117q-67 -60 -145 -118q72 2 364 2l11 133h94l-6 -238h-650z" />
<glyph unicode="&#xb3;" horiz-adv-x="808" d="M106 872v129h9q92 -92 241 -92q203 0 203 152q0 43 -28 77.5t-78 47.5q-55 14 -144 14h-37v103h39q102 0 150 26q69 37 69 117q0 59 -41.5 93t-121.5 34q-64 0 -129.5 -27t-106.5 -76h-8v119q43 41 114.5 66.5t143.5 25.5q278 0 278 -227q0 -66 -44 -118.5t-119 -75.5 q89 -18 140.5 -69.5t51.5 -129.5q0 -121 -88 -191q-84 -69 -242 -69q-157 0 -252 71z" />
<glyph unicode="&#xb4;" horiz-adv-x="430" d="M-23 1182v8l263 330h204v-9l-327 -329h-140z" />
<glyph unicode="&#xb5;" horiz-adv-x="1208" d="M172 -432v1442h147v-561q0 -161 33 -220q62 -108 221 -108q103 0 190 47t134 129v713h147v-1010h-141v156q-108 -179 -340 -179q-176 0 -241 103v-512h-150z" />
<glyph unicode="&#xb6;" horiz-adv-x="1142" d="M88 924q0 487 594 487h313v-1706h-86v1628h-237v-1628h-86v762q-233 0 -365 129q-133 130 -133 328z" />
<glyph unicode="&#xb7;" horiz-adv-x="421" d="M98 528q0 55 33 86t82 31q47 0 80 -31.5t33 -85.5q5 -67 -55 -96t-119.5 -1t-53.5 97z" />
<glyph unicode="&#xb8;" horiz-adv-x="430" d="M14 -362h9q56 -44 133 -44q129 0 129 99q0 42 -34.5 68t-94.5 26q-44 0 -78 -12l-6 4l71 241h105l-45 -145h10q90 0 145.5 -46.5t55.5 -129.5q0 -98 -66.5 -153.5t-183.5 -55.5q-94 0 -150 41v107z" />
<glyph unicode="&#xb9;" horiz-adv-x="808" d="M176 1442v112l217 119h94v-751h156v-103h-455v103h177v618z" />
<glyph unicode="&#xba;" horiz-adv-x="804" d="M59 928q0 160 107 248q110 90 237 90q142 0 242 -86q98 -82 98 -248q0 -170 -102 -258q-104 -90 -244 -90q-136 0 -237 88t-101 256zM178 928q0 -116 63 -178t160 -62q98 0 162 64t64 178q0 115 -62 174t-166 59q-96 0 -158.5 -62t-62.5 -173z" />
<glyph unicode="&#xbb;" horiz-adv-x="923" d="M61 893h160l285 -377l-283 -377h-160l279 377zM428 893h160l284 -377l-282 -377h-160l279 377z" />
<glyph unicode="&#xbc;" horiz-adv-x="1746" d="M168 1141v112l217 119h94v-751h156v-103h-455v103h176v618zM487 -25l691 1422h104l-688 -1422h-107zM932 221v82l444 559h101v-530h145v-111h-145v-221h-119v221h-426zM1071 332h287q0 232 6 373q-65 -97 -293 -373z" />
<glyph unicode="&#xbd;" horiz-adv-x="1746" d="M137 1141v112l217 119h95v-751h155v-103h-454v103h176v618zM451 -25l690 1422h104l-688 -1422h-106zM1018 0v70q228 186 334 292q121 121 121 236q0 70 -45.5 113t-127.5 43q-143 0 -251 -123h-9v121q107 110 273 110q138 0 212 -66.5t74 -183.5q0 -139 -126 -274 q-37 -40 -123 -117q-69 -62 -146 -119q72 2 365 2l10 134h94l-6 -238h-649z" />
<glyph unicode="&#xbe;" horiz-adv-x="1746" d="M129 571v129h8q92 -92 242 -92q203 0 203 152q0 42 -28.5 77t-78.5 48q-55 14 -143 14h-37v102h39q100 0 149 27q70 37 70 117q0 59 -42 93t-122 34q-63 0 -128.5 -27t-106.5 -76h-9v119q43 41 114.5 66.5t143.5 25.5q279 0 279 -227q0 -66 -44.5 -119t-119.5 -76 q90 -18 141.5 -69t51.5 -129q0 -121 -88 -191q-84 -69 -242 -69q-157 0 -252 71zM508 -25l690 1422h105l-689 -1422h-106zM942 221v82l444 559h101v-530h145v-111h-145v-221h-119v221h-426zM1081 332h287q0 232 6 373q-65 -97 -293 -373z" />
<glyph unicode="&#xbf;" horiz-adv-x="858" d="M47 -76q0 106 59.5 193.5t210.5 195.5q83 61 103 119q26 67 29 168h120q0 -86 -6 -133q-5 -50 -38.5 -109.5t-92.5 -105.5q-121 -91 -172 -162t-51 -149q0 -101 62.5 -156t185.5 -55q181 0 321 149h8v-151q-60 -61 -159 -99.5t-193 -38.5q-189 0 -288 85t-99 249z M393 942q0 49 32.5 81t82.5 32q48 0 80.5 -31.5t32.5 -81.5q0 -55 -35.5 -86t-78.5 -31.5t-78.5 31t-35.5 86.5z" />
<glyph unicode="&#xc0;" horiz-adv-x="1488" d="M6 0v137h152l518 1274h143l508 -1274h156v-137h-535v137h207l-117 293h-604l-119 -293h217v-137h-526zM389 1802v8h238l313 -266v-8h-164zM485 565h502q-194 502 -246 656q-52 -144 -256 -656z" />
<glyph unicode="&#xc1;" horiz-adv-x="1488" d="M6 0v137h152l518 1274h143l508 -1274h156v-137h-535v137h207l-117 293h-604l-119 -293h217v-137h-526zM485 565h502q-194 502 -246 656q-52 -144 -256 -656zM582 1536v8l311 266h237v-8l-385 -266h-163z" />
<glyph unicode="&#xc2;" horiz-adv-x="1488" d="M6 0v137h152l518 1274h143l508 -1274h156v-137h-535v137h207l-117 293h-604l-119 -293h217v-137h-526zM399 1536v8l295 266h99l292 -266v-8h-153l-195 143l-182 -143h-156zM485 565h502q-194 502 -246 656q-52 -144 -256 -656z" />
<glyph unicode="&#xc3;" horiz-adv-x="1488" d="M6 0v137h152l518 1274h143l508 -1274h156v-137h-535v137h207l-117 293h-604l-119 -293h217v-137h-526zM408 1542q7 116 61.5 178t138.5 62q66 0 158 -62q74 -51 125 -51q73 0 82 117h110q-7 -119 -60 -183.5t-130 -64.5q-69 0 -168 57q-95 56 -125 56q-65 0 -80 -109 h-112zM485 565h502q-194 502 -246 656q-52 -144 -256 -656z" />
<glyph unicode="&#xc4;" horiz-adv-x="1488" d="M6 0v137h152l518 1274h143l508 -1274h156v-137h-535v137h207l-117 293h-604l-119 -293h217v-137h-526zM463 1655q0 47 30.5 74t66.5 27t66.5 -27t30.5 -74q0 -43 -27.5 -69.5t-70.5 -26.5q-42 0 -69 27t-27 69zM485 565h502q-194 502 -246 656q-52 -144 -256 -656z M829 1655q0 46 28 73t71 27q39 0 67.5 -27.5t28.5 -72.5q0 -43 -27.5 -69.5t-70.5 -26.5q-42 0 -69.5 27t-27.5 69z" />
<glyph unicode="&#xc5;" horiz-adv-x="1488" d="M6 0v137h152l518 1274h143l508 -1274h156v-137h-535v137h207l-117 293h-604l-119 -293h217v-137h-526zM485 565h502q-194 502 -246 656q-52 -144 -256 -656zM530 1673q0 87 61 144t152 57q90 0 147.5 -56.5t57.5 -144.5q0 -85 -60.5 -142.5t-148.5 -57.5t-148.5 57 t-60.5 143zM610 1673q0 -56 36 -92.5t97 -36.5q56 0 90.5 37t34.5 94t-36 92t-93 35t-93 -36.5t-36 -92.5z" />
<glyph unicode="&#xc6;" horiz-adv-x="2058" d="M4 0v137h146l765 1137h-229v137h1221l10 -315h-137l-13 180h-536v-475h555v-137h-555v-529h584l14 199h139l-10 -334h-1077v137h192v303h-534l-207 -303h203v-137h-531zM612 578h461v698q-51 -86 -461 -698z" />
<glyph unicode="&#xc7;" horiz-adv-x="1413" d="M106 707q0 229 107 397q104 167 271.5 252.5t373.5 85.5q119 0 238 -35q122 -36 176 -90l10 -320h-137l-17 242q-122 61 -276 61q-250 0 -420 -159q-168 -158 -168 -426q0 -287 164 -443q165 -157 420 -157q246 0 426 157h8v-168q-70 -58 -192.5 -95.5t-249.5 -37.5 q-29 0 -39 2l-31 -102h10q93 0 149 -50t56 -136q0 -98 -67.5 -153.5t-186.5 -55.5q-98 0 -151 41v108h8q55 -43 141 -43q125 0 125 101q0 45 -34.5 71.5t-96.5 26.5q-48 0 -80 -14l-6 4l61 211q-267 44 -428 235q-164 194 -164 490z" />
<glyph unicode="&#xc8;" horiz-adv-x="1224" d="M68 0v137h186v1137h-186v137h1005l8 -315h-135l-14 178h-522v-469h546v-139h-546v-529h571l14 197h138l-11 -334h-1054zM242 1802v8h237l314 -266v-8h-164z" />
<glyph unicode="&#xc9;" horiz-adv-x="1224" d="M68 0v137h186v1137h-186v137h1005l8 -315h-135l-14 178h-522v-469h546v-139h-546v-529h571l14 197h138l-11 -334h-1054zM459 1536v8l311 266h238v-8l-385 -266h-164z" />
<glyph unicode="&#xca;" horiz-adv-x="1224" d="M68 0v137h186v1137h-186v137h1005l8 -315h-135l-14 178h-522v-469h546v-139h-546v-529h571l14 197h138l-11 -334h-1054zM285 1536v8l295 266h98l293 -266v-8h-154l-194 143l-183 -143h-155z" />
<glyph unicode="&#xcb;" horiz-adv-x="1224" d="M68 0v137h186v1137h-186v137h1005l8 -315h-135l-14 178h-522v-469h546v-139h-546v-529h571l14 197h138l-11 -334h-1054zM360 1655q0 47 30.5 74t67 27t67 -27t30.5 -74q0 -43 -27.5 -69.5t-70.5 -26.5q-42 0 -69.5 27t-27.5 69zM727 1655q0 46 28 73t70 27q39 0 68 -27.5 t29 -72.5q0 -42 -28 -69t-71 -27q-42 0 -69 27t-27 69z" />
<glyph unicode="&#xcc;" horiz-adv-x="665" d="M-25 1802v8h238l313 -266v-8h-164zM68 0v137h186v1137h-186v137h530v-137h-188v-1137h188v-137h-530z" />
<glyph unicode="&#xcd;" horiz-adv-x="665" d="M68 0v137h186v1137h-186v137h530v-137h-188v-1137h188v-137h-530zM154 1536v8l311 266h237v-8l-385 -266h-163z" />
<glyph unicode="&#xce;" horiz-adv-x="665" d="M-10 1536v8l295 266h98l293 -266v-8h-154l-194 143l-183 -143h-155zM68 0v137h186v1137h-186v137h530v-137h-188v-1137h188v-137h-530z" />
<glyph unicode="&#xcf;" horiz-adv-x="665" d="M53 1655q0 47 30.5 74t67 27t67 -27t30.5 -74q0 -43 -27.5 -69.5t-70.5 -26.5q-42 0 -69.5 27t-27.5 69zM68 0v137h186v1137h-186v137h530v-137h-188v-1137h188v-137h-530zM420 1655q0 46 28 73t70 27q39 0 67.5 -27.5t28.5 -72.5q0 -43 -27.5 -69.5t-70.5 -26.5 q-42 0 -69 27t-27 69z" />
<glyph unicode="&#xd0;" horiz-adv-x="1560" d="M68 0v137h186v529h-184v135h184v473h-186v137h559q226 0 391 -47q207 -58 321.5 -220.5t114.5 -420.5q0 -507 -428 -660q-171 -63 -451 -63h-507zM410 137h186q289 0 444 88q256 142 256 494q0 175 -78.5 309.5t-222.5 188.5q-140 57 -366 57h-219v-473h430v-135h-430 v-529z" />
<glyph unicode="&#xd1;" horiz-adv-x="1570" d="M68 0v137h186v1137h-186v137h350q698 -986 778 -1112q-8 260 -8 975h-193v137h533v-137h-182v-1274h-132l-808 1178q4 -356 4 -1041h190v-137h-532zM475 1542q7 115 62 177.5t139 62.5q66 0 158 -62q74 -51 124 -51q73 0 82 117h111q-7 -119 -60 -183.5t-130 -64.5 q-69 0 -168 57q-95 56 -125 56q-65 0 -80 -109h-113z" />
<glyph unicode="&#xd2;" horiz-adv-x="1656" d="M106 707q0 310 209 522q213 213 516 213q317 0 517 -209q202 -205 202 -526q0 -312 -207 -525q-205 -211 -518 -211q-308 0 -514 209q-205 211 -205 527zM264 705q0 -256 164 -426q163 -166 403 -166q249 0 404 168q160 171 160 424q0 249 -160 423q-156 172 -406 172 q-240 0 -403 -172q-162 -171 -162 -423zM518 1802v8h238l313 -266v-8h-164z" />
<glyph unicode="&#xd3;" horiz-adv-x="1656" d="M106 707q0 310 209 522q213 213 516 213q317 0 517 -209q202 -205 202 -526q0 -312 -207 -525q-205 -211 -518 -211q-308 0 -514 209q-205 211 -205 527zM264 705q0 -256 164 -426q163 -166 403 -166q249 0 404 168q160 171 160 424q0 249 -160 423q-156 172 -406 172 q-240 0 -403 -172q-162 -171 -162 -423zM659 1536v8l312 266h237v-8l-385 -266h-164z" />
<glyph unicode="&#xd4;" horiz-adv-x="1656" d="M106 707q0 310 209 522q213 213 516 213q317 0 517 -209q202 -205 202 -526q0 -312 -207 -525q-205 -211 -518 -211q-308 0 -514 209q-205 211 -205 527zM264 705q0 -256 164 -426q163 -166 403 -166q249 0 404 168q160 171 160 424q0 249 -160 423q-156 172 -406 172 q-240 0 -403 -172q-162 -171 -162 -423zM504 1536v8l295 266h98l293 -266v-8h-154l-194 143l-183 -143h-155z" />
<glyph unicode="&#xd5;" horiz-adv-x="1656" d="M106 707q0 310 209 522q213 213 516 213q317 0 517 -209q202 -205 202 -526q0 -312 -207 -525q-205 -211 -518 -211q-308 0 -514 209q-205 211 -205 527zM264 705q0 -256 164 -426q163 -166 403 -166q249 0 404 168q160 171 160 424q0 249 -160 423q-156 172 -406 172 q-240 0 -403 -172q-162 -171 -162 -423zM502 1542q7 116 61.5 178t138.5 62q66 0 158 -62q74 -51 125 -51q73 0 82 117h111q-7 -119 -60.5 -183.5t-130.5 -64.5q-69 0 -168 57q-95 56 -125 56q-65 0 -80 -109h-112z" />
<glyph unicode="&#xd6;" horiz-adv-x="1656" d="M106 707q0 310 209 522q213 213 516 213q317 0 517 -209q202 -205 202 -526q0 -312 -207 -525q-205 -211 -518 -211q-308 0 -514 209q-205 211 -205 527zM264 705q0 -256 164 -426q163 -166 403 -166q249 0 404 168q160 171 160 424q0 249 -160 423q-156 172 -406 172 q-240 0 -403 -172q-162 -171 -162 -423zM559 1655q0 47 30.5 74t67 27t67 -27t30.5 -74q0 -42 -28 -69t-71 -27q-42 0 -69 27t-27 69zM926 1655q0 46 28 73t70 27q39 0 67.5 -27.5t28.5 -72.5q0 -43 -27.5 -69.5t-70.5 -26.5q-42 0 -69 27t-27 69z" />
<glyph unicode="&#xd7;" horiz-adv-x="1474" d="M285 252l368 366l-368 373l86 88l368 -370l369 368l82 -84l-369 -368l367 -367l-86 -88l-367 367l-368 -371z" />
<glyph unicode="&#xd8;" horiz-adv-x="1656" d="M106 707q0 310 209 522q213 213 516 213q186 0 343 -80l98 154h133l-137 -211q135 -101 208.5 -255.5t73.5 -342.5q0 -312 -207 -525q-205 -211 -518 -211q-196 0 -360 92l-94 -147h-129l133 207q-129 104 -199 254.5t-70 329.5zM264 705q0 -286 193 -455l635 987 q-114 63 -263 63q-240 0 -403 -172q-162 -171 -162 -423zM545 186q131 -73 286 -73q249 0 404 168q160 171 160 424q0 142 -55 265.5t-154 205.5z" />
<glyph unicode="&#xd9;" horiz-adv-x="1576" d="M43 1274v137h535v-137h-199v-639q0 -244 59 -356q39 -74 134 -119t223 -45q239 0 346 155q69 100 69 357v647h-206v137h528v-137h-176v-662q0 -268 -72 -397q-66 -109 -196 -176.5t-297 -67.5q-180 0 -315.5 67t-194.5 189q-58 113 -58 381v666h-180zM434 1802v8h238 l313 -266v-8h-164z" />
<glyph unicode="&#xda;" horiz-adv-x="1576" d="M43 1274v137h535v-137h-199v-639q0 -244 59 -356q39 -74 134 -119t223 -45q239 0 346 155q69 100 69 357v647h-206v137h528v-137h-176v-662q0 -268 -72 -397q-66 -109 -196 -176.5t-297 -67.5q-180 0 -315.5 67t-194.5 189q-58 113 -58 381v666h-180zM627 1536v8l311 266 h238v-8l-385 -266h-164z" />
<glyph unicode="&#xdb;" horiz-adv-x="1576" d="M43 1274v137h535v-137h-199v-639q0 -244 59 -356q39 -74 134 -119t223 -45q239 0 346 155q69 100 69 357v647h-206v137h528v-137h-176v-662q0 -268 -72 -397q-66 -109 -196 -176.5t-297 -67.5q-180 0 -315.5 67t-194.5 189q-58 113 -58 381v666h-180zM451 1536v8l294 266 h99l293 -266v-8h-154l-195 143l-182 -143h-155z" />
<glyph unicode="&#xdc;" horiz-adv-x="1576" d="M43 1274v137h535v-137h-199v-639q0 -244 59 -356q39 -74 134 -119t223 -45q239 0 346 155q69 100 69 357v647h-206v137h528v-137h-176v-662q0 -268 -72 -397q-66 -109 -196 -176.5t-297 -67.5q-180 0 -315.5 67t-194.5 189q-58 113 -58 381v666h-180zM510 1655 q0 47 30.5 74t67 27t67 -27t30.5 -74q0 -42 -28 -69t-71 -27q-42 0 -69 27t-27 69zM877 1655q0 46 28 73t70 27q39 0 67.5 -27.5t28.5 -72.5q0 -43 -27.5 -69.5t-70.5 -26.5q-42 0 -69 27t-27 69z" />
<glyph unicode="&#xdd;" horiz-adv-x="1411" d="M6 1274v137h533v-137h-183q228 -360 351 -567q56 101 358 567h-193v137h533v-137h-166l-461 -705v-432h193v-137h-541v137h191v432l-451 705h-164zM575 1536v8l312 266h237v-8l-385 -266h-164z" />
<glyph unicode="&#xde;" horiz-adv-x="1335" d="M68 0v137h184v1137h-184v137h540v-137h-198v-125h276q193 0 324 -49q102 -38 159.5 -136.5t57.5 -234.5q0 -322 -262 -405q-116 -39 -287 -39h-268v-148h223v-137h-565zM410 422h256q187 0 276 47q127 71 127 252q0 178 -125 242q-100 47 -264 47h-270v-588z" />
<glyph unicode="&#xdf;" horiz-adv-x="1255" d="M37 0v135h172v836q0 247 70 360q120 185 374 185q205 0 299 -113q97 -117 97 -254q0 -287 -261 -381q174 -11 275.5 -112.5t101.5 -276.5q0 -185 -107 -295.5t-292 -110.5q-169 0 -272 74v150h8q95 -86 258 -86q119 0 186.5 68.5t67.5 199.5q0 301 -428 301h-35v135h33 q141 0 225 86t84 229q0 109 -64.5 180.5t-177.5 71.5q-167 0 -237 -108q-58 -82 -58 -287v-987h-319z" />
<glyph unicode="&#xe0;" horiz-adv-x="1144" d="M86 285q0 190 188 264q128 49 344 49q88 0 158 -12v57q0 114 -37 166q-60 84 -221 84q-91 0 -192 -39q-104 -37 -166 -111h-8v154q71 68 175.5 105.5t215.5 37.5q208 0 295 -100q86 -92 86 -293v-512h180v-135h-318v135q-50 -76 -139.5 -119t-200.5 -43q-162 0 -261 87.5 t-99 224.5zM233 1511v9h213l265 -330v-8h-142zM242 289q0 -81 62 -129.5t173 -48.5q96 0 179 44t120 113v195q-94 16 -168 16q-154 0 -243 -30q-123 -40 -123 -160z" />
<glyph unicode="&#xe1;" horiz-adv-x="1144" d="M86 285q0 190 188 264q128 49 344 49q88 0 158 -12v57q0 114 -37 166q-60 84 -221 84q-91 0 -192 -39q-104 -37 -166 -111h-8v154q71 68 175.5 105.5t215.5 37.5q208 0 295 -100q86 -92 86 -293v-512h180v-135h-318v135q-50 -76 -139.5 -119t-200.5 -43q-162 0 -261 87.5 t-99 224.5zM242 289q0 -81 62 -129.5t173 -48.5q96 0 179 44t120 113v195q-94 16 -168 16q-154 0 -243 -30q-123 -40 -123 -160zM408 1182v8l262 330h204v-9l-327 -329h-139z" />
<glyph unicode="&#xe2;" horiz-adv-x="1144" d="M86 285q0 190 188 264q128 49 344 49q88 0 158 -12v57q0 114 -37 166q-60 84 -221 84q-91 0 -192 -39q-104 -37 -166 -111h-8v154q71 68 175.5 105.5t215.5 37.5q208 0 295 -100q86 -92 86 -293v-512h180v-135h-318v135q-50 -76 -139.5 -119t-200.5 -43q-162 0 -261 87.5 t-99 224.5zM227 1178v8l273 321h86l274 -321v-8h-141l-182 182l-175 -182h-135zM242 289q0 -81 62 -129.5t173 -48.5q96 0 179 44t120 113v195q-94 16 -168 16q-154 0 -243 -30q-123 -40 -123 -160z" />
<glyph unicode="&#xe3;" horiz-adv-x="1144" d="M86 285q0 190 188 264q128 49 344 49q88 0 158 -12v57q0 114 -37 166q-60 84 -221 84q-91 0 -192 -39q-104 -37 -166 -111h-8v154q71 68 175.5 105.5t215.5 37.5q208 0 295 -100q86 -92 86 -293v-512h180v-135h-318v135q-50 -76 -139.5 -119t-200.5 -43q-162 0 -261 87.5 t-99 224.5zM227 1221q7 115 60 178t133 63q62 0 151 -59q74 -53 117 -53q37 0 54 24.5t24 91.5h108q-7 -119 -58.5 -185.5t-123.5 -66.5q-62 0 -160 58q-94 55 -118 55q-63 0 -78 -106h-109zM242 289q0 -81 62 -129.5t173 -48.5q96 0 179 44t120 113v195q-94 16 -168 16 q-154 0 -243 -30q-123 -40 -123 -160z" />
<glyph unicode="&#xe4;" horiz-adv-x="1144" d="M86 285q0 190 188 264q128 49 344 49q88 0 158 -12v57q0 114 -37 166q-60 84 -221 84q-91 0 -192 -39q-104 -37 -166 -111h-8v154q71 68 175.5 105.5t215.5 37.5q208 0 295 -100q86 -92 86 -293v-512h180v-135h-318v135q-50 -76 -139.5 -119t-200.5 -43q-162 0 -261 87.5 t-99 224.5zM242 289q0 -81 62 -129.5t173 -48.5q96 0 179 44t120 113v195q-94 16 -168 16q-154 0 -243 -30q-123 -40 -123 -160zM270 1343q0 45 29.5 73t69.5 28q39 0 67.5 -28t28.5 -73q0 -43 -26.5 -69.5t-69.5 -26.5t-71 27t-28 69zM625 1343q0 47 30.5 74t66.5 27 t66.5 -27t30.5 -74q0 -43 -27.5 -69.5t-70.5 -26.5q-42 0 -69 27t-27 69z" />
<glyph unicode="&#xe5;" horiz-adv-x="1144" d="M86 285q0 190 188 264q128 49 344 49q88 0 158 -12v57q0 114 -37 166q-60 84 -221 84q-91 0 -192 -39q-104 -37 -166 -111h-8v154q71 68 175.5 105.5t215.5 37.5q208 0 295 -100q86 -92 86 -293v-512h180v-135h-318v135q-50 -76 -139.5 -119t-200.5 -43q-162 0 -261 87.5 t-99 224.5zM242 289q0 -81 62 -129.5t173 -48.5q96 0 179 44t120 113v195q-94 16 -168 16q-154 0 -243 -30q-123 -40 -123 -160zM342 1370q0 90 60 147.5t153 57.5q92 0 149.5 -57t57.5 -148q0 -86 -61.5 -145.5t-149.5 -59.5q-90 0 -149.5 58.5t-59.5 146.5zM436.5 1299.5 q34.5 -70.5 118.5 -64.5q56 0 92.5 39.5t36.5 97.5t-37 95.5t-96 37.5q-80 6 -114.5 -64.5t0 -141z" />
<glyph unicode="&#xe6;" horiz-adv-x="1810" d="M92 283q0 193 182 264q115 47 349 47q85 0 159 -12v71q0 106 -39 162q-52 82 -215 82q-90 0 -188.5 -34.5t-161.5 -94.5h-8v143q156 129 383 129q270 0 338 -188q59 87 162 137.5t217 50.5q220 0 337 -123t122 -350q0 -59 -7 -106h-796q6 -156 116 -254q113 -96 287 -96 q217 0 365 139h8v-150q-61 -57 -169 -92t-218 -35q-289 0 -434 189q-165 -189 -422 -189q-163 0 -266 86q-101 85 -101 224zM248 289q0 -81 62 -130.5t171 -49.5q103 0 195.5 44t144.5 113q-31 70 -37 195q-68 12 -170 12q-161 0 -249 -31q-117 -44 -117 -153zM926 588h651 v14q0 144 -81.5 225.5t-233.5 81.5q-120 0 -224 -84q-97 -81 -112 -237z" />
<glyph unicode="&#xe7;" horiz-adv-x="1097" d="M90 500q0 235 158 387q156 153 397 153q94 0 185.5 -27.5t138.5 -70.5v-270h-125l-10 184q-91 45 -199 45q-167 0 -279 -106q-114 -105 -114 -289q0 -190 116 -291q116 -98 277 -98q203 0 336 127h8v-162q-136 -109 -356 -109l-31 -98h10q90 0 145.5 -46.5t55.5 -129.5 q0 -98 -66.5 -153.5t-183.5 -55.5q-94 0 -150 41v107h9q56 -44 133 -44q129 0 129 99q0 42 -34.5 68t-94.5 26q-43 0 -78 -12l-6 4l59 203q-189 30 -311 170q-119 137 -119 348z" />
<glyph unicode="&#xe8;" horiz-adv-x="1140" d="M90 500q0 249 150 393q150 147 360 147q215 0 333 -125t120 -348q0 -71 -6 -112h-803q12 -152 119.5 -245t287.5 -93q224 0 365 135h8v-158q-60 -54 -170 -88q-106 -33 -217 -33q-247 0 -399 146q-148 145 -148 381zM246 584h657v16q0 143 -83 224t-232 81 q-122 0 -223 -82q-104 -81 -119 -239zM274 1511v9h213l265 -330v-8h-142z" />
<glyph unicode="&#xe9;" horiz-adv-x="1140" d="M90 500q0 249 150 393q150 147 360 147q215 0 333 -125t120 -348q0 -71 -6 -112h-803q12 -152 119.5 -245t287.5 -93q224 0 365 135h8v-158q-60 -54 -170 -88q-106 -33 -217 -33q-247 0 -399 146q-148 145 -148 381zM246 584h657v16q0 143 -83 224t-232 81 q-122 0 -223 -82q-104 -81 -119 -239zM479 1182v8l262 330h205v-9l-328 -329h-139z" />
<glyph unicode="&#xea;" horiz-adv-x="1140" d="M90 500q0 249 150 393q150 147 360 147q215 0 333 -125t120 -348q0 -71 -6 -112h-803q12 -152 119.5 -245t287.5 -93q224 0 365 135h8v-158q-60 -54 -170 -88q-106 -33 -217 -33q-247 0 -399 146q-148 145 -148 381zM246 584h657v16q0 143 -83 224t-232 81 q-122 0 -223 -82q-104 -81 -119 -239zM287 1178v8l272 321h86l275 -321v-8h-142l-182 182l-174 -182h-135z" />
<glyph unicode="&#xeb;" horiz-adv-x="1140" d="M90 500q0 249 150 393q150 147 360 147q215 0 333 -125t120 -348q0 -71 -6 -112h-803q12 -152 119.5 -245t287.5 -93q224 0 365 135h8v-158q-60 -54 -170 -88q-106 -33 -217 -33q-247 0 -399 146q-148 145 -148 381zM246 584h657v16q0 143 -83 224t-232 81 q-122 0 -223 -82q-104 -81 -119 -239zM334 1343q0 45 29 73t69 28q39 0 67.5 -28t28.5 -73q0 -43 -26.5 -69.5t-69.5 -26.5t-70.5 26.5t-27.5 69.5zM688 1343q0 47 30.5 74t67 27t67 -27t30.5 -74q0 -42 -28 -69t-71 -27q-42 0 -69 27t-27 69z" />
<glyph unicode="&#xec;" horiz-adv-x="614" d="M-59 1511v9h213l264 -330v-8h-142zM61 0v135h183v742h-183v135h330v-877h180v-135h-510z" />
<glyph unicode="&#xed;" horiz-adv-x="614" d="M61 0v135h183v742h-183v135h330v-877h180v-135h-510zM131 1182v8l262 330h205v-9l-328 -329h-139z" />
<glyph unicode="&#xee;" horiz-adv-x="614" d="M-29 1178v8l273 321h86l274 -321v-8h-141l-182 182l-175 -182h-135zM61 0v135h183v742h-183v135h330v-877h180v-135h-510z" />
<glyph unicode="&#xef;" horiz-adv-x="614" d="M10 1343q0 45 29.5 73t69.5 28q39 0 67.5 -28t28.5 -73q0 -43 -26.5 -69.5t-69.5 -26.5t-71 27t-28 69zM61 0v135h183v742h-183v135h330v-877h180v-135h-510zM365 1343q0 47 30.5 74t66.5 27t66.5 -27t30.5 -74q0 -43 -27.5 -69.5t-70.5 -26.5q-42 0 -69 27t-27 69z" />
<glyph unicode="&#xf0;" horiz-adv-x="1245" d="M90 510q0 165 84 287q81 118 197 174.5t252 56.5q108 0 202 -43t144 -119q-35 192 -191 348l-239 -137v129l151 86q-104 80 -260 127l43 109q200 -53 340 -166l209 121v-129l-123 -70q252 -267 252 -727q0 -288 -154 -436t-376 -148q-216 0 -373 136q-158 137 -158 401z M242 510q0 -199 108 -301q110 -98 268 -98q161 0 269 102q110 101 110 301q0 192 -110 283q-107 94 -271 94q-149 0 -264 -103q-110 -101 -110 -278z" />
<glyph unicode="&#xf1;" horiz-adv-x="1325" d="M61 0v135h183v742h-183v135h328v-166q51 88 145.5 139t219.5 51q133 0 217.5 -57.5t109.5 -161.5q21 -74 21 -223v-459h180v-135h-514v135h186v436q0 155 -30 211q-58 113 -209 113q-98 0 -189.5 -53t-134.5 -135v-572h187v-135h-517zM340 1221q7 116 59.5 178.5 t132.5 62.5q63 0 152 -59q74 -53 117 -53q37 0 54 24.5t24 91.5h108q-7 -119 -58.5 -185.5t-123.5 -66.5q-62 0 -160 58q-94 55 -119 55q-62 0 -77 -106h-109z" />
<glyph unicode="&#xf2;" horiz-adv-x="1241" d="M90 506q0 227 154 381q156 153 381 153q233 0 379 -149q147 -150 147 -385q0 -227 -154 -381q-152 -152 -379 -152q-226 0 -378 152q-150 153 -150 381zM242 506q0 -172 108 -283q107 -110 273 -110q167 0 270 112q106 112 106 281q0 168 -106 280q-106 115 -270 115 q-161 0 -273 -115q-108 -114 -108 -280zM315 1511v9h213l265 -330v-8h-142z" />
<glyph unicode="&#xf3;" horiz-adv-x="1241" d="M90 506q0 227 154 381q156 153 381 153q233 0 379 -149q147 -150 147 -385q0 -227 -154 -381q-152 -152 -379 -152q-226 0 -378 152q-150 153 -150 381zM242 506q0 -172 108 -283q107 -110 273 -110q167 0 270 112q106 112 106 281q0 168 -106 280q-106 115 -270 115 q-161 0 -273 -115q-108 -114 -108 -280zM481 1182v8l262 330h205v-9l-327 -329h-140z" />
<glyph unicode="&#xf4;" horiz-adv-x="1241" d="M90 506q0 227 154 381q156 153 381 153q233 0 379 -149q147 -150 147 -385q0 -227 -154 -381q-152 -152 -379 -152q-226 0 -378 152q-150 153 -150 381zM242 506q0 -172 108 -283q107 -110 273 -110q167 0 270 112q106 112 106 281q0 168 -106 280q-106 115 -270 115 q-161 0 -273 -115q-108 -114 -108 -280zM317 1178v8l273 321h86l274 -321v-8h-141l-182 182l-174 -182h-136z" />
<glyph unicode="&#xf5;" horiz-adv-x="1241" d="M90 506q0 227 154 381q156 153 381 153q233 0 379 -149q147 -150 147 -385q0 -227 -154 -381q-152 -152 -379 -152q-226 0 -378 152q-150 153 -150 381zM242 506q0 -172 108 -283q107 -110 273 -110q167 0 270 112q106 112 106 281q0 168 -106 280q-106 115 -270 115 q-161 0 -273 -115q-108 -114 -108 -280zM295 1221q7 116 59.5 178.5t132.5 62.5q63 0 152 -59q74 -53 117 -53q37 0 54 24.5t24 91.5h108q-7 -119 -58.5 -185.5t-123.5 -66.5q-62 0 -160 58q-94 55 -119 55q-63 0 -78 -106h-108z" />
<glyph unicode="&#xf6;" horiz-adv-x="1241" d="M90 506q0 227 154 381q156 153 381 153q233 0 379 -149q147 -150 147 -385q0 -227 -154 -381q-152 -152 -379 -152q-226 0 -378 152q-150 153 -150 381zM242 506q0 -172 108 -283q107 -110 273 -110q167 0 270 112q106 112 106 281q0 168 -106 280q-106 115 -270 115 q-161 0 -273 -115q-108 -114 -108 -280zM356 1343q0 45 29.5 73t69.5 28q39 0 67.5 -28t28.5 -73q0 -43 -26.5 -69.5t-69.5 -26.5t-71 27t-28 69zM711 1343q0 47 30.5 74t66.5 27t66.5 -27t30.5 -74q0 -43 -27.5 -69.5t-70.5 -26.5q-42 0 -69 27t-27 69z" />
<glyph unicode="&#xf7;" horiz-adv-x="1433" d="M184 547v117h1065v-117h-1065zM635 262q0 90 84 90q80 0 80 -90q0 -42 -23 -64t-61 -22q-36 0 -58 22t-22 64zM635 932q0 90 84 90q80 0 80 -90q0 -42 -23 -64t-61 -22q-80 0 -80 86z" />
<glyph unicode="&#xf8;" horiz-adv-x="1241" d="M98 506q0 227 154 381q156 153 379 153q133 0 246 -55l86 135h116l-118 -184q198 -149 198 -430q0 -226 -153 -379q-151 -154 -379 -154q-138 0 -248 58l-84 -131h-115l117 182q-199 156 -199 424zM250 506q0 -189 127 -301l420 657q-74 39 -168 39q-162 0 -271 -115 q-108 -114 -108 -280zM457 152q79 -39 174 -39q165 0 268 112q107 113 107 281q0 188 -127 303z" />
<glyph unicode="&#xf9;" horiz-adv-x="1296" d="M20 877v135h326v-559q0 -148 31 -224q53 -114 221 -114q210 0 324 176v586h-193v135h340v-877h174v-135h-315v150q-109 -177 -361 -177q-288 0 -346 217q-22 86 -22 242v445h-179zM285 1511v9h213l264 -330v-8h-141z" />
<glyph unicode="&#xfa;" horiz-adv-x="1296" d="M20 877v135h326v-559q0 -148 31 -224q53 -114 221 -114q210 0 324 176v586h-193v135h340v-877h174v-135h-315v150q-109 -177 -361 -177q-288 0 -346 217q-22 86 -22 242v445h-179zM475 1182v8l262 330h205v-9l-328 -329h-139z" />
<glyph unicode="&#xfb;" horiz-adv-x="1296" d="M20 877v135h326v-559q0 -148 31 -224q53 -114 221 -114q210 0 324 176v586h-193v135h340v-877h174v-135h-315v150q-109 -177 -361 -177q-288 0 -346 217q-22 86 -22 242v445h-179zM307 1178v8l273 321h86l274 -321v-8h-141l-183 182l-174 -182h-135z" />
<glyph unicode="&#xfc;" horiz-adv-x="1296" d="M20 877v135h326v-559q0 -148 31 -224q53 -114 221 -114q210 0 324 176v586h-193v135h340v-877h174v-135h-315v150q-109 -177 -361 -177q-288 0 -346 217q-22 86 -22 242v445h-179zM340 1343q0 45 29 73t69 28q39 0 68 -28t29 -73q0 -43 -27 -69.5t-70 -26.5t-70.5 26.5 t-27.5 69.5zM694 1343q0 47 30.5 74t67 27t67 -27t30.5 -74q0 -43 -27.5 -69.5t-70.5 -26.5q-42 0 -69.5 27t-27.5 69z" />
<glyph unicode="&#xfd;" horiz-adv-x="1169" d="M8 877v135h461v-135h-156q212 -509 287 -711q84 227 277 711h-175v135h461v-135h-137l-369 -912q-88 -216 -127 -274q-85 -129 -254 -129q-102 0 -163 37v139h8q45 -39 147 -39q100 0 152 76q38 58 74 153l26 74l-375 875h-137zM461 1182v8l262 330h205v-9l-328 -329 h-139z" />
<glyph unicode="&#xfe;" horiz-adv-x="1329" d="M25 1356v135h315v-672q49 94 162 158q111 63 241 63q206 0 351 -139t145 -383q0 -253 -152 -393q-151 -139 -366 -139q-118 0 -222.5 49.5t-154.5 132.5v-430h205v-135h-522v135h170v1618h-172zM344 360q48 -114 150 -174.5t225 -60.5q153 0 260 98q108 102 108 295 q0 192 -114 287q-116 96 -254 96q-123 0 -228 -65t-147 -183v-293z" />
<glyph unicode="&#xff;" horiz-adv-x="1169" d="M8 877v135h461v-135h-156q212 -509 287 -711q84 227 277 711h-175v135h461v-135h-137l-369 -912q-88 -216 -127 -274q-85 -129 -254 -129q-102 0 -163 37v139h8q45 -39 147 -39q100 0 152 76q38 58 74 153l26 74l-375 875h-137zM315 1343q0 45 29.5 73t69.5 28 q39 0 67.5 -28t28.5 -73q0 -43 -26.5 -69.5t-69.5 -26.5t-71 27t-28 69zM670 1343q0 47 30.5 74t66.5 27t66.5 -27t30.5 -74q0 -43 -27.5 -69.5t-70.5 -26.5q-42 0 -69 27t-27 69z" />
<glyph unicode="&#x152;" horiz-adv-x="2299" d="M106 702q0 222 103 396q102 169 265.5 256.5t359.5 87.5q349 0 503 -232v201h817l13 -315h-137l-15 178h-520v-473h543v-137h-543v-525h569l15 195h137l-12 -334h-867v217q-163 -246 -514 -246q-302 0 -510 199q-207 201 -207 532zM264 713q0 -272 160 -437 q161 -161 403 -161q177 0 310 80t200 229v567q-63 149 -194.5 229t-315.5 80q-241 0 -403 -165q-160 -165 -160 -422z" />
<glyph unicode="&#x153;" horiz-adv-x="2021" d="M92 508q0 246 162 389t364 143q323 0 437 -243q57 115 176 180q114 63 242 63q220 0 337.5 -123.5t122.5 -349.5q0 -59 -6 -112h-794q11 -157 117 -250.5t286 -93.5q217 0 362 139h9v-152q-65 -56 -171.5 -90.5t-211.5 -34.5q-332 0 -471 250q-133 -250 -437 -250 q-208 0 -366 140q-158 143 -158 395zM244 512q0 -196 110 -297q114 -102 262 -102q155 0 263 102q106 100 106 299q0 190 -108 289q-107 98 -265 98q-150 0 -260 -104q-108 -102 -108 -285zM1135 584h647v14q0 147 -82.5 229t-233.5 82q-116 0 -219 -86q-100 -81 -112 -239z " />
<glyph unicode="&#x178;" horiz-adv-x="1411" d="M6 1274v137h533v-137h-183q228 -360 351 -567q56 101 358 567h-193v137h533v-137h-166l-461 -705v-432h193v-137h-541v137h191v432l-451 705h-164zM428 1655q0 47 30.5 74t67 27t67 -27t30.5 -74q0 -42 -28 -69t-71 -27q-42 0 -69 27t-27 69zM795 1655q0 46 28 73t70 27 q39 0 67.5 -27.5t28.5 -72.5q0 -43 -27.5 -69.5t-70.5 -26.5q-42 0 -69 27t-27 69z" />
<glyph unicode="&#x2c6;" horiz-adv-x="430" d="M-100 1178v8l272 321h86l274 -321v-8h-141l-182 182l-174 -182h-135z" />
<glyph unicode="&#x2dc;" horiz-adv-x="430" d="M-109 1221q7 115 60 178t133 63q63 0 152 -59q74 -53 116 -53q37 0 54 24.5t24 91.5h109q-7 -119 -59 -185.5t-124 -66.5q-61 0 -159 58q-94 55 -119 55q-63 0 -78 -106h-109z" />
<glyph unicode="&#x2000;" horiz-adv-x="937" />
<glyph unicode="&#x2001;" horiz-adv-x="1874" />
<glyph unicode="&#x2002;" horiz-adv-x="937" />
<glyph unicode="&#x2003;" horiz-adv-x="1874" />
<glyph unicode="&#x2004;" horiz-adv-x="624" />
<glyph unicode="&#x2005;" horiz-adv-x="468" />
<glyph unicode="&#x2006;" horiz-adv-x="312" />
<glyph unicode="&#x2007;" horiz-adv-x="312" />
<glyph unicode="&#x2008;" horiz-adv-x="234" />
<glyph unicode="&#x2009;" horiz-adv-x="374" />
<glyph unicode="&#x200a;" horiz-adv-x="104" />
<glyph unicode="&#x2010;" horiz-adv-x="655" d="M82 489v138h493v-138h-493z" />
<glyph unicode="&#x2011;" horiz-adv-x="655" d="M82 489v138h493v-138h-493z" />
<glyph unicode="&#x2012;" horiz-adv-x="655" d="M82 489v138h493v-138h-493z" />
<glyph unicode="&#x2013;" horiz-adv-x="1097" d="M82 492v124h938v-124h-938z" />
<glyph unicode="&#x2014;" horiz-adv-x="1714" d="M82 492v124h1550v-124h-1550z" />
<glyph unicode="&#x2018;" horiz-adv-x="382" d="M66 1087q0 114 55 217t141 169h127v-9q-75 -64 -121.5 -159.5t-46.5 -200.5q0 -93 31 -166h-160q-26 56 -26 149z" />
<glyph unicode="&#x2019;" horiz-adv-x="382" d="M-8 938v8q75 62 121.5 158t46.5 203q0 93 -31 166h160q26 -56 26 -150q0 -114 -55 -217t-141 -168h-127z" />
<glyph unicode="&#x201a;" horiz-adv-x="380" d="M-8 -285q75 64 121.5 160.5t46.5 202.5q0 93 -31 166h160q26 -59 26 -152q0 -114 -55 -216.5t-141 -168.5h-127v8z" />
<glyph unicode="&#x201c;" horiz-adv-x="720" d="M66 1087q0 114 55 217t141 169h127v-9q-75 -64 -121.5 -159.5t-46.5 -200.5q0 -93 31 -166h-160q-26 56 -26 149zM406 1087q0 113 55 216.5t141 169.5h129v-9q-76 -64 -123 -159.5t-47 -200.5q0 -93 31 -166h-160q-26 56 -26 149z" />
<glyph unicode="&#x201d;" horiz-adv-x="720" d="M-8 938v8q75 62 121.5 158t46.5 203q0 93 -31 166h160q26 -56 26 -150q0 -114 -55 -217t-141 -168h-127zM332 938v8q76 62 123 158t47 203q0 93 -31 166h160q24 -55 24 -150q0 -114 -54.5 -217.5t-139.5 -167.5h-129z" />
<glyph unicode="&#x201e;" horiz-adv-x="720" d="M-8 -285q75 64 121.5 160.5t46.5 202.5q0 93 -31 166h160q26 -59 26 -152q0 -114 -55 -216.5t-141 -168.5h-127v8zM332 -285q76 64 123 160t47 203q0 93 -31 166h160q24 -59 24 -152q0 -113 -54.5 -216t-139.5 -169h-129v8z" />
<glyph unicode="&#x2022;" horiz-adv-x="692" d="M106 520q-2 92 47.5 155.5t121 78t143 0t120.5 -78t46 -155.5q0 -103 -68.5 -170t-169.5 -67q-105 0 -172.5 65t-67.5 172z" />
<glyph unicode="&#x2026;" horiz-adv-x="1800" d="M203 90q0 44 23.5 74t56.5 37t66.5 0t57 -37t23.5 -74q6 -68 -53.5 -97.5t-119 -1t-54.5 98.5zM786 90q0 44 23.5 74t57 37t67 0t57 -37t23.5 -74q6 -68 -53.5 -97.5t-119.5 -1t-55 98.5zM1368 90q0 44 23.5 74t57 37t67.5 0t57.5 -37t23.5 -74q5 -68 -55 -97.5 t-119.5 -1t-54.5 98.5z" />
<glyph unicode="&#x202f;" horiz-adv-x="374" />
<glyph unicode="&#x2039;" horiz-adv-x="557" d="M49 516l283 377h160l-279 -377l281 -377h-160z" />
<glyph unicode="&#x203a;" horiz-adv-x="557" d="M61 893h160l285 -377l-283 -377h-160l279 377z" />
<glyph unicode="&#x205f;" horiz-adv-x="468" />
<glyph unicode="&#x20ac;" horiz-adv-x="1361" d="M106 487v93h156q-4 86 -4 104q0 60 2 78h-154v92h164q44 259 213 397q172 140 414 140q240 0 367 -109l8 -266h-121l-10 180q-119 55 -246 55q-189 0 -311 -99.5t-156 -297.5h565v-92h-575q-2 -16 -2 -72q0 -16 4 -110h573v-93h-557q76 -372 461 -372q220 0 369 131h8 v-154q-68 -56 -174.5 -88.5t-222.5 -32.5q-250 0 -405 132.5t-198 383.5h-168z" />
<glyph unicode="&#x2122;" horiz-adv-x="1863" d="M88 1186v225h637v-225h-92l-4 135h-170v-557h112v-90h-340v90h115v557h-160l-6 -135h-92zM823 674v90h113v557h-113v90h277q155 -336 209 -473q55 141 202 473h263v-90h-105v-557h105v-90h-326v90h108q0 462 3 541q-29 -85 -216 -502h-81q-166 365 -224 504 q6 -144 6 -543h105v-90h-326z" />
<glyph unicode="&#x25fc;" horiz-adv-x="1013" d="M0 0v1014h1014v-1014h-1014z" />
</font>
</defs>
</svg>
