<?xml version="1.0" standalone="no"?>
<!DOCTYPE svg PUBLIC "-//W3C//DTD SVG 1.1//EN" "http://www.w3.org/Graphics/SVG/1.1/DTD/svg11.dtd" >
<svg xmlns="http://www.w3.org/2000/svg">
<metadata></metadata>
<defs>
<font id="equip_slabextrabold_italic" horiz-adv-x="1241" >
<font-face units-per-em="2048" ascent="1536" descent="-512" />
<missing-glyph horiz-adv-x="440" />
<glyph unicode="&#xfb01;" horiz-adv-x="1376" d="M-25 -358l228 1106h-133l53 274h135l18 88q43 205 154 299q127 109 336 109q120 0 197 -41l-54 -275h-8q-45 31 -117 31q-68 0 -108 -37q-36 -28 -60 -117l-14 -57h701l-127 -596q-15 -61 -15 -88q0 -76 74 -76q48 0 88 19l6 -2l-59 -261q-75 -34 -199 -34 q-141 0 -208.5 59.5t-67.5 159.5q0 47 16 135l90 410h-352l-238 -1106h-336zM989 1305q0 87 54.5 143.5t138.5 56.5q67 0 111 -39.5t44 -113.5q0 -90 -51.5 -146.5t-140.5 -56.5q-67 0 -111.5 42.5t-44.5 113.5z" />
<glyph unicode="&#xfb02;" horiz-adv-x="1372" d="M-25 -358l228 1106h-133l53 274h135l12 57q47 204 170 307q154 127 461 127q155 0 293 -24q134 -23 203 -49l-213 -1014q-15 -61 -15 -88q0 -76 74 -76q48 0 88 19l6 -2l-61 -261q-75 -34 -199 -34q-139 0 -206.5 59.5t-67.5 159.5q0 47 16 135l187 885q-71 12 -158 12 q-116 0 -170 -51q-52 -46 -70 -135l-6 -27h240l-56 -274h-237l-238 -1106h-336z" />
<glyph unicode="&#xfb03;" horiz-adv-x="2103" d="M-27 -358l230 1106h-133l53 274h135l12 51q41 200 152 295q122 107 340 107q128 0 223 -50l-57 -274h-8q-52 37 -142 37q-70 0 -112 -31q-37 -29 -54 -102l-10 -33h381l18 88q47 211 154 299q127 109 338 109q120 0 197 -41l-56 -275h-8q-42 31 -115 31q-67 0 -110 -37 q-40 -34 -58 -117l-14 -57h701l-127 -596q-15 -61 -15 -88q0 -76 74 -76q48 0 88 19l6 -2l-61 -261q-75 -34 -199 -34q-141 0 -208.5 59.5t-67.5 159.5q0 43 18 135l88 410h-352l-230 -1065h-337l223 1065h-381l-236 -1106h-340zM1716 1305q0 87 54.5 143.5t138.5 56.5 q67 0 111 -39.5t44 -113.5q0 -89 -52.5 -146t-139.5 -57q-69 0 -112.5 42.5t-43.5 113.5z" />
<glyph unicode="&#xfb04;" horiz-adv-x="2099" d="M-27 -358l230 1106h-133l53 274h135l12 51q41 200 152 295q122 107 340 107q128 0 223 -50l-57 -274h-8q-52 37 -142 37q-70 0 -112 -31q-37 -29 -54 -102l-10 -33h381l12 57q46 204 170 307q154 127 463 127q156 0 291 -24q132 -23 205 -49l-215 -1014q-13 -63 -13 -88 q0 -76 72 -76q52 0 88 19l6 -2l-59 -261q-75 -34 -199 -34q-141 0 -208.5 59.5t-67.5 159.5q0 47 16 135l189 885q-74 12 -158 12q-124 0 -172 -51q-53 -53 -68 -135l-6 -27h240l-56 -274h-239l-230 -1065h-337l223 1065h-381l-236 -1106h-340z" />
<glyph horiz-adv-x="0" />
<glyph horiz-adv-x="682" />
<glyph unicode=" "  horiz-adv-x="440" />
<glyph unicode="&#x09;" horiz-adv-x="440" />
<glyph unicode="&#xa0;" horiz-adv-x="440" />
<glyph unicode="!" horiz-adv-x="655" d="M106 147q0 95 59.5 158.5t151.5 63.5q76 0 125.5 -44.5t49.5 -125.5q0 -99 -57 -161.5t-154 -62.5q-76 0 -125.5 47t-49.5 125zM217 510q92 752 129 901h391q0 -14 -39 -154q-6 -28 -43 -167q-89 -332 -166 -580h-272z" />
<glyph unicode="&#x22;" horiz-adv-x="815" d="M207 889l72 571h266l-172 -571h-166zM590 889l69 571h267l-172 -571h-164z" />
<glyph unicode="#" horiz-adv-x="1275" d="M72 393l26 209h273l47 176h-252l24 209h283l107 406h161l-108 -406h223l107 406h159l-104 -406h242l-27 -209h-270l-48 -176h246l-24 -209h-275l-110 -422h-160l108 422h-221l-110 -422h-162l110 422h-245zM532 602h222l47 176h-221z" />
<glyph unicode="$" horiz-adv-x="1230" d="M16 137l74 363h232l-27 -181q103 -44 203 -57l59 277l-84 32q-283 105 -283 336q0 211 138.5 330t402.5 129l43 207h119l-43 -207q97 -8 209 -41q102 -30 145 -70l-61 -360h-232l21 174q-82 26 -137 31l-58 -273l76 -28q163 -65 230 -145t67 -199q0 -211 -137 -336.5 t-412 -132.5l-45 -215h-121l45 219q-137 12 -254 51q-121 41 -170 96zM557 971q0 -62 70 -99l47 226q-117 -24 -117 -127zM618 262q132 21 132 129q0 68 -82 105z" />
<glyph unicode="%" horiz-adv-x="1822" d="M119 817q0 129 48.5 254t137.5 207q111 102 260 102q143 0 222 -80.5t79 -226.5q0 -108 -39 -229q-42 -130 -110 -213q-110 -131 -297 -131q-141 0 -221 84t-80 233zM354 834q0 -123 95 -123q65 0 106 65q32 55 49 135q21 85 21 142q0 118 -93 118q-55 0 -102 -65 q-32 -49 -54 -129t-22 -143zM420 -25l885 1422h155l-880 -1422h-160zM1010 299q0 133 46.5 257.5t133.5 203.5q108 102 260 102q146 0 224.5 -80t78.5 -227q0 -107 -37 -231q-39 -130 -108 -211q-110 -131 -299 -131q-141 0 -220 84t-79 233zM1247 315q0 -122 90 -122 q68 0 109 65q30 53 51 137q21 86 21 140q0 118 -95 118q-57 0 -104 -65q-31 -48 -51.5 -128t-20.5 -145z" />
<glyph unicode="&#x26;" horiz-adv-x="1624" d="M82 387q0 289 317 418q-45 99 -45 186q0 168 119 281q118 112 342 112q217 0 336 -88l-72 -286h-8q-77 71 -207 71q-68 0 -105.5 -32t-37.5 -88q0 -54 55 -136q48 -69 137 -174q91 -107 125 -135q25 28 31 84h-57l43 250h534l-51 -264h-149q-17 -90 -60.5 -173.5 t-93.5 -125.5l10 -15h266l-55 -272h-416q-26 21 -75 76q-150 -105 -400 -105q-219 0 -350 113q-133 115 -133 303zM420 420q0 -68 53.5 -114t132.5 -46q100 0 162 41q-110 104 -229 266q-119 -46 -119 -147z" />
<glyph unicode="'" horiz-adv-x="434" d="M207 889l72 571h266l-170 -571h-168z" />
<glyph unicode="(" horiz-adv-x="833" d="M82 436q0 355 188 635q189 281 521 445h262v-9q-680 -434 -680 -1061q0 -213 78 -432q81 -215 215 -352v-8h-222q-143 107 -254 319q-108 211 -108 463z" />
<glyph unicode=")" horiz-adv-x="833" d="M-207 -338q680 437 680 1059q0 214 -80 430q-79 216 -213 356v9h221q140 -107 252 -324q111 -212 111 -461q0 -355 -191 -635q-187 -278 -520 -442h-260v8z" />
<glyph unicode="*" horiz-adv-x="925" d="M199 1141l86 180q128 -60 233 -125q0 102 14 260l205 -14q-7 -63 -49 -273q131 41 258 64l33 -205q-13 -2 -111 -14.5t-155 -18.5q87 -124 141 -223l-176 -94q-42 77 -117 237q-131 -163 -172 -204l-147 135q101 106 200 190q-99 37 -243 105z" />
<glyph unicode="+" horiz-adv-x="1415" d="M180 504l43 198h426l99 433h200l-96 -433h424l-41 -198h-428l-102 -432h-197l100 432h-428z" />
<glyph unicode="," horiz-adv-x="542" d="M-162 -326q115 90 182.5 224.5t67.5 285.5q0 83 -14 135h295q14 -43 14 -122q0 -319 -305 -531h-240v8z" />
<glyph unicode="-" horiz-adv-x="655" d="M63 444l48 244h499l-49 -244h-498z" />
<glyph unicode="." horiz-adv-x="555" d="M29 147q0 95 59 158.5t152 63.5q73 0 123.5 -44.5t50.5 -125.5q0 -98 -58 -161t-153 -63q-79 0 -126.5 46.5t-47.5 125.5z" />
<glyph unicode="/" horiz-adv-x="868" d="M-96 -117l932 1614h194l-932 -1614h-194z" />
<glyph unicode="0" d="M82 481q0 218 70 415t206 329q172 166 404 166q222 0 340.5 -129t118.5 -367q0 -166 -62 -373q-59 -209 -172 -342q-176 -209 -448 -209q-216 0 -336.5 135t-120.5 375zM426 469q0 -199 147 -199q107 0 172 109q49 85 84 252q35 169 35 266q0 195 -143 195 q-98 0 -168 -107q-53 -77 -92 -240q-35 -158 -35 -276z" />
<glyph unicode="1" d="M203 0l53 264h180l158 748l-313 -152l65 338l395 193h289l-239 -1127h204l-53 -264h-739z" />
<glyph unicode="2" d="M-33 0l41 213q298 199 559 420q75 59 123.5 137.5t48.5 149.5q0 78 -49 124t-131 46q-177 0 -377 -144h-8l55 291q201 154 467 154q200 0 315 -99t115 -258q0 -280 -249 -491q-72 -58 -189 -142q-107 -75 -186 -120q282 4 370 4l46 157h233l-86 -442h-1098z" />
<glyph unicode="3" d="M53 82l60 317h8q137 -125 366 -125q213 0 213 142q0 38 -22.5 68t-59.5 42q-81 23 -194 23h-41l53 285h47q129 0 187 18q90 27 90 125q0 54 -39 83.5t-111 29.5q-181 0 -358 -127h-8l49 294q181 134 442 134q206 0 310 -85.5t104 -228.5q0 -282 -307 -370 q123 -20 187.5 -92.5t64.5 -176.5q0 -238 -179 -352q-180 -115 -448 -115q-120 0 -235 29.5t-179 81.5z" />
<glyph unicode="4" d="M25 356l43 203l813 832h284l-161 -766h196l-57 -269h-195l-22 -92h202l-53 -264h-731l53 264h189l22 92h-583zM406 625h258q78 328 88 366q-150 -170 -346 -366z" />
<glyph unicode="5" d="M49 88l55 289h9q150 -105 358 -105q118 0 182 49.5t64 137.5q0 72 -52 111.5t-143 39.5q-168 0 -336 -65l-6 4l230 813h798l-75 -418h-242l16 135h-293l-75 -250q73 33 200 33q163 0 267 -94t104 -248q0 -261 -176 -399q-174 -137 -465 -137q-271 0 -420 104z" />
<glyph unicode="6" d="M111 487q0 110 21 218.5t62 209.5t106 187.5t147 151t191 101t234 36.5q256 0 353 -97l-70 -321h-8q-101 94 -289 94q-137 0 -229 -82.5t-125 -224.5q46 56 129.5 89.5t169.5 33.5q164 0 257 -96t93 -259q0 -251 -154 -405q-152 -152 -413 -152q-212 0 -344 135 q-131 137 -131 381zM471 446q0 -77 38 -119t105 -42q86 0 136.5 53.5t50.5 150.5q0 64 -36.5 102t-102.5 38q-107 0 -179 -84q-12 -59 -12 -99z" />
<glyph unicode="7" d="M158 944l96 418h1020l-43 -217q-391 -624 -690 -1145h-373q278 496 678 1077h-400l-36 -133h-252z" />
<glyph unicode="8" d="M53 342q0 133 77.5 230.5t217.5 138.5q-139 89 -139 264q0 199 156 307q157 109 380 109q186 0 320 -88q135 -89 135 -263q0 -244 -242 -346q85 -31 132 -105.5t47 -164.5q0 -216 -166 -336q-165 -119 -416 -119q-211 0 -356 92q-146 93 -146 281zM412 416 q0 -67 50.5 -107.5t135.5 -40.5q88 0 142.5 47t54.5 127q0 118 -181 148q-94 -12 -148 -56.5t-54 -117.5zM526 946q0 -55 44 -92.5t118 -48.5q82 6 134 50t52 114q0 61 -44 97t-121 36q-78 0 -130.5 -42.5t-52.5 -113.5z" />
<glyph unicode="9" d="M63 80l68 317h8q111 -102 303 -102q271 0 344 303q-43 -52 -123 -82.5t-165 -30.5q-165 0 -261 94.5t-96 256.5q0 250 154 401q154 154 414 154q219 0 346 -136t127 -378q0 -361 -176 -623q-88 -132 -234.5 -207.5t-327.5 -75.5q-124 0 -229.5 29.5t-151.5 79.5zM489 872 q0 -64 38.5 -101.5t105.5 -37.5q104 0 170 90q16 43 16 103q0 67 -36.5 109t-98.5 42q-87 0 -141 -56t-54 -149z" />
<glyph unicode=":" horiz-adv-x="593" d="M70 147q0 95 59 158.5t150 63.5q76 0 125 -44.5t49 -125.5q0 -98 -57 -161t-152 -63q-79 0 -126.5 46.5t-47.5 125.5zM213 815q0 97 60 160t153 63q73 0 123.5 -44.5t50.5 -125.5q0 -100 -58 -162.5t-155 -62.5q-75 0 -124.5 47.5t-49.5 124.5z" />
<glyph unicode=";" horiz-adv-x="593" d="M-98 -326q117 89 185.5 224t68.5 286q0 73 -19 135h299q15 -47 15 -122q0 -318 -306 -531h-243v8zM213 815q0 97 60 160t153 63q73 0 123.5 -44.5t50.5 -125.5q0 -100 -58 -162.5t-155 -62.5q-75 0 -124.5 47.5t-49.5 124.5z" />
<glyph unicode="&#x3c;" horiz-adv-x="1415" d="M244 494l47 217l1020 456l-54 -254l-784 -327l635 -316l-45 -225z" />
<glyph unicode="=" horiz-adv-x="1415" d="M135 291l45 201h1053l-43 -201h-1055zM231 715l41 198h1053l-41 -198h-1053z" />
<glyph unicode="&#x3e;" horiz-adv-x="1415" d="M158 45l51 256l788 328l-637 315l48 223l821 -448l-45 -219z" />
<glyph unicode="?" horiz-adv-x="962" d="M160 1022l55 311q60 51 162.5 80t197.5 29q195 0 303.5 -86t108.5 -240q0 -256 -299 -432q-107 -64 -131 -192h-272q18 112 45 174t100 114q98 68 135 111q35 41 35 96q0 125 -149 125q-158 0 -283 -90h-8zM188 147q0 94 60.5 158t152.5 64q73 0 123.5 -44.5t50.5 -125.5 q0 -98 -58 -161t-155 -63q-75 0 -124.5 47t-49.5 125z" />
<glyph unicode="@" horiz-adv-x="1683" d="M96 420q0 376 252 631q256 256 635 256q295 0 463 -162q170 -159 170 -432q0 -141 -45 -269q-44 -134 -150 -237t-250 -103q-114 0 -157 70q-17 39 -17 66q-109 -136 -282 -136q-124 0 -198.5 76.5t-74.5 210.5q0 116 49 226.5t136 189.5q125 113 282 113q151 0 197 -117 l24 98h181l-107 -444q-18 -92 -18 -127q0 -29 15 -46.5t38 -17.5q82 0 147 127q64 128 64 299q0 203 -123 332q-122 131 -354 131q-288 0 -490 -211q-202 -208 -202 -516q0 -246 155 -401q156 -156 414 -156q178 0 313.5 39t268.5 129h8l-39 -186q-224 -140 -565 -140 q-330 0 -537 195q-203 194 -203 512zM639 432q0 -156 149 -156q138 0 220 144l51 205q-24 127 -144 127q-106 0 -174 -74q-42 -44 -72 -115t-30 -131z" />
<glyph unicode="A" horiz-adv-x="1499" d="M-94 0l57 272h117l674 1139h381l192 -1139h127l-57 -272h-629l55 272h129l-14 97h-385l-55 -97h137l-55 -272h-674zM690 635h223q-36 267 -43 346q-25 -53 -180 -346z" />
<glyph unicode="B" horiz-adv-x="1404" d="M-57 0l57 272h133l182 867h-139l55 272h580q157 0 266 -16q141 -20 220 -95.5t79 -193.5q0 -272 -276 -377q114 -17 177.5 -94t63.5 -189q0 -147 -84.5 -250t-240.5 -155q-131 -41 -391 -41h-682zM504 272h131q135 0 203 19q112 29 112 149q0 86 -65 113q-55 22 -172 22 h-142zM629 858h106q134 0 183 19q88 40 88 147q0 79 -82 100q-46 15 -138 15h-96z" />
<glyph unicode="C" horiz-adv-x="1484" d="M102 555q0 206 82.5 391.5t233.5 306.5q239 189 573 189q143 0 277 -35q136 -35 188 -84l-76 -408h-266l25 205q-78 19 -146 19q-197 0 -334 -119q-74 -62 -118.5 -175.5t-44.5 -228.5q0 -157 96.5 -243t267.5 -86q235 0 406 110h8l-66 -329q-168 -97 -473 -97 q-286 0 -461 156q-172 156 -172 428z" />
<glyph unicode="D" horiz-adv-x="1540" d="M-57 0l57 272h133l180 867h-137l55 272h494q310 0 487 -70q146 -57 225 -180t79 -293q0 -635 -521 -805q-186 -63 -551 -63h-501zM504 279h78q221 0 342 71q103 60 162 185.5t59 271.5q0 183 -117 260q-92 59 -262 59h-82z" />
<glyph unicode="E" horiz-adv-x="1228" d="M-57 0l57 272h133l182 867h-139l55 272h1063l-82 -428h-266l19 147h-275l-57 -264h401l-59 -286h-400l-65 -299h352l47 168h267l-101 -449h-1132z" />
<glyph unicode="F" horiz-adv-x="1171" d="M-57 0l57 272h133l182 867h-139l55 272h1059l-80 -428h-266l19 145h-273l-63 -292h420l-58 -287h-422l-59 -277h188l-53 -272h-700z" />
<glyph unicode="G" horiz-adv-x="1527" d="M102 530q0 235 91.5 429t257.5 313q238 170 565 170q151 0 284 -37q137 -34 195 -86l-74 -406h-268l25 203q-77 23 -156 23q-205 0 -336 -101q-86 -69 -138 -184t-52 -246q0 -163 85 -245t240 -82q101 0 160 26l45 203h-166l55 272h607l-52 -272h-88l-88 -414 q-210 -125 -563 -125q-277 0 -455 152q-174 152 -174 407z" />
<glyph unicode="H" horiz-adv-x="1574" d="M-57 0l57 272h133l182 867h-139l55 272h652l-54 -272h-137l-57 -273h455l57 273h-135l55 272h651l-53 -272h-139l-185 -867h148l-55 -272h-654l56 272h129l65 310h-455l-67 -310h147l-57 -272h-655z" />
<glyph unicode="I" horiz-adv-x="735" d="M-57 0l57 272h133l182 867h-143l57 272h648l-56 -272h-129l-184 -867h141l-57 -272h-649z" />
<glyph unicode="J" horiz-adv-x="937" d="M-49 41l61 291h8q77 -51 168 -51q110 0 168 73q41 53 68 191l125 594h-162l57 272h654l-56 -272h-114l-127 -609q-58 -266 -131 -370q-130 -189 -430 -189q-195 0 -289 70z" />
<glyph unicode="K" horiz-adv-x="1542" d="M-57 0l57 272h133l182 867h-139l55 272h613l-58 -272h-92l-63 -281l315 281h-55l55 272h631l-55 -272h-174l-324 -291l238 -576h186l-55 -272h-439l-225 561l-199 -178l-24 -111h133l-55 -272h-641z" />
<glyph unicode="L" horiz-adv-x="1232" d="M-57 0l57 272h133l182 867h-139l55 272h662l-55 -272h-146l-182 -858h330l47 168h264l-98 -449h-1110z" />
<glyph unicode="M" horiz-adv-x="1847" d="M-57 0l57 272h133l182 867h-143l57 272h629q70 -469 103 -715l395 715h635l-58 -272h-137l-184 -867h145l-53 -272h-645l57 272h129q117 539 158 699l-408 -709h-258l-114 713q-34 -189 -140 -703h142l-56 -272h-626z" />
<glyph unicode="N" horiz-adv-x="1587" d="M-55 0l53 272h135l182 867h-139l55 272h570q239 -662 280 -797q37 218 105 525h-150l58 272h637l-54 -272h-133l-237 -1139h-394q-267 812 -288 889q-55 -269 -129 -617h151l-55 -272h-647z" />
<glyph unicode="O" horiz-adv-x="1599" d="M104 578q0 195 80 376.5t224 298.5q230 189 528 189q276 0 455 -156q180 -152 180 -440q0 -202 -74.5 -382.5t-214.5 -301.5q-226 -191 -539 -191q-276 0 -460 158q-179 156 -179 449zM496 582q0 -308 280 -308q166 0 275 136q61 79 94 198q37 124 37 232q0 301 -275 301 q-159 0 -268 -133q-62 -77 -102 -199q-41 -121 -41 -227z" />
<glyph unicode="P" horiz-adv-x="1396" d="M-57 0l57 272h133l180 867h-137l55 272h588q197 0 336 -47q123 -41 190.5 -137t67.5 -230q0 -385 -323 -505q-168 -60 -404 -60h-145l-37 -160h174l-53 -272h-682zM598 715h121q133 0 194 28q111 55 111 207q0 100 -74 144q-49 32 -170 32h-96z" />
<glyph unicode="Q" horiz-adv-x="1599" d="M104 578q0 195 80 376.5t224 298.5q230 189 528 189q276 0 455 -156q180 -152 180 -440q0 -202 -74.5 -382.5t-214.5 -301.5l-39 -31l254 -166l-207 -262l-407 281q-73 -13 -140 -13q-276 0 -460 158q-179 156 -179 449zM496 582q0 -308 280 -308q166 0 275 136 q61 79 94 198q37 124 37 232q0 301 -275 301q-159 0 -268 -133q-62 -77 -102 -199q-41 -121 -41 -227z" />
<glyph unicode="R" horiz-adv-x="1415" d="M-57 0l57 272h133l182 867h-139l55 272h592q235 0 348 -45q104 -42 164 -126.5t60 -195.5q0 -342 -322 -477l119 -295h168l-55 -272h-404l-182 506q-23 -2 -160 -2l-51 -232h147l-57 -272h-655zM616 780h93q146 0 198 27q101 49 101 170q0 94 -70 121q-52 22 -170 22h-80 z" />
<glyph unicode="S" horiz-adv-x="1271" d="M39 102l53 398h248l-8 -185q122 -43 254 -43q200 0 200 125q0 88 -137 140l-145 55q-297 107 -297 360q0 237 161 363.5t472 126.5q114 0 260 -35q142 -34 194 -74l-57 -395h-252l10 184q-107 35 -209 35q-84 0 -133 -35.5t-49 -95.5q0 -79 101 -119l163 -63 q167 -66 240.5 -157t73.5 -218q0 -218 -146 -358t-463 -140q-315 0 -534 131z" />
<glyph unicode="T" horiz-adv-x="1366" d="M150 958l104 453h1223l-82 -453h-267l21 168h-162l-182 -852h168l-58 -274h-698l57 274h154l180 852h-149l-45 -168h-264z" />
<glyph unicode="U" horiz-adv-x="1515" d="M137 389q0 92 29 234l106 516h-125l56 272h647l-57 -272h-144l-110 -539q-23 -112 -23 -162q0 -77 57 -120.5t150 -43.5q167 0 238 95q46 63 86 241l110 529h-153l59 272h616l-57 -272h-121l-112 -537q-59 -287 -146 -399q-182 -232 -575 -232q-231 0 -381 105t-150 313z " />
<glyph unicode="V" horiz-adv-x="1486" d="M141 1139l56 272h641l-56 -272h-135l51 -355l33 -237l17 -111q48 102 370 703h-141l55 272h635l-53 -272h-125l-653 -1139h-381l-189 1139h-125z" />
<glyph unicode="W" horiz-adv-x="2148" d="M147 1139l58 272h672l-56 -272h-155q10 -339 14 -617q107 222 467 889h266q78 -652 92 -887q77 192 287 615h-162l58 272h630l-55 -272h-113l-571 -1139h-322q-75 712 -88 928q-119 -246 -485 -928h-322l-90 1139h-125z" />
<glyph unicode="X" horiz-adv-x="1527" d="M-53 0l55 272h117l444 486l-201 381h-131l56 272h635l-56 -272h-88l103 -211l184 211h-96l55 272h588l-60 -272h-112l-365 -394l258 -473h117l-57 -272h-654l56 272h114q-134 253 -151 291q-50 -53 -111 -125q-56 -68 -143 -166h125l-58 -272h-624z" />
<glyph unicode="Y" horiz-adv-x="1421" d="M141 1139l56 272h649l-53 -272h-123q78 -200 121 -332q69 95 260 332h-111l57 272h605l-58 -272h-129l-512 -609l-55 -258h149l-55 -272h-674l54 272h147l55 258l-256 609h-127z" />
<glyph unicode="Z" horiz-adv-x="1335" d="M-53 0l41 215l843 909h-380l-50 -184h-264l107 471h1145l-46 -219l-825 -907h457l53 190h260l-104 -475h-1237z" />
<glyph unicode="[" horiz-adv-x="692" d="M-45 -344l389 1857h516l-39 -182h-243l-316 -1489h244l-37 -186h-514z" />
<glyph unicode="\" horiz-adv-x="886" d="M217 1497h172l375 -1614h-172z" />
<glyph unicode="]" horiz-adv-x="692" d="M-154 -344l39 184h240l315 1489h-243l39 184h512l-390 -1857h-512z" />
<glyph unicode="^" horiz-adv-x="1456" d="M242 573l573 809h221l207 -809h-213l-141 572l-402 -572h-245z" />
<glyph unicode="_" horiz-adv-x="1056" d="M-154 -303l31 143h1051l-27 -143h-1055z" />
<glyph unicode="`" horiz-adv-x="425" d="M-66 1522v8h342l220 -344v-8h-236z" />
<glyph unicode="a" horiz-adv-x="1329" d="M49 379q0 144 56.5 281t160.5 235q165 154 383 154q191 0 260 -134l23 107h338l-123 -594q-14 -57 -14 -90q0 -76 73 -76q50 0 86 19l6 -2l-57 -261q-75 -34 -197 -34q-238 0 -241 186q-121 -195 -373 -195q-171 0 -276 106.5t-105 297.5zM408 442q0 -89 44 -136.5 t119 -47.5q149 0 228 156l49 215q-12 66 -55 100.5t-107 34.5q-112 0 -186 -86q-92 -109 -92 -236z" />
<glyph unicode="b" horiz-adv-x="1304" d="M29 0l256 1217h-131l57 274h473l-135 -612q46 72 140.5 121t201.5 49q168 0 265 -101t97 -289q0 -328 -180 -520q-150 -159 -379 -159q-108 0 -194.5 41t-124.5 110l-37 -131h-309zM457 406q12 -67 65 -105.5t123 -38.5q109 0 172 84q80 103 80 254q0 81 -42.5 125.5 t-115.5 44.5q-68 0 -131.5 -38.5t-103.5 -108.5z" />
<glyph unicode="c" horiz-adv-x="1081" d="M51 412q0 158 67 290.5t187 221.5q168 125 406 125q83 0 196 -25q107 -21 144 -55l-54 -359h-237l16 158q-38 6 -76 6q-105 0 -186 -63q-50 -39 -81.5 -107t-31.5 -141q0 -98 63.5 -152.5t180.5 -54.5q164 0 285 80h8l-55 -295q-121 -68 -340 -68q-218 0 -355 113 t-137 326z" />
<glyph unicode="d" horiz-adv-x="1339" d="M49 381q0 304 219 514q165 154 381 154q91 0 162.5 -31.5t99.5 -89.5l62 289h-129l57 274h469l-221 -1063q-14 -57 -14 -90q0 -76 73 -76q46 0 86 19l6 -2l-55 -261q-78 -34 -203 -34q-193 0 -227 125q-8 53 -8 59q-115 -195 -371 -195q-168 0 -278 107 q-109 109 -109 301zM408 438q0 -180 163 -180q138 0 230 154l47 215q-13 67 -56.5 102t-105.5 35q-114 0 -188 -86q-40 -43 -65 -112t-25 -128z" />
<glyph unicode="e" horiz-adv-x="1144" d="M51 422q0 282 193 463q168 162 418 162q206 0 323 -107.5t117 -292.5q0 -114 -25 -209h-684q-2 -6 -2 -18q0 -164 256 -164q195 0 373 102h8l-57 -284q-154 -101 -410 -101q-236 0 -375 121q-135 123 -135 328zM422 625h371q6 24 6 47q0 56 -41.5 87.5t-108.5 31.5 q-77 0 -139.5 -42t-87.5 -124z" />
<glyph unicode="f" horiz-adv-x="729" d="M-27 -358l230 1106h-133l53 274h135l18 88q43 205 154 299q122 107 338 107q53 0 120 -15.5t105 -34.5l-57 -274h-8q-52 37 -135 37q-84 0 -117 -33q-44 -38 -62 -119l-12 -55h193l-56 -274h-190l-236 -1106h-340z" />
<glyph unicode="g" horiz-adv-x="1337" d="M10 -309l64 293h8q57 -60 155 -93.5t214 -33.5q137 0 215 69q37 32 73 168l13 45q-109 -121 -310 -121q-177 0 -284 99t-107 284q0 149 63 287.5t177 235.5q143 125 354 125q96 0 165.5 -34t100.5 -95l23 102h446l-51 -274h-123l-127 -613q-54 -254 -116 -340 q-155 -223 -525 -223q-141 0 -255.5 33.5t-172.5 85.5zM410 457q0 -79 47 -120.5t125 -41.5q134 0 211 129l49 219q-13 59 -56 91t-104 32q-106 0 -178 -72q-94 -94 -94 -237z" />
<glyph unicode="h" horiz-adv-x="1273" d="M31 0l254 1217h-127l57 274h473l-131 -621q50 81 137.5 129t188.5 48q123 0 198.5 -63t75.5 -187q0 -69 -31 -209l-34 -162q-15 -61 -15 -88q0 -76 74 -76q47 0 90 19l6 -2l-61 -261q-78 -34 -199 -34q-141 0 -207.5 58.5t-66.5 158.5q0 51 16 139l43 199q16 82 16 114 q0 88 -92 88q-126 0 -196 -143l-125 -598h-344z" />
<glyph unicode="i" horiz-adv-x="671" d="M80 748l55 274h475l-131 -596q-12 -52 -12 -88q0 -76 74 -76q48 0 88 19l6 -2l-60 -261q-75 -34 -200 -34q-141 0 -208 59.5t-67 159.5q0 38 19 135l88 410h-127zM283 1305q0 87 53 143.5t137 56.5q67 0 112.5 -39.5t45.5 -113.5q0 -89 -53 -146t-140 -57 q-68 0 -111.5 42.5t-43.5 113.5z" />
<glyph unicode="j" horiz-adv-x="684" d="M-250 -383l60 270h8q41 -30 110 -30q63 0 92.5 30.5t51.5 130.5l153 730h-129l56 274h477l-213 -1016q-49 -242 -137 -330q-100 -106 -328 -106q-124 0 -201 47zM289 1305q0 87 53.5 143.5t138.5 56.5q66 0 111 -40.5t45 -112.5q0 -89 -53 -146t-140 -57 q-68 0 -111.5 42.5t-43.5 113.5z" />
<glyph unicode="k" horiz-adv-x="1216" d="M31 0l254 1217h-131l59 274h473l-174 -819l244 241l22 109h463l-57 -274h-234l-108 -91q11 -21 42.5 -94t57.5 -134.5t27 -61.5q37 -64 60.5 -84.5t64.5 -20.5q54 0 94 19l6 -2l-59 -263q-71 -32 -174 -32q-108 0 -166.5 44.5t-110.5 157.5l-96 222l-156 -138l-57 -270 h-344z" />
<glyph unicode="l" horiz-adv-x="663" d="M84 203q0 43 18 135l185 879h-129l59 274h471l-225 -1065q-10 -52 -10 -88q0 -76 71 -76q52 0 88 19l6 -2l-59 -261q-78 -34 -201 -34q-141 0 -207.5 59.5t-66.5 159.5z" />
<glyph unicode="m" horiz-adv-x="1902" d="M55 0l158 748h-131l55 274h467l-39 -172q55 89 143.5 143t186.5 54q243 0 270 -195q58 92 149 143.5t199 51.5q122 0 196.5 -63t74.5 -185q0 -88 -31 -221l-35 -152q-12 -52 -12 -88q0 -76 74 -76q52 0 88 19l6 -2l-59 -261q-75 -34 -201 -34q-141 0 -208 58.5t-67 158.5 q0 63 17 139l45 199q18 73 18 125q0 77 -92 77q-53 0 -102.5 -35.5t-79.5 -93.5q-2 -22 -8 -53l-115 -559h-346l112 547q17 93 17 110q0 84 -92 84q-121 0 -189 -141l-125 -600h-344z" />
<glyph unicode="n" horiz-adv-x="1296" d="M55 0l158 748h-131l57 274h465l-39 -172q52 89 143.5 143t198.5 54q123 0 199 -63t76 -187q0 -66 -31 -209l-37 -160q-14 -57 -14 -90q0 -76 74 -76q50 0 90 19l6 -2l-60 -261q-81 -34 -200 -34q-143 0 -211 59.5t-68 163.5q0 49 19 133l47 199q16 82 16 114q0 88 -94 88 q-60 0 -112 -38.5t-83 -104.5l-125 -598h-344z" />
<glyph unicode="o" horiz-adv-x="1243" d="M51 420q0 274 201 463q89 78 205 121t229 43q212 0 356 -111q144 -108 144 -328q0 -143 -57.5 -273.5t-161.5 -217.5q-179 -144 -418 -144q-211 0 -354 113q-144 114 -144 334zM403 440q0 -91 48 -139.5t131 -48.5q102 0 168 78q81 93 81 252q0 90 -46 139t-123 49 q-112 0 -185 -94q-74 -103 -74 -236z" />
<glyph unicode="p" horiz-adv-x="1318" d="M-35 -397l242 1145h-129l55 274h463l-29 -145q45 74 140.5 123t203.5 49q165 0 263 -101t98 -289q0 -327 -176 -518q-145 -157 -375 -157q-101 0 -182 35.5t-117 97.5l-111 -514h-346zM477 408q12 -67 65 -105.5t122 -38.5q112 0 178 84q73 98 73 252q0 83 -41 126.5 t-116 43.5q-68 0 -131 -38.5t-103 -108.5z" />
<glyph unicode="q" horiz-adv-x="1355" d="M49 383q0 143 58 279t165 237q158 152 379 152q95 0 170.5 -37t104.5 -101l22 109h436l-57 -274h-104l-242 -1145h-342l111 526q-103 -145 -312 -145q-175 0 -282 104.5t-107 294.5zM408 436q0 -172 172 -172q142 0 225 144l47 219q-27 139 -168 139q-105 0 -182 -86 q-94 -107 -94 -244z" />
<glyph unicode="r" horiz-adv-x="903" d="M51 0l154 748h-127l55 274h465l-35 -164q101 186 279 186q75 0 114 -26l-67 -322h-8q-53 35 -140 35q-89 0 -141.5 -37.5t-85.5 -120.5l-119 -573h-344z" />
<glyph unicode="s" horiz-adv-x="1058" d="M29 78l41 309h245v-137q95 -21 189 -21q112 0 112 72q0 30 -18 47.5t-68 30.5l-141 43q-258 76 -258 278q0 95 37 164t104 108t149.5 57t184.5 18q94 0 225 -25q126 -24 170 -59l-43 -299h-241l6 108q-84 19 -143 19q-111 0 -111 -78q0 -54 70 -72l161 -41 q261 -64 261 -264q0 -363 -492 -363q-127 0 -247.5 29t-192.5 76z" />
<glyph unicode="t" horiz-adv-x="774" d="M63 748l54 274h139l72 281h331l-59 -281h205l-55 -274h-205l-70 -316q-12 -62 -12 -92q0 -76 106 -76q74 0 129 25h9l-52 -262q-77 -50 -252 -50q-134 0 -215.5 65.5t-81.5 188.5q0 77 13 140l82 377h-138z" />
<glyph unicode="u" horiz-adv-x="1300" d="M70 748l53 274h473l-115 -537q-12 -59 -12 -108q0 -43 30.5 -68.5t78.5 -25.5q119 0 186 137l129 602h344l-125 -594q-14 -57 -14 -90q0 -76 73 -76q51 0 91 19l6 -2l-60 -261q-78 -34 -207 -34q-175 0 -221 106q-13 30 -16 74q-124 -189 -365 -189q-131 0 -213 65 t-82 189q0 80 23 205l66 314h-123z" />
<glyph unicode="v" horiz-adv-x="1257" d="M70 748l55 274h475l-100 -444q-29 -142 -29 -175q0 -118 115 -118q121 0 196.5 122t75.5 371q0 122 -45 244h342q49 -101 49 -240q0 -177 -37.5 -316.5t-102 -230.5t-156.5 -150.5t-194.5 -84.5t-221.5 -25q-178 0 -282 79.5t-104 228.5q0 85 23 188l66 277h-125z" />
<glyph unicode="w" horiz-adv-x="1859" d="M70 748l55 274h475l-100 -444q-29 -142 -29 -175q0 -118 113 -118q92 0 157 77q2 23 19 103l117 516h333l-90 -403q-26 -116 -26 -175q0 -118 102 -118q108 0 184 114q76 116 76 379q0 134 -39 244h340q45 -91 45 -240q0 -148 -25 -270.5t-71 -209.5t-107.5 -151 t-139.5 -102t-161.5 -56t-177.5 -18q-124 0 -212 45.5t-115 116.5q-113 -162 -330 -162q-161 0 -260 81.5t-99 219.5q0 73 23 185l68 287h-125z" />
<glyph unicode="x" horiz-adv-x="1191" d="M-47 0l53 272h154l235 263l-112 213h-168l71 274h349l133 -270l116 137l29 133h451l-60 -274h-155l-211 -222l106 -196q35 -66 115 -66q54 0 94 19l6 -2l-59 -263q-74 -32 -182 -32q-99 0 -155.5 42t-117.5 146l-70 119l-137 -158l-30 -135h-455z" />
<glyph unicode="y" horiz-adv-x="1288" d="M41 -311l63 293h9q125 -125 344 -125q137 0 198 67q48 51 72 170l14 70q-66 -79 -138.5 -116.5t-174.5 -37.5q-131 0 -215 65t-84 189q0 92 25 205l61 279h-127l55 274h473l-106 -502q-14 -63 -14 -108q0 -44 30 -69.5t80 -25.5q116 0 187 138l120 567h347l-183 -887 q-49 -243 -123 -352q-138 -211 -495 -211q-277 0 -418 117z" />
<glyph unicode="z" horiz-adv-x="1148" d="M-16 0l39 176l618 572h-250l-43 -142h-244l91 416h940l-43 -207q-531 -495 -580 -536h293l45 155h240l-93 -434h-1013z" />
<glyph unicode="{" horiz-adv-x="780" d="M14 514l39 197q134 9 185 57q58 55 84 186l45 217q44 209 149 277q109 74 326 74h108l-37 -181h-63q-97 0 -152 -44t-80 -162l-45 -209q-41 -188 -118 -254q-41 -32 -77.5 -48t-96.5 -30q163 -27 163 -209q0 -66 -16 -141q-51 -236 -51 -291q0 -131 149 -131h68l-37 -178 h-96q-186 0 -270.5 57t-84.5 184q0 66 68 367q14 55 14 113q0 73 -39.5 105.5t-134.5 43.5z" />
<glyph unicode="|" horiz-adv-x="542" d="M-55 -377l407 1944h258l-407 -1944h-258z" />
<glyph unicode="}" horiz-adv-x="780" d="M-156 -356l37 180h64q97 0 151.5 44t79.5 163l45 211q37 174 105 239q73 67 190 90q-168 27 -168 209q0 61 19 142q51 236 51 290q0 134 -150 134h-67l39 176h96q186 0 268 -57t82 -185q0 -78 -63 -367q-17 -73 -17 -112q0 -73 40 -106t134 -44l-41 -196 q-129 -9 -186 -60q-55 -49 -82 -184l-43 -217q-41 -206 -149 -277q-107 -73 -324 -73h-111z" />
<glyph unicode="~" horiz-adv-x="1415" d="M168 553q181 227 358 227q87 0 226 -80q107 -61 178 -61q61 0 111 33.5t112 115.5l135 -118q-91 -122 -177 -179t-191 -57q-104 0 -228 74q-115 65 -178 65q-104 0 -217 -143z" />
<glyph unicode="&#xa1;" horiz-adv-x="655" d="M-92 -381q0 18 37 154q10 47 43 168q87 325 166 579h276q-60 -464 -133 -901h-389zM152 831q0 98 58 161t155 63q75 0 124.5 -47t49.5 -125q0 -95 -60 -158t-153 -63q-74 0 -124 44t-50 125z" />
<glyph unicode="&#xa2;" horiz-adv-x="1091" d="M96 401q0 300 230 490q145 118 354 133l43 205h119l-43 -203q80 -3 166 -31q83 -24 114 -55l-67 -338h-209l22 152q-52 10 -82 10l-104 -496h20q193 0 320 92h8l-59 -284q-103 -77 -346 -86l-45 -215h-121l45 221q-168 21 -266.5 127.5t-98.5 277.5zM430 473 q0 -126 94 -178l97 450q-43 -11 -80 -40q-111 -95 -111 -232z" />
<glyph unicode="&#xa3;" horiz-adv-x="1284" d="M4 0l39 197q307 126 307 315q0 42 -8 63h-205l35 181h143q-8 76 -8 123q0 236 156 374t420 138q105 0 223 -31q115 -30 164 -82l-70 -303h-8q-115 112 -297 112q-227 0 -227 -215q0 -24 6 -116h348l-33 -181h-305q0 -43 -6 -73q-21 -135 -193 -219h422l41 145h236 l-88 -428h-1092z" />
<glyph unicode="&#xa4;" horiz-adv-x="1257" d="M135 322l150 131q-64 82 -64 221q0 140 90 262l-129 149l152 132l129 -150q80 51 203 51q148 0 258 -84l147 135l127 -145l-145 -135q57 -80 57 -215q0 -163 -86 -266l129 -150l-149 -133l-125 149q-88 -49 -203 -49q-159 0 -266 76l-146 -129zM438 678 q0 -111 61.5 -180.5t168.5 -69.5q95 0 161 69t66 179q0 108 -63.5 176t-161.5 68q-96 0 -164 -68t-68 -174z" />
<glyph unicode="&#xa5;" horiz-adv-x="1413" d="M133 377l31 139h346v14l-49 119h-271l31 139h185l-127 310h-146l57 264h609l-54 -264h-98l105 -305q126 173 239 305h-94l64 264h573l-53 -264h-144l-260 -310h187l-31 -139h-268l-103 -119l-2 -14h346l-30 -139h-345l-24 -113h170l-55 -264h-680l49 264h162l26 113h-346 z" />
<glyph unicode="&#xa6;" horiz-adv-x="542" d="M-14 -193l139 674h258l-139 -674h-258zM193 791l137 673h258l-137 -673h-258z" />
<glyph unicode="&#xa7;" horiz-adv-x="1118" d="M-39 -102l62 278h8q168 -162 405 -162q123 0 123 80q0 32 -18.5 53.5t-79.5 59.5q-136 81 -258 164q-117 77 -117 209q0 107 66.5 174.5t185.5 91.5q-92 92 -92 231q0 189 141 291q144 102 352 102q257 0 396 -127l-66 -282h-8q-152 143 -348 143q-119 0 -119 -84 q0 -30 19.5 -53t72.5 -55q226 -132 277 -172q98 -76 98 -199q0 -108 -67.5 -182t-182.5 -99q109 -83 109 -225q0 -203 -150 -297q-148 -98 -377 -98q-116 0 -237.5 43t-194.5 115zM414 657q0 -49 57 -86q115 -75 170 -98q36 2 65 25.5t29 54.5q0 44 -39 70q-109 73 -188 112 q-39 -2 -66.5 -24t-27.5 -54z" />
<glyph unicode="&#xa8;" horiz-adv-x="425" d="M-129 1335q0 75 45 124.5t117 49.5q59 0 96 -34t37 -99q0 -77 -45 -126.5t-121 -49.5q-57 0 -93 37t-36 98zM260 1335q0 74 46.5 124t117.5 50q59 0 96 -34t37 -99q0 -75 -46 -125.5t-118 -50.5q-58 0 -95.5 37t-37.5 98z" />
<glyph unicode="&#xa9;" horiz-adv-x="1673" d="M115 707q0 312 209 524q213 213 522 213q323 0 528 -211q207 -210 207 -526q0 -313 -209 -525q-208 -211 -524 -211q-313 0 -524 211q-209 212 -209 525zM207 707q0 -279 182 -467q181 -187 459 -187q280 0 461 187q184 187 184 467q0 277 -184 464q-183 189 -463 189 q-274 0 -457 -189q-182 -188 -182 -464zM406 629q0 275 192 430q139 115 356 115q92 0 171.5 -23t111.5 -59l-55 -261h-172l20 132q-35 6 -67 6q-121 0 -199 -66q-100 -81 -100 -233q0 -99 58 -154t157 -55q139 0 245 71h9l-37 -229q-112 -59 -295 -59q-178 0 -287 106 q-108 108 -108 279z" />
<glyph unicode="&#xaa;" horiz-adv-x="868" d="M90 840q0 200 143 331q105 99 254 99q123 0 164 -86l17 69h225l-80 -366q-10 -58 -10 -68q0 -51 49 -51q30 0 59 16l9 -2l-39 -172q-49 -24 -131 -24q-130 0 -154 76q-6 26 -8 40q-79 -122 -246 -122q-113 0 -182.5 69t-69.5 191zM328 881q0 -55 29 -86t77 -31 q85 0 141 90l37 143q-15 86 -98 86q-80 0 -125 -51q-61 -67 -61 -151z" />
<glyph unicode="&#xab;" horiz-adv-x="1038" d="M43 526l346 367h260l-360 -381l203 -373h-238zM465 526l346 367h258l-358 -381l202 -373h-237z" />
<glyph unicode="&#xac;" horiz-adv-x="1415" d="M182 504l41 198h1053l-143 -630h-199l98 432h-850z" />
<glyph unicode="&#xad;" horiz-adv-x="655" d="M63 444l48 244h499l-49 -244h-498z" />
<glyph unicode="&#xae;" horiz-adv-x="1673" d="M115 707q0 312 209 524q213 213 522 213q323 0 528 -211q207 -210 207 -526q0 -313 -209 -525q-208 -211 -524 -211q-313 0 -524 211q-209 212 -209 525zM207 707q0 -279 182 -467q181 -187 459 -187q280 0 461 187q184 187 184 467q0 277 -184 464q-183 189 -463 189 q-274 0 -457 -189q-182 -188 -182 -464zM387 297l35 162h84l117 545h-88l34 163h381q161 0 238 -47q104 -64 104 -198q0 -210 -209 -275l78 -188h115l-35 -162h-240l-114 315q-29 -2 -137 -2l-35 -151h84l-33 -162h-379zM786 780h64q119 0 158 17q67 27 67 106q0 63 -51 78 q-38 12 -121 12h-72z" />
<glyph unicode="&#xaf;" horiz-adv-x="425" d="M-133 1233l41 203h653l-43 -203h-651z" />
<glyph unicode="&#xb0;" horiz-adv-x="628" d="M174 1176q0 123 79.5 202.5t199.5 79.5q121 0 195.5 -77.5t74.5 -202.5q0 -118 -80 -201q-79 -82 -197 -82q-114 0 -194 80q-78 84 -78 201zM291 1176q0 -76 41 -124t117 -48q54 -4 94 28.5t55 80t7 101t-42 86.5q-48 48 -117 48q-71 0 -113 -48t-42 -124z" />
<glyph unicode="&#xb1;" horiz-adv-x="1415" d="M74 0l39 199h1054l-43 -199h-1050zM229 739l43 199h424l97 414h200l-96 -414h426l-43 -199h-424l-98 -417h-201l98 417h-426z" />
<glyph unicode="&#xb2;" horiz-adv-x="845" d="M137 819l23 123q180 114 364 258q113 88 113 182q0 43 -29 71t-78 28q-118 0 -256 -105l-8 2l37 195q59 49 147 78.5t171 29.5q125 0 198.5 -62t73.5 -161q0 -91 -38.5 -160t-125.5 -139q-127 -103 -227 -158q61 3 213 3l28 96h152l-61 -281h-697z" />
<glyph unicode="&#xb3;" horiz-adv-x="845" d="M184 868l45 209h9q87 -78 231 -78q63 0 99 21.5t36 62.5q0 52 -53 64q-59 12 -123 12h-29l35 172h31q81 0 119 10q59 18 59 76q0 62 -90 62q-116 0 -238 -78h-8l35 198q119 82 293 82q131 0 198.5 -53t67.5 -141q0 -177 -201 -230q82 -12 124 -57.5t42 -109.5 q0 -150 -116 -220q-115 -69 -291 -69q-181 0 -275 67z" />
<glyph unicode="&#xb4;" horiz-adv-x="425" d="M-109 1178v8l295 344h344v-8l-401 -344h-238z" />
<glyph unicode="&#xb5;" horiz-adv-x="1239" d="M-78 -432l303 1452h346l-114 -535q-13 -60 -13 -110q0 -42 29.5 -66t79.5 -24q124 0 188 110l136 625h344l-213 -1020h-332l29 137q-71 -139 -218 -139q-82 0 -120 47l-101 -477h-344z" />
<glyph unicode="&#xb6;" horiz-adv-x="1159" d="M154 834q0 284 198 430q200 147 525 147h307l-357 -1706h-108l338 1600h-193l-338 -1600h-106l153 731q-199 6 -309 119t-110 279z" />
<glyph unicode="&#xb7;" horiz-adv-x="546" d="M78 522q0 97 59 160t152 63q76 0 125 -44.5t49 -127.5q0 -98 -57.5 -160.5t-153.5 -62.5q-76 0 -125 47t-49 125z" />
<glyph unicode="&#xb8;" horiz-adv-x="425" d="M-43 -502l37 150h8q58 -43 131 -43q107 0 107 69q0 72 -103 72q-45 0 -86 -14l-6 4l119 282h149l-61 -137q91 -4 142.5 -56t51.5 -130q0 -124 -79.5 -185t-216.5 -61q-126 0 -193 49z" />
<glyph unicode="&#xb9;" horiz-adv-x="845" d="M256 819l33 189h149l94 417l-204 -94l45 217l258 119h194l-147 -659h160l-37 -189h-545z" />
<glyph unicode="&#xba;" horiz-adv-x="788" d="M98 864q0 198 127 307q113 101 281 101q146 0 239 -74t93 -207q0 -94 -37 -181.5t-103 -141.5q-110 -88 -270 -88q-145 0 -237.5 74.5t-92.5 209.5zM334 885q0 -56 30 -86.5t82 -30.5q65 0 101 45q53 59 53 158q0 112 -106 112q-75 0 -117 -57q-43 -61 -43 -141z" />
<glyph unicode="&#xbb;" horiz-adv-x="1038" d="M-43 139l356 379l-200 375h239l211 -389l-346 -365h-260zM379 139l356 379l-200 375h239l211 -389l-346 -365h-260z" />
<glyph unicode="&#xbc;" horiz-adv-x="1822" d="M162 518l35 189h149l94 417l-207 -94l46 217l260 119h192l-147 -659h159l-36 -189h-545zM442 -25l885 1422h156l-883 -1422h-158zM903 207l31 139l518 502h199l-101 -467h127l-37 -174h-124l-43 -207h-234l47 207h-383zM1153 381h170l27 108l26 115q-79 -85 -223 -223z " />
<glyph unicode="&#xbd;" horiz-adv-x="1822" d="M131 518l35 189h149l95 417l-207 -94l45 217l260 119h192l-147 -659h160l-37 -189h-545zM397 -25l885 1422h156l-883 -1422h-158zM952 0l23 123q180 114 364 258q113 88 113 182q0 44 -28.5 71.5t-77.5 27.5q-118 0 -256 -105l-9 2l37 195q59 49 147 78.5t171 29.5 q125 0 198.5 -62t73.5 -161q0 -91 -38.5 -160t-125.5 -139q-127 -103 -227 -158q41 2 213 2l29 97h151l-61 -281h-697z" />
<glyph unicode="&#xbe;" horiz-adv-x="1822" d="M102 567l45 209h9q90 -78 233 -78q61 0 97 22t36 62q0 49 -53 64q-59 12 -123 12h-27l35 172h29q76 0 121 10q57 18 57 76q0 62 -88 62q-118 0 -240 -78h-8l37 198q119 82 293 82q129 0 196.5 -53t67.5 -141q0 -177 -201 -230q83 -11 124.5 -57t41.5 -111 q0 -149 -116 -219q-112 -69 -291 -69q-181 0 -275 67zM451 -25l884 1422h156l-883 -1422h-157zM918 207l30 139l518 502h199l-100 -467h127l-37 -174h-125l-43 -207h-234l47 207h-382zM1167 381h170l27 108l27 115q-71 -77 -224 -223z" />
<glyph unicode="&#xbf;" horiz-adv-x="962" d="M-35 -86q0 253 299 432q107 61 131 193h275q-18 -117 -47 -177t-101 -112q-98 -68 -135 -111q-35 -41 -35 -96q0 -125 148 -125q154 0 282 90h9l-54 -311q-63 -53 -166 -80q-113 -29 -194 -29q-192 0 -302 87t-110 239zM377 831q0 98 58 161t155 63q75 0 124.5 -47.5 t49.5 -124.5q0 -95 -60 -158t-153 -63q-74 0 -124 44t-50 125z" />
<glyph unicode="&#xc0;" horiz-adv-x="1499" d="M-94 0l57 272h117l674 1139h381l192 -1139h127l-57 -272h-629l55 272h129l-14 97h-385l-55 -97h137l-55 -272h-674zM514 1812v9h369l264 -277v-8h-258zM690 635h223q-36 267 -43 346q-25 -53 -180 -346z" />
<glyph unicode="&#xc1;" horiz-adv-x="1499" d="M-94 0l57 272h117l674 1139h381l192 -1139h127l-57 -272h-629l55 272h129l-14 97h-385l-55 -97h137l-55 -272h-674zM690 635h223q-36 267 -43 346q-25 -53 -180 -346zM717 1536v8l330 277h385v-9l-447 -276h-268z" />
<glyph unicode="&#xc2;" horiz-adv-x="1499" d="M-94 0l57 272h117l674 1139h381l192 -1139h127l-57 -272h-629l55 272h129l-14 97h-385l-55 -97h137l-55 -272h-674zM532 1536v8l357 279h207l254 -279v-8h-256l-129 109l-162 -109h-271zM690 635h223q-36 267 -43 346q-25 -53 -180 -346z" />
<glyph unicode="&#xc3;" horiz-adv-x="1499" d="M-94 0l57 272h117l674 1139h381l192 -1139h127l-57 -272h-629l55 272h129l-14 97h-385l-55 -97h137l-55 -272h-674zM557 1538q24 147 92.5 224t169.5 77q43 0 164 -59q68 -39 104 -39q57 0 78 100h185q-49 -303 -252 -303q-67 0 -176 59q-67 37 -99 37q-60 0 -84 -96 h-182zM690 635h223q-36 267 -43 346q-25 -53 -180 -346z" />
<glyph unicode="&#xc4;" horiz-adv-x="1499" d="M-94 0l57 272h117l674 1139h381l192 -1139h127l-57 -272h-629l55 272h129l-14 97h-385l-55 -97h137l-55 -272h-674zM623 1661q0 75 44.5 124.5t116.5 49.5q58 0 96 -35t38 -100q0 -77 -45 -125.5t-121 -48.5q-57 0 -93 37t-36 98zM690 635h223q-36 267 -43 346 q-25 -53 -180 -346zM1028 1661q0 74 46.5 124t117.5 50q57 0 95 -35t38 -100q0 -75 -45 -124.5t-119 -49.5q-61 0 -97 36t-36 99z" />
<glyph unicode="&#xc5;" horiz-adv-x="1499" d="M-94 0l57 272h117l674 1139h381l192 -1139h127l-57 -272h-629l55 272h129l-14 97h-385l-55 -97h137l-55 -272h-674zM690 635h223q-36 267 -43 346q-25 -53 -180 -346zM760 1671q0 90 63 148.5t156 58.5q86 0 137 -54t51 -141q0 -91 -59.5 -150.5t-151.5 -59.5 q-86 0 -141 56t-55 142zM858 1675q0 -46 26 -76t74 -30q46 0 75.5 32.5t29.5 77.5q0 101 -92 101q-50 0 -81.5 -29t-31.5 -76z" />
<glyph unicode="&#xc6;" horiz-adv-x="2017" d="M-92 0l55 272h98l719 867h-153l57 272h1401l-78 -428h-266l18 147h-276l-58 -266h400l-58 -284h-399l-63 -301h354l45 170h264l-98 -449h-1122l53 272h125l20 99h-403l-84 -99h139l-57 -272h-633zM741 635h260l95 436q-63 -84 -355 -436z" />
<glyph unicode="&#xc7;" horiz-adv-x="1484" d="M102 555q0 206 82.5 391.5t233.5 306.5q239 189 573 189q143 0 277 -35q136 -35 188 -84l-76 -408h-266l25 205q-78 19 -146 19q-197 0 -334 -119q-74 -62 -118.5 -175.5t-44.5 -228.5q0 -157 96.5 -243t267.5 -86q235 0 406 110h8l-66 -329q-154 -91 -434 -97l-43 -94 q96 -4 148.5 -57t52.5 -135q0 -124 -82.5 -188t-216.5 -64q-132 0 -203 53l35 152h10q70 -46 137 -46q109 0 109 72q0 74 -105 74q-47 0 -88 -14l-6 4l103 249q-242 30 -382.5 182.5t-140.5 395.5z" />
<glyph unicode="&#xc8;" horiz-adv-x="1228" d="M-57 0l57 272h133l182 867h-139l55 272h1063l-82 -428h-266l19 147h-275l-57 -264h401l-59 -286h-400l-65 -299h352l47 168h267l-101 -449h-1132zM348 1812v9h369l264 -277v-8h-258z" />
<glyph unicode="&#xc9;" horiz-adv-x="1228" d="M-57 0l57 272h133l182 867h-139l55 272h1063l-82 -428h-266l19 147h-275l-57 -264h401l-59 -286h-400l-65 -299h352l47 168h267l-101 -449h-1132zM573 1536v8l330 277h385v-9l-446 -276h-269z" />
<glyph unicode="&#xca;" horiz-adv-x="1228" d="M-57 0l57 272h133l182 867h-139l55 272h1063l-82 -428h-266l19 147h-275l-57 -264h401l-59 -286h-400l-65 -299h352l47 168h267l-101 -449h-1132zM356 1536v8l357 279h207l254 -279v-8h-256l-130 109l-161 -109h-271z" />
<glyph unicode="&#xcb;" horiz-adv-x="1228" d="M-57 0l57 272h133l182 867h-139l55 272h1063l-82 -428h-266l19 147h-275l-57 -264h401l-59 -286h-400l-65 -299h352l47 168h267l-101 -449h-1132zM453 1661q0 75 44.5 124.5t116.5 49.5q58 0 96 -35t38 -100q0 -77 -45 -125.5t-121 -48.5q-57 0 -93 37t-36 98zM858 1661 q0 74 46.5 124t117.5 50q57 0 95 -35t38 -100q0 -75 -45 -124.5t-119 -49.5q-61 0 -97 36t-36 99z" />
<glyph unicode="&#xcc;" horiz-adv-x="735" d="M-57 0l57 272h133l182 867h-143l57 272h648l-56 -272h-129l-184 -867h141l-57 -272h-649zM123 1812v9h369l264 -277v-8h-258z" />
<glyph unicode="&#xcd;" horiz-adv-x="735" d="M-57 0l57 272h133l182 867h-143l57 272h648l-56 -272h-129l-184 -867h141l-57 -272h-649zM332 1536v8l330 277h385v-9l-447 -276h-268z" />
<glyph unicode="&#xce;" horiz-adv-x="735" d="M-57 0l57 272h133l182 867h-143l57 272h648l-56 -272h-129l-184 -867h141l-57 -272h-649zM156 1536v8l356 279h207l254 -279v-8h-256l-129 109l-162 -109h-270z" />
<glyph unicode="&#xcf;" horiz-adv-x="735" d="M-57 0l57 272h133l182 867h-143l57 272h648l-56 -272h-129l-184 -867h141l-57 -272h-649zM242 1661q0 75 44.5 124.5t116.5 49.5q58 0 96 -35t38 -100q0 -77 -45 -125.5t-121 -48.5q-57 0 -93 37t-36 98zM647 1661q0 74 46.5 124t117.5 50q57 0 95 -35t38 -100 q0 -75 -45 -124.5t-119 -49.5q-60 0 -96.5 36t-36.5 99z" />
<glyph unicode="&#xd0;" horiz-adv-x="1540" d="M-57 0l57 272h133l70 340h-178l47 232h180l61 295h-137l55 272h494q310 0 487 -70q146 -57 225 -180t79 -293q0 -635 -521 -805q-186 -63 -551 -63h-501zM504 279h78q221 0 342 71q103 60 162 185.5t59 271.5q0 183 -117 260q-92 59 -262 59h-82l-61 -282h221l-49 -232 h-222z" />
<glyph unicode="&#xd1;" horiz-adv-x="1587" d="M-55 0l53 272h135l182 867h-139l55 272h570q239 -662 280 -797q37 218 105 525h-150l58 272h637l-54 -272h-133l-237 -1139h-394q-267 812 -288 889q-55 -269 -129 -617h151l-55 -272h-647zM633 1538q24 147 92.5 224t169.5 77q43 0 164 -59q68 -39 104 -39q57 0 78 100 h184q-49 -303 -251 -303q-68 0 -177 59q-67 37 -98 37q-60 0 -84 -96h-182z" />
<glyph unicode="&#xd2;" horiz-adv-x="1599" d="M104 578q0 195 80 376.5t224 298.5q230 189 528 189q276 0 455 -156q180 -152 180 -440q0 -202 -74.5 -382.5t-214.5 -301.5q-226 -191 -539 -191q-276 0 -460 158q-179 156 -179 449zM496 582q0 -308 280 -308q166 0 275 136q61 79 94 198q37 124 37 232q0 301 -275 301 q-159 0 -268 -133q-62 -77 -102 -199q-41 -121 -41 -227zM563 1812v9h369l264 -277v-8h-258z" />
<glyph unicode="&#xd3;" horiz-adv-x="1599" d="M104 578q0 195 80 376.5t224 298.5q230 189 528 189q276 0 455 -156q180 -152 180 -440q0 -202 -74.5 -382.5t-214.5 -301.5q-226 -191 -539 -191q-276 0 -460 158q-179 156 -179 449zM496 582q0 -308 280 -308q166 0 275 136q61 79 94 198q37 124 37 232q0 301 -275 301 q-159 0 -268 -133q-62 -77 -102 -199q-41 -121 -41 -227zM727 1536v8l330 277h385v-9l-447 -276h-268z" />
<glyph unicode="&#xd4;" horiz-adv-x="1599" d="M104 578q0 195 80 376.5t224 298.5q230 189 528 189q276 0 455 -156q180 -152 180 -440q0 -202 -74.5 -382.5t-214.5 -301.5q-226 -191 -539 -191q-276 0 -460 158q-179 156 -179 449zM496 582q0 -308 280 -308q166 0 275 136q61 79 94 198q37 124 37 232q0 301 -275 301 q-159 0 -268 -133q-62 -77 -102 -199q-41 -121 -41 -227zM557 1536v8l356 279h207l254 -279v-8h-256l-129 109l-162 -109h-270z" />
<glyph unicode="&#xd5;" horiz-adv-x="1599" d="M104 578q0 195 80 376.5t224 298.5q230 189 528 189q276 0 455 -156q180 -152 180 -440q0 -202 -74.5 -382.5t-214.5 -301.5q-226 -191 -539 -191q-276 0 -460 158q-179 156 -179 449zM496 582q0 -308 280 -308q166 0 275 136q61 79 94 198q37 124 37 232q0 301 -275 301 q-159 0 -268 -133q-62 -77 -102 -199q-41 -121 -41 -227zM584 1538q24 147 92.5 224t169.5 77q43 0 164 -59q68 -39 104 -39q57 0 78 100h184q-49 -303 -252 -303q-67 0 -176 59q-67 37 -98 37q-60 0 -84 -96h-182z" />
<glyph unicode="&#xd6;" horiz-adv-x="1599" d="M104 578q0 195 80 376.5t224 298.5q230 189 528 189q276 0 455 -156q180 -152 180 -440q0 -202 -74.5 -382.5t-214.5 -301.5q-226 -191 -539 -191q-276 0 -460 158q-179 156 -179 449zM496 582q0 -308 280 -308q166 0 275 136q61 79 94 198q37 124 37 232q0 301 -275 301 q-159 0 -268 -133q-62 -77 -102 -199q-41 -121 -41 -227zM666 1661q0 75 44.5 124.5t116.5 49.5q58 0 96 -35t38 -100q0 -77 -45 -125.5t-121 -48.5q-57 0 -93 37t-36 98zM1071 1661q0 74 46.5 124t117.5 50q57 0 95 -35t38 -100q0 -75 -45 -124.5t-119 -49.5 q-60 0 -96.5 36t-36.5 99z" />
<glyph unicode="&#xd7;" horiz-adv-x="1415" d="M231 274l371 334l-289 336l156 139l287 -333l364 329l127 -145l-366 -330l293 -336l-158 -139l-291 332l-367 -330z" />
<glyph unicode="&#xd8;" horiz-adv-x="1599" d="M102 578q0 195 80 374.5t224 296.5q230 193 528 193q168 0 311 -64l88 113h205l-156 -199q187 -163 187 -448q0 -201 -76 -381.5t-219 -300.5q-232 -191 -531 -191q-189 0 -342 78l-88 -112h-204l161 206q-168 162 -168 435zM492 614q0 -88 28 -155l494 626 q-58 21 -117 21q-163 0 -266 -121q-63 -75 -101 -175.5t-38 -195.5zM633 342q62 -33 153 -33q152 0 265 125q60 66 94.5 167t34.5 202q0 108 -43 178z" />
<glyph unicode="&#xd9;" horiz-adv-x="1515" d="M137 389q0 92 29 234l106 516h-125l56 272h647l-57 -272h-144l-110 -539q-23 -112 -23 -162q0 -77 57 -120.5t150 -43.5q167 0 238 95q46 63 86 241l110 529h-153l59 272h616l-57 -272h-121l-112 -537q-59 -287 -146 -399q-182 -232 -575 -232q-231 0 -381 105t-150 313z M508 1812v9h369l264 -277v-8h-258z" />
<glyph unicode="&#xda;" horiz-adv-x="1515" d="M137 389q0 92 29 234l106 516h-125l56 272h647l-57 -272h-144l-110 -539q-23 -112 -23 -162q0 -77 57 -120.5t150 -43.5q167 0 238 95q46 63 86 241l110 529h-153l59 272h616l-57 -272h-121l-112 -537q-59 -287 -146 -399q-182 -232 -575 -232q-231 0 -381 105t-150 313z M717 1536v8l330 277h385v-9l-447 -276h-268z" />
<glyph unicode="&#xdb;" horiz-adv-x="1515" d="M137 389q0 92 29 234l106 516h-125l56 272h647l-57 -272h-144l-110 -539q-23 -112 -23 -162q0 -77 57 -120.5t150 -43.5q167 0 238 95q46 63 86 241l110 529h-153l59 272h616l-57 -272h-121l-112 -537q-59 -287 -146 -399q-182 -232 -575 -232q-231 0 -381 105t-150 313z M549 1536v8l356 279h207l254 -279v-8h-256l-129 109l-162 -109h-270z" />
<glyph unicode="&#xdc;" horiz-adv-x="1515" d="M137 389q0 92 29 234l106 516h-125l56 272h647l-57 -272h-144l-110 -539q-23 -112 -23 -162q0 -77 57 -120.5t150 -43.5q167 0 238 95q46 63 86 241l110 529h-153l59 272h616l-57 -272h-121l-112 -537q-59 -287 -146 -399q-182 -232 -575 -232q-231 0 -381 105t-150 313z M633 1661q0 75 45 124.5t117 49.5q58 0 95.5 -35t37.5 -100q0 -77 -45 -125.5t-121 -48.5q-57 0 -93 37t-36 98zM1038 1661q0 74 46.5 124t117.5 50q57 0 95 -35t38 -100q0 -75 -45 -124.5t-119 -49.5q-61 0 -97 36t-36 99z" />
<glyph unicode="&#xdd;" horiz-adv-x="1421" d="M141 1139l56 272h649l-53 -272h-123q78 -200 121 -332q69 95 260 332h-111l57 272h605l-58 -272h-129l-512 -609l-55 -258h149l-55 -272h-674l54 272h147l55 258l-256 609h-127zM700 1536v8l330 277h385v-9l-446 -276h-269z" />
<glyph unicode="&#xde;" horiz-adv-x="1396" d="M-51 2l57 272h127l178 865h-139l57 272h527l-47 -221h86q219 0 346 -47q107 -39 169 -126.5t62 -207.5q0 -335 -309 -434q-134 -41 -399 -41h-142l-12 -60h156l-56 -272h-661zM578 608h124q136 0 201 19q101 27 101 135q0 90 -80 117q-53 20 -185 20h-98z" />
<glyph unicode="&#xdf;" horiz-adv-x="1304" d="M-18 -100l204 981q65 301 158 422q168 213 479 213q207 0 316 -103q108 -102 108 -242q0 -305 -323 -407q137 -11 217 -95.5t80 -217.5q0 -211 -131 -345q-130 -133 -342 -133q-200 0 -295 80l51 266h8q81 -63 184 -63q82 0 130 48t48 134q0 75 -59 118.5t-168 43.5h-37 l58 287h34q95 0 149 56.5t54 150.5q0 63 -34 101t-91 38q-90 0 -143 -53q-56 -59 -94 -244l-217 -1036h-344z" />
<glyph unicode="&#xe0;" horiz-adv-x="1329" d="M53 379q0 144 56.5 281t160.5 235q165 154 383 154q191 0 260 -134l23 107h338l-123 -594q-14 -57 -14 -90q0 -76 73 -76q50 0 86 19l7 -2l-58 -261q-75 -34 -196 -34q-239 0 -242 186q-121 -195 -373 -195q-171 0 -276 106.5t-105 297.5zM412 442q0 -89 44 -136.5 t119 -47.5q149 0 228 156l49 215q-12 66 -55 100.5t-107 34.5q-112 0 -186 -86q-92 -109 -92 -236zM428 1522v8h342l219 -344v-8h-235z" />
<glyph unicode="&#xe1;" horiz-adv-x="1329" d="M53 379q0 144 56.5 281t160.5 235q165 154 383 154q191 0 260 -134l23 107h338l-123 -594q-14 -57 -14 -90q0 -76 73 -76q50 0 86 19l7 -2l-58 -261q-75 -34 -196 -34q-239 0 -242 186q-121 -195 -373 -195q-171 0 -276 106.5t-105 297.5zM412 442q0 -89 44 -136.5 t119 -47.5q149 0 228 156l49 215q-12 66 -55 100.5t-107 34.5q-112 0 -186 -86q-92 -109 -92 -236zM612 1178v8l295 344h344v-8l-401 -344h-238z" />
<glyph unicode="&#xe2;" horiz-adv-x="1329" d="M53 379q0 144 56.5 281t160.5 235q165 154 383 154q191 0 260 -134l23 107h338l-123 -594q-14 -57 -14 -90q0 -76 73 -76q50 0 86 19l7 -2l-58 -261q-75 -34 -196 -34q-239 0 -242 186q-121 -195 -373 -195q-171 0 -276 106.5t-105 297.5zM412 442q0 -89 44 -136.5 t119 -47.5q149 0 228 156l49 215q-12 66 -55 100.5t-107 34.5q-112 0 -186 -86q-92 -109 -92 -236zM418 1178v8l350 340h188l207 -340v-8h-217l-112 137l-175 -137h-241z" />
<glyph unicode="&#xe3;" horiz-adv-x="1329" d="M53 379q0 144 56.5 281t160.5 235q165 154 383 154q191 0 260 -134l23 107h338l-123 -594q-14 -57 -14 -90q0 -76 73 -76q50 0 86 19l7 -2l-58 -261q-75 -34 -196 -34q-239 0 -242 186q-121 -195 -373 -195q-171 0 -276 106.5t-105 297.5zM412 442q0 -89 44 -136.5 t119 -47.5q149 0 228 156l49 215q-12 66 -55 100.5t-107 34.5q-112 0 -186 -86q-92 -109 -92 -236zM449 1204q26 154 93 235t165 81q51 0 161 -64q65 -39 101 -39q54 0 75 103h183q-49 -316 -250 -316q-67 0 -168 58q-71 41 -96 41q-60 0 -84 -99h-180z" />
<glyph unicode="&#xe4;" horiz-adv-x="1329" d="M53 379q0 144 56.5 281t160.5 235q165 154 383 154q191 0 260 -134l23 107h338l-123 -594q-14 -57 -14 -90q0 -76 73 -76q50 0 86 19l7 -2l-58 -261q-75 -34 -196 -34q-239 0 -242 186q-121 -195 -373 -195q-171 0 -276 106.5t-105 297.5zM412 442q0 -89 44 -136.5 t119 -47.5q149 0 228 156l49 215q-12 66 -55 100.5t-107 34.5q-112 0 -186 -86q-92 -109 -92 -236zM502 1335q0 75 45 124.5t117 49.5q59 0 96 -34t37 -99q0 -77 -45 -126.5t-121 -49.5q-57 0 -93 37t-36 98zM891 1335q0 74 46.5 124t117.5 50q59 0 96 -34t37 -99 q0 -75 -46 -125.5t-118 -50.5q-58 0 -95.5 37t-37.5 98z" />
<glyph unicode="&#xe5;" horiz-adv-x="1329" d="M53 379q0 144 56.5 281t160.5 235q165 154 383 154q191 0 260 -134l23 107h338l-123 -594q-14 -57 -14 -90q0 -76 73 -76q50 0 86 19l7 -2l-58 -261q-75 -34 -196 -34q-239 0 -242 186q-121 -195 -373 -195q-171 0 -276 106.5t-105 297.5zM412 442q0 -89 44 -136.5 t119 -47.5q149 0 228 156l49 215q-12 66 -55 100.5t-107 34.5q-112 0 -186 -86q-92 -109 -92 -236zM610 1370q0 91 66.5 153t161.5 62q90 0 143 -55.5t53 -147.5q0 -93 -62.5 -156t-158.5 -63q-88 0 -145.5 58.5t-57.5 148.5zM711 1374q0 -51 27 -81.5t79 -30.5q49 0 80 34 t31 82q0 109 -101 109q-50 0 -83 -32t-33 -81z" />
<glyph unicode="&#xe6;" horiz-adv-x="1701" d="M4 264q0 240 234 316q101 34 297 34q71 0 114 -12q8 41 8 62q0 98 -155 98q-175 0 -346 -103h-9l52 281q168 107 389 107q225 0 289 -119q131 119 350 119q198 0 313 -104t115 -284q0 -108 -29 -221h-670q-2 -6 -2 -24q0 -74 60 -116t166 -42q211 0 383 100h8l-55 -284 q-153 -99 -416 -99q-118 0 -219.5 41.5t-157.5 110.5q-158 -152 -385 -152q-148 0 -242 82q-92 83 -92 209zM330 299q0 -42 29.5 -67t80.5 -25q108 0 191 74q-6 38 -6 73q0 37 2 47q-40 7 -90 7q-69 0 -121 -15q-86 -21 -86 -94zM985 625h367q6 27 6 49q0 58 -42 87.5 t-114 29.5q-74 0 -133.5 -42t-83.5 -124z" />
<glyph unicode="&#xe7;" horiz-adv-x="1081" d="M51 412q0 158 67 290.5t187 221.5q168 125 406 125q83 0 196 -25q107 -21 144 -55l-54 -359h-237l16 158q-38 6 -76 6q-105 0 -186 -63q-50 -39 -81.5 -107t-31.5 -141q0 -98 63.5 -152.5t180.5 -54.5q164 0 285 80h8l-55 -295q-115 -65 -320 -68l-41 -92 q91 -4 143 -56.5t52 -129.5q0 -124 -80 -185t-217 -61q-126 0 -193 49l37 150h8q58 -43 131 -43q107 0 107 69q0 72 -102 72q-45 0 -86 -14l-7 4l105 250q-171 30 -270 140.5t-99 285.5z" />
<glyph unicode="&#xe8;" horiz-adv-x="1144" d="M51 422q0 282 193 463q168 162 418 162q206 0 323 -107.5t117 -292.5q0 -114 -25 -209h-684q-2 -6 -2 -18q0 -164 256 -164q195 0 373 102h8l-57 -284q-154 -101 -410 -101q-236 0 -375 121q-135 123 -135 328zM287 1522v8h342l219 -344v-8h-236zM422 625h371q6 24 6 47 q0 56 -41.5 87.5t-108.5 31.5q-77 0 -139.5 -42t-87.5 -124z" />
<glyph unicode="&#xe9;" horiz-adv-x="1144" d="M51 422q0 282 193 463q168 162 418 162q206 0 323 -107.5t117 -292.5q0 -114 -25 -209h-684q-2 -6 -2 -18q0 -164 256 -164q195 0 373 102h8l-57 -284q-154 -101 -410 -101q-236 0 -375 121q-135 123 -135 328zM422 625h371q6 24 6 47q0 56 -41.5 87.5t-108.5 31.5 q-77 0 -139.5 -42t-87.5 -124zM494 1178v8l294 344h345v-8l-402 -344h-237z" />
<glyph unicode="&#xea;" horiz-adv-x="1144" d="M51 422q0 282 193 463q168 162 418 162q206 0 323 -107.5t117 -292.5q0 -114 -25 -209h-684q-2 -6 -2 -18q0 -164 256 -164q195 0 373 102h8l-57 -284q-154 -101 -410 -101q-236 0 -375 121q-135 123 -135 328zM301 1178v8l350 340h189l207 -340v-8h-218l-112 137 l-174 -137h-242zM422 625h371q6 24 6 47q0 56 -41.5 87.5t-108.5 31.5q-77 0 -139.5 -42t-87.5 -124z" />
<glyph unicode="&#xeb;" horiz-adv-x="1144" d="M51 422q0 282 193 463q168 162 418 162q206 0 323 -107.5t117 -292.5q0 -114 -25 -209h-684q-2 -6 -2 -18q0 -164 256 -164q195 0 373 102h8l-57 -284q-154 -101 -410 -101q-236 0 -375 121q-135 123 -135 328zM387 1335q0 75 45 124.5t117 49.5q59 0 96 -34t37 -99 q0 -77 -45 -126.5t-121 -49.5q-57 0 -93 37t-36 98zM422 625h371q6 24 6 47q0 56 -41.5 87.5t-108.5 31.5q-77 0 -139.5 -42t-87.5 -124zM776 1335q0 74 46.5 124t117.5 50q59 0 96 -34t37 -99q0 -75 -46 -125.5t-118 -50.5q-58 0 -95.5 37t-37.5 98z" />
<glyph unicode="&#xec;" horiz-adv-x="671" d="M33 1522v8h342l219 -344v-8h-236zM80 748l55 274h475l-131 -596q-12 -52 -12 -88q0 -76 74 -76q48 0 88 19l6 -2l-60 -261q-75 -34 -200 -34q-141 0 -208 59.5t-67 159.5q0 38 19 135l88 410h-127z" />
<glyph unicode="&#xed;" horiz-adv-x="671" d="M80 748l55 274h475l-131 -596q-12 -52 -12 -88q0 -76 74 -76q48 0 88 19l6 -2l-60 -261q-75 -34 -200 -34q-141 0 -208 59.5t-67 159.5q0 38 19 135l88 410h-127zM233 1178v8l295 344h344v-8l-401 -344h-238z" />
<glyph unicode="&#xee;" horiz-adv-x="671" d="M20 1178v8l351 340h188l207 -340v-8h-217l-113 137l-174 -137h-242zM80 748l55 274h475l-131 -596q-12 -52 -12 -88q0 -76 74 -76q48 0 88 19l6 -2l-60 -261q-75 -34 -200 -34q-141 0 -208 59.5t-67 159.5q0 38 19 135l88 410h-127z" />
<glyph unicode="&#xef;" horiz-adv-x="671" d="M80 748l55 274h475l-131 -596q-12 -52 -12 -88q0 -76 74 -76q48 0 88 19l6 -2l-60 -261q-75 -34 -200 -34q-141 0 -208 59.5t-67 159.5q0 38 19 135l88 410h-127zM98 1335q0 75 45 124.5t117 49.5q59 0 96 -34t37 -99q0 -77 -45 -126.5t-121 -49.5q-57 0 -93 37t-36 98z M487 1335q0 74 46.5 124t117.5 50q59 0 96 -34t37 -99q0 -75 -45.5 -125.5t-117.5 -50.5q-58 0 -96 37t-38 98z" />
<glyph unicode="&#xf0;" horiz-adv-x="1249" d="M51 416q0 286 185 456q145 136 382 136q67 0 130.5 -25t97.5 -70q-23 111 -135 238l-246 -137l49 221l61 35q-51 34 -126 65l133 217q140 -47 262 -135l246 137l-41 -217l-70 -39q213 -239 213 -567q0 -428 -227 -618q-169 -140 -410 -140q-214 0 -358 111 q-146 116 -146 332zM406 444q0 -91 47 -139.5t133 -48.5q99 0 166 76q82 98 82 233q0 90 -47.5 138.5t-127.5 48.5q-121 0 -186 -95q-67 -91 -67 -213z" />
<glyph unicode="&#xf1;" horiz-adv-x="1296" d="M55 0l158 748h-131l57 274h465l-39 -172q52 89 143.5 143t198.5 54q123 0 199 -63t76 -187q0 -66 -31 -209l-37 -160q-14 -57 -14 -90q0 -76 74 -76q50 0 90 19l6 -2l-60 -261q-81 -34 -200 -34q-143 0 -211 59.5t-68 163.5q0 49 19 133l47 199q16 82 16 114q0 88 -94 88 q-60 0 -112 -38.5t-83 -104.5l-125 -598h-344zM371 1204q26 154 93 235t165 81q52 0 162 -64q65 -39 100 -39q55 0 76 103h182q-49 -316 -250 -316q-67 0 -168 58q-71 41 -96 41q-60 0 -84 -99h-180z" />
<glyph unicode="&#xf2;" horiz-adv-x="1243" d="M51 420q0 274 201 463q89 78 205 121t229 43q212 0 356 -111q144 -108 144 -328q0 -143 -57.5 -273.5t-161.5 -217.5q-179 -144 -418 -144q-211 0 -354 113q-144 114 -144 334zM340 1522v8h342l219 -344v-8h-235zM403 440q0 -91 48 -139.5t131 -48.5q102 0 168 78 q81 93 81 252q0 90 -46 139t-123 49q-112 0 -185 -94q-74 -103 -74 -236z" />
<glyph unicode="&#xf3;" horiz-adv-x="1243" d="M51 420q0 274 201 463q89 78 205 121t229 43q212 0 356 -111q144 -108 144 -328q0 -143 -57.5 -273.5t-161.5 -217.5q-179 -144 -418 -144q-211 0 -354 113q-144 114 -144 334zM403 440q0 -91 48 -139.5t131 -48.5q102 0 168 78q81 93 81 252q0 90 -46 139t-123 49 q-112 0 -185 -94q-74 -103 -74 -236zM532 1178v8l295 344h344v-8l-401 -344h-238z" />
<glyph unicode="&#xf4;" horiz-adv-x="1243" d="M51 420q0 274 201 463q89 78 205 121t229 43q212 0 356 -111q144 -108 144 -328q0 -143 -57.5 -273.5t-161.5 -217.5q-179 -144 -418 -144q-211 0 -354 113q-144 114 -144 334zM352 1178v8l350 340h189l207 -340v-8h-217l-113 137l-174 -137h-242zM403 440 q0 -91 48 -139.5t131 -48.5q102 0 168 78q81 93 81 252q0 90 -46 139t-123 49q-112 0 -185 -94q-74 -103 -74 -236z" />
<glyph unicode="&#xf5;" horiz-adv-x="1243" d="M51 420q0 274 201 463q89 78 205 121t229 43q212 0 356 -111q144 -108 144 -328q0 -143 -57.5 -273.5t-161.5 -217.5q-179 -144 -418 -144q-211 0 -354 113q-144 114 -144 334zM362 1204q26 154 93.5 235t165.5 81q51 0 161 -64q65 -39 101 -39q54 0 75 103h183 q-49 -316 -250 -316q-67 0 -168 58q-71 41 -96 41q-60 0 -84 -99h-181zM403 440q0 -91 48 -139.5t131 -48.5q102 0 168 78q81 93 81 252q0 90 -46 139t-123 49q-112 0 -185 -94q-74 -103 -74 -236z" />
<glyph unicode="&#xf6;" horiz-adv-x="1243" d="M51 420q0 274 201 463q89 78 205 121t229 43q212 0 356 -111q144 -108 144 -328q0 -143 -57.5 -273.5t-161.5 -217.5q-179 -144 -418 -144q-211 0 -354 113q-144 114 -144 334zM403 440q0 -91 48 -139.5t131 -48.5q102 0 168 78q81 93 81 252q0 90 -46 139t-123 49 q-112 0 -185 -94q-74 -103 -74 -236zM420 1335q0 75 45 124.5t117 49.5q59 0 96 -34t37 -99q0 -77 -45 -126.5t-121 -49.5q-57 0 -93 37t-36 98zM809 1335q0 74 46.5 124t117.5 50q59 0 96 -34t37 -99q0 -75 -46 -125.5t-118 -50.5q-58 0 -95.5 37t-37.5 98z" />
<glyph unicode="&#xf7;" horiz-adv-x="1415" d="M186 506l43 199h1055l-43 -199h-1055zM532 213q0 68 41 111t107 43q47 0 80 -29.5t33 -83.5q0 -69 -39.5 -113.5t-104.5 -44.5q-52 0 -84.5 31.5t-32.5 85.5zM702 950q0 68 39.5 111t102.5 43q50 0 83.5 -29.5t33.5 -83.5q0 -68 -40.5 -112.5t-107.5 -44.5 q-50 0 -80.5 31.5t-30.5 84.5z" />
<glyph unicode="&#xf8;" horiz-adv-x="1243" d="M51 420q0 278 203 463q86 78 203.5 121t230.5 43q122 0 223 -37l84 108h185l-140 -180q148 -115 148 -330q0 -143 -57.5 -273.5t-161.5 -217.5q-179 -144 -418 -144q-121 0 -225 39l-72 -92h-182l127 164q-148 118 -148 336zM408 449q0 -38 10 -80l299 387q-19 8 -53 8 q-109 0 -185 -94q-71 -89 -71 -221zM520 264q21 -8 64 -8q98 0 168 82q82 94 82 235q0 43 -13 80z" />
<glyph unicode="&#xf9;" horiz-adv-x="1300" d="M70 748l53 274h473l-115 -537q-12 -59 -12 -108q0 -43 30.5 -68.5t78.5 -25.5q119 0 186 137l129 602h344l-125 -594q-14 -57 -14 -90q0 -76 73 -76q51 0 91 19l6 -2l-60 -261q-78 -34 -207 -34q-175 0 -221 106q-13 30 -16 74q-124 -189 -365 -189q-131 0 -213 65 t-82 189q0 80 23 205l66 314h-123zM334 1522v8h342l219 -344v-8h-236z" />
<glyph unicode="&#xfa;" horiz-adv-x="1300" d="M70 748l53 274h473l-115 -537q-12 -59 -12 -108q0 -43 30.5 -68.5t78.5 -25.5q119 0 186 137l129 602h344l-125 -594q-14 -57 -14 -90q0 -76 73 -76q51 0 91 19l6 -2l-60 -261q-78 -34 -207 -34q-175 0 -221 106q-13 30 -16 74q-124 -189 -365 -189q-131 0 -213 65 t-82 189q0 80 23 205l66 314h-123zM520 1178v8l295 344h344v-8l-401 -344h-238z" />
<glyph unicode="&#xfb;" horiz-adv-x="1300" d="M70 748l53 274h473l-115 -537q-12 -59 -12 -108q0 -43 30.5 -68.5t78.5 -25.5q119 0 186 137l129 602h344l-125 -594q-14 -57 -14 -90q0 -76 73 -76q51 0 91 19l6 -2l-60 -261q-78 -34 -207 -34q-175 0 -221 106q-13 30 -16 74q-124 -189 -365 -189q-131 0 -213 65 t-82 189q0 80 23 205l66 314h-123zM344 1178v8l350 340h189l207 -340v-8h-218l-112 137l-174 -137h-242z" />
<glyph unicode="&#xfc;" horiz-adv-x="1300" d="M70 748l53 274h473l-115 -537q-12 -59 -12 -108q0 -43 30.5 -68.5t78.5 -25.5q119 0 186 137l129 602h344l-125 -594q-14 -57 -14 -90q0 -76 73 -76q51 0 91 19l6 -2l-60 -261q-78 -34 -207 -34q-175 0 -221 106q-13 30 -16 74q-124 -189 -365 -189q-131 0 -213 65 t-82 189q0 80 23 205l66 314h-123zM408 1335q0 75 44.5 124.5t116.5 49.5q59 0 96 -34t37 -99q0 -77 -44.5 -126.5t-120.5 -49.5q-57 0 -93 37t-36 98zM797 1335q0 74 46.5 124t117.5 50q59 0 96 -34t37 -99q0 -75 -46 -125.5t-118 -50.5q-58 0 -95.5 37t-37.5 98z" />
<glyph unicode="&#xfd;" horiz-adv-x="1288" d="M41 -311l63 293h9q125 -125 344 -125q137 0 198 67q48 51 72 170l14 70q-66 -79 -138.5 -116.5t-174.5 -37.5q-131 0 -215 65t-84 189q0 92 25 205l61 279h-127l55 274h473l-106 -502q-14 -63 -14 -108q0 -44 30 -69.5t80 -25.5q116 0 187 138l120 567h347l-183 -887 q-49 -243 -123 -352q-138 -211 -495 -211q-277 0 -418 117zM555 1178v8l295 344h344v-8l-401 -344h-238z" />
<glyph unicode="&#xfe;" horiz-adv-x="1318" d="M-47 -397l342 1614h-129l57 274h467l-135 -610q44 73 138.5 120.5t205.5 47.5q166 0 264.5 -101t98.5 -289q0 -323 -177 -518q-145 -157 -378 -157q-99 0 -180 35.5t-119 97.5l-117 -514h-338zM467 408q12 -67 64 -105.5t120 -38.5q115 0 178 84q76 101 76 250 q0 83 -42 127.5t-115 44.5q-69 0 -133.5 -38.5t-106.5 -108.5z" />
<glyph unicode="&#xff;" horiz-adv-x="1288" d="M41 -311l63 293h9q125 -125 344 -125q137 0 198 67q48 51 72 170l14 70q-66 -79 -138.5 -116.5t-174.5 -37.5q-131 0 -215 65t-84 189q0 92 25 205l61 279h-127l55 274h473l-106 -502q-14 -63 -14 -108q0 -44 30 -69.5t80 -25.5q116 0 187 138l120 567h347l-183 -887 q-49 -243 -123 -352q-138 -211 -495 -211q-277 0 -418 117zM440 1335q0 75 45 124.5t117 49.5q59 0 96 -34t37 -99q0 -77 -45 -126.5t-121 -49.5q-57 0 -93 37t-36 98zM829 1335q0 74 46.5 124t117.5 50q59 0 96 -34t37 -99q0 -75 -45.5 -125.5t-117.5 -50.5q-58 0 -96 37 t-38 98z" />
<glyph unicode="&#x152;" horiz-adv-x="2154" d="M102 578q0 200 75.5 380.5t215.5 301.5q209 176 510 176q125 0 225.5 -38.5t149.5 -105.5l29 119h913l-80 -428h-266l20 147h-276l-57 -266h399l-57 -284h-400l-63 -299h352l45 168h268l-102 -449h-989l22 98q-59 -59 -150.5 -90t-183.5 -31q-268 0 -434 156t-166 445z M494 606q0 -153 73.5 -242.5t218.5 -89.5q92 0 181.5 51.5t136.5 133.5l86 448q-19 114 -93 174t-192 60q-167 0 -274 -125q-62 -73 -99.5 -186t-37.5 -224z" />
<glyph unicode="&#x153;" horiz-adv-x="1906" d="M51 416q0 285 201 471q183 160 428 160q246 0 354 -144q156 144 385 144q209 0 326 -105.5t117 -290.5q0 -107 -33 -213h-672q-2 -6 -2 -20q0 -162 246 -162q194 0 366 106h9l-56 -282q-152 -107 -407 -107q-245 0 -361 146q-158 -146 -401 -146q-212 0 -356 111 q-144 114 -144 332zM406 444q0 -92 46.5 -140t131.5 -48q98 0 164 78q79 91 79 241q0 189 -172 189q-114 0 -184 -98q-65 -89 -65 -222zM1186 625h366q7 32 7 47q7 66 -61 100q-70 35 -157 10q-103 -29 -144 -125q-6 -15 -11 -32z" />
<glyph unicode="&#x178;" horiz-adv-x="1421" d="M141 1139l56 272h649l-53 -272h-123q78 -200 121 -332q69 95 260 332h-111l57 272h605l-58 -272h-129l-512 -609l-55 -258h149l-55 -272h-674l54 272h147l55 258l-256 609h-127zM575 1661q0 75 45 124.5t117 49.5q58 0 95.5 -35t37.5 -100q0 -77 -44.5 -125.5 t-120.5 -48.5q-58 0 -94 37t-36 98zM981 1661q0 74 46.5 124t117.5 50q57 0 95 -35t38 -100q0 -75 -45 -124.5t-119 -49.5q-60 0 -96.5 36t-36.5 99z" />
<glyph unicode="&#x2c6;" horiz-adv-x="425" d="M-160 1178v8l350 340h189l207 -340v-8h-217l-113 137l-174 -137h-242z" />
<glyph unicode="&#x2dc;" horiz-adv-x="425" d="M-178 1204q26 154 93 235t165 81q52 0 162 -64q65 -39 100 -39q55 0 76 103h182q-49 -316 -250 -316q-67 0 -168 58q-71 41 -96 41q-60 0 -84 -99h-180z" />
<glyph unicode="&#x2000;" horiz-adv-x="939" />
<glyph unicode="&#x2001;" horiz-adv-x="1878" />
<glyph unicode="&#x2002;" horiz-adv-x="939" />
<glyph unicode="&#x2003;" horiz-adv-x="1878" />
<glyph unicode="&#x2004;" horiz-adv-x="626" />
<glyph unicode="&#x2005;" horiz-adv-x="469" />
<glyph unicode="&#x2006;" horiz-adv-x="313" />
<glyph unicode="&#x2007;" horiz-adv-x="313" />
<glyph unicode="&#x2008;" horiz-adv-x="234" />
<glyph unicode="&#x2009;" horiz-adv-x="375" />
<glyph unicode="&#x200a;" horiz-adv-x="104" />
<glyph unicode="&#x2010;" horiz-adv-x="655" d="M63 444l48 244h499l-49 -244h-498z" />
<glyph unicode="&#x2011;" horiz-adv-x="655" d="M63 444l48 244h499l-49 -244h-498z" />
<glyph unicode="&#x2012;" horiz-adv-x="655" d="M63 444l48 244h499l-49 -244h-498z" />
<glyph unicode="&#x2013;" horiz-adv-x="1101" d="M59 453l43 225h961l-47 -225h-957z" />
<glyph unicode="&#x2014;" horiz-adv-x="1718" d="M59 453l43 225h1577l-49 -225h-1571z" />
<glyph unicode="&#x2018;" horiz-adv-x="432" d="M156 987q0 152 72.5 278.5t199.5 207.5h217v-9q-105 -81 -167 -204t-62 -261q0 -66 16 -125h-264q-12 52 -12 113z" />
<glyph unicode="&#x2019;" horiz-adv-x="432" d="M49 874v9q105 82 168.5 205.5t63.5 259.5q0 45 -17 125h260q13 -57 13 -113q0 -152 -72.5 -279t-198.5 -207h-217z" />
<glyph unicode="&#x201a;" horiz-adv-x="432" d="M-180 -270q105 81 167 204t62 261q0 63 -16 122h260q12 -50 12 -112q0 -152 -72 -278t-198 -206h-215v9z" />
<glyph unicode="&#x201c;" horiz-adv-x="827" d="M156 987q0 152 72.5 278.5t199.5 207.5h217v-9q-105 -81 -167 -204t-62 -261q0 -66 16 -125h-264q-12 52 -12 113zM551 987q0 152 73 278.5t201 207.5h215v-9q-105 -82 -168 -204.5t-63 -260.5q0 -50 16 -125h-262q-12 52 -12 113z" />
<glyph unicode="&#x201d;" horiz-adv-x="827" d="M49 874v9q105 82 168.5 205.5t63.5 259.5q0 45 -17 125h260q13 -57 13 -113q0 -152 -72.5 -279t-198.5 -207h-217zM444 874v9q105 82 168.5 205.5t63.5 259.5q0 62 -17 125h261q12 -52 12 -113q0 -152 -72 -279t-198 -207h-218z" />
<glyph unicode="&#x201e;" horiz-adv-x="827" d="M-180 -270q105 81 167 204t62 261q0 63 -16 122h260q12 -50 12 -112q0 -152 -72 -278t-198 -206h-215v9zM215 -270q104 85 166.5 207t62.5 258q0 63 -16 122h262q12 -49 12 -112q0 -152 -72 -278t-198 -206h-217v9z" />
<glyph unicode="&#x2022;" horiz-adv-x="749" d="M76 485q0 145 90 246q90 100 235 100q110 0 189 -67q82 -67 82 -201q0 -155 -88 -251.5t-238 -96.5q-119 0 -194.5 73.5t-75.5 196.5z" />
<glyph unicode="&#x2026;" horiz-adv-x="2066" d="M88 147q0 95 59 158.5t150 63.5q76 0 125 -44.5t49 -125.5q0 -98 -57 -161t-152 -63q-76 0 -125 47t-49 125zM748 147q0 95 60 158.5t153 63.5q73 0 123.5 -44.5t50.5 -125.5q0 -98 -58 -161t-155 -63q-75 0 -124.5 47.5t-49.5 124.5zM1411 147q0 95 59 158.5t150 63.5 q76 0 125 -44.5t49 -125.5q0 -98 -57 -161t-152 -63q-76 0 -125 47t-49 125z" />
<glyph unicode="&#x202f;" horiz-adv-x="375" />
<glyph unicode="&#x2039;" horiz-adv-x="616" d="M43 526l346 367h260l-360 -381l203 -373h-238z" />
<glyph unicode="&#x203a;" horiz-adv-x="616" d="M-43 139l356 379l-200 375h239l211 -389l-346 -365h-260z" />
<glyph unicode="&#x205f;" horiz-adv-x="469" />
<glyph unicode="&#x20ac;" horiz-adv-x="1409" d="M111 473l28 139h142q2 56 14 133h-131l26 140h136q52 175 172 295q217 211 544 211q137 0 252 -33q116 -29 170 -80l-63 -360h-221l18 153q-78 19 -131 19q-169 0 -270 -84q-53 -47 -92 -121h389l-25 -140h-412q-16 -75 -16 -133h403l-26 -139h-356q52 -192 284 -192 q208 0 363 110h8l-57 -321q-144 -99 -422 -99q-249 0 -396 135q-146 137 -161 367h-170z" />
<glyph unicode="&#x2122;" horiz-adv-x="1873" d="M186 1133l60 278h682l-58 -278h-139l17 96h-89l-88 -398h78l-35 -157h-376l34 157h76l88 398h-86l-24 -96h-140zM827 674l35 157h72l88 408h-72l35 172h371q36 -278 41 -352q72 143 188 352h369l-35 -172h-74l-90 -408h76l-35 -157h-344l35 157h61l82 361 q-37 -71 -217 -389h-139q-45 288 -60 391l-75 -363h65l-35 -157h-342z" />
<glyph unicode="&#x25fc;" horiz-adv-x="1024" d="M0 0v1024h1024v-1024h-1024z" />
</font>
</defs>
</svg>
