<?xml version="1.0" standalone="no"?>
<!DOCTYPE svg PUBLIC "-//W3C//DTD SVG 1.1//EN" "http://www.w3.org/Graphics/SVG/1.1/DTD/svg11.dtd" >
<svg xmlns="http://www.w3.org/2000/svg">
<metadata></metadata>
<defs>
<font id="equip_slabthin" horiz-adv-x="1161" >
<font-face units-per-em="2048" ascent="1536" descent="-512" />
<missing-glyph horiz-adv-x="446" />
<glyph unicode="&#xfb01;" horiz-adv-x="1241" d="M55 0v63h191v875h-189v68h191v153q0 104 14.5 159.5t52.5 102.5q77 95 226 95q93 0 166 -48v-77h-9q-59 53 -157 53q-124 0 -185 -82q-39 -51 -39 -207v-149h674v-943h203v-63h-465v63h191v875h-603v-875h244v-63h-506zM864 1346q0 34 20 52.5t52 18.5q31 0 50.5 -18.5 t19.5 -52.5q0 -44 -35.5 -62.5t-71 0t-35.5 62.5z" />
<glyph unicode="&#xfb02;" horiz-adv-x="1218" d="M55 0v63h191v875h-189v68h191v81q0 211 88 312q94 110 305 110q206 0 328 -84v-1362h202v-63h-464v63h190v1319q-110 58 -254 58q-192 0 -266 -99q-60 -78 -60 -249v-86h297v-68h-297v-875h244v-63h-506z" />
<glyph unicode="&#xfb03;" horiz-adv-x="1894" d="M55 0v63h191v875h-189v68h191v112q0 104 14.5 159.5t52.5 102.5q77 95 226 95q93 0 166 -48v-77h-9q-59 53 -157 53q-124 0 -185 -82q-39 -51 -39 -207v-108h584v153q0 103 14.5 158.5t53.5 103.5q77 95 225 95q93 0 166 -48v-77h-8q-59 53 -158 53q-123 0 -184 -82 q-39 -51 -39 -207v-149h674v-943h202v-63h-465v63h191v875h-602v-875h243v-63h-505v63h190v875h-582v-875h244v-63h-506zM1518 1346q0 34 19.5 52.5t51.5 18.5q31 0 50.5 -18.5t19.5 -52.5q0 -44 -35.5 -62.5t-70.5 0t-35 62.5z" />
<glyph unicode="&#xfb04;" horiz-adv-x="1871" d="M55 0v63h191v875h-189v68h191v112q0 104 14.5 159.5t52.5 102.5q77 95 226 95q93 0 166 -48v-77h-9q-59 53 -157 53q-124 0 -185 -82q-39 -51 -39 -207v-108h584v81q0 211 88 312q94 110 305 110q206 0 328 -84v-1362h203v-63h-465v63h190v1319q-110 58 -254 58 q-192 0 -266 -99q-59 -77 -59 -249v-86h317v-68h-317v-875h243v-63h-505v63h190v875h-582v-875h244v-63h-506z" />
<glyph horiz-adv-x="0" />
<glyph horiz-adv-x="682" />
<glyph unicode=" "  horiz-adv-x="446" />
<glyph unicode="&#x09;" horiz-adv-x="446" />
<glyph unicode="&#xa0;" horiz-adv-x="446" />
<glyph unicode="!" horiz-adv-x="587" d="M262 55q0 35 21.5 55.5t54.5 20.5q32 0 53 -20t21 -56q4 -46 -36 -64.5t-79.5 1t-34.5 63.5zM289 1411h94q0 -356 -14 -1001h-64q-16 856 -16 1001z" />
<glyph unicode="&#x22;" horiz-adv-x="690" d="M125 1440h115l-27 -572h-59zM451 1440h114l-26 -572h-60z" />
<glyph unicode="#" horiz-adv-x="1234" d="M96 451v86h269l43 309h-263v86h275l65 461h68l-66 -461h334l66 461h67l-65 -461h248v-86h-260l-43 -309h253v-86h-266l-67 -480h-68l68 480h-334l-68 -480h-67l67 480h-256zM432 537h334l43 309h-334z" />
<glyph unicode="$" horiz-adv-x="1128" d="M109 348h65l14 -172q144 -111 359 -117v592l-144 49q-253 85 -253 320q0 157 104.5 247t292.5 101v205h63v-203q102 -1 203 -36t152 -83l8 -223h-66l-14 180q-119 82 -283 88v-585l115 -39q155 -54 225 -127t70 -201q0 -158 -102.5 -253t-307.5 -105v-215h-63v213 q-268 6 -426 143zM231 1022q0 -98 56.5 -159t181.5 -103l78 -27v561q-316 -15 -316 -272zM610 59q330 15 330 277q0 101 -65 164t-228 118l-37 13v-572z" />
<glyph unicode="%" horiz-adv-x="1722" d="M70 940q0 198 90 320q91 120 237 120q151 0 237.5 -118t86.5 -322q0 -201 -89 -319.5t-239 -118.5q-149 0 -236 118t-87 320zM143 942q0 -178 68 -278.5t186 -100.5q117 0 184.5 101t67.5 278q0 176 -67.5 275.5t-184.5 99.5q-118 0 -186 -99.5t-68 -275.5zM479 -25 l690 1422h72l-688 -1422h-74zM1001 422q0 196 91 319q92 121 237 121q151 0 237.5 -118t86.5 -322q0 -201 -89 -319.5t-239 -118.5q-149 0 -236.5 118t-87.5 320zM1075 424q0 -178 68 -278.5t186 -100.5q117 0 184.5 101t67.5 278q0 176 -67.5 275.5t-184.5 99.5 q-118 0 -186 -99.5t-68 -275.5z" />
<glyph unicode="&#x26;" horiz-adv-x="1476" d="M115 381q0 279 311 399q-117 150 -117 287q0 142 101 229.5t278 87.5q153 0 254 -84v-98h-8q-94 105 -254 105q-139 0 -213 -65.5t-74 -180.5q0 -125 123 -266q92 -108 543 -553q49 52 82 138t33 175q0 71 -9 121h-180v67h428v-67h-170q6 -53 6 -107q0 -231 -139 -376 l141 -125h166v-68h-213q-67 67 -143 135q-182 -164 -438 -164q-233 0 -371 117q-137 116 -137 293zM197 387q0 -140 112 -240t316 -100q226 0 381 137q-315 306 -529 539q-280 -95 -280 -336z" />
<glyph unicode="'" horiz-adv-x="364" d="M125 1440h115l-27 -572h-59z" />
<glyph unicode="(" horiz-adv-x="669" d="M98 578q0 343 146 581q134 210 342 357h94v-9q-498 -341 -498 -927q0 -558 498 -918v-8h-94q-488 356 -488 924z" />
<glyph unicode=")" horiz-adv-x="669" d="M-10 -338q497 340 497 928q0 558 -497 917v9h94q487 -356 487 -924q0 -352 -147 -582q-67 -109 -149 -193.5t-191 -162.5h-94v8z" />
<glyph unicode="*" horiz-adv-x="860" d="M72 1141l28 76q204 -68 308 -117q-16 162 -19 330h80q0 -157 -14 -332q191 82 307 121l29 -74q-147 -46 -326 -92q67 -73 211 -258l-66 -43q-111 152 -184 270q-72 -113 -184 -274l-62 43q105 145 209 262q-129 29 -317 88z" />
<glyph unicode="+" horiz-adv-x="1433" d="M184 567v74h494v492h76v-492h495v-74h-495v-497h-76v497h-494z" />
<glyph unicode="," horiz-adv-x="350" d="M-12 -311q82 63 131 164t49 215q0 87 -37 168h92q35 -65 35 -162q0 -119 -51.5 -221.5t-136.5 -171.5h-82v8z" />
<glyph unicode="-" horiz-adv-x="651" d="M84 516v76h485v-76h-485z" />
<glyph unicode="." horiz-adv-x="348" d="M115 55q0 35 21 55.5t54 20.5q32 0 53 -20t21 -56q4 -46 -35.5 -64.5t-79 1t-34.5 63.5z" />
<glyph unicode="/" horiz-adv-x="774" d="M-2 -117l698 1614h80l-698 -1614h-80z" />
<glyph unicode="0" d="M86 680q0 324 137 516q139 195 361 195q228 0 360 -193q131 -189 131 -518q0 -322 -135 -516q-135 -191 -362 -191q-229 0 -361 191q-131 189 -131 516zM168 684q0 -296 112 -466.5t304 -170.5q191 0 301 170.5t110 466.5q0 298 -110 465.5t-301 167.5 q-193 0 -304.5 -167.5t-111.5 -465.5z" />
<glyph unicode="1" d="M299 1120v84l307 189h60v-1325h213v-68h-535v68h244v1228z" />
<glyph unicode="2" d="M96 0v41q417 346 602 528q199 199 199 420q0 134 -84 230q-82 98 -270 98q-113 0 -225.5 -56t-180.5 -151h-8v92q67 85 183.5 137t234.5 52q210 0 321 -105t111 -293q0 -126 -49 -228t-150 -216q-117 -134 -544 -477q127 2 741 2l12 225h66l-8 -299h-951z" />
<glyph unicode="3" d="M141 96v101h9q65 -72 171 -111t220 -39q97 0 169.5 23t113 56.5t65 80.5t32 87t7.5 85q0 91 -61.5 167t-174.5 101q-84 19 -225 19h-59v67h57q179 0 268 47q154 80 154 252q0 283 -330 283q-92 0 -205 -49q-108 -44 -170 -131h-8v94q54 65 168 112q118 48 219 48 q198 0 303 -90t105 -261q0 -114 -68 -205.5t-182 -127.5q130 -19 210.5 -105t80.5 -217q0 -195 -125 -303.5t-348 -108.5q-256 0 -396 125z" />
<glyph unicode="4" d="M68 383v41l737 967h63v-934h246v-74h-246v-315h211v-68h-514v68h226v315h-723zM184 457h607q0 441 8 813q-71 -104 -615 -813z" />
<glyph unicode="5" d="M147 94v99h9q146 -146 383 -146q199 0 306 102t107 277q0 161 -93 249.5t-284 88.5q-98 0 -200 -45q-106 -45 -152 -94l-8 2l76 735h678l8 -262h-66l-12 188h-543l-53 -536q116 88 305 88q174 0 299 -101q125 -98 125 -301q0 -232 -139 -350q-138 -117 -363 -117 q-239 0 -383 123z" />
<glyph unicode="6" d="M139 653q0 192 46.5 339t129.5 233q160 166 392 166q85 0 173.5 -24.5t137.5 -66.5v-98h-8q-106 115 -303 115q-492 0 -492 -744q27 121 145 213q121 95 283 95q181 0 303 -113q125 -113 125 -326q0 -225 -116.5 -348t-319.5 -123q-62 0 -119 13.5t-114.5 43t-103.5 82 t-82.5 125.5t-56.5 180t-20 238zM244 467q6 -144 65 -244q111 -182 322 -182q152 0 256 98t104 287q0 185 -94.5 281t-259.5 96q-159 0 -266 -101q-109 -103 -127 -235z" />
<glyph unicode="7" d="M109 1100l10 262h913v-57q-326 -706 -553 -1305h-88q219 588 555 1288h-760l-12 -188h-65z" />
<glyph unicode="8" d="M125 346q0 126 80.5 217.5t218.5 128.5q-250 92 -250 330q0 159 117 264t295 105q185 0 296 -95.5t111 -263.5q0 -117 -69 -208.5t-183 -121.5q138 -42 216.5 -131.5t78.5 -214.5q0 -170 -129 -278q-125 -107 -325 -107q-194 0 -326 99q-131 98 -131 276zM207 346 q0 -145 110 -221q116 -78 267 -78q157 0 264 82q108 83 108 221q0 148 -112 223q-113 81 -269 93q-152 -12 -264 -97q-104 -82 -104 -223zM252 1030q0 -136 90.5 -214.5t237.5 -84.5q155 6 243 80.5t88 218.5q0 128 -90 207.5t-239 79.5q-140 0 -236 -84q-94 -82 -94 -203z " />
<glyph unicode="9" d="M106 920q0 219 125 344q127 127 330 127q96 0 173 -30.5t147 -100.5q73 -70 113 -211.5t40 -339.5q0 -390 -149 -564q-146 -174 -389 -174q-99 0 -199.5 28t-149.5 75v94h9q108 -123 344 -123q263 0 366 219q92 191 92 524q-35 -126 -147 -213q-110 -88 -281 -88 q-180 0 -303 111q-121 115 -121 322zM186 940q0 -185 94 -280t259 -95q153 0 260 101q108 102 135 227q0 117 -53 223q-105 205 -320 205q-154 0 -264 -98q-111 -95 -111 -283z" />
<glyph unicode=":" horiz-adv-x="391" d="M156 55q0 35 21 55.5t54 20.5q32 0 53 -20t21 -56q4 -46 -35.5 -64.5t-79 1t-34.5 63.5zM156 934q0 35 21 55.5t54 20.5q32 0 53 -20t21 -56q4 -46 -35.5 -64.5t-79 1t-34.5 63.5z" />
<glyph unicode=";" horiz-adv-x="391" d="M29 -311q82 63 131 164t49 215q0 87 -37 168h92q35 -65 35 -162q0 -119 -51.5 -221.5t-136.5 -171.5h-82v8zM156 934q0 35 21 55.5t54 20.5q32 0 53 -20t21 -56q4 -46 -35.5 -64.5t-79 1t-34.5 63.5z" />
<glyph unicode="&#x3c;" horiz-adv-x="1433" d="M240 559v76l919 452v-90l-827 -399l827 -387v-92z" />
<glyph unicode="=" horiz-adv-x="1433" d="M184 373v76h1065v-76h-1065zM184 745v76h1065v-76h-1065z" />
<glyph unicode="&#x3e;" horiz-adv-x="1433" d="M274 119v90l832 401l-832 387v90l922 -440v-76z" />
<glyph unicode="?" horiz-adv-x="876" d="M80 1198v92q56 70 153.5 112t208.5 42q171 0 264 -85t93 -241q0 -103 -66 -194q-66 -90 -223 -203q-81 -60 -102 -123q-24 -74 -27 -188h-64q0 62 5 139q7 56 40 115t91 100q145 103 203.5 184t58.5 168q0 113 -68.5 183.5t-214.5 70.5q-212 0 -344 -172h-8zM279 55 q0 35 21 55.5t54 20.5q32 0 53 -20t21 -56q4 -46 -35.5 -64.5t-79 1t-34.5 63.5z" />
<glyph unicode="@" horiz-adv-x="1767" d="M127 426q-3 138 41 272t127 244t193 194.5t247 130t281 42.5q290 0 469 -156q178 -153 178 -420q0 -243 -121 -432q-120 -188 -285 -188q-124 0 -124 116q0 22 4 68q-139 -195 -359 -195q-148 0 -232.5 80t-84.5 228q0 117 53 228t150 196q133 118 317 118 q90 0 159 -40.5t95 -112.5l37 131h78l-117 -502q-23 -125 -23 -172q0 -39 15.5 -54.5t46.5 -15.5q83 -3 158 79.5t116.5 204.5t38.5 239q0 244 -160 389q-155 143 -411 143q-322 0 -565 -237q-242 -236 -242 -576q0 -279 186 -453q188 -176 473 -176q321 0 561 158h9 l-23 -90q-211 -141 -557 -141q-323 0 -526 194t-203 506zM543 428q0 -123 64 -187.5t181 -64.5q105 0 202.5 65.5t162.5 182.5l53 240q-30 219 -239 219q-139 0 -248 -92q-80 -67 -128 -164.5t-48 -198.5z" />
<glyph unicode="A" horiz-adv-x="1495" d="M6 0v68h156l557 1343h69l539 -1343h162v-68h-469v68h221l-168 407h-657l-170 -407h229v-68h-469zM444 547h603q-247 621 -291 770z" />
<glyph unicode="B" horiz-adv-x="1265" d="M72 0v68h194v1275h-194v68h438q116 0 217 -8q166 -14 254 -94.5t88 -225.5q0 -269 -252 -342q167 -17 254.5 -103.5t87.5 -234.5q0 -267 -246 -362q-103 -41 -362 -41h-479zM344 68h240q223 0 323 47q172 82 172 295q0 88 -49 152t-127 91q-119 43 -272 43h-287v-628z M344 772h272q166 0 234 45q137 88 137 264q0 180 -182 236q-85 26 -221 26h-240v-571z" />
<glyph unicode="C" horiz-adv-x="1411" d="M106 707q0 337 213 538q211 199 523 199q127 0 241.5 -34t176.5 -93l10 -262h-66l-16 219q-146 96 -348 96q-288 0 -469 -184q-181 -181 -181 -471q0 -306 179 -488q180 -180 469 -180q263 0 428 148h8v-89q-176 -135 -451 -135q-304 0 -510 197q-207 198 -207 539z" />
<glyph unicode="D" horiz-adv-x="1531" d="M72 0v68h194v1275h-194v68h532q245 0 393 -43q428 -126 428 -645q0 -514 -405 -664q-157 -59 -459 -59h-489zM344 68h240q311 0 463 82q296 155 296 569v21q-1 114 -31 214q-34 110 -112 200t-194 134q-155 55 -390 55h-272v-1275z" />
<glyph unicode="E" horiz-adv-x="1214" d="M72 0v68h194v1275h-194v68h962l10 -262h-65l-14 194h-621v-575h590v-68h-590v-632h676l14 215h66l-10 -283h-1018z" />
<glyph unicode="F" horiz-adv-x="1148" d="M72 0v66h194v1280h-194v65h962l10 -262h-65l-14 197h-621v-617h578v-67h-578v-596h240v-66h-512z" />
<glyph unicode="G" horiz-adv-x="1501" d="M100 707q0 341 215 538q217 199 525 199q129 0 254 -35q124 -35 184 -92l10 -262h-65l-17 217q-151 98 -372 98q-295 0 -474 -182q-176 -182 -176 -473q0 -307 178 -488q180 -180 469 -180q231 0 402 103v462h-252v68h449v-68h-115v-495q-205 -146 -496 -146 q-305 0 -512 195q-207 198 -207 541z" />
<glyph unicode="H" horiz-adv-x="1525" d="M72 0v68h194v1275h-194v68h469v-68h-197v-575h836v575h-195v68h469v-68h-197v-1275h197v-68h-469v68h195v632h-836v-632h197v-68h-469z" />
<glyph unicode="I" horiz-adv-x="612" d="M72 0v68h194v1275h-194v68h469v-68h-197v-1275h197v-68h-469z" />
<glyph unicode="J" horiz-adv-x="882" d="M53 41v86h8q92 -80 220 -80q186 0 241 119q31 67 31 246v931h-217v68h475v-68h-180v-927q0 -199 -35 -277q-76 -168 -313 -168q-142 0 -230 70z" />
<glyph unicode="K" horiz-adv-x="1415" d="M72 0v68h194v1275h-194v68h467v-68h-195v-702l674 702h-168v68h467v-68h-184l-478 -483l557 -792h187v-68h-246l-553 803l-256 -258v-477h195v-68h-467z" />
<glyph unicode="L" horiz-adv-x="1251" d="M72 0v68h194v1275h-194v68h477v-68h-205v-1275h662l14 215h65l-10 -283h-1003z" />
<glyph unicode="M" horiz-adv-x="1796" d="M72 0v68h194v1275h-194v68h307q459 -890 532 -1051q56 120 527 1051h286v-68h-178v-1275h178v-68h-469v68h213q0 1071 7 1253q-157 -322 -539 -1055h-55l-543 1055q6 -298 6 -1253h197v-68h-469z" />
<glyph unicode="N" horiz-adv-x="1503" d="M72 0v68h194v1275h-194v68h278q730 -1072 854 -1272q-6 323 -6 1204h-203v68h469v-68h-188v-1343h-68q-807 1199 -866 1298q2 -147 2 -1230h197v-68h-469z" />
<glyph unicode="O" horiz-adv-x="1656" d="M106 705q0 307 209 522q212 215 512 215q309 0 516 -213t207 -524q0 -309 -209 -521q-207 -213 -514 -213q-306 0 -514 211q-207 213 -207 523zM188 707q0 -279 187 -469q188 -191 452 -191q274 0 457 189q184 187 184 471q0 278 -184 471q-183 192 -457 192 q-266 0 -454 -194q-185 -194 -185 -469z" />
<glyph unicode="P" horiz-adv-x="1288" d="M72 0v68h194v1275h-194v68h577q200 0 318 -41q217 -76 217 -358q0 -302 -258 -387q-116 -39 -312 -39h-270v-518h240v-68h-512zM344 655h270q231 0 320 47q168 85 168 308q0 216 -158 293q-81 40 -299 40h-301v-688z" />
<glyph unicode="Q" horiz-adv-x="1656" d="M106 705q0 307 209 522q212 215 512 215q309 0 516 -213t207 -524q0 -219 -110 -396q-107 -174 -291 -264l340 -274l-51 -64l-373 303q-113 -39 -238 -39q-306 0 -514 211q-207 213 -207 523zM188 707q0 -279 187 -469q188 -191 452 -191q274 0 457 189q184 187 184 471 q0 278 -184 471q-183 192 -457 192q-266 0 -454 -194q-185 -194 -185 -469z" />
<glyph unicode="R" horiz-adv-x="1376" d="M72 0v68h194v1275h-194v68h555q221 0 319 -33q217 -70 217 -346q0 -162 -94 -259t-260 -122l369 -583h188v-68h-242l-397 641q-102 -4 -115 -4h-268v-569h197v-68h-469zM344 707h270q191 0 287 38q180 67 180 281q0 188 -123 264q-89 53 -309 53h-305v-636z" />
<glyph unicode="S" horiz-adv-x="1150" d="M74 379h65l15 -195q168 -137 421 -137q408 0 408 309q0 99 -73.5 164.5t-247.5 122.5l-261 88q-288 94 -288 336q0 178 130.5 277.5t362.5 99.5q125 0 240 -37q119 -37 172 -90l10 -256h-65l-17 209q-144 100 -344 100q-201 0 -303 -80.5t-102 -218.5q0 -109 65 -171.5 t213 -111.5l273 -90q166 -54 244.5 -131.5t78.5 -208.5q0 -180 -124.5 -283.5t-377.5 -103.5q-292 0 -485 166z" />
<glyph unicode="T" horiz-adv-x="1226" d="M74 1118l10 293h1055l10 -293h-66l-14 219h-426v-1271h199v-66h-467v66h190v1271h-411l-15 -219h-65z" />
<glyph unicode="U" horiz-adv-x="1542" d="M49 1346v65h469v-65h-207v-730q0 -248 62 -372q44 -87 147.5 -142t255.5 -55q259 0 389 189q74 109 74 382v728h-215v65h469v-65h-176v-742q0 -280 -70 -393q-144 -240 -469 -240q-369 0 -489 256q-56 121 -56 371v748h-184z" />
<glyph unicode="V" horiz-adv-x="1523" d="M10 1346v65h469v-65h-213q363 -876 500 -1231q103 276 489 1231h-211v65h469v-65h-161l-553 -1346h-70l-553 1346h-166z" />
<glyph unicode="W" horiz-adv-x="2131" d="M23 1346v65h469v-65h-216q280 -995 332 -1205q49 172 418 1270h74q348 -1124 391 -1270q69 266 350 1205h-201v65h469v-65h-172l-415 -1346h-70q-341 1095 -393 1274l-420 -1274h-70l-381 1346h-165z" />
<glyph unicode="X" horiz-adv-x="1527" d="M35 0v66h176l502 682l-445 598h-166v65h469v-65h-209l410 -549l391 549h-217v65h469v-65h-155l-439 -609l498 -671h176v-66h-469v66h195l-459 622l-453 -622h195v-66h-469z" />
<glyph unicode="Y" horiz-adv-x="1468" d="M4 1346v65h469v-65h-190l448 -695q33 58 451 695h-187v65h469v-65h-182l-516 -777v-503h199v-66h-467v66h190v503l-504 777h-180z" />
<glyph unicode="Z" horiz-adv-x="1306" d="M86 0v43l1010 1294h-875l-12 -225h-66l9 299h1052v-51l-997 -1286h944l14 225h66l-10 -299h-1135z" />
<glyph unicode="[" horiz-adv-x="557" d="M180 -334v1841h350v-69h-268v-1702h268v-70h-350z" />
<glyph unicode="\" horiz-adv-x="774" d="M-2 1497h80l698 -1614h-80z" />
<glyph unicode="]" horiz-adv-x="557" d="M27 -264h268v1702h-268v69h350v-1841h-350v70z" />
<glyph unicode="^" horiz-adv-x="1437" d="M289 578l381 806h96l383 -806h-90l-342 718l-336 -718h-92z" />
<glyph unicode="_" horiz-adv-x="1073" d="M0 -162h1073v-74h-1073v74z" />
<glyph unicode="`" horiz-adv-x="430" d="M14 1520v8h133l269 -330v-8h-82z" />
<glyph unicode="a" horiz-adv-x="1126" d="M86 274q0 170 166 246q119 55 356 55q97 0 203 -16v100q0 135 -33 191q-65 115 -260 115q-87 0 -192 -45q-106 -43 -160 -115h-8v86q60 66 160 105.5t206 39.5q224 0 307 -129q52 -76 52 -250v-594h196v-63h-266v133q-61 -74 -154 -117t-198 -43q-168 0 -271.5 82.5 t-103.5 218.5zM162 276q0 -104 78 -167.5t227 -63.5q113 0 204.5 47t139.5 127v273q-102 18 -213 18q-192 0 -295 -41q-141 -59 -141 -193z" />
<glyph unicode="b" horiz-adv-x="1339" d="M27 1427v64h262v-715q51 117 172.5 188.5t269.5 71.5q203 0 354 -139q154 -139 154 -385q0 -107 -31 -197.5t-83 -152.5t-119.5 -106t-140 -64.5t-146.5 -20.5q-144 0 -258.5 61t-171.5 161v-193h-72v1427h-190zM289 332q48 -136 166 -211q122 -78 260 -78q181 0 313 123 q133 124 133 346q0 212 -135 332q-133 121 -301 121q-140 0 -268 -84q-121 -81 -168 -230v-319z" />
<glyph unicode="c" horiz-adv-x="1095" d="M100 498q0 242 156 389q155 149 389 149q204 0 328 -112v-238h-70l-8 203q-107 76 -256 76q-187 0 -326 -121q-137 -119 -137 -340q0 -97 28.5 -177t74.5 -131.5t106.5 -87t122 -50.5t123.5 -15q195 0 340 133h8v-82q-58 -58 -155 -89.5t-201 -31.5q-219 0 -371 146 q-152 149 -152 379z" />
<glyph unicode="d" horiz-adv-x="1386" d="M100 496q0 249 156 393q156 147 375 147q138 0 250.5 -59t169.5 -162v612h-191v64h262v-1428h199v-63h-270v231q-51 -119 -167 -188.5t-263 -69.5q-215 0 -369 142q-152 146 -152 381zM176 496q0 -215 133 -336q135 -117 318 -117q139 0 258 84q118 81 166 229v320 q-46 136 -166 213q-119 76 -260 76q-179 0 -314 -123q-135 -120 -135 -346z" />
<glyph unicode="e" horiz-adv-x="1132" d="M100 498q0 125 43.5 230.5t114.5 172.5t160 103q80 32 163 32h19q208 0 325 -122t117 -341q0 -57 -6 -92h-860q3 -188 127 -315q126 -123 338 -123q102 0 201.5 36.5t165.5 102.5h8v-82q-57 -54 -166 -92q-110 -35 -213 -35q-245 0 -391 146t-146 379zM176 549h791v26 q0 185 -94.5 287.5t-286.5 102.5q-149 0 -275 -111q-126 -108 -135 -305z" />
<glyph unicode="f" horiz-adv-x="653" d="M55 0v63h191v875h-189v68h191v153q0 104 14.5 159.5t52.5 102.5q77 95 226 95q93 0 166 -48v-77h-9q-59 53 -157 53q-124 0 -185 -82q-39 -51 -39 -207v-149h297v-68h-297v-875h244v-63h-506z" />
<glyph unicode="g" horiz-adv-x="1337" d="M100 496q0 170 80 297q77 123 193.5 183t257.5 60q283 0 403 -221v191h256v-64h-184v-854q0 -207 -62 -313q-120 -205 -434 -205q-120 0 -225 38t-168 97v92h8q61 -71 168 -113t225 -42q259 0 359 161q57 89 57 285v154q-52 -121 -162.5 -189.5t-261.5 -68.5 q-216 0 -362 137q-148 139 -148 375zM176 496q0 -217 125 -330t315 -113q144 0 257.5 84t160.5 230v309q-43 137 -154.5 213t-254.5 76q-185 0 -316 -125q-133 -124 -133 -344z" />
<glyph unicode="h" horiz-adv-x="1314" d="M53 0v63h191v1364h-191v64h262v-668q59 96 163 151.5t239 55.5t222 -57.5t112 -161.5q20 -79 20 -231v-517h197v-63h-469v63h200v515q0 180 -41 251q-70 129 -258 129q-122 0 -231 -69q-106 -66 -154 -164v-662h203v-63h-465z" />
<glyph unicode="i" horiz-adv-x="581" d="M70 0v63h190v879h-190v64h262v-943h203v-63h-465zM205 1346q0 34 19.5 52.5t51.5 18.5q31 0 50.5 -18.5t19.5 -52.5q0 -44 -35 -62q-18 -9 -35.5 -9.5t-35.5 9.5q-36 18 -35 62z" />
<glyph unicode="j" horiz-adv-x="495" d="M-78 -311h8q53 -47 133 -47q88 0 123 41q39 45 39 186v1073h-190v64h262v-1133q0 -165 -49 -229q-56 -74 -166 -74q-101 0 -160 39v80zM170 1346q0 34 20 52.5t52 18.5q30 0 49.5 -18.5t19.5 -52.5q0 -44 -35 -62q-18 -10 -35.5 -10t-34.5 10q-36 18 -36 62z" />
<glyph unicode="k" horiz-adv-x="1153" d="M53 0v63h191v1364h-191v64h262v-987l482 438h-148v64h420v-64h-170l-352 -315l420 -564h157v-63h-200l-428 582l-181 -162v-357h203v-63h-465z" />
<glyph unicode="l" horiz-adv-x="565" d="M53 0v63h191v1364h-191v64h262v-1428h203v-63h-465z" />
<glyph unicode="m" horiz-adv-x="2031" d="M70 0v63h190v879h-190v64h262v-183q130 207 389 207q269 0 321 -217q63 98 168 157.5t236 59.5q269 0 321 -217q21 -82 21 -227v-523h197v-63h-469v63h200v521q0 176 -41 247q-71 127 -245 127q-123 0 -224 -67q-98 -65 -147 -164q4 -62 4 -143v-521h201v-63h-469v63h196 v521q0 176 -41 247q-71 127 -245 127q-123 0 -226 -69q-98 -65 -147 -164v-662h203v-63h-465z" />
<glyph unicode="n" horiz-adv-x="1331" d="M70 0v63h190v879h-190v64h262v-183q59 96 162.5 151.5t238.5 55.5t222 -57.5t112 -161.5q20 -79 20 -231v-517h197v-63h-469v63h201v515q0 180 -41 251q-71 129 -258 129q-123 0 -232 -69q-104 -65 -153 -164v-662h203v-63h-465z" />
<glyph unicode="o" horiz-adv-x="1249" d="M100 504q0 220 154 377q155 155 375 155q222 0 370 -151q150 -150 150 -381q0 -219 -152 -377q-151 -154 -372 -154q-222 0 -373 154q-152 158 -152 377zM176 504q0 -193 129 -328q130 -133 320 -133q192 0 319 133q129 132 129 328q0 195 -129 327q-131 134 -319 134 q-185 0 -318 -136q-131 -131 -131 -325z" />
<glyph unicode="p" horiz-adv-x="1363" d="M47 942v64h266v-228q55 119 174 187q127 71 271 71q124 0 237 -55q118 -58 193.5 -183t75.5 -286q0 -244 -154 -389q-149 -143 -367 -143q-138 0 -254 60t-176 163v-537h244v-63h-506v63h191v1276h-195zM313 342q47 -140 168 -215q122 -76 269 -76q183 0 309 123 q127 124 127 338q0 146 -72 256q-129 197 -362 197q-149 0 -269.5 -83.5t-169.5 -228.5v-311z" />
<glyph unicode="q" horiz-adv-x="1372" d="M100 498q0 249 156 393q157 145 373 145q139 0 252.5 -58.5t169.5 -162.5v191h258v-64h-187v-1276h187v-63h-506v63h248v572q-47 -116 -166.5 -186t-268.5 -70q-216 0 -366 135t-150 381zM176 498q0 -220 129 -334q129 -111 318 -111q147 0 266 82.5t162 226.5v314 q-43 136 -162 212.5t-266 76.5q-63 0 -124.5 -16.5t-120.5 -53.5t-103.5 -90t-71.5 -132.5t-27 -174.5z" />
<glyph unicode="r" horiz-adv-x="788" d="M70 0v63h190v879h-190v64h260v-172q21 71 100 135q80 65 178 65q78 0 125 -30v-89h-8q-36 39 -115 39q-96 0 -168.5 -63t-109.5 -176v-652h243v-63h-505z" />
<glyph unicode="s" horiz-adv-x="980" d="M96 317h68l20 -194q121 -80 310 -80q157 0 232 57.5t75 155.5q0 73 -52 118t-176 77l-231 63q-209 59 -209 252q0 127 104.5 198.5t282.5 71.5q90 0 182 -30q91 -27 138 -68l6 -225h-68l-12 184q-121 68 -248 68q-148 0 -228.5 -54t-80.5 -143q0 -79 46 -125.5t142 -73.5 l232 -65q128 -37 189 -94t61 -154q0 -127 -102 -206t-288 -79q-237 0 -376 115z" />
<glyph unicode="t" horiz-adv-x="645" d="M31 938v68h190q0 4 0.5 37.5t1.5 105t2 151.5h66v-294h301v-68h-301v-659q0 -107 24 -160q34 -76 152 -76q97 0 162 47h8v-67q-63 -48 -176 -48q-65 0 -121 24t-80 64q-41 65 -41 224v651h-188z" />
<glyph unicode="u" horiz-adv-x="1292" d="M23 942v64h262v-584q0 -177 41 -248q71 -127 268 -127q118 0 221 68q105 71 152 166v661h-205v64h276v-943h179v-63h-246v184q-58 -95 -160.5 -152t-237.5 -57t-225 58.5t-115 159.5q-20 79 -20 227v522h-190z" />
<glyph unicode="v" horiz-adv-x="1171" d="M4 942v64h424v-64h-199l353 -836l360 836h-199v64h424v-64h-141l-418 -942h-55l-408 942h-141z" />
<glyph unicode="w" horiz-adv-x="1681" d="M10 942v64h424v-64h-201q204 -612 263 -821q58 184 317 885h57q307 -839 320 -885q54 199 256 821h-201v64h424v-64h-141l-314 -942h-55q-266 730 -319 897q-44 -149 -320 -897h-55l-318 942h-137z" />
<glyph unicode="x" horiz-adv-x="1134" d="M14 0v63h146l350 463l-305 416h-158v64h203l317 -441l275 377h-150v64h400v-64h-154l-328 -422l336 -457h166v-63h-211l-348 479l-307 -416h166v-63h-398z" />
<glyph unicode="y" horiz-adv-x="1173" d="M6 942v64h424v-64h-199q285 -649 363 -844l352 844h-201v64h424v-64h-141l-407 -942q-109 -244 -142 -301q-77 -129 -219 -129q-87 0 -145 37v80h8q48 -45 141 -45q101 0 164 106q23 41 76 160l49 117l-406 917h-141z" />
<glyph unicode="z" horiz-adv-x="999" d="M84 0v43l719 897h-600l-13 -227h-69l8 293h768v-50l-711 -890h658l20 241h70l-16 -307h-834z" />
<glyph unicode="{" horiz-adv-x="671" d="M90 555v66q121 15 162 81q43 64 43 246v254q0 188 76 252q78 66 223 66h51v-70h-82q-188 0 -188 -250v-246q0 -140 -21 -217q-19 -70 -50.5 -97t-110.5 -52q100 -18 141 -92t41 -271v-252q0 -135 50.5 -193.5t147.5 -58.5h72v-67h-51q-75 0 -121.5 11t-89.5 42 q-88 61 -88 264v252q0 182 -47 250q-46 70 -158 82z" />
<glyph unicode="|" horiz-adv-x="438" d="M180 -377v1944h78v-1944h-78z" />
<glyph unicode="}" horiz-adv-x="671" d="M27 -276h82q188 0 188 249v246q0 145 20 215q21 77 54 103q37 29 108 49q-100 18 -141 92t-41 270v252q0 135 -51 193.5t-148 58.5h-71v68h51q75 0 121.5 -11.5t89.5 -42.5q88 -61 88 -264v-252q0 -184 45 -252q47 -68 160 -80v-65q-119 -15 -164 -82q-41 -65 -41 -246 v-254q0 -186 -78 -252q-77 -65 -221 -65h-51v70z" />
<glyph unicode="~" horiz-adv-x="1433" d="M186 532q83 111 155 157t155 46q78 0 254 -102q122 -76 204 -76q66 0 118.5 39.5t113.5 136.5l59 -37q-70 -115 -137 -165t-156 -50q-97 0 -245 86q-153 90 -224 90q-126 0 -239 -165z" />
<glyph unicode="&#xa1;" horiz-adv-x="587" d="M176 981q-4 46 36 64.5t79.5 -1t34.5 -63.5q0 -35 -21.5 -55.5t-54.5 -20.5q-32 0 -53 20t-21 56zM205 -375q0 357 14 1002h64q16 -856 16 -1002h-94z" />
<glyph unicode="&#xa2;" horiz-adv-x="1134" d="M174 498q0 223 121 362q125 140 315 158v211h64v-207q217 -3 327 -96v-232h-69l-8 195q-101 61 -250 61v-891q212 0 340 134h8v-84q-55 -54 -153.5 -86.5t-194.5 -34.5v-213h-64v217q-198 18 -317 148.5t-119 357.5zM252 504q0 -211 104 -318q105 -105 254 -123v883 q-162 -20 -260 -132.5t-98 -309.5z" />
<glyph unicode="&#xa3;" horiz-adv-x="1218" d="M121 0v49q140 70 211 173.5t71 209.5q0 85 -28 164h-219v66h202q-79 216 -79 333q0 186 117.5 291t340.5 105q203 0 322 -101v-96h-8q-55 58 -142.5 90.5t-175.5 32.5q-231 0 -307 -105q-66 -89 -66 -217q0 -104 80 -333h475v-66h-458q24 -76 24 -174t-54.5 -190.5 t-162.5 -157.5h776l15 225h65l-10 -299h-989z" />
<glyph unicode="&#xa4;" horiz-adv-x="1216" d="M135 250l139 141q-96 122 -96 285q0 157 98 282l-139 142l58 53l135 -141q112 100 278 100q167 0 277 -98l143 143l53 -53l-141 -143q100 -115 100 -281q0 -179 -100 -285l141 -145l-53 -49l-139 139q-118 -100 -281 -100q-166 0 -282 98l-133 -139zM256 680 q0 -163 100 -266q103 -103 252 -103t252 103q103 106 103 264q0 151 -103 260q-100 106 -252 106t-252 -106t-100 -258z" />
<glyph unicode="&#xa5;" horiz-adv-x="1468" d="M27 1272v65h469v-65h-207l436 -656q28 49 438 656h-190v65h469v-65h-178l-351 -506h275v-61h-316l-112 -164v-39h428v-62h-428v-374h198v-66h-466v66h190v374h-403v62h403v39l-111 164h-292v61h251l-340 506h-163z" />
<glyph unicode="&#xa6;" horiz-adv-x="438" d="M180 -193v674h78v-674h-78zM180 791v673h78v-673h-78z" />
<glyph unicode="&#xa7;" horiz-adv-x="989" d="M98 696q0 100 59.5 165t157.5 97q-66 54 -94 105.5t-28 132.5q0 103 81 184q83 86 256 86q176 0 285 -86v-90h-8q-112 103 -283 103q-118 0 -184 -56.5t-66 -136.5q0 -72 42 -123t149 -116q252 -151 338 -213q104 -76 104 -218q0 -97 -54.5 -162.5t-145.5 -91.5 q122 -104 122 -249q0 -107 -88 -195q-87 -90 -256 -90q-114 0 -210.5 36t-155.5 95v100h8q56 -69 157.5 -113t207.5 -44q111 0 183.5 59t72.5 152q0 70 -31 117.5t-101 93.5q-51 37 -182 102q-131 68 -188 111q-148 103 -148 245zM178 702q0 -65 37.5 -114.5t124.5 -104.5 q43 -28 305 -170q80 25 129 78t49 129q0 73 -42 125t-146 113q-227 134 -260 155q-66 -9 -131 -65q-66 -54 -66 -146z" />
<glyph unicode="&#xa8;" horiz-adv-x="430" d="M-31 1346q0 31 20 49t50 18q28 0 47.5 -18t19.5 -49q0 -30 -19.5 -49t-49.5 -19q-31 0 -49.5 18.5t-18.5 49.5zM324 1346q0 31 19.5 49t49.5 18q28 0 48 -18t20 -49q0 -30 -20 -49t-50 -19q-31 0 -49 18.5t-18 49.5z" />
<glyph unicode="&#xa9;" horiz-adv-x="1695" d="M104 707q0 311 213 524t529 213q326 0 534 -211q211 -208 211 -526q0 -312 -213 -525q-211 -211 -530 -211q-322 0 -533 211t-211 525zM170 707q0 -294 192 -486t486 -192q295 0 487 192q193 193 193 486q0 292 -193 485q-194 194 -489 194q-291 0 -484 -196 q-192 -192 -192 -483zM403 713q0 220 144 346q144 129 344 129q181 0 264 -80v-219h-70l-6 178q-91 49 -194 49q-166 0 -283 -108t-117 -291q0 -198 113 -305q114 -105 283 -105q147 0 270 99h8v-82q-42 -37 -122.5 -62.5t-159.5 -25.5q-208 0 -340 129q-134 134 -134 348z " />
<glyph unicode="&#xaa;" horiz-adv-x="753" d="M80 776q0 115 108 162q81 37 236 37q61 0 113 -8v55q0 80 -23 121q-41 65 -149 65q-61 0 -127.5 -29t-102.5 -73h-8v63q39 42 106.5 68.5t135.5 26.5q139 0 196 -84q35 -50 35 -162v-369h123v-53h-182v88q-80 -102 -217 -102q-110 0 -177 53t-67 141zM139 778 q0 -60 49.5 -99.5t143.5 -39.5q135 0 205 113v157q-60 13 -121 13q-120 -3 -187 -27q-90 -35 -90 -117z" />
<glyph unicode="&#xab;" horiz-adv-x="849" d="M55 516l283 377h94l-278 -377l280 -377h-94zM408 516l282 377h94l-278 -377l280 -377h-94z" />
<glyph unicode="&#xac;" horiz-adv-x="1433" d="M168 567v74h1065v-571h-78v497h-987z" />
<glyph unicode="&#xad;" horiz-adv-x="651" d="M84 516v76h485v-76h-485z" />
<glyph unicode="&#xae;" horiz-adv-x="1695" d="M104 707q0 311 213 524t529 213q326 0 534 -211q211 -208 211 -526q0 -312 -213 -525q-211 -211 -530 -211q-322 0 -533 211t-211 525zM170 707q0 -294 192 -486t486 -192q295 0 487 192q193 193 193 486q0 292 -193 485q-194 194 -489 194q-291 0 -484 -196 q-192 -192 -192 -483zM457 272v62h133v749h-133v62h360q117 0 201 -23q68 -19 107.5 -75.5t39.5 -137.5q0 -83 -48.5 -143.5t-131.5 -85.5l199 -346h129v-62h-183l-223 392q-67 -5 -243 -5v-325h129v-62h-336zM664 727h149q119 0 188 29q84 41 84 151q0 48 -26 92t-68 62 q-56 20 -180 20h-147v-354z" />
<glyph unicode="&#xaf;" horiz-adv-x="430" d="M-88 1237v80h606v-80h-606z" />
<glyph unicode="&#xb0;" horiz-adv-x="641" d="M47 1171q0 126 82 205q83 80 193 80q123 0 197.5 -76.5t74.5 -195.5q0 -127 -82 -203t-195 -76q-114 0 -192 78q-78 81 -78 188zM115 1178q0 -92 58.5 -152.5t145.5 -60.5q89 0 149 61t60 158q0 85 -57 149t-152 64q-90 0 -147 -63t-57 -156z" />
<glyph unicode="&#xb1;" horiz-adv-x="1433" d="M184 0v76h1065v-76h-1065zM184 723v76h494v477h76v-477h495v-76h-495v-483h-76v483h-494z" />
<glyph unicode="&#xb2;" horiz-adv-x="790" d="M66 819v39q243 198 364 316q129 129 129 256q0 83 -53.5 135.5t-157.5 52.5q-67 0 -135 -34t-117 -93h-8v76q44 51 118 82.5t146 31.5q134 0 207.5 -65.5t73.5 -179.5q0 -136 -129 -277q-23 -27 -144 -133q-107 -91 -180 -145q80 2 436 2l13 149h57l-8 -213h-612z" />
<glyph unicode="&#xb3;" horiz-adv-x="790" d="M94 879v82h8q86 -95 250 -95q121 0 177.5 53t56.5 136q0 52 -33 93.5t-98 59.5q-58 15 -156 15h-37v59h37q115 0 172 31q88 46 88 143q0 72 -49 116t-148 44q-52 0 -131 -29q-70 -26 -110 -82h-8v78q36 41 111.5 68.5t144.5 27.5q125 0 193.5 -57.5t68.5 -163.5 q0 -68 -42 -123t-114 -78q81 -12 131.5 -66t50.5 -132q0 -121 -82.5 -189.5t-224.5 -68.5q-166 0 -256 78z" />
<glyph unicode="&#xb4;" horiz-adv-x="430" d="M14 1190v8l269 330h133v-8l-320 -330h-82z" />
<glyph unicode="&#xb5;" horiz-adv-x="1204" d="M199 -432v1438h71v-584q0 -186 41 -248q86 -127 273 -127q117 0 223 68q107 70 154 166v725h71v-1006h-67v184q-58 -95 -162 -152t-240 -57q-95 0 -176.5 38.5t-116.5 103.5v-549h-71z" />
<glyph unicode="&#xb6;" horiz-adv-x="1140" d="M90 928q0 483 588 483h303v-1706h-74v1638h-250v-1638h-75v770q-228 0 -361 127q-131 128 -131 326z" />
<glyph unicode="&#xb7;" horiz-adv-x="350" d="M100 547q0 35 21.5 55.5t54.5 20.5q32 0 53 -20t21 -56q4 -46 -36 -64.5t-79.5 1t-34.5 63.5z" />
<glyph unicode="&#xb8;" horiz-adv-x="430" d="M23 -385h8q51 -51 147 -51q154 0 154 123q0 52 -40.5 84t-119.5 32q-46 0 -80 -12l-6 4l72 225h71l-47 -155h17q93 0 151 -47.5t58 -126.5q0 -96 -62 -146.5t-168 -50.5q-96 0 -155 47v74z" />
<glyph unicode="&#xb9;" horiz-adv-x="790" d="M186 1487v69l205 117h53v-790h177v-64h-433v64h187v708z" />
<glyph unicode="&#xba;" horiz-adv-x="804" d="M68 926q0 160 102 248q107 90 233 90q147 0 239.5 -87.5t92.5 -246.5q0 -171 -100 -258q-104 -90 -238 -90q-133 0 -231 88t-98 256zM133 928q0 -142 78 -217q81 -72 192 -72q112 0 189 74q78 78 78 217q0 137 -72.5 206.5t-198.5 69.5q-114 0 -190 -73.5t-76 -204.5z " />
<glyph unicode="&#xbb;" horiz-adv-x="849" d="M63 893h95l284 -377l-282 -377h-94l278 377zM416 893h94l285 -377l-283 -377h-94l278 377z" />
<glyph unicode="&#xbc;" horiz-adv-x="1722" d="M178 1186v69l205 117h53v-790h176v-64h-432v64h187v708zM500 -25l690 1422h72l-689 -1422h-73zM940 227v45l467 590h57v-569h156v-66h-156v-227h-69v227h-455zM1032 293h363q0 80 6 467q-63 -93 -369 -467z" />
<glyph unicode="&#xbd;" horiz-adv-x="1722" d="M147 1186v69l205 117h54v-790h176v-64h-432v64h186v708zM442 -25l691 1422h71l-688 -1422h-74zM1010 0v39q249 203 364 315q129 129 129 256q0 83 -53.5 136t-157.5 53q-67 0 -135 -34t-117 -93h-8v76q44 51 118 82.5t146 31.5q133 0 207 -66t74 -180q0 -135 -129 -276 q-26 -31 -143 -133q-109 -93 -181 -146q80 2 437 2l12 150h57l-8 -213h-612z" />
<glyph unicode="&#xbe;" horiz-adv-x="1722" d="M125 578v81h8q85 -94 250 -94q121 0 177 53t56 136q0 52 -33 93.5t-98 59.5q-58 15 -155 15h-37v59h37q115 0 172 31q88 46 88 143q0 72 -49 116t-148 44q-52 0 -131 -29q-70 -26 -110 -82h-9v78q36 41 111.5 68.5t144.5 27.5q125 0 194 -58t69 -163q0 -68 -42 -123 t-114 -78q81 -12 131.5 -66t50.5 -132q0 -121 -82.5 -189.5t-224.5 -68.5q-166 0 -256 78zM528 -25l691 1422h71l-688 -1422h-74zM950 227v45l467 590h58v-569h155v-66h-155v-227h-70v227h-455zM1042 293h363q0 80 6 467q-63 -93 -369 -467z" />
<glyph unicode="&#xbf;" horiz-adv-x="876" d="M78 -82q0 109 63 195q61 84 226 202q81 60 102 123q24 74 27 189h63q0 -93 -6 -142q-5 -53 -38 -112.5t-91 -100.5q-145 -103 -203.5 -184t-58.5 -168q0 -114 68 -184t214 -70q212 0 344 172h9v-92q-56 -70 -154 -112t-209 -42q-171 0 -263.5 85t-92.5 241zM449 981 q-4 46 35.5 64.5t79 -1t34.5 -63.5q0 -35 -21.5 -55.5t-54.5 -20.5q-32 0 -52.5 20t-20.5 56z" />
<glyph unicode="&#xc0;" horiz-adv-x="1495" d="M6 0v68h156l557 1343h69l539 -1343h162v-68h-469v68h221l-168 407h-657l-170 -407h229v-68h-469zM434 1802v8h156l323 -266v-8h-102zM444 547h603q-247 621 -291 770z" />
<glyph unicode="&#xc1;" horiz-adv-x="1495" d="M6 0v68h156l557 1343h69l539 -1343h162v-68h-469v68h221l-168 407h-657l-170 -407h229v-68h-469zM444 547h603q-247 621 -291 770zM610 1536v8l324 266h156v-8l-377 -266h-103z" />
<glyph unicode="&#xc2;" horiz-adv-x="1495" d="M6 0v68h156l557 1343h69l539 -1343h162v-68h-469v68h221l-168 407h-657l-170 -407h229v-68h-469zM438 1536v8l289 266h57l291 -266v-8h-102l-221 182l-213 -182h-101zM444 547h603q-247 621 -291 770z" />
<glyph unicode="&#xc3;" horiz-adv-x="1495" d="M6 0v68h156l557 1343h69l539 -1343h162v-68h-469v68h221l-168 407h-657l-170 -407h229v-68h-469zM438 1552q10 97 58.5 150t119.5 53q68 0 160 -69q89 -68 137 -68q82 0 97 135h69q-4 -100 -53.5 -156.5t-118.5 -56.5q-66 0 -176 78q-86 59 -121 59q-79 0 -100 -125h-72z M444 547h603q-247 621 -291 770z" />
<glyph unicode="&#xc4;" horiz-adv-x="1495" d="M6 0v68h156l557 1343h69l539 -1343h162v-68h-469v68h221l-168 407h-657l-170 -407h229v-68h-469zM444 547h603q-247 621 -291 770zM506 1653q0 31 19.5 49t49.5 18q28 0 48 -18t20 -49q0 -30 -20 -49t-50 -19q-31 0 -49 18.5t-18 49.5zM870 1653q0 31 20 49t50 18 q28 0 48 -18t20 -49q0 -30 -20 -49t-50 -19q-31 0 -49.5 18.5t-18.5 49.5z" />
<glyph unicode="&#xc5;" horiz-adv-x="1495" d="M6 0v68h156l557 1343h69l539 -1343h162v-68h-469v68h221l-168 407h-657l-170 -407h229v-68h-469zM444 547h603q-247 621 -291 770zM543 1673q0 87 60 144t151 57t146.5 -55t55.5 -146q0 -85 -59 -142.5t-147 -57.5t-147.5 57t-59.5 143zM604 1673q0 -63 40 -104t108 -41 q65 0 104 42t39 105q0 66 -40.5 106t-106.5 40q-63 0 -103.5 -42.5t-40.5 -105.5z" />
<glyph unicode="&#xc6;" horiz-adv-x="2072" d="M6 0v68h144l878 1275h-240v68h1104l9 -262h-66l-12 194h-643v-575h589v-68h-589v-632h698l12 215h66l-8 -283h-1055v68h209v407h-574l-284 -407h231v-68h-469zM569 543h533v784q-109 -169 -533 -784z" />
<glyph unicode="&#xc7;" horiz-adv-x="1411" d="M106 707q0 337 213 538q211 199 523 199q127 0 241.5 -34t176.5 -93l10 -262h-66l-16 219q-146 96 -348 96q-288 0 -469 -184q-181 -181 -181 -471q0 -306 179 -488q180 -180 469 -180q263 0 428 148h8v-89q-176 -135 -451 -135q-37 0 -47 2l-33 -112h17 q96 0 154.5 -47.5t58.5 -132.5q0 -98 -62.5 -150.5t-169.5 -52.5q-103 0 -161 49v74h8q25 -23 70.5 -38.5t80.5 -15.5q156 0 156 129q0 57 -41 89t-121 32q-47 0 -82 -14l-6 4l62 193q-264 38 -433 227q-168 192 -168 500z" />
<glyph unicode="&#xc8;" horiz-adv-x="1214" d="M72 0v68h194v1275h-194v68h962l10 -262h-65l-14 194h-621v-575h590v-68h-590v-632h676l14 215h66l-10 -283h-1018zM293 1802v8h156l323 -266v-8h-102z" />
<glyph unicode="&#xc9;" horiz-adv-x="1214" d="M72 0v68h194v1275h-194v68h962l10 -262h-65l-14 194h-621v-575h590v-68h-590v-632h676l14 215h66l-10 -283h-1018zM479 1536v8l324 266h155v-8l-376 -266h-103z" />
<glyph unicode="&#xca;" horiz-adv-x="1214" d="M72 0v68h194v1275h-194v68h962l10 -262h-65l-14 194h-621v-575h590v-68h-590v-632h676l14 215h66l-10 -283h-1018zM297 1536v8l289 266h57l291 -266v-8h-103l-221 182l-213 -182h-100z" />
<glyph unicode="&#xcb;" horiz-adv-x="1214" d="M72 0v68h194v1275h-194v68h962l10 -262h-65l-14 194h-621v-575h590v-68h-590v-632h676l14 215h66l-10 -283h-1018zM393 1653q0 31 20 49t50 18q28 0 47.5 -18t19.5 -49q0 -30 -19.5 -49t-49.5 -19q-31 0 -49.5 18.5t-18.5 49.5zM758 1653q0 31 19.5 49t49.5 18 q28 0 48 -18t20 -49q0 -30 -20 -49t-50 -19q-31 0 -49 18.5t-18 49.5z" />
<glyph unicode="&#xcc;" horiz-adv-x="612" d="M-16 1802v8h155l324 -266v-8h-103zM72 0v68h194v1275h-194v68h469v-68h-197v-1275h197v-68h-469z" />
<glyph unicode="&#xcd;" horiz-adv-x="612" d="M72 0v68h194v1275h-194v68h469v-68h-197v-1275h197v-68h-469zM166 1536v8l323 266h156v-8l-377 -266h-102z" />
<glyph unicode="&#xce;" horiz-adv-x="612" d="M-10 1536v8l289 266h57l291 -266v-8h-103l-221 182l-213 -182h-100zM72 0v68h194v1275h-194v68h469v-68h-197v-1275h197v-68h-469z" />
<glyph unicode="&#xcf;" horiz-adv-x="612" d="M59 1653q0 31 20 49t50 18q28 0 48 -18t20 -49q0 -30 -20 -49t-50 -19q-31 0 -49.5 18.5t-18.5 49.5zM72 0v68h194v1275h-194v68h469v-68h-197v-1275h197v-68h-469zM424 1653q0 31 20 49t50 18q28 0 47.5 -18t19.5 -49q0 -30 -19.5 -49t-49.5 -19q-31 0 -49.5 18.5 t-18.5 49.5z" />
<glyph unicode="&#xd0;" horiz-adv-x="1531" d="M63 700v70h203v573h-194v68h532q245 0 393 -43q428 -126 428 -645q0 -514 -405 -664q-157 -59 -459 -59h-489v68h194v632h-203zM344 68h240q311 0 463 82q296 155 296 569q3 126 -30.5 235.5t-112 199.5t-194.5 134q-155 55 -390 55h-272v-573h490v-70h-490v-632z" />
<glyph unicode="&#xd1;" horiz-adv-x="1503" d="M72 0v68h194v1275h-194v68h278q730 -1072 854 -1272q-6 323 -6 1204h-203v68h469v-68h-188v-1343h-68q-807 1199 -866 1298q2 -147 2 -1230h197v-68h-469zM469 1552q10 97 58.5 150t119.5 53q68 0 160 -69q89 -68 137 -68q81 0 96 135h70q-4 -100 -53.5 -156.5 t-118.5 -56.5q-66 0 -176 78q-86 59 -121 59q-79 0 -100 -125h-72z" />
<glyph unicode="&#xd2;" horiz-adv-x="1656" d="M106 705q0 307 209 522q212 215 512 215q309 0 516 -213t207 -524q0 -309 -209 -521q-207 -213 -514 -213q-306 0 -514 211q-207 213 -207 523zM188 707q0 -279 187 -469q188 -191 452 -191q274 0 457 189q184 187 184 471q0 278 -184 471q-183 192 -457 192 q-266 0 -454 -194q-185 -194 -185 -469zM580 1802v8h155l324 -266v-8h-103z" />
<glyph unicode="&#xd3;" horiz-adv-x="1656" d="M106 705q0 307 209 522q212 215 512 215q309 0 516 -213t207 -524q0 -309 -209 -521q-207 -213 -514 -213q-306 0 -514 211q-207 213 -207 523zM188 707q0 -279 187 -469q188 -191 452 -191q274 0 457 189q184 187 184 471q0 278 -184 471q-183 192 -457 192 q-266 0 -454 -194q-185 -194 -185 -469zM662 1536v8l323 266h156v-8l-377 -266h-102z" />
<glyph unicode="&#xd4;" horiz-adv-x="1656" d="M106 705q0 307 209 522q212 215 512 215q309 0 516 -213t207 -524q0 -309 -209 -521q-207 -213 -514 -213q-306 0 -514 211q-207 213 -207 523zM188 707q0 -279 187 -469q188 -191 452 -191q274 0 457 189q184 187 184 471q0 278 -184 471q-183 192 -457 192 q-266 0 -454 -194q-185 -194 -185 -469zM520 1536v8l289 266h57l291 -266v-8h-102l-221 182l-213 -182h-101z" />
<glyph unicode="&#xd5;" horiz-adv-x="1656" d="M106 705q0 307 209 522q212 215 512 215q309 0 516 -213t207 -524q0 -309 -209 -521q-207 -213 -514 -213q-306 0 -514 211q-207 213 -207 523zM188 707q0 -279 187 -469q188 -191 452 -191q274 0 457 189q184 187 184 471q0 278 -184 471q-183 192 -457 192 q-266 0 -454 -194q-185 -194 -185 -469zM512 1552q10 97 58.5 150t119.5 53q68 0 160 -69q89 -68 137 -68q81 0 96 135h70q-4 -100 -53.5 -156.5t-118.5 -56.5q-66 0 -176 78q-86 59 -121 59q-79 0 -100 -125h-72z" />
<glyph unicode="&#xd6;" horiz-adv-x="1656" d="M106 705q0 307 209 522q212 215 512 215q309 0 516 -213t207 -524q0 -309 -209 -521q-207 -213 -514 -213q-306 0 -514 211q-207 213 -207 523zM188 707q0 -279 187 -469q188 -191 452 -191q274 0 457 189q184 187 184 471q0 278 -184 471q-183 192 -457 192 q-266 0 -454 -194q-185 -194 -185 -469zM582 1653q0 31 19.5 49t49.5 18q28 0 48 -18t20 -49q0 -30 -20 -49t-50 -19q-31 0 -49 18.5t-18 49.5zM946 1653q0 31 20 49t50 18q28 0 47.5 -18t19.5 -49q0 -30 -19.5 -49t-49.5 -19q-31 0 -49.5 18.5t-18.5 49.5z" />
<glyph unicode="&#xd7;" horiz-adv-x="1433" d="M291 233l371 371l-371 373l55 55l371 -370l373 372l55 -55l-373 -373l369 -368l-58 -58l-368 369l-369 -371z" />
<glyph unicode="&#xd8;" horiz-adv-x="1656" d="M106 705q0 307 209 522q212 215 512 215q195 0 361 -94l112 176h93l-142 -217q140 -100 219.5 -258.5t79.5 -343.5q0 -309 -209 -521q-207 -213 -514 -213q-201 0 -372 101l-105 -162h-86l129 203q-136 104 -211.5 257.5t-75.5 334.5zM188 707q0 -160 66 -297t184 -230 l709 1104q-148 86 -320 86q-266 0 -454 -194q-185 -194 -185 -469zM498 137q153 -90 329 -90q274 0 457 189q184 187 184 471q0 163 -68 303t-190 233z" />
<glyph unicode="&#xd9;" horiz-adv-x="1542" d="M49 1346v65h469v-65h-207v-730q0 -248 62 -372q44 -87 147.5 -142t255.5 -55q259 0 389 189q74 109 74 382v728h-215v65h469v-65h-176v-742q0 -280 -70 -393q-144 -240 -469 -240q-369 0 -489 256q-56 121 -56 371v748h-184zM459 1802v8h155l324 -266v-8h-102z" />
<glyph unicode="&#xda;" horiz-adv-x="1542" d="M49 1346v65h469v-65h-207v-730q0 -248 62 -372q44 -87 147.5 -142t255.5 -55q259 0 389 189q74 109 74 382v728h-215v65h469v-65h-176v-742q0 -280 -70 -393q-144 -240 -469 -240q-369 0 -489 256q-56 121 -56 371v748h-184zM653 1536v8l324 266h156v-8l-377 -266h-103z " />
<glyph unicode="&#xdb;" horiz-adv-x="1542" d="M49 1346v65h469v-65h-207v-730q0 -248 62 -372q44 -87 147.5 -142t255.5 -55q259 0 389 189q74 109 74 382v728h-215v65h469v-65h-176v-742q0 -280 -70 -393q-144 -240 -469 -240q-369 0 -489 256q-56 121 -56 371v748h-184zM453 1536v8l288 266h58l291 -266v-8h-103 l-221 182l-213 -182h-100z" />
<glyph unicode="&#xdc;" horiz-adv-x="1542" d="M49 1346v65h469v-65h-207v-730q0 -248 62 -372q44 -87 147.5 -142t255.5 -55q259 0 389 189q74 109 74 382v728h-215v65h469v-65h-176v-742q0 -280 -70 -393q-144 -240 -469 -240q-369 0 -489 256q-56 121 -56 371v748h-184zM514 1653q0 31 20 49t50 18q28 0 47.5 -18 t19.5 -49q0 -30 -19.5 -49t-49.5 -19q-31 0 -49.5 18.5t-18.5 49.5zM879 1653q0 31 19.5 49t49.5 18q28 0 48 -18t20 -49q0 -30 -20 -49t-50 -19q-31 0 -49 18.5t-18 49.5z" />
<glyph unicode="&#xdd;" horiz-adv-x="1468" d="M4 1346v65h469v-65h-190l448 -695q33 58 451 695h-187v65h469v-65h-182l-516 -777v-503h199v-66h-467v66h190v503l-504 777h-180zM627 1536v8l323 266h156v-8l-377 -266h-102z" />
<glyph unicode="&#xde;" horiz-adv-x="1288" d="M72 -55h512v-68h-512v68zM72 1466v68h491v-68h-491zM266 0v1411h78v-276h305q196 0 314 -41q105 -37 163 -130t58 -229q0 -297 -248 -385q-115 -41 -293 -41h-299v-309h-78zM344 383h285q222 0 311 47q162 82 162 303q0 209 -156 285q-87 43 -301 43h-301v-678z" />
<glyph unicode="&#xdf;" horiz-adv-x="1243" d="M53 0v63h191v916q0 261 67 362q114 175 344 175q78 0 142 -23t105 -60t69 -85.5t39.5 -96.5t11.5 -96q0 -300 -281 -395q171 -9 285 -111q115 -103 115 -274q0 -187 -100 -295.5t-283 -108.5q-173 0 -279 92v87h8q46 -49 120.5 -78t144.5 -29q146 0 228.5 82t82.5 248 q0 158 -123.5 250t-357.5 92h-45v67h43q161 0 262 107q102 108 102 248q0 122 -72 215q-71 92 -219 92q-199 0 -276 -133q-62 -106 -62 -324v-987h-262z" />
<glyph unicode="&#xe0;" horiz-adv-x="1126" d="M86 274q0 170 166 246q119 55 356 55q97 0 203 -16v100q0 135 -33 191q-65 115 -260 115q-87 0 -192 -45q-106 -43 -160 -115h-8v86q60 66 160 105.5t206 39.5q224 0 307 -129q52 -76 52 -250v-594h196v-63h-266v133q-61 -74 -154 -117t-198 -43q-168 0 -271.5 82.5 t-103.5 218.5zM162 276q0 -104 78 -167.5t227 -63.5q113 0 204.5 47t139.5 127v273q-102 18 -213 18q-192 0 -295 -41q-141 -59 -141 -193zM287 1520v8h133l268 -330v-8h-82z" />
<glyph unicode="&#xe1;" horiz-adv-x="1126" d="M86 274q0 170 166 246q119 55 356 55q97 0 203 -16v100q0 135 -33 191q-65 115 -260 115q-87 0 -192 -45q-106 -43 -160 -115h-8v86q60 66 160 105.5t206 39.5q224 0 307 -129q52 -76 52 -250v-594h196v-63h-266v133q-61 -74 -154 -117t-198 -43q-168 0 -271.5 82.5 t-103.5 218.5zM162 276q0 -104 78 -167.5t227 -63.5q113 0 204.5 47t139.5 127v273q-102 18 -213 18q-192 0 -295 -41q-141 -59 -141 -193zM412 1190v8l268 330h133v-8l-319 -330h-82z" />
<glyph unicode="&#xe2;" horiz-adv-x="1126" d="M86 274q0 170 166 246q119 55 356 55q97 0 203 -16v100q0 135 -33 191q-65 115 -260 115q-87 0 -192 -45q-106 -43 -160 -115h-8v86q60 66 160 105.5t206 39.5q224 0 307 -129q52 -76 52 -250v-594h196v-63h-266v133q-61 -74 -154 -117t-198 -43q-168 0 -271.5 82.5 t-103.5 218.5zM162 276q0 -104 78 -167.5t227 -63.5q113 0 204.5 47t139.5 127v273q-102 18 -213 18q-192 0 -295 -41q-141 -59 -141 -193zM231 1178v8l275 319h47l278 -319v-8h-83l-222 231l-213 -231h-82z" />
<glyph unicode="&#xe3;" horiz-adv-x="1126" d="M86 274q0 170 166 246q119 55 356 55q97 0 203 -16v100q0 135 -33 191q-65 115 -260 115q-87 0 -192 -45q-106 -43 -160 -115h-8v86q60 66 160 105.5t206 39.5q224 0 307 -129q52 -76 52 -250v-594h196v-63h-266v133q-61 -74 -154 -117t-198 -43q-168 0 -271.5 82.5 t-103.5 218.5zM162 276q0 -104 78 -167.5t227 -63.5q113 0 204.5 47t139.5 127v273q-102 18 -213 18q-192 0 -295 -41q-141 -59 -141 -193zM231 1247q10 96 55.5 147.5t114.5 51.5q39 0 66 -13t86 -57q86 -65 127 -65q42 0 62.5 30t27.5 103h66q-4 -100 -49.5 -154.5 t-110.5 -54.5q-41 0 -73.5 15t-94.5 61q-77 59 -115 59q-75 0 -96 -123h-66z" />
<glyph unicode="&#xe4;" horiz-adv-x="1126" d="M86 274q0 170 166 246q119 55 356 55q97 0 203 -16v100q0 135 -33 191q-65 115 -260 115q-87 0 -192 -45q-106 -43 -160 -115h-8v86q60 66 160 105.5t206 39.5q224 0 307 -129q52 -76 52 -250v-594h196v-63h-266v133q-61 -74 -154 -117t-198 -43q-168 0 -271.5 82.5 t-103.5 218.5zM162 276q0 -104 78 -167.5t227 -63.5q113 0 204.5 47t139.5 127v273q-102 18 -213 18q-192 0 -295 -41q-141 -59 -141 -193zM285 1346q0 31 19.5 49t49.5 18q28 0 48 -18t20 -49q0 -30 -20 -49t-50 -19q-31 0 -49 18.5t-18 49.5zM639 1346q0 31 20 49t50 18 q28 0 47.5 -18t19.5 -49q0 -30 -19.5 -49t-49.5 -19q-31 0 -49.5 18.5t-18.5 49.5z" />
<glyph unicode="&#xe5;" horiz-adv-x="1126" d="M86 274q0 170 166 246q119 55 356 55q97 0 203 -16v100q0 135 -33 191q-65 115 -260 115q-87 0 -192 -45q-106 -43 -160 -115h-8v86q60 66 160 105.5t206 39.5q224 0 307 -129q52 -76 52 -250v-594h196v-63h-266v133q-61 -74 -154 -117t-198 -43q-168 0 -271.5 82.5 t-103.5 218.5zM162 276q0 -104 78 -167.5t227 -63.5q113 0 204.5 47t139.5 127v273q-102 18 -213 18q-192 0 -295 -41q-141 -59 -141 -193zM340 1370q0 90 60 147.5t153 57.5q92 0 149.5 -57t57.5 -148q0 -86 -61.5 -145.5t-149.5 -59.5q-90 0 -149.5 58.5t-59.5 146.5z M399 1370q0 -65 42 -107t112 -42q65 0 105 43.5t40 107.5q0 66 -42 108t-109 42q-66 0 -107 -43t-41 -109z" />
<glyph unicode="&#xe6;" horiz-adv-x="1847" d="M86 276q0 163 168 242q115 53 352 53q107 0 213 -16v96q0 131 -37 195q-64 119 -252 119q-89 0 -204 -47q-110 -46 -160 -111h-8v82q57 63 165 105t214 42q302 0 348 -243q59 116 170.5 179.5t244.5 63.5q217 0 339.5 -118.5t123.5 -339.5q0 -46 -6 -86h-862 q5 -209 126 -329t345 -120q227 0 371 156h8v-84q-62 -62 -169 -103t-214 -41q-315 0 -457 207q-175 -205 -440 -205q-168 0 -273.5 83.5t-105.5 219.5zM162 279q0 -104 79.5 -169t227.5 -65q118 0 227 55.5t174 139.5q-48 99 -51 247q-108 19 -215 19q-201 0 -299 -39 q-143 -58 -143 -188zM895 559h791v21q0 178 -100 281.5t-290 103.5q-159 0 -276 -105q-116 -101 -125 -301z" />
<glyph unicode="&#xe7;" horiz-adv-x="1095" d="M100 498q0 242 156 389q155 149 389 149q204 0 328 -112v-238h-70l-8 203q-107 76 -256 76q-187 0 -326 -121q-137 -119 -137 -340q0 -97 28.5 -177t74.5 -131.5t106.5 -87t122 -50.5t123.5 -15q195 0 340 133h8v-82q-58 -58 -155 -89.5t-201 -31.5h-23l-33 -108h17 q93 0 151 -47.5t58 -126.5q0 -96 -62 -146.5t-168 -50.5q-96 0 -155 47v74h8q51 -51 147 -51q154 0 154 123q0 52 -40.5 84t-119.5 32q-45 0 -80 -12l-6 4l59 187q-187 30 -309 170q-121 142 -121 346z" />
<glyph unicode="&#xe8;" horiz-adv-x="1132" d="M100 498q0 125 43.5 230.5t114.5 172.5t160 103t182 32q208 0 325 -122t117 -341q0 -57 -6 -92h-860q3 -188 127 -315q126 -123 338 -123q102 0 201.5 36.5t165.5 102.5h8v-82q-57 -54 -166 -92q-110 -35 -213 -35q-245 0 -391 146t-146 379zM176 549h791v26 q0 185 -94.5 287.5t-286.5 102.5q-149 0 -275 -111q-126 -108 -135 -305zM336 1520v8h133l268 -330v-8h-82z" />
<glyph unicode="&#xe9;" horiz-adv-x="1132" d="M100 498q0 125 43.5 230.5t114.5 172.5t160 103t182 32q208 0 325 -122t117 -341q0 -57 -6 -92h-860q3 -188 127 -315q126 -123 338 -123q102 0 201.5 36.5t165.5 102.5h8v-82q-57 -54 -166 -92q-110 -35 -213 -35q-245 0 -391 146t-146 379zM176 549h791v26 q0 185 -94.5 287.5t-286.5 102.5q-149 0 -275 -111q-126 -108 -135 -305zM514 1190v8l268 330h133v-8l-319 -330h-82z" />
<glyph unicode="&#xea;" horiz-adv-x="1132" d="M100 498q0 125 43.5 230.5t114.5 172.5t160 103t182 32q208 0 325 -122t117 -341q0 -57 -6 -92h-860q3 -188 127 -315q126 -123 338 -123q102 0 201.5 36.5t165.5 102.5h8v-82q-57 -54 -166 -92q-110 -35 -213 -35q-245 0 -391 146t-146 379zM176 549h791v26 q0 185 -94.5 287.5t-286.5 102.5q-149 0 -275 -111q-126 -108 -135 -305zM324 1178v8l274 319h47l279 -319v-8h-84l-222 231l-212 -231h-82z" />
<glyph unicode="&#xeb;" horiz-adv-x="1132" d="M100 498q0 125 43.5 230.5t114.5 172.5t160 103t182 32q208 0 325 -122t117 -341q0 -57 -6 -92h-860q3 -188 127 -315q126 -123 338 -123q102 0 201.5 36.5t165.5 102.5h8v-82q-57 -54 -166 -92q-110 -35 -213 -35q-245 0 -391 146t-146 379zM176 549h791v26 q0 185 -94.5 287.5t-286.5 102.5q-149 0 -275 -111q-126 -108 -135 -305zM369 1346q0 31 19.5 49t49.5 18q28 0 48 -18t20 -49q0 -30 -20 -49t-50 -19q-31 0 -49 18.5t-18 49.5zM723 1346q0 31 20 49t50 18q28 0 47.5 -18t19.5 -49q0 -30 -19.5 -49t-49.5 -19 q-31 0 -49.5 18.5t-18.5 49.5z" />
<glyph unicode="&#xec;" horiz-adv-x="581" d="M-33 1520v8h133l269 -330v-8h-82zM70 0v63h190v879h-190v64h262v-943h203v-63h-465z" />
<glyph unicode="&#xed;" horiz-adv-x="581" d="M70 0v63h190v879h-190v64h262v-943h203v-63h-465zM131 1190v8l268 330h133v-8l-319 -330h-82z" />
<glyph unicode="&#xee;" horiz-adv-x="581" d="M-35 1178v8l275 319h47l278 -319v-8h-84l-221 231l-213 -231h-82zM70 0v63h190v879h-190v64h262v-943h203v-63h-465z" />
<glyph unicode="&#xef;" horiz-adv-x="581" d="M33 1346q0 31 19.5 49t49.5 18q28 0 48 -18t20 -49q0 -30 -20 -49t-50 -19q-31 0 -49 18.5t-18 49.5zM70 0v63h190v879h-190v64h262v-943h203v-63h-465zM387 1346q0 31 20 49t50 18q28 0 47.5 -18t19.5 -49q0 -30 -19.5 -49t-49.5 -19q-31 0 -49.5 18.5t-18.5 49.5z" />
<glyph unicode="&#xf0;" horiz-adv-x="1255" d="M100 510q0 165 84 287q81 118 197 174.5t252 56.5q151 0 258.5 -57.5t163.5 -157.5q-15 108 -74.5 230.5t-157.5 220.5l-262 -154v76l211 123q-128 104 -305 151l22 62q211 -60 351 -174l215 125v-76l-164 -97q260 -254 260 -743q0 -291 -150 -438q-149 -146 -370 -146 q-216 0 -373 136q-158 137 -158 401zM176 512q0 -235 129 -352q132 -117 320 -117q189 0 317 119q129 120 129 354q0 222 -129 330q-128 110 -319 110q-181 0 -314 -118q-133 -121 -133 -326z" />
<glyph unicode="&#xf1;" horiz-adv-x="1331" d="M70 0v63h190v879h-190v64h262v-183q59 96 162.5 151.5t238.5 55.5t222 -57.5t112 -161.5q20 -79 20 -231v-517h197v-63h-469v63h201v515q0 180 -41 251q-71 129 -258 129q-123 0 -232 -69q-104 -65 -153 -164v-662h203v-63h-465zM344 1247q10 96 55.5 147.5t114.5 51.5 q37 0 65.5 -13.5t86.5 -56.5q86 -65 127 -65q42 0 62.5 30t27.5 103h65q-4 -100 -49.5 -154.5t-110.5 -54.5q-41 0 -72.5 15t-94.5 61q-77 59 -115 59q-75 0 -96 -123h-66z" />
<glyph unicode="&#xf2;" horiz-adv-x="1249" d="M100 504q0 220 154 377q155 155 375 155q222 0 370 -151q150 -150 150 -381q0 -219 -152 -377q-151 -154 -372 -154q-222 0 -373 154q-152 158 -152 377zM176 504q0 -193 129 -328q130 -133 320 -133q192 0 319 133q129 132 129 328q0 195 -129 327q-131 134 -319 134 q-185 0 -318 -136q-131 -131 -131 -325zM377 1520v8h133l268 -330v-8h-82z" />
<glyph unicode="&#xf3;" horiz-adv-x="1249" d="M100 504q0 220 154 377q155 155 375 155q222 0 370 -151q150 -150 150 -381q0 -219 -152 -377q-151 -154 -372 -154q-222 0 -373 154q-152 158 -152 377zM176 504q0 -193 129 -328q130 -133 320 -133q192 0 319 133q129 132 129 328q0 195 -129 327q-131 134 -319 134 q-185 0 -318 -136q-131 -131 -131 -325zM506 1190v8l268 330h133v-8l-319 -330h-82z" />
<glyph unicode="&#xf4;" horiz-adv-x="1249" d="M100 504q0 220 154 377q155 155 375 155q222 0 370 -151q150 -150 150 -381q0 -219 -152 -377q-151 -154 -372 -154q-222 0 -373 154q-152 158 -152 377zM176 504q0 -193 129 -328q130 -133 320 -133q192 0 319 133q129 132 129 328q0 195 -129 327q-131 134 -319 134 q-185 0 -318 -136q-131 -131 -131 -325zM334 1178v8l274 319h47l279 -319v-8h-84l-221 231l-213 -231h-82z" />
<glyph unicode="&#xf5;" horiz-adv-x="1249" d="M100 504q0 220 154 377q155 155 375 155q222 0 370 -151q150 -150 150 -381q0 -219 -152 -377q-151 -154 -372 -154q-222 0 -373 154q-152 158 -152 377zM176 504q0 -193 129 -328q130 -133 320 -133q192 0 319 133q129 132 129 328q0 195 -129 327q-131 134 -319 134 q-185 0 -318 -136q-131 -131 -131 -325zM330 1247q10 96 55.5 147.5t114.5 51.5q39 0 65 -13t86 -57q86 -65 127 -65q42 0 62.5 30t27.5 103h66q-4 -100 -49.5 -154.5t-110.5 -54.5q-41 0 -73.5 15t-94.5 61q-77 59 -114 59q-76 0 -97 -123h-65z" />
<glyph unicode="&#xf6;" horiz-adv-x="1249" d="M100 504q0 220 154 377q155 155 375 155q222 0 370 -151q150 -150 150 -381q0 -219 -152 -377q-151 -154 -372 -154q-222 0 -373 154q-152 158 -152 377zM176 504q0 -193 129 -328q130 -133 320 -133q192 0 319 133q129 132 129 328q0 195 -129 327q-131 134 -319 134 q-185 0 -318 -136q-131 -131 -131 -325zM393 1346q0 31 20 49t50 18q28 0 47.5 -18t19.5 -49q0 -30 -19.5 -49t-49.5 -19q-31 0 -49.5 18.5t-18.5 49.5zM748 1346q0 31 19.5 49t49.5 18q28 0 48 -18t20 -49q0 -30 -20 -49t-50 -19q-31 0 -49 18.5t-18 49.5z" />
<glyph unicode="&#xf7;" horiz-adv-x="1433" d="M184 567v76h1065v-76h-1065zM651 276q0 32 20.5 50.5t45 19t45 -18t20.5 -51.5q0 -30 -19.5 -47.5t-47.5 -17.5q-26 0 -45 18t-19 47zM651 918q0 47 41.5 62.5t69.5 -11.5q20 -14 20 -51q0 -34 -18 -51t-49 -17q-27 0 -45.5 17.5t-18.5 50.5z" />
<glyph unicode="&#xf8;" horiz-adv-x="1249" d="M100 504q0 220 154 377q155 155 375 155q142 0 256 -63l92 145h76l-115 -180q99 -73 155 -186.5t56 -247.5q0 -219 -152 -377q-151 -154 -372 -154q-142 0 -263 68l-94 -145h-75l116 180q-99 74 -154 186t-55 242zM176 504q0 -232 172 -367l494 770q-98 58 -217 58 q-185 0 -318 -136q-131 -131 -131 -325zM399 100q99 -57 226 -57q192 0 319 133q129 132 129 328q0 111 -47.5 208.5t-130.5 159.5z" />
<glyph unicode="&#xf9;" horiz-adv-x="1292" d="M23 942v64h262v-584q0 -177 41 -248q71 -127 268 -127q118 0 221 68q105 71 152 166v661h-205v64h276v-943h179v-63h-246v184q-58 -95 -160.5 -152t-237.5 -57t-225 58.5t-115 159.5q-20 79 -20 227v522h-190zM315 1520v8h134l268 -330v-8h-82z" />
<glyph unicode="&#xfa;" horiz-adv-x="1292" d="M23 942v64h262v-584q0 -177 41 -248q71 -127 268 -127q118 0 221 68q105 71 152 166v661h-205v64h276v-943h179v-63h-246v184q-58 -95 -160.5 -152t-237.5 -57t-225 58.5t-115 159.5q-20 79 -20 227v522h-190zM485 1190v8l269 330h133v-8l-320 -330h-82z" />
<glyph unicode="&#xfb;" horiz-adv-x="1292" d="M23 942v64h262v-584q0 -177 41 -248q71 -127 268 -127q118 0 221 68q105 71 152 166v661h-205v64h276v-943h179v-63h-246v184q-58 -95 -160.5 -152t-237.5 -57t-225 58.5t-115 159.5q-20 79 -20 227v522h-190zM305 1178v8l275 319h47l278 -319v-8h-84l-221 231l-213 -231 h-82z" />
<glyph unicode="&#xfc;" horiz-adv-x="1292" d="M23 942v64h262v-584q0 -177 41 -248q71 -127 268 -127q118 0 221 68q105 71 152 166v661h-205v64h276v-943h179v-63h-246v184q-58 -95 -160.5 -152t-237.5 -57t-225 58.5t-115 159.5q-20 79 -20 227v522h-190zM356 1346q0 31 20 49t50 18q28 0 48 -18t20 -49 q0 -30 -20 -49t-50 -19q-31 0 -49.5 18.5t-18.5 49.5zM711 1346q0 31 19.5 49t49.5 18q28 0 48 -18t20 -49q0 -30 -20 -49t-50 -19q-31 0 -49 18.5t-18 49.5z" />
<glyph unicode="&#xfd;" horiz-adv-x="1173" d="M6 942v64h424v-64h-199q285 -649 363 -844l352 844h-201v64h424v-64h-141l-407 -942q-109 -244 -142 -301q-77 -129 -219 -129q-87 0 -145 37v80h8q48 -45 141 -45q101 0 164 106q23 41 76 160l49 117l-406 917h-141zM506 1190v8l268 330h133v-8l-319 -330h-82z" />
<glyph unicode="&#xfe;" horiz-adv-x="1347" d="M29 1427v64h268v-713q55 119 174 187q127 71 270 71q125 0 238 -55q118 -58 193 -183t75 -286q0 -245 -153 -389q-149 -143 -367 -143q-138 0 -254 60t-176 163v-537h242v-63h-506v63h192v1761h-196zM297 342q47 -140 168 -215q122 -76 268 -76q183 0 309 123 q127 124 127 338q0 147 -71 256q-129 197 -363 197q-149 0 -269 -83.5t-169 -228.5v-311z" />
<glyph unicode="&#xff;" horiz-adv-x="1173" d="M6 942v64h424v-64h-199q285 -649 363 -844l352 844h-201v64h424v-64h-141l-407 -942q-109 -244 -142 -301q-77 -129 -219 -129q-87 0 -145 37v80h8q48 -45 141 -45q101 0 164 106q23 41 76 160l49 117l-406 917h-141zM340 1346q0 31 20 49t50 18q28 0 47.5 -18t19.5 -49 q0 -30 -19.5 -49t-49.5 -19q-31 0 -49.5 18.5t-18.5 49.5zM694 1346q0 31 20 49t50 18q28 0 47.5 -18t19.5 -49q0 -30 -19.5 -49t-49.5 -19q-31 0 -49.5 18.5t-18.5 49.5z" />
<glyph unicode="&#x152;" horiz-adv-x="2359" d="M100 711q0 173 62.5 318t169.5 233q106 88 232.5 135t256.5 47q201 0 356.5 -85t233.5 -249v301h768l8 -262h-65l-13 194h-620v-575h590v-68h-590v-632h676l14 215h66l-11 -283h-823v324q-76 -174 -234 -263.5t-362 -89.5q-271 0 -483 170q-107 89 -169.5 236.5 t-62.5 333.5zM184 717q0 -168 54.5 -302t148.5 -214q193 -154 430 -154q207 0 367.5 110.5t226.5 313.5v485q-67 201 -223 307.5t-373 106.5q-94 0 -184.5 -25t-172 -78.5t-142.5 -129t-97 -184t-35 -236.5z" />
<glyph unicode="&#x153;" horiz-adv-x="2074" d="M82 506q0 253 156 391q157 139 366 139q173 0 299.5 -77t175.5 -230q53 152 165.5 229.5t268.5 77.5q216 0 336 -119.5t121 -343.5q0 -51 -6 -92h-848q5 -203 123 -320.5t340 -117.5q102 0 201.5 41t165.5 115h8v-84q-62 -62 -168.5 -103t-210.5 -41q-380 0 -498 312 q-54 -152 -178.5 -232t-292.5 -80q-78 0 -151.5 18t-142 59.5t-119 102.5t-81 152t-30.5 203zM158 510q0 -234 131 -350q132 -117 315 -117q188 0 314 117q126 120 126 352q0 226 -126 340q-125 113 -318 113q-182 0 -313 -119q-129 -117 -129 -336zM1116 549h778v26 q0 182 -97.5 286t-287.5 104q-155 0 -270 -109q-114 -108 -123 -307z" />
<glyph unicode="&#x178;" horiz-adv-x="1468" d="M4 1346v65h469v-65h-190l448 -695q33 58 451 695h-187v65h469v-65h-182l-516 -777v-503h199v-66h-467v66h190v503l-504 777h-180zM496 1653q0 31 19.5 49t49.5 18q28 0 48 -18t20 -49q0 -30 -20 -49t-50 -19q-31 0 -49 18.5t-18 49.5zM860 1653q0 31 20 49t50 18 q28 0 47.5 -18t19.5 -49q0 -30 -19.5 -49t-49.5 -19q-31 0 -49.5 18.5t-18.5 49.5z" />
<glyph unicode="&#x2c6;" horiz-adv-x="430" d="M-84 1178v8l274 319h48l278 -319v-8h-84l-221 231l-213 -231h-82z" />
<glyph unicode="&#x2dc;" horiz-adv-x="430" d="M-86 1247q10 96 55.5 147.5t114.5 51.5q37 0 65.5 -13.5t86.5 -56.5q86 -65 126 -65q42 0 63 30t28 103h65q-4 -100 -49.5 -154.5t-110.5 -54.5q-41 0 -73.5 15t-94.5 61q-77 59 -114 59q-75 0 -96 -123h-66z" />
<glyph unicode="&#x2000;" horiz-adv-x="937" />
<glyph unicode="&#x2001;" horiz-adv-x="1874" />
<glyph unicode="&#x2002;" horiz-adv-x="937" />
<glyph unicode="&#x2003;" horiz-adv-x="1874" />
<glyph unicode="&#x2004;" horiz-adv-x="624" />
<glyph unicode="&#x2005;" horiz-adv-x="468" />
<glyph unicode="&#x2006;" horiz-adv-x="312" />
<glyph unicode="&#x2007;" horiz-adv-x="312" />
<glyph unicode="&#x2008;" horiz-adv-x="234" />
<glyph unicode="&#x2009;" horiz-adv-x="374" />
<glyph unicode="&#x200a;" horiz-adv-x="104" />
<glyph unicode="&#x2010;" horiz-adv-x="651" d="M84 516v76h485v-76h-485z" />
<glyph unicode="&#x2011;" horiz-adv-x="651" d="M84 516v76h485v-76h-485z" />
<glyph unicode="&#x2012;" horiz-adv-x="651" d="M84 516v76h485v-76h-485z" />
<glyph unicode="&#x2013;" horiz-adv-x="1105" d="M84 518v72h938v-72h-938z" />
<glyph unicode="&#x2014;" horiz-adv-x="1718" d="M84 518v72h1550v-72h-1550z" />
<glyph unicode="&#x2018;" horiz-adv-x="380" d="M111 1104q0 232 180 369h82v-9q-78 -62 -127 -157t-49 -197q0 -80 34 -158h-88q-32 60 -32 152z" />
<glyph unicode="&#x2019;" horiz-adv-x="380" d="M8 952v9q78 62 127 157t49 197q0 80 -34 158h88q32 -60 32 -152q0 -232 -180 -369h-82z" />
<glyph unicode="&#x201a;" horiz-adv-x="382" d="M8 -279q78 62 127 157.5t49 197.5q0 79 -34 157h88q32 -60 32 -151q0 -232 -180 -369h-82v8z" />
<glyph unicode="&#x201c;" horiz-adv-x="669" d="M111 1104q0 232 180 369h82v-9q-78 -62 -127 -157t-49 -197q0 -80 34 -158h-88q-32 60 -32 152zM399 1104q0 231 181 369h82v-9q-78 -63 -127.5 -157.5t-49.5 -196.5q0 -77 35 -158h-88q-33 62 -33 152z" />
<glyph unicode="&#x201d;" horiz-adv-x="669" d="M8 952v9q78 62 127 157t49 197q0 80 -34 158h88q32 -60 32 -152q0 -232 -180 -369h-82zM297 952v9q78 62 127 157t49 197q0 77 -35 158h88q33 -62 33 -152q0 -232 -180 -369h-82z" />
<glyph unicode="&#x201e;" horiz-adv-x="669" d="M8 -279q78 62 127 157.5t49 197.5q0 79 -34 157h88q32 -60 32 -151q0 -232 -180 -369h-82v8zM297 -279q78 62 127 157.5t49 197.5q0 76 -35 157h88q33 -62 33 -151q0 -232 -180 -369h-82v8z" />
<glyph unicode="&#x2022;" horiz-adv-x="651" d="M121 520q0 99 60 156t145 57q86 0 145 -56.5t59 -156.5q0 -90 -58 -148.5t-146 -58.5q-89 0 -147 57t-58 150z" />
<glyph unicode="&#x2026;" horiz-adv-x="1800" d="M242 55q0 35 21 55.5t54 20.5q32 0 53 -20t21 -56q4 -46 -35.5 -64.5t-79 1t-34.5 63.5zM825 55q0 35 21.5 55.5t54.5 20.5q32 0 53 -20t21 -56q4 -46 -36 -64.5t-79.5 1t-34.5 63.5zM1409 55q0 35 21.5 55.5t54.5 20.5q32 0 53 -20t21 -56q4 -46 -36 -64.5t-79.5 1 t-34.5 63.5z" />
<glyph unicode="&#x202f;" horiz-adv-x="374" />
<glyph unicode="&#x2039;" horiz-adv-x="497" d="M55 516l283 377h94l-278 -377l280 -377h-94z" />
<glyph unicode="&#x203a;" horiz-adv-x="497" d="M63 893h95l284 -377l-282 -377h-94l278 377z" />
<glyph unicode="&#x205f;" horiz-adv-x="468" />
<glyph unicode="&#x20ac;" horiz-adv-x="1370" d="M119 508v61h166q-4 98 -4 115q0 70 2 88h-164v62h172q37 267 201 411q169 146 407 146q225 0 344 -107l10 -262h-65l-14 217q-122 78 -277 78q-203 0 -348 -115q-146 -115 -180 -368h624v-62h-631q-2 -18 -2 -82q0 -14 1 -32t2 -44.5t2 -44.5h628v-61h-620 q71 -461 524 -461q205 0 360 143h9v-86q-61 -58 -169.5 -95.5t-217.5 -37.5q-246 0 -397 138.5t-189 398.5h-174z" />
<glyph unicode="&#x2122;" horiz-adv-x="1794" d="M90 1200v211h596v-211h-61l-7 158h-196v-631h117v-53h-310v53h119v631h-190l-6 -158h-62zM784 674v53h113v631h-113v53h215l256 -524q54 131 236 524h217v-53h-109v-631h109v-53h-299v53h115q0 553 2 608q-17 -44 -246 -532h-55q-163 330 -187 373q-36 68 -73 157 q6 -150 6 -606h104v-53h-291z" />
<glyph unicode="&#x25fc;" horiz-adv-x="1003" d="M0 0v1004h1004v-1004h-1004z" />
</font>
</defs>
</svg>
