<?xml version="1.0" standalone="no"?>
<!DOCTYPE svg PUBLIC "-//W3C//DTD SVG 1.1//EN" "http://www.w3.org/Graphics/SVG/1.1/DTD/svg11.dtd" >
<svg xmlns="http://www.w3.org/2000/svg">
<metadata></metadata>
<defs>
<font id="equip_slablight_italic" horiz-adv-x="1212" >
<font-face units-per-em="2048" ascent="1536" descent="-512" />
<missing-glyph horiz-adv-x="444" />
<glyph unicode="&#xfb01;" horiz-adv-x="1263" d="M41 -356l258 1226h-166l27 134h164l30 139q47 207 144 287q103 86 262 86q50 0 105.5 -15.5t80.5 -36.5l-28 -133h-9q-57 51 -168 51q-100 0 -159 -59q-45 -45 -80 -186l-31 -133h672l-156 -693q-18 -77 -18 -114q0 -80 82 -80q71 0 127 33l6 -3l-29 -131 q-71 -32 -149 -32q-89 0 -141 39t-52 116q0 45 18 125l134 606h-521l-260 -1226h-143zM1006 1327q0 54 31.5 89.5t82.5 35.5q39 0 65.5 -24.5t26.5 -67.5q0 -56 -29.5 -90.5t-82.5 -34.5q-40 0 -67 25t-27 67z" />
<glyph unicode="&#xfb02;" horiz-adv-x="1263" d="M41 -356l258 1226h-166l27 134h164l18 86q47 220 168 317q131 104 369 104q110 0 207 -23.5t149 -55.5l-238 -1123q-18 -76 -18 -112q0 -42 19 -61t63 -19q83 0 125 33l6 -3l-27 -131q-71 -32 -149 -32q-90 0 -142.5 39t-52.5 116q0 38 19 125l231 1086q-86 30 -231 30 q-159 0 -242 -77q-80 -71 -115 -238l-12 -61h313l-28 -134h-312l-260 -1226h-143z" />
<glyph unicode="&#xfb03;" horiz-adv-x="1937" d="M41 -356l258 1226h-166l27 134h164l22 98q46 198 141 284q103 89 269 89q51 0 106 -16.5t80 -39.5l-29 -131h-8q-56 53 -168 53q-105 0 -166 -61q-44 -46 -79 -188l-21 -88h526l31 135q47 202 143 288q103 89 267 89q54 0 108.5 -16.5t79.5 -39.5l-29 -131h-8 q-59 53 -170 53q-108 0 -166 -61q-42 -45 -77 -188l-31 -129h672l-156 -691q-19 -81 -19 -114q0 -80 82 -80q71 0 127 33l7 -2l-29 -132q-71 -32 -150 -32q-192 0 -192 155q0 50 16 125l135 604h-520l-250 -1185h-145l250 1185h-529l-260 -1226h-143zM1677 1327q0 55 32 90 t85 35q39 0 65.5 -24.5t26.5 -67.5q0 -56 -29.5 -90.5t-82.5 -34.5q-42 0 -69.5 25t-27.5 67z" />
<glyph unicode="&#xfb04;" horiz-adv-x="1937" d="M41 -356l258 1226h-166l27 134h164l22 98q46 198 141 284q103 89 269 89q51 0 106 -16.5t80 -39.5l-29 -131h-8q-56 53 -168 53q-105 0 -166 -61q-44 -46 -79 -188l-21 -88h526l19 86q47 221 168 317q131 104 366 104q228 0 359 -79l-238 -1121q-18 -76 -18 -112 q0 -42 19 -61t63 -19q81 0 125 33l6 -2l-27 -132q-71 -32 -149 -32q-195 0 -195 155q0 43 18 125l230 1084q-82 30 -232 30q-156 0 -239 -77q-80 -71 -115 -238l-12 -61h313l-28 -134h-312l-250 -1185h-145l250 1185h-529l-260 -1226h-143z" />
<glyph horiz-adv-x="0" />
<glyph horiz-adv-x="682" />
<glyph unicode=" "  horiz-adv-x="444" />
<glyph unicode="&#x09;" horiz-adv-x="444" />
<glyph unicode="&#xa0;" horiz-adv-x="444" />
<glyph unicode="!" horiz-adv-x="589" d="M139 76q0 58 34 94.5t89 36.5q43 0 73 -27.5t30 -73.5q0 -58 -31.5 -93.5t-89.5 -35.5q-45 0 -75 26.5t-30 72.5zM246 432l180 979h176l-235 -979h-121z" />
<glyph unicode="&#x22;" horiz-adv-x="722" d="M227 872l84 572h166l-160 -572h-90zM567 872l84 572h164l-160 -572h-88z" />
<glyph unicode="#" horiz-adv-x="1249" d="M98 436l17 127h274l68 256h-262l16 127h278l119 447h107l-119 -447h278l117 447h107l-119 -447h250l-17 -127h-266l-67 -256h254l-17 -127h-270l-123 -465h-105l121 465h-276l-123 -465h-107l123 465h-258zM496 563h276l68 256h-277z" />
<glyph unicode="$" horiz-adv-x="1130" d="M51 145l51 261h115l-27 -177q105 -68 259 -90l102 473l-94 50q-224 116 -224 305q0 185 132 290t346 111l45 205h92l-45 -209q96 -10 183.5 -43t123.5 -70l-47 -254h-119l23 168q-94 49 -195 58l-104 -492l82 -41q139 -72 197.5 -144t58.5 -171q0 -185 -132.5 -287 t-367.5 -104l-45 -213h-90l47 219q-105 15 -215 59q-106 44 -152 96zM391 993q0 -127 180 -215l13 -6l98 455q-291 -15 -291 -234zM539 135q307 3 307 217q0 59 -47.5 107t-165.5 112z" />
<glyph unicode="%" horiz-adv-x="1746" d="M143 803q0 127 40.5 249t117.5 205q111 123 266 123q131 0 202 -79t71 -216q0 -110 -39 -237q-38 -132 -109 -219q-108 -129 -274 -129q-132 0 -203.5 81t-71.5 222zM270 815q0 -94 39 -150.5t125 -56.5q106 0 172 90q49 71 78 181q31 118 31 194q0 201 -162 201 q-99 0 -172 -94q-52 -64 -82 -172q-29 -116 -29 -193zM416 -25l895 1422h108l-893 -1422h-110zM989 285q0 127 40.5 249t117.5 205q111 123 264 123q133 0 204 -79t71 -216q0 -110 -39 -237q-37 -130 -111 -219q-108 -129 -272 -129q-132 0 -203.5 81t-71.5 222zM1116 297 q0 -207 164 -207q106 0 172 90q50 72 78 180q31 118 31 195q0 201 -162 201q-99 0 -172 -94q-52 -63 -82 -173q-29 -116 -29 -192z" />
<glyph unicode="&#x26;" horiz-adv-x="1525" d="M104 365q0 292 342 413q-71 109 -71 234q0 158 112 264q114 108 328 108q188 0 281 -96l-29 -151h-8q-95 108 -268 108q-124 0 -193.5 -59.5t-69.5 -165.5q0 -94 72 -201q127 -181 424 -495q99 108 117 305h-148l29 137h444l-28 -137h-148q-12 -129 -59 -238.5 t-113 -175.5q5 -5 22.5 -23t32 -33t23.5 -22h203l-27 -137h-242q-75 66 -114 109q-182 -138 -441 -138q-209 0 -342 115q-129 117 -129 279zM268 389q0 -113 92 -196q94 -82 244 -82q189 0 311 98q-210 213 -403 463q-244 -83 -244 -283z" />
<glyph unicode="'" horiz-adv-x="385" d="M229 872l84 572h166l-160 -572h-90z" />
<glyph unicode="(" horiz-adv-x="735" d="M113 412q0 359 188 645t520 459h154v-9q-711 -419 -711 -1085q0 -222 84.5 -419t233.5 -341v-8h-125q-145 117 -244 317q-100 199 -100 441z" />
<glyph unicode=")" horiz-adv-x="735" d="M-219 -338q711 419 711 1086q0 222 -84.5 418.5t-233.5 340.5v9h125q141 -114 242 -318q102 -202 102 -440q0 -361 -188 -647q-186 -283 -521 -457h-153v8z" />
<glyph unicode="*" horiz-adv-x="854" d="M207 1180l57 110q164 -85 271 -153q7 144 26 311l123 -16q-13 -86 -63 -312q210 57 305 72l20 -123q-168 -24 -315 -37q93 -132 164 -266l-109 -59q-30 52 -133 286q-125 -157 -205 -237l-90 84q95 95 236 215q-179 70 -287 125z" />
<glyph unicode="+" horiz-adv-x="1433" d="M201 547l24 115h475l111 473h115l-109 -473h473l-22 -115h-477l-111 -475h-115l111 475h-475z" />
<glyph unicode="," horiz-adv-x="419" d="M-172 -317q105 77 172.5 192t67.5 242q0 62 -21 127h164q18 -47 18 -119q0 -141 -72 -257t-192 -194h-137v9z" />
<glyph unicode="-" horiz-adv-x="655" d="M82 489l29 138h493l-29 -138h-493z" />
<glyph unicode="." horiz-adv-x="423" d="M18 76q0 57 35 94t90 37q43 0 73 -27.5t30 -73.5q0 -57 -31.5 -93t-87.5 -36q-46 0 -77.5 26.5t-31.5 72.5z" />
<glyph unicode="/" horiz-adv-x="782" d="M-100 -117l944 1614h131l-946 -1614h-129z" />
<glyph unicode="0" horiz-adv-x="1165" d="M92 455q0 182 60 387q58 197 174 338q178 211 413 211q199 0 302.5 -125.5t103.5 -347.5q0 -163 -60 -386q-60 -220 -167 -356q-163 -205 -416 -205q-198 0 -304 129t-106 355zM254 471q0 -360 272 -360q168 0 281 155q83 111 129 301q49 192 49 336q0 350 -270 350 q-162 0 -287 -168q-83 -115 -129 -288q-45 -170 -45 -326z" />
<glyph unicode="1" horiz-adv-x="1165" d="M219 0l29 135h211l229 1079l-321 -157l30 147l369 189h113l-265 -1258h228l-27 -135h-596z" />
<glyph unicode="2" horiz-adv-x="1165" d="M16 0l19 92q360 269 594 483q264 240 264 441q0 107 -67 172t-193 65q-101 0 -212 -52.5t-196 -143.5h-8l21 160q79 81 196 127.5t236 46.5q185 0 286 -93t101 -249q0 -253 -264 -508q-71 -71 -238 -201q-178 -138 -281 -205q117 2 607 2l59 217h123l-78 -354h-969z" />
<glyph unicode="3" horiz-adv-x="1165" d="M72 100l28 154h9q59 -69 157 -106t201 -37q172 0 270.5 71.5t98.5 216.5q0 65 -40.5 123.5t-107.5 81.5q-89 27 -207 27h-59l24 137h62q164 0 246 43q143 70 143 236q0 91 -63 147.5t-181 56.5q-95 0 -195 -41t-175 -116h-9l19 157q158 140 397 140q176 0 271.5 -87 t95.5 -231q0 -140 -79 -237t-220 -136q106 -19 171.5 -96.5t65.5 -183.5q0 -212 -147 -332q-147 -117 -391 -117q-111 0 -218 35t-167 94z" />
<glyph unicode="4" horiz-adv-x="1165" d="M41 356l20 101l881 934h129l-190 -902h225l-27 -133h-227l-47 -223h235l-26 -133h-590l29 133h202l47 223h-661zM254 489h477q5 22 23 104.5t28 135.5q72 329 99 434q-202 -232 -627 -674z" />
<glyph unicode="5" horiz-adv-x="1165" d="M61 98l31 156h8q125 -143 365 -143q181 0 286 93t105 259q0 120 -75 188t-210 68q-185 0 -350 -109l-8 2l209 750h700l-49 -309h-125l21 170h-453l-119 -420q86 57 252 57q160 0 264 -98q107 -98 107 -266q0 -242 -158 -385q-158 -140 -409 -140q-244 0 -392 127z" />
<glyph unicode="6" horiz-adv-x="1165" d="M129 428q0 90 12.5 182.5t41 187.5t70.5 181t103 162t135 131t171 87t206 32q96 0 183 -29.5t127 -79.5l-37 -147h-8q-88 116 -275 116q-208 0 -349.5 -149t-197.5 -416q57 88 163 143.5t231 55.5q167 0 269.5 -102t102.5 -269q0 -230 -139 -387q-138 -156 -379 -156 q-183 0 -307 115q-123 114 -123 342zM283 406q0 -135 76.5 -215t201.5 -80q168 0 262.5 103t94.5 273q0 122 -70.5 192.5t-194.5 70.5q-103 0 -200 -56t-152 -143q-18 -76 -18 -145z" />
<glyph unicode="7" horiz-adv-x="1165" d="M170 1053l76 309h919l-26 -105q-422 -672 -738 -1257h-163q333 613 727 1223h-621l-47 -170h-127z" />
<glyph unicode="8" horiz-adv-x="1165" d="M82 328q0 139 92.5 237t251.5 140q-176 83 -176 272q0 179 131 295q131 119 330 119q181 0 287 -91.5t106 -240.5q0 -277 -289 -371q103 -37 162 -112.5t59 -172.5q0 -194 -139 -315q-137 -119 -365 -119q-199 0 -325 99q-125 101 -125 260zM242 342q0 -105 86 -170 q86 -63 215 -63q146 0 241 77q99 76 99 211q0 106 -83 166t-218 68q-154 -13 -247 -86.5t-93 -202.5zM399 985q0 -92 68 -150.5t182 -70.5q139 8 222 80t83 194q0 94 -71 154.5t-187 60.5q-130 0 -213.5 -75t-83.5 -193z" />
<glyph unicode="9" horiz-adv-x="1165" d="M59 88l35 141h8q90 -118 299 -118q206 0 337 147t186 418q-59 -90 -158.5 -143.5t-222.5 -53.5q-168 0 -277 103q-108 105 -108 272q0 229 143 381q144 156 385 156q192 0 306 -114.5t114 -336.5q0 -348 -152 -639q-80 -152 -225.5 -241t-331.5 -89q-94 0 -196 31 q-99 35 -142 86zM315 874q0 -121 72 -190.5t197 -69.5q116 0 209 64t145 172q10 45 10 123q0 120 -74 199t-196 79q-168 0 -265.5 -103.5t-97.5 -273.5z" />
<glyph unicode=":" horiz-adv-x="462" d="M59 76q0 57 35 94t90 37q43 0 73 -27.5t30 -73.5q0 -57 -31.5 -93t-87.5 -36q-46 0 -77.5 26.5t-31.5 72.5zM233 889q0 56 34 92.5t89 36.5q44 0 73.5 -26.5t29.5 -73.5q0 -56 -32 -93t-87 -37q-46 0 -76.5 27.5t-30.5 73.5z" />
<glyph unicode=";" horiz-adv-x="462" d="M-111 -317q105 77 172.5 192t67.5 242q0 66 -20 127h163q19 -49 19 -119q0 -141 -72 -257t-192 -194h-138v9zM233 889q0 56 34 92.5t89 36.5q44 0 73.5 -26.5t29.5 -73.5q0 -56 -32 -93t-87 -37q-46 0 -76.5 27.5t-30.5 73.5z" />
<glyph unicode="&#x3c;" horiz-adv-x="1433" d="M266 537l27 125l1028 454l-31 -151l-882 -371l708 -365l-26 -135z" />
<glyph unicode="=" horiz-adv-x="1433" d="M158 346l26 117h1065l-24 -117h-1067zM246 737l24 115h1067l-24 -115h-1067z" />
<glyph unicode="&#x3e;" horiz-adv-x="1433" d="M172 94l31 152l882 375l-708 362l26 133l826 -444l-25 -125z" />
<glyph unicode="?" horiz-adv-x="870" d="M184 1163l23 154q140 125 358 125q162 0 254 -83t92 -222q0 -138 -73 -226q-70 -81 -250 -192q-89 -53 -119 -117q-33 -67 -47 -170h-121l12 82q1 12 17 72q11 45 28 76q41 70 123 126q162 110 211 170q53 65 53 154q0 88 -56.5 139.5t-162.5 51.5q-194 0 -336 -142z M213 76q0 58 34.5 94.5t90.5 36.5q40 0 70 -28t30 -73q0 -57 -31.5 -93t-87.5 -36q-46 0 -76 26.5t-30 72.5z" />
<glyph unicode="@" horiz-adv-x="1746" d="M135 420q0 170 66.5 331.5t183.5 284.5q118 126 284 198.5t349 72.5q289 0 465 -164q174 -162 174 -438q0 -132 -49 -263q-46 -130 -152 -233q-101 -98 -233 -98q-66 0 -103 32.5t-37 87.5q0 21 2 31q-128 -158 -309 -158q-131 0 -210 78.5t-79 218.5q0 118 54 233.5 t147 194.5q130 109 289 109q79 0 142 -35.5t87 -97.5l29 119h104l-116 -496q-25 -98 -25 -154q0 -67 66 -67q76 0 147 86q67 83 104 193t37 206q0 238 -147 379q-143 143 -389 143q-311 0 -541 -233q-229 -229 -229 -555q0 -270 174 -438q176 -170 459 -170q332 0 561 168 l8 2l-21 -119q-222 -148 -561 -148q-331 0 -530 193q-201 192 -201 506zM604 416q0 -201 201 -201q83 0 165.5 55t137.5 152l57 248q-12 84 -64 129t-134 45q-114 0 -209 -86q-68 -65 -111 -158t-43 -184z" />
<glyph unicode="A" horiz-adv-x="1468" d="M-90 0l27 135h126l785 1276h160l249 -1276h144l-27 -135h-522l27 135h215l-56 297h-626l-179 -297h224l-27 -135h-520zM489 565h523l-62 344l-41 221l-18 107q-24 -43 -402 -672z" />
<glyph unicode="B" horiz-adv-x="1314" d="M-27 0l29 135h176l242 1141h-191l27 135h471q118 0 238 -14q131 -13 204.5 -88.5t73.5 -188.5q0 -292 -299 -387q124 -17 195 -92.5t71 -191.5q0 -143 -83 -251t-232 -157q-125 -41 -393 -41h-529zM332 135h217q200 0 303 35q95 33 149 103.5t54 166.5q0 62 -31 113.5 t-86 75.5q-81 37 -254 37h-242zM471 797h199q186 0 258 34q159 77 159 248q0 135 -126 176q-70 21 -218 21h-168z" />
<glyph unicode="C" horiz-adv-x="1425" d="M125 553q0 390 262 643q255 246 625 246q123 0 235 -37q112 -34 166 -88l-47 -320h-137l24 244q-127 59 -260 59q-301 0 -501 -206q-93 -98 -146 -231.5t-53 -278.5q0 -219 129 -341t352 -122q246 0 440 141h9l-29 -172q-74 -55 -199 -87t-260 -32q-270 0 -442 158 q-168 158 -168 424z" />
<glyph unicode="D" horiz-adv-x="1558" d="M-27 0l27 135h178l240 1141h-191l29 135h510q274 0 428 -59q150 -58 231.5 -185t81.5 -311q0 -277 -123 -478.5t-368 -299.5q-200 -78 -541 -78h-502zM330 135h207q314 0 485 98q153 85 237 244.5t84 353.5q0 287 -192 381q-122 64 -375 64h-201z" />
<glyph unicode="E" d="M-27 0l27 135h178l242 1141h-193l29 135h1001l-59 -315h-135l24 180h-512l-102 -473h533l-31 -139h-531l-112 -529h600l55 199h135l-78 -334h-1071z" />
<glyph unicode="F" horiz-adv-x="1167" d="M-27 0l27 135h178l242 1141h-193l29 135h997l-59 -315h-135l24 174h-510l-108 -510h551l-31 -135h-549l-102 -490h225l-27 -135h-559z" />
<glyph unicode="G" horiz-adv-x="1536" d="M125 553q0 382 264 643q249 246 639 246q133 0 254 -37q121 -34 180 -90l-51 -318h-137l26 240q-129 63 -290 63q-322 0 -516 -206q-201 -216 -201 -510q0 -219 131.5 -343t355.5 -124q213 0 361 80l84 393h-242l27 133h508l-27 -133h-113l-98 -475q-212 -144 -532 -144 q-271 0 -449 158q-174 158 -174 424z" />
<glyph unicode="H" horiz-adv-x="1574" d="M-27 0l27 135h178l242 1141h-193l29 135h528l-28 -135h-183l-100 -471h758l98 471h-188l28 135h527l-29 -135h-180l-242 -1141h197l-29 -135h-528l28 135h177l112 533h-758l-112 -533h196l-26 -135h-529z" />
<glyph unicode="I" horiz-adv-x="663" d="M-27 0l27 135h178l242 1141h-193l29 135h528l-28 -135h-181l-243 -1141h196l-26 -135h-529z" />
<glyph unicode="J" horiz-adv-x="858" d="M-47 37l33 137h8q74 -59 190 -59q145 0 209 94q41 59 84 266l170 801h-207l29 135h528l-28 -135h-166l-170 -811q-53 -245 -105 -330q-108 -164 -350 -164q-141 0 -225 66z" />
<glyph unicode="K" horiz-adv-x="1480" d="M-27 0l27 135h178l242 1141h-193l29 135h528l-28 -135h-181l-126 -586l649 586h-127l28 135h514l-28 -135h-185l-493 -434l369 -707h202l-28 -135h-287l-377 731l-280 -250l-74 -346h196l-26 -135h-529z" />
<glyph unicode="L" horiz-adv-x="1189" d="M-27 0l27 135h178l242 1141h-193l29 135h528l-28 -135h-183l-241 -1141h551l55 199h135l-78 -334h-1022z" />
<glyph unicode="M" horiz-adv-x="1785" d="M-55 0l26 135h179l241 1141h-190l28 135h359q235 -739 291 -946l704 946h344l-29 -135h-184l-246 -1141h193l-29 -135h-526l27 135h174q193 886 227 1016q-156 -216 -645 -854h-105q-222 704 -270 874l-217 -1036h199l-29 -135h-522z" />
<glyph unicode="N" horiz-adv-x="1562" d="M-27 0l27 135h180l240 1141h-193l29 135h350q424 -875 537 -1141q58 301 209 1006h-211l28 135h527l-29 -135h-166l-266 -1276h-127l-557 1190l-107 -510q-97 -455 -114 -545h198l-26 -135h-529z" />
<glyph unicode="O" horiz-adv-x="1599" d="M131 578q0 181 66.5 348t191.5 288q232 226 545 226q275 0 444 -158q168 -155 168 -440q0 -182 -59.5 -348.5t-173.5 -286.5q-230 -236 -559 -236q-275 0 -449 162t-174 445zM291 598q0 -216 125 -350q126 -135 358 -135q254 0 424 182q90 95 139 234.5t49 289.5 q0 212 -122 346q-120 135 -353 135q-254 0 -426 -184q-91 -100 -142.5 -237.5t-51.5 -280.5z" />
<glyph unicode="P" horiz-adv-x="1339" d="M-27 0l27 135h178l242 1141h-193l29 135h555q211 0 322 -51q83 -36 133.5 -117t50.5 -188q0 -170 -85 -292t-249 -175q-121 -39 -317 -39h-246l-86 -414h229l-26 -135h-564zM446 684h238q200 0 291 45q180 88 180 307q0 68 -30.5 121.5t-80.5 77.5q-84 41 -253 41h-218z " />
<glyph unicode="Q" horiz-adv-x="1599" d="M131 578q0 181 66.5 348t191.5 288q232 226 545 226q275 0 444 -158q168 -155 168 -440q0 -182 -59.5 -348.5t-173.5 -286.5q-92 -92 -195 -148l332 -237l-96 -125l-404 299q-98 -25 -196 -25q-275 0 -449 162t-174 445zM291 598q0 -216 125 -350q126 -135 358 -135 q254 0 424 182q90 95 139 234.5t49 289.5q0 212 -122 346q-120 135 -353 135q-254 0 -426 -184q-91 -100 -142.5 -237.5t-51.5 -280.5z" />
<glyph unicode="R" horiz-adv-x="1390" d="M-27 0l27 135h178l242 1141h-193l29 135h551q232 0 334 -51q80 -38 127 -119t47 -180q0 -170 -103.5 -285.5t-285.5 -152.5l213 -488h182l-27 -135h-266l-254 602q-31 -2 -342 -2l-98 -465h203l-27 -135h-537zM459 731h221q194 0 287 37q91 35 140.5 109t49.5 174 q0 61 -26 110t-72 72q-82 43 -264 43h-222z" />
<glyph unicode="S" horiz-adv-x="1210" d="M82 125l24 297h123v-215q157 -92 340 -92q361 0 361 245q0 69 -58.5 127t-199.5 127l-168 84q-236 114 -236 318t146.5 315t398.5 111q126 0 236 -39q113 -37 159 -86l-22 -313h-125l-4 231q-127 65 -269 65q-358 0 -358 -247q0 -143 197 -238l194 -94q271 -129 271 -344 q0 -192 -138.5 -300t-390.5 -108q-139 0 -272 43q-138 47 -209 113z" />
<glyph unicode="T" horiz-adv-x="1253" d="M176 1075l80 336h1106l-55 -336h-136l23 193h-344l-238 -1135h195l-27 -133h-526l27 133h176l239 1135h-331l-52 -193h-137z" />
<glyph unicode="U" horiz-adv-x="1540" d="M195 373q0 94 28 237l142 666h-170l28 135h527l-29 -135h-203l-135 -639q-31 -155 -31 -231q0 -139 92 -215t252 -76q251 0 371 153q87 113 139 359l137 649h-219l29 135h526l-28 -135h-164l-141 -664q-60 -290 -146 -405q-82 -109 -217.5 -172.5t-304.5 -63.5 q-214 0 -348 101q-135 102 -135 301z" />
<glyph unicode="V" horiz-adv-x="1488" d="M174 1276l29 135h528l-29 -135h-215q157 -783 205 -1077q216 397 625 1077h-213l29 135h528l-29 -135h-149l-764 -1276h-141l-254 1276h-150z" />
<glyph unicode="W" horiz-adv-x="2127" d="M188 1276l29 135h528l-28 -135h-215q42 -682 57 -1053l629 1188h137q108 -942 123 -1188q193 415 514 1053h-227l30 135h527l-29 -135h-143l-652 -1276h-143q-102 956 -117 1204q-125 -253 -635 -1204h-143l-94 1276h-148z" />
<glyph unicode="X" horiz-adv-x="1454" d="M-57 0l28 133h146l573 623l-282 520h-144l29 135h487l-28 -135h-174q47 -79 133 -246l100 -186l383 432h-184l28 135h506l-28 -135h-142l-493 -541l323 -602h156l-29 -133h-506l29 133h178q-217 403 -268 508l-197 -215q-163 -174 -266 -293h158l-29 -133h-487z" />
<glyph unicode="Y" horiz-adv-x="1402" d="M174 1276l29 135h528l-29 -135h-202q182 -423 235 -574l475 574h-192l29 135h528l-31 -135h-147l-606 -707l-91 -436h193l-29 -133h-530l26 133h183l92 436l-307 707h-154z" />
<glyph unicode="Z" horiz-adv-x="1341" d="M-2 0l14 90l1092 1178h-703l-55 -195h-131l78 338h1069l-19 -100l-1091 -1170h801l59 209h133l-82 -350h-1165z" />
<glyph unicode="[" horiz-adv-x="610" d="M-16 -334l391 1841h397l-22 -104h-267l-348 -1632h268l-22 -105h-397z" />
<glyph unicode="\" horiz-adv-x="806" d="M203 1497h119l383 -1614h-121z" />
<glyph unicode="]" horiz-adv-x="610" d="M-156 -334l23 105h268l346 1632h-266l21 104h397l-389 -1841h-400z" />
<glyph unicode="^" horiz-adv-x="1449" d="M289 575l569 807h137l201 -807h-125l-166 668l-473 -668h-143z" />
<glyph unicode="_" horiz-adv-x="1067" d="M-135 -260l22 100h1065l-22 -100h-1065z" />
<glyph unicode="`" horiz-adv-x="432" d="M-4 1511v9h205l241 -330v-8h-139z" />
<glyph unicode="a" horiz-adv-x="1318" d="M80 373q0 141 64 278t178 234q174 145 389 145q245 0 315 -184l37 158h135l-151 -689q-17 -97 -17 -116q0 -82 82 -82q75 0 125 33l6 -3l-29 -131q-68 -32 -157 -32q-183 0 -183 143q0 31 9 72q-136 -226 -408 -226q-180 0 -287.5 106t-107.5 294zM236 393 q0 -138 74 -209t206 -71q118 0 228 75t176 207l65 281q-22 109 -99 163t-190 54q-163 0 -284 -109q-80 -72 -128 -179t-48 -212z" />
<glyph unicode="b" horiz-adv-x="1304" d="M100 0l285 1356h-180l26 135h330l-145 -670q74 96 182.5 152.5t230.5 56.5q179 0 285.5 -106t106.5 -293q0 -323 -199 -504q-168 -154 -391 -154q-110 0 -215 54q-98 53 -140 139l-43 -166h-133zM317 348q24 -112 117.5 -173.5t216.5 -61.5q157 0 269 106q71 65 108 168 t37 213q0 139 -73.5 215t-200.5 76q-121 0 -229.5 -61.5t-178.5 -180.5z" />
<glyph unicode="c" horiz-adv-x="1067" d="M82 393q0 154 69.5 293.5t192.5 226.5q156 117 377 117q215 0 303 -88l-45 -270h-133l22 186q-70 33 -170 33q-163 0 -282 -94q-81 -64 -130.5 -166t-49.5 -211q0 -157 94 -230t231 -73q192 0 336 114h8l-31 -161q-135 -97 -346 -97q-194 0 -321 109q-125 110 -125 311z " />
<glyph unicode="d" horiz-adv-x="1335" d="M82 377q0 305 240 510q162 143 387 143q115 0 200 -46.5t117 -131.5l109 506h-179l27 133h324l-248 -1176q-17 -97 -17 -116q0 -82 82 -82q70 0 123 33l8 -3l-28 -131q-65 -32 -160 -32q-83 0 -131.5 37.5t-48.5 105.5q0 29 6 63q-144 -217 -416 -217 q-176 0 -285.5 108.5t-109.5 295.5zM236 397q0 -138 76 -211t208 -73q121 0 226.5 70.5t179.5 199.5l61 289q-20 111 -97 166t-194 55q-162 0 -286 -109q-80 -69 -127 -173t-47 -214z" />
<glyph unicode="e" horiz-adv-x="1099" d="M82 397q0 132 50.5 255.5t139.5 215.5q76 77 182.5 119.5t209.5 42.5q183 0 287 -101t104 -274q0 -105 -27 -204h-792q-1 -10 -2 -22t-2 -20.5t-1 -13.5q0 -132 89.5 -208t252.5 -76q214 0 388 145h8l-27 -158q-66 -59 -172.5 -92t-218.5 -33q-220 0 -344.5 114 t-124.5 310zM258 578h643q8 31 8 88q0 231 -264 231q-116 0 -231 -80q-116 -78 -156 -239z" />
<glyph unicode="f" horiz-adv-x="663" d="M41 -356l258 1226h-166l27 134h164l30 135q47 201 144 288q103 89 266 89q54 0 108.5 -16.5t79.5 -39.5l-28 -131h-9q-56 53 -170 53q-105 0 -163 -61q-45 -48 -80 -188l-31 -129h258l-29 -134h-256l-260 -1226h-143z" />
<glyph unicode="g" horiz-adv-x="1308" d="M35 -287l35 148h8q125 -146 364 -146q107 0 172 28t123 89q59 65 105 262l22 94q-138 -188 -372 -188q-186 0 -298 103.5t-112 289.5q0 142 63 275.5t179 230.5q164 135 378 135q111 0 193.5 -46t112.5 -122l32 138h306l-29 -134h-168l-162 -772q-53 -243 -115 -325 q-77 -101 -181.5 -149t-260.5 -48q-125 0 -234 39.5t-161 97.5zM238 416q0 -132 78 -204.5t210 -72.5q111 0 209 55.5t160 159.5l72 348q-47 195 -281 195q-162 0 -274 -100q-79 -67 -126.5 -172t-47.5 -209z" />
<glyph unicode="h" horiz-adv-x="1249" d="M96 0l291 1358h-184l28 133h332l-143 -670q127 207 375 207q122 0 197 -64t75 -188q0 -76 -29 -215l-57 -250q-17 -69 -17 -112q0 -22 4 -37q13 -45 76 -45q74 0 127 33l7 -3l-29 -131q-74 -32 -150 -32q-89 0 -140.5 38t-51.5 111q0 55 18 137l64 279q24 108 24 176 q0 162 -182 162q-106 0 -201 -74q-93 -70 -147 -174l-139 -639h-148z" />
<glyph unicode="i" horiz-adv-x="612" d="M129 870l29 134h334l-156 -693q-19 -81 -19 -116q0 -78 82 -78q71 0 127 33l6 -3l-28 -131q-71 -32 -150 -32q-192 0 -192 155q0 50 16 125l135 606h-184zM352 1327q0 55 32 90t85 35q39 0 65.5 -24.5t26.5 -67.5q0 -56 -29.5 -90.5t-82.5 -34.5q-42 0 -69.5 25t-27.5 67 z" />
<glyph unicode="j" horiz-adv-x="591" d="M-240 -381l29 133h8q52 -49 135 -49q71 0 107 39q38 38 76 209l194 919h-184l29 134h331l-223 -1049q-46 -223 -106 -295q-78 -90 -232 -90q-103 0 -164 49zM322 1327q0 55 31.5 90t84.5 35q39 0 65.5 -24.5t26.5 -67.5q0 -56 -29.5 -90.5t-82.5 -34.5q-42 0 -69 25 t-27 67z" />
<glyph unicode="k" horiz-adv-x="1110" d="M98 0l289 1358h-188l26 133h336l-201 -928l396 334l26 107h344l-28 -134h-166l-285 -229q139 -343 217 -467q41 -59 125 -59q63 0 115 30l6 -2l-29 -133q-62 -26 -135 -26q-134 0 -201 104q-73 122 -210 459l-211 -174l-78 -373h-148z" />
<glyph unicode="l" horiz-adv-x="589" d="M135 139q0 42 17 125l233 1094h-186l28 133h334l-252 -1182q-16 -91 -16 -112q0 -42 19 -61t63 -19q81 0 123 33l6 -3l-27 -131q-71 -32 -149 -32q-89 0 -141 39t-52 116z" />
<glyph unicode="m" horiz-adv-x="1904" d="M123 0l186 870h-186l29 134h327l-43 -197q126 221 373 221q243 0 258 -235q54 104 156 169.5t235 65.5q120 0 192 -63.5t72 -188.5q0 -78 -30 -213l-58 -254q-18 -76 -18 -112q0 -80 82 -80q75 0 125 33l6 -3l-27 -131q-65 -32 -149 -32q-193 0 -193 151q0 46 19 133 l65 281q25 116 25 176q0 86 -42 124t-130 38q-101 0 -194 -72.5t-146 -181.5q-6 -41 -15 -78l-120 -555h-148l121 549q23 108 23 176q0 86 -41 124t-127 38q-101 0 -192.5 -70t-149.5 -180l-140 -637h-145z" />
<glyph unicode="n" horiz-adv-x="1271" d="M123 0l186 870h-186l29 134h327l-43 -195q124 219 381 219q121 0 195.5 -64t74.5 -188q0 -91 -28 -215l-60 -252q-16 -75 -16 -110q0 -43 19 -62.5t63 -19.5q69 0 125 35l6 -2l-29 -134q-74 -32 -149 -32q-89 0 -140 38t-51 111q0 52 17 135l65 281q25 113 25 176 q0 162 -180 162q-101 0 -194.5 -70t-151.5 -178l-140 -639h-145z" />
<glyph unicode="o" d="M82 416q0 264 194 452q171 162 400 162q193 0 323 -115q129 -114 129 -317q0 -281 -190 -465q-168 -160 -399 -160q-195 0 -326 119t-131 324zM233 434q0 -143 86.5 -233t233.5 -90q162 0 278 110q144 138 144 359q0 143 -82 228t-227 85q-166 0 -285 -113 q-148 -142 -148 -346z" />
<glyph unicode="p" horiz-adv-x="1314" d="M41 -397l270 1267h-186l29 134h325l-41 -191q68 98 182 157.5t240 59.5q174 0 280.5 -105t106.5 -290q0 -324 -188 -500q-160 -145 -400 -145q-117 0 -213.5 51t-134.5 133l-123 -571h-147zM346 367q24 -114 116.5 -177t215.5 -63q178 0 278 100q138 135 138 379 q0 137 -74.5 211t-204.5 74q-121 0 -230.5 -63.5t-176.5 -182.5z" />
<glyph unicode="q" horiz-adv-x="1368" d="M84 385q0 299 233 504q165 145 394 145q118 0 209.5 -50.5t121.5 -135.5l33 156h285l-29 -134h-145l-268 -1267h-142l125 590q-150 -203 -414 -203q-176 0 -290 102q-113 104 -113 293zM238 406q0 -137 78.5 -208t213.5 -71q121 0 229 64.5t175 185.5l63 293 q-18 111 -98.5 169t-198.5 58q-173 0 -292 -113q-170 -156 -170 -378z" />
<glyph unicode="r" horiz-adv-x="833" d="M123 0l184 868h-184l29 136h329l-39 -173q40 85 119.5 143t179.5 58q82 0 115 -33l-33 -155h-8q-41 30 -115 30q-183 0 -290 -210l-140 -664h-147z" />
<glyph unicode="s" horiz-adv-x="956" d="M61 90l15 268h121l2 -190q125 -64 276 -64q109 0 163 39.5t54 108.5q0 54 -40 90.5t-138 73.5l-154 57q-200 74 -200 248q0 152 110 231q115 80 283 80q101 0 199 -26q105 -27 147 -66l-22 -252h-121l8 168q-112 47 -229 47q-110 0 -167 -43.5t-57 -118.5q0 -94 142 -147 l176 -64q219 -80 219 -245q0 -151 -103 -231.5t-286 -80.5q-248 0 -398 117z" />
<glyph unicode="t" horiz-adv-x="671" d="M111 868l30 136h162l72 301h139l-63 -301h262l-29 -136h-262l-109 -524q-14 -60 -14 -113q0 -114 133 -114q90 0 164 45h8l-24 -133q-70 -52 -203 -52q-106 0 -169 54.5t-63 146.5q0 65 21 154l110 536h-165z" />
<glyph unicode="u" horiz-adv-x="1298" d="M113 870l28 134h328l-115 -549q-20 -97 -20 -164q0 -88 53.5 -131t147.5 -43q98 0 193.5 63.5t156.5 163.5l139 660h147l-145 -682q-18 -82 -18 -121q0 -84 84 -84q72 0 122 33l7 -3l-27 -131q-74 -32 -160 -32q-176 0 -176 135q0 34 8 65q-147 -209 -389 -209 q-130 0 -213.5 66.5t-83.5 191.5q0 81 25 209l90 428h-182z" />
<glyph unicode="v" horiz-adv-x="1198" d="M125 870l29 134h317l-119 -537q-22 -107 -22 -168q0 -182 200 -182q161 0 283 131q67 69 106 192t39 281t-61 283h154q55 -101 55 -254q0 -179 -39.5 -319t-101 -224t-144.5 -138.5t-161 -74.5q-75 -19 -154 -19h-8q-146 0 -234 75t-88 212q0 68 25 187l94 421h-170z" />
<glyph unicode="w" horiz-adv-x="1744" d="M106 870l29 134h318l-119 -537q-23 -112 -23 -168q0 -182 189 -182q152 0 272 153q6 91 25 179l112 514h148l-109 -496q-22 -107 -22 -172q0 -89 42 -133.5t138 -44.5q162 0 285 147q125 149 125 461q0 155 -56 279h152q49 -101 49 -252q0 -175 -36.5 -316t-98.5 -229 q-87 -123 -206.5 -177.5t-244.5 -54.5q-215 0 -280 158q-122 -158 -328 -158q-142 0 -225.5 75t-83.5 212q0 73 24 187l94 421h-170z" />
<glyph unicode="x" horiz-adv-x="1067" d="M-49 0l29 133h143l346 395l-182 342h-164l29 134h239q47 -90 98 -195l93 -184l221 254l26 125h328l-29 -134h-153l-320 -356l172 -319q44 -78 119 -78q65 0 115 30l6 -2l-27 -133q-59 -26 -135 -26q-126 0 -188 108q-34 58 -86 160q-15 29 -34 66.5t-30.5 60t-19.5 37.5 q-2 -3 -19 -21t-28 -32l-207 -242l-27 -123h-315z" />
<glyph unicode="y" horiz-adv-x="1261" d="M111 -295l34 143h9q116 -131 327 -131q184 0 264 115q52 67 93 262l18 82q-136 -201 -375 -201q-131 0 -216 66.5t-85 191.5q0 81 25 209l90 428h-182l28 134h328l-115 -549q-20 -97 -20 -164q0 -88 55 -131t150 -43q101 0 192.5 62t153.5 165l139 660h147l-186 -900 q-50 -242 -104 -327q-123 -197 -412 -197q-239 0 -358 125z" />
<glyph unicode="z" horiz-adv-x="1009" d="M-16 0l20 94l764 776h-461l-51 -176h-129l72 310h813l-23 -101q-595 -607 -768 -772h531l55 188h127l-72 -319h-878z" />
<glyph unicode="{" horiz-adv-x="708" d="M70 559l20 94q126 15 178 76q55 64 92 238l50 229q40 193 133 258q94 66 254 66h82l-21 -103h-84q-96 0 -149.5 -46.5t-81.5 -174.5l-49 -240q-30 -143 -70 -219q-36 -74 -78 -102q-40 -24 -117 -45q129 -30 129 -189q0 -80 -24 -188q-60 -277 -60 -307q0 -150 156 -150 h76l-23 -102h-75q-269 0 -269 225q0 43 66 352q20 90 20 160q0 83 -35.5 119.5t-119.5 48.5z" />
<glyph unicode="|" horiz-adv-x="462" d="M-29 -377l412 1944h131l-414 -1944h-129z" />
<glyph unicode="}" horiz-adv-x="708" d="M-147 -346l20 102h86q96 0 148.5 46.5t80.5 174.5l52 240q30 143 67 219q42 80 78 101q38 25 117 47q-129 30 -129 188q0 73 26 189q58 271 58 307q0 149 -156 149h-74l21 103h76q133 0 200.5 -53t67.5 -173q0 -50 -64 -352q-20 -90 -20 -160q0 -82 36 -119t118 -49 l-21 -94q-123 -15 -178 -76q-51 -60 -92 -237l-49 -230q-40 -192 -134 -258q-92 -65 -254 -65h-81z" />
<glyph unicode="~" horiz-adv-x="1433" d="M203 545q168 207 336 207q83 0 237 -95q117 -69 195 -69q123 0 243 166l89 -68q-54 -69 -97.5 -112.5t-95.5 -73.5t-106.5 -33.5t-123 16t-151.5 66.5q-137 82 -203 82q-116 0 -243 -160z" />
<glyph unicode="&#xa1;" horiz-adv-x="589" d="M-29 -379l236 979h119l-179 -979h-176zM209 926q0 57 31.5 93t87.5 36q46 0 76 -26.5t30 -72.5q0 -58 -34 -94.5t-89 -36.5q-43 0 -72.5 26.5t-29.5 74.5z" />
<glyph unicode="&#xa2;" horiz-adv-x="1110" d="M141 399q0 154 67.5 290t188.5 222q132 93 293 107l45 211h90l-45 -207q86 -1 163.5 -29t115.5 -67l-49 -256h-123l28 180q-69 32 -163 35l-160 -756h26q175 0 318 113h8l-31 -158q-131 -94 -352 -94l-45 -215h-94l47 221q-154 25 -241 129.5t-87 273.5zM297 426 q0 -228 205 -283l157 736q-102 -12 -192 -80q-80 -60 -125 -159t-45 -214z" />
<glyph unicode="&#xa3;" horiz-adv-x="1216" d="M35 0l20 106q340 159 340 402q0 33 -6 63h-207l25 117h168q-17 139 -17 199q0 235 141 369.5t402 134.5q99 0 189 -30t139 -81l-39 -156h-8q-44 57 -128.5 92t-172.5 35q-187 0 -272 -89.5t-85 -266.5q0 -87 15 -207h432l-25 -117h-399q0 -4 1 -28t1 -29 q0 -231 -246 -375h649l52 183h120l-75 -322h-1014z" />
<glyph unicode="&#xa4;" horiz-adv-x="1236" d="M158 285l143 131q-74 100 -74 235q0 164 107 289l-127 145l94 82l125 -145q98 70 236 70q163 0 276 -101l141 129l82 -94l-141 -129q70 -101 70 -238q0 -176 -105 -284l127 -152l-94 -80l-123 148q-101 -70 -238 -70q-168 0 -278 96l-141 -124zM354 653q0 -135 85 -222 t220 -87q130 0 215 88q89 89 89 232q0 133 -86 219t-218 86q-125 0 -215 -90t-90 -226z" />
<glyph unicode="&#xa5;" horiz-adv-x="1290" d="M127 1217l29 137h514l-29 -137h-192q166 -401 213 -539q158 202 452 539h-172l29 137h504l-29 -137h-156l-364 -420h231l-20 -92h-289l-133 -154l-8 -27h391l-19 -94h-391l-63 -293h204l-26 -137h-545l27 137h186l64 293h-377l20 94h377l6 27l-65 154h-279l19 92h221 l-181 420h-149z" />
<glyph unicode="&#xa6;" horiz-adv-x="462" d="M8 -193l142 674h131l-142 -674h-131zM217 791l141 673h131l-141 -673h-131z" />
<glyph unicode="&#xa7;" horiz-adv-x="1007" d="M-18 -115l30 150h8q60 -76 157 -119t194 -43q113 0 183.5 46.5t70.5 139.5q0 103 -84 166q-58 40 -154 101q-108 69 -166 114q-104 82 -104 209q0 102 71 172.5t195 100.5q-94 82 -94 217q0 157 114 243q118 86 297 86q99 0 185 -32t125 -82l-29 -142h-8q-42 59 -123 94 t-168 35q-104 0 -171 -47t-67 -137q0 -104 107 -174l92 -59q128 -78 221 -162q74 -71 74 -178q0 -103 -67.5 -176.5t-184.5 -104.5q100 -81 100 -221q-3 -159 -122 -250q-121 -92 -299 -92q-114 0 -220.5 40.5t-162.5 104.5zM264 674q0 -83 92 -148q187 -130 238 -155 q87 18 139.5 64t52.5 118q0 81 -90 147q-72 57 -227 150q-86 -6 -145.5 -55.5t-59.5 -120.5z" />
<glyph unicode="&#xa8;" horiz-adv-x="432" d="M-57 1329q0 50 29.5 82.5t76.5 32.5q34 0 60 -23.5t26 -62.5q0 -49 -27.5 -80t-76.5 -31q-38 0 -63 22.5t-25 59.5zM297 1329q0 50 30 82.5t79 32.5q34 0 58.5 -23.5t24.5 -62.5q0 -49 -27.5 -80t-76.5 -31q-38 0 -63 22.5t-25 59.5z" />
<glyph unicode="&#xa9;" horiz-adv-x="1695" d="M150 707q0 312 212 524q213 213 529 213q326 0 534 -211q211 -208 211 -526q0 -312 -213 -525q-211 -211 -530 -211q-322 0 -533 211q-210 210 -210 525zM227 707q0 -286 189 -478q187 -190 477 -190t477 190q191 191 191 478q0 286 -191 477q-186 192 -479 192 q-286 0 -475 -192q-189 -195 -189 -477zM451 618q0 256 170 412q149 137 380 137q79 0 152.5 -21t108.5 -56l-48 -236h-108l27 176q-64 23 -138 23q-175 0 -284 -103q-127 -124 -127 -315q0 -129 81 -201t203 -72q145 0 277 97h8l-16 -133q-119 -82 -293 -82 q-173 0 -283 104t-110 270z" />
<glyph unicode="&#xaa;" horiz-adv-x="860" d="M106 840q0 205 162 336q110 90 262 90q155 0 201 -113l25 96h108l-86 -383q-14 -55 -14 -110q0 -64 59 -64q51 0 95 35l6 -2l-21 -107q-41 -30 -117 -30q-62 0 -97.5 27.5t-35.5 80.5q0 19 2 25q-104 -137 -280 -137q-121 0 -195 67.5t-74 188.5zM229 856 q0 -83 48 -125.5t129 -42.5q149 0 249 148l45 196q-24 129 -176 129q-112 0 -182 -61q-113 -94 -113 -244z" />
<glyph unicode="&#xab;" horiz-adv-x="923" d="M70 520l354 373h170l-363 -385l203 -369h-155zM434 520l354 373h170l-362 -385l203 -369h-156z" />
<glyph unicode="&#xac;" horiz-adv-x="1433" d="M197 547l24 115h1065l-133 -590h-117l111 475h-950z" />
<glyph unicode="&#xad;" horiz-adv-x="655" d="M82 489l29 138h493l-29 -138h-493z" />
<glyph unicode="&#xae;" horiz-adv-x="1695" d="M150 707q0 312 212 524q213 213 529 213q326 0 534 -211q211 -208 211 -526q0 -312 -213 -525q-211 -211 -530 -211q-322 0 -533 211q-210 210 -210 525zM227 707q0 -286 189 -478q187 -190 477 -190t477 190q191 191 191 478q0 286 -191 477q-186 192 -479 192 q-286 0 -475 -192q-189 -195 -189 -477zM432 289l23 100h104l143 678h-112l22 102h353q129 0 204 -34q51 -23 82 -74t31 -111q0 -99 -62 -172t-167 -98l123 -291h139l-21 -100h-202l-154 373q-34 -3 -205 -3l-59 -270h127l-21 -100h-348zM752 756h127q114 0 188 26 q96 38 96 162q0 87 -73 111q-46 16 -152 16h-119z" />
<glyph unicode="&#xaf;" horiz-adv-x="432" d="M-98 1210l26 129h604l-28 -129h-602z" />
<glyph unicode="&#xb0;" horiz-adv-x="638" d="M193 1174q0 124 80.5 204t199.5 80q122 0 197 -77t75 -201q0 -123 -81 -201q-83 -80 -197 -80q-116 0 -197 78q-77 80 -77 197zM285 1176q0 -83 50.5 -138t133.5 -55q84 0 135 56t51 143q0 81 -52 135.5t-136 54.5q-81 0 -131.5 -55t-50.5 -141z" />
<glyph unicode="&#xb1;" horiz-adv-x="1433" d="M68 0l24 115h1065l-22 -115h-1067zM231 731l25 113h475l105 459h116l-104 -459h475l-27 -113h-475l-108 -463h-117l111 463h-476z" />
<glyph unicode="&#xb2;" horiz-adv-x="819" d="M162 819l14 74q255 177 381 289q164 141 164 256q0 59 -41.5 97t-116.5 38q-141 0 -262 -115h-8l16 117q115 106 287 106q122 0 189 -58.5t67 -154.5q0 -157 -172 -313q-147 -127 -311 -231q70 2 356 2l39 131h94l-55 -238h-641z" />
<glyph unicode="&#xb3;" horiz-adv-x="819" d="M203 879l22 116h8q80 -86 230 -86q103 0 162 40t59 122q0 86 -86 113q-53 16 -131 16h-37l16 103h41q95 0 148 24q88 40 88 133q0 51 -36.5 82t-106.5 31q-131 0 -238 -94h-8l14 118q110 84 264 84q113 0 176.5 -54t63.5 -142q0 -181 -193 -230q69 -14 111.5 -61 t42.5 -113q0 -133 -97 -206.5t-261 -73.5q-162 0 -252 78z" />
<glyph unicode="&#xb4;" horiz-adv-x="432" d="M-49 1182v8l315 330h211v-9l-383 -329h-143z" />
<glyph unicode="&#xb5;" horiz-adv-x="1200" d="M-18 -432l303 1436h147l-119 -555q-18 -83 -18 -158q0 -80 56.5 -125t146.5 -45q203 0 344 170l151 713h144l-211 -1004h-140l31 150q-132 -170 -350 -170q-75 0 -137 31.5t-88 82.5l-113 -526h-147z" />
<glyph unicode="&#xb6;" horiz-adv-x="1142" d="M170 866q0 264 186 404q188 141 494 141h332l-363 -1706h-86l346 1628h-237l-346 -1628h-86l161 762q-192 17 -296.5 126t-104.5 273z" />
<glyph unicode="&#xb7;" horiz-adv-x="403" d="M84 518q0 56 34 92.5t89 36.5q44 0 73 -26.5t29 -73.5q0 -56 -32 -92.5t-87 -36.5q-46 0 -76 27t-30 73z" />
<glyph unicode="&#xb8;" horiz-adv-x="432" d="M4 -467l21 102h8q70 -43 135 -43q129 0 129 103q0 40 -31 65t-86 25q-42 0 -78 -8l-6 4l105 237h104l-67 -143q91 -4 140.5 -48t49.5 -118q0 -106 -73 -163.5t-195 -57.5q-105 0 -156 45z" />
<glyph unicode="&#xb9;" horiz-adv-x="819" d="M281 819l20 103h156l139 628l-207 -96l23 113l241 116h95l-170 -761h178l-21 -103h-454z" />
<glyph unicode="&#xba;" horiz-adv-x="792" d="M123 864q0 182 121 297q111 105 268 105q137 0 224 -72t87 -199q0 -187 -118 -305q-106 -106 -271 -106q-134 0 -222.5 76.5t-88.5 203.5zM244 879q0 -85 56 -138t149 -53q95 0 167 72q84 90 84 219q0 84 -52 132t-140 48q-111 0 -178 -67q-86 -83 -86 -213z" />
<glyph unicode="&#xbb;" horiz-adv-x="923" d="M-33 139l363 385l-201 369h154l209 -381l-355 -373h-170zM332 139l362 385l-202 369h155l209 -381l-354 -373h-170z" />
<glyph unicode="&#xbc;" horiz-adv-x="1746" d="M203 518l20 103h158l139 628l-209 -96l25 113l242 116h92l-168 -761h176l-21 -103h-454zM420 -25l895 1422h108l-893 -1422h-110zM870 215l17 76l565 571h102l-122 -547h145l-23 -100h-143l-47 -215h-119l49 215h-424zM1026 315h289q52 233 90 381q-133 -146 -379 -381z " />
<glyph unicode="&#xbd;" horiz-adv-x="1746" d="M170 518l20 103h158l139 628l-208 -96l24 113l242 116h92l-168 -761h176l-20 -103h-455zM369 -25l895 1422h108l-893 -1422h-110zM924 0l14 74q260 181 381 288q164 141 164 256q0 60 -41.5 98t-116.5 38q-141 0 -262 -115h-8l16 117q115 106 287 106q122 0 189 -58.5 t67 -154.5q0 -157 -172 -313q-149 -129 -312 -232q70 2 357 2l39 132h94l-55 -238h-641z" />
<glyph unicode="&#xbe;" horiz-adv-x="1746" d="M156 578l22 116h8q80 -86 232 -86q102 0 160.5 40t58.5 122q0 86 -86 113q-50 16 -131 16h-37l18 102h41q93 0 148 25q86 41 86 133q0 51 -37 82t-107 31q-130 0 -237 -94h-8l14 118q113 84 266 84q110 0 175 -55t65 -141q0 -181 -193 -230q69 -14 110.5 -61t41.5 -113 q0 -133 -96.5 -206.5t-259.5 -73.5q-164 0 -254 78zM467 -25l895 1422h108l-892 -1422h-111zM924 215l16 76l565 571h103l-123 -547h145l-22 -100h-144l-47 -215h-119l50 215h-424zM1079 315h289q52 233 90 381q-133 -146 -379 -381z" />
<glyph unicode="&#xbf;" horiz-adv-x="870" d="M-35 -104q0 137 74 223q70 85 248 194q89 53 119 115q33 71 47 172h120l-12 -84q-2 -15 -16 -72q-14 -62 -47.5 -104t-104.5 -96q-167 -113 -213 -170q-51 -63 -51 -154q0 -88 56 -139t163 -51q195 0 336 141l6 -2l-22 -154q-65 -59 -161 -92t-196 -33q-162 0 -254 83.5 t-92 222.5zM436 926q0 57 31.5 93t87.5 36q46 0 76.5 -26.5t30.5 -72.5q0 -58 -34 -94.5t-89 -36.5q-44 0 -73.5 27t-29.5 74z" />
<glyph unicode="&#xc0;" horiz-adv-x="1468" d="M-125 0l27 135h127l784 1276h160l250 -1276h143l-27 -135h-522l27 135h215l-55 297h-627l-178 -297h223l-27 -135h-520zM455 565h522l-62 344l-41 221l-18 107q-32 -60 -401 -672zM553 1802v8h231l275 -266v-8h-162z" />
<glyph unicode="&#xc1;" horiz-adv-x="1468" d="M-90 0l27 135h126l785 1276h160l249 -1276h144l-27 -135h-522l27 135h215l-56 297h-626l-179 -297h224l-27 -135h-520zM489 565h523l-62 344l-41 221l-18 107q-24 -43 -402 -672zM754 1536v8l342 266h247v-8l-421 -266h-168z" />
<glyph unicode="&#xc2;" horiz-adv-x="1468" d="M-90 0l27 135h126l785 1276h160l249 -1276h144l-27 -135h-522l27 135h215l-56 297h-626l-179 -297h224l-27 -135h-520zM489 565h523l-62 344l-41 221l-18 107q-24 -43 -402 -672zM588 1536v8l336 266h98l248 -266v-8h-150l-166 143l-209 -143h-157z" />
<glyph unicode="&#xc3;" horiz-adv-x="1468" d="M-125 0l27 135h127l784 1276h160l250 -1276h143l-27 -135h-522l27 135h215l-55 297h-627l-178 -297h223l-27 -135h-520zM455 565h522l-62 344l-41 221l-18 107q-32 -60 -401 -672zM551 1542q53 240 215 240q56 0 147 -60q74 -51 119 -51q33 0 55.5 25.5t40.5 87.5h113 q-53 -246 -207 -246q-60 0 -170 64q-83 47 -108 47q-65 0 -92 -107h-113z" />
<glyph unicode="&#xc4;" horiz-adv-x="1468" d="M-90 0l27 135h126l785 1276h160l249 -1276h144l-27 -135h-522l27 135h215l-56 297h-626l-179 -297h224l-27 -135h-520zM489 565h523l-62 344l-41 221l-18 107q-24 -43 -402 -672zM682 1642q0 50 28.5 81.5t77.5 31.5q37 0 61.5 -22t24.5 -62q0 -50 -27 -81t-79 -31 q-36 0 -61 23t-25 60zM1049 1642q0 50 29.5 81.5t78.5 31.5q37 0 60.5 -22t23.5 -62q0 -49 -27.5 -80.5t-76.5 -31.5q-38 0 -63 23t-25 60z" />
<glyph unicode="&#xc5;" horiz-adv-x="1468" d="M-90 0l27 135h126l785 1276h160l249 -1276h144l-27 -135h-522l27 135h215l-56 297h-626l-179 -297h224l-27 -135h-520zM489 565h523l-62 344l-41 221l-18 107q-24 -43 -402 -672zM752 1669q0 87 64.5 145t156.5 58q86 0 138 -53t52 -138q0 -88 -61 -148t-154 -60 q-86 0 -141 55t-55 141zM829 1673.5q-1 -53.5 34.5 -92.5t92.5 -39q56 0 93.5 39.5t37.5 95.5q0 60 -32 92q-32 36 -90.5 35t-96.5 -39t-39 -91.5z" />
<glyph unicode="&#xc6;" horiz-adv-x="2029" d="M-92 0l29 135h122l1006 1141h-199l29 135h1180l-60 -315h-135l25 180h-516l-101 -475h531l-31 -135h-528l-109 -531h598l55 199h135l-77 -334h-1067l28 135h170l66 307h-531l-272 -307h197l-27 -135h-518zM635 575h452l148 695q-75 -97 -600 -695z" />
<glyph unicode="&#xc7;" horiz-adv-x="1425" d="M125 553q0 390 262 643q255 246 625 246q123 0 235 -37q112 -34 166 -88l-47 -320h-137l24 244q-127 59 -260 59q-301 0 -501 -206q-93 -98 -146 -231.5t-53 -278.5q0 -219 129 -341t352 -122q246 0 440 141h9l-29 -172q-74 -55 -199 -87t-260 -32h-6l-45 -100 q93 -4 144 -49t51 -121q0 -106 -73.5 -165.5t-189.5 -59.5q-122 0 -176 51l23 104h8q61 -49 139 -49q131 0 131 103q0 43 -30 68.5t-88 25.5q-43 0 -84 -12l-7 6l95 207q-227 27 -367 182q-135 153 -135 391z" />
<glyph unicode="&#xc8;" d="M-27 0l27 135h178l242 1141h-193l29 135h1001l-59 -315h-135l24 180h-512l-102 -473h533l-31 -139h-531l-112 -529h600l55 199h135l-78 -334h-1071zM446 1802v8h232l274 -266v-8h-161z" />
<glyph unicode="&#xc9;" d="M-27 0l27 135h178l242 1141h-193l29 135h1001l-59 -315h-135l24 180h-512l-102 -473h533l-31 -139h-531l-112 -529h600l55 199h135l-78 -334h-1071zM639 1536v8l342 266h248v-8l-422 -266h-168z" />
<glyph unicode="&#xca;" d="M-27 0l27 135h178l242 1141h-193l29 135h1001l-59 -315h-135l24 180h-512l-102 -473h533l-31 -139h-531l-112 -529h600l55 199h135l-78 -334h-1071zM455 1536v8l336 266h98l248 -266v-8h-150l-166 143l-209 -143h-157z" />
<glyph unicode="&#xcb;" d="M-27 0l27 135h178l242 1141h-193l29 135h1001l-59 -315h-135l24 180h-512l-102 -473h533l-31 -139h-531l-112 -529h600l55 199h135l-78 -334h-1071zM539 1642q0 50 28.5 81.5t77.5 31.5q37 0 61.5 -22t24.5 -62q0 -50 -27 -81t-79 -31q-36 0 -61 23t-25 60zM905 1642 q0 50 30 81.5t79 31.5q37 0 60.5 -22t23.5 -62q0 -49 -28 -80.5t-77 -31.5q-38 0 -63 23t-25 60z" />
<glyph unicode="&#xcc;" horiz-adv-x="663" d="M-27 0l27 135h178l242 1141h-193l29 135h528l-28 -135h-181l-243 -1141h196l-26 -135h-529zM197 1802v8h231l274 -266v-8h-161z" />
<glyph unicode="&#xcd;" horiz-adv-x="663" d="M-27 0l27 135h178l242 1141h-193l29 135h528l-28 -135h-181l-243 -1141h196l-26 -135h-529zM352 1536v8l342 266h248v-8l-422 -266h-168z" />
<glyph unicode="&#xce;" horiz-adv-x="663" d="M-27 0l27 135h178l242 1141h-193l29 135h528l-28 -135h-181l-243 -1141h196l-26 -135h-529zM203 1536v8l336 266h98l248 -266v-8h-150l-166 143l-209 -143h-157z" />
<glyph unicode="&#xcf;" horiz-adv-x="663" d="M-27 0l27 135h178l242 1141h-193l29 135h528l-28 -135h-181l-243 -1141h196l-26 -135h-529zM283 1642q0 50 28.5 81.5t77.5 31.5q37 0 61.5 -22t24.5 -62q0 -50 -27 -81t-79 -31q-36 0 -61 23t-25 60zM649 1642q0 50 30 81.5t79 31.5q37 0 60.5 -22t23.5 -62 q0 -49 -28 -80.5t-77 -31.5q-38 0 -63 23t-25 60z" />
<glyph unicode="&#xd0;" horiz-adv-x="1558" d="M-27 0l27 135h178l113 541h-244l27 125h243l101 475h-191l29 135h510q274 0 428 -59q150 -58 231.5 -185t81.5 -311q0 -277 -123 -478.5t-368 -299.5q-200 -78 -541 -78h-502zM330 135h207q314 0 485 98q153 85 237 244.5t84 353.5q0 287 -192 381q-122 64 -375 64h-201 l-102 -475h371l-27 -125h-371z" />
<glyph unicode="&#xd1;" horiz-adv-x="1562" d="M-27 0l27 135h180l240 1141h-193l29 135h350q424 -875 537 -1141q58 301 209 1006h-211l28 135h527l-29 -135h-166l-266 -1276h-127l-557 1190l-107 -510q-97 -455 -114 -545h198l-26 -135h-529zM684 1542q52 240 215 240q57 0 148 -60q74 -51 118 -51q33 0 56 25.5 t41 87.5h112q-52 -246 -207 -246q-60 0 -170 64q-83 47 -108 47q-65 0 -92 -107h-113z" />
<glyph unicode="&#xd2;" horiz-adv-x="1599" d="M131 578q0 181 66.5 348t191.5 288q232 226 545 226q275 0 444 -158q168 -155 168 -440q0 -182 -59.5 -348.5t-173.5 -286.5q-230 -236 -559 -236q-275 0 -449 162t-174 445zM291 598q0 -216 125 -350q126 -135 358 -135q254 0 424 182q90 95 139 234.5t49 289.5 q0 212 -122 346q-120 135 -353 135q-254 0 -426 -184q-91 -100 -142.5 -237.5t-51.5 -280.5zM653 1802v8h232l274 -266v-8h-162z" />
<glyph unicode="&#xd3;" horiz-adv-x="1599" d="M131 578q0 181 66.5 348t191.5 288q232 226 545 226q275 0 444 -158q168 -155 168 -440q0 -182 -59.5 -348.5t-173.5 -286.5q-230 -236 -559 -236q-275 0 -449 162t-174 445zM291 598q0 -216 125 -350q126 -135 358 -135q254 0 424 182q90 95 139 234.5t49 289.5 q0 212 -122 346q-120 135 -353 135q-254 0 -426 -184q-91 -100 -142.5 -237.5t-51.5 -280.5zM774 1536v8l342 266h248v-8l-422 -266h-168z" />
<glyph unicode="&#xd4;" horiz-adv-x="1599" d="M131 578q0 181 66.5 348t191.5 288q232 226 545 226q275 0 444 -158q168 -155 168 -440q0 -182 -59.5 -348.5t-173.5 -286.5q-230 -236 -559 -236q-275 0 -449 162t-174 445zM291 598q0 -216 125 -350q126 -135 358 -135q254 0 424 182q90 95 139 234.5t49 289.5 q0 212 -122 346q-120 135 -353 135q-254 0 -426 -184q-91 -100 -142.5 -237.5t-51.5 -280.5zM629 1536v8l336 266h98l248 -266v-8h-150l-166 143l-209 -143h-157z" />
<glyph unicode="&#xd5;" horiz-adv-x="1599" d="M96 578q0 181 66.5 348t191.5 288q232 226 545 226q275 0 444 -158q168 -155 168 -440q0 -182 -59.5 -348.5t-173.5 -286.5q-230 -236 -559 -236q-275 0 -449 162t-174 445zM256 598q0 -216 125 -350q126 -135 358 -135q254 0 424 182q90 96 139.5 235.5t49.5 288.5 q0 211 -123 346q-120 135 -352 135q-254 0 -426 -184q-91 -100 -143 -238t-52 -280zM629 1542q53 240 215 240q56 0 147 -60q74 -51 119 -51q33 0 55.5 25.5t40.5 87.5h113q-53 -246 -207 -246q-60 0 -170 64q-83 47 -108 47q-66 0 -93 -107h-112z" />
<glyph unicode="&#xd6;" horiz-adv-x="1599" d="M131 578q0 181 66.5 348t191.5 288q232 226 545 226q275 0 444 -158q168 -155 168 -440q0 -182 -59.5 -348.5t-173.5 -286.5q-230 -236 -559 -236q-275 0 -449 162t-174 445zM291 598q0 -216 125 -350q126 -135 358 -135q254 0 424 182q90 95 139 234.5t49 289.5 q0 212 -122 346q-120 135 -353 135q-254 0 -426 -184q-91 -100 -142.5 -237.5t-51.5 -280.5zM745 1642q0 50 29 81.5t78 31.5q37 0 61.5 -22t24.5 -62q0 -50 -27.5 -81t-79.5 -31q-36 0 -61 23t-25 60zM1112 1642q0 50 30 81.5t79 31.5q37 0 60.5 -22t23.5 -62 q0 -49 -28 -80.5t-77 -31.5q-38 0 -63 23t-25 60z" />
<glyph unicode="&#xd7;" horiz-adv-x="1433" d="M270 244l410 364l-320 367l86 74l320 -363l405 361l74 -78l-407 -365l319 -360l-88 -76l-317 358l-408 -362z" />
<glyph unicode="&#xd8;" horiz-adv-x="1599" d="M125 578q0 176 67.5 344.5t190.5 291.5q232 226 545 226q193 0 340 -84l102 131h131l-149 -191q190 -163 190 -462q0 -178 -59.5 -342.5t-175.5 -284.5q-227 -236 -559 -236q-205 0 -359 95l-104 -134h-131l151 195q-180 168 -180 451zM287 598q0 -216 116 -344l768 981 q-112 65 -266 65q-252 0 -424 -184q-92 -100 -143 -236t-51 -282zM483 186q113 -73 285 -73q254 0 424 182q90 95 139 234.5t49 289.5q0 220 -127 350z" />
<glyph unicode="&#xd9;" horiz-adv-x="1540" d="M195 373q0 94 28 237l142 666h-170l28 135h527l-29 -135h-203l-135 -639q-31 -155 -31 -231q0 -139 92 -215t252 -76q251 0 371 153q87 113 139 359l137 649h-219l29 135h526l-28 -135h-164l-141 -664q-60 -290 -146 -405q-82 -109 -217.5 -172.5t-304.5 -63.5 q-214 0 -348 101q-135 102 -135 301zM596 1802v8h231l275 -266v-8h-162z" />
<glyph unicode="&#xda;" horiz-adv-x="1540" d="M195 373q0 94 28 237l142 666h-170l28 135h527l-29 -135h-203l-135 -639q-31 -155 -31 -231q0 -139 92 -215t252 -76q251 0 371 153q87 113 139 359l137 649h-219l29 135h526l-28 -135h-164l-141 -664q-60 -290 -146 -405q-82 -109 -217.5 -172.5t-304.5 -63.5 q-214 0 -348 101q-135 102 -135 301zM760 1536v8l342 266h248v-8l-422 -266h-168z" />
<glyph unicode="&#xdb;" horiz-adv-x="1540" d="M195 373q0 94 28 237l142 666h-170l28 135h527l-29 -135h-203l-135 -639q-31 -155 -31 -231q0 -139 92 -215t252 -76q251 0 371 153q87 113 139 359l137 649h-219l29 135h526l-28 -135h-164l-141 -664q-60 -290 -146 -405q-82 -109 -217.5 -172.5t-304.5 -63.5 q-214 0 -348 101q-135 102 -135 301zM616 1536v8l336 266h99l247 -266v-8h-149l-166 143l-209 -143h-158z" />
<glyph unicode="&#xdc;" horiz-adv-x="1540" d="M195 373q0 94 28 237l142 666h-170l28 135h527l-29 -135h-203l-135 -639q-31 -155 -31 -231q0 -139 92 -215t252 -76q251 0 371 153q87 113 139 359l137 649h-219l29 135h526l-28 -135h-164l-141 -664q-60 -290 -146 -405q-82 -109 -217.5 -172.5t-304.5 -63.5 q-214 0 -348 101q-135 102 -135 301zM700 1642q0 50 29 81.5t78 31.5q37 0 61.5 -22t24.5 -62q0 -50 -27.5 -81t-79.5 -31q-36 0 -61 23t-25 60zM1067 1642q0 50 30 81.5t79 31.5q37 0 60.5 -22t23.5 -62q0 -49 -28 -80.5t-77 -31.5q-38 0 -63 23t-25 60z" />
<glyph unicode="&#xdd;" horiz-adv-x="1402" d="M174 1276l29 135h528l-29 -135h-202q182 -423 235 -574l475 574h-192l29 135h528l-31 -135h-147l-606 -707l-91 -436h193l-29 -133h-530l26 133h183l92 436l-307 707h-154zM731 1536v8l342 266h248v-8l-422 -266h-168z" />
<glyph unicode="&#xde;" horiz-adv-x="1339" d="M-2 0l29 135h180l242 1141h-191l29 135h534l-28 -135h-189l-24 -119h206q211 0 322 -51q84 -38 134 -119t50 -188q0 -170 -83.5 -291t-247.5 -174q-128 -43 -314 -43h-252l-33 -156h234l-29 -135h-569zM424 430h235q202 0 293 45q176 86 176 305q0 142 -108 195 q-87 43 -254 43h-219z" />
<glyph unicode="&#xdf;" horiz-adv-x="1224" d="M12 -266l250 1239q53 259 141 373q132 170 381 170q181 0 269 -101q90 -104 90 -229q0 -152 -96 -271q-93 -115 -246 -153q141 -13 226 -105t85 -229q0 -200 -125 -328q-124 -127 -332 -127q-182 0 -288 86l30 144h9q101 -94 258 -94q139 0 218 80.5t79 220.5 q0 125 -95.5 200.5t-273.5 75.5h-45l24 135h47q162 0 262.5 94t100.5 248q0 100 -55 159.5t-162 59.5q-150 0 -236 -102q-72 -83 -116 -293l-254 -1253h-146z" />
<glyph unicode="&#xe0;" horiz-adv-x="1318" d="M82 373q0 141 64 278t178 234q174 145 389 145q245 0 315 -184l37 158h135l-151 -689q-17 -97 -17 -114q0 -84 82 -84q75 0 125 33l6 -3l-28 -131q-68 -32 -158 -32q-182 0 -182 143q0 38 8 74q-135 -228 -408 -228q-180 0 -287.5 106t-107.5 294zM238 393 q0 -138 74 -209t206 -71q118 0 228 75t176 207l65 281q-22 109 -99 163t-190 54q-163 0 -284 -109q-80 -72 -128 -179t-48 -212zM461 1511v9h205l241 -330v-8h-139z" />
<glyph unicode="&#xe1;" horiz-adv-x="1318" d="M82 373q0 141 64 278t178 234q174 145 389 145q245 0 315 -184l37 158h135l-151 -689q-17 -97 -17 -114q0 -84 82 -84q75 0 125 33l6 -3l-28 -131q-68 -32 -158 -32q-182 0 -182 143q0 38 8 74q-135 -228 -408 -228q-180 0 -287.5 106t-107.5 294zM238 393 q0 -138 74 -209t206 -71q118 0 228 75t176 207l65 281q-22 109 -99 163t-190 54q-163 0 -284 -109q-80 -72 -128 -179t-48 -212zM649 1182v8l316 330h211v-9l-383 -329h-144z" />
<glyph unicode="&#xe2;" horiz-adv-x="1318" d="M82 373q0 141 64 278t178 234q174 145 389 145q245 0 315 -184l37 158h135l-151 -689q-17 -97 -17 -114q0 -84 82 -84q75 0 125 33l6 -3l-28 -131q-68 -32 -158 -32q-182 0 -182 143q0 38 8 74q-135 -228 -408 -228q-180 0 -287.5 106t-107.5 294zM238 393 q0 -138 74 -209t206 -71q118 0 228 75t176 207l65 281q-22 109 -99 163t-190 54q-163 0 -284 -109q-80 -72 -128 -179t-48 -212zM469 1178v8l338 321h86l215 -321v-8h-133l-144 182l-215 -182h-147z" />
<glyph unicode="&#xe3;" horiz-adv-x="1318" d="M82 373q0 141 64 278t178 234q174 145 389 145q245 0 315 -184l37 158h135l-151 -689q-17 -97 -17 -114q0 -84 82 -84q75 0 125 33l6 -3l-28 -131q-68 -32 -158 -32q-182 0 -182 143q0 38 8 74q-135 -228 -408 -228q-180 0 -287.5 106t-107.5 294zM238 393 q0 -138 74 -209t206 -71q118 0 228 75t176 207l65 281q-22 109 -99 163t-190 54q-163 0 -284 -109q-80 -72 -128 -179t-48 -212zM514 1221q55 241 211 241q63 0 145 -61q68 -51 111 -51q33 0 53 25.5t39 90.5h111q-26 -122 -80.5 -187t-124.5 -65q-59 0 -160 64 q-76 49 -106 49q-61 0 -88 -106h-111z" />
<glyph unicode="&#xe4;" horiz-adv-x="1318" d="M82 373q0 141 64 278t178 234q174 145 389 145q245 0 315 -184l37 158h135l-151 -689q-17 -97 -17 -114q0 -84 82 -84q75 0 125 33l6 -3l-28 -131q-68 -32 -158 -32q-182 0 -182 143q0 38 8 74q-135 -228 -408 -228q-180 0 -287.5 106t-107.5 294zM238 393 q0 -138 74 -209t206 -71q118 0 228 75t176 207l65 281q-22 109 -99 163t-190 54q-163 0 -284 -109q-80 -72 -128 -179t-48 -212zM575 1329q0 50 30 82.5t77 32.5q37 0 61.5 -23t24.5 -63q0 -49 -27.5 -80t-76.5 -31q-38 0 -63.5 22.5t-25.5 59.5zM930 1329q0 50 29.5 82.5 t78.5 32.5q34 0 59 -23.5t25 -62.5q0 -49 -27.5 -80t-76.5 -31q-38 0 -63 22.5t-25 59.5z" />
<glyph unicode="&#xe5;" horiz-adv-x="1318" d="M82 373q0 141 64 278t178 234q174 145 389 145q245 0 315 -184l37 158h135l-151 -689q-17 -97 -17 -116q0 -82 82 -82q75 0 125 33l6 -3l-28 -131q-68 -32 -158 -32q-182 0 -182 145q0 36 8 72q-135 -228 -408 -228q-180 0 -287.5 106t-107.5 294zM238 393 q0 -138 74 -209t206 -71q118 0 228 75t176 207l65 281q-22 109 -99 163t-190 54q-163 0 -284 -109q-80 -72 -128 -179t-48 -212zM639 1366q0 90 65 149.5t158 59.5q90 0 143.5 -54.5t53.5 -142.5q0 -92 -61.5 -152.5t-157.5 -60.5q-87 0 -144 57t-57 144zM715.5 1371 q-0.5 -55 36.5 -95.5t96 -40.5q56 0 94.5 40.5t38.5 98.5q0 61 -33 94q-32 37 -91.5 36.5t-100.5 -38.5q-40 -40 -40.5 -95z" />
<glyph unicode="&#xe6;" horiz-adv-x="1781" d="M43 258q0 211 211 287q130 47 369 47q78 0 155 -14q4 38 8.5 72t6.5 49t2 16q0 176 -236 176q-200 0 -356 -129h-8l24 145q162 125 375 125q274 0 317 -196q164 194 414 194q190 0 292.5 -94.5t102.5 -265.5q0 -90 -30 -213h-779q-4 -20 -4 -49q0 -143 84.5 -220 t243.5 -77q212 0 389 145h8l-26 -158q-146 -125 -400 -125q-281 0 -389 191q-164 -191 -428 -191q-161 0 -254 84q-92 86 -92 201zM199 272q0 -70 59 -116.5t160 -46.5q214 0 358 163q-14 49 -14 125q0 34 4 62q-99 12 -174 12q-162 0 -260 -29q-133 -41 -133 -170zM930 582 h635q10 38 10 88q0 227 -268 227q-132 0 -235 -79t-142 -236z" />
<glyph unicode="&#xe7;" horiz-adv-x="1067" d="M82 393q0 154 69.5 293.5t192.5 226.5q156 117 377 117q215 0 303 -88l-45 -270h-133l22 186q-70 33 -170 33q-163 0 -282 -94q-81 -64 -130.5 -166t-49.5 -211q0 -157 94 -230t231 -73q192 0 336 114h8l-31 -161q-122 -88 -317 -97l-45 -98q91 -4 140.5 -48t49.5 -118 q0 -106 -73 -163.5t-195 -57.5q-104 0 -155 45l20 102h8q70 -43 135 -43q129 0 129 103q0 40 -30.5 65t-85.5 25q-42 0 -78 -8l-6 4l86 196q-171 19 -273 129t-102 287z" />
<glyph unicode="&#xe8;" horiz-adv-x="1099" d="M82 397q0 132 50.5 255.5t139.5 215.5q76 77 182.5 119.5t209.5 42.5q183 0 287 -101t104 -274q0 -105 -27 -204h-792q-1 -10 -2 -22t-2 -20.5t-1 -13.5q0 -132 89.5 -208t252.5 -76q214 0 388 145h8l-27 -158q-66 -59 -172.5 -92t-218.5 -33q-220 0 -344.5 114 t-124.5 310zM258 578h643q8 31 8 88q0 231 -264 231q-116 0 -231 -80q-116 -78 -156 -239zM371 1511v9h204l242 -330v-8h-139z" />
<glyph unicode="&#xe9;" horiz-adv-x="1099" d="M82 397q0 132 50.5 255.5t139.5 215.5q76 77 182.5 119.5t209.5 42.5q183 0 287 -101t104 -274q0 -105 -27 -204h-792q-1 -10 -2 -22t-2 -20.5t-1 -13.5q0 -132 89.5 -208t252.5 -76q214 0 388 145h8l-27 -158q-66 -59 -172.5 -92t-218.5 -33q-220 0 -344.5 114 t-124.5 310zM258 578h643q8 31 8 88q0 231 -264 231q-116 0 -231 -80q-116 -78 -156 -239zM535 1182v8l315 330h211v-9l-383 -329h-143z" />
<glyph unicode="&#xea;" horiz-adv-x="1099" d="M82 397q0 132 50.5 255.5t139.5 215.5q76 77 182.5 119.5t209.5 42.5q183 0 287 -101t104 -274q0 -105 -27 -204h-792q-1 -10 -2 -22t-2 -20.5t-1 -13.5q0 -132 89.5 -208t252.5 -76q214 0 388 145h8l-27 -158q-66 -59 -172.5 -92t-218.5 -33q-220 0 -344.5 114 t-124.5 310zM258 578h643q8 31 8 88q0 231 -264 231q-116 0 -231 -80q-116 -78 -156 -239zM391 1178v8l338 321h86l215 -321v-8h-133l-143 182l-215 -182h-148z" />
<glyph unicode="&#xeb;" horiz-adv-x="1099" d="M82 397q0 132 50.5 255.5t139.5 215.5q76 77 182.5 119.5t209.5 42.5q183 0 287 -101t104 -274q0 -105 -27 -204h-792q-1 -10 -2 -22t-2 -20.5t-1 -13.5q0 -132 89.5 -208t252.5 -76q214 0 388 145h8l-27 -158q-66 -59 -172.5 -92t-218.5 -33q-220 0 -344.5 114 t-124.5 310zM258 578h643q8 31 8 88q0 231 -264 231q-116 0 -231 -80q-116 -78 -156 -239zM469 1329q0 50 29.5 82.5t76.5 32.5q37 0 62 -23t25 -63q0 -49 -27.5 -80t-77.5 -31q-38 0 -63 22.5t-25 59.5zM823 1329q0 50 30 82.5t79 32.5q34 0 59 -23.5t25 -62.5 q0 -49 -27.5 -80t-77.5 -31q-38 0 -63 22.5t-25 59.5z" />
<glyph unicode="&#xec;" horiz-adv-x="612" d="M63 1511v9h205l242 -330v-8h-139zM129 870l29 134h334l-156 -693q-19 -81 -19 -116q0 -78 82 -78q71 0 127 33l6 -3l-28 -131q-71 -32 -150 -32q-192 0 -192 155q0 50 16 125l135 606h-184z" />
<glyph unicode="&#xed;" horiz-adv-x="612" d="M129 870l29 134h334l-156 -693q-19 -81 -19 -116q0 -78 82 -78q71 0 127 33l6 -3l-28 -131q-71 -32 -150 -32q-192 0 -192 155q0 50 16 125l135 606h-184zM242 1182v8l315 330h211v-9l-383 -329h-143z" />
<glyph unicode="&#xee;" horiz-adv-x="612" d="M68 1178v8l338 321h86l215 -321v-8h-134l-143 182l-215 -182h-147zM129 870l29 134h334l-156 -693q-19 -81 -19 -116q0 -78 82 -78q71 0 127 33l6 -3l-28 -131q-71 -32 -150 -32q-192 0 -192 155q0 50 16 125l135 606h-184z" />
<glyph unicode="&#xef;" horiz-adv-x="612" d="M129 870l29 134h334l-156 -693q-19 -81 -19 -116q0 -78 82 -78q71 0 127 33l6 -3l-28 -131q-71 -32 -150 -32q-192 0 -192 155q0 50 16 125l135 606h-184zM145 1329q0 50 30 82.5t77 32.5q37 0 61.5 -23t24.5 -63q0 -49 -27.5 -80t-77.5 -31q-38 0 -63 22.5t-25 59.5z M500 1329q0 50 29.5 82.5t78.5 32.5q34 0 59 -23.5t25 -62.5q0 -49 -27.5 -80t-76.5 -31q-38 0 -63 22.5t-25 59.5z" />
<glyph unicode="&#xf0;" horiz-adv-x="1230" d="M84 406q0 282 192 462q165 154 396 154q103 0 189 -39t126 -111q-24 196 -147 340l-250 -151l24 137l150 90q-105 88 -252 135l51 107q194 -54 322 -168l239 145l-24 -137l-139 -86q182 -218 182 -567q0 -398 -199 -588q-164 -156 -395 -156q-199 0 -332 115t-133 318z M238 424q0 -138 86 -227q86 -86 241 -86q158 0 273 112q67 62 105 161.5t38 205.5q0 141 -83.5 221t-231.5 80q-172 0 -287 -115q-141 -138 -141 -352z" />
<glyph unicode="&#xf1;" horiz-adv-x="1271" d="M123 0l186 870h-186l29 134h327l-43 -195q124 219 381 219q121 0 195.5 -64t74.5 -188q0 -91 -28 -215l-60 -252q-16 -75 -16 -110q0 -43 19 -62.5t63 -19.5q69 0 125 35l6 -2l-29 -134q-74 -32 -149 -32q-89 0 -140 38t-51 111q0 52 17 135l65 281q25 113 25 176 q0 162 -180 162q-101 0 -194.5 -70t-151.5 -178l-140 -639h-145zM424 1221q55 241 211 241q63 0 145 -61q68 -51 111 -51q33 0 53 25.5t39 90.5h111q-26 -122 -80.5 -187t-124.5 -65q-59 0 -160 64q-76 49 -106 49q-61 0 -88 -106h-111z" />
<glyph unicode="&#xf2;" d="M82 416q0 264 194 452q171 162 400 162q193 0 323 -115q129 -114 129 -317q0 -281 -190 -465q-168 -160 -399 -160q-195 0 -326 119t-131 324zM233 434q0 -143 86.5 -233t233.5 -90q162 0 278 110q144 138 144 359q0 143 -82 228t-227 85q-166 0 -285 -113 q-148 -142 -148 -346zM362 1511v9h205l242 -330v-8h-139z" />
<glyph unicode="&#xf3;" d="M82 416q0 264 194 452q171 162 400 162q193 0 323 -115q129 -114 129 -317q0 -281 -190 -465q-168 -160 -399 -160q-195 0 -326 119t-131 324zM233 434q0 -143 86.5 -233t233.5 -90q162 0 278 110q144 138 144 359q0 143 -82 228t-227 85q-166 0 -285 -113 q-148 -142 -148 -346zM551 1182v8l315 330h211v-9l-383 -329h-143z" />
<glyph unicode="&#xf4;" d="M82 416q0 264 194 452q171 162 400 162q193 0 323 -115q129 -114 129 -317q0 -281 -190 -465q-168 -160 -399 -160q-195 0 -326 119t-131 324zM233 434q0 -143 86.5 -233t233.5 -90q162 0 278 110q144 138 144 359q0 143 -82 228t-227 85q-166 0 -285 -113 q-148 -142 -148 -346zM414 1178v8l338 321h86l215 -321v-8h-133l-144 182l-215 -182h-147z" />
<glyph unicode="&#xf5;" d="M82 416q0 264 194 452q171 162 400 162q193 0 323 -115q129 -114 129 -317q0 -281 -190 -465q-168 -160 -399 -160q-195 0 -326 119t-131 324zM233 434q0 -143 86.5 -233t233.5 -90q162 0 278 110q144 138 144 359q0 143 -82 228t-227 85q-166 0 -285 -113 q-148 -142 -148 -346zM422 1221q55 241 211 241q63 0 145 -61q68 -51 111 -51q33 0 53 25.5t39 90.5h111q-26 -122 -80.5 -187t-124.5 -65q-59 0 -160 64q-76 49 -106 49q-63 0 -89 -106h-110z" />
<glyph unicode="&#xf6;" d="M82 416q0 264 194 452q171 162 400 162q193 0 323 -115q129 -114 129 -317q0 -281 -190 -465q-168 -160 -399 -160q-195 0 -326 119t-131 324zM233 434q0 -143 86.5 -233t233.5 -90q162 0 278 110q144 138 144 359q0 143 -82 228t-227 85q-166 0 -285 -113 q-148 -142 -148 -346zM483 1329q0 50 30 82.5t77 32.5q34 0 60 -23.5t26 -62.5q0 -49 -27.5 -80t-77.5 -31q-38 0 -63 22.5t-25 59.5zM838 1329q0 50 29.5 82.5t78.5 32.5q34 0 59 -23.5t25 -62.5q0 -49 -27.5 -80t-76.5 -31q-38 0 -63 22.5t-25 59.5z" />
<glyph unicode="&#xf7;" horiz-adv-x="1433" d="M201 549l22 113h1067l-24 -113h-1065zM588 244q0 53 26 81.5t70 28.5q72 0 72 -69q0 -49 -25.5 -82t-71.5 -33q-71 0 -71 74zM739 920q0 50 27.5 78t71.5 28q73 0 73 -68q0 -49 -27 -81.5t-73 -32.5q-72 0 -72 76z" />
<glyph unicode="&#xf8;" d="M86 416q0 263 195 452q171 162 399 162q118 0 225 -49l86 111h127l-129 -166q144 -120 144 -328q0 -280 -191 -465q-168 -160 -399 -160q-139 0 -248 62l-84 -109h-123l129 166q-131 119 -131 324zM238 434q0 -136 73 -221l504 651q-69 29 -145 29q-166 0 -285 -113 q-147 -141 -147 -346zM385 152q71 -41 172 -41q159 0 279 114q141 135 141 355q0 142 -82 227z" />
<glyph unicode="&#xf9;" horiz-adv-x="1298" d="M113 870l28 134h328l-115 -549q-20 -97 -20 -164q0 -88 53.5 -131t147.5 -43q98 0 193.5 63.5t156.5 163.5l139 660h147l-145 -685q-18 -82 -18 -120q0 -82 84 -82q72 0 122 33l7 -3l-27 -131q-74 -32 -160 -32q-83 0 -129.5 35t-46.5 102q0 34 8 65q-150 -211 -389 -211 q-130 0 -213.5 66.5t-83.5 191.5q0 81 25 209l90 428h-182zM399 1511v9h205l242 -330v-8h-139z" />
<glyph unicode="&#xfa;" horiz-adv-x="1298" d="M113 870l28 134h328l-115 -549q-20 -97 -20 -164q0 -88 53.5 -131t147.5 -43q98 0 193.5 63.5t156.5 163.5l139 660h147l-145 -682q-18 -82 -18 -123q0 -82 84 -82q72 0 122 33l7 -3l-27 -131q-74 -32 -160 -32q-83 0 -129.5 35t-46.5 102q0 34 8 65q-150 -211 -389 -211 q-130 0 -213.5 66.5t-83.5 191.5q0 81 25 209l90 428h-182zM586 1182v8l315 330h211v-9l-383 -329h-143z" />
<glyph unicode="&#xfb;" horiz-adv-x="1298" d="M113 870l28 134h328l-115 -549q-20 -97 -20 -164q0 -88 53.5 -131t147.5 -43q98 0 193.5 63.5t156.5 163.5l139 660h147l-145 -685q-18 -82 -18 -120q0 -82 84 -82q72 0 122 33l7 -3l-27 -131q-74 -32 -160 -32q-83 0 -129.5 35t-46.5 102q0 34 8 65q-150 -211 -389 -211 q-130 0 -213.5 66.5t-83.5 191.5q0 81 25 209l90 428h-182zM408 1178v8l337 321h86l216 -321v-8h-134l-143 182l-215 -182h-147z" />
<glyph unicode="&#xfc;" horiz-adv-x="1298" d="M113 870l28 134h328l-115 -549q-20 -97 -20 -164q0 -88 53.5 -131t147.5 -43q98 0 193.5 63.5t156.5 163.5l139 660h147l-145 -685q-18 -82 -18 -120q0 -82 84 -82q72 0 122 33l7 -3l-27 -131q-74 -32 -160 -32q-83 0 -129.5 35t-46.5 102q0 34 8 65q-150 -211 -389 -211 q-130 0 -213.5 66.5t-83.5 191.5q0 81 25 209l90 428h-182zM467 1329q0 50 29.5 82.5t76.5 32.5q34 0 60 -23.5t26 -62.5q0 -49 -27.5 -80t-76.5 -31q-38 0 -63 22.5t-25 59.5zM821 1329q0 50 30 82.5t79 32.5q34 0 59 -23.5t25 -62.5q0 -49 -27.5 -80t-77.5 -31 q-38 0 -63 22.5t-25 59.5z" />
<glyph unicode="&#xfd;" horiz-adv-x="1261" d="M111 -295l34 143h9q116 -131 327 -131q184 0 264 115q52 67 93 262l18 82q-136 -201 -375 -201q-131 0 -216 66.5t-85 191.5q0 81 25 209l90 428h-182l28 134h328l-115 -549q-20 -97 -20 -164q0 -88 55 -131t150 -43q101 0 192.5 62t153.5 165l139 660h147l-186 -900 q-50 -242 -104 -327q-123 -197 -412 -197q-239 0 -358 125zM586 1182v8l315 330h211v-9l-383 -329h-143z" />
<glyph unicode="&#xfe;" horiz-adv-x="1314" d="M8 -397l371 1755h-180l28 133h322l-143 -678q66 98 180.5 157.5t238.5 59.5q170 0 283 -104t113 -291q0 -324 -191 -500q-160 -145 -401 -145q-117 0 -216 51.5t-137 132.5l-122 -571h-146zM313 367q21 -119 121 -181q100 -59 215 -59q179 0 279 100q137 134 137 373 q0 139 -75 215t-204 76q-122 0 -233 -63.5t-178 -182.5z" />
<glyph unicode="&#xff;" horiz-adv-x="1261" d="M111 -295l34 143h9q116 -131 327 -131q184 0 264 115q52 67 93 262l18 82q-136 -201 -375 -201q-131 0 -216 66.5t-85 191.5q0 81 25 209l90 428h-182l28 134h328l-115 -549q-20 -97 -20 -164q0 -88 55 -131t150 -43q101 0 192.5 62t153.5 165l139 660h147l-186 -900 q-50 -242 -104 -327q-123 -197 -412 -197q-239 0 -358 125zM473 1329q0 50 30 82.5t77 32.5q37 0 61.5 -23t24.5 -63q0 -49 -27.5 -80t-77.5 -31q-38 0 -63 22.5t-25 59.5zM827 1329q0 50 30 82.5t79 32.5q34 0 59 -23.5t25 -62.5q0 -49 -27.5 -80t-77.5 -31q-38 0 -63 22.5 t-25 59.5z" />
<glyph unicode="&#x152;" horiz-adv-x="2242" d="M125 578q0 176 67.5 344.5t190.5 291.5q232 226 549 226q372 0 495 -254l48 225h811l-60 -315h-135l27 180h-516l-101 -475h531l-31 -135h-528l-111 -531h600l53 199h137l-77 -334h-897l36 164q-184 -193 -466 -193q-273 0 -447 162q-176 164 -176 445zM287 598 q0 -215 123 -350q126 -135 356 -135q143 0 277.5 73.5t216.5 196.5l122 596q-36 151 -156.5 236t-312.5 85q-260 0 -432 -184q-92 -100 -143 -236t-51 -282z" />
<glyph unicode="&#x153;" horiz-adv-x="1968" d="M84 406q0 286 188 468q164 156 394 156q145 0 252 -61.5t153 -177.5q68 110 187.5 174.5t259.5 64.5q189 0 290 -94.5t101 -267.5q0 -102 -33 -217h-780q-2 -12 -2 -60q0 -134 86.5 -207t251.5 -73q206 0 380 143h9l-27 -156q-66 -59 -173 -92t-220 -33q-317 0 -408 230 q-163 -230 -452 -230q-195 0 -328 115q-129 114 -129 318zM238 424q0 -142 85.5 -227.5t235.5 -85.5q155 0 266 108q138 132 138 371q0 142 -81.5 222.5t-232.5 80.5q-158 0 -272 -111q-139 -139 -139 -358zM1118 578h635q10 45 10 88q0 231 -264 231q-125 0 -235 -78 q-105 -74 -146 -241z" />
<glyph unicode="&#x178;" horiz-adv-x="1402" d="M174 1276l29 135h528l-29 -135h-202q182 -423 235 -574l475 574h-192l29 135h528l-31 -135h-147l-606 -707l-91 -436h193l-29 -133h-530l26 133h183l92 436l-307 707h-154zM627 1642q0 50 28.5 81.5t77.5 31.5q37 0 61.5 -22t24.5 -62q0 -50 -27 -81t-79 -31 q-36 0 -61 23t-25 60zM993 1642q0 50 30 81.5t79 31.5q37 0 60.5 -22t23.5 -62q0 -49 -28 -80.5t-77 -31.5q-38 0 -63 23t-25 60z" />
<glyph unicode="&#x2c6;" horiz-adv-x="432" d="M-104 1178v8l337 321h86l216 -321v-8h-134l-143 182l-215 -182h-147z" />
<glyph unicode="&#x2dc;" horiz-adv-x="432" d="M-119 1221q55 241 211 241q64 0 146 -61q68 -51 110 -51q33 0 53 25.5t39 90.5h111q-26 -122 -80.5 -187t-124.5 -65q-59 0 -160 64q-76 49 -106 49q-62 0 -88 -106h-111z" />
<glyph unicode="&#x2000;" horiz-adv-x="936" />
<glyph unicode="&#x2001;" horiz-adv-x="1872" />
<glyph unicode="&#x2002;" horiz-adv-x="936" />
<glyph unicode="&#x2003;" horiz-adv-x="1872" />
<glyph unicode="&#x2004;" horiz-adv-x="624" />
<glyph unicode="&#x2005;" horiz-adv-x="468" />
<glyph unicode="&#x2006;" horiz-adv-x="312" />
<glyph unicode="&#x2007;" horiz-adv-x="312" />
<glyph unicode="&#x2008;" horiz-adv-x="234" />
<glyph unicode="&#x2009;" horiz-adv-x="374" />
<glyph unicode="&#x200a;" horiz-adv-x="104" />
<glyph unicode="&#x2010;" horiz-adv-x="655" d="M82 489l29 138h493l-29 -138h-493z" />
<glyph unicode="&#x2011;" horiz-adv-x="655" d="M82 489l29 138h493l-29 -138h-493z" />
<glyph unicode="&#x2012;" horiz-adv-x="655" d="M82 489l29 138h493l-29 -138h-493z" />
<glyph unicode="&#x2013;" horiz-adv-x="1087" d="M76 492l26 124h932l-26 -124h-932z" />
<glyph unicode="&#x2014;" horiz-adv-x="1701" d="M76 492l26 124h1540l-26 -124h-1540z" />
<glyph unicode="&#x2018;" horiz-adv-x="382" d="M203 1051q0 131 70 241.5t182 180.5h131v-9q-103 -77 -166.5 -182t-63.5 -223q0 -63 21 -121h-158q-16 46 -16 113z" />
<glyph unicode="&#x2019;" horiz-adv-x="382" d="M74 938v8q102 73 166.5 180t64.5 226q0 65 -20 121h157q17 -66 17 -113q0 -134 -69.5 -243t-184.5 -179h-131z" />
<glyph unicode="&#x201a;" horiz-adv-x="382" d="M-147 -283q102 73 165.5 180t63.5 226q0 63 -21 121h158q17 -53 17 -113q0 -133 -69.5 -241.5t-182.5 -180.5h-131v8z" />
<glyph unicode="&#x201c;" horiz-adv-x="720" d="M203 1051q0 131 70 241.5t182 180.5h131v-9q-103 -77 -166.5 -182t-63.5 -223q0 -63 21 -121h-158q-16 46 -16 113zM541 1051q0 131 70 242t184 180h131v-9q-104 -77 -168 -182t-64 -223q0 -63 21 -121h-158q-16 56 -16 113z" />
<glyph unicode="&#x201d;" horiz-adv-x="720" d="M74 938v8q102 73 166.5 180t64.5 226q0 65 -20 121h157q17 -66 17 -113q0 -134 -69.5 -243t-184.5 -179h-131zM414 938v8q102 73 165.5 180t63.5 226q0 65 -20 121h157q17 -53 17 -113q0 -133 -69.5 -241.5t-182.5 -180.5h-131z" />
<glyph unicode="&#x201e;" horiz-adv-x="720" d="M-147 -283q102 73 165.5 180t63.5 226q0 63 -21 121h158q17 -53 17 -113q0 -133 -69.5 -241.5t-182.5 -180.5h-131v8zM190 -283q102 73 166 180t64 226q0 75 -21 121h158q18 -53 18 -113q0 -134 -69 -243t-184 -179h-132v8z" />
<glyph unicode="&#x2022;" horiz-adv-x="688" d="M104 492q0 118 73.5 195t189.5 77q90 0 152.5 -56.5t62.5 -152.5q0 -120 -66.5 -195t-185.5 -75q-97 0 -161.5 56t-64.5 151z" />
<glyph unicode="&#x2026;" horiz-adv-x="1787" d="M100 76q0 58 34 94.5t89 36.5q43 0 73 -27.5t30 -73.5q0 -57 -31.5 -93t-87.5 -36q-46 0 -76.5 26.5t-30.5 72.5zM680 76q0 58 34.5 94.5t90.5 36.5q40 0 70 -28t30 -73q0 -57 -31.5 -93t-87.5 -36q-46 0 -76 26.5t-30 72.5zM1260 76q0 58 33.5 94.5t88.5 36.5 q43 0 73 -27.5t30 -73.5q0 -57 -31.5 -93t-87.5 -36q-46 0 -76 26.5t-30 72.5z" />
<glyph unicode="&#x202f;" horiz-adv-x="374" />
<glyph unicode="&#x2039;" horiz-adv-x="559" d="M70 520l354 373h170l-363 -385l203 -369h-155z" />
<glyph unicode="&#x203a;" horiz-adv-x="559" d="M-33 139l363 385l-201 369h154l209 -381l-355 -373h-170z" />
<glyph unicode="&#x205f;" horiz-adv-x="468" />
<glyph unicode="&#x20ac;" horiz-adv-x="1337" d="M125 487l22 93h160q3 93 23 182h-156l19 92h157q58 187 182 317q208 220 525 220q106 0 202 -33t140 -86l-41 -266h-119l25 194q-86 51 -217 51q-240 0 -385 -145q-104 -107 -150 -252h557l-20 -92h-562q-17 -92 -20 -182h555l-18 -93h-535q4 -182 105.5 -277t277.5 -95 q211 0 391 131h8l-24 -156q-149 -119 -406 -119q-234 0 -372 137.5t-142 378.5h-182z" />
<glyph unicode="&#x2122;" horiz-adv-x="1841" d="M229 1186l47 225h639l-49 -225h-92l25 135h-170l-121 -557h115l-21 -90h-338l21 90h110l121 557h-162l-32 -135h-93zM856 674l21 90h110l119 557h-111l19 90h268q100 -418 109 -477q62 108 307 477h266l-20 -90h-107l-119 -557h109l-21 -90h-325l20 90h105l118 541 q-46 -82 -321 -502h-82q-118 495 -119 504q-15 -89 -110 -543h110l-20 -90h-326z" />
<glyph unicode="&#x25fc;" horiz-adv-x="1003" d="M0 0v1004h1004v-1004h-1004z" />
</font>
</defs>
</svg>
