<?xml version="1.0" standalone="no"?>
<!DOCTYPE svg PUBLIC "-//W3C//DTD SVG 1.1//EN" "http://www.w3.org/Graphics/SVG/1.1/DTD/svg11.dtd" >
<svg xmlns="http://www.w3.org/2000/svg">
<metadata></metadata>
<defs>
<font id="equip_slabblack_italic" horiz-adv-x="1273" >
<font-face units-per-em="2048" ascent="1536" descent="-512" />
<missing-glyph horiz-adv-x="438" />
<glyph unicode="&#xfb01;" horiz-adv-x="1406" d="M-47 -358l219 1077h-123l60 309h127l16 80q41 201 154 299q128 113 356 113q113 0 203 -37l-64 -312h-8q-41 23 -92 23q-55 0 -92 -29q-37 -34 -52 -98l-8 -39h705l-117 -569q-12 -68 -12 -82q0 -74 69 -74q44 0 76 14l6 -2l-69 -292q-81 -37 -220 -37q-303 0 -303 237 q0 42 19 139l74 357h-291l-232 -1077h-401zM981 1298q0 93 62 156.5t155 63.5q78 0 127 -42.5t49 -125.5q0 -98 -60 -160t-159 -62q-75 0 -124.5 46.5t-49.5 123.5z" />
<glyph unicode="&#xfb02;" horiz-adv-x="1402" d="M-47 -358l219 1077h-123l60 309h127l10 47q44 204 166 305q160 136 493 136q310 0 543 -68l-207 -989q-12 -68 -12 -82q0 -74 67 -74q46 0 78 14l6 -2l-69 -292q-81 -37 -219 -37q-304 0 -304 237q0 42 19 139l172 828q-71 8 -127 8q-114 0 -150 -45q-40 -40 -49 -104 l-4 -21h205l-63 -309h-205l-232 -1077h-401z" />
<glyph unicode="&#xfb03;" horiz-adv-x="2146" d="M-49 -358l221 1077h-123l60 309h127l10 43q41 195 153 295q127 109 361 109q130 0 241 -48l-67 -311h-8q-50 33 -131 33q-64 0 -97 -23t-45 -79l-4 -19h326l16 80q41 201 154 299q128 113 356 113q113 0 203 -37l-64 -312h-8q-41 23 -92 23q-55 0 -92 -29 q-36 -33 -51 -98l-8 -39h704l-117 -571q-12 -67 -12 -82q0 -74 70 -74q43 0 75 14l7 -2l-70 -293q-79 -36 -219 -36q-303 0 -303 237q0 47 18 139l74 359h-291l-223 -1036h-406l215 1036h-325l-230 -1077h-405zM1720 1298q0 93 62 156.5t155 63.5q78 0 127.5 -43t49.5 -125 q0 -98 -60.5 -160t-159.5 -62q-75 0 -124.5 46.5t-49.5 123.5z" />
<glyph unicode="&#xfb04;" horiz-adv-x="2142" d="M-49 -358l221 1077h-123l60 309h127l10 43q41 195 153 295q127 109 361 109q130 0 241 -48l-67 -311h-8q-50 33 -131 33q-64 0 -97 -23t-45 -79l-4 -19h326l10 47q44 204 166 305q160 136 494 136q309 0 542 -68l-207 -989q-12 -68 -12 -82q0 -74 68 -74q46 0 78 14l6 -2 l-70 -292q-81 -37 -219 -37q-303 0 -303 237q0 47 18 139l172 828q-71 8 -127 8q-101 0 -143.5 -39.5t-54.5 -109.5l-4 -21h204l-63 -309h-205l-223 -1036h-406l215 1036h-325l-230 -1077h-405z" />
<glyph horiz-adv-x="0" />
<glyph horiz-adv-x="682" />
<glyph unicode=" "  horiz-adv-x="438" />
<glyph unicode="&#x09;" horiz-adv-x="438" />
<glyph unicode="&#xa0;" horiz-adv-x="438" />
<glyph unicode="!" horiz-adv-x="684" d="M100 166q0 105 68 175.5t172 70.5q86 0 141.5 -49.5t55.5 -139.5q0 -110 -65.5 -179t-174.5 -69q-87 0 -142 52t-55 139zM211 532q62 663 111 879h466q-36 -201 -251 -879h-326z" />
<glyph unicode="&#x22;" horiz-adv-x="847" d="M203 895l67 571h299l-174 -571h-192zM602 895l66 571h299l-174 -571h-191z" />
<glyph unicode="#" horiz-adv-x="1284" d="M68 383l28 229h273l41 158h-248l26 229h283l102 394h177l-103 -394h211l103 394h176l-103 -394h240l-29 -229h-272l-41 -158h244l-29 -229h-275l-106 -412h-176l106 412h-211l-106 -412h-176l106 412h-241zM545 612h211l41 158h-211z" />
<glyph unicode="$" d="M6 139l80 391h268l-24 -184q133 -47 233 -47q139 0 139 98q0 77 -75 101l-144 53q-305 111 -305 344q0 444 549 471l45 207h166l-45 -209q108 -10 206 -41t146 -68l-67 -391h-269l21 174q-94 27 -174 27q-58 0 -91.5 -28.5t-33.5 -67.5q0 -64 71 -88l140 -52 q167 -60 239 -144t72 -206q0 -468 -545 -489l-45 -219h-166l45 223q-145 12 -265.5 51.5t-170.5 93.5z" />
<glyph unicode="%" horiz-adv-x="1849" d="M111 823q0 127 50.5 252t141.5 207q107 98 260 98q150 0 232 -81t82 -230q0 -108 -39 -229q-38 -128 -113 -209q-107 -131 -301 -131q-144 0 -228.5 86t-84.5 237zM383 840q0 -103 72 -103q53 0 84 60q29 53 43 125q16 82 16 125q0 98 -72 98q-49 0 -84 -62 q-59 -103 -59 -243zM424 -25l879 1422h170l-877 -1422h-172zM1016 305q0 130 47.5 255t136.5 204q107 98 262 98q150 0 233 -81t83 -230q0 -105 -37 -229q-37 -125 -109 -209q-116 -131 -307 -131q-144 0 -226.5 85t-82.5 238zM1288 322q0 -103 68 -103q57 0 88 60 q29 53 43 124q16 82 16 125q0 99 -71 99q-54 0 -89 -62q-55 -101 -55 -243z" />
<glyph unicode="&#x26;" horiz-adv-x="1615" d="M61 395q0 289 312 422q-39 95 -39 174q0 169 121 281t344 112q226 0 354 -84l-86 -323h-8q-70 61 -180 61q-49 0 -75 -23.5t-26 -60.5q0 -53 56 -127q37 -51 167 -204l56 254h542l-67 -306h-119q-41 -169 -135 -264h260l-65 -307h-478q-35 35 -53 59q-155 -88 -391 -88 q-220 0 -354 113q-136 115 -136 311zM459 428q0 -54 39 -90.5t96 -36.5q74 0 115 27q-79 82 -172 215q-78 -41 -78 -115z" />
<glyph unicode="'" horiz-adv-x="450" d="M203 895l67 571h299l-174 -571h-192z" />
<glyph unicode="(" horiz-adv-x="860" d="M63 442q0 358 187 633q189 278 520 441h297v-9q-668 -441 -668 -1054q0 -214 76 -433q79 -224 207 -358v-8h-254q-139 106 -254 323q-111 211 -111 465z" />
<glyph unicode=")" horiz-adv-x="860" d="M-188 -338q667 446 667 1055q0 208 -78 430q-78 225 -204 360v9h254q138 -106 251 -324q113 -210 113 -465q0 -358 -190 -633q-187 -275 -521 -440h-292v8z" />
<glyph unicode="*" horiz-adv-x="956" d="M205 1133l94 196q122 -57 221 -119q0 115 10 248l232 -14q-2 -22 -45 -262q76 24 241 61l37 -223q-147 -22 -247 -33q85 -125 131 -213l-197 -102q-46 82 -111 225q-113 -144 -163 -197l-162 148q116 122 186 184q-25 10 -227 101z" />
<glyph unicode="+" horiz-adv-x="1406" d="M174 494l47 221h410l94 422h229l-92 -422h408l-49 -221h-410l-98 -422h-224l95 422h-410z" />
<glyph unicode="," horiz-adv-x="581" d="M-154 -326q118 93 186 234t68 299q0 94 -14 137h336q14 -43 14 -125q0 -335 -317 -553h-273v8z" />
<glyph unicode="-" horiz-adv-x="653" d="M57 434l54 271h501l-57 -271h-498z" />
<glyph unicode="." horiz-adv-x="593" d="M35 166q0 105 68 175.5t173 70.5q83 0 140 -50t57 -139q0 -110 -67.5 -179t-176.5 -69q-87 0 -140.5 52t-53.5 139z" />
<glyph unicode="/" horiz-adv-x="897" d="M-88 -117l926 1614h211l-926 -1614h-211z" />
<glyph unicode="0" d="M80 492q0 217 72 412.5t210 326.5q177 160 410 160q232 0 356.5 -130t124.5 -372q0 -169 -61 -373q-61 -202 -176 -336q-182 -209 -459 -209q-222 0 -349.5 138t-127.5 383zM487 469q0 -156 109 -156q88 0 133 97q42 80 72 237q30 159 30 250q0 154 -106 154 q-80 0 -135 -101q-42 -77 -72 -225q-31 -155 -31 -256z" />
<glyph unicode="1" d="M197 0l61 297h170l137 661l-313 -153l78 393l403 193h350l-229 -1094h190l-61 -297h-786z" />
<glyph unicode="2" d="M-49 0l49 246q287 183 557 405q131 107 131 240q0 71 -44 113.5t-114 42.5q-162 0 -366 -127h-8l69 323q212 150 482 150q212 0 329 -105q117 -102 117 -260q0 -288 -242 -481q-194 -155 -327 -228q272 5 297 5l41 139h268l-90 -463h-1149z" />
<glyph unicode="3" d="M49 78l72 362h8q151 -121 373 -121q157 0 157 103q0 68 -61 86q-64 20 -190 20h-35l61 324h41q113 0 168 10q76 21 76 94q0 91 -117 91q-172 0 -356 -117h-8l63 327q187 134 461 134q214 0 321 -85t107 -227q0 -279 -309 -370q129 -22 191.5 -92t62.5 -173 q0 -102 -37.5 -184t-100.5 -135.5t-149 -89t-178.5 -50.5t-194.5 -14q-106 0 -235 29q-124 28 -191 78z" />
<glyph unicode="4" d="M20 362l50 228l796 801h338l-149 -725h186l-65 -304h-187l-14 -65h186l-59 -297h-778l63 297h182l15 65h-564zM459 666h190q16 76 68 284q-31 -42 -258 -284z" />
<glyph unicode="5" d="M47 86l62 324h8q159 -93 360 -93q195 0 195 144q0 60 -43 91.5t-121 31.5q-151 0 -332 -54l-6 5l238 829h835l-86 -449h-280l16 129h-242l-63 -213q76 29 188 29q159 0 266 -90q105 -88 105 -242q0 -270 -184 -405q-186 -133 -484 -133q-280 0 -432 96z" />
<glyph unicode="6" d="M109 506q0 226 86 424q85 198 266 330q180 131 422 131q258 0 368 -93l-82 -368h-8q-107 88 -293 88q-118 0 -193.5 -68t-101.5 -180q42 50 119.5 80.5t151.5 30.5q163 0 251.5 -93t88.5 -256q0 -259 -156 -409t-426 -150q-231 0 -362 143t-131 390zM543 455 q0 -56 26.5 -88.5t71.5 -32.5q57 0 92 42t35 118q0 48 -24.5 76t-67.5 28q-75 0 -123 -63q-10 -45 -10 -80z" />
<glyph unicode="7" d="M154 0q188 342 661 1040h-334l-32 -125h-293l102 449h1063l-49 -248l-672 -1116h-446z" />
<glyph unicode="8" d="M47 350q0 129 73.5 225.5t203.5 139.5q-125 82 -125 260q0 204 166 309q168 107 399 107q84 0 164 -19.5t153 -59.5t117.5 -112t44.5 -166q0 -242 -223 -336q81 -34 121.5 -106t40.5 -162q0 -220 -176 -340q-174 -119 -437 -119q-79 0 -151 11.5t-141 39.5t-119 70.5 t-80.5 108.5t-30.5 149zM475 438q0 -57 40 -92t110 -35q68 0 109.5 38.5t41.5 105.5q0 46 -39.5 80.5t-103.5 46.5q-158 -21 -158 -144zM569 934q0 -47 39 -80t101 -41q64 6 106.5 42.5t42.5 94.5q0 52 -36 82.5t-101 30.5t-108.5 -34t-43.5 -95z" />
<glyph unicode="9" d="M66 78l77 366h9q119 -98 305 -98q118 0 190 65t98 177q-40 -43 -116.5 -71t-147.5 -28q-160 0 -251 91t-91 251q0 258 156 408q158 152 424 152q232 0 362.5 -142.5t130.5 -390.5q0 -241 -82 -436q-81 -201 -253 -324q-171 -125 -414 -125q-130 0 -239 28t-158 77z M553 870q0 -47 26.5 -75.5t69.5 -28.5q64 0 111 53q16 43 16 96q0 54 -23.5 84.5t-64.5 30.5q-57 0 -96 -43.5t-39 -116.5z" />
<glyph unicode=":" horiz-adv-x="634" d="M76 166q0 105 67 175.5t170 70.5q86 0 141.5 -49.5t55.5 -139.5q0 -110 -65.5 -179t-174.5 -69q-87 0 -140.5 52t-53.5 139zM211 799q0 105 68.5 175t173.5 70q83 0 139.5 -49.5t56.5 -138.5q0 -110 -67 -179t-176 -69q-86 0 -140.5 53t-54.5 138z" />
<glyph unicode=";" horiz-adv-x="634" d="M-88 -326q120 92 189 232.5t69 300.5q0 75 -18 137h340q12 -41 12 -125q0 -336 -316 -553h-276v8zM211 799q0 105 68.5 175t173.5 70q83 0 139.5 -49.5t56.5 -138.5q0 -110 -67 -179t-176 -69q-86 0 -140.5 53t-54.5 138z" />
<glyph unicode="&#x3c;" horiz-adv-x="1406" d="M236 483l53 240l1018 459l-60 -281l-753 -315l610 -305l-51 -246z" />
<glyph unicode="=" horiz-adv-x="1406" d="M127 279l51 221h1047l-49 -221h-1049zM225 709l49 221h1045l-45 -221h-1049z" />
<glyph unicode="&#x3e;" horiz-adv-x="1406" d="M154 35l57 280l756 316l-613 305l56 246l817 -451l-51 -242z" />
<glyph unicode="?" horiz-adv-x="1003" d="M150 985l63 352q60 51 168 78t197 27q207 0 321.5 -86.5t114.5 -241.5q0 -267 -293 -440q-94 -58 -115 -166h-327q20 104 43 164q24 56 88 102q82 63 110.5 99t28.5 79q0 109 -127 109q-145 0 -264 -76h-8zM182 166q0 105 69 175.5t173 70.5q83 0 140 -50t57 -139 q0 -110 -67.5 -179t-176.5 -69q-86 0 -140.5 53t-54.5 138z" />
<glyph unicode="@" horiz-adv-x="1660" d="M80 422q0 382 254 633q255 252 637 252q291 0 463 -158q170 -156 170 -430q0 -78 -16 -161t-51.5 -165t-86.5 -146.5t-127 -104.5t-166 -40q-112 0 -160 66q-22 36 -22 70q-104 -134 -281 -134q-125 0 -198.5 75t-73.5 212q0 114 46 222.5t130 187.5q129 114 287 114 q144 0 190 -112l23 92h207l-103 -428q-2 -9 -9 -61t-9 -60q0 -29 14 -46t37 -17q70 0 125 116q57 117 57 295q0 203 -118.5 325t-340.5 122q-279 0 -475 -205q-194 -203 -194 -506q0 -239 149 -391q151 -154 402 -154q177 0 307 37q137 35 283 129h8l-45 -205 q-225 -135 -568 -135q-334 0 -540 197q-205 196 -205 514zM643 438q0 -71 37.5 -109t101.5 -38q121 0 197 131l47 188q-21 119 -127 119q-99 0 -166 -70q-38 -42 -64 -105t-26 -116z" />
<glyph unicode="A" horiz-adv-x="1507" d="M-96 0l65 307h115l637 1104h455l178 -1104h121l-66 -307h-666l66 307h98l-8 58h-295l-31 -58h115l-65 -307h-719zM709 657h174q-8 77 -29 328q-10 -29 -145 -328z" />
<glyph unicode="B" horiz-adv-x="1435" d="M-63 0l65 307h115l164 797h-119l65 307h615q168 0 274 -16q146 -24 226.5 -98t80.5 -193q0 -145 -65.5 -234.5t-206.5 -140.5q110 -13 172.5 -91.5t62.5 -191.5q0 -295 -327 -403q-133 -43 -389 -43h-733zM565 307h101q112 0 165 15q80 21 80 120q0 75 -49 93 q-43 16 -141 16h-103zM686 874h80q99 0 145 17q66 28 66 119q0 69 -64 84q-38 10 -106 10h-76z" />
<glyph unicode="C" horiz-adv-x="1492" d="M94 555q0 209 88 401q90 196 252 318q223 168 547 168q153 0 293 -35q137 -34 192 -82l-84 -426h-307l25 188q-75 11 -105 11q-156 0 -274 -92q-68 -56 -111 -164t-43 -215q0 -141 85.5 -218t240.5 -77q234 0 387 100h8l-78 -371q-166 -90 -479 -90q-286 0 -463 154 q-174 155 -174 430z" />
<glyph unicode="D" horiz-adv-x="1529" d="M-63 0l65 307h115l164 797h-119l65 307h484q331 0 508 -70q145 -57 223 -178t78 -286q0 -642 -512 -811q-201 -66 -578 -66h-493zM567 317h29q194 0 301 66q84 54 131 170.5t47 251.5q0 148 -84 223q-71 59 -219 59h-47z" />
<glyph unicode="E" horiz-adv-x="1232" d="M-63 0l65 307h115l164 797h-119l65 307h1076l-89 -457h-307l19 140h-193l-41 -211h352l-67 -324h-354l-50 -240h271l45 160h303l-105 -479h-1150z" />
<glyph unicode="F" horiz-adv-x="1171" d="M-63 0l65 307h115l164 797h-119l65 307h1076l-89 -457h-307l19 140h-193l-47 -236h367l-68 -328h-369l-47 -223h174l-61 -307h-745z" />
<glyph unicode="G" horiz-adv-x="1523" d="M94 524q0 255 102 459t283 317q227 142 531 142q163 0 299 -37q135 -34 196 -82l-82 -426h-309l25 188q-63 13 -111 13q-162 0 -268 -68q-86 -56 -139.5 -169.5t-53.5 -246.5q0 -290 267 -290q58 0 90 14l30 149h-133l66 308h637l-62 -308h-82l-82 -397 q-219 -119 -577 -119q-277 0 -453 150q-174 149 -174 403z" />
<glyph unicode="H" horiz-adv-x="1570" d="M-63 0l65 307h115l164 797h-119l65 307h693l-62 -307h-121l-45 -221h346l45 221h-114l65 307h690l-61 -307h-123l-166 -797h129l-65 -307h-695l66 307h109l51 252h-346l-54 -252h129l-65 -307h-696z" />
<glyph unicode="I" horiz-adv-x="755" d="M-63 0l65 307h115l164 797h-123l65 307h688l-63 -307h-113l-166 -797h121l-65 -307h-688z" />
<glyph unicode="J" horiz-adv-x="976" d="M-47 45l72 334h8q77 -53 164 -53q102 0 155 71q41 53 62 162l112 545h-143l66 307h692l-62 -307h-96l-117 -559q-58 -271 -137 -379q-138 -193 -455 -193q-214 0 -321 72z" />
<glyph unicode="K" horiz-adv-x="1556" d="M-63 0l65 307h115l164 797h-119l65 307h635l-65 -307h-60l-39 -195l203 195h-33l62 307h674l-66 -307h-166l-270 -252l196 -545h179l-66 -307h-491l-175 516l-165 -154l-13 -55h111l-66 -307h-675z" />
<glyph unicode="L" horiz-adv-x="1263" d="M-63 0l65 307h115l164 797h-119l65 307h705l-62 -307h-133l-164 -785h271l45 160h303l-105 -479h-1150z" />
<glyph unicode="M" horiz-adv-x="1849" d="M-63 0l65 307h115l164 797h-123l65 307h733q5 -157 11.5 -329t9 -241.5t2.5 -84.5q62 171 274 655h750l-66 -307h-118l-166 -797h129l-64 -307h-680l66 307h113q85 404 139 631q-82 -180 -332 -692h-313l-54 690q-38 -221 -120 -629h122l-65 -307h-657z" />
<glyph unicode="N" horiz-adv-x="1589" d="M-61 0l61 307h117l164 797h-119l65 307h647q120 -424 181 -704q27 193 69 397h-118l65 307h672l-62 -307h-125l-229 -1104h-493q-97 415 -181 807q-18 -106 -98 -500h133l-65 -307h-684z" />
<glyph unicode="O" horiz-adv-x="1599" d="M94 580q0 198 82 381q81 180 234 303q224 178 528 178q275 0 461 -154q186 -149 186 -438q0 -207 -80 -391.5t-231 -306.5q-226 -179 -535 -179q-281 0 -463 156t-182 451zM567 575q0 -258 207 -258q144 0 230 127q47 71 77 191q31 124 31 215q0 248 -203 248 q-137 0 -219 -123q-50 -61 -88 -184q-35 -122 -35 -216z" />
<glyph unicode="P" horiz-adv-x="1417" d="M-63 0l65 307h115l164 797h-119l65 307h602q204 0 340 -43q134 -43 209.5 -144.5t75.5 -238.5q0 -395 -317 -518q-76 -31 -207 -49q-150 -17 -236 -17h-110l-19 -94h150l-62 -307h-716zM651 721h80q109 0 162 27q90 47 90 182q0 83 -59 127q-47 30 -140 30h-59z" />
<glyph unicode="Q" horiz-adv-x="1599" d="M94 580q0 198 82 381q81 180 234 303q224 178 528 178q275 0 461 -154q186 -149 186 -438q0 -206 -79 -389t-228 -305l233 -150l-241 -299l-412 275q-52 -9 -119 -9q-281 0 -463 156t-182 451zM567 575q0 -258 207 -258q144 0 230 127q47 71 77 191q31 124 31 215 q0 248 -203 248q-137 0 -219 -123q-50 -61 -88 -184q-35 -122 -35 -216z" />
<glyph unicode="R" horiz-adv-x="1431" d="M-63 0l65 307h115l164 797h-119l65 307h609q241 0 348 -39q111 -37 177 -124t66 -201q0 -349 -303 -492l95 -248h161l-63 -307h-457l-160 481q-20 -2 -94 -2l-37 -172h129l-65 -307h-696zM674 793h53q113 0 156 24q75 43 75 141q0 84 -55 105q-44 18 -137 18h-35z" />
<glyph unicode="S" horiz-adv-x="1310" d="M29 100l69 420h289l-16 -170q119 -35 239 -35q142 0 142 95q0 70 -88 104l-150 51q-321 110 -321 375q0 502 665 502q114 0 272 -35q161 -36 213 -68l-75 -413h-293l22 166q-106 28 -202 28q-59 0 -90 -29t-31 -71q0 -60 65 -84l160 -57q176 -64 254 -157t78 -224 q0 -525 -637 -525q-317 0 -565 127z" />
<glyph unicode="T" horiz-adv-x="1396" d="M141 928l111 483h1264l-95 -483h-305l23 164h-105l-164 -781h156l-65 -311h-758l65 311h146l164 781h-91l-45 -164h-301z" />
<glyph unicode="U" horiz-adv-x="1501" d="M119 391q0 87 28 236l97 477h-111l66 307h684l-66 -307h-119l-106 -518q-17 -87 -17 -140q0 -56 45 -92.5t109 -36.5q133 0 193 78q31 36 69 209l103 500h-123l65 307h643l-65 -307h-105l-104 -506q-61 -287 -148 -397q-181 -228 -598 -228q-150 0 -266 39 q-122 43 -198 142.5t-76 236.5z" />
<glyph unicode="V" horiz-adv-x="1495" d="M135 1104l64 307h678l-64 -307h-106l32 -316q31 -252 33 -286q3 9 291 602h-115l64 307h669l-63 -307h-113l-622 -1104h-467l-166 1104h-115z" />
<glyph unicode="W" horiz-adv-x="2164" d="M143 1104l66 307h719l-62 -307h-131q0 -383 -2 -496q23 50 412 803h307q66 -583 80 -799q56 149 209 492h-129l65 307h662l-62 -307h-104l-547 -1104h-383q-75 802 -78 848q-106 -224 -434 -848h-383l-86 1104h-119z" />
<glyph unicode="X" horiz-adv-x="1570" d="M-47 0l65 307h107l401 451l-174 346h-129l66 307h694l-65 -307h-64q32 -69 64 -156q39 56 124 156h-67l65 307h613l-66 -307h-104l-324 -354l238 -443h104l-65 -307h-711l66 307h94q-114 228 -117 240l-190 -240h122l-65 -307h-682z" />
<glyph unicode="Y" horiz-adv-x="1447" d="M135 1104l66 307h688l-62 -307h-92q58 -168 88 -268q47 71 195 268h-76l66 307h624l-65 -307h-125l-490 -586l-43 -211h135l-65 -307h-721l61 307h134l43 211l-242 586h-119z" />
<glyph unicode="Z" horiz-adv-x="1337" d="M-68 0l52 250l768 840h-277l-49 -187h-305l115 508h1171l-53 -250q-571 -661 -740 -839h347l51 186h299l-111 -508h-1268z" />
<glyph unicode="[" horiz-adv-x="714" d="M-51 -346l387 1864h555l-43 -205h-234l-305 -1452h234l-41 -207h-553z" />
<glyph unicode="\" horiz-adv-x="913" d="M225 1497h185l372 -1614h-184z" />
<glyph unicode="]" horiz-adv-x="714" d="M-154 -346l43 205h230l305 1452h-234l43 207h551l-387 -1864h-551z" />
<glyph unicode="^" horiz-adv-x="1456" d="M225 573l574 809h252l206 -809h-241l-133 549l-379 -549h-279z" />
<glyph unicode="_" horiz-adv-x="1052" d="M-156 -313l33 153h1047l-29 -153h-1051z" />
<glyph unicode="`" horiz-adv-x="421" d="M-84 1528v8h381l213 -350v-8h-264z" />
<glyph unicode="a" horiz-adv-x="1339" d="M35 383q0 146 53.5 283t153.5 233q156 156 383 156q84 0 151.5 -32t97.5 -91l19 96h412l-117 -571q-12 -67 -12 -82q0 -74 71 -74q49 0 74 14l6 -2l-65 -293q-82 -36 -211 -36q-195 0 -248 120q-7 13 -17 60q-120 -187 -366 -187q-172 0 -278.5 107t-106.5 299zM465 457 q0 -74 36.5 -118t94.5 -44q105 0 170 121l41 196q-6 59 -37.5 90t-81.5 31q-101 0 -160 -80q-63 -86 -63 -196z" />
<glyph unicode="b" horiz-adv-x="1306" d="M0 0l248 1182h-111l68 309h518l-133 -596q38 66 129.5 114t193.5 48q165 0 261 -99.5t96 -289.5q0 -327 -176 -527q-139 -157 -373 -157q-233 0 -315 143l-33 -127h-373zM504 422q6 -55 43.5 -88t89.5 -33q94 0 147 80q60 97 60 221q0 67 -33.5 103t-91.5 36 q-50 0 -97.5 -33t-78.5 -90z" />
<glyph unicode="c" horiz-adv-x="1083" d="M37 418q0 325 242 506q168 131 426 131q85 0 204 -25q115 -21 152 -53l-57 -383h-269l17 151q-5 0 -22 1.5t-21 1.5q-39 0 -88.5 -18t-79.5 -44q-37 -33 -61.5 -91t-24.5 -118q0 -88 55.5 -137t163.5 -49q156 0 268 69h8l-63 -325q-115 -62 -338 -62q-224 0 -369 115 q-143 116 -143 330z" />
<glyph unicode="d" horiz-adv-x="1347" d="M35 383q0 301 213 514q168 160 381 160q87 0 154 -29t96 -82l47 236h-111l68 309h518l-213 -1034q-12 -67 -12 -82q0 -74 71 -74q49 0 74 14l6 -2l-65 -293q-82 -36 -218 -36q-193 0 -239 116q-11 34 -14 64q-111 -191 -365 -191q-168 0 -281 107q-110 107 -110 303z M465 451q0 -156 129 -156q101 0 172 121l41 196q-7 55 -41 88t-78 33q-101 0 -160 -80q-63 -81 -63 -202z" />
<glyph unicode="e" horiz-adv-x="1159" d="M37 430q0 280 196 461q174 162 431 162q211 0 332.5 -108.5t121.5 -297.5q0 -128 -20 -207h-654v-10q0 -135 232 -135q184 0 366 90h9l-70 -315q-163 -97 -416 -97q-244 0 -387 125q-141 126 -141 332zM475 637h285q4 20 4 37q0 41 -32.5 66.5t-78.5 25.5 q-61 0 -110 -32.5t-68 -96.5z" />
<glyph unicode="f" horiz-adv-x="749" d="M-49 -358l221 1077h-123l60 309h127l16 80q41 201 154 299q127 109 360 109q131 0 242 -48l-68 -311h-8q-50 33 -121 33q-75 0 -102 -27q-38 -35 -52 -96l-8 -39h164l-63 -309h-164l-230 -1077h-405z" />
<glyph unicode="g" horiz-adv-x="1361" d="M2 -315l74 331h8q56 -56 157 -89t218 -33q130 0 196 57q37 30 64 143l8 37q-44 -46 -126 -77t-177 -31q-173 0 -280 98t-107 282q0 152 62.5 293t176.5 236q144 123 351 123q192 0 262 -125l18 98h500l-59 -309h-107l-117 -572q-52 -257 -118 -348q-158 -229 -555 -229 q-295 0 -449 115zM469 469q0 -135 133 -135q110 0 172 117l37 167q-7 54 -42 84.5t-81 30.5q-95 0 -149 -63q-70 -76 -70 -201z" />
<glyph unicode="h" horiz-adv-x="1282" d="M8 0l244 1182h-109l68 309h520l-127 -608q46 77 135 123.5t181 46.5q123 0 198.5 -63t75.5 -187q0 -67 -31 -207l-30 -139q-13 -50 -13 -82q0 -74 72 -74q46 0 78 14l6 -2l-70 -293q-82 -36 -221 -36q-301 0 -301 237q0 47 18 139l35 177q15 68 15 96q0 72 -64 72 q-93 0 -145 -113l-121 -592h-414z" />
<glyph unicode="i" horiz-adv-x="688" d="M63 719l64 309h524l-121 -571q-12 -67 -12 -82q0 -74 72 -74q46 0 78 14l6 -2l-70 -293q-82 -36 -221 -36q-301 0 -301 237q0 47 18 139l74 359h-111zM258 1298q0 95 60.5 157.5t156.5 62.5q76 0 126 -43.5t50 -124.5q0 -98 -60 -160t-159 -62q-78 0 -126 46t-48 124z " />
<glyph unicode="j" horiz-adv-x="714" d="M-248 -383l66 305h8q41 -24 102 -24q51 0 84 26q30 23 45 105l144 690h-111l64 309h526l-211 -1018q-50 -242 -150 -332q-114 -108 -356 -108q-134 0 -211 47zM285 1298q0 95 60.5 157.5t156.5 62.5q76 0 126 -43.5t50 -124.5q0 -98 -60 -160t-159 -62q-78 0 -126 46 t-48 124z" />
<glyph unicode="k" horiz-adv-x="1251" d="M8 0l244 1182h-109l68 309h520l-166 -791l209 228l21 100h493l-67 -309h-258l-60 -57l101 -240q32 -71 56 -96t64 -25q61 0 93 14l6 -2l-70 -293q-82 -36 -190 -36q-131 0 -193 53q-58 52 -111 180l-59 150l-127 -123l-51 -244h-414z" />
<glyph unicode="l" horiz-adv-x="688" d="M68 221q0 47 18 139l170 822h-111l68 309h520l-217 -1034q-10 -62 -10 -82q0 -74 69 -74q46 0 78 14l6 -2l-69 -293q-82 -36 -221 -36q-301 0 -301 237z" />
<glyph unicode="m" horiz-adv-x="1904" d="M31 0l149 719h-110l63 309h514l-37 -166q55 88 142 139.5t178 51.5q239 0 274 -185q126 185 336 185q123 0 197.5 -62.5t74.5 -185.5q0 -85 -30 -223l-27 -125q-12 -46 -12 -82q0 -74 72 -74q45 0 77 14l6 -2l-69 -293q-82 -36 -221 -36q-303 0 -303 237q0 51 16 139 l39 177q16 82 16 108q0 60 -65 60q-81 0 -129 -91q0 -1 -1.5 -7t-4 -19t-5.5 -27l-112 -561h-414l111 547q12 65 12 92q0 66 -66 66q-90 0 -137 -111l-121 -594h-413z" />
<glyph unicode="n" horiz-adv-x="1304" d="M31 0l149 719h-108l63 309h512l-37 -168q51 86 142.5 139.5t189.5 53.5q123 0 199 -63t76 -187q0 -67 -31 -207l-31 -139q-12 -46 -12 -82q0 -74 71 -74q46 0 78 14l6 -2l-69 -293q-82 -36 -221 -36q-303 0 -303 239q0 65 16 137l39 177q14 63 14 96q0 72 -65 72 q-92 0 -144 -113l-121 -592h-413z" />
<glyph unicode="o" horiz-adv-x="1251" d="M37 418q0 291 209 473q88 79 207 120.5t241 41.5q139 0 252 -43q118 -43 191 -146.5t73 -249.5q0 -149 -63 -284.5t-176 -220.5q-178 -134 -418 -134q-218 0 -369 109q-147 111 -147 334zM461 440q0 -151 129 -151q77 0 131 69q29 36 47 101.5t18 126.5q0 75 -34 114 t-90 39q-91 0 -150 -90q-51 -86 -51 -209z" />
<glyph unicode="p" horiz-adv-x="1327" d="M-61 -397l235 1116h-111l64 309h510l-27 -133q38 66 130 114t194 48q164 0 260 -99.5t96 -289.5q0 -327 -176 -527q-139 -157 -364 -157q-217 0 -287 125l-111 -506h-413zM524 422q6 -55 43.5 -88t89.5 -33q95 0 148 80q59 95 59 221q0 67 -33.5 103t-91.5 36 q-50 0 -97.5 -33t-78.5 -90z" />
<glyph unicode="q" horiz-adv-x="1351" d="M35 383q0 142 57 279.5t160 240.5q160 154 377 154q88 0 161.5 -34.5t98.5 -94.5l20 100h496l-64 -309h-100l-231 -1116h-414l106 510q-79 -129 -280 -129q-173 0 -280 104t-107 295zM465 444q0 -145 133 -145q104 0 168 117l41 196q-18 121 -125 121q-81 0 -147 -78 q-30 -37 -50 -97.5t-20 -113.5z" />
<glyph unicode="r" horiz-adv-x="921" d="M25 0l147 719h-109l64 309h512l-35 -164q99 185 273 185q75 0 114 -25l-78 -365h-8q-58 37 -149 37q-84 0 -129 -33t-78 -116l-111 -547h-413z" />
<glyph unicode="s" horiz-adv-x="1091" d="M12 78l56 317h292l-8 -121q85 -12 160 -12q82 0 82 55q0 41 -51 56l-142 39q-135 37 -207.5 111.5t-72.5 174.5q0 355 502 355q94 0 235 -25q136 -24 182 -61l-55 -308h-283l9 91q-68 12 -113 12q-78 0 -78 -57q0 -43 49 -52l154 -35q278 -58 278 -270q0 -375 -528 -375 q-123 0 -262 29q-129 30 -199 76z" />
<glyph unicode="t" horiz-adv-x="802" d="M53 719l60 309h133l69 275h398l-56 -275h179l-64 -309h-178l-59 -258q-11 -57 -11 -86q0 -68 92 -68q69 0 115 19h8l-57 -295q-89 -47 -272 -47q-140 0 -227 68t-87 198q0 52 10 137l74 332h-127z" />
<glyph unicode="u" horiz-adv-x="1306" d="M55 719l64 309h522l-113 -532q-12 -59 -12 -95q0 -33 22 -53t58 -20q88 0 137 112l125 588h414l-121 -571q-12 -67 -12 -82q0 -74 71 -74q46 0 78 14l6 -2l-69 -293q-82 -36 -221 -36q-188 0 -240 102q-13 26 -25 78q-115 -189 -366 -189q-131 0 -212 65t-81 189 q0 102 20 205l60 285h-105z" />
<glyph unicode="v" horiz-adv-x="1277" d="M55 719l66 309h526l-94 -412q-31 -130 -31 -182q0 -104 88 -104q96 0 154.5 115.5t58.5 351.5q0 107 -37 231h408q45 -91 45 -235q-1 -177 -38 -316.5t-102 -232.5t-159.5 -154t-204 -87.5t-241.5 -27.5q-193 0 -302.5 81.5t-109.5 234.5q0 74 24 188l56 240h-107z" />
<glyph unicode="w" horiz-adv-x="1890" d="M55 719l66 309h526l-94 -412q-31 -130 -31 -182q0 -104 88 -104q68 0 115 53q5 42 16 88l117 516h399l-83 -371q-29 -129 -29 -182q0 -104 80 -104q96 0 151.5 113.5t55.5 353.5q0 112 -35 231h407q43 -90 43 -235q0 -818 -733 -818q-219 0 -326 131q-125 -131 -329 -131 q-171 0 -274 83.5t-103 222.5q0 100 20 184l60 254h-107z" />
<glyph unicode="x" horiz-adv-x="1234" d="M-49 0l63 309h156l201 230l-90 180h-168l88 309h385l114 -244q44 60 95 119l26 125h479l-69 -309h-152l-176 -189l84 -168q30 -61 113 -61q52 0 84 14l6 -2l-70 -293q-85 -36 -198 -36q-91 0 -148 32q-65 36 -90 74q-22 32 -66 113l-30 59l-115 -137l-27 -125h-495z" />
<glyph unicode="y" horiz-adv-x="1304" d="M25 -315l73 331h8q122 -122 353 -122q121 0 178 57q40 40 61 143l15 70q-65 -75 -133 -108t-168 -33q-131 0 -214 64.5t-83 188.5q0 97 24 205l51 238h-106l63 309h523l-103 -485q-12 -59 -12 -94q0 -33 22 -53.5t58 -20.5q85 0 137 112l115 541h413l-180 -881 q-53 -253 -127 -360q-144 -217 -526 -217q-288 0 -442 115z" />
<glyph unicode="z" horiz-adv-x="1200" d="M-14 0l43 197l579 520h-186l-43 -137h-279l99 448h983l-49 -233q-259 -246 -521 -478h219l43 154h275l-102 -471h-1061z" />
<glyph unicode="{" horiz-adv-x="800" d="M-2 502l47 225q139 9 191 53q56 47 77 168l43 217q41 207 154 283t352 76h115l-43 -201h-53q-95 0 -152 -45.5t-82 -161.5l-43 -201q-37 -167 -110 -231t-197 -88q182 -27 182 -217q0 -59 -12 -123q-51 -236 -51 -291q0 -127 149 -127h62l-43 -196h-99q-209 0 -297 57 t-88 186q0 63 68 373q12 52 12 98q0 72 -41.5 103.5t-140.5 42.5z" />
<glyph unicode="|" horiz-adv-x="571" d="M-61 -377l405 1944h301l-405 -1944h-301z" />
<glyph unicode="}" horiz-adv-x="800" d="M-158 -358l43 200h54q94 0 151 45t82 162l43 201q37 166 111 231q73 64 196 88q-182 27 -182 217q0 58 12 123q51 236 51 291q0 127 -149 127h-61l43 197h98q209 0 296 -57t87 -187q0 -55 -66 -373q-12 -53 -12 -98q0 -72 41 -103t141 -42l-47 -226q-134 -9 -192 -55 q-57 -48 -78 -166l-41 -217q-40 -205 -156 -283q-112 -75 -350 -75h-115z" />
<glyph unicode="~" horiz-adv-x="1406" d="M158 555q187 233 362 233q84 0 223 -77q104 -58 172 -58q59 0 106.5 32.5t108.5 113.5l152 -131q-93 -125 -182 -183.5t-197 -58.5q-104 0 -225 74q-103 59 -168 59q-94 0 -209 -139z" />
<glyph unicode="&#xa1;" horiz-adv-x="684" d="M-106 -379q40 237 247 879h330q-58 -619 -115 -879h-462zM141 809q0 110 67.5 179t176.5 69q87 0 141 -52t54 -139q0 -105 -68.5 -175t-173.5 -70q-83 0 -140 49.5t-57 138.5z" />
<glyph unicode="&#xa2;" horiz-adv-x="1083" d="M86 403q0 295 207 478q145 130 385 145l43 203h166l-41 -205q188 -21 248 -78l-78 -362h-234l23 147q-50 4 -53 4q-134 0 -191 -57q-82 -76 -82 -191q0 -86 51 -135t156 -49q191 0 313 88h9l-68 -315q-85 -70 -311 -82l-43 -219h-170l47 221q-173 21 -275 128.5 t-102 278.5z" />
<glyph unicode="&#xa3;" horiz-adv-x="1312" d="M-6 0l45 219q112 41 203 117q92 77 92 180q0 45 -8 66h-203l35 192h139q0 2 -0.5 7.5t-1.5 17t-2 22.5q-2 27 -2 58q0 240 162 374q163 138 421 138q111 0 238 -31q122 -29 174 -84l-78 -340h-8q-126 108 -297 108q-85 0 -135.5 -45.5t-50.5 -134.5q0 -40 4 -90h321 l-34 -192h-279q0 -10 -4 -56q-15 -135 -182 -204h354l37 139h274l-94 -461h-1120z" />
<glyph unicode="&#xa4;" horiz-adv-x="1261" d="M127 334l152 131q-62 83 -62 219q0 137 86 258l-129 152l168 141l131 -152q80 50 193 50q150 0 254 -82l155 137l139 -158l-149 -135q53 -83 53 -213q0 -168 -82 -262l131 -152l-163 -143l-130 149q-85 -43 -192 -43q-156 0 -266 72l-146 -131zM463 690 q0 -108 53.5 -172.5t153.5 -64.5q85 0 146 65t61 166t-58.5 166t-144.5 65q-88 0 -149.5 -62.5t-61.5 -162.5z" />
<glyph unicode="&#xa5;" horiz-adv-x="1464" d="M129 362l33 150h340v10l-45 111h-271l33 149h176l-119 287h-141l64 295h639l-64 -295h-59q62 -194 76 -248l176 248h-62l74 295h590l-62 -295h-135l-235 -287h174l-31 -149h-266l-92 -111l-2 -10h335l-32 -150h-332l-14 -65h153l-61 -297h-721l57 297h150l14 65h-340z " />
<glyph unicode="&#xa6;" horiz-adv-x="571" d="M-18 -193l137 674h301l-137 -674h-301zM186 791l138 673h301l-138 -673h-301z" />
<glyph unicode="&#xa7;" horiz-adv-x="1161" d="M-41 -96l76 311h8q180 -162 424 -162q78 0 78 53q0 24 -17 41q-16 17 -90 60q-144 85 -237 145q-119 76 -119 209q0 109 65 177.5t183 88.5q-90 93 -90 234q0 194 151 303q150 106 373 106q270 0 424 -127l-78 -321h-6q-176 147 -373 147q-76 0 -76 -59q0 -23 18 -40.5 t77 -53.5q180 -104 256 -156q108 -77 108 -203q0 -111 -66.5 -184.5t-183.5 -97.5q109 -83 109 -223q0 -89 -31 -159.5t-83 -117t-125 -77t-153 -43.5t-171 -13q-112 0 -240 43q-130 44 -211 119zM471 653q0 -24 9.5 -37t41.5 -34q120 -70 146 -82q22 0 41.5 16.5t19.5 38.5 q0 31 -31 53q-171 101 -172 101q-23 -1 -39 -18t-16 -38z" />
<glyph unicode="&#xa8;" horiz-adv-x="421" d="M-156 1339q0 81 50.5 135t130.5 54q65 0 106 -37.5t41 -108.5q0 -83 -50.5 -136.5t-131.5 -53.5q-66 0 -106 40t-40 107zM252 1339q0 81 50 135t130 54q65 0 106.5 -37.5t41.5 -108.5q0 -82 -51 -136t-132 -54q-66 0 -105.5 40t-39.5 107z" />
<glyph unicode="&#xa9;" horiz-adv-x="1662" d="M100 707q0 312 209 524q213 213 520 213q320 0 525 -211q205 -208 205 -526q0 -312 -207 -525q-205 -211 -521 -211q-314 0 -522 211q-209 212 -209 525zM199 707q0 -277 180 -463q181 -187 452 -187q273 0 455 185q180 186 180 465q0 276 -182 464q-181 187 -455 187 q-267 0 -450 -189q-180 -186 -180 -462zM387 631q0 132 54 248.5t153 193.5q132 105 342 105q97 0 179.5 -24t115.5 -60l-57 -265h-191l18 115q-46 4 -49 4q-99 0 -170 -53q-96 -72 -96 -215q0 -93 52 -144t143 -51q140 0 237 66h8l-47 -256q-109 -53 -297 -53 q-179 0 -287 105.5t-108 283.5z" />
<glyph unicode="&#xaa;" horiz-adv-x="866" d="M86 840q0 199 135 331q101 101 250 101q119 0 160 -80l12 63h264l-78 -368q-8 -24 -8 -51q0 -48 45 -48q28 0 43 9h9l-41 -189q-55 -22 -136 -22q-123 0 -157 67q-5 8 -15 45q-75 -118 -235 -118q-112 0 -180 68t-68 192zM362 887q0 -47 25 -76t62 -29q67 0 108 78 l31 127q-9 78 -76 78q-70 0 -106 -51q-44 -59 -44 -127z" />
<glyph unicode="&#xab;" horiz-adv-x="1071" d="M37 528l344 365h283l-359 -379l201 -375h-258zM481 528l344 365h281l-356 -379l200 -375h-258z" />
<glyph unicode="&#xac;" horiz-adv-x="1406" d="M176 494l49 221h1045l-146 -643h-225l94 422h-817z" />
<glyph unicode="&#xad;" horiz-adv-x="653" d="M57 434l54 271h501l-57 -271h-498z" />
<glyph unicode="&#xae;" horiz-adv-x="1662" d="M100 707q0 312 209 524q213 213 520 213q320 0 525 -211q205 -208 205 -526q0 -312 -207 -525q-205 -211 -521 -211q-314 0 -522 211q-209 212 -209 525zM199 707q0 -277 180 -463q181 -187 452 -187q273 0 455 185q180 186 180 465q0 276 -182 464q-181 187 -455 187 q-267 0 -450 -189q-180 -186 -180 -462zM371 301l37 174h79l109 514h-80l37 176h391q172 0 248 -49q102 -64 102 -203q0 -207 -202 -274l61 -164h107l-37 -174h-254l-103 297q-31 -2 -112 -2l-27 -121h68l-37 -174h-387zM795 786h45q117 0 147 15q57 26 57 90q0 55 -45 70 q-30 10 -106 10h-59z" />
<glyph unicode="&#xaf;" horiz-adv-x="421" d="M-147 1247l45 219h673l-47 -219h-671z" />
<glyph unicode="&#xb0;" horiz-adv-x="624" d="M176 1176q0 123 79.5 202.5t199.5 79.5q118 0 192 -77.5t74 -202.5q0 -118 -80 -201q-76 -82 -192 -82q-115 0 -195 80q-78 84 -78 201zM299 1176q0 -75 39.5 -121.5t112.5 -46.5q68 0 109.5 49t41.5 123q0 72 -42.5 117.5t-110.5 45.5t-109 -46.5t-41 -120.5z" />
<glyph unicode="&#xb1;" horiz-adv-x="1406" d="M76 0l45 221h1048l-49 -221h-1044zM227 741l49 222h410l90 401h230l-93 -401h408l-47 -222h-408l-94 -405h-229l94 405h-410z" />
<glyph unicode="&#xb2;" horiz-adv-x="858" d="M133 819l29 135q221 136 362 252q90 75 90 162q0 42 -24 66t-66 24q-110 0 -254 -102l-8 4l43 213q62 49 154.5 79.5t175.5 30.5q126 0 202 -64.5t76 -164.5q0 -93 -34.5 -160.5t-118.5 -132.5q-90 -69 -209 -141h80q39 2 92 2l27 88h170l-64 -291h-723z" />
<glyph unicode="&#xb3;" horiz-adv-x="858" d="M186 868l52 232h8q88 -76 233 -76q48 0 77.5 17t29.5 46q0 48 -43 54q-52 10 -121 10h-23l39 188h27q79 0 110 7q52 12 52 61t-72 49q-113 0 -240 -74h-8l43 217q122 82 303 82q138 0 206.5 -51.5t68.5 -140.5q0 -93 -49 -148t-154 -81q84 -13 126 -57.5t42 -108.5 q0 -102 -66 -174q-116 -119 -360 -119q-187 0 -281 67z" />
<glyph unicode="&#xb4;" horiz-adv-x="421" d="M-127 1178v8l291 350h383v-8l-410 -350h-264z" />
<glyph unicode="&#xb5;" horiz-adv-x="1255" d="M-94 -432l305 1458h414l-113 -530q-10 -52 -10 -99q0 -69 80 -69q98 0 141 102l127 596h414l-213 -1026h-400l29 139q-58 -135 -178 -135q-59 0 -84 31l-99 -467h-413z" />
<glyph unicode="&#xb6;" horiz-adv-x="1165" d="M150 823q0 289 202 439q201 149 533 149h301l-355 -1706h-116l334 1593h-177l-333 -1593h-113l149 723q-201 3 -313 115t-112 280z" />
<glyph unicode="&#xb7;" horiz-adv-x="595" d="M82 528q0 105 67 175.5t170 70.5q86 0 141.5 -49t55.5 -139q0 -110 -65.5 -179t-174.5 -69q-87 0 -140.5 51.5t-53.5 138.5z" />
<glyph unicode="&#xb8;" horiz-adv-x="421" d="M-59 -510l39 160h8q57 -45 135 -45q102 0 102 61q0 70 -104 70q-41 0 -88 -15l-6 5l123 294h161l-61 -137q95 -4 148 -58t53 -136q0 -128 -81.5 -190t-222.5 -62q-135 0 -206 53z" />
<glyph unicode="&#xb9;" horiz-adv-x="858" d="M252 819l39 211h149l78 365l-205 -97l54 244l264 121h225l-139 -633h157l-43 -211h-579z" />
<glyph unicode="&#xba;" horiz-adv-x="786" d="M90 866q0 202 129 310q118 100 285 100q153 0 248.5 -74t95.5 -211q0 -97 -40 -188t-110 -141q-113 -82 -272 -82q-147 0 -241.5 75t-94.5 211zM362 887q0 -99 87 -99q53 0 79 39q45 51 45 144q0 96 -81 96q-65 0 -99 -57q-31 -54 -31 -123z" />
<glyph unicode="&#xbb;" horiz-adv-x="1071" d="M-45 139l354 379l-200 375h262l211 -389l-344 -365h-283zM399 139l355 379l-201 375h262l211 -389l-344 -365h-283z" />
<glyph unicode="&#xbc;" horiz-adv-x="1849" d="M143 518l39 211h150l78 365l-205 -97l53 244l264 121h226l-140 -633h158l-43 -211h-580zM455 -25l878 1422h170l-876 -1422h-172zM930 225l33 154l505 481h232l-94 -444h123l-41 -191h-121l-47 -225h-267l50 225h-373zM1208 416h135q11 56 41 184q-17 -22 -176 -184z" />
<glyph unicode="&#xbd;" horiz-adv-x="1849" d="M113 518l39 211h149l78 365l-205 -97l53 244l265 121h225l-139 -633h157l-43 -211h-579zM410 -25l878 1422h170l-876 -1422h-172zM965 -2l28 135q225 138 363 252q90 75 90 162q0 42 -24 66t-66 24q-110 0 -254 -102l-8 4l43 213q62 49 154 79.5t175 30.5 q126 0 202.5 -64.5t76.5 -164.5q0 -93 -35 -160.5t-119 -132.5q-90 -69 -209 -141h80q39 2 92 2l27 88h170l-63 -291h-723z" />
<glyph unicode="&#xbe;" horiz-adv-x="1849" d="M88 567l51 232h8q88 -76 234 -76q48 0 77 17t29 46q0 45 -43 54q-52 10 -120 10h-23l39 188h27q83 0 110 6q51 12 51 62q0 49 -71 49q-113 0 -240 -74h-8l43 217q122 82 303 82q137 0 205.5 -51.5t68.5 -140.5q0 -93 -48.5 -148.5t-153.5 -81.5q85 -13 126.5 -57 t41.5 -108q0 -103 -66 -175q-115 -118 -360 -118q-187 0 -281 67zM449 -25l878 1422h170l-876 -1422h-172zM932 225l33 154l505 481h232l-94 -444h123l-41 -191h-121l-47 -225h-267l50 225h-373zM1210 416h136q16 81 40 184q-17 -22 -176 -184z" />
<glyph unicode="&#xbf;" horiz-adv-x="1003" d="M-23 -82q0 264 293 440q94 58 115 166h328q-14 -108 -40.5 -164t-90.5 -102q-82 -64 -111 -99.5t-29 -78.5q0 -109 127 -109q146 0 265 76h8l-64 -352q-56 -50 -168 -78q-108 -27 -196 -27q-207 0 -322 86.5t-115 241.5zM371 809q0 110 67 179t176 69q86 0 140.5 -53 t54.5 -138q0 -105 -69 -175t-173 -70q-83 0 -139.5 49.5t-56.5 138.5z" />
<glyph unicode="&#xc0;" horiz-adv-x="1507" d="M-96 0l65 307h115l637 1104h455l178 -1104h121l-66 -307h-666l66 307h98l-8 58h-295l-31 -58h115l-65 -307h-719zM487 1817v8h408l264 -281v-8h-287zM709 657h174q-8 77 -29 328q-10 -29 -145 -328z" />
<glyph unicode="&#xc1;" horiz-adv-x="1507" d="M-96 0l65 307h115l637 1104h455l178 -1104h121l-66 -307h-666l66 307h98l-8 58h-295l-31 -58h115l-65 -307h-719zM700 1536v8l328 281h424v-8l-453 -281h-299zM709 657h174q-8 77 -29 328q-10 -29 -145 -328z" />
<glyph unicode="&#xc2;" horiz-adv-x="1507" d="M-96 0l65 307h115l637 1104h455l178 -1104h121l-66 -307h-666l66 307h98l-8 58h-295l-31 -58h115l-65 -307h-719zM514 1536v8l367 283h245l254 -283v-8h-288l-117 104l-152 -104h-309zM709 657h174q-8 77 -29 328q-10 -29 -145 -328z" />
<glyph unicode="&#xc3;" horiz-adv-x="1507" d="M-96 0l65 307h115l637 1104h455l178 -1104h121l-66 -307h-666l66 307h98l-8 58h-295l-31 -58h115l-65 -307h-719zM553 1540q23 154 94.5 234.5t181.5 80.5q47 0 172 -61q74 -39 97 -39q55 0 76 100h206q-46 -315 -268 -315q-72 0 -178 59q-62 35 -92 35q-59 0 -86 -94 h-203zM709 657h174q-8 77 -29 328q-10 -29 -145 -328z" />
<glyph unicode="&#xc4;" horiz-adv-x="1507" d="M-96 0l65 307h115l637 1104h455l178 -1104h121l-66 -307h-666l66 307h98l-8 58h-295l-31 -58h115l-65 -307h-719zM600 1667q0 81 50 134.5t130 53.5q65 0 106.5 -37.5t41.5 -107.5q0 -83 -50 -136.5t-133 -53.5q-64 0 -104.5 40t-40.5 107zM709 657h174q-8 77 -29 328 q-10 -29 -145 -328zM1024 1667q0 81 50 134.5t130 53.5q64 0 106 -37.5t42 -107.5q0 -82 -51 -136t-132 -54q-66 0 -105.5 40t-39.5 107z" />
<glyph unicode="&#xc5;" horiz-adv-x="1507" d="M-96 0l65 307h115l637 1104h455l178 -1104h121l-66 -307h-666l66 307h98l-8 58h-295l-31 -58h115l-65 -307h-719zM709 657h174q-8 77 -29 328q-10 -29 -145 -328zM764 1673q0 90 62 148.5t155 58.5q86 0 137 -53.5t51 -140.5q0 -91 -59.5 -152t-151.5 -61 q-84 0 -139 56.5t-55 143.5zM866 1677q0 -44 24.5 -72t70.5 -28q43 0 70.5 30t27.5 74q0 95 -86 95q-45 0 -76 -28t-31 -71z" />
<glyph unicode="&#xc6;" horiz-adv-x="2013" d="M-94 0l65 307h92l625 797h-135l65 307h1465l-82 -457h-305l14 140h-190l-43 -211h352l-68 -324h-354l-49 -242h274l43 162h301l-104 -479h-1143l64 307h110l8 55h-354l-39 -55h127l-65 -307h-674zM782 655h191l76 363q-83 -117 -267 -363z" />
<glyph unicode="&#xc7;" horiz-adv-x="1492" d="M94 555q0 209 88 401q90 196 252 318q223 168 547 168q153 0 293 -35q137 -34 192 -82l-84 -426h-307l25 188q-75 11 -105 11q-156 0 -274 -92q-68 -56 -111 -164t-43 -215q0 -141 85.5 -218t240.5 -77q234 0 387 100h8l-78 -371q-143 -82 -426 -88l-41 -94 q97 -4 151 -60t54 -141q0 -131 -84 -194.5t-225 -63.5q-140 0 -211 56l37 159h10q70 -43 139 -43q105 0 105 64q0 72 -105 72q-46 0 -92 -15l-6 4l107 260q-247 30 -388 181.5t-141 396.5z" />
<glyph unicode="&#xc8;" horiz-adv-x="1232" d="M-63 0l65 307h115l164 797h-119l65 307h1076l-89 -457h-307l19 140h-193l-41 -211h352l-67 -324h-354l-50 -240h271l45 160h303l-105 -479h-1150zM319 1817v8h408l264 -281v-8h-286z" />
<glyph unicode="&#xc9;" horiz-adv-x="1232" d="M-63 0l65 307h115l164 797h-119l65 307h1076l-89 -457h-307l19 140h-193l-41 -211h352l-67 -324h-354l-50 -240h271l45 160h303l-105 -479h-1150zM561 1536v8l328 281h424v-8l-453 -281h-299z" />
<glyph unicode="&#xca;" horiz-adv-x="1232" d="M-63 0l65 307h115l164 797h-119l65 307h1076l-89 -457h-307l19 140h-193l-41 -211h352l-67 -324h-354l-50 -240h271l45 160h303l-105 -479h-1150zM324 1536v8l366 283h246l254 -283v-8h-289l-117 104l-151 -104h-309z" />
<glyph unicode="&#xcb;" horiz-adv-x="1232" d="M-63 0l65 307h115l164 797h-119l65 307h1076l-89 -457h-307l19 140h-193l-41 -211h352l-67 -324h-354l-50 -240h271l45 160h303l-105 -479h-1150zM424 1667q0 81 50 134.5t130 53.5q65 0 106.5 -37.5t41.5 -107.5q0 -83 -50 -136.5t-133 -53.5q-64 0 -104.5 40t-40.5 107 zM848 1667q0 81 50 134.5t130 53.5q64 0 106 -37.5t42 -107.5q0 -82 -51 -136t-132 -54q-66 0 -105.5 40t-39.5 107z" />
<glyph unicode="&#xcc;" horiz-adv-x="755" d="M-63 0l65 307h115l164 797h-123l65 307h688l-63 -307h-113l-166 -797h121l-65 -307h-688zM102 1817v8h408l264 -281v-8h-287z" />
<glyph unicode="&#xcd;" horiz-adv-x="755" d="M-63 0l65 307h115l164 797h-123l65 307h688l-63 -307h-113l-166 -797h121l-65 -307h-688zM332 1536v8l327 281h424v-8l-452 -281h-299z" />
<glyph unicode="&#xce;" horiz-adv-x="755" d="M-63 0l65 307h115l164 797h-123l65 307h688l-63 -307h-113l-166 -797h121l-65 -307h-688zM139 1536v8l367 283h246l254 -283v-8h-289l-117 104l-151 -104h-310z" />
<glyph unicode="&#xcf;" horiz-adv-x="755" d="M-63 0l65 307h115l164 797h-123l65 307h688l-63 -307h-113l-166 -797h121l-65 -307h-688zM231 1667q0 81 50 134.5t131 53.5q65 0 106 -37t41 -108q0 -83 -49.5 -136.5t-132.5 -53.5q-64 0 -105 40t-41 107zM655 1667q0 81 50 134.5t131 53.5q64 0 105.5 -37.5 t41.5 -107.5q0 -83 -50.5 -136.5t-131.5 -53.5q-66 0 -106 40t-40 107z" />
<glyph unicode="&#xd0;" horiz-adv-x="1529" d="M-63 0l65 307h115l59 291h-158l56 256h155l52 250h-119l65 307h484q331 0 508 -70q145 -57 223 -178t78 -286q0 -642 -512 -811q-201 -66 -578 -66h-493zM567 317h29q194 0 301 66q84 54 131 170.5t47 251.5q0 148 -84 223q-71 59 -219 59h-47l-49 -233h170l-55 -256 h-166z" />
<glyph unicode="&#xd1;" horiz-adv-x="1589" d="M-61 0l61 307h117l164 797h-119l65 307h647q120 -424 181 -704q27 193 69 397h-118l65 307h672l-62 -307h-125l-229 -1104h-493q-97 415 -181 807q-18 -106 -98 -500h133l-65 -307h-684zM618 1540q23 154 95 234.5t182 80.5q47 0 172 -61q74 -39 96 -39q55 0 76 100h207 q-46 -315 -268 -315q-73 0 -179 59q-62 35 -92 35q-59 0 -86 -94h-203z" />
<glyph unicode="&#xd2;" horiz-adv-x="1599" d="M94 580q0 198 82 381q81 180 234 303q224 178 528 178q275 0 461 -154q186 -149 186 -438q0 -207 -80 -391.5t-231 -306.5q-226 -179 -535 -179q-281 0 -463 156t-182 451zM545 1817v8h407l265 -281v-8h-287zM567 575q0 -258 207 -258q144 0 230 127q47 71 77 191 q31 124 31 215q0 248 -203 248q-137 0 -219 -123q-50 -61 -88 -184q-35 -122 -35 -216z" />
<glyph unicode="&#xd3;" horiz-adv-x="1599" d="M94 580q0 198 82 381q81 180 234 303q224 178 528 178q275 0 461 -154q186 -149 186 -438q0 -207 -80 -391.5t-231 -306.5q-226 -179 -535 -179q-281 0 -463 156t-182 451zM567 575q0 -258 207 -258q144 0 230 127q47 71 77 191q31 124 31 215q0 248 -203 248 q-137 0 -219 -123q-50 -61 -88 -184q-35 -122 -35 -216zM721 1536v8l328 281h424v-8l-453 -281h-299z" />
<glyph unicode="&#xd4;" horiz-adv-x="1599" d="M94 580q0 198 82 381q81 180 234 303q224 178 528 178q275 0 461 -154q186 -149 186 -438q0 -207 -80 -391.5t-231 -306.5q-226 -179 -535 -179q-281 0 -463 156t-182 451zM522 1536v8l367 283h246l254 -283v-8h-289l-117 104l-152 -104h-309zM567 575q0 -258 207 -258 q144 0 230 127q47 71 77 191q31 124 31 215q0 248 -203 248q-137 0 -219 -123q-50 -61 -88 -184q-35 -122 -35 -216z" />
<glyph unicode="&#xd5;" horiz-adv-x="1599" d="M94 580q0 198 82 381q81 180 234 303q224 178 528 178q275 0 461 -154q186 -149 186 -438q0 -207 -80 -391.5t-231 -306.5q-226 -179 -535 -179q-281 0 -463 156t-182 451zM557 1540q23 154 95 234.5t182 80.5q47 0 172 -61q74 -39 96 -39q55 0 76 100h206 q-46 -315 -268 -315q-72 0 -178 59q-62 35 -92 35q-59 0 -86 -94h-203zM567 575q0 -258 207 -258q144 0 230 127q47 71 77 191q31 124 31 215q0 248 -203 248q-137 0 -219 -123q-50 -61 -88 -184q-35 -122 -35 -216z" />
<glyph unicode="&#xd6;" horiz-adv-x="1599" d="M94 580q0 198 82 381q81 180 234 303q224 178 528 178q275 0 461 -154q186 -149 186 -438q0 -207 -80 -391.5t-231 -306.5q-226 -179 -535 -179q-281 0 -463 156t-182 451zM567 575q0 -258 207 -258q144 0 230 127q47 71 77 191q31 124 31 215q0 248 -203 248 q-137 0 -219 -123q-50 -61 -88 -184q-35 -122 -35 -216zM643 1667q0 81 50 134.5t130 53.5q65 0 106.5 -37.5t41.5 -107.5q0 -83 -50 -136.5t-133 -53.5q-64 0 -104.5 40t-40.5 107zM1067 1667q0 81 50 134.5t130 53.5q64 0 106 -37.5t42 -107.5q0 -82 -51 -136t-132 -54 q-66 0 -105.5 40t-39.5 107z" />
<glyph unicode="&#xd7;" horiz-adv-x="1406" d="M223 285l355 323l-279 328l178 156l277 -324l350 319l145 -161l-352 -322l283 -328l-181 -155l-282 323l-350 -321z" />
<glyph unicode="&#xd8;" horiz-adv-x="1599" d="M94 580q0 196 82 376q81 179 234 301q232 185 528 185q173 0 315 -62l90 115h230l-168 -211q180 -158 180 -434q0 -206 -83 -392.5t-236 -305.5q-232 -179 -525 -179q-172 0 -319 66l-80 -100h-227l157 200q-178 163 -178 441zM565 618q0 -52 10 -94l406 514 q-37 15 -84 15q-133 0 -215 -107q-117 -150 -117 -328zM692 383q44 -18 101 -18q125 0 217 114q48 58 76 147.5t28 174.5q0 55 -12 98z" />
<glyph unicode="&#xd9;" horiz-adv-x="1501" d="M119 391q0 87 28 236l97 477h-111l66 307h684l-66 -307h-119l-106 -518q-17 -87 -17 -140q0 -56 45 -92.5t109 -36.5q133 0 193 78q31 36 69 209l103 500h-123l65 307h643l-65 -307h-105l-104 -506q-61 -287 -148 -397q-181 -228 -598 -228q-150 0 -266 39 q-122 43 -198 142.5t-76 236.5zM489 1817v8h408l264 -281v-8h-287z" />
<glyph unicode="&#xda;" horiz-adv-x="1501" d="M119 391q0 87 28 236l97 477h-111l66 307h684l-66 -307h-119l-106 -518q-17 -87 -17 -140q0 -56 45 -92.5t109 -36.5q133 0 193 78q31 36 69 209l103 500h-123l65 307h643l-65 -307h-105l-104 -506q-61 -287 -148 -397q-181 -228 -598 -228q-150 0 -266 39 q-122 43 -198 142.5t-76 236.5zM711 1536v8l327 281h424v-8l-452 -281h-299z" />
<glyph unicode="&#xdb;" horiz-adv-x="1501" d="M119 391q0 87 28 236l97 477h-111l66 307h684l-66 -307h-119l-106 -518q-17 -87 -17 -140q0 -56 45 -92.5t109 -36.5q133 0 193 78q31 36 69 209l103 500h-123l65 307h643l-65 -307h-105l-104 -506q-61 -287 -148 -397q-181 -228 -598 -228q-150 0 -266 39 q-122 43 -198 142.5t-76 236.5zM528 1536v8l367 283h246l254 -283v-8h-289l-117 104l-151 -104h-310z" />
<glyph unicode="&#xdc;" horiz-adv-x="1501" d="M119 391q0 87 28 236l97 477h-111l66 307h684l-66 -307h-119l-106 -518q-17 -87 -17 -140q0 -56 45 -92.5t109 -36.5q133 0 193 78q31 36 69 209l103 500h-123l65 307h643l-65 -307h-105l-104 -506q-61 -287 -148 -397q-181 -228 -598 -228q-150 0 -266 39 q-122 43 -198 142.5t-76 236.5zM614 1667q0 81 50 134.5t131 53.5q65 0 106 -37t41 -108q0 -83 -49.5 -136.5t-132.5 -53.5q-64 0 -105 40t-41 107zM1038 1667q0 81 50 134.5t131 53.5q64 0 105.5 -37.5t41.5 -107.5q0 -83 -50.5 -136.5t-131.5 -53.5q-66 0 -106 40t-40 107 z" />
<glyph unicode="&#xdd;" horiz-adv-x="1447" d="M135 1104l66 307h688l-62 -307h-92q58 -168 88 -268q47 71 195 268h-76l66 307h624l-65 -307h-125l-490 -586l-43 -211h135l-65 -307h-721l61 307h134l43 211l-242 586h-119zM700 1536v8l328 281h424v-8l-453 -281h-299z" />
<glyph unicode="&#xde;" horiz-adv-x="1417" d="M-63 0l65 309h115l164 793h-119l67 309h580l-47 -219h104q235 0 363 -41q112 -37 174.5 -119.5t62.5 -195.5q0 -325 -309 -441q-160 -59 -459 -59h-108l-10 -55h141l-59 -281h-725zM641 600h74q113 0 166 21q43 17 68.5 55.5t25.5 87.5q0 94 -60 125q-49 22 -143 22h-70z " />
<glyph unicode="&#xdf;" horiz-adv-x="1320" d="M-16 0l176 854q65 308 164 436q182 226 514 226q216 0 331 -103q117 -102 117 -244q0 -300 -323 -405q135 -11 214.5 -93t79.5 -212q0 -213 -131 -350q-133 -136 -350 -136q-87 0 -170 22t-125 58l58 297h8q70 -55 153 -55q64 0 104 41.5t40 112.5q0 61 -45.5 95 t-132.5 34h-33l69 325h29q72 0 112 47.5t40 124.5q0 55 -27 87t-70 32q-68 0 -108 -43q-32 -31 -51 -79.5t-39 -151.5l-191 -920h-413z" />
<glyph unicode="&#xe0;" horiz-adv-x="1339" d="M39 383q0 146 53.5 283t153.5 233q156 156 383 156q84 0 152 -32t98 -91l18 96h412l-117 -571q-12 -67 -12 -82q0 -74 71 -74q49 0 74 14l6 -2l-65 -293q-82 -36 -211 -36q-195 0 -248 120q-5 10 -16 60q-120 -187 -367 -187q-172 0 -278.5 107t-106.5 299zM426 1528v8 h381l213 -350v-8h-264zM469 457q0 -74 36.5 -118t94.5 -44q105 0 170 121l41 196q-6 59 -37.5 90t-81.5 31q-101 0 -160 -80q-63 -86 -63 -196z" />
<glyph unicode="&#xe1;" horiz-adv-x="1339" d="M39 383q0 146 53.5 283t153.5 233q156 156 383 156q84 0 152 -32t98 -91l18 96h412l-117 -571q-12 -67 -12 -82q0 -74 71 -74q49 0 74 14l6 -2l-65 -293q-82 -36 -211 -36q-195 0 -248 120q-5 10 -16 60q-120 -187 -367 -187q-172 0 -278.5 107t-106.5 299zM469 457 q0 -74 36.5 -118t94.5 -44q105 0 170 121l41 196q-6 59 -37.5 90t-81.5 31q-101 0 -160 -80q-63 -86 -63 -196zM604 1178v8l291 350h383v-8l-410 -350h-264z" />
<glyph unicode="&#xe2;" horiz-adv-x="1339" d="M39 383q0 146 53.5 283t153.5 233q156 156 383 156q84 0 152 -32t98 -91l18 96h412l-117 -571q-12 -67 -12 -82q0 -74 71 -74q49 0 74 14l6 -2l-65 -293q-82 -36 -211 -36q-195 0 -248 120q-5 10 -16 60q-120 -187 -367 -187q-172 0 -278.5 107t-106.5 299zM401 1178v8 l355 348h225l203 -348v-8h-244l-102 131l-170 -131h-267zM469 457q0 -74 36.5 -118t94.5 -44q105 0 170 121l41 196q-6 59 -37.5 90t-81.5 31q-101 0 -160 -80q-63 -86 -63 -196z" />
<glyph unicode="&#xe3;" horiz-adv-x="1339" d="M39 383q0 146 53.5 283t153.5 233q156 156 383 156q84 0 152 -32t98 -91l18 96h412l-117 -571q-12 -67 -12 -82q0 -74 71 -74q49 0 74 14l6 -2l-65 -293q-82 -36 -211 -36q-195 0 -248 120q-5 10 -16 60q-120 -187 -367 -187q-172 0 -278.5 107t-106.5 299zM430 1204 q24 162 95 247t177 85q54 0 168 -63q74 -39 97 -39q52 0 73 102h203q-47 -332 -264 -332q-67 0 -172 60q-65 39 -92 39q-60 0 -84 -99h-201zM469 457q0 -74 36.5 -118t94.5 -44q105 0 170 121l41 196q-6 59 -37.5 90t-81.5 31q-101 0 -160 -80q-63 -86 -63 -196z" />
<glyph unicode="&#xe4;" horiz-adv-x="1339" d="M39 383q0 146 53.5 283t153.5 233q156 156 383 156q84 0 152 -32t98 -91l18 96h412l-117 -571q-12 -67 -12 -82q0 -74 71 -74q49 0 74 14l6 -2l-65 -293q-82 -36 -211 -36q-195 0 -248 120q-5 10 -16 60q-120 -187 -367 -187q-172 0 -278.5 107t-106.5 299zM469 457 q0 -74 36.5 -118t94.5 -44q105 0 170 121l41 196q-6 59 -37.5 90t-81.5 31q-101 0 -160 -80q-63 -86 -63 -196zM475 1339q0 81 50 135t130 54q65 0 106.5 -37.5t41.5 -108.5q0 -83 -50.5 -136.5t-131.5 -53.5q-66 0 -106 40t-40 107zM883 1339q0 81 50 135t130 54 q65 0 106 -37.5t41 -108.5q0 -83 -50.5 -136.5t-131.5 -53.5q-66 0 -105.5 40t-39.5 107z" />
<glyph unicode="&#xe5;" horiz-adv-x="1339" d="M39 383q0 146 53.5 283t153.5 233q156 156 383 156q84 0 152 -32t98 -91l18 96h412l-117 -571q-12 -67 -12 -82q0 -74 71 -74q49 0 74 14l6 -2l-65 -293q-82 -36 -211 -36q-195 0 -248 120q-5 10 -16 60q-120 -187 -367 -187q-172 0 -278.5 107t-106.5 299zM469 457 q0 -74 36.5 -118t94.5 -44q105 0 170 121l41 196q-6 59 -37.5 90t-81.5 31q-101 0 -160 -80q-63 -86 -63 -196zM600 1372q0 93 66 155t163 62q90 0 143.5 -56.5t53.5 -148.5q0 -94 -62.5 -157.5t-158.5 -63.5q-88 0 -146.5 59.5t-58.5 149.5zM709 1376q0 -49 25 -78.5 t73 -29.5q46 0 75 32t29 80q0 105 -92 105q-45 0 -77.5 -31.5t-32.5 -77.5z" />
<glyph unicode="&#xe6;" horiz-adv-x="1671" d="M-16 266q0 246 239 322q95 33 269 33q64 0 108 -13q6 24 6 45q0 78 -131 78q-172 0 -340 -98h-8l61 315q172 105 392 105q210 0 280 -101q54 46 147 73.5t187 27.5q200 0 319 -107q121 -109 121 -289q0 -132 -26 -217h-641q-2 -6 -2 -18q0 -58 52 -92.5t142 -34.5 q209 0 383 86h8l-65 -315q-89 -53 -182 -73t-242 -20q-109 0 -211.5 39t-163.5 103q-160 -142 -373 -142q-140 0 -235 80q-94 82 -94 213zM367 305q0 -76 77 -76q69 0 134 50q-10 66 -5 108q-18 6 -65 6q-28 0 -70 -10q-71 -21 -71 -78zM997 637h285q4 20 4 41 q0 42 -34.5 65t-88.5 23q-123 0 -166 -129z" />
<glyph unicode="&#xe7;" horiz-adv-x="1083" d="M37 418q0 325 242 506q168 131 426 131q85 0 204 -25q115 -21 152 -53l-57 -383h-269l17 151q-5 0 -22 1.5t-21 1.5q-39 0 -88.5 -18t-79.5 -44q-37 -33 -61.5 -91t-24.5 -118q0 -88 55.5 -137t163.5 -49q156 0 268 69h8l-63 -325q-118 -62 -332 -62l-39 -90 q95 -4 148 -58t53 -136q0 -128 -81.5 -190t-221.5 -62q-136 0 -207 53l39 160h8q57 -45 135 -45q103 0 103 61q0 70 -105 70q-41 0 -88 -15l-6 5l108 262q-169 33 -266.5 144.5t-97.5 285.5z" />
<glyph unicode="&#xe8;" horiz-adv-x="1159" d="M37 430q0 280 196 461q174 162 431 162q211 0 332.5 -108.5t121.5 -297.5q0 -128 -20 -207h-654v-10q0 -135 232 -135q184 0 366 90h9l-70 -315q-163 -97 -416 -97q-244 0 -387 125q-141 126 -141 332zM262 1528v8h381l213 -350v-8h-264zM475 637h285q4 20 4 37 q0 41 -32.5 66.5t-78.5 25.5q-61 0 -110 -32.5t-68 -96.5z" />
<glyph unicode="&#xe9;" horiz-adv-x="1159" d="M37 430q0 280 196 461q174 162 431 162q211 0 332.5 -108.5t121.5 -297.5q0 -128 -20 -207h-654v-10q0 -135 232 -135q184 0 366 90h9l-70 -315q-163 -97 -416 -97q-244 0 -387 125q-141 126 -141 332zM475 637h285q4 20 4 37q0 41 -32.5 66.5t-78.5 25.5 q-61 0 -110 -32.5t-68 -96.5zM483 1178v8l291 350h383v-8l-409 -350h-265z" />
<glyph unicode="&#xea;" horiz-adv-x="1159" d="M37 430q0 280 196 461q174 162 431 162q211 0 332.5 -108.5t121.5 -297.5q0 -128 -20 -207h-654v-10q0 -135 232 -135q184 0 366 90h9l-70 -315q-163 -97 -416 -97q-244 0 -387 125q-141 126 -141 332zM272 1178v8l355 348h225l203 -348v-8h-244l-102 131l-170 -131h-267 zM475 637h285q4 20 4 37q0 41 -32.5 66.5t-78.5 25.5q-61 0 -110 -32.5t-68 -96.5z" />
<glyph unicode="&#xeb;" horiz-adv-x="1159" d="M37 430q0 280 196 461q174 162 431 162q211 0 332.5 -108.5t121.5 -297.5q0 -128 -20 -207h-654v-10q0 -135 232 -135q184 0 366 90h9l-70 -315q-163 -97 -416 -97q-244 0 -387 125q-141 126 -141 332zM358 1339q0 81 50.5 135t130.5 54q65 0 106 -37.5t41 -108.5 q0 -83 -50.5 -136.5t-131.5 -53.5q-66 0 -106 40t-40 107zM475 637h285q4 20 4 37q0 41 -32.5 66.5t-78.5 25.5q-61 0 -110 -32.5t-68 -96.5zM766 1339q0 81 50 135t130 54q65 0 106.5 -37.5t41.5 -108.5q0 -82 -51 -136t-132 -54q-66 0 -105.5 40t-39.5 107z" />
<glyph unicode="&#xec;" horiz-adv-x="688" d="M25 1528v8h381l212 -350v-8h-264zM63 719l64 309h524l-121 -571q-12 -67 -12 -82q0 -74 72 -74q46 0 78 14l6 -2l-70 -293q-82 -36 -221 -36q-301 0 -301 237q0 47 18 139l74 359h-111z" />
<glyph unicode="&#xed;" horiz-adv-x="688" d="M63 719l64 309h524l-121 -571q-12 -67 -12 -82q0 -74 72 -74q46 0 78 14l6 -2l-70 -293q-82 -36 -221 -36q-301 0 -301 237q0 47 18 139l74 359h-111zM229 1178v8l291 350h383v-8l-409 -350h-265z" />
<glyph unicode="&#xee;" horiz-adv-x="688" d="M2 1178v8l354 348h226l202 -348v-8h-243l-103 131l-170 -131h-266zM63 719l64 309h524l-121 -571q-12 -67 -12 -82q0 -74 72 -74q46 0 78 14l6 -2l-70 -293q-82 -36 -221 -36q-301 0 -301 237q0 47 18 139l74 359h-111z" />
<glyph unicode="&#xef;" horiz-adv-x="688" d="M63 719l64 309h524l-121 -571q-12 -67 -12 -82q0 -74 72 -74q46 0 78 14l6 -2l-70 -293q-82 -36 -221 -36q-301 0 -301 237q0 47 18 139l74 359h-111zM80 1339q0 81 50 135t130 54q65 0 106.5 -37.5t41.5 -108.5q0 -82 -51 -136t-132 -54q-66 0 -105.5 40t-39.5 107z M487 1339q0 81 50.5 135t130.5 54q65 0 106 -37.5t41 -108.5q0 -83 -50.5 -136.5t-131.5 -53.5q-66 0 -106 40t-40 107z" />
<glyph unicode="&#xf0;" horiz-adv-x="1251" d="M37 418q0 287 184 456q145 130 377 130q140 0 205 -86q-25 97 -135 219l-246 -131l57 237l41 23q-63 36 -90 47l160 246q125 -42 244 -125l245 133l-47 -236l-49 -26q227 -242 227 -568q0 -449 -243 -633q-169 -129 -412 -129q-218 0 -369 109q-149 110 -149 334z M461 451q0 -156 129 -156q86 0 131 63q63 75 63 201q0 79 -35 118.5t-94 39.5q-100 0 -153 -90q-41 -71 -41 -176z" />
<glyph unicode="&#xf1;" horiz-adv-x="1304" d="M31 0l149 719h-108l63 309h512l-37 -168q51 86 142.5 139.5t189.5 53.5q123 0 199 -63t76 -187q0 -67 -31 -207l-31 -139q-12 -46 -12 -82q0 -74 71 -74q46 0 78 14l6 -2l-69 -293q-82 -36 -221 -36q-303 0 -303 237q0 67 16 139l39 177q14 63 14 96q0 72 -65 72 q-92 0 -144 -113l-121 -592h-413zM350 1204q24 162 95.5 247t177.5 85q54 0 168 -63q74 -39 96 -39q53 0 74 102h202q-47 -332 -264 -332q-67 0 -172 60q-65 39 -92 39q-60 0 -84 -99h-201z" />
<glyph unicode="&#xf2;" horiz-adv-x="1251" d="M37 418q0 291 209 473q88 79 207 120.5t241 41.5q139 0 252 -43q118 -43 191 -146.5t73 -249.5q0 -149 -63 -284.5t-176 -220.5q-178 -134 -418 -134q-218 0 -369 109q-147 111 -147 334zM338 1528v8h381l213 -350v-8h-264zM461 440q0 -151 129 -151q83 0 131 69 q65 86 65 228q0 75 -34 114t-90 39q-91 0 -150 -90q-51 -86 -51 -209z" />
<glyph unicode="&#xf3;" horiz-adv-x="1251" d="M37 418q0 291 209 473q88 79 207 120.5t241 41.5q139 0 252 -43q118 -43 191 -146.5t73 -249.5q0 -149 -63 -284.5t-176 -220.5q-178 -134 -418 -134q-218 0 -369 109q-147 111 -147 334zM461 440q0 -151 129 -151q83 0 131 69q65 86 65 228q0 75 -34 114t-90 39 q-91 0 -150 -90q-51 -86 -51 -209zM530 1178v8l291 350h383v-8l-409 -350h-265z" />
<glyph unicode="&#xf4;" horiz-adv-x="1251" d="M37 418q0 291 209 473q88 79 207 120.5t241 41.5q139 0 252 -43q118 -43 191 -146.5t73 -249.5q0 -149 -63 -284.5t-176 -220.5q-178 -134 -418 -134q-218 0 -369 109q-147 111 -147 334zM328 1178v8l354 348h225l203 -348v-8h-244l-102 131l-170 -131h-266zM461 440 q0 -151 129 -151q80 0 131 69q65 86 65 228q0 75 -34 114t-90 39q-91 0 -150 -90q-51 -86 -51 -209z" />
<glyph unicode="&#xf5;" horiz-adv-x="1251" d="M37 418q0 291 209 473q88 79 207 120.5t241 41.5q139 0 252 -43q118 -43 191 -146.5t73 -249.5q0 -149 -63 -284.5t-176 -220.5q-178 -134 -418 -134q-218 0 -369 109q-147 111 -147 334zM350 1204q24 162 95.5 247t177.5 85q57 0 168 -63q68 -39 96 -39q53 0 74 102h202 q-47 -332 -264 -332q-67 0 -172 60q-65 39 -92 39q-60 0 -84 -99h-201zM461 440q0 -151 129 -151q80 0 131 69q65 89 65 228q0 75 -34 114t-90 39q-91 0 -150 -90q-51 -86 -51 -209z" />
<glyph unicode="&#xf6;" horiz-adv-x="1251" d="M37 418q0 291 209 473q88 79 207 120.5t241 41.5q139 0 252 -43q118 -43 191 -146.5t73 -249.5q0 -149 -63 -284.5t-176 -220.5q-178 -134 -418 -134q-218 0 -369 109q-147 111 -147 334zM397 1339q0 81 50.5 135t130.5 54q65 0 106 -37.5t41 -108.5q0 -83 -50.5 -136.5 t-131.5 -53.5q-66 0 -106 40t-40 107zM461 440q0 -151 129 -151q83 0 131 69q65 86 65 228q0 75 -34 114t-90 39q-91 0 -150 -90q-51 -86 -51 -209zM805 1339q0 81 50 135t130 54q65 0 106.5 -37.5t41.5 -108.5q0 -82 -51 -136t-132 -54q-66 0 -105.5 40t-39.5 107z" />
<glyph unicode="&#xf7;" horiz-adv-x="1406" d="M182 496l49 221h1049l-49 -221h-1049zM514 207q0 70 45.5 117t116.5 47q55 0 92 -32.5t37 -92.5q0 -73 -44.5 -120.5t-115.5 -47.5q-58 0 -94.5 35t-36.5 94zM688 961q0 70 43.5 116.5t114.5 46.5q57 0 93 -32t36 -93q0 -73 -44.5 -120.5t-115.5 -47.5q-56 0 -91.5 35.5 t-35.5 94.5z" />
<glyph unicode="&#xf8;" horiz-adv-x="1251" d="M37 418q0 291 209 473q88 79 207 120.5t241 41.5q99 0 209 -29l80 102h203l-135 -174q159 -114 159 -338q0 -149 -63 -284.5t-176 -220.5q-178 -134 -418 -134q-129 0 -229 35l-72 -92h-199l129 168q-145 121 -145 332zM449 432l235 305q-6 2 -22 2q-96 0 -160 -94 q-53 -77 -53 -196v-17zM543 295q21 -6 47 -6q85 0 139 69q70 85 70 220q0 11 -4 43z" />
<glyph unicode="&#xf9;" horiz-adv-x="1306" d="M55 719l64 309h522l-113 -532q-12 -59 -12 -95q0 -33 22 -53t58 -20q88 0 137 112l125 588h414l-121 -571q-12 -67 -12 -82q0 -74 71 -74q46 0 78 14l6 -2l-69 -293q-82 -36 -221 -36q-188 0 -240 102q-13 26 -25 78q-115 -189 -366 -189q-131 0 -212 65t-81 189 q0 102 20 205l60 285h-105zM317 1528v8h381l213 -350v-8h-264z" />
<glyph unicode="&#xfa;" horiz-adv-x="1306" d="M55 719l64 309h522l-113 -532q-12 -59 -12 -95q0 -33 22 -53t58 -20q88 0 137 112l125 588h414l-121 -571q-12 -67 -12 -82q0 -74 71 -74q46 0 78 14l6 -2l-69 -293q-82 -36 -221 -36q-188 0 -240 102q-13 26 -25 78q-115 -189 -366 -189q-131 0 -212 65t-81 189 q0 102 20 205l60 285h-105zM502 1178v8l291 350h383v-8l-410 -350h-264z" />
<glyph unicode="&#xfb;" horiz-adv-x="1306" d="M55 719l64 309h522l-113 -532q-12 -59 -12 -95q0 -33 22 -53t58 -20q88 0 137 112l125 588h414l-121 -571q-12 -67 -12 -82q0 -74 71 -74q46 0 78 14l6 -2l-69 -293q-82 -36 -221 -36q-188 0 -240 102q-13 26 -25 78q-115 -189 -366 -189q-131 0 -212 65t-81 189 q0 102 20 205l60 285h-105zM322 1178v8l354 348h225l203 -348v-8h-244l-102 131l-170 -131h-266z" />
<glyph unicode="&#xfc;" horiz-adv-x="1306" d="M55 719l64 309h522l-113 -532q-12 -59 -12 -95q0 -33 22 -53t58 -20q88 0 137 112l125 588h414l-121 -571q-12 -67 -12 -82q0 -74 71 -74q46 0 78 14l6 -2l-69 -293q-82 -36 -221 -36q-188 0 -240 102q-13 26 -25 78q-115 -189 -366 -189q-131 0 -212 65t-81 189 q0 102 20 205l60 285h-105zM391 1339q0 81 50 135t130 54q65 0 106.5 -37.5t41.5 -108.5q0 -83 -50.5 -136.5t-131.5 -53.5q-66 0 -106 40t-40 107zM799 1339q0 81 50 135t130 54q65 0 106 -37.5t41 -108.5q0 -83 -50.5 -136.5t-131.5 -53.5q-66 0 -105.5 40t-39.5 107z" />
<glyph unicode="&#xfd;" horiz-adv-x="1304" d="M25 -315l73 331h8q122 -122 353 -122q121 0 178 57q40 40 61 143l15 70q-65 -75 -133 -108t-168 -33q-131 0 -214 64.5t-83 188.5q0 97 24 205l51 238h-106l63 309h523l-103 -485q-12 -59 -12 -94q0 -33 22 -53.5t58 -20.5q85 0 137 112l115 541h413l-180 -881 q-53 -253 -127 -360q-144 -217 -526 -217q-288 0 -442 115zM553 1178v8l291 350h383v-8l-410 -350h-264z" />
<glyph unicode="&#xfe;" horiz-adv-x="1327" d="M-68 -397l334 1579h-108l67 309h514l-133 -590q38 66 127.5 111t196.5 45q163 0 257.5 -99.5t94.5 -289.5q0 -331 -172 -527q-139 -157 -369 -157q-210 0 -286 125l-117 -506h-406zM520 422q6 -56 41.5 -88.5t87.5 -32.5q95 0 148 80q59 95 59 221q0 67 -32.5 103 t-88.5 36q-115 0 -180 -123z" />
<glyph unicode="&#xff;" horiz-adv-x="1304" d="M25 -315l73 331h8q122 -122 353 -122q121 0 178 57q40 40 61 143l15 70q-65 -75 -133 -108t-168 -33q-131 0 -214 64.5t-83 188.5q0 97 24 205l51 238h-106l63 309h523l-103 -485q-12 -59 -12 -94q0 -33 22 -53.5t58 -20.5q85 0 137 112l115 541h413l-180 -881 q-53 -253 -127 -360q-144 -217 -526 -217q-288 0 -442 115zM442 1339q0 81 50.5 135t130.5 54q65 0 106 -37.5t41 -108.5q0 -83 -50.5 -136.5t-131.5 -53.5q-66 0 -106 40t-40 107zM850 1339q0 81 50 135t130 54q65 0 106.5 -37.5t41.5 -108.5q0 -82 -51 -136t-132 -54 q-66 0 -105.5 40t-39.5 107z" />
<glyph unicode="&#x152;" horiz-adv-x="2127" d="M94 580q0 206 76.5 388.5t222.5 301.5q202 166 502 166q105 0 199 -34t135 -89l24 98h945l-87 -457h-307l19 140h-191l-45 -211h352l-65 -324h-354l-47 -240h268l43 160h307l-109 -479h-1019l20 90q-47 -55 -131 -82.5t-168 -27.5q-266 0 -428 155t-162 445zM567 608 q0 -134 57.5 -212.5t170.5 -78.5q80 0 152.5 46.5t109.5 121.5l69 394q-10 108 -68 163.5t-151 55.5q-140 0 -225 -113q-53 -64 -84 -169.5t-31 -207.5z" />
<glyph unicode="&#x153;" horiz-adv-x="1892" d="M37 418q0 297 211 475q183 160 440 160q227 0 338 -123q147 123 367 123q216 0 340.5 -108.5t124.5 -297.5q0 -102 -31 -207h-643v-12q0 -133 221 -133q182 0 360 94h9l-68 -313q-161 -103 -414 -103q-231 0 -346 133q-152 -131 -391 -131q-218 0 -369 109 q-149 110 -149 334zM461 451q0 -156 129 -156q82 0 131 70q65 83 65 208q0 160 -124 160q-95 0 -156 -98q-45 -83 -45 -184zM1214 637h285q4 20 4 37q0 45 -34.5 68.5t-88.5 23.5q-57 0 -102 -32t-64 -97z" />
<glyph unicode="&#x178;" horiz-adv-x="1447" d="M135 1104l66 307h688l-62 -307h-92q58 -168 88 -268q47 71 195 268h-76l66 307h624l-65 -307h-125l-490 -586l-43 -211h135l-65 -307h-721l61 307h134l43 211l-242 586h-119zM571 1667q0 81 50 134.5t131 53.5q65 0 106 -37t41 -108q0 -83 -49.5 -136.5t-132.5 -53.5 q-64 0 -105 40t-41 107zM995 1667q0 81 50 134.5t131 53.5q64 0 105.5 -37.5t41.5 -107.5q0 -83 -50.5 -136.5t-131.5 -53.5q-66 0 -106 40t-40 107z" />
<glyph unicode="&#x2c6;" horiz-adv-x="421" d="M-180 1178v8l354 348h225l203 -348v-8h-244l-102 131l-170 -131h-266z" />
<glyph unicode="&#x2dc;" horiz-adv-x="421" d="M-197 1204q24 162 95.5 247t177.5 85q54 0 168 -63q74 -39 96 -39q53 0 74 102h202q-47 -332 -264 -332q-67 0 -172 60q-65 39 -92 39q-60 0 -84 -99h-201z" />
<glyph unicode="&#x2000;" horiz-adv-x="940" />
<glyph unicode="&#x2001;" horiz-adv-x="1880" />
<glyph unicode="&#x2002;" horiz-adv-x="940" />
<glyph unicode="&#x2003;" horiz-adv-x="1880" />
<glyph unicode="&#x2004;" horiz-adv-x="626" />
<glyph unicode="&#x2005;" horiz-adv-x="470" />
<glyph unicode="&#x2006;" horiz-adv-x="313" />
<glyph unicode="&#x2007;" horiz-adv-x="313" />
<glyph unicode="&#x2008;" horiz-adv-x="235" />
<glyph unicode="&#x2009;" horiz-adv-x="376" />
<glyph unicode="&#x200a;" horiz-adv-x="104" />
<glyph unicode="&#x2010;" horiz-adv-x="653" d="M57 434l54 271h501l-57 -271h-498z" />
<glyph unicode="&#x2011;" horiz-adv-x="653" d="M57 434l54 271h501l-57 -271h-498z" />
<glyph unicode="&#x2012;" horiz-adv-x="653" d="M57 434l54 271h501l-57 -271h-498z" />
<glyph unicode="&#x2013;" horiz-adv-x="1110" d="M55 444l49 252h973l-53 -252h-969z" />
<glyph unicode="&#x2014;" horiz-adv-x="1728" d="M55 444l49 252h1594l-53 -252h-1590z" />
<glyph unicode="&#x2018;" horiz-adv-x="454" d="M147 971q0 158 72.5 287t204.5 215h242v-9q-107 -83 -168.5 -209t-61.5 -272q0 -59 17 -125h-293q-13 54 -13 113z" />
<glyph unicode="&#x2019;" horiz-adv-x="454" d="M53 858v8q107 87 168.5 213t61.5 269q0 59 -17 125h289q12 -49 12 -113q0 -159 -71 -289.5t-201 -212.5h-242z" />
<glyph unicode="&#x201a;" horiz-adv-x="454" d="M-188 -264q107 87 168 212.5t61 268.5q0 63 -16 125h288q13 -54 13 -113q0 -159 -71.5 -289t-201.5 -212h-241v8z" />
<glyph unicode="&#x201c;" horiz-adv-x="862" d="M147 971q0 158 72.5 287t204.5 215h242v-9q-107 -83 -168.5 -209t-61.5 -272q0 -59 17 -125h-293q-13 54 -13 113zM555 971q0 158 72 287t204 215h242v-9q-107 -83 -168 -209t-61 -272q0 -63 16 -125h-293q-12 50 -12 113z" />
<glyph unicode="&#x201d;" horiz-adv-x="862" d="M53 858v8q107 87 168.5 213t61.5 269q0 59 -17 125h289q12 -49 12 -113q0 -159 -71 -289.5t-201 -212.5h-242zM461 858v8q106 87 167.5 213t61.5 269q0 63 -16 125h289q12 -50 12 -113q0 -159 -71.5 -289.5t-201.5 -212.5h-241z" />
<glyph unicode="&#x201e;" horiz-adv-x="862" d="M-188 -264q107 87 168 212.5t61 268.5q0 63 -16 125h288q13 -54 13 -113q0 -159 -71.5 -289t-201.5 -212h-241v8zM219 -264q107 87 168.5 212.5t61.5 268.5q0 59 -17 125h289q12 -50 12 -113q0 -159 -71 -289t-201 -212h-242v8z" />
<glyph unicode="&#x2022;" horiz-adv-x="765" d="M70 483q0 156 98 260q98 107 250 107q123 0 205 -74t82 -209q0 -158 -97 -266q-94 -102 -256 -102q-125 0 -203.5 77.5t-78.5 206.5z" />
<glyph unicode="&#x2026;" horiz-adv-x="2191" d="M96 166q0 105 67.5 175.5t170.5 70.5q86 0 141 -49.5t55 -139.5q0 -110 -65 -179t-174 -69q-87 0 -141 52t-54 139zM793 166q0 105 68.5 175.5t172.5 70.5q83 0 140 -50t57 -139q0 -110 -67.5 -179t-176.5 -69q-85 0 -139.5 52.5t-54.5 138.5zM1493 166q0 105 67.5 175.5 t170.5 70.5q86 0 141 -49.5t55 -139.5q0 -110 -65 -179t-174 -69q-87 0 -141 52t-54 139z" />
<glyph unicode="&#x202f;" horiz-adv-x="376" />
<glyph unicode="&#x2039;" horiz-adv-x="626" d="M37 528l344 365h283l-359 -379l201 -375h-258z" />
<glyph unicode="&#x203a;" horiz-adv-x="626" d="M-45 139l354 379l-200 375h262l211 -389l-344 -365h-283z" />
<glyph unicode="&#x205f;" horiz-adv-x="470" />
<glyph unicode="&#x20ac;" horiz-adv-x="1443" d="M115 473l30 150h134q3 60 12 120h-119l31 150h121q52 176 182 297q226 203 541 203q147 0 270 -33q133 -35 184 -80l-74 -391h-253l16 147q-72 11 -103 11q-148 0 -231 -68q-47 -35 -76 -86h338l-26 -150h-369q-14 -55 -14 -120h356l-31 -150h-299q67 -147 254 -147 q199 0 348 104h9l-68 -367q-148 -92 -432 -92q-250 0 -400 135q-149 134 -167 367h-164z" />
<glyph unicode="&#x2122;" horiz-adv-x="1875" d="M180 1118l62 293h692l-62 -293h-151l16 88h-61l-78 -356h64l-39 -176h-387l38 176h60l78 356h-60l-20 -88h-152zM817 674l39 176h53l80 369h-55l41 192h397q4 -59 9 -132.5t8 -116.5t4 -68q38 87 147 317h406l-41 -192h-62l-80 -369h64l-39 -176h-346l39 176h43l71 313 q-12 -26 -184 -360h-156l-43 360q-11 -65 -61 -313h47l-39 -176h-342z" />
<glyph unicode="&#x25fc;" horiz-adv-x="1024" d="M0 0v1024h1024v-1024h-1024z" />
</font>
</defs>
</svg>
