<?xml version="1.0" standalone="no"?>
<!DOCTYPE svg PUBLIC "-//W3C//DTD SVG 1.1//EN" "http://www.w3.org/Graphics/SVG/1.1/DTD/svg11.dtd" >
<svg xmlns="http://www.w3.org/2000/svg">
<metadata></metadata>
<defs>
<font id="equip_slabthin_italic" horiz-adv-x="1161" >
<font-face units-per-em="2048" ascent="1536" descent="-512" />
<missing-glyph horiz-adv-x="446" />
<glyph unicode="&#xfb01;" horiz-adv-x="1193" d="M68 -356l272 1292h-182l14 63h180l43 197q40 174 122 247t216 73q127 0 189 -50l-17 -69h-8q-65 47 -172 47q-114 0 -180 -66q-51 -54 -86 -213l-35 -166h639l-166 -745q-18 -83 -18 -119q0 -82 82 -82q94 0 147 39l6 -2l-10 -65q-70 -37 -143 -37q-156 0 -156 127 q0 41 20 135l152 686h-567l-273 -1292h-69zM995 1335q0 36 22 59t58 23q26 0 44 -16t18 -45q0 -36 -20 -59t-56 -23q-66 0 -66 61z" />
<glyph unicode="&#xfb02;" horiz-adv-x="1196" d="M68 -356l272 1290h-182l14 65h180l19 88q26 126 59.5 197t89.5 123q108 102 334 102q192 0 303 -57l-260 -1200q-18 -82 -18 -117q0 -82 82 -82q91 0 147 39l6 -2l-10 -65q-67 -37 -141 -37q-158 0 -158 127q0 39 20 133l248 1157q-103 35 -231 35q-199 0 -287 -94 q-75 -75 -113 -259l-18 -88h303l-14 -65h-303l-273 -1290h-69z" />
<glyph unicode="&#xfb03;" horiz-adv-x="1824" d="M68 -356l272 1290h-182l14 65h180l33 146q37 175 124 252.5t230 77.5q131 0 189 -58l-17 -69h-8q-61 55 -172 55q-131 0 -194 -72q-54 -63 -88 -217l-25 -115h559l41 187q37 175 124 252.5t230 77.5q131 0 189 -58l-17 -69h-8q-61 55 -172 55q-131 0 -194 -72 q-55 -65 -89 -217l-32 -156h639l-166 -749q-19 -87 -19 -119q0 -82 82 -82q95 0 148 39l6 -2l-10 -66q-68 -36 -144 -36q-155 0 -155 127q0 41 20 135l152 688h-568l-262 -1247h-69l262 1247h-561l-273 -1290h-69zM1626 1335q0 36 22 59t58 23q26 0 43.5 -16t17.5 -45 q0 -36 -19.5 -59t-55.5 -23q-66 0 -66 61z" />
<glyph unicode="&#xfb04;" horiz-adv-x="1826" d="M68 -356l272 1290h-182l14 65h180l33 146q37 175 124 252.5t230 77.5q131 0 189 -58l-17 -69h-8q-61 55 -172 55q-131 0 -194 -72q-54 -63 -88 -217l-25 -115h559l18 88q26 126 60 197t90 123q108 102 334 102q192 0 303 -57l-260 -1204q-19 -87 -19 -117q0 -82 82 -82 q92 0 148 39l6 -2l-10 -66q-65 -36 -142 -36q-157 0 -157 127q0 39 20 133l248 1161q-103 35 -231 35q-199 0 -287 -94q-75 -75 -113 -259l-18 -88h303l-15 -65h-303l-262 -1247h-69l262 1247h-561l-273 -1290h-69z" />
<glyph horiz-adv-x="0" />
<glyph horiz-adv-x="682" />
<glyph unicode=" "  horiz-adv-x="446" />
<glyph unicode="&#x09;" horiz-adv-x="446" />
<glyph unicode="&#xa0;" horiz-adv-x="446" />
<glyph unicode="!" horiz-adv-x="587" d="M172 45q0 37 23.5 61.5t60.5 24.5q27 0 46.5 -17.5t19.5 -47.5q0 -38 -21.5 -61t-58.5 -23q-70 0 -70 63zM279 410q49 263 108 557l68 346q20 90 20 98h94q-14 -94 -227 -1001h-63z" />
<glyph unicode="&#x22;" horiz-adv-x="690" d="M252 868l92 572h115l-148 -572h-59zM578 868l92 572h114l-147 -572h-59z" />
<glyph unicode="#" horiz-adv-x="1234" d="M133 451l12 86h267l82 309h-263l9 86h276l121 461h68l-121 -461h334l120 461h68l-121 -461h246l-8 -86h-260l-82 -309h256l-13 -86h-266l-125 -480h-67l125 480h-334l-125 -480h-68l125 480h-256zM479 537h334l82 309h-334z" />
<glyph unicode="$" horiz-adv-x="1128" d="M66 168l34 221h66l-23 -188q112 -106 318 -133l125 579l-117 64q-207 115 -207 295q0 174 124.5 269t338.5 95h14l43 203h64l-45 -209q99 -13 180 -51q93 -42 123 -78l-39 -223h-66l27 188q-103 77 -240 92l-127 -594l97 -51q124 -66 181.5 -134t57.5 -161 q0 -159 -106 -262q-108 -102 -344 -102h-37l-45 -217h-64l47 223q-120 19 -226 67.5t-154 106.5zM342 1014q0 -138 199 -252l61 -35l121 569q-191 0 -286 -74.5t-95 -207.5zM524 61h27q360 0 360 281q0 68 -52.5 127t-182.5 129l-35 18z" />
<glyph unicode="%" horiz-adv-x="1722" d="M158 801q0 109 34 226.5t95 199.5q117 153 282 153q129 0 199 -78.5t70 -214.5q0 -115 -37 -245q-38 -134 -111 -219q-108 -123 -258 -123q-131 0 -202.5 81t-71.5 220zM233 811q0 -246 203 -246q118 0 201 99q60 76 94 196q35 128 35 217q0 240 -205 240 q-133 0 -221 -131q-49 -70 -78 -174.5t-29 -200.5zM424 -25l895 1422h76l-893 -1422h-78zM979 283q0 109 34 226.5t95 199.5q117 153 283 153q128 0 198 -78.5t70 -214.5q0 -115 -37 -245q-39 -136 -111 -220q-107 -122 -258 -122q-131 0 -202.5 81t-71.5 220zM1055 293 q0 -246 202 -246q119 0 201 98q60 75 94 197q35 128 35 217q0 240 -205 240q-133 0 -221 -131q-49 -70 -77.5 -174.5t-28.5 -200.5z" />
<glyph unicode="&#x26;" horiz-adv-x="1515" d="M117 360q0 158 85 259.5t269 164.5q-84 128 -84 254q0 153 109 248q107 98 295 98q179 0 268 -92l-12 -96h-9q-37 53 -109.5 82t-156.5 29q-139 0 -220 -72t-81 -191q0 -124 94 -249q31 -42 113 -144l108 -127l136 -151q96 -103 125 -137q65 59 108 171.5t43 239.5v29 h-158l15 67h407l-14 -67h-170v-19q0 -140 -48 -268.5t-130 -210.5q52 -58 110 -110h185l-15 -68h-213q-72 68 -125 121q-176 -150 -450 -150q-213 0 -346 115q-129 114 -129 274zM201 369q0 -125 108 -224q110 -98 299 -98q235 0 379 129q-275 298 -469 547 q-317 -95 -317 -354z" />
<glyph unicode="'" horiz-adv-x="362" d="M252 868l92 572h115l-148 -572h-59z" />
<glyph unicode="(" horiz-adv-x="669" d="M94 387q0 365 182.5 652.5t520.5 476.5h98v-9q-329 -196 -520 -471q-195 -281 -195 -635q0 -211 85 -403t235 -336v-8h-84q-135 120 -230 311q-92 189 -92 422z" />
<glyph unicode=")" horiz-adv-x="669" d="M-164 -338q329 196 520 471q195 281 195 635q0 211 -85 403t-235 336v9h84q136 -121 228 -312q94 -187 94 -422q0 -365 -182.5 -652t-520.5 -476h-98v8z" />
<glyph unicode="*" horiz-adv-x="860" d="M248 1196l39 70q228 -121 288 -164q3 99 31 330l80 -13q-10 -65 -65 -325q171 47 321 71l19 -78q-166 -23 -336 -40q39 -59 168 -287l-74 -31q-83 163 -139 295q-120 -138 -226 -244l-53 54q142 139 248 225q-118 46 -301 137z" />
<glyph unicode="+" horiz-adv-x="1433" d="M209 565l16 78h494l112 490h78l-112 -490h493l-16 -78h-496l-114 -495h-78l114 495h-491z" />
<glyph unicode="," horiz-adv-x="350" d="M-154 -311q89 65 160 180q70 113 70 237q0 66 -27 130h94q27 -52 27 -125q0 -255 -242 -430h-82v8z" />
<glyph unicode="-" horiz-adv-x="651" d="M94 516l17 76h485l-16 -76h-486z" />
<glyph unicode="." horiz-adv-x="348" d="M33 45q0 37 23.5 61.5t60.5 24.5q27 0 46 -17.5t19 -47.5q0 -38 -21.5 -61t-58.5 -23q-69 0 -69 63z" />
<glyph unicode="/" horiz-adv-x="751" d="M-76 -117l944 1614h84l-944 -1614h-84z" />
<glyph unicode="0" d="M111 457q0 159 45 340q46 184 133 319q88 136 207 205.5t247 69.5q195 0 299.5 -127.5t104.5 -348.5q0 -179 -60 -399q-59 -216 -176 -354q-164 -191 -393 -191q-200 0 -303.5 129t-103.5 357zM195 469q0 -165 63 -283q38 -65 108 -102t166 -37q192 0 324 164 q98 122 154 328q57 200 57 362q0 64 -9 120.5t-33 112t-61.5 95t-98.5 64t-140 24.5q-222 0 -375 -246q-73 -120 -114 -287q-41 -169 -41 -315z" />
<glyph unicode="1" d="M223 0l15 68h235l260 1228l-325 -176l16 84l348 189h59l-280 -1325h221l-14 -68h-535z" />
<glyph unicode="2" d="M43 0l6 41q407 309 653 528q259 238 259 453q0 132 -76.5 213.5t-233.5 81.5q-106 0 -223 -57q-119 -58 -197 -148h-8l13 94q81 87 195 136t231 49q185 0 283.5 -97t98.5 -262q0 -236 -253 -483q-66 -65 -271 -232q-198 -163 -319 -245q129 2 731 2l61 225h66l-72 -299 h-944z" />
<glyph unicode="3" d="M92 115l19 86h8q56 -72 156 -113t208 -41q177 0 299 90q121 92 121 269q0 80 -45 148.5t-127 92.5q-68 19 -221 19h-57l12 67h55q190 0 277 43q178 88 178 277q0 103 -66 184q-65 80 -213 80q-98 0 -202 -45t-179 -127h-8l17 96q144 150 389 150q161 0 252.5 -89.5 t91.5 -232.5q0 -133 -77 -232.5t-208 -136.5q93 -24 153 -102.5t60 -181.5q0 -207 -143 -326q-140 -119 -365 -119q-113 0 -219 39.5t-166 104.5z" />
<glyph unicode="4" d="M53 383l8 41l945 967h63l-199 -934h246l-16 -74h-246l-66 -315h230l-14 -68h-515l15 68h207l65 315h-723zM195 457h598l178 805q-23 -25 -88 -99q-27 -31 -125 -129l-94 -98l-117 -119q-13 -13 -65 -67t-93 -95z" />
<glyph unicode="5" d="M74 109l16 90h8q128 -152 377 -152q216 0 333.5 116.5t117.5 315.5q0 129 -82.5 209t-237.5 80q-178 0 -364 -125h-9l199 719h682l-47 -262h-66l27 188h-541l-145 -530q115 86 301 86q147 0 256 -92t109 -263q0 -253 -158 -387q-155 -131 -387 -131q-113 0 -219 36 t-170 102z" />
<glyph unicode="6" d="M158 406q0 92 14 187.5t44 192.5t73 185t105 165t136 133.5t170.5 89t204.5 32.5q207 0 289 -107l-18 -86h-9q-91 119 -268 119q-266 0 -430 -203t-219 -518q53 119 170 199q119 82 285 82q154 0 260 -103q106 -100 106 -264q0 -234 -129 -387q-131 -152 -369 -152 q-194 0 -304.5 117.5t-110.5 317.5zM244 375q0 -150 94 -238q96 -90 237 -90q200 0 307 121.5t107 327.5q0 139 -81 222t-212 83q-144 0 -266 -88q-122 -85 -178 -224q-8 -47 -8 -114z" />
<glyph unicode="7" d="M184 1100l64 262h917l-14 -57q-425 -685 -756 -1305h-88q339 644 752 1288h-758l-51 -188h-66z" />
<glyph unicode="8" d="M109 334q0 138 98.5 237.5t257.5 135.5q-89 36 -140 110.5t-51 163.5q0 176 132 293t319 117q169 0 279 -93q106 -90 106 -237q0 -146 -79.5 -242.5t-221.5 -132.5q108 -36 169.5 -116t61.5 -181q0 -192 -137 -305t-356 -113q-199 0 -318 101q-120 102 -120 262zM190 324 q0 -125 107 -201t260 -76q168 0 287 90q117 88 117 242q0 135 -107 205q-107 75 -258 78q-175 -9 -291 -97q-115 -86 -115 -241zM356 991q0 -116 83 -185t223 -81q171 8 270.5 96t99.5 236q0 113 -88 186.5t-227 73.5q-152 0 -258 -92q-103 -89 -103 -234z" />
<glyph unicode="9" d="M59 78l19 84h8q102 -117 303 -117q137 0 247.5 60.5t184.5 168.5q139 204 180 492q-59 -123 -173.5 -198.5t-272.5 -75.5q-162 0 -268 100q-109 103 -109 264q0 229 137 381q139 154 373 154q195 0 301.5 -115.5t106.5 -319.5q0 -282 -97 -522q-79 -207 -233.5 -333.5 t-380.5 -129.5q-89 0 -184 27t-142 80zM260 866q0 -135 86 -217t221 -82q145 0 256.5 81.5t173.5 228.5q11 61 11 114q0 148 -85 236t-233 88q-202 0 -317 -127q-113 -125 -113 -322z" />
<glyph unicode=":" horiz-adv-x="391" d="M74 45q0 37 23.5 61.5t60.5 24.5q27 0 46 -17.5t19 -47.5q0 -38 -21.5 -61t-58.5 -23q-69 0 -69 63zM258 924q0 37 23.5 61.5t60.5 24.5q27 0 46.5 -18t19.5 -48q0 -36 -21.5 -60t-58.5 -24q-70 0 -70 64z" />
<glyph unicode=";" horiz-adv-x="391" d="M-92 -311q89 65 160 180q69 112 69 237q0 68 -26 130h94q26 -51 26 -125q0 -256 -241 -430h-82v8zM258 924q0 37 23.5 61.5t60.5 24.5q27 0 46.5 -18t19.5 -48q0 -36 -21.5 -60t-58.5 -24q-70 0 -70 64z" />
<glyph unicode="&#x3c;" horiz-adv-x="1433" d="M274 559l19 78l1026 453l-23 -99l-917 -395l735 -387l-18 -90z" />
<glyph unicode="=" horiz-adv-x="1433" d="M166 373l18 76h1065l-16 -76h-1067zM252 745l16 76h1067l-18 -76h-1065z" />
<glyph unicode="&#x3e;" horiz-adv-x="1433" d="M178 119l23 98l917 397l-737 387l20 89l820 -443l-17 -76z" />
<glyph unicode="?" horiz-adv-x="876" d="M176 1210l10 90q129 144 369 144q156 0 242 -79t86 -212q0 -129 -72 -219q-71 -87 -270 -215q-89 -59 -119 -123q-30 -73 -47 -186h-64q9 74 15 106l24 88q34 97 137 162q189 121 246 201q62 83 62 178q0 102 -61.5 163.5t-194.5 61.5q-195 0 -355 -160h-8zM229 45 q0 37 23.5 61.5t60.5 24.5q27 0 46.5 -17.5t19.5 -47.5q0 -38 -21.5 -61t-58.5 -23q-70 0 -70 63z" />
<glyph unicode="@" horiz-adv-x="1767" d="M145 422q0 360 254 620q257 263 631 263q292 0 473 -158q178 -156 178 -436q0 -137 -51 -271q-53 -140 -151 -235q-101 -96 -213 -96q-119 0 -119 124q0 36 6 60q-145 -195 -356 -195q-148 0 -233 82t-85 230q0 117 54 231.5t149 192.5q141 114 315 114q90 0 160.5 -40.5 t99.5 -112.5l29 131h78l-117 -502q-24 -99 -24 -168q0 -42 15 -58t48 -16q127 0 221 174q97 180 97 342q0 249 -160 394q-157 145 -414 145q-153 4 -301.5 -59.5t-260.5 -172.5t-179.5 -261.5t-63.5 -315.5q0 -281 185 -457q188 -176 475 -176q321 0 561 158h8l-20 -90 q-213 -142 -560 -142q-324 0 -526 193q-203 194 -203 508zM561 422q0 -121 64.5 -183.5t181.5 -62.5q216 0 362 248l54 240q-30 219 -232 219q-133 0 -246 -90q-82 -68 -133 -168t-51 -203z" />
<glyph unicode="A" horiz-adv-x="1447" d="M-94 0l14 68h131l830 1343h69l295 -1343h154l-15 -68h-458l14 68h219l-88 405h-684l-246 -405h238l-14 -68h-459zM434 545h621q-138 657 -156 768q-62 -114 -465 -768z" />
<glyph unicode="B" horiz-adv-x="1277" d="M0 0l14 68h181l270 1275h-195l15 68h420q116 0 217 -8q134 -12 207 -85.5t73 -195.5q0 -149 -86 -249.5t-242 -135.5q137 -13 212 -90t75 -196q0 -142 -77.5 -248t-223.5 -160q-119 -43 -393 -43h-467zM272 68h248q223 0 330 43q104 43 166.5 134.5t62.5 203.5 q0 144 -139 206q-105 45 -272 45h-262zM422 768h258q159 0 242 47q196 111 196 291q0 77 -37.5 135t-99.5 78q-74 24 -231 24h-207z" />
<glyph unicode="C" horiz-adv-x="1359" d="M135 549q0 397 260 657q238 238 604 238q120 0 222 -35t159 -92l-34 -262h-66l23 221q-128 94 -310 94q-334 0 -547 -219q-225 -231 -225 -584q0 -244 139 -383q140 -137 392 -137t432 143h8l-18 -94q-162 -125 -451 -125q-255 0 -422 156q-166 156 -166 422z" />
<glyph unicode="D" horiz-adv-x="1542" d="M0 0l14 68h181l270 1275h-195l15 68h501q262 0 402 -49q151 -50 232 -173.5t81 -307.5q0 -257 -99.5 -458t-299.5 -310q-204 -113 -629 -113h-473zM274 68h234q399 0 582 122q157 103 239 283q84 185 84 385q0 293 -192 406q-137 79 -394 79h-284z" />
<glyph unicode="E" horiz-adv-x="1206" d="M0 0l14 68h181l270 1275h-195l15 68h946l-47 -262h-66l29 194h-604l-121 -571h573l-16 -70h-573l-136 -634h707l57 215h66l-68 -283h-1032z" />
<glyph unicode="F" d="M0 0l14 68h181l270 1275h-195l15 68h946l-47 -262h-66l29 194h-604l-127 -614h569l-16 -70h-570l-127 -591h236l-14 -68h-494z" />
<glyph unicode="G" horiz-adv-x="1529" d="M135 549q0 393 264 657q115 115 279 176.5t344 61.5q271 0 422 -127l-47 -262h-66l33 227q-131 88 -348 88q-352 0 -565 -219q-230 -236 -230 -584q0 -245 140.5 -382.5t392.5 -137.5q261 0 438 109l92 456h-235l14 68h448l-14 -68h-131l-98 -495q-221 -146 -543 -146 q-255 0 -424 156q-166 156 -166 422z" />
<glyph unicode="H" horiz-adv-x="1552" d="M0 0l14 68h181l270 1275h-195l15 68h469l-15 -68h-196l-121 -571h854l121 571h-201l14 68h469l-14 -68h-190l-271 -1275h205l-14 -68h-469l14 68h186l134 634h-854l-134 -634h211l-14 -68h-469z" />
<glyph unicode="I" horiz-adv-x="626" d="M0 0l14 68h181l270 1275h-195l15 68h469l-15 -68h-196l-271 -1275h211l-14 -68h-469z" />
<glyph unicode="J" horiz-adv-x="872" d="M-33 51l19 80h8q84 -84 223 -84q89 0 143 28.5t93 88.5q33 54 77 248l199 931h-213l14 68h469l-14 -68h-178l-199 -927l-10 -51q-6 -29 -13 -54t-10 -37q-4 -22 -22 -77q-10 -31 -35 -72q-100 -154 -313 -154q-155 0 -238 80z" />
<glyph unicode="K" horiz-adv-x="1425" d="M0 0l14 68h183l270 1275h-197l15 68h469l-15 -68h-194l-148 -696l793 696h-168l14 68h469l-14 -68h-176l-580 -493l443 -782h190l-14 -68h-236l-444 799l-297 -254l-103 -477h209l-14 -68h-469z" />
<glyph unicode="L" horiz-adv-x="1245" d="M0 0l14 68h181l270 1275h-195l15 68h469l-15 -68h-196l-273 -1275h707l57 215h66l-68 -283h-1032z" />
<glyph unicode="M" horiz-adv-x="1675" d="M-84 0l14 68h185l270 1275h-195l15 68h305q281 -966 301 -1057q165 252 760 1057h291l-15 -68h-188l-277 -1275h199l-14 -68h-469l14 68h193q209 1001 272 1247l-758 -1049h-55l-313 1065l-263 -1263h211l-14 -68h-469z" />
<glyph unicode="N" horiz-adv-x="1517" d="M0 0l14 68h183l270 1275h-197l15 68h280q515 -1113 580 -1280q19 116 254 1212h-203l14 68h469l-14 -68h-188l-285 -1343h-68q-467 1014 -589 1309l-263 -1241h211l-14 -68h-469z" />
<glyph unicode="O" horiz-adv-x="1599" d="M135 578q0 360 230 608q114 123 263 187.5t310 64.5q268 0 446 -158q175 -156 175 -438q0 -377 -226 -621q-230 -248 -577 -248q-266 0 -443 162q-178 163 -178 443zM221 588q0 -236 148 -387q149 -152 397 -152q311 0 510 227q92 104 143 254.5t51 305.5q0 240 -143 383 q-145 145 -405 145q-294 0 -502 -234q-199 -224 -199 -542z" />
<glyph unicode="P" horiz-adv-x="1316" d="M0 0l14 68h183l270 1275h-197l15 68h553q193 0 305 -47q75 -32 121.5 -109.5t46.5 -171.5q0 -162 -81 -279t-239 -173q-122 -43 -334 -43h-274l-109 -520h234l-14 -68h-494zM399 657h269q222 0 333 54q222 109 222 366q0 70 -29.5 130.5t-83.5 88.5q-89 47 -281 47h-284z " />
<glyph unicode="Q" horiz-adv-x="1599" d="M135 578q0 360 230 608q114 123 263 187.5t310 64.5q268 0 446 -158q175 -156 175 -438q0 -377 -226 -621q-112 -121 -264 -186l361 -264l-52 -64l-399 297q-112 -31 -223 -31q-266 0 -443 162q-178 163 -178 443zM221 588q0 -236 148 -387q149 -152 397 -152 q311 0 510 227q92 104 143 254.5t51 305.5q0 240 -143 383q-145 145 -405 145q-294 0 -502 -234q-199 -224 -199 -542z" />
<glyph unicode="R" horiz-adv-x="1409" d="M0 0l14 68h183l270 1275h-197l15 68h544q195 0 299 -39q80 -30 130.5 -106.5t50.5 -173.5q0 -182 -118.5 -299t-316.5 -144l271 -581h196l-14 -68h-240l-292 643q-62 -4 -400 -4l-121 -571h234l-14 -68h-494zM410 707h295q157 0 270 38q116 36 183 128.5t67 211.5 q0 138 -88 199q-89 59 -299 59h-293z" />
<glyph unicode="S" horiz-adv-x="1265" d="M119 147l35 242h65l-22 -199q174 -143 442 -143q403 0 403 307q0 77 -55 135q-56 63 -207 138l-233 118q-232 121 -232 310t139.5 289t387.5 100q128 0 241.5 -40t171.5 -95l-32 -256h-66l21 213q-149 104 -351 104q-214 0 -320 -80.5t-106 -224.5q0 -154 228 -268 l241 -123q137 -69 200 -140.5t63 -171.5q0 -168 -115 -280q-114 -111 -381 -111q-306 0 -518 176z" />
<glyph unicode="T" horiz-adv-x="1179" d="M190 1118l70 293h1055l-51 -293h-66l31 219h-426l-268 -1271h200l-12 -66h-467l12 66h189l268 1271h-412l-57 -219h-66z" />
<glyph unicode="U" horiz-adv-x="1521" d="M219 354q0 106 33 252l156 740h-185l15 65h469l-15 -65h-207l-153 -721q-35 -169 -35 -242q0 -160 99.5 -248t277.5 -88q282 0 432 178q96 109 154 393l153 728h-215l14 65h469l-14 -65h-176l-158 -742q-60 -284 -151 -407q-173 -226 -516 -226q-188 0 -320 97 q-127 95 -127 286z" />
<glyph unicode="V" horiz-adv-x="1529" d="M213 1346l14 65h469l-14 -65h-233q171 -842 243 -1237q131 233 752 1237h-225l14 65h469l-14 -65h-148l-838 -1346h-69l-268 1346h-152z" />
<glyph unicode="W" horiz-adv-x="2166" d="M242 1346l14 65h469l-14 -65h-213q53 -782 75 -1209q173 344 687 1274h71q107 -1046 123 -1274q188 384 610 1209h-217l15 65h469l-15 -65h-159l-701 -1346h-70q-97 954 -116 1274l-697 -1274h-69l-96 1346h-166z" />
<glyph unicode="X" horiz-adv-x="1507" d="M-33 0l13 66h157l637 688l-328 592h-151l14 65h469l-14 -65h-229l305 -549l497 549h-221l14 65h469l-14 -65h-147l-559 -613l366 -667h166l-12 -66h-469l12 66h213l-340 622l-573 -622h207l-13 -66h-469z" />
<glyph unicode="Y" horiz-adv-x="1480" d="M213 1346l14 65h469l-14 -65h-215l133 -308l86 -200q50 -108 80 -187q89 107 598 695h-195l15 65h469l-15 -65h-161l-682 -777l-107 -503h203l-12 -66h-467l12 66h186l107 503l-340 777h-164z" />
<glyph unicode="Z" horiz-adv-x="1359" d="M31 0l6 43l1227 1294h-854l-60 -225h-65l69 299h1043l-8 -51l-1223 -1286h967l61 225h66l-72 -299h-1157z" />
<glyph unicode="[" horiz-adv-x="557" d="M8 -334l391 1841h349l-15 -69h-268l-363 -1702h269l-15 -70h-348z" />
<glyph unicode="\" horiz-adv-x="774" d="M209 1497h80l385 -1614h-80z" />
<glyph unicode="]" horiz-adv-x="557" d="M-158 -334l15 70h268l362 1702h-268l14 69h349l-392 -1841h-348z" />
<glyph unicode="^" horiz-adv-x="1437" d="M307 578l565 806h99l196 -806h-84l-176 716l-499 -716h-101z" />
<glyph unicode="_" horiz-adv-x="1073" d="M-111 -236l17 74h1071l-16 -74h-1072z" />
<glyph unicode="`" horiz-adv-x="430" d="M35 1520v8h123l243 -330v-8h-82z" />
<glyph unicode="a" horiz-adv-x="1339" d="M82 371q0 147 63 281.5t179 232.5q181 147 397 147q136 0 236.5 -60.5t136.5 -168.5l41 196h71l-164 -747q-18 -82 -18 -121q0 -82 90 -82q83 0 139 39l7 -2l-11 -66q-68 -36 -143 -36q-156 0 -156 129q0 37 15 102q-164 -244 -459 -244q-192 0 -308 106t-116 294z M162 381q0 -162 96 -250t256 -88q142 0 268.5 83t210.5 234l74 312q-17 137 -112.5 213t-237.5 76q-193 0 -342 -125q-100 -85 -156.5 -205t-56.5 -250z" />
<glyph unicode="b" horiz-adv-x="1306" d="M111 0l305 1427h-189l13 64h262l-152 -696q75 110 197 171.5t264 61.5q183 0 303 -108q121 -109 121 -297q0 -321 -219 -510q-164 -138 -395 -138q-136 0 -243.5 62.5t-150.5 167.5l-45 -205h-71zM252 334q15 -134 127 -211q110 -76 250 -76q199 0 334 117q92 80 142 199 t50 249q0 162 -98.5 253t-257.5 91q-141 0 -268.5 -74.5t-206.5 -217.5z" />
<glyph unicode="c" horiz-adv-x="1042" d="M84 389q0 145 61.5 276.5t165.5 219.5q168 143 404 143q98 0 180 -28.5t123 -75.5l-49 -238h-70l37 207q-86 63 -227 63q-210 0 -361 -133q-85 -75 -136.5 -184.5t-51.5 -232.5q0 -79 24 -143t62.5 -104t89 -67t100 -38t99.5 -11q199 0 348 125h8l-19 -92 q-135 -105 -340 -105q-189 0 -319 109q-129 111 -129 309z" />
<glyph unicode="d" horiz-adv-x="1355" d="M84 369q0 313 244 516q182 147 397 147q137 0 239 -60t138 -167l133 622h-188l12 64h262l-262 -1239q-19 -87 -19 -121q0 -82 90 -82q84 0 140 39l6 -2l-10 -66q-65 -36 -144 -36q-155 0 -155 129q0 45 12 98q-80 -111 -204.5 -175.5t-264.5 -64.5q-185 0 -305 105 q-121 109 -121 293zM164 379q0 -162 97.5 -249t260.5 -87q139 0 272.5 82.5t213.5 226.5l67 322q-17 136 -114 211.5t-240 75.5q-193 0 -342 -125q-101 -86 -158 -205.5t-57 -251.5z" />
<glyph unicode="e" horiz-adv-x="1083" d="M84 393q0 135 52.5 258.5t137.5 208.5q80 78 186 122t206 44q179 0 278.5 -93t99.5 -263q0 -108 -26 -193h-852q-1 -16 -2 -35t-1.5 -29.5t-0.5 -15.5q0 -163 103.5 -258.5t297.5 -95.5q201 0 381 154h8l-16 -88q-150 -138 -393 -138q-214 0 -336.5 114.5t-122.5 307.5z M180 545h776q13 54 13 114q0 295 -316 295q-89 0 -180 -39q-97 -43 -178 -137q-89 -98 -115 -233z" />
<glyph unicode="f" horiz-adv-x="630" d="M68 -356l272 1290h-182l14 65h180l41 187q37 174 124.5 252t230.5 78q130 0 188 -58l-16 -69h-9q-61 55 -172 55q-131 0 -194 -72q-54 -63 -88 -217l-33 -156h262l-14 -65h-262l-273 -1290h-69z" />
<glyph unicode="g" horiz-adv-x="1353" d="M51 -276l19 81h8q57 -75 163 -119t230 -44q247 0 356 145q59 77 111 301l33 143q-78 -119 -199.5 -183t-267.5 -64q-182 0 -301 104t-119 295q0 144 64 278.5t182 231.5q174 139 397 139q135 0 231 -58t132 -167l43 192h256l-15 -63h-184l-180 -848q-52 -251 -115 -338 q-134 -180 -432 -180q-134 0 -246 44.5t-166 109.5zM164 393q0 -162 97 -250t257 -88q145 0 277 85.5t204 232.5l64 303q-17 137 -108.5 211t-231.5 74q-198 0 -342 -117q-100 -82 -158.5 -203t-58.5 -248z" />
<glyph unicode="h" horiz-adv-x="1247" d="M125 0l313 1427h-207l15 64h278l-155 -707q63 110 170.5 175t248.5 65q120 0 195.5 -68t75.5 -194q0 -75 -31 -211l-70 -303q-18 -82 -18 -115q0 -84 84 -84q86 0 145 39l7 -2l-11 -66q-68 -36 -141 -36q-158 0 -158 127q0 34 21 133l69 305q29 139 29 188 q0 215 -221 215q-129 0 -242 -82q-112 -84 -176 -196l-149 -674h-72z" />
<glyph unicode="i" horiz-adv-x="579" d="M154 936l14 63h281l-166 -749q-19 -87 -19 -123q0 -78 84 -78q90 0 146 39l6 -2l-11 -66q-68 -36 -143 -36q-156 0 -156 127q0 36 21 135l151 690h-208zM381 1335q0 36 22 59t58 23q26 0 43.5 -16t17.5 -45q0 -36 -20 -59t-56 -23q-65 0 -65 61z" />
<glyph unicode="j" horiz-adv-x="557" d="M-223 -383l14 72h8q50 -47 142 -47q65 0 112 41q48 42 78 186l225 1067h-206l14 63h278l-239 -1126q-21 -102 -38.5 -148t-53.5 -83q-66 -72 -185 -72q-96 0 -149 47zM369 1335q0 36 22 59t58 23q26 0 43.5 -16t17.5 -45q0 -36 -20 -59t-56 -23q-65 0 -65 61z" />
<glyph unicode="k" horiz-adv-x="1058" d="M131 0l305 1427h-205l15 64h276l-213 -983l531 432l14 59h256l-14 -63h-150l-399 -315q3 -6 13 -25.5t23 -45.5l27 -54l70 -142q83 -158 137 -241q40 -64 111 -64q84 0 137 35l6 -2l-10 -68q-53 -30 -131 -30q-115 0 -174 92q-94 148 -264 499l-201 -157l-88 -418h-72z " />
<glyph unicode="l" horiz-adv-x="555" d="M156 111q0 39 20 133l254 1183h-207l15 64h278l-268 -1243q-19 -87 -19 -117q0 -82 82 -82q92 0 148 39l6 -2l-10 -66q-71 -36 -142 -36q-157 0 -157 127z" />
<glyph unicode="m" horiz-adv-x="1916" d="M143 936l15 63h278l-47 -215q135 240 406 240q114 0 183 -64.5t73 -189.5q60 115 169 184.5t253 69.5q116 0 186 -67.5t70 -194.5q0 -75 -31 -211l-70 -303q-18 -83 -18 -119q0 -80 84 -80q89 0 145 39l6 -2l-10 -66q-68 -36 -141 -36q-158 0 -158 127q0 39 20 133 l70 305q29 139 29 188q0 114 -50 164.5t-157 50.5q-122 0 -229 -77.5t-177 -200.5q-8 -49 -22 -123l-127 -551h-72l127 549q29 139 29 188q0 114 -50 164.5t-157 50.5q-122 0 -227.5 -77t-175.5 -201l-150 -674h-72l205 936h-207z" />
<glyph unicode="n" horiz-adv-x="1255" d="M143 936l15 63h278l-47 -215q135 240 414 240q119 0 191.5 -67.5t72.5 -194.5q0 -75 -31 -211l-69 -303q-19 -87 -19 -115q0 -46 21 -65t67 -19q83 0 142 39l6 -2l-10 -66q-71 -36 -144 -36q-156 0 -156 127q0 34 21 133l70 305q28 134 28 188q0 113 -53.5 164t-161.5 51 q-130 0 -237 -82q-111 -85 -174 -196l-150 -674h-72l205 936h-207z" />
<glyph unicode="o" horiz-adv-x="1196" d="M84 397q0 138 54 264.5t155 215.5q168 149 397 149q189 0 311 -113q123 -111 123 -305q0 -142 -58.5 -275.5t-162.5 -223.5q-163 -138 -366 -138q-200 0 -326 111q-127 115 -127 315zM160 412q0 -169 100 -269t281 -100q179 0 317 123q87 78 136.5 194.5t49.5 241.5 q0 163 -97 257.5t-273 94.5q-190 0 -332 -127q-85 -75 -133.5 -186t-48.5 -229z" />
<glyph unicode="p" horiz-adv-x="1349" d="M70 -397l284 1333h-204l14 63h274l-47 -211q70 112 199 175q133 65 270 65q180 0 299 -104q119 -101 119 -291q0 -332 -209 -508q-159 -135 -395 -135q-142 0 -252 64t-148 173l-133 -624h-71zM299 356q15 -136 125 -217q113 -78 252 -78q209 0 340 113q182 159 182 449 q0 161 -96 247t-256 86q-147 0 -279.5 -80.5t-204.5 -224.5z" />
<glyph unicode="q" horiz-adv-x="1382" d="M82 379q0 299 237 508q165 145 404 145q137 0 242 -64t135 -171l43 202h268l-12 -63h-199l-280 -1333h-72l131 614q-77 -113 -201.5 -171t-269.5 -58q-187 0 -305 100q-121 103 -121 291zM162 389q0 -160 98.5 -245t261.5 -85q142 0 275.5 78.5t210.5 220.5l65 308 q-13 139 -111.5 217t-242.5 78q-206 0 -348 -127q-209 -185 -209 -445z" />
<glyph unicode="r" horiz-adv-x="784" d="M143 936l15 63h276l-41 -190q36 86 117 152q82 67 184 67q86 0 125 -31l-18 -84h-8q-35 35 -103 35q-101 0 -183 -71t-138 -195l-150 -682h-72l203 936h-207z" />
<glyph unicode="s" horiz-adv-x="905" d="M57 109l25 231h68l-15 -201q134 -96 328 -96q139 0 204.5 56t65.5 147q0 119 -203 196l-172 66q-95 36 -145.5 98t-50.5 137q0 134 100.5 209.5t269.5 75.5q97 0 191.5 -30.5t144.5 -75.5l-34 -224h-68l22 189q-112 69 -262 69q-144 0 -216 -56t-72 -152q0 -61 45 -105 t139 -80l174 -69q114 -46 165.5 -100t51.5 -136q0 -136 -91 -211.5t-265 -75.5q-124 0 -233.5 40t-166.5 98z" />
<glyph unicode="t" horiz-adv-x="602" d="M152 932l14 67h178l66 295h65l-61 -295h258l-15 -67h-258l-129 -629q-16 -78 -16 -121q0 -131 127 -131q106 0 170 49h8l-12 -73q-70 -43 -187 -43q-85 0 -133.5 46.5t-48.5 125.5q0 37 23 155l127 621h-176z" />
<glyph unicode="u" horiz-adv-x="1323" d="M137 936l15 63h276l-117 -548q-24 -111 -24 -187q0 -109 64.5 -163t178.5 -54q128 0 250 82q128 84 193 188l145 682h72l-158 -735q-20 -90 -20 -133q0 -82 90 -82q77 0 139 39l6 -2l-10 -66q-62 -36 -143 -36q-156 0 -156 131q0 56 14 102q-65 -107 -184.5 -174.5 t-261.5 -67.5q-118 0 -207 68q-86 68 -86 197q0 83 27 209l102 487h-205z" />
<glyph unicode="v" horiz-adv-x="1169" d="M176 936l12 63h244l-119 -532q-30 -141 -30 -199q0 -221 241 -221q186 0 330 172q145 177 145 496q0 158 -63 284h80q57 -105 57 -254q0 -172 -38 -312.5t-101 -229.5q-59 -81 -137 -134.5t-146.5 -73.5t-134.5 -20q-307 0 -307 285q0 66 27 189l108 487h-168z" />
<glyph unicode="w" horiz-adv-x="1667" d="M123 936l12 63h244l-119 -532q-31 -146 -31 -199q0 -108 52.5 -164.5t181.5 -56.5q171 0 297 156q0 138 24 246l113 509h74l-109 -491q-26 -116 -26 -207q0 -50 6.5 -79.5t25.5 -63.5q40 -70 191 -70q179 0 317 172q142 177 142 496q0 156 -64 284h80q57 -105 57 -254 q0 -172 -37 -313t-100 -229q-45 -62 -99 -108t-107.5 -71t-102.5 -37t-94 -12q-222 0 -275 158q-128 -158 -321 -158q-151 0 -225 68.5t-74 214.5q0 73 26 191l109 487h-168z" />
<glyph unicode="x" horiz-adv-x="1019" d="M-55 0l14 63h139l404 463l-213 410h-160l14 63h191l223 -432l322 375l14 57h225l-12 -63h-139l-371 -422l207 -385q47 -80 112 -80t115 35l6 -2l-8 -70q-54 -28 -123 -28q-104 0 -157 92q-186 355 -211 395l-347 -408l-14 -63h-231z" />
<glyph unicode="y" horiz-adv-x="1290" d="M137 936l15 63h276l-117 -548q-24 -111 -24 -187q0 -107 69.5 -162t186.5 -55q130 0 241.5 75t188.5 195l145 682h72l-186 -895q-45 -222 -97 -321q-105 -203 -391 -203q-225 0 -346 133l20 74h9q111 -135 327 -135q228 0 310 153q41 70 90 283l22 107 q-78 -104 -172 -162t-262 -58q-129 0 -215 70.5t-86 194.5q0 83 27 209l102 487h-205z" />
<glyph unicode="z" horiz-adv-x="974" d="M-10 0l6 43l868 891h-581l-60 -227h-69l69 292h760l-10 -49l-862 -884h651l69 241h70l-80 -307h-831z" />
<glyph unicode="{" horiz-adv-x="671" d="M102 565l15 66q125 15 182 78q54 63 92 239l53 254q40 188 127 254q85 64 240 64h51l-14 -70h-82q-189 0 -242 -250l-51 -246q-31 -150 -70 -223q-42 -79 -77 -100q-44 -26 -113 -43q129 -30 129 -193q0 -60 -25 -172q-65 -310 -65 -342q0 -160 168 -160h61l-14 -67h-51 q-123 0 -184.5 48t-61.5 161q0 32 68 360q20 90 20 162q0 86 -37.5 127.5t-118.5 52.5z" />
<glyph unicode="|" horiz-adv-x="438" d="M-6 -377l412 1944h77l-413 -1944h-76z" />
<glyph unicode="}" horiz-adv-x="671" d="M-143 -346l14 70h82q189 0 242 249l51 246q31 149 69 221q44 83 78 103q44 26 113 43q-129 30 -129 192q0 64 24 172q66 315 66 342q0 160 -168 160h-61l14 68h51q123 0 184.5 -48t61.5 -161q0 -30 -68 -361q-20 -90 -20 -162q0 -86 37 -127.5t118 -52.5l-14 -65 q-126 -15 -182 -80q-54 -60 -92 -238l-54 -254q-40 -188 -127 -254q-84 -63 -239 -63h-51z" />
<glyph unicode="~" horiz-adv-x="1433" d="M217 537q92 111 165 154.5t159 43.5q77 0 241 -102q125 -76 201 -76q68 0 125.5 40t124.5 136l63 -41q-79 -112 -152 -161.5t-165 -49.5q-97 0 -236 86q-146 90 -215 90q-126 0 -254 -168z" />
<glyph unicode="&#xa1;" horiz-adv-x="587" d="M25 -375q14 96 227 1002h63q-57 -301 -108 -559q-55 -275 -70 -344q-18 -94 -18 -99h-94zM272 971q0 38 21.5 61t58.5 23q70 0 70 -64q0 -37 -23.5 -61.5t-60.5 -24.5q-28 0 -47 17.5t-19 48.5z" />
<glyph unicode="&#xa2;" horiz-adv-x="1110" d="M180 406q0 143 56 265.5t155 209.5q146 122 328 137l45 211h63l-45 -207q206 -3 293 -96l-49 -232h-70l35 203q-79 55 -223 55l-188 -889q10 -2 43 -2q176 0 321 121h8l-18 -90q-132 -102 -328 -102q-33 0 -43 2l-45 -217h-63l47 225q-148 27 -235 134t-87 272zM256 416 q0 -144 70.5 -230t191.5 -114l187 876q-158 -21 -277 -131q-172 -156 -172 -401z" />
<glyph unicode="&#xa3;" horiz-adv-x="1218" d="M49 0l8 49q91 41 159 96t104 105.5t58 106.5t28 93t6 72q0 12 -6 74h-205l18 66h182q-20 120 -20 231q0 238 129.5 368t384.5 130q100 0 195 -34t137 -87l-21 -86h-8q-49 61 -135.5 97t-175.5 36q-422 0 -422 -424q0 -105 18 -231h480l-19 -66h-457q5 -57 5 -64 q0 -298 -281 -458h780l62 225h65l-71 -299h-998z" />
<glyph unicode="&#xa4;" horiz-adv-x="1216" d="M156 283l147 131q-78 110 -78 252q0 182 119 313l-129 151l61 50l125 -152q101 82 254 82q185 0 299 -117l154 133l49 -57l-149 -133q79 -107 79 -254q0 -203 -118 -309l131 -156l-58 -45l-129 150q-116 -84 -258 -84q-182 0 -303 118l-143 -129zM303 672 q0 -160 100 -260q103 -103 254 -103q148 0 250 105q103 106 103 268q0 150 -103 256q-101 104 -252 104q-148 0 -249 -110q-103 -109 -103 -260z" />
<glyph unicode="&#xa5;" horiz-adv-x="1284" d="M121 1272l14 65h455l-15 -65h-208q285 -626 297 -656q104 121 579 656h-184l14 65h443l-15 -65h-153l-457 -506h274l-12 -61h-315l-148 -164l-8 -39h428l-14 -62h-428l-80 -374h205l-13 -66h-467l13 66h184l80 374h-404l15 62h403l8 39l-75 164h-293l12 61h252l-234 506 h-153z" />
<glyph unicode="&#xa6;" horiz-adv-x="438" d="M33 -193l141 674h78l-141 -674h-78zM242 791l141 673h78l-142 -673h-77z" />
<glyph unicode="&#xa7;" horiz-adv-x="989" d="M23 -109l14 86h8q54 -75 145 -118t197 -43q128 0 212.5 62.5t84.5 174.5q0 122 -96 197q-46 34 -162 98q-120 71 -170 113q-104 85 -104 209q0 106 72.5 179t201.5 109q-84 81 -84 201q0 141 111 223q116 84 272 84q205 0 281 -104l-19 -80h-8q-92 111 -277 111 q-116 0 -194 -59t-78 -163q0 -130 141 -229l86 -57q132 -82 211 -158q70 -67 70 -166q0 -105 -67 -179.5t-187 -107.5q82 -82 82 -211q-3 -145 -111 -233q-107 -88 -272 -88q-115 0 -217 45q-104 47 -143 104zM233 680q0 -118 125 -197l131 -82q77 -45 134 -79 q231 58 231 229q0 108 -147 207l-226 149q-101 -15 -174 -76q-74 -62 -74 -151z" />
<glyph unicode="&#xa8;" horiz-adv-x="430" d="M-31 1335q0 33 21.5 55.5t56.5 22.5q59 0 59 -57q0 -34 -19 -56t-54 -22q-64 0 -64 57zM322 1335q0 33 21.5 55.5t55.5 22.5q60 0 60 -57q0 -34 -19.5 -56t-54.5 -22q-63 0 -63 57z" />
<glyph unicode="&#xa9;" horiz-adv-x="1695" d="M158 707q0 311 213 524t528 213q327 0 535 -211q211 -208 211 -526q0 -312 -213 -525q-211 -211 -531 -211q-321 0 -532 211t-211 525zM223 707q0 -293 193 -486q192 -192 485 -192q296 0 488 192t192 486q0 293 -192 485q-194 194 -490 194q-290 0 -483 -196 q-193 -193 -193 -483zM451 604q0 133 53.5 252t144.5 195q148 127 359 127q87 0 165.5 -24t110.5 -62l-45 -220h-70l31 181q-76 43 -199 43q-174 0 -303 -111q-74 -63 -117.5 -161.5t-43.5 -211.5q0 -154 96 -229q101 -72 223 -72q166 0 299 109h8l-16 -96 q-124 -95 -303 -95q-167 0 -281 99q-112 97 -112 276z" />
<glyph unicode="&#xaa;" horiz-adv-x="843" d="M123 838q0 206 160 336q115 92 264 92q85 0 150.5 -36.5t88.5 -99.5l29 119h64l-97 -432q-14 -55 -14 -104q0 -64 68 -64q46 0 90 35l6 -2l-6 -59q-42 -31 -107 -31q-114 0 -114 119q0 18 2 24q-49 -72 -131.5 -112.5t-176.5 -40.5q-124 0 -200 68.5t-76 187.5zM193 846 q0 -96 61.5 -148.5t161.5 -52.5q88 0 170.5 50t132.5 136l47 203q-10 78 -72 122t-151 44q-132 0 -221 -74q-129 -108 -129 -280z" />
<glyph unicode="&#xab;" horiz-adv-x="849" d="M94 518l359 375h102l-362 -383l200 -371h-94zM444 518l359 375h102l-362 -383l200 -371h-94z" />
<glyph unicode="&#xac;" horiz-adv-x="1433" d="M203 565l16 78h1065l-131 -573h-78l115 495h-987z" />
<glyph unicode="&#xad;" horiz-adv-x="651" d="M94 516l17 76h485l-16 -76h-486z" />
<glyph unicode="&#xae;" horiz-adv-x="1695" d="M158 707q0 311 213 524t528 213q327 0 535 -211q211 -208 211 -526q0 -312 -213 -525q-211 -211 -531 -211q-321 0 -532 211t-211 525zM223 707q0 -293 193 -486q192 -192 485 -192q296 0 488 192t192 486q0 293 -192 485q-194 194 -490 194q-290 0 -483 -196 q-193 -193 -193 -483zM442 285l13 61h120l156 752h-121l15 63h336q129 0 196 -33q49 -24 79 -71.5t30 -106.5q0 -104 -62 -172.5t-178 -91.5l139 -340h158l-12 -61h-201l-158 391q-23 -2 -235 -2l-70 -328h135l-12 -61h-328zM731 739h150q121 0 200 33q50 18 78.5 66.5 t28.5 111.5q0 84 -74 119q-58 25 -162 25h-147z" />
<glyph unicode="&#xaf;" horiz-adv-x="430" d="M-96 1237l16 80h606l-16 -80h-606z" />
<glyph unicode="&#xb0;" horiz-adv-x="641" d="M236 1171q0 127 81 205q83 80 193 80q123 0 197.5 -76.5t74.5 -195.5q0 -127 -82 -203t-194 -76q-115 0 -193 78q-77 80 -77 188zM303 1178q0 -92 59 -152.5t146 -60.5q89 0 149 61t60 158q0 85 -57 149t-152 64q-91 0 -148 -63t-57 -156z" />
<glyph unicode="&#xb1;" horiz-adv-x="1433" d="M66 0l16 76h1065l-14 -76h-1067zM231 723l17 76h493l109 479h78l-109 -479h496l-19 -76h-493l-115 -483h-78l115 483h-494z" />
<glyph unicode="&#xb2;" horiz-adv-x="819" d="M186 819l7 41q255 183 409 314q170 147 170 278q0 74 -47 120t-141 46q-66 0 -139.5 -34t-127.5 -91h-8l8 76q112 112 279 112q121 0 185.5 -58.5t64.5 -160.5q0 -153 -168 -305q-30 -30 -164 -133q-84 -64 -199 -143q82 2 457 2l43 149h57l-53 -213h-633z" />
<glyph unicode="&#xb3;" horiz-adv-x="819" d="M229 887l15 71h8q77 -92 231 -92q116 0 188 53t72 150q0 47 -27.5 86.5t-76.5 52.5q-47 15 -141 15h-37l10 59h39q110 0 168 27q108 53 108 161q0 65 -43 106.5t-127 41.5q-136 0 -241 -102h-8l10 75q96 90 256 90q104 0 165.5 -55t61.5 -143q0 -86 -50 -146.5 t-138 -83.5q63 -14 103 -62t40 -114q0 -127 -92.5 -201.5t-243.5 -74.5q-164 0 -250 86z" />
<glyph unicode="&#xb4;" horiz-adv-x="430" d="M-20 1190v8l337 330h129v-8l-378 -330h-88z" />
<glyph unicode="&#xb5;" horiz-adv-x="1204" d="M29 -432l303 1431h71l-122 -577q-23 -125 -23 -174q0 -94 72 -147.5t184 -53.5q119 0 240 68q120 70 188 166l152 718h71l-211 -999h-67l39 184q-164 -209 -439 -209q-93 0 -169.5 44t-96.5 110l-121 -561h-71z" />
<glyph unicode="&#xb6;" horiz-adv-x="1140" d="M180 858q0 265 180 408q183 145 484 145h336l-363 -1706h-74l349 1638h-250l-348 -1638h-76l164 770q-195 18 -298.5 120t-103.5 263z" />
<glyph unicode="&#xb7;" horiz-adv-x="350" d="M111 537q0 37 23.5 61.5t60.5 24.5q28 0 46.5 -17.5t18.5 -48.5q0 -38 -21.5 -61t-58.5 -23q-69 0 -69 64z" />
<glyph unicode="&#xb8;" horiz-adv-x="430" d="M14 -455l15 66h8q64 -49 145 -49q156 0 156 125q0 52 -36 84t-107 32q-41 0 -82 -12l-7 4l101 225h72l-70 -155q94 0 150.5 -45t56.5 -119q0 -97 -66 -152t-176 -55q-106 0 -160 51z" />
<glyph unicode="&#xb9;" horiz-adv-x="819" d="M297 819l12 64h170l160 719l-211 -105l14 70l232 116h53l-178 -800h192l-12 -64h-432z" />
<glyph unicode="&#xba;" horiz-adv-x="792" d="M133 864q0 181 125 297q111 105 268 105q138 0 226 -72t88 -199q0 -183 -121 -307q-106 -106 -270 -106q-134 0 -224 75q-92 77 -92 207zM203 868q0 -100 69 -162.5t185 -62.5q123 0 207 84q104 98 104 262q0 98 -65.5 155.5t-174.5 57.5q-136 0 -219 -80 q-106 -100 -106 -254z" />
<glyph unicode="&#xbb;" horiz-adv-x="849" d="M-16 139l362 383l-201 371h95l204 -379l-358 -375h-102zM334 139l362 383l-200 371h94l205 -379l-359 -375h-102z" />
<glyph unicode="&#xbc;" horiz-adv-x="1722" d="M215 518l12 64h170l160 718l-211 -104l14 70l232 116h53l-178 -800h192l-12 -64h-432zM426 -25l895 1422h76l-893 -1422h-78zM885 229l6 43l598 590h57l-125 -569h154l-14 -64h-154l-51 -229h-70l51 229h-452zM993 293h359q94 410 108 463q-75 -83 -467 -463z" />
<glyph unicode="&#xbd;" horiz-adv-x="1722" d="M178 518l12 64h170l160 718l-211 -104l15 70l231 116h53l-178 -800h193l-13 -64h-432zM367 -25l895 1422h75l-893 -1422h-77zM924 0l6 41q263 189 409 313q170 147 170 279q0 74 -47 120t-141 46q-66 0 -139 -34t-127 -91h-8l8 76q112 112 278 112q121 0 185.5 -58.5 t64.5 -160.5q0 -153 -168 -305q-30 -30 -164 -133q-106 -81 -198 -144q82 2 456 2l43 150h58l-54 -213h-632z" />
<glyph unicode="&#xbe;" horiz-adv-x="1722" d="M186 586l15 71h8q77 -92 231 -92q116 0 188 53t72 150q0 47 -27.5 86.5t-76.5 52.5q-46 15 -141 15h-37l10 59h39q109 0 168 27q108 52 108 161q0 65 -43 106.5t-127 41.5q-135 0 -241 -103h-8l10 76q96 90 256 90q104 0 165.5 -55t61.5 -143q0 -86 -50 -146.5 t-138 -83.5q63 -14 103 -62t40 -114q0 -127 -92.5 -201.5t-243.5 -74.5q-164 0 -250 86zM487 -25l895 1422h76l-893 -1422h-78zM946 229l6 43l598 590h58l-125 -569h153l-14 -64h-154l-51 -229h-69l51 229h-453zM1055 293h358q87 382 109 463q-75 -83 -467 -463z" />
<glyph unicode="&#xbf;" horiz-adv-x="876" d="M12 -117q0 130 72 217q70 87 270 217q92 61 117 121q31 67 49 189h64q-8 -72 -15 -107.5t-26 -89.5q-32 -95 -135 -160q-189 -121 -248 -200q-60 -85 -60 -179q0 -102 61.5 -163.5t194.5 -61.5q195 0 355 160h8l-10 -90q-129 -144 -369 -144q-156 0 -242 79t-86 212z M516 971q0 38 21.5 61t58.5 23q70 0 70 -64q0 -37 -23.5 -61.5t-60.5 -24.5q-28 0 -47 17.5t-19 48.5z" />
<glyph unicode="&#xc0;" horiz-adv-x="1447" d="M-197 0l15 68h131l829 1343h70l295 -1343h153l-14 -68h-459l15 68h219l-88 405h-684l-246 -405h237l-14 -68h-459zM332 545h620q-134 636 -155 768q-62 -114 -465 -768zM502 1802v8h147l287 -266v-8h-98z" />
<glyph unicode="&#xc1;" horiz-adv-x="1447" d="M-94 0l14 68h131l830 1343h69l295 -1343h154l-15 -68h-458l14 68h219l-88 405h-684l-246 -405h238l-14 -68h-459zM434 545h621q-138 657 -156 768q-62 -114 -465 -768zM758 1536v8l352 266h160v-8l-406 -266h-106z" />
<glyph unicode="&#xc2;" horiz-adv-x="1447" d="M-94 0l14 68h131l830 1343h69l295 -1343h154l-15 -68h-458l14 68h219l-88 405h-684l-246 -405h238l-14 -68h-459zM434 545h621q-138 657 -156 768q-62 -114 -465 -768zM600 1536v8l346 266h58l235 -266v-8h-92l-180 184l-260 -184h-107z" />
<glyph unicode="&#xc3;" horiz-adv-x="1447" d="M-197 0l15 68h131l829 1343h70l295 -1343h153l-14 -68h-459l15 68h219l-88 405h-684l-246 -405h237l-14 -68h-459zM332 545h620q-134 636 -155 768q-62 -114 -465 -768zM512 1552q52 199 195 199q67 0 149 -70q77 -65 111 -65q70 0 114 133h74q-50 -209 -190 -209 q-41 0 -72 15.5t-88 60.5q-71 59 -109 59q-68 0 -114 -123h-70z" />
<glyph unicode="&#xc4;" horiz-adv-x="1447" d="M-94 0l14 68h131l830 1343h69l295 -1343h154l-15 -68h-458l14 68h219l-88 405h-684l-246 -405h238l-14 -68h-459zM434 545h621q-138 657 -156 768q-62 -114 -465 -768zM698 1642q0 33 21.5 55.5t56.5 22.5q60 0 60 -57q0 -34 -19.5 -56t-54.5 -22q-64 0 -64 57z M1059 1642q0 33 21.5 55.5t56.5 22.5q59 0 59 -57q0 -34 -19.5 -56t-54.5 -22q-63 0 -63 57z" />
<glyph unicode="&#xc5;" horiz-adv-x="1447" d="M-94 0l14 68h131l830 1343h69l295 -1343h154l-15 -68h-458l14 68h219l-88 405h-684l-246 -405h238l-14 -68h-459zM434 545h621q-138 657 -156 768q-62 -114 -465 -768zM748 1669q0 90 62 147.5t155 57.5q86 0 138 -53t52 -140q0 -88 -60.5 -148t-152.5 -60q-86 0 -140 55 t-54 141zM809 1673q0 -65 37 -106t104 -41q62 0 105 44.5t43 106.5q0 67 -36 106.5t-101 39.5q-63 0 -107.5 -43.5t-44.5 -106.5z" />
<glyph unicode="&#xc6;" horiz-adv-x="2031" d="M-94 0l14 68h146l1142 1275h-219l15 68h1052l-47 -262h-65l28 194h-606l-119 -571h572l-17 -70h-571l-133 -634h704l58 215h65l-67 -283h-1049l14 68h197l84 403h-574l-364 -403h223l-14 -68h-469zM594 547h526l168 786q-105 -127 -694 -786z" />
<glyph unicode="&#xc7;" horiz-adv-x="1359" d="M135 549q0 397 260 657q238 238 604 238q120 0 222 -35t159 -92l-34 -262h-66l23 221q-128 94 -310 94q-334 0 -547 -219q-225 -231 -225 -584q0 -244 139 -383q140 -137 392 -137t432 143h8l-18 -94q-162 -125 -451 -125q-29 0 -37 2l-45 -112q95 0 151 -47t56 -123 q0 -99 -65 -156t-175 -57q-47 0 -97 16t-75 39l17 72h8q56 -56 149 -56q156 0 156 125q0 54 -35.5 87.5t-109.5 33.5q-48 0 -86 -14l-5 6l86 193q-214 30 -348 182q-133 151 -133 387z" />
<glyph unicode="&#xc8;" horiz-adv-x="1206" d="M0 0l14 68h181l270 1275h-195l15 68h946l-47 -262h-66l29 194h-604l-121 -571h573l-16 -70h-573l-136 -634h707l57 215h66l-68 -283h-1032zM500 1802v8h147l287 -266v-8h-98z" />
<glyph unicode="&#xc9;" horiz-adv-x="1206" d="M0 0l14 68h181l270 1275h-195l15 68h946l-47 -262h-66l29 194h-604l-121 -571h573l-16 -70h-573l-136 -634h707l57 215h66l-68 -283h-1032zM705 1536v8l352 266h160v-8l-406 -266h-106z" />
<glyph unicode="&#xca;" horiz-adv-x="1206" d="M0 0l14 68h181l270 1275h-195l15 68h946l-47 -262h-66l29 194h-604l-121 -571h573l-16 -70h-573l-136 -634h707l57 215h66l-68 -283h-1032zM483 1536v8l346 266h58l235 -266v-8h-92l-180 184l-260 -184h-107z" />
<glyph unicode="&#xcb;" horiz-adv-x="1206" d="M0 0l14 68h181l270 1275h-195l15 68h946l-47 -262h-66l29 194h-604l-121 -571h573l-16 -70h-573l-136 -634h707l57 215h66l-68 -283h-1032zM571 1642q0 33 21.5 55.5t56.5 22.5q60 0 60 -57q0 -34 -19.5 -56t-54.5 -22q-64 0 -64 57zM932 1642q0 33 21.5 55.5t56.5 22.5 q59 0 59 -57q0 -34 -19.5 -56t-54.5 -22q-63 0 -63 57z" />
<glyph unicode="&#xcc;" horiz-adv-x="626" d="M0 0l14 68h181l270 1275h-195l15 68h469l-15 -68h-196l-271 -1275h211l-14 -68h-469zM240 1802v8h147l287 -266v-8h-99z" />
<glyph unicode="&#xcd;" horiz-adv-x="626" d="M0 0l14 68h181l270 1275h-195l15 68h469l-15 -68h-196l-271 -1275h211l-14 -68h-469zM383 1536v8l352 266h160v-8l-406 -266h-106z" />
<glyph unicode="&#xce;" horiz-adv-x="626" d="M0 0l14 68h181l270 1275h-195l15 68h469l-15 -68h-196l-271 -1275h211l-14 -68h-469zM219 1536v8l346 266h58l235 -266v-8h-92l-180 184l-260 -184h-107z" />
<glyph unicode="&#xcf;" horiz-adv-x="626" d="M0 0l14 68h181l270 1275h-195l15 68h469l-15 -68h-196l-271 -1275h211l-14 -68h-469zM313 1642q0 33 21.5 55.5t56.5 22.5q60 0 60 -57q0 -34 -19.5 -56t-54.5 -22q-64 0 -64 57zM674 1642q0 33 21.5 55.5t56.5 22.5q59 0 59 -57q0 -34 -19.5 -56t-54.5 -22q-63 0 -63 57 z" />
<glyph unicode="&#xd0;" horiz-adv-x="1542" d="M0 0l14 68h181l133 634h-262l14 68h262l123 573h-195l15 68h501q262 0 402 -49q151 -50 232 -173.5t81 -307.5q0 -257 -99.5 -458t-299.5 -310q-204 -113 -629 -113h-473zM274 68h234q399 0 582 122q157 103 239 283q84 185 84 385q0 293 -192 406q-137 79 -394 79h-284 l-121 -573h428l-14 -68h-428z" />
<glyph unicode="&#xd1;" horiz-adv-x="1517" d="M0 0l14 68h183l270 1275h-197l15 68h280q515 -1113 580 -1280q19 116 254 1212h-203l14 68h469l-14 -68h-188l-285 -1343h-68q-467 1014 -589 1309l-263 -1241h211l-14 -68h-469zM702 1552q52 199 195 199q68 0 150 -70q77 -65 110 -65q71 0 115 133h74 q-50 -209 -191 -209q-41 0 -72 15.5t-88 60.5q-71 59 -108 59q-69 0 -115 -123h-70z" />
<glyph unicode="&#xd2;" horiz-adv-x="1599" d="M135 578q0 360 230 608q114 123 263 187.5t310 64.5q268 0 446 -158q175 -156 175 -438q0 -377 -226 -621q-230 -248 -577 -248q-266 0 -443 162q-178 163 -178 443zM221 588q0 -236 148 -387q149 -152 397 -152q311 0 510 227q92 104 143 254.5t51 305.5q0 240 -143 383 q-145 145 -405 145q-294 0 -502 -234q-199 -224 -199 -542zM731 1802v8h148l286 -266v-8h-98z" />
<glyph unicode="&#xd3;" horiz-adv-x="1599" d="M135 578q0 360 230 608q114 123 263 187.5t310 64.5q268 0 446 -158q175 -156 175 -438q0 -377 -226 -621q-230 -248 -577 -248q-266 0 -443 162q-178 163 -178 443zM221 588q0 -236 148 -387q149 -152 397 -152q311 0 510 227q92 104 143 254.5t51 305.5q0 240 -143 383 q-145 145 -405 145q-294 0 -502 -234q-199 -224 -199 -542zM840 1536v8l352 266h160v-8l-406 -266h-106z" />
<glyph unicode="&#xd4;" horiz-adv-x="1599" d="M135 578q0 360 230 608q114 123 263 187.5t310 64.5q268 0 446 -158q175 -156 175 -438q0 -377 -226 -621q-230 -248 -577 -248q-266 0 -443 162q-178 163 -178 443zM221 588q0 -236 148 -387q149 -152 397 -152q311 0 510 227q92 104 143 254.5t51 305.5q0 240 -143 383 q-145 145 -405 145q-294 0 -502 -234q-199 -224 -199 -542zM676 1536v8l346 266h57l236 -266v-8h-92l-181 184l-260 -184h-106z" />
<glyph unicode="&#xd5;" horiz-adv-x="1599" d="M33 578q0 361 229 608q114 123 263.5 187.5t310.5 64.5q268 0 446 -158q174 -155 174 -438q0 -378 -225 -621q-230 -248 -578 -248q-265 0 -442 162q-178 163 -178 443zM119 588q0 -237 147 -387q149 -152 398 -152q311 0 510 227q92 104 143 254.5t51 305.5 q0 240 -143 383q-145 145 -406 145q-293 0 -502 -234q-198 -223 -198 -542zM594 1552q52 199 194 199q68 0 150 -70q77 -65 111 -65q70 0 114 133h74q-50 -209 -190 -209q-41 0 -72 15.5t-88 60.5q-71 59 -109 59q-68 0 -114 -123h-70z" />
<glyph unicode="&#xd6;" horiz-adv-x="1599" d="M135 578q0 360 230 608q114 123 263 187.5t310 64.5q268 0 446 -158q175 -156 175 -438q0 -377 -226 -621q-230 -248 -577 -248q-266 0 -443 162q-178 163 -178 443zM221 588q0 -236 148 -387q149 -152 397 -152q311 0 510 227q92 104 143 254.5t51 305.5q0 240 -143 383 q-145 145 -405 145q-294 0 -502 -234q-199 -224 -199 -542zM793 1642q0 33 21.5 55.5t55.5 22.5q60 0 60 -57q0 -34 -19.5 -56t-54.5 -22q-63 0 -63 57zM1153 1642q0 33 21.5 55.5t56.5 22.5q59 0 59 -57q0 -34 -19 -56t-54 -22q-64 0 -64 57z" />
<glyph unicode="&#xd7;" horiz-adv-x="1433" d="M303 233l418 373l-328 375l56 49l327 -373l420 375l47 -53l-420 -375l326 -368l-57 -50l-324 367l-418 -373z" />
<glyph unicode="&#xd8;" horiz-adv-x="1599" d="M135 578q0 360 230 608q114 123 263 187.5t310 64.5q202 0 354 -88l113 143h96l-147 -186q205 -163 205 -465q0 -377 -226 -621q-230 -248 -577 -248q-211 0 -369 103l-108 -139h-93l144 184q-195 171 -195 457zM221 588q0 -253 162 -402l858 1098q-133 80 -319 80 q-294 0 -502 -234q-199 -224 -199 -542zM438 141q139 -92 328 -92q311 0 510 227q92 104 143 254.5t51 305.5q0 263 -167 405z" />
<glyph unicode="&#xd9;" horiz-adv-x="1521" d="M219 354q0 106 33 252l156 740h-185l15 65h469l-15 -65h-207l-153 -721q-35 -169 -35 -242q0 -160 99.5 -248t277.5 -88q282 0 432 178q96 109 154 393l153 728h-215l14 65h469l-14 -65h-176l-158 -742q-60 -284 -151 -407q-173 -226 -516 -226q-188 0 -320 97 q-127 95 -127 286zM670 1802v8h147l287 -266v-8h-98z" />
<glyph unicode="&#xda;" horiz-adv-x="1521" d="M219 354q0 106 33 252l156 740h-185l15 65h469l-15 -65h-207l-153 -721q-35 -169 -35 -242q0 -160 99.5 -248t277.5 -88q282 0 432 178q96 109 154 393l153 728h-215l14 65h469l-14 -65h-176l-158 -742q-60 -284 -151 -407q-173 -226 -516 -226q-188 0 -320 97 q-127 95 -127 286zM809 1536v8l352 266h160v-8l-406 -266h-106z" />
<glyph unicode="&#xdb;" horiz-adv-x="1521" d="M219 354q0 106 33 252l156 740h-185l15 65h469l-15 -65h-207l-153 -721q-35 -169 -35 -242q0 -160 99.5 -248t277.5 -88q282 0 432 178q96 109 154 393l153 728h-215l14 65h469l-14 -65h-176l-158 -742q-60 -284 -151 -407q-173 -226 -516 -226q-188 0 -320 97 q-127 95 -127 286zM647 1536v8l346 266h58l235 -266v-8h-92l-180 184l-260 -184h-107z" />
<glyph unicode="&#xdc;" horiz-adv-x="1521" d="M219 354q0 106 33 252l156 740h-185l15 65h469l-15 -65h-207l-153 -721q-35 -169 -35 -242q0 -160 99.5 -248t277.5 -88q282 0 432 178q96 109 154 393l153 728h-215l14 65h469l-14 -65h-176l-158 -742q-60 -284 -151 -407q-173 -226 -516 -226q-188 0 -320 97 q-127 95 -127 286zM743 1642q0 33 21.5 55.5t56.5 22.5q60 0 60 -57q0 -34 -19.5 -56t-54.5 -22q-64 0 -64 57zM1104 1642q0 33 21.5 55.5t56.5 22.5q59 0 59 -57q0 -34 -19.5 -56t-54.5 -22q-63 0 -63 57z" />
<glyph unicode="&#xdd;" horiz-adv-x="1480" d="M213 1346l14 65h469l-14 -65h-215l133 -308l86 -200q50 -108 80 -187q89 107 598 695h-195l15 65h469l-15 -65h-161l-682 -777l-107 -503h203l-12 -66h-467l12 66h186l107 503l-340 777h-164zM782 1536v8l353 266h159v-8l-405 -266h-107z" />
<glyph unicode="&#xde;" horiz-adv-x="1316" d="M72 0l14 68h195l270 1275h-195l15 68h491l-14 -68h-219l-39 -188h276q196 0 305 -47q74 -32 120 -110.5t46 -172.5q0 -341 -313 -452q-122 -43 -319 -43h-293l-54 -262h240l-14 -68h-512zM428 403h268q227 0 338 54q215 108 215 362q0 66 -29.5 125.5t-82.5 89.5 q-89 47 -281 47h-285z" />
<glyph unicode="&#xdf;" horiz-adv-x="1146" d="M80 0l207 987q53 258 141 369q133 160 346 160q162 0 248 -95q86 -92 86 -225q0 -168 -104 -287q-103 -117 -267 -155q138 -9 234 -105q94 -91 94 -227q0 -200 -117 -326q-116 -125 -336 -125q-192 0 -284 99l16 75h8q45 -48 121 -75t148 -27q167 0 265.5 98.5 t98.5 268.5q0 135 -110 223t-306 88h-45l15 67h43q179 0 311 111q131 113 131 295q0 110 -65.5 180t-194.5 70q-167 0 -275 -129q-80 -100 -129 -328l-208 -987h-72z" />
<glyph unicode="&#xe0;" horiz-adv-x="1339" d="M82 371q0 147 63 281.5t179 232.5q181 147 397 147q136 0 236.5 -60.5t136.5 -168.5l41 196h71l-164 -747q-18 -82 -18 -121q0 -82 90 -82q83 0 139 39l7 -2l-11 -66q-68 -36 -143 -36q-156 0 -156 129q0 41 15 106q-163 -248 -459 -248q-192 0 -308 106t-116 294z M162 381q0 -162 96 -250t256 -88q142 0 268.5 83t210.5 234l74 312q-17 137 -112.5 213t-237.5 76q-193 0 -342 -125q-100 -85 -156.5 -205t-56.5 -250zM512 1520v8h123l244 -330v-8h-82z" />
<glyph unicode="&#xe1;" horiz-adv-x="1339" d="M82 371q0 147 63 281.5t179 232.5q181 147 397 147q136 0 236.5 -60.5t136.5 -168.5l41 196h71l-164 -747q-18 -82 -18 -121q0 -82 90 -82q83 0 139 39l7 -2l-11 -66q-68 -36 -143 -36q-156 0 -156 129q0 41 15 106q-163 -248 -459 -248q-192 0 -308 106t-116 294z M162 381q0 -162 96 -250t256 -88q142 0 268.5 83t210.5 234l74 312q-17 137 -112.5 213t-237.5 76q-193 0 -342 -125q-100 -85 -156.5 -205t-56.5 -250zM678 1190v8l338 330h129v-8l-379 -330h-88z" />
<glyph unicode="&#xe2;" horiz-adv-x="1339" d="M82 371q0 147 63 281.5t179 232.5q181 147 397 147q136 0 236.5 -60.5t136.5 -168.5l41 196h71l-164 -747q-18 -82 -18 -121q0 -82 90 -82q83 0 139 39l7 -2l-11 -66q-68 -36 -143 -36q-156 0 -156 129q0 41 15 106q-163 -248 -459 -248q-192 0 -308 106t-116 294z M162 381q0 -162 96 -250t256 -88q142 0 268.5 83t210.5 234l74 312q-17 137 -112.5 213t-237.5 76q-193 0 -342 -125q-100 -85 -156.5 -205t-56.5 -250zM479 1178v8l338 319h47l211 -319v-8h-84l-157 231l-277 -231h-78z" />
<glyph unicode="&#xe3;" horiz-adv-x="1339" d="M82 371q0 147 63 281.5t179 232.5q181 147 397 147q136 0 236.5 -60.5t136.5 -168.5l41 196h71l-164 -747q-18 -82 -18 -121q0 -82 90 -82q83 0 139 39l7 -2l-11 -66q-68 -36 -143 -36q-156 0 -156 129q0 41 15 106q-163 -248 -459 -248q-192 0 -308 106t-116 294z M162 381q0 -162 96 -250t256 -88q142 0 268.5 83t210.5 234l74 312q-17 137 -112.5 213t-237.5 76q-193 0 -342 -125q-100 -85 -156.5 -205t-56.5 -250zM543 1247q58 199 192 199q50 0 139 -68q83 -65 115 -65q37 0 60.5 28.5t46.5 102.5h65q-47 -209 -178 -209 q-58 0 -152 76q-69 57 -112 57q-37 0 -62 -28.5t-49 -92.5h-65z" />
<glyph unicode="&#xe4;" horiz-adv-x="1339" d="M82 371q0 147 63 281.5t179 232.5q181 147 397 147q136 0 236.5 -60.5t136.5 -168.5l41 196h71l-164 -747q-18 -82 -18 -121q0 -82 90 -82q83 0 139 39l7 -2l-11 -66q-68 -36 -143 -36q-156 0 -156 129q0 41 15 106q-163 -248 -459 -248q-192 0 -308 106t-116 294z M162 381q0 -162 96 -250t256 -88q142 0 268.5 83t210.5 234l74 312q-17 137 -112.5 213t-237.5 76q-193 0 -342 -125q-100 -85 -156.5 -205t-56.5 -250zM610 1335q0 33 21.5 55.5t56.5 22.5q60 0 60 -57q0 -34 -19.5 -56t-54.5 -22q-64 0 -64 57zM963 1335q0 33 21.5 55.5 t55.5 22.5q60 0 60 -57q0 -34 -19.5 -56t-54.5 -22q-63 0 -63 57z" />
<glyph unicode="&#xe5;" horiz-adv-x="1339" d="M82 371q0 147 63 281.5t179 232.5q181 147 397 147q136 0 236.5 -60.5t136.5 -168.5l41 196h71l-164 -747q-18 -82 -18 -121q0 -82 90 -82q83 0 139 39l7 -2l-11 -66q-68 -36 -143 -36q-156 0 -156 129q0 41 15 106q-163 -248 -459 -248q-192 0 -308 106t-116 294z M162 381q0 -162 96 -250t256 -88q142 0 268.5 83t210.5 234l74 312q-17 137 -112.5 213t-237.5 76q-193 0 -342 -125q-100 -85 -156.5 -205t-56.5 -250zM641 1366q0 90 64.5 149.5t158.5 59.5q90 0 143.5 -54.5t53.5 -142.5q0 -92 -61.5 -152.5t-157.5 -60.5q-87 0 -144 57 t-57 144zM705 1370q0 -68 37.5 -108.5t107.5 -40.5q65 0 108 44.5t43 108.5q0 68 -37 108t-104 40q-66 0 -110.5 -44.5t-44.5 -107.5z" />
<glyph unicode="&#xe6;" horiz-adv-x="1798" d="M31 246q0 104 46 169.5t150 108.5q115 47 367 47q111 0 209 -16q26 130 26 199q0 200 -278 200q-87 0 -182.5 -39.5t-167.5 -109.5h-8l14 86q150 135 366 135q311 0 326 -238q170 238 461 238q181 0 287 -93.5t106 -254.5q0 -73 -22 -186h-861q-4 -32 -4 -62 q0 -186 98.5 -286.5t284.5 -100.5q223 0 404 156h8l-19 -90q-170 -138 -407 -138q-274 0 -395 207q-57 -57 -111 -98q-57 -42 -152 -74.5t-198 -32.5q-152 0 -252 80q-96 81 -96 193zM109 258q0 -92 72 -152.5t208 -60.5q243 0 424 193q-25 73 -25 198q0 5 2 22t3 29 q-100 19 -215 19q-218 0 -306 -33q-84 -30 -123.5 -80t-39.5 -135zM881 559h784q10 52 10 117q0 131 -85 204.5t-251 73.5q-164 0 -286.5 -100t-171.5 -295z" />
<glyph unicode="&#xe7;" horiz-adv-x="1042" d="M84 389q0 145 61.5 276.5t165.5 219.5q168 143 404 143q98 0 180 -28.5t123 -75.5l-49 -238h-70l37 207q-86 63 -227 63q-210 0 -361 -133q-85 -75 -136.5 -184.5t-51.5 -232.5q0 -79 24 -143t62.5 -104t89 -67t100 -38t99.5 -11q199 0 348 125h8l-19 -92 q-135 -105 -340 -105h-22l-47 -106q94 0 150.5 -45t56.5 -119q0 -97 -66 -152t-176 -55q-106 0 -160 51l15 66h8q64 -49 145 -49q156 0 156 125q0 52 -36 84t-107 32q-41 0 -82 -12l-7 4l80 182q-162 25 -259 133.5t-97 278.5z" />
<glyph unicode="&#xe8;" horiz-adv-x="1083" d="M84 393q0 135 52.5 258.5t137.5 208.5q80 78 186 122t206 44q179 0 278.5 -93t99.5 -263q0 -108 -26 -193h-852q-1 -16 -2 -35t-1.5 -29.5t-0.5 -15.5q0 -163 103.5 -258.5t297.5 -95.5q201 0 381 154h8l-16 -88q-150 -138 -393 -138q-214 0 -336.5 114.5t-122.5 307.5z M180 545h776q13 54 13 114q0 295 -316 295q-89 0 -180 -39q-97 -43 -178 -137q-89 -98 -115 -233zM412 1520v8h123l243 -330v-8h-82z" />
<glyph unicode="&#xe9;" horiz-adv-x="1083" d="M84 393q0 135 52.5 258.5t137.5 208.5q80 78 186 122t206 44q179 0 278.5 -93t99.5 -263q0 -108 -26 -193h-852q-1 -16 -2 -35t-1.5 -29.5t-0.5 -15.5q0 -163 103.5 -258.5t297.5 -95.5q201 0 381 154h8l-16 -88q-150 -138 -393 -138q-214 0 -336.5 114.5t-122.5 307.5z M180 545h776q13 54 13 114q0 295 -316 295q-89 0 -180 -39q-97 -43 -178 -137q-89 -98 -115 -233zM561 1190v8l338 330h129v-8l-379 -330h-88z" />
<glyph unicode="&#xea;" horiz-adv-x="1083" d="M84 393q0 135 52.5 258.5t137.5 208.5q80 78 186 122t206 44q179 0 278.5 -93t99.5 -263q0 -108 -26 -193h-852q-1 -16 -2 -35t-1.5 -29.5t-0.5 -15.5q0 -163 103.5 -258.5t297.5 -95.5q201 0 381 154h8l-16 -88q-150 -138 -393 -138q-214 0 -336.5 114.5t-122.5 307.5z M180 545h776q13 54 13 114q0 295 -316 295q-89 0 -180 -39q-97 -43 -178 -137q-89 -98 -115 -233zM430 1178v8l338 319h47l211 -319v-8h-84l-158 231l-276 -231h-78z" />
<glyph unicode="&#xeb;" horiz-adv-x="1083" d="M84 393q0 135 52.5 258.5t137.5 208.5q80 78 186 122t206 44q179 0 278.5 -93t99.5 -263q0 -108 -26 -193h-852q-1 -16 -2 -35t-1.5 -29.5t-0.5 -15.5q0 -163 103.5 -258.5t297.5 -95.5q201 0 381 154h8l-16 -88q-150 -138 -393 -138q-214 0 -336.5 114.5t-122.5 307.5z M180 545h776q13 54 13 114q0 295 -316 295q-89 0 -180 -39q-97 -43 -178 -137q-89 -98 -115 -233zM500 1335q0 33 21.5 55.5t56.5 22.5q59 0 59 -57q0 -34 -19.5 -56t-54.5 -22q-63 0 -63 57zM852 1335q0 33 21.5 55.5t56.5 22.5q59 0 59 -57q0 -34 -19.5 -56t-54.5 -22 q-63 0 -63 57z" />
<glyph unicode="&#xec;" horiz-adv-x="579" d="M84 1520v8h123l244 -330v-8h-82zM154 936l14 63h281l-166 -749q-19 -87 -19 -123q0 -78 84 -78q90 0 146 39l6 -2l-11 -66q-68 -36 -143 -36q-156 0 -156 127q0 36 21 135l151 690h-208z" />
<glyph unicode="&#xed;" horiz-adv-x="579" d="M154 936l14 63h281l-166 -749q-19 -87 -19 -123q0 -78 84 -78q90 0 146 39l6 -2l-11 -66q-68 -36 -143 -36q-156 0 -156 127q0 36 21 135l151 690h-208zM229 1190v8l338 330h129v-8l-379 -330h-88z" />
<glyph unicode="&#xee;" horiz-adv-x="579" d="M72 1178v8l338 319h47l211 -319v-8h-84l-158 231l-276 -231h-78zM154 936l14 63h281l-166 -749q-19 -87 -19 -123q0 -78 84 -78q90 0 146 39l6 -2l-11 -66q-68 -36 -143 -36q-156 0 -156 127q0 36 21 135l151 690h-208z" />
<glyph unicode="&#xef;" horiz-adv-x="579" d="M154 936l14 63h281l-166 -749q-19 -87 -19 -123q0 -78 84 -78q90 0 146 39l6 -2l-11 -66q-68 -36 -143 -36q-156 0 -156 127q0 36 21 135l151 690h-208zM154 1335q0 33 21.5 55.5t55.5 22.5q60 0 60 -57q0 -34 -19.5 -56t-54.5 -22q-63 0 -63 57zM506 1335 q0 33 21.5 55.5t56.5 22.5q59 0 59 -57q0 -34 -19.5 -56t-54.5 -22q-63 0 -63 57z" />
<glyph unicode="&#xf0;" horiz-adv-x="1196" d="M84 397q0 294 203 473q169 150 393 150q132 0 234.5 -55t144.5 -158q-2 104 -44 224.5t-124 217.5l-254 -155l18 82l193 118q-125 122 -301 168l26 60q206 -65 336 -189l240 150l-19 -84l-178 -111q185 -212 185 -567q0 -419 -230 -615q-156 -135 -370 -135 q-202 0 -328 111q-125 113 -125 315zM160 412q0 -170 99.5 -269.5t281.5 -99.5q185 0 321 121q87 77 134.5 192t47.5 244q0 165 -98.5 256.5t-281.5 91.5q-188 0 -330 -127q-174 -155 -174 -409z" />
<glyph unicode="&#xf1;" horiz-adv-x="1255" d="M143 936l15 63h278l-47 -215q135 240 414 240q119 0 191.5 -67.5t72.5 -194.5q0 -75 -31 -211l-69 -303q-19 -87 -19 -115q0 -46 21 -65t67 -19q83 0 142 39l6 -2l-10 -66q-71 -36 -144 -36q-156 0 -156 127q0 34 21 133l70 305q28 134 28 188q0 113 -53.5 164t-161.5 51 q-130 0 -237 -82q-111 -85 -174 -196l-150 -674h-72l205 936h-207zM426 1247q58 199 192 199q51 0 140 -68q83 -65 114 -65q37 0 60.5 28.5t46.5 102.5h65q-47 -209 -178 -209q-57 0 -151 76q-69 57 -113 57q-37 0 -61.5 -28.5t-48.5 -92.5h-66z" />
<glyph unicode="&#xf2;" horiz-adv-x="1196" d="M84 397q0 138 54 264.5t155 215.5q168 149 397 149q189 0 311 -113q123 -111 123 -305q0 -142 -58.5 -275.5t-162.5 -223.5q-163 -138 -366 -138q-200 0 -326 111q-127 115 -127 315zM160 412q0 -169 100 -269t281 -100q179 0 317 123q87 78 136.5 194.5t49.5 241.5 q0 163 -97 257.5t-273 94.5q-190 0 -332 -127q-85 -75 -133.5 -186t-48.5 -229zM393 1520v8h123l244 -330v-8h-82z" />
<glyph unicode="&#xf3;" horiz-adv-x="1196" d="M84 397q0 138 54 264.5t155 215.5q168 149 397 149q189 0 311 -113q123 -111 123 -305q0 -142 -58.5 -275.5t-162.5 -223.5q-163 -138 -366 -138q-200 0 -326 111q-127 115 -127 315zM160 412q0 -169 100 -269t281 -100q179 0 317 123q87 78 136.5 194.5t49.5 241.5 q0 163 -97 257.5t-273 94.5q-190 0 -332 -127q-85 -75 -133.5 -186t-48.5 -229zM569 1190v8l338 330h129v-8l-379 -330h-88z" />
<glyph unicode="&#xf4;" horiz-adv-x="1196" d="M84 397q0 138 54 264.5t155 215.5q168 149 397 149q189 0 311 -113q123 -111 123 -305q0 -142 -58.5 -275.5t-162.5 -223.5q-163 -138 -366 -138q-200 0 -326 111q-127 115 -127 315zM160 412q0 -169 100 -269t281 -100q179 0 317 123q87 78 136.5 194.5t49.5 241.5 q0 163 -97 257.5t-273 94.5q-190 0 -332 -127q-85 -75 -133.5 -186t-48.5 -229zM414 1178v8l338 319h47l211 -319v-8h-84l-158 231l-276 -231h-78z" />
<glyph unicode="&#xf5;" horiz-adv-x="1196" d="M84 397q0 138 54 264.5t155 215.5q168 149 397 149q189 0 311 -113q123 -111 123 -305q0 -142 -58.5 -275.5t-162.5 -223.5q-163 -138 -366 -138q-200 0 -326 111q-127 115 -127 315zM160 412q0 -169 100 -269t281 -100q179 0 317 123q87 78 136.5 194.5t49.5 241.5 q0 163 -97 257.5t-273 94.5q-190 0 -332 -127q-85 -75 -133.5 -186t-48.5 -229zM463 1247q58 199 192 199q51 0 140 -68q83 -65 114 -65q37 0 60.5 28.5t46.5 102.5h65q-47 -209 -178 -209q-57 0 -151 76q-69 57 -113 57q-37 0 -62 -28.5t-49 -92.5h-65z" />
<glyph unicode="&#xf6;" horiz-adv-x="1196" d="M84 397q0 138 54 264.5t155 215.5q168 149 397 149q189 0 311 -113q123 -111 123 -305q0 -142 -58.5 -275.5t-162.5 -223.5q-163 -138 -366 -138q-200 0 -326 111q-127 115 -127 315zM160 412q0 -169 100 -269t281 -100q179 0 317 123q87 78 136.5 194.5t49.5 241.5 q0 163 -97 257.5t-273 94.5q-190 0 -332 -127q-85 -75 -133.5 -186t-48.5 -229zM504 1335q0 33 21.5 55.5t56.5 22.5q59 0 59 -57q0 -34 -19.5 -56t-54.5 -22q-63 0 -63 57zM856 1335q0 33 21.5 55.5t56.5 22.5q59 0 59 -57q0 -34 -19 -56t-54 -22q-64 0 -64 57z" />
<glyph unicode="&#xf7;" horiz-adv-x="1433" d="M203 567l18 76h1065l-18 -76h-1065zM606 262q0 40 22 62t54 22q53 0 53 -51q0 -37 -19.5 -61.5t-53.5 -24.5q-56 0 -56 53zM754 905q0 39 21 60.5t54 21.5q54 0 54 -51q0 -37 -20 -61.5t-54 -24.5q-55 0 -55 55z" />
<glyph unicode="&#xf8;" horiz-adv-x="1196" d="M84 397q0 138 54 264.5t155 215.5q168 149 397 149q127 0 230 -53l79 104h86l-110 -141q149 -113 149 -328q0 -142 -58.5 -275.5t-162.5 -223.5q-163 -138 -366 -138q-150 0 -263 64l-86 -111h-84l117 150q-137 113 -137 323zM160 412q0 -178 108 -277l604 778 q-87 41 -198 41q-190 0 -332 -127q-85 -75 -133.5 -186t-48.5 -229zM322 96q89 -53 219 -53q179 0 317 123q87 78 136.5 194.5t49.5 241.5q0 181 -116 275z" />
<glyph unicode="&#xf9;" horiz-adv-x="1323" d="M137 936l15 63h276l-117 -548q-24 -111 -24 -187q0 -109 64.5 -163t178.5 -54q128 0 250 82q128 84 193 188l145 682h72l-158 -735q-20 -90 -20 -133q0 -82 90 -82q77 0 139 39l6 -2l-10 -66q-62 -36 -143 -36q-156 0 -156 131q0 56 14 102q-65 -107 -184.5 -174.5 t-261.5 -67.5q-118 0 -207 68q-86 68 -86 197q0 83 27 209l102 487h-205zM449 1520v8h122l244 -330v-8h-82z" />
<glyph unicode="&#xfa;" horiz-adv-x="1323" d="M137 936l15 63h276l-117 -548q-24 -111 -24 -187q0 -109 64.5 -163t178.5 -54q128 0 250 82q128 84 193 188l145 682h72l-158 -735q-20 -90 -20 -133q0 -82 90 -82q77 0 139 39l6 -2l-10 -66q-62 -36 -143 -36q-156 0 -156 131q0 56 14 102q-65 -107 -184.5 -174.5 t-261.5 -67.5q-118 0 -207 68q-86 68 -86 197q0 83 27 209l102 487h-205zM629 1190v8l338 330h129v-8l-379 -330h-88z" />
<glyph unicode="&#xfb;" horiz-adv-x="1323" d="M137 936l15 63h276l-117 -548q-24 -111 -24 -187q0 -109 64.5 -163t178.5 -54q128 0 250 82q128 84 193 188l145 682h72l-158 -735q-20 -90 -20 -133q0 -82 90 -82q77 0 139 39l6 -2l-10 -66q-62 -36 -143 -36q-156 0 -156 131q0 56 14 102q-65 -107 -184.5 -174.5 t-261.5 -67.5q-118 0 -207 68q-86 68 -86 197q0 83 27 209l102 487h-205zM426 1178v8l338 319h47l211 -319v-8h-84l-158 231l-276 -231h-78z" />
<glyph unicode="&#xfc;" horiz-adv-x="1323" d="M137 936l15 63h276l-117 -548q-24 -111 -24 -187q0 -109 64.5 -163t178.5 -54q128 0 250 82q128 84 193 188l145 682h72l-158 -735q-20 -90 -20 -133q0 -82 90 -82q77 0 139 39l6 -2l-10 -66q-62 -36 -143 -36q-156 0 -156 131q0 56 14 102q-65 -107 -184.5 -174.5 t-261.5 -67.5q-118 0 -207 68q-86 68 -86 197q0 83 27 209l102 487h-205zM510 1335q0 33 21.5 55.5t56.5 22.5q59 0 59 -57q0 -34 -19.5 -56t-54.5 -22q-63 0 -63 57zM862 1335q0 33 21.5 55.5t56.5 22.5q59 0 59 -57q0 -34 -19 -56t-54 -22q-64 0 -64 57z" />
<glyph unicode="&#xfd;" horiz-adv-x="1290" d="M137 936l15 63h276l-117 -548q-24 -111 -24 -187q0 -107 69.5 -162t186.5 -55q130 0 241.5 75t188.5 195l145 682h72l-186 -895q-45 -222 -97 -321q-105 -203 -391 -203q-225 0 -346 133l20 74h9q111 -135 327 -135q228 0 310 153q41 70 90 283l22 107 q-78 -104 -172 -162t-262 -58q-129 0 -215 70.5t-86 194.5q0 83 27 209l102 487h-205zM623 1190v8l338 330h129v-8l-379 -330h-88z" />
<glyph unicode="&#xfe;" horiz-adv-x="1349" d="M25 -397l391 1824h-193l13 64h266l-154 -703q70 112 199 175q133 65 270 65q180 0 299 -104q119 -101 119 -291q0 -332 -209 -508q-159 -135 -395 -135q-142 0 -252 64t-148 173l-133 -624h-73zM256 356q15 -136 125 -217q113 -78 252 -78q209 0 340 113q182 159 182 449 q0 161 -96 247t-256 86q-147 0 -279.5 -80.5t-204.5 -224.5z" />
<glyph unicode="&#xff;" horiz-adv-x="1290" d="M137 936l15 63h276l-117 -548q-24 -111 -24 -187q0 -107 69.5 -162t186.5 -55q130 0 241.5 75t188.5 195l145 682h72l-186 -895q-45 -222 -97 -321q-105 -203 -391 -203q-225 0 -346 133l20 74h9q111 -135 327 -135q228 0 310 153q41 70 90 283l22 107 q-78 -104 -172 -162t-262 -58q-129 0 -215 70.5t-86 194.5q0 83 27 209l102 487h-205zM543 1335q0 33 21.5 55.5t56.5 22.5q59 0 59 -57q0 -34 -19.5 -56t-54.5 -22q-63 0 -63 57zM895 1335q0 33 21.5 55.5t56.5 22.5q59 0 59 -57q0 -34 -19.5 -56t-54.5 -22q-63 0 -63 57z " />
<glyph unicode="&#x152;" horiz-adv-x="2289" d="M135 578q0 360 230 608q114 121 267 186.5t314 65.5q210 0 355 -90.5t194 -255.5l70 319h749l-47 -262h-65l28 194h-602l-121 -571h574l-17 -70h-573l-135 -634h706l58 215h65l-67 -283h-852l49 236q-207 -263 -559 -263q-266 0 -443 162q-178 163 -178 443zM221 588 q0 -236 148 -387q149 -152 397 -152q359 0 580 332l118 561q-30 199 -167.5 310.5t-366.5 111.5q-138 0 -273 -61.5t-237 -172.5q-199 -224 -199 -542z" />
<glyph unicode="&#x153;" horiz-adv-x="2029" d="M84 397q0 138 54 264.5t155 215.5q168 149 387 149q162 0 273 -78.5t143 -220.5q65 139 200 217q137 82 299 82q181 0 285.5 -94.5t104.5 -261.5q0 -104 -27 -193h-856q-2 -20 -2 -80q0 -164 102.5 -259t296.5 -95q208 0 385 154h8l-16 -88q-150 -138 -393 -138 q-182 0 -297 85t-146 235q-70 -148 -203.5 -234t-297.5 -86q-202 0 -328 111q-127 115 -127 315zM160 412q0 -169 100.5 -269t282.5 -100t319 125q174 152 174 434q0 168 -95.5 260t-276.5 92q-180 0 -322 -127q-85 -75 -133.5 -186t-48.5 -229zM1112 545h784q13 54 13 114 q0 140 -80.5 217.5t-245.5 77.5q-163 0 -297 -104q-133 -101 -174 -305z" />
<glyph unicode="&#x178;" horiz-adv-x="1480" d="M213 1346l14 65h469l-14 -65h-215l133 -308l86 -200q50 -108 80 -187q89 107 598 695h-195l15 65h469l-15 -65h-161l-682 -777l-107 -503h203l-12 -66h-467l12 66h186l107 503l-340 777h-164zM705 1642q0 33 21.5 55.5t55.5 22.5q60 0 60 -57q0 -34 -19.5 -56t-54.5 -22 q-63 0 -63 57zM1065 1642q0 33 21.5 55.5t56.5 22.5q59 0 59 -57q0 -34 -19.5 -56t-54.5 -22q-63 0 -63 57z" />
<glyph unicode="&#x2c6;" horiz-adv-x="430" d="M-90 1178v8l338 319h47l211 -319v-8h-84l-158 231l-276 -231h-78z" />
<glyph unicode="&#x2dc;" horiz-adv-x="430" d="M-94 1247q58 199 192 199q51 0 140 -68q83 -65 114 -65q37 0 60.5 28.5t46.5 102.5h65q-47 -209 -178 -209q-57 0 -151 76q-69 57 -113 57q-37 0 -62 -28.5t-49 -92.5h-65z" />
<glyph unicode="&#x2000;" horiz-adv-x="937" />
<glyph unicode="&#x2001;" horiz-adv-x="1874" />
<glyph unicode="&#x2002;" horiz-adv-x="937" />
<glyph unicode="&#x2003;" horiz-adv-x="1874" />
<glyph unicode="&#x2004;" horiz-adv-x="624" />
<glyph unicode="&#x2005;" horiz-adv-x="468" />
<glyph unicode="&#x2006;" horiz-adv-x="312" />
<glyph unicode="&#x2007;" horiz-adv-x="312" />
<glyph unicode="&#x2008;" horiz-adv-x="234" />
<glyph unicode="&#x2009;" horiz-adv-x="374" />
<glyph unicode="&#x200a;" horiz-adv-x="104" />
<glyph unicode="&#x2010;" horiz-adv-x="651" d="M94 516l17 76h485l-16 -76h-486z" />
<glyph unicode="&#x2011;" horiz-adv-x="651" d="M94 516l17 76h485l-16 -76h-486z" />
<glyph unicode="&#x2012;" horiz-adv-x="651" d="M94 516l17 76h485l-16 -76h-486z" />
<glyph unicode="&#x2013;" horiz-adv-x="1093" d="M90 518l16 72h938l-16 -72h-938z" />
<glyph unicode="&#x2014;" horiz-adv-x="1712" d="M90 518l16 72h1551l-17 -72h-1550z" />
<glyph unicode="&#x2018;" horiz-adv-x="387" d="M254 1069q0 246 229 404h82v-9q-99 -71 -161 -175t-62 -216q0 -63 27 -121h-88q-27 50 -27 117z" />
<glyph unicode="&#x2019;" horiz-adv-x="387" d="M137 952v9q99 71 161 175t62 216q0 65 -26 121h88q27 -49 27 -117q0 -246 -230 -404h-82z" />
<glyph unicode="&#x201a;" horiz-adv-x="387" d="M-119 -276q99 71 161 175t62 216q0 65 -26 121h88q27 -50 27 -117q0 -246 -230 -404h-82v9z" />
<glyph unicode="&#x201c;" horiz-adv-x="669" d="M254 1069q0 246 229 404h82v-9q-99 -71 -161 -175t-62 -216q0 -63 27 -121h-88q-27 50 -27 117zM537 1069q0 246 229 404h82v-9q-99 -71 -161 -175t-62 -216q0 -65 26 -121h-88q-26 48 -26 117z" />
<glyph unicode="&#x201d;" horiz-adv-x="669" d="M137 952v9q99 71 161 175t62 216q0 65 -26 121h88q27 -49 27 -117q0 -246 -230 -404h-82zM420 952v9q99 71 161 175t62 216q0 62 -27 121h89q26 -48 26 -117q0 -246 -229 -404h-82z" />
<glyph unicode="&#x201e;" horiz-adv-x="669" d="M-119 -276q99 71 161 175t62 216q0 65 -26 121h88q27 -50 27 -117q0 -246 -230 -404h-82v9zM164 -276q99 71 161 175t62 216q0 63 -27 121h89q26 -48 26 -117q0 -246 -229 -404h-82v9z" />
<glyph unicode="&#x2022;" horiz-adv-x="651" d="M135 492q0 102 65.5 171.5t168.5 69.5q77 0 129.5 -49.5t52.5 -134.5q0 -103 -59 -169.5t-162 -66.5q-87 0 -141 47t-54 132z" />
<glyph unicode="&#x2026;" horiz-adv-x="1800" d="M160 45q0 37 23.5 61.5t60.5 24.5q27 0 46 -17.5t19 -47.5q0 -38 -21.5 -61t-58.5 -23q-69 0 -69 63zM745 45q0 37 23.5 61.5t60.5 24.5q27 0 46.5 -17.5t19.5 -47.5q0 -38 -21.5 -61t-58.5 -23q-70 0 -70 63zM1329 45q0 37 23.5 61.5t60.5 24.5q27 0 46.5 -17.5 t19.5 -47.5q0 -38 -21.5 -61t-58.5 -23q-70 0 -70 63z" />
<glyph unicode="&#x202f;" horiz-adv-x="374" />
<glyph unicode="&#x2039;" horiz-adv-x="499" d="M94 518l359 375h102l-362 -383l200 -371h-94z" />
<glyph unicode="&#x203a;" horiz-adv-x="499" d="M-16 139l362 383l-201 371h95l204 -379l-358 -375h-102z" />
<glyph unicode="&#x205f;" horiz-adv-x="468" />
<glyph unicode="&#x20ac;" horiz-adv-x="1353" d="M176 508l14 61h160q9 115 31 203h-148l13 62h151q73 237 236 380q201 177 461 177q107 0 200.5 -32t137.5 -85l-48 -262h-65l35 231q-103 74 -264 74q-256 0 -428 -172q-125 -125 -183 -311h641l-12 -62h-647q-23 -96 -29 -203h633l-14 -61h-621q0 -104 24.5 -185 t65 -132t98 -84.5t118 -46.5t130.5 -13q200 0 387 135h9l-19 -88q-150 -123 -409 -123q-226 0 -356 140.5t-130 396.5h-172z" />
<glyph unicode="&#x2122;" horiz-adv-x="1794" d="M276 1200l46 211h596l-46 -211h-57l27 158h-201l-135 -631h123l-13 -53h-309l12 53h113l135 631h-194l-37 -158h-60zM860 674l12 53h109l135 631h-108l12 53h203q137 -473 147 -520q46 77 346 520h223l-12 -53h-108l-136 -631h115l-12 -53h-299l12 53h109l133 608 q-20 -37 -359 -532h-55l-80 272q-36 133 -49 172q-8 24 -22 88q-58 -312 -121 -608h114l-12 -53h-297z" />
<glyph unicode="&#x25fc;" horiz-adv-x="1003" d="M0 0v1004h1004v-1004h-1004z" />
</font>
</defs>
</svg>
