<?xml version="1.0" standalone="no"?>
<!DOCTYPE svg PUBLIC "-//W3C//DTD SVG 1.1//EN" "http://www.w3.org/Graphics/SVG/1.1/DTD/svg11.dtd" >
<svg xmlns="http://www.w3.org/2000/svg">
<metadata></metadata>
<defs>
<font id="equip_slabbold" horiz-adv-x="1232" >
<font-face units-per-em="2048" ascent="1536" descent="-512" />
<missing-glyph horiz-adv-x="446" />
<glyph unicode="&#xfb01;" horiz-adv-x="1411" d="M39 780v244h162v90q0 191 102 293q115 109 324 109q128 0 198 -43v-240h-8q-59 39 -143 39q-92 0 -137 -45q-41 -41 -41 -133v-70h739v-791h141v-233h-581v233h145v547h-444v-547h196v-233h-637v233h146v547h-162zM915 1331q0 44 17.5 79t46 53t62.5 26t68 0t62.5 -26 t46 -53t17.5 -79q0 -71 -45 -115.5t-115 -44.5q-67 0 -113.5 44.5t-46.5 115.5z" />
<glyph unicode="&#xfb02;" horiz-adv-x="1402" d="M39 780v244h162v57q0 210 106 310q131 122 418 122q159 0 299 -21.5t207 -49.5v-1209h141v-233h-581v233h145v1014q-125 23 -215 23q-128 0 -180 -58q-45 -51 -45 -153v-35h239v-244h-239v-547h196v-233h-637v233h146v547h-162z" />
<glyph unicode="&#xfb03;" horiz-adv-x="2154" d="M43 780v244h162v49q0 193 100 293q115 109 326 109q122 0 198 -43v-240h-8q-62 39 -143 39q-94 0 -139 -45q-41 -41 -41 -127v-35h446v90q0 193 100 293q115 109 326 109q129 0 199 -43v-240h-8q-62 39 -144 39q-92 0 -137 -45q-43 -40 -43 -133v-70h739v-791h142v-233 h-582v233h147v547h-446v-547h197v-233h-635v233h145v547h-446v-547h196v-233h-635v233h146v547h-162zM1659 1331q-3 101 78 143t162 0t77 -143q0 -73 -43.5 -116.5t-113.5 -43.5q-69 0 -114.5 44t-45.5 116z" />
<glyph unicode="&#xfb04;" horiz-adv-x="2146" d="M43 780v244h162v49q0 193 100 293q115 109 326 109q122 0 198 -43v-240h-8q-62 39 -143 39q-94 0 -139 -45q-41 -41 -41 -127v-35h446v57q0 209 107 310q131 122 417 122q172 0 310 -24q129 -22 194 -47v-1209h142v-233h-582v233h147v1014q-125 23 -215 23 q-130 0 -182 -58q-45 -51 -45 -153v-35h240v-244h-240v-547h197v-233h-635v233h145v547h-446v-547h196v-233h-635v233h146v547h-162z" />
<glyph horiz-adv-x="0" />
<glyph horiz-adv-x="682" />
<glyph unicode=" "  horiz-adv-x="446" />
<glyph unicode="&#x09;" horiz-adv-x="446" />
<glyph unicode="&#xa0;" horiz-adv-x="446" />
<glyph unicode="!" horiz-adv-x="641" d="M186 150q-2 67 34 113t88 56.5t104.5 0t88.5 -56.5t34 -113q0 -77 -49.5 -126t-125.5 -49q-75 0 -124.5 48.5t-49.5 126.5zM193 1411h333q0 -219 -49 -924h-233q-51 660 -51 924z" />
<glyph unicode="&#x22;" horiz-adv-x="800" d="M92 1456h244l-49 -571h-148zM465 1456h244l-47 -571h-148z" />
<glyph unicode="#" horiz-adv-x="1280" d="M84 403v191h278l29 192h-258v193h285l59 414h150l-60 -414h234l59 414h152l-60 -414h246v-193h-272l-29 -192h252v-191h-277l-61 -432h-152l62 432h-234l-61 -432h-150l60 432h-252zM514 594h234l26 192h-231z" />
<glyph unicode="$" horiz-adv-x="1214" d="M106 121v340h207l9 -174q131 -50 251 -56v312l-116 35q-173 51 -253.5 143.5t-80.5 241.5q0 171 114.5 277t335.5 124v209h117v-205q93 -3 209 -35q107 -30 162 -73l10 -330h-213l-12 162q-77 25 -156 32v-317l76 -23q201 -61 284 -149.5t83 -233.5q0 -168 -111.5 -278.5 t-331.5 -132.5v-219h-117v215q-286 6 -467 135zM440 985q-3 -45 23 -78.5t110 -64.5v280q-133 -21 -133 -137zM690 238q121 24 121 137q0 86 -121 133v-270z" />
<glyph unicode="%" horiz-adv-x="1816" d="M63 936q0 214 105 328q107 116 258 116q164 0 259 -113t95 -321q0 -215 -97.5 -330.5t-262.5 -115.5q-163 0 -260 114.5t-97 321.5zM272 940q0 -264 146 -264q151 0 151 264t-147 264q-150 0 -150 -264zM498 -25l690 1422h141l-688 -1422h-143zM1036 418q0 213 105 327 q108 117 258 117q164 0 259 -113t95 -321q0 -215 -96.5 -330.5t-261.5 -115.5q-164 0 -261.5 113.5t-97.5 322.5zM1245 422q0 -131 40 -197.5t108 -66.5q149 0 149 264t-145 264q-152 0 -152 -264z" />
<glyph unicode="&#x26;" horiz-adv-x="1540" d="M86 403q0 272 270 392q-65 103 -65 227q0 147 115 256q115 106 325 106q180 0 283 -71v-269h-8q-88 82 -226 82q-83 0 -128.5 -38.5t-45.5 -98.5q0 -71 60 -149q99 -129 352 -363q35 54 41 109h-86v241h504v-241h-134q-18 -194 -118 -305l39 -39h192v-242h-352 q-58 45 -90 80q-165 -109 -400 -109t-381 119q-147 120 -147 313zM377 418q0 -91 67.5 -144t182.5 -53q117 0 190 55q-168 142 -321 314q-119 -52 -119 -172z" />
<glyph unicode="'" horiz-adv-x="428" d="M92 1456h244l-49 -571h-148z" />
<glyph unicode="(" horiz-adv-x="815" d="M82 578q0 340 143 569q145 235 371 369h221v-9q-481 -345 -481 -927q0 -530 481 -918v-8h-219q-200 125 -346 336q-80 115 -125 268t-45 320z" />
<glyph unicode=")" horiz-adv-x="815" d="M-2 -338q481 342 481 928q0 523 -481 917v9h219q200 -125 346 -336q79 -114 123.5 -267t44.5 -321q0 -339 -143 -574q-142 -231 -369 -364h-221v8z" />
<glyph unicode="*" horiz-adv-x="913" d="M59 1098l58 174q140 -44 262 -98q-16 153 -19 278h187q0 -60 -17 -283q138 62 267 103l53 -178q-3 -1 -277 -72q120 -129 183 -215l-150 -109q-92 131 -153 236q-108 -174 -152 -234l-151 103q81 114 182 221q-157 38 -273 74z" />
<glyph unicode="+" horiz-adv-x="1433" d="M184 514v178h443v443h182v-443h440v-178h-440v-442h-180v442h-445z" />
<glyph unicode="," horiz-adv-x="520" d="M-2 -324q84 74 136 188t52 238q0 115 -34 193h270q27 -62 27 -176q0 -135 -72 -258q-69 -121 -166 -193h-213v8z" />
<glyph unicode="-" horiz-adv-x="661" d="M76 455v219h510v-219h-510z" />
<glyph unicode="." horiz-adv-x="526" d="M115 150q0 82 51 130t123 48q73 0 124.5 -47.5t51.5 -130.5q0 -77 -50 -126t-126 -49q-73 0 -123.5 49t-50.5 126z" />
<glyph unicode="/" horiz-adv-x="856" d="M-14 -117l698 1614h176l-698 -1614h-176z" />
<glyph unicode="0" d="M72 676q0 337 157 526q160 189 394 189q251 0 394.5 -183.5t143.5 -519.5q0 -346 -151 -532q-150 -185 -396 -185q-244 0 -395 183q-147 182 -147 522zM373 682q0 -226 64 -340.5t177 -114.5q242 0 242 455q0 453 -240 453q-115 0 -179 -115t-64 -338z" />
<glyph unicode="1" d="M223 918v276l352 199h240v-1160h182v-233h-700v233h215v844z" />
<glyph unicode="2" d="M88 0v172q318 261 487 436q154 157 154 316q0 93 -57 149.5t-154 56.5q-211 0 -387 -188h-8v275q81 81 202.5 127.5t247.5 46.5q224 0 347.5 -114t123.5 -308q0 -234 -188 -428q-54 -59 -168 -156q-105 -86 -182 -141q332 4 418 4l12 174h215l-6 -422h-1057z" />
<glyph unicode="3" d="M147 76v291h9q156 -138 383 -138t227 170q0 108 -115 146q-88 26 -205 26h-49v246h56q127 0 194 31q82 40 82 141q0 64 -49.5 104t-134.5 40q-95 0 -193.5 -37.5t-167.5 -106.5h-8v262q74 62 190 101t232 39q224 0 338.5 -97.5t114.5 -273.5q0 -107 -67 -191t-187 -120 q301 -52 301 -320q0 -192 -148 -307q-147 -111 -399 -111q-254 0 -404 105z" />
<glyph unicode="4" d="M74 356v179l655 856h246v-801h205v-234h-205v-120h196v-236h-702v236h215v120h-610zM367 590h317q0 222 6 442z" />
<glyph unicode="5" d="M145 80v270h9q168 -121 374 -121q125 0 189.5 59t64.5 161q0 96 -65 143t-180 47q-182 0 -336 -80h-8l79 803h781l8 -389h-219l-11 141h-339l-31 -295q77 45 223 45q201 0 315.5 -101.5t114.5 -295.5q0 -237 -156 -363q-151 -124 -407 -124q-253 0 -406 100z" />
<glyph unicode="6" d="M113 631q0 193 52 344t144 239q183 177 432 177q224 0 340 -82v-283h-10q-107 107 -303 107q-154 0 -246 -102t-104 -283q109 139 311 139q194 0 308 -114.5t114 -321.5q0 -218 -139 -351q-138 -129 -355 -129q-235 0 -391 164q-153 167 -153 496zM432 512q0 -85 25 -162 q20 -59 70 -94t114 -35q94 0 149.5 58t55.5 167q0 104 -53.5 160t-145.5 56q-76 0 -135 -43t-80 -107z" />
<glyph unicode="7" d="M115 973l8 389h991v-188q-304 -685 -493 -1174h-316q219 549 504 1114h-465l-8 -141h-221z" />
<glyph unicode="8" d="M94 371q0 111 64.5 196.5t181.5 128.5q-94 43 -145.5 124t-51.5 184q0 176 142 282q144 105 338 105q213 0 344 -101q133 -103 133 -286q0 -98 -54 -175.5t-151 -115.5q244 -83 244 -324q0 -187 -146 -303q-145 -115 -379 -115q-228 0 -374 101q-146 103 -146 299z M391 410q0 -85 63.5 -134t163.5 -49q101 0 163.5 50.5t62.5 134.5q0 80 -61.5 126.5t-170.5 57.5q-102 -12 -161.5 -60.5t-59.5 -125.5zM422 977q0 -158 205 -182q190 30 190 180q0 75 -53.5 119.5t-145.5 44.5q-86 0 -141 -45t-55 -117z" />
<glyph unicode="9" d="M86 911q0 213 145 346q146 134 363 134q266 0 399 -183t133 -491q0 -379 -172 -563q-171 -183 -442 -183q-248 0 -375 86v293h8q131 -104 347 -104q302 0 329 362q-102 -129 -297 -129q-200 0 -319 113t-119 319zM389 909q0 -95 57 -151t146 -56q81 0 135.5 44.5 t75.5 117.5q0 64 -21 123q-46 137 -184 137q-90 0 -149.5 -57t-59.5 -158z" />
<glyph unicode=":" horiz-adv-x="567" d="M156 150q0 82 51 130t123 48q73 0 124.5 -47.5t51.5 -130.5q0 -77 -50 -126t-126 -49q-73 0 -123.5 49t-50.5 126zM156 854q0 82 51 130t123 48q73 0 124.5 -47.5t51.5 -130.5q0 -77 -50 -125.5t-126 -48.5q-73 0 -123.5 48.5t-50.5 125.5z" />
<glyph unicode=";" horiz-adv-x="567" d="M37 -324q85 74 136.5 187.5t51.5 238.5q0 122 -32 193h268q26 -53 26 -176q0 -138 -69 -258q-69 -121 -166 -193h-215v8zM156 854q0 82 51 130t123 48q73 0 124.5 -47.5t51.5 -130.5q0 -77 -50 -125.5t-126 -48.5q-73 0 -123.5 48.5t-50.5 125.5z" />
<glyph unicode="&#x3c;" horiz-adv-x="1433" d="M229 506v188l930 457v-207l-739 -340l739 -334v-209z" />
<glyph unicode="=" horiz-adv-x="1433" d="M184 307v176h1065v-176h-1065zM184 717v180h1065v-180h-1065z" />
<glyph unicode="&#x3e;" horiz-adv-x="1433" d="M274 61v205l742 342l-742 332v211l932 -449v-186z" />
<glyph unicode="?" horiz-adv-x="942" d="M88 1059v266q64 55 166 84q103 33 195 33q215 0 329.5 -91.5t114.5 -267.5q0 -113 -56.5 -202t-195.5 -185q-112 -77 -115 -221h-233q2 122 24.5 184.5t94.5 120.5q90 69 126.5 121.5t36.5 112.5q0 151 -196 151q-153 0 -283 -106h-8zM233 150q0 82 52 130t125 48 q72 0 123 -48t51 -130q0 -77 -49 -126t-125 -49q-75 0 -126 49t-51 126z" />
<glyph unicode="@" horiz-adv-x="1716" d="M100 446q0 367 246 613q248 248 623 248q304 0 481 -168q178 -169 178 -451q0 -230 -127 -407q-126 -175 -305 -175q-109 0 -149 64q-18 33 -21 72q-108 -138 -285 -138q-131 0 -211.5 81t-80.5 225q0 112 46 217.5t130 179.5q125 119 290 119q157 0 209 -119l23 100h160 l-95 -461q-16 -75 -16 -131q0 -67 55 -67q83 0 154 129q72 132 72 305q0 214 -138 352q-134 137 -372 137q-292 0 -496 -204q-205 -202 -205 -521q0 -261 168 -426q169 -163 447 -163q331 0 575 170h8l-28 -168q-234 -144 -566 -144q-342 0 -557 203q-213 201 -213 528z M625 436q0 -174 174 -174q65 0 131 42.5t106 115.5l47 223q-27 133 -163 133q-107 0 -191 -84q-44 -47 -74 -120t-30 -136z" />
<glyph unicode="A" horiz-adv-x="1513" d="M8 0v242h127l467 1169h307l467 -1169h129v-242h-633v242h160l-57 143h-483l-58 -143h178v-242h-604zM565 623h330q-116 304 -160 438z" />
<glyph unicode="B" horiz-adv-x="1417" d="M55 0v242h154v925h-154v244h609q109 0 210 -8q173 -14 276 -101t103 -235q0 -122 -52.5 -198.5t-168.5 -127.5q301 -52 301 -333q0 -130 -72 -227.5t-194 -139.5q-118 -41 -379 -41h-633zM526 244h152q143 0 219 24q117 40 117 164q0 120 -117 154q-67 20 -215 20h-156 v-362zM526 848h127q150 0 205 22q88 37 88 146q0 116 -123 137q-62 12 -176 12h-121v-317z" />
<glyph unicode="C" horiz-adv-x="1431" d="M84 707q0 335 227 534q230 201 543 201q137 0 260.5 -32.5t190.5 -86.5l8 -387h-238l-16 225q-95 29 -174 29q-206 0 -340 -125q-135 -123 -135 -352q0 -233 131.5 -355t357.5 -122q240 0 399 126h9v-272q-162 -119 -463 -119q-331 0 -545 199q-215 200 -215 537z" />
<glyph unicode="D" horiz-adv-x="1570" d="M55 0v242h154v927h-154v242h551q309 0 455 -51q426 -138 426 -633q0 -509 -438 -661q-195 -66 -482 -66h-512zM524 250h109q229 0 348 76q180 119 180 395q0 277 -215 385q-110 55 -297 55h-125v-911z" />
<glyph unicode="E" horiz-adv-x="1253" d="M55 0v242h154v927h-154v242h1075l9 -399h-238l-10 151h-363v-309h447v-252h-447v-356h414l12 174h236l-8 -420h-1127z" />
<glyph unicode="F" horiz-adv-x="1181" d="M55 0v242h154v927h-154v242h1075l9 -395h-238l-10 147h-363v-346h443v-252h-443v-323h201v-242h-674z" />
<glyph unicode="G" horiz-adv-x="1525" d="M84 707q0 228 109 399q108 167 281.5 251.5t389.5 84.5q149 0 281.5 -31t204.5 -82l8 -379h-240l-16 209q-101 29 -197 29q-229 0 -361 -123.5t-132 -349.5q0 -236 133 -363q132 -123 336 -123q126 0 202 31v264h-213v246h617v-246h-101v-420q-222 -133 -544 -133 q-335 0 -547 197q-211 196 -211 539z" />
<glyph unicode="H" horiz-adv-x="1615" d="M55 0v242h154v927h-154v242h631v-242h-158v-315h559v315h-155v242h629v-242h-154v-927h154v-242h-629v242h155v360h-559v-360h158v-242h-631z" />
<glyph unicode="I" horiz-adv-x="737" d="M55 0v242h154v927h-154v242h629v-242h-156v-927h156v-242h-629z" />
<glyph unicode="J" horiz-adv-x="937" d="M39 20v263h8q77 -47 182 -47q122 0 168 79q31 54 31 217v637h-170v242h629v-242h-139v-651q0 -245 -60 -356q-105 -191 -389 -191q-169 0 -260 49z" />
<glyph unicode="K" horiz-adv-x="1490" d="M55 0v242h154v927h-154v242h619v-242h-146v-387l363 387h-78v242h584v-242h-180l-310 -317l379 -610h176v-242h-409l-371 606l-154 -157v-207h156v-242h-629z" />
<glyph unicode="L" horiz-adv-x="1210" d="M55 0v242h154v927h-154v242h635v-242h-162v-923h394l12 182h227l-8 -428h-1098z" />
<glyph unicode="M" horiz-adv-x="1880" d="M55 0v242h154v927h-154v242h566l331 -758l324 758h551v-242h-156v-927h156v-242h-629v242h164q0 604 8 792q-12 -33 -57 -137l-111 -252l-155 -358h-209q-58 136 -160 358l-111 246q-46 109 -59 145q8 -205 8 -794h166v-242h-627z" />
<glyph unicode="N" horiz-adv-x="1607" d="M55 0v242h154v927h-154v242h510q431 -648 555 -870q-10 218 -10 628h-149v242h610v-242h-152v-1169h-321q-474 757 -584 967q6 -279 6 -725h158v-242h-623z" />
<glyph unicode="O" horiz-adv-x="1648" d="M84 707q0 314 213 524q214 211 532 211q331 0 533 -205q203 -206 203 -530q0 -320 -209 -529q-210 -207 -535 -207q-320 0 -530 207q-207 207 -207 529zM410 707q0 -220 118 -347q120 -129 301 -129q186 0 299 131t113 345q0 211 -113 342q-115 133 -301 133 q-180 0 -301 -133q-116 -131 -116 -342z" />
<glyph unicode="P" horiz-adv-x="1404" d="M55 0v242h154v927h-154v242h652q197 0 331 -41q133 -39 208 -145.5t75 -270.5q0 -321 -281 -430q-139 -53 -335 -53h-179v-229h181v-242h-652zM526 719h160q145 0 207 33q104 49 104 196q0 136 -108 182q-73 31 -203 31h-160v-442z" />
<glyph unicode="Q" horiz-adv-x="1648" d="M84 707q0 314 213 524q214 211 532 211q331 0 533 -205q203 -206 203 -530q0 -182 -73.5 -335t-207.5 -253l272 -195l-167 -227l-402 291q-97 -17 -166 -17q-320 0 -530 207q-207 207 -207 529zM410 707q0 -220 118 -347q120 -129 301 -129q186 0 299 131t113 345 q0 211 -113 342q-115 133 -301 133q-180 0 -301 -133q-116 -131 -116 -342z" />
<glyph unicode="R" horiz-adv-x="1402" d="M55 0v242h154v927h-154v242h637q212 0 330 -39q126 -39 197 -138.5t71 -240.5q0 -291 -266 -405l197 -346h161v-242h-383l-276 530q-20 -2 -98 -2h-97v-286h158v-242h-631zM528 768h127q145 0 217 35q95 44 95 170q0 119 -113 162q-64 24 -205 24h-121v-391z" />
<glyph unicode="S" horiz-adv-x="1251" d="M82 475h225l19 -203q143 -47 280 -47q250 0 250 162q0 61 -48.5 99t-162.5 69l-190 49q-353 91 -353 408q0 187 152 309q151 121 424 121q109 0 248 -29q129 -27 182 -74l8 -372h-227l-12 188q-122 35 -222 35q-113 0 -170 -41.5t-57 -108.5q0 -60 37 -98t131 -63 l203 -56q207 -59 293 -154.5t86 -252.5q0 -187 -146 -318q-145 -127 -436 -127q-328 0 -504 135z" />
<glyph unicode="T" horiz-adv-x="1349" d="M47 989l8 422h1239l9 -422h-236l-12 170h-228v-917h170v-242h-657v242h168v917h-213l-12 -170h-236z" />
<glyph unicode="U" horiz-adv-x="1566" d="M33 1169v242h624v-242h-161v-548q0 -192 41 -269q65 -121 264 -121q181 0 258 115q51 74 51 268v555h-172v242h596v-242h-145v-563q0 -267 -78 -395q-69 -111 -207 -175.5t-320 -64.5q-181 0 -320.5 62.5t-211.5 177.5q-76 125 -76 393v565h-143z" />
<glyph unicode="V" horiz-adv-x="1503" d="M6 1169v242h653v-242h-159q213 -562 288 -796q46 139 287 796h-174v242h594v-242h-127l-469 -1169h-295l-465 1169h-133z" />
<glyph unicode="W" horiz-adv-x="2179" d="M23 1169v242h643v-242h-160q138 -519 186 -761q69 277 293 1003h250q232 -730 299 -1003q52 246 192 761h-192v242h623v-242h-134l-344 -1169h-290q-230 742 -295 995q-84 -298 -310 -995h-290l-340 1169h-131z" />
<glyph unicode="X" horiz-adv-x="1564" d="M31 0v242h172l368 489l-323 438h-156v242h631v-242h-94q37 -47 104 -141l68 -92l170 233h-107v242h594v-242h-166l-313 -415l385 -512h168v-242h-649v242h110l-231 303l-223 -303h125v-242h-633z" />
<glyph unicode="Y" horiz-adv-x="1423" d="M6 1169v242h635v-242h-125l221 -376q73 127 228 376h-142v242h594v-242h-151l-400 -626v-301h164v-242h-649v242h166v301l-395 626h-146z" />
<glyph unicode="Z" horiz-adv-x="1325" d="M43 0v180l784 981h-487l-12 -184h-236l8 434h1143v-188l-774 -975h553l14 194h234l-6 -442h-1221z" />
<glyph unicode="[" horiz-adv-x="684" d="M150 -340v1851h493v-161h-258v-1526h258v-164h-493z" />
<glyph unicode="\" horiz-adv-x="856" d="M-12 1497h176l698 -1614h-176z" />
<glyph unicode="]" horiz-adv-x="665" d="M20 -176h256v1526h-256v163h494v-1853h-494v164z" />
<glyph unicode="^" horiz-adv-x="1468" d="M242 573l391 809h203l391 -809h-207l-289 596l-285 -596h-204z" />
<glyph unicode="_" horiz-adv-x="1073" d="M0 -160h1073v-133h-1073v133z" />
<glyph unicode="`" horiz-adv-x="430" d="M-74 1518v8h320l260 -340v-8h-217z" />
<glyph unicode="a" horiz-adv-x="1175" d="M72 299q0 204 204 274q125 41 299 41q77 0 138 -12v27q0 79 -33 112q-46 52 -166 52q-97 0 -198 -33.5t-169 -97.5h-8v256q79 64 199 99.5t237 35.5q219 0 322.5 -95.5t103.5 -306.5v-420h144v-231h-408v121q-36 -71 -119 -109.5t-186 -38.5q-164 0 -262 88.5t-98 237.5z M358 303q0 -55 41 -86t113 -31q61 0 118.5 29t82.5 72v131q-78 10 -107 10q-104 0 -162 -18q-86 -24 -86 -107z" />
<glyph unicode="b" horiz-adv-x="1318" d="M-6 1247v244h440v-610q42 73 137.5 122.5t202.5 49.5q206 0 342 -142q135 -138 135 -393q0 -251 -145 -399q-146 -146 -346 -146q-236 0 -338 150l-6 -123h-277v1247h-145zM434 381q31 -75 101.5 -118.5t158.5 -43.5q119 0 188.5 79.5t69.5 215.5q0 135 -71.5 213 t-188.5 78q-86 0 -157.5 -47.5t-100.5 -126.5v-250z" />
<glyph unicode="c" horiz-adv-x="1107" d="M68 506q0 244 165 393q168 154 420 154q105 0 201 -24.5t145 -65.5v-334h-223l-10 166q-31 8 -86 8q-140 0 -227.5 -77.5t-87.5 -213.5q0 -132 86 -208.5t225 -76.5q200 0 328 113h8v-266q-59 -46 -164 -73.5t-217 -27.5q-243 0 -404 140q-159 138 -159 393z" />
<glyph unicode="d" horiz-adv-x="1361" d="M68 510q0 112 31 204.5t82 154t118 104t136 61.5t138 19q214 0 312 -119v313h-152v244h447v-1258h143v-233h-426v143q-39 -77 -125 -122.5t-205 -45.5q-125 0 -239 54q-116 58 -188 184.5t-72 296.5zM367 514q0 -140 75 -214.5t193 -74.5q88 0 154 42t96 126v258 q-30 78 -94 119t-146 41q-123 0 -200.5 -75.5t-77.5 -221.5z" />
<glyph unicode="e" horiz-adv-x="1163" d="M68 508q0 250 159 397q160 148 391 148q228 0 350.5 -125t127.5 -359q0 -69 -6 -125h-725q14 -100 98.5 -158.5t220.5 -58.5q217 0 367 117h8v-258q-69 -51 -185 -82t-237 -31q-258 0 -416 146q-153 144 -153 389zM367 618h456v11q0 94 -59 145t-156 51 q-91 0 -157.5 -53.5t-83.5 -153.5z" />
<glyph unicode="f" horiz-adv-x="745" d="M43 780v244h162v90q0 193 100 293q115 109 326 109q122 0 198 -43v-240h-8q-62 39 -143 39q-94 0 -139 -45q-41 -41 -41 -133v-70h233v-244h-233v-547h196v-233h-635v233h146v547h-162z" />
<glyph unicode="g" horiz-adv-x="1355" d="M68 512q0 137 47 247.5t125 172.5q155 119 329 119q108 0 190 -37t118 -99v109h428v-244h-146v-641q0 -221 -72 -344q-63 -104 -189 -162.5t-300 -58.5q-268 0 -416 109v282h8q144 -135 394 -135q167 0 237 82q56 62 56 205v63q-40 -72 -122.5 -117t-193.5 -45 q-208 0 -352 123q-141 123 -141 371zM367 518q0 -123 74 -190.5t188 -67.5q173 0 237 150v249q-62 150 -231 150q-117 0 -192.5 -75t-75.5 -216z" />
<glyph unicode="h" horiz-adv-x="1331" d="M43 0v233h147v1014h-147v244h440v-612q43 79 130 124.5t196 45.5q271 0 324 -220q20 -70 20 -223v-373h141v-233h-565v233h131v320q0 111 -18 152q-40 79 -144 79q-69 0 -126.5 -36t-88.5 -99v-416h127v-233h-567z" />
<glyph unicode="i" horiz-adv-x="665" d="M51 0v233h148v547h-148v244h441v-791h141v-233h-582zM170 1331v9q0 94 77 134q40 21 81 21l81 -21q78 -40 78 -136v-7q0 -71 -44.5 -115.5t-114.5 -44.5q-67 0 -112.5 44.5t-45.5 115.5z" />
<glyph unicode="j" horiz-adv-x="618" d="M-111 -141h9q56 -39 135 -39q74 0 104 35q33 33 33 159v766h-145v244h440v-1022q0 -239 -76 -321q-102 -111 -305 -111q-116 0 -195 39v250zM143 1331q0 76 47 119t117 43q65 0 109.5 -43t44.5 -119q0 -71 -45 -115.5t-115 -44.5q-67 0 -112.5 44.5t-45.5 115.5z" />
<glyph unicode="k" horiz-adv-x="1255" d="M43 0v233h147v1014h-147v244h440v-870l187 180v223h501v-244h-210l-148 -137l268 -410h158v-233h-354l-279 442l-123 -110v-99h127v-233h-567z" />
<glyph unicode="l" horiz-adv-x="661" d="M47 0v233h146v1014h-146v244h440v-1258h142v-233h-582z" />
<glyph unicode="m" horiz-adv-x="1966" d="M57 0v233h148v547h-148v244h432v-158q43 84 130 133.5t192 49.5q238 0 303 -183q106 183 340 183q267 0 320 -220q20 -70 20 -223v-373h139v-233h-561v233h127v324q0 115 -14 150q-30 77 -135 77q-143 0 -205 -127q2 -14 2 -77v-347h123v-233h-537v233h119v324 q0 115 -14 150q-30 77 -131 77q-144 0 -209 -133v-418h127v-233h-568z" />
<glyph unicode="n" horiz-adv-x="1339" d="M57 0v233h148v547h-148v244h432v-158q43 85 130.5 134t197.5 49q133 0 217 -58t109 -162q20 -70 20 -223v-373h144v-233h-566v233h127v320q0 122 -18 152q-40 79 -141 79q-68 0 -125 -36t-86 -99v-416h131v-233h-572z" />
<glyph unicode="o" horiz-adv-x="1261" d="M68 512q0 236 161 387q165 154 406 154q250 0 403 -150q156 -150 156 -389q0 -234 -158 -389q-158 -152 -407 -152q-248 0 -406 152q-155 149 -155 387zM367 512q0 -132 74 -211.5t192 -79.5q119 0 190 80q72 84 72 211t-72 211q-70 82 -190 82q-118 0 -192 -82t-74 -211 z" />
<glyph unicode="p" horiz-adv-x="1347" d="M31 -164h137v944h-137v244h422v-160q41 78 135 133q100 56 213 56q202 0 340 -135q139 -136 139 -394q0 -112 -29 -203.5t-77.5 -152.5t-113 -103t-134 -60.5t-142.5 -18.5q-220 0 -323 133v-283h164v-233h-594v233zM461 389q35 -78 107.5 -120t152.5 -42q116 0 188 73 t72 218t-78 217q-76 70 -180 70q-84 0 -157.5 -45.5t-104.5 -128.5v-242z" />
<glyph unicode="q" horiz-adv-x="1372" d="M68 510q0 112 31.5 205t82.5 154.5t118 104.5t135.5 62t137.5 19q227 0 322 -144v113h420v-244h-139v-944h139v-233h-594v233h162v318q-37 -76 -123 -122t-195 -46q-76 0 -146.5 18t-135 59t-112.5 100.5t-76 148.5q-27 86 -27 191v7zM367 514q0 -140 72.5 -210.5 t189.5 -70.5q82 0 152 45.5t98 124.5v246q-58 162 -242 162q-108 0 -191 -74q-79 -70 -79 -223z" />
<glyph unicode="r" horiz-adv-x="913" d="M57 0v233h148v547h-148v244h435v-160q22 78 90 131.5t166 53.5q81 0 129 -31v-283h-9q-61 37 -147 37q-182 0 -223 -151v-388h192v-233h-633z" />
<glyph unicode="s" horiz-adv-x="1050" d="M80 379h223l14 -148q103 -28 199 -28q160 0 160 86q0 43 -29 67t-106 41l-164 35q-281 59 -281 299q0 150 120.5 235t344.5 85q86 0 205 -25q119 -24 160 -57v-293h-219l-11 125q-70 20 -141 20q-156 0 -156 -90q0 -73 109 -94l170 -35q168 -36 235.5 -109.5t67.5 -199.5 q0 -145 -119.5 -232.5t-349.5 -87.5q-124 0 -244 27q-115 26 -182 74z" />
<glyph unicode="t" horiz-adv-x="765" d="M16 780v244h148q0 6 1 37t4 103.5t5 144.5h281v-285h252v-244h-252v-391q0 -88 26 -121q30 -43 115 -43q93 0 141 31h8v-231q-79 -48 -247 -48q-191 0 -267 101q-69 87 -69 258v444h-146z" />
<glyph unicode="u" horiz-adv-x="1312" d="M20 780v244h433v-543q0 -118 20 -162q37 -81 150 -81q147 0 219 124v418h-158v244h451v-791h145v-233h-430v145q-91 -172 -330 -172q-276 0 -338 220q-22 86 -22 235v352h-140z" />
<glyph unicode="v" horiz-adv-x="1226" d="M8 780v244h561v-244h-110q108 -265 176 -448q82 212 184 448h-110v244h510v-244h-127l-359 -780h-254l-352 780h-119z" />
<glyph unicode="w" horiz-adv-x="1730" d="M8 780v244h543v-244h-115q87 -310 113 -420l219 664h231q152 -447 215 -664q38 147 117 420h-121v244h512v-244h-125l-254 -780h-251q-161 477 -224 686q-55 -192 -231 -686h-254l-252 780h-123z" />
<glyph unicode="x" horiz-adv-x="1228" d="M33 0v233h164l215 287l-187 260h-166v244h363l100 -158q116 -185 125 -198q55 83 103 141h-78v215h493v-244h-182l-180 -237l223 -310h176v-233h-377l-264 387l-123 -164h97v-223h-502z" />
<glyph unicode="y" horiz-adv-x="1224" d="M10 780v244h553v-244h-104q121 -305 182 -483q15 40 186 483h-120v244h510v-244h-117l-344 -807q-74 -168 -121 -241q-107 -168 -342 -168q-120 0 -199 43v252h8q60 -45 160 -45q95 0 137 51q36 49 56 115l10 40l-334 760h-121z" />
<glyph unicode="z" horiz-adv-x="1083" d="M55 0v158l559 616h-292l-9 -137h-227l2 387h916v-180q-396 -444 -543 -594h338l8 147h225l-6 -397h-971z" />
<glyph unicode="{" horiz-adv-x="774" d="M31 498v168q126 15 170 71q43 55 43 201v227q0 196 93.5 276.5t297.5 80.5h102v-160h-73q-97 0 -144 -47t-47 -168v-217q0 -102 -13.5 -162t-47.5 -96t-62 -51.5t-92 -36.5q111 -21 163 -99.5t52 -251.5v-217q0 -117 47.5 -164t141.5 -47h75v-157h-98q-215 0 -305 78 t-90 284v213q0 154 -47 207q-47 56 -166 68z" />
<glyph unicode="|" horiz-adv-x="526" d="M150 -377v1944h227v-1944h-227z" />
<glyph unicode="}" horiz-adv-x="747" d="M20 -195h64q97 0 143.5 47t46.5 168v222q0 190 60 256q34 35 62.5 50.5t92.5 37.5q-111 21 -163 99.5t-52 250.5v221q0 117 -47 164t-141 47h-66v158h89q213 0 303 -78t90 -285v-217q0 -155 45 -209q47 -53 166 -65v-168q-125 -15 -170 -72q-41 -53 -41 -201v-229 q0 -197 -92.5 -276.5t-296.5 -79.5h-93v159z" />
<glyph unicode="~" horiz-adv-x="1433" d="M160 549q164 225 342 225q91 0 237 -82q113 -61 191 -61q63 0 111 33t104 116l129 -102q-83 -123 -162 -179.5t-184 -56.5q-107 0 -236 72q-127 74 -192 74q-106 0 -215 -148z" />
<glyph unicode="&#xa1;" horiz-adv-x="636" d="M106 881q0 77 49.5 125.5t125.5 48.5q75 0 124.5 -48t49.5 -126q2 -67 -34 -113t-88.5 -56.5t-104.5 0t-88 56.5t-34 113zM115 -381q0 219 49 924h233q52 -673 52 -924h-334z" />
<glyph unicode="&#xa2;" horiz-adv-x="1107" d="M119 504q0 211 129 352q133 142 338 166v207h116v-203q98 -6 186.5 -30.5t123.5 -59.5l4 -320h-197l-8 158q-60 16 -109 19v-564q195 3 310 109h8v-250q-103 -83 -318 -98v-215h-116v217q-203 18 -336 151q-131 131 -131 361zM401 510q0 -99 49.5 -169t135.5 -97v532 q-185 -59 -185 -266z" />
<glyph unicode="&#xa3;" horiz-adv-x="1282" d="M125 0v176q145 71 204.5 137t59.5 150q0 48 -22 106h-207v170h151q-47 143 -47 246q0 182 135 293q134 113 371 113q258 0 373 -95v-286h-8q-132 123 -320 123q-233 0 -233 -193q0 -76 43 -201h370v-170h-331q12 -53 12 -102q0 -131 -150 -219h482l10 147h213l-4 -395 h-1102z" />
<glyph unicode="&#xa4;" horiz-adv-x="1265" d="M125 276l139 140q-82 101 -82 246q0 135 78 245l-135 140l131 129l135 -140q94 70 240 70q136 0 237 -70l138 140l127 -125l-138 -142q78 -104 78 -241q0 -147 -76 -248l138 -141l-131 -129l-134 139q-109 -68 -249 -68q-131 0 -234 62l-135 -136zM381 668 q0 -121 69.5 -191.5t180.5 -70.5q105 0 174 72t69 186q0 116 -69 188t-174 72q-110 0 -180 -70.5t-70 -185.5z" />
<glyph unicode="&#xa5;" horiz-adv-x="1396" d="M25 1128v234h602v-234h-113q75 -127 199 -354q2 2 84 141q76 132 131 213h-125v234h569v-234h-149l-213 -331h196v-129h-276l-82 -129v-17h358v-129h-358v-160h178v-233h-655v233h174v160h-357v129h357v17l-82 129h-275v129h197l-213 331h-147z" />
<glyph unicode="&#xa6;" horiz-adv-x="526" d="M150 -193v674h227v-674h-227zM150 791v673h227v-673h-227z" />
<glyph unicode="&#xa7;" horiz-adv-x="1099" d="M82 610q0 189 215 254q-78 57 -111.5 119t-33.5 150q0 135 108 237q106 100 322 100q240 0 374 -110v-262h-8q-73 67 -170 104t-186 37q-143 0 -143 -96q0 -40 23.5 -68t88.5 -59l78 -39l88 -41q100 -49 164 -92q73 -49 103 -104.5t30 -135.5q0 -87 -55 -157t-148 -101 q86 -56 120 -114t34 -138q0 -169 -123 -261.5t-344 -92.5q-251 0 -416 127v270h8q189 -160 414 -160q156 0 156 99q0 38 -22.5 63t-90.5 60l-137 67q-111 57 -180 99q-158 96 -158 245zM356 659q0 -60 86 -110q148 -82 213 -105q39 8 69 39.5t30 71.5q0 57 -66 98 q-83 51 -231 115q-38 -5 -69.5 -37t-31.5 -72z" />
<glyph unicode="&#xa8;" horiz-adv-x="430" d="M-113 1350q0 39 15 69.5t39.5 46.5t54 23.5t58.5 0t53.5 -23.5t39.5 -46.5t15 -69.5q0 -63 -37.5 -101.5t-99.5 -38.5q-58 0 -98 39t-40 101zM268 1350q0 66 39 104.5t96 38.5q58 0 99 -38.5t41 -104.5q0 -62 -39.5 -101t-100.5 -39q-58 0 -96.5 39t-38.5 101z" />
<glyph unicode="&#xa9;" horiz-adv-x="1695" d="M104 707q0 311 213 524t529 213q326 0 534 -211q211 -208 211 -526q0 -312 -213 -525q-211 -211 -530 -211q-322 0 -533 211t-211 525zM195 707q0 -282 184 -469q187 -187 469 -187t469 187q186 186 186 469t-186 469q-188 188 -471 188q-280 0 -467 -190 q-184 -187 -184 -467zM408 711q0 207 135 336t334 129q91 0 170 -24t116 -62v-254h-155l-9 143q-46 14 -102 14q-121 0 -201 -74.5t-80 -203.5q0 -133 78.5 -208t204.5 -75q156 0 260 96h8v-188q-116 -90 -301 -90q-196 0 -327 125t-131 336z" />
<glyph unicode="&#xaa;" horiz-adv-x="770" d="M63 784q0 139 127 183q70 24 193 24q50 0 80 -6v12q0 46 -19 68q-26 33 -96 33q-134 0 -223 -74h-8v170q107 76 270 76q133 0 203 -58q67 -58 67 -190v-260h84v-162h-264v68q-55 -88 -182 -88q-105 0 -168.5 55.5t-63.5 148.5zM258 786q0 -67 84 -67q75 0 121 61v76 q-30 6 -60 6q-61 0 -108 -18q-37 -15 -37 -58z" />
<glyph unicode="&#xab;" horiz-adv-x="1019" d="M41 516l283 377h231l-279 -377l281 -377h-231zM453 516l282 377h232l-279 -377l281 -377h-232z" />
<glyph unicode="&#xac;" horiz-adv-x="1433" d="M168 514v178h1065v-620h-180v442h-885z" />
<glyph unicode="&#xad;" horiz-adv-x="661" d="M76 455v219h510v-219h-510z" />
<glyph unicode="&#xae;" horiz-adv-x="1695" d="M104 707q0 311 213 524t529 213q326 0 534 -211q211 -208 211 -526q0 -312 -213 -525q-211 -211 -530 -211q-322 0 -533 211t-211 525zM195 707q0 -282 184 -469q187 -187 469 -187t469 187q186 186 186 469t-186 469q-188 188 -471 188q-280 0 -467 -190 q-184 -187 -184 -467zM459 274v146h98v579h-98v148h415q140 0 216 -29q141 -58 141 -237q0 -172 -166 -242l125 -219h106v-146h-235l-180 330q-23 -2 -142 -2v-182h90v-146h-370zM739 754h80q115 0 158 18q63 23 63 102q0 86 -71 107q-24 8 -133 8h-97v-235z" />
<glyph unicode="&#xaf;" horiz-adv-x="430" d="M-102 1221v184h634v-184h-634z" />
<glyph unicode="&#xb0;" horiz-adv-x="636" d="M39 1176q0 124 80 203t203 79q122 0 198 -78t76 -202q0 -119 -82 -201q-79 -82 -199 -82q-118 0 -198 80q-78 81 -78 201zM152 1176q0 -76 44 -126.5t121 -50.5q56 -4 97.5 29.5t57 82.5t7.5 103.5t-43 88.5q-46 49 -121 49q-74 0 -118.5 -48.5t-44.5 -127.5z" />
<glyph unicode="&#xb1;" horiz-adv-x="1433" d="M184 0v176h1065v-176h-1065zM184 733v178h443v424h182v-424h440v-178h-440v-428h-180v428h-445z" />
<glyph unicode="&#xb2;" horiz-adv-x="843" d="M70 819v109q160 117 309 260q102 94 102 190q0 125 -137 125q-133 0 -246 -110h-8v178q116 110 299 110q149 0 229 -72t80 -196q0 -138 -135 -270q-103 -100 -198 -162h120q57 2 133 2l11 107h149l-6 -271h-702z" />
<glyph unicode="&#xb3;" horiz-adv-x="843" d="M113 864v197h8q104 -84 248 -84q149 0 149 98q0 57 -69 78q-41 14 -146 14h-29v162h48q84 0 124 19q48 22 48 77q0 78 -117 78q-143 0 -238 -86h-8v178q112 86 279 86q309 0 309 -227q0 -67 -47 -119t-131 -75q103 -13 156 -64.5t53 -132.5q0 -125 -97.5 -193.5 t-275.5 -68.5q-164 0 -264 63z" />
<glyph unicode="&#xb4;" horiz-adv-x="430" d="M-74 1178v8l260 340h306v-8l-349 -340h-217z" />
<glyph unicode="&#xb5;" horiz-adv-x="1241" d="M133 -432v1454h293v-545q0 -110 23 -158q35 -77 145 -77q154 0 221 125v655h293v-1022h-285v143q-65 -151 -239 -151q-110 0 -156 55v-479h-295z" />
<glyph unicode="&#xb6;" horiz-adv-x="1165" d="M86 911q0 241 151.5 370.5t462.5 129.5h312v-1706h-103v1608h-209v-1608h-102v739q-238 0 -375 131t-137 336z" />
<glyph unicode="&#xb7;" horiz-adv-x="526" d="M90 537q0 82 51 129t123 47q73 0 124.5 -47t51.5 -129q0 -79 -50 -128t-126 -49q-75 0 -124.5 49.5t-49.5 127.5z" />
<glyph unicode="&#xb8;" horiz-adv-x="430" d="M-6 -356h8q61 -37 133 -37q111 0 111 76q0 73 -111 73q-57 0 -82 -14l-6 2l80 276h139l-45 -139h8q97 0 151 -50.5t54 -141.5q0 -110 -75 -169t-212 -59q-94 0 -153 39v144z" />
<glyph unicode="&#xb9;" horiz-adv-x="843" d="M172 1356v186l231 125h166v-682h148v-166h-524v166h165v471z" />
<glyph unicode="&#xba;" horiz-adv-x="817" d="M49 930q0 158 111 250q112 92 248 92q148 0 251 -86t103 -252q0 -170 -109 -262q-110 -90 -252 -90q-140 0 -247 88q-105 88 -105 260zM254 930q-5 -104 74.5 -147t158.5 0.5t74 148.5q0 77 -42.5 119.5t-112.5 42.5q-65 0 -108.5 -44t-43.5 -120z" />
<glyph unicode="&#xbb;" horiz-adv-x="1019" d="M51 893h232l284 -377l-282 -377h-232l279 377zM463 893h231l285 -377l-283 -377h-231l278 377z" />
<glyph unicode="&#xbc;" horiz-adv-x="1816" d="M160 1055v186l231 125h166v-682h148v-166h-525v166h166v471zM516 -25l690 1422h144l-688 -1422h-146zM958 203v125l426 524h170v-490h134v-159h-134v-203h-200v203h-396zM1157 362h197q0 76 4 256q-55 -81 -201 -256z" />
<glyph unicode="&#xbd;" horiz-adv-x="1816" d="M131 1055v186l231 125h166v-682h148v-166h-524v166h165v471zM483 -25l691 1422h143l-688 -1422h-146zM1059 0v109q160 117 309 260q102 94 102 190q0 125 -137 125q-132 0 -246 -111h-8v179q116 110 299 110q149 0 229.5 -72t80.5 -196q0 -137 -136 -270 q-103 -100 -198 -162h121q57 2 133 2l10 106h149l-6 -270h-702z" />
<glyph unicode="&#xbe;" horiz-adv-x="1816" d="M121 563v197h8q104 -84 248 -84q149 0 149 98q0 57 -69 78q-41 14 -146 14h-28v162h47q85 0 125 19q47 21 47 77q0 78 -117 78q-143 0 -238 -86h-8v178q112 86 279 86q309 0 309 -227q0 -67 -47 -119.5t-131 -75.5q103 -13 156 -64t53 -132q0 -125 -97.5 -193.5 t-275.5 -68.5q-164 0 -264 63zM520 -25l690 1422h144l-688 -1422h-146zM969 203v125l426 524h170v-490h133v-159h-133v-203h-201v203h-395zM1167 362h197q0 76 4 256q-55 -81 -201 -256z" />
<glyph unicode="&#xbf;" horiz-adv-x="927" d="M33 -53q0 113 56.5 203t195.5 184q61 42 86.5 93.5t27.5 127.5h236q-2 -122 -24.5 -184.5t-94.5 -120.5q-91 -69 -127.5 -121.5t-36.5 -112.5q0 -151 195 -151q158 0 282 106h9v-266q-64 -55 -166 -84q-100 -33 -193 -33q-215 0 -330.5 91.5t-115.5 267.5zM344 881 q0 77 49 125.5t125 48.5q75 0 124.5 -48t49.5 -126q0 -82 -51 -130.5t-123 -48.5q-73 0 -123.5 48t-50.5 131z" />
<glyph unicode="&#xc0;" horiz-adv-x="1513" d="M8 0v242h127l467 1169h307l467 -1169h129v-242h-633v242h160l-57 143h-483l-58 -143h178v-242h-604zM342 1808v9h344l305 -273v-8h-248zM565 623h330q-116 304 -160 438z" />
<glyph unicode="&#xc1;" horiz-adv-x="1513" d="M8 0v242h127l467 1169h307l467 -1169h129v-242h-633v242h160l-57 143h-483l-58 -143h178v-242h-604zM551 1536v8l305 273h344v-9l-401 -272h-248zM565 623h330q-116 304 -160 438z" />
<glyph unicode="&#xc2;" horiz-adv-x="1513" d="M8 0v242h127l467 1169h307l467 -1169h129v-242h-633v242h160l-57 143h-483l-58 -143h178v-242h-604zM352 1536v8l305 275h179l305 -275v-8h-238l-162 113l-151 -113h-238zM565 623h330q-116 304 -160 438z" />
<glyph unicode="&#xc3;" horiz-adv-x="1513" d="M8 0v242h127l467 1169h307l467 -1169h129v-242h-633v242h160l-57 143h-483l-58 -143h178v-242h-604zM369 1536q7 143 68 217t163 74q55 0 172 -60q74 -41 115 -41q30 0 45 22t22 81h170q-7 -143 -65 -218t-154 -75q-77 0 -176 51q-96 47 -121 47q-58 0 -67 -98h-172z M565 623h330q-116 304 -160 438z" />
<glyph unicode="&#xc4;" horiz-adv-x="1513" d="M8 0v242h127l467 1169h307l467 -1169h129v-242h-633v242h160l-57 143h-483l-58 -143h178v-242h-604zM416 1671q0 45 20.5 78.5t50.5 48.5t66 15t66 -15t50.5 -48.5t20.5 -78.5q0 -62 -38 -100.5t-99 -38.5q-58 0 -97.5 38.5t-39.5 100.5zM565 623h330q-116 304 -160 438z M813 1671q0 45 20.5 78.5t50.5 48.5t66 15t66 -15t50.5 -48.5t20.5 -78.5q0 -62 -38 -100.5t-99 -38.5q-58 0 -97.5 38.5t-39.5 100.5z" />
<glyph unicode="&#xc5;" horiz-adv-x="1513" d="M8 0v242h127l467 1169h307l467 -1169h129v-242h-633v242h160l-57 143h-483l-58 -143h178v-242h-604zM535 1673q0 90 61 146.5t154 56.5q92 0 149 -56t57 -147q0 -84 -61.5 -142t-149.5 -58q-91 0 -150.5 57t-59.5 143zM565 623h330q-116 304 -160 438zM635 1673 q0 -46 31.5 -77t83.5 -31q47 0 75.5 31t28.5 79q0 49 -30.5 79t-78.5 30q-49 0 -79.5 -30.5t-30.5 -80.5z" />
<glyph unicode="&#xc6;" horiz-adv-x="2064" d="M4 0v242h123l600 927h-178v242h1390l13 -399h-238l-12 153h-371v-315h455v-250h-455v-354h420l12 172h238l-10 -418h-1129v242h150v151h-445l-104 -151h160v-242h-619zM692 625h320v508q-81 -140 -320 -508z" />
<glyph unicode="&#xc7;" horiz-adv-x="1431" d="M84 707q0 335 227 534q230 201 543 201q137 0 260.5 -32.5t190.5 -86.5l8 -387h-238l-16 225q-95 29 -174 29q-206 0 -340 -125q-135 -123 -135 -352q0 -233 131.5 -355t357.5 -122q240 0 399 126h9v-272q-162 -119 -463 -119q-3 0 -14.5 1t-14.5 1l-31 -96h9 q99 0 153.5 -54.5t54.5 -148.5q0 -110 -75 -168.5t-215 -58.5q-100 0 -156 39v147h8q59 -39 142 -39q106 0 106 78t-113 78q-47 0 -84 -16l-6 2l72 250q-265 46 -432 237q-164 191 -164 484z" />
<glyph unicode="&#xc8;" horiz-adv-x="1253" d="M55 0v242h154v927h-154v242h1075l9 -399h-238l-10 151h-363v-309h447v-252h-447v-356h414l12 174h236l-8 -420h-1127zM186 1808v9h344l306 -273v-8h-248z" />
<glyph unicode="&#xc9;" horiz-adv-x="1253" d="M55 0v242h154v927h-154v242h1075l9 -399h-238l-10 151h-363v-309h447v-252h-447v-356h414l12 174h236l-8 -420h-1127zM422 1536v8l305 273h344v-9l-401 -272h-248z" />
<glyph unicode="&#xca;" horiz-adv-x="1253" d="M55 0v242h154v927h-154v242h1075l9 -399h-238l-10 151h-363v-309h447v-252h-447v-356h414l12 174h236l-8 -420h-1127zM231 1536v8l306 275h178l305 -275v-8h-238l-161 113l-152 -113h-238z" />
<glyph unicode="&#xcb;" horiz-adv-x="1253" d="M55 0v242h154v927h-154v242h1075l9 -399h-238l-10 151h-363v-309h447v-252h-447v-356h414l12 174h236l-8 -420h-1127zM297 1671q0 45 20.5 78.5t50.5 48.5t66 15t66 -15t50.5 -48.5t20.5 -78.5q0 -62 -38 -100.5t-99 -38.5q-58 0 -97.5 38.5t-39.5 100.5zM694 1671 q0 39 15 69.5t39.5 46.5t54 23.5t58.5 0t53.5 -23.5t39.5 -46.5t15 -69.5q0 -62 -38.5 -100.5t-99.5 -38.5q-58 0 -97.5 38.5t-39.5 100.5z" />
<glyph unicode="&#xcc;" horiz-adv-x="737" d="M-49 1808v9h344l305 -273v-8h-248zM55 0v242h154v927h-154v242h629v-242h-156v-927h156v-242h-629z" />
<glyph unicode="&#xcd;" horiz-adv-x="737" d="M55 0v242h154v927h-154v242h629v-242h-156v-927h156v-242h-629zM150 1536v8l305 273h344v-9l-402 -272h-247z" />
<glyph unicode="&#xce;" horiz-adv-x="737" d="M-27 1536v8l306 275h178l305 -275v-8h-238l-162 113l-151 -113h-238zM55 0v242h154v927h-154v242h629v-242h-156v-927h156v-242h-629z" />
<glyph unicode="&#xcf;" horiz-adv-x="737" d="M31 1671q0 39 15 69.5t39.5 46.5t53.5 23.5t58 0t53.5 -23.5t39.5 -46.5t15 -69.5q0 -62 -38 -100.5t-99 -38.5q-58 0 -97.5 38.5t-39.5 100.5zM55 0v242h154v927h-154v242h629v-242h-156v-927h156v-242h-629zM428 1671q0 45 20.5 78.5t50.5 48.5t66 15t66 -15 t50.5 -48.5t20.5 -78.5q0 -62 -38 -100.5t-99 -38.5q-58 0 -97.5 38.5t-39.5 100.5z" />
<glyph unicode="&#xd0;" horiz-adv-x="1570" d="M53 623v213h156v333h-154v242h551q309 0 455 -51q426 -138 426 -633q0 -509 -438 -661q-195 -66 -482 -66h-512v242h154v381h-156zM524 250h109q229 0 348 76q180 119 180 395q0 277 -215 385q-110 55 -297 55h-125v-325h307v-213h-307v-373z" />
<glyph unicode="&#xd1;" horiz-adv-x="1607" d="M55 0v242h154v927h-154v242h510q431 -648 555 -870q-10 218 -10 628h-149v242h610v-242h-152v-1169h-321q-474 757 -584 967q6 -279 6 -725h158v-242h-623zM446 1536q7 143 68.5 217t163.5 74q55 0 172 -60q74 -41 115 -41q30 0 45 22t22 81h170q-7 -143 -65 -218 t-154 -75q-77 0 -176 51q-96 47 -121 47q-59 0 -68 -98h-172z" />
<glyph unicode="&#xd2;" horiz-adv-x="1648" d="M84 707q0 314 213 524q214 211 532 211q331 0 533 -205q203 -206 203 -530q0 -320 -209 -529q-210 -207 -535 -207q-320 0 -530 207q-207 207 -207 529zM410 707q0 -220 118 -347q120 -129 301 -129q186 0 299 131t113 345q0 211 -113 342q-115 133 -301 133 q-180 0 -301 -133q-116 -131 -116 -342zM432 1808v9h344l305 -273v-8h-247z" />
<glyph unicode="&#xd3;" horiz-adv-x="1648" d="M84 707q0 314 213 524q214 211 532 211q331 0 533 -205q203 -206 203 -530q0 -320 -209 -529q-210 -207 -535 -207q-320 0 -530 207q-207 207 -207 529zM410 707q0 -220 118 -347q120 -129 301 -129q186 0 299 131t113 345q0 211 -113 342q-115 133 -301 133 q-180 0 -301 -133q-116 -131 -116 -342zM625 1536v8l305 273h344v-9l-402 -272h-247z" />
<glyph unicode="&#xd4;" horiz-adv-x="1648" d="M84 707q0 314 213 524q214 211 532 211q331 0 533 -205q203 -206 203 -530q0 -320 -209 -529q-210 -207 -535 -207q-320 0 -530 207q-207 207 -207 529zM410 707q0 -220 118 -347q120 -129 301 -129q186 0 299 131t113 345q0 211 -113 342q-115 133 -301 133 q-180 0 -301 -133q-116 -131 -116 -342zM444 1536v8l306 275h178l305 -275v-8h-238l-161 113l-152 -113h-238z" />
<glyph unicode="&#xd5;" horiz-adv-x="1648" d="M84 707q0 314 213 524q214 211 532 211q331 0 533 -205q203 -206 203 -530q0 -320 -209 -529q-210 -207 -535 -207q-320 0 -530 207q-207 207 -207 529zM410 707q0 -220 118 -347q120 -129 301 -129q186 0 299 131t113 345q0 211 -113 342q-115 133 -301 133 q-180 0 -301 -133q-116 -131 -116 -342zM455 1536q7 143 68 217t163 74q55 0 172 -60q74 -41 115 -41q30 0 45 22t22 81h170q-7 -143 -65 -218t-154 -75q-77 0 -176 51q-96 47 -121 47q-58 0 -67 -98h-172z" />
<glyph unicode="&#xd6;" horiz-adv-x="1648" d="M84 707q0 314 213 524q214 211 532 211q331 0 533 -205q203 -206 203 -530q0 -320 -209 -529q-210 -207 -535 -207q-320 0 -530 207q-207 207 -207 529zM410 707q0 -220 118 -347q120 -129 301 -129q186 0 299 131t113 345q0 211 -113 342q-115 133 -301 133 q-180 0 -301 -133q-116 -131 -116 -342zM496 1671q0 45 20.5 78.5t50.5 48.5t66 15t66 -15t50.5 -48.5t20.5 -78.5q0 -61 -38.5 -100t-98.5 -39q-58 0 -97.5 38.5t-39.5 100.5zM893 1671q0 39 15 69.5t39.5 46.5t53.5 23.5t58 0t53.5 -23.5t39.5 -46.5t15 -69.5 q0 -61 -38.5 -100t-98.5 -39q-58 0 -97.5 38.5t-39.5 100.5z" />
<glyph unicode="&#xd7;" horiz-adv-x="1468" d="M260 961l131 135l344 -346l348 344l125 -131l-346 -345l342 -337l-127 -136l-346 340l-342 -344l-125 131l344 344z" />
<glyph unicode="&#xd8;" horiz-adv-x="1648" d="M84 707q0 314 213 524q214 211 532 211q181 0 332 -68l90 139h187l-142 -219q129 -99 199 -250.5t70 -336.5q0 -320 -209 -529q-210 -207 -535 -207q-187 0 -336 70l-84 -131h-182l135 211q-129 101 -199.5 252.5t-70.5 333.5zM410 707q0 -210 106 -334l494 766 q-85 43 -183 43q-180 0 -301 -133q-116 -131 -116 -342zM637 274q85 -43 192 -43q186 0 299 131t113 345q0 203 -108 335z" />
<glyph unicode="&#xd9;" horiz-adv-x="1566" d="M33 1169v242h624v-242h-161v-548q0 -192 41 -269q65 -121 264 -121q181 0 258 115q51 74 51 268v555h-172v242h596v-242h-145v-563q0 -267 -78 -395q-69 -111 -207 -175.5t-320 -64.5q-181 0 -320.5 62.5t-211.5 177.5q-76 125 -76 393v565h-143zM373 1808v9h344 l305 -273v-8h-248z" />
<glyph unicode="&#xda;" horiz-adv-x="1566" d="M33 1169v242h624v-242h-161v-548q0 -192 41 -269q65 -121 264 -121q181 0 258 115q51 74 51 268v555h-172v242h596v-242h-145v-563q0 -267 -78 -395q-69 -111 -207 -175.5t-320 -64.5q-181 0 -320.5 62.5t-211.5 177.5q-76 125 -76 393v565h-143zM571 1536v8l306 273h344 v-9l-402 -272h-248z" />
<glyph unicode="&#xdb;" horiz-adv-x="1566" d="M33 1169v242h624v-242h-161v-548q0 -192 41 -269q65 -121 264 -121q181 0 258 115q51 74 51 268v555h-172v242h596v-242h-145v-563q0 -267 -78 -395q-69 -111 -207 -175.5t-320 -64.5q-181 0 -320.5 62.5t-211.5 177.5q-76 125 -76 393v565h-143zM408 1536v8l305 275h178 l305 -275v-8h-238l-161 113l-152 -113h-237z" />
<glyph unicode="&#xdc;" horiz-adv-x="1566" d="M33 1169v242h624v-242h-161v-548q0 -192 41 -269q65 -121 264 -121q181 0 258 115q51 74 51 268v555h-172v242h596v-242h-145v-563q0 -267 -78 -395q-69 -111 -207 -175.5t-320 -64.5q-181 0 -320.5 62.5t-211.5 177.5q-76 125 -76 393v565h-143zM465 1671 q0 45 20.5 78.5t50.5 48.5t66 15t66 -15t50.5 -48.5t20.5 -78.5q0 -62 -38 -100.5t-99 -38.5q-58 0 -97.5 38.5t-39.5 100.5zM862 1671q0 39 15 69.5t39.5 46.5t54 23.5t58.5 0t53.5 -23.5t39.5 -46.5t15 -69.5q0 -62 -38.5 -100.5t-99.5 -38.5q-58 0 -97.5 38.5 t-39.5 100.5z" />
<glyph unicode="&#xdd;" horiz-adv-x="1423" d="M6 1169v242h635v-242h-125l221 -376q73 127 228 376h-142v242h594v-242h-151l-400 -626v-301h164v-242h-649v242h166v301l-395 626h-146zM539 1536v8l305 273h344v-9l-402 -272h-247z" />
<glyph unicode="&#xde;" horiz-adv-x="1404" d="M55 0v242h131v927h-131v242h586v-242h-137v-65h194q239 0 349 -35q127 -42 189 -127t62 -225q0 -258 -258 -352q-116 -46 -352 -46h-184v-77h164v-242h-613zM504 551h215q117 0 180 29q74 35 74 131q0 90 -78 125q-55 22 -172 22h-219v-307z" />
<glyph unicode="&#xdf;" horiz-adv-x="1316" d="M29 0v233h135v676q0 268 76 387q137 220 448 220q229 0 340 -111q113 -110 113 -270q0 -278 -256 -367q173 -11 269.5 -110.5t96.5 -276.5q0 -183 -112 -295q-113 -113 -308 -113q-168 0 -274 62v250h8q87 -66 213 -66q84 0 130 48.5t46 135.5q0 116 -75 167t-238 51h-31 v245h29q103 0 159 59.5t56 161.5q0 85 -49 135t-129 50q-113 0 -170 -72q-49 -61 -49 -248v-952h-428z" />
<glyph unicode="&#xe0;" horiz-adv-x="1175" d="M76 299q0 204 205 274q125 41 299 41q76 0 137 -12v27q0 79 -33 112q-46 52 -166 52q-97 0 -197.5 -33.5t-168.5 -97.5h-9v256q79 64 199.5 99.5t237.5 35.5q219 0 322.5 -95.5t103.5 -306.5v-420h143v-231h-408v121q-36 -71 -119 -109.5t-186 -38.5q-164 0 -262 88.5 t-98 237.5zM184 1518v8h320l260 -340v-8h-217zM362 303q0 -55 41 -86t113 -31q61 0 118.5 29t82.5 72v131q-78 10 -107 10q-102 0 -161 -18q-87 -24 -87 -107z" />
<glyph unicode="&#xe1;" horiz-adv-x="1175" d="M76 299q0 204 205 274q125 41 299 41q76 0 137 -12v27q0 79 -33 112q-46 52 -166 52q-97 0 -197.5 -33.5t-168.5 -97.5h-9v256q79 64 199.5 99.5t237.5 35.5q219 0 322.5 -95.5t103.5 -306.5v-420h143v-231h-408v121q-36 -71 -119 -109.5t-186 -38.5q-164 0 -262 88.5 t-98 237.5zM362 303q0 -55 41 -86t113 -31q61 0 118.5 29t82.5 72v131q-78 10 -107 10q-102 0 -161 -18q-87 -24 -87 -107zM387 1178v8l260 340h305v-8l-348 -340h-217z" />
<glyph unicode="&#xe2;" horiz-adv-x="1175" d="M76 299q0 204 205 274q125 41 299 41q76 0 137 -12v27q0 79 -33 112q-46 52 -166 52q-97 0 -197.5 -33.5t-168.5 -97.5h-9v256q79 64 199.5 99.5t237.5 35.5q219 0 322.5 -95.5t103.5 -306.5v-420h143v-231h-408v121q-36 -71 -119 -109.5t-186 -38.5q-164 0 -262 88.5 t-98 237.5zM209 1178v8l278 334h162l283 -334v-8h-215l-154 143l-145 -143h-209zM362 303q0 -55 41 -86t113 -31q61 0 118.5 29t82.5 72v131q-78 10 -107 10q-102 0 -161 -18q-87 -24 -87 -107z" />
<glyph unicode="&#xe3;" horiz-adv-x="1175" d="M76 299q0 204 205 274q125 41 299 41q76 0 137 -12v27q0 79 -33 112q-46 52 -166 52q-97 0 -197.5 -33.5t-168.5 -97.5h-9v256q79 64 199.5 99.5t237.5 35.5q219 0 322.5 -95.5t103.5 -306.5v-420h143v-231h-408v121q-36 -71 -119 -109.5t-186 -38.5q-164 0 -262 88.5 t-98 237.5zM217 1204q7 144 66.5 221.5t154.5 77.5q63 0 166 -59q76 -43 109 -43q30 0 43.5 22t19.5 82h166q-6 -146 -61.5 -223.5t-147.5 -77.5q-78 0 -170 51q-91 48 -114 48q-55 0 -64 -99h-168zM362 303q0 -55 41 -86t113 -31q61 0 118.5 29t82.5 72v131q-78 10 -107 10 q-102 0 -161 -18q-87 -24 -87 -107z" />
<glyph unicode="&#xe4;" horiz-adv-x="1175" d="M76 299q0 204 205 274q125 41 299 41q76 0 137 -12v27q0 79 -33 112q-46 52 -166 52q-97 0 -197.5 -33.5t-168.5 -97.5h-9v256q79 64 199.5 99.5t237.5 35.5q219 0 322.5 -95.5t103.5 -306.5v-420h143v-231h-408v121q-36 -71 -119 -109.5t-186 -38.5q-164 0 -262 88.5 t-98 237.5zM250 1350q0 45 20.5 78.5t50.5 48.5t66 15t66 -15t50.5 -48.5t20.5 -78.5q0 -63 -38.5 -101.5t-98.5 -38.5q-58 0 -97.5 39t-39.5 101zM362 303q0 -55 41 -86t113 -31q61 0 118.5 29t82.5 72v131q-78 10 -107 10q-102 0 -161 -18q-87 -24 -87 -107zM631 1350 q0 66 39 104.5t96 38.5q58 0 98.5 -38.5t40.5 -104.5q0 -62 -39 -101t-100 -39q-58 0 -96.5 39t-38.5 101z" />
<glyph unicode="&#xe5;" horiz-adv-x="1175" d="M76 299q0 204 205 274q125 41 299 41q76 0 137 -12v27q0 79 -33 112q-46 52 -166 52q-97 0 -197.5 -33.5t-168.5 -97.5h-9v256q79 64 199.5 99.5t237.5 35.5q219 0 322.5 -95.5t103.5 -306.5v-420h143v-231h-408v121q-36 -71 -119 -109.5t-186 -38.5q-164 0 -262 88.5 t-98 237.5zM362 303q0 -55 41 -86t113 -31q61 0 118.5 29t82.5 72v131q-78 10 -107 10q-102 0 -161 -18q-87 -24 -87 -107zM365 1372q0 92 62.5 150.5t156.5 58.5t153.5 -58.5t59.5 -150.5q0 -88 -63 -148.5t-154 -60.5t-153 60.5t-62 148.5zM467 1372q0 -51 31.5 -84 t85.5 -33q48 0 78 34t30 85t-31.5 84t-80.5 33t-81 -34t-32 -85z" />
<glyph unicode="&#xe6;" horiz-adv-x="1759" d="M74 295q0 106 54.5 177.5t145.5 102.5q121 41 301 41q65 0 127 -12v41q0 75 -32 107q-43 49 -160 49q-199 0 -342 -113h-8v244q168 121 397 121q247 0 330 -129q56 61 147 95t189 34q228 0 348 -124t125 -358q0 -85 -8 -129h-707q7 -103 90.5 -163t212.5 -60 q208 0 363 119h10v-252q-152 -113 -412 -113q-264 0 -414 156q-141 -156 -389 -156q-165 0 -266.5 87.5t-101.5 234.5zM360 303q0 -55 39.5 -87t108.5 -32q144 0 229 99q-17 38 -28 135q-31 8 -111 8q-98 0 -156 -18q-82 -27 -82 -105zM981 618h440v17q0 93 -54.5 142.5 t-152.5 49.5q-87 0 -154.5 -55.5t-78.5 -153.5z" />
<glyph unicode="&#xe7;" horiz-adv-x="1107" d="M68 506q0 244 165 393q168 154 420 154q105 0 201 -24.5t145 -65.5v-334h-223l-10 166q-31 8 -86 8q-140 0 -227.5 -77.5t-87.5 -213.5q0 -132 86 -208.5t225 -76.5q200 0 328 113h8v-266q-124 -98 -373 -101l-29 -92h8q97 0 151 -50.5t54 -141.5q0 -110 -74.5 -169 t-211.5 -59q-95 0 -154 39v144h8q61 -37 133 -37q111 0 111 76q0 73 -111 73q-57 0 -82 -14l-6 2l70 240q-202 36 -320 171.5t-118 350.5z" />
<glyph unicode="&#xe8;" horiz-adv-x="1163" d="M68 508q0 250 159 397q160 148 391 148q228 0 350.5 -125t127.5 -359q0 -69 -6 -125h-725q14 -100 98.5 -158.5t220.5 -58.5q217 0 367 117h8v-258q-69 -51 -185 -82t-237 -31q-258 0 -416 146q-153 144 -153 389zM246 1518v8h319l260 -340v-8h-217zM367 618h456v11 q0 94 -59 145t-156 51q-91 0 -157.5 -53.5t-83.5 -153.5z" />
<glyph unicode="&#xe9;" horiz-adv-x="1163" d="M68 508q0 250 159 397q160 148 391 148q228 0 350.5 -125t127.5 -359q0 -69 -6 -125h-725q14 -100 98.5 -158.5t220.5 -58.5q217 0 367 117h8v-258q-69 -51 -185 -82t-237 -31q-258 0 -416 146q-153 144 -153 389zM367 618h456v11q0 94 -59 145t-156 51 q-91 0 -157.5 -53.5t-83.5 -153.5zM430 1178v8l260 340h305v-8l-348 -340h-217z" />
<glyph unicode="&#xea;" horiz-adv-x="1163" d="M68 508q0 250 159 397q160 148 391 148q228 0 350.5 -125t127.5 -359q0 -69 -6 -125h-725q14 -100 98.5 -158.5t220.5 -58.5q217 0 367 117h8v-258q-69 -51 -185 -82t-237 -31q-258 0 -416 146q-153 144 -153 389zM248 1178v8l278 334h162l283 -334v-8h-215l-154 143 l-145 -143h-209zM367 618h456v11q0 94 -59 145t-156 51q-91 0 -157.5 -53.5t-83.5 -153.5z" />
<glyph unicode="&#xeb;" horiz-adv-x="1163" d="M68 508q0 250 159 397q160 148 391 148q228 0 350.5 -125t127.5 -359q0 -69 -6 -125h-725q14 -100 98.5 -158.5t220.5 -58.5q217 0 367 117h8v-258q-69 -51 -185 -82t-237 -31q-258 0 -416 146q-153 144 -153 389zM287 1350q0 45 20.5 78.5t50.5 48.5t66 15t66 -15 t50.5 -48.5t20.5 -78.5q0 -63 -38.5 -101.5t-98.5 -38.5q-58 0 -97.5 39t-39.5 101zM367 618h456v11q0 94 -59 145t-156 51q-91 0 -157.5 -53.5t-83.5 -153.5zM668 1350q0 66 39 104.5t96 38.5q58 0 98.5 -38.5t40.5 -104.5q0 -62 -39 -101t-100 -39q-58 0 -96.5 39 t-38.5 101z" />
<glyph unicode="&#xec;" horiz-adv-x="665" d="M-88 1518v8h319l261 -340v-8h-218zM47 0v233h148v547h-148v244h440v-791h142v-233h-582z" />
<glyph unicode="&#xed;" horiz-adv-x="665" d="M47 0v233h148v547h-148v244h440v-791h142v-233h-582zM113 1178v8l260 340h305v-8l-348 -340h-217z" />
<glyph unicode="&#xee;" horiz-adv-x="665" d="M-53 1178v8l278 334h162l283 -334v-8h-215l-154 143l-145 -143h-209zM47 0v233h148v547h-148v244h440v-791h142v-233h-582z" />
<glyph unicode="&#xef;" horiz-adv-x="665" d="M-20 1350q0 45 20.5 78.5t50.5 48.5t66 15t66 -15t50.5 -48.5t20.5 -78.5q0 -63 -38.5 -101.5t-98.5 -38.5q-58 0 -97.5 39t-39.5 101zM47 0v233h148v547h-148v244h440v-791h142v-233h-582zM360 1350q0 66 39.5 104.5t96.5 38.5q58 0 98.5 -38.5t40.5 -104.5 q0 -62 -39 -101t-100 -39q-58 0 -97 39t-39 101z" />
<glyph unicode="&#xf0;" horiz-adv-x="1263" d="M68 514q0 102 31.5 187t83.5 141.5t120 96t140 57.5t145 18q74 0 148 -26t110 -73q-27 125 -152 250l-227 -133v187l98 55q-75 51 -174 84l84 186q175 -48 309 -137l228 135v-184l-99 -55q279 -273 279 -725q0 -124 -31 -225.5t-84 -171t-125.5 -117t-154 -69.5 t-170.5 -22q-84 0 -162.5 19t-151.5 61t-127 103.5t-86 153.5t-32 204zM367 510q0 -142 74 -216.5t190 -74.5t189 74.5t73 216.5q0 140 -72.5 211.5t-191.5 71.5q-113 0 -187.5 -75.5t-74.5 -207.5z" />
<glyph unicode="&#xf1;" horiz-adv-x="1339" d="M57 0v233h148v547h-148v244h432v-158q43 85 130.5 134t197.5 49q133 0 217 -58t109 -162q20 -70 20 -223v-373h144v-233h-566v233h127v320q0 122 -18 152q-40 79 -141 79q-68 0 -125 -36t-86 -99v-416h131v-233h-572zM311 1204q7 144 66.5 221.5t154.5 77.5q63 0 166 -59 q76 -43 109 -43q30 0 43.5 22t19.5 82h166q-6 -146 -61.5 -223.5t-147.5 -77.5q-78 0 -170 51q-91 48 -114 48q-55 0 -64 -99h-168z" />
<glyph unicode="&#xf2;" horiz-adv-x="1261" d="M68 512q0 236 161 387q165 154 406 154q250 0 403 -150q156 -150 156 -389q0 -234 -158 -389q-158 -152 -407 -152q-248 0 -406 152q-155 149 -155 387zM252 1518v8h319l260 -340v-8h-217zM367 512q0 -132 74 -211.5t192 -79.5q119 0 190 80q72 84 72 211t-72 211 q-70 82 -190 82q-118 0 -192 -82t-74 -211z" />
<glyph unicode="&#xf3;" horiz-adv-x="1261" d="M68 512q0 236 161 387q165 154 406 154q250 0 403 -150q156 -150 156 -389q0 -234 -158 -389q-158 -152 -407 -152q-248 0 -406 152q-155 149 -155 387zM367 512q0 -132 74 -211.5t192 -79.5q119 0 190 80q72 84 72 211t-72 211q-70 82 -190 82q-118 0 -192 -82t-74 -211 zM449 1178v8l260 340h305v-8l-348 -340h-217z" />
<glyph unicode="&#xf4;" horiz-adv-x="1261" d="M68 512q0 236 161 387q165 154 406 154q250 0 403 -150q156 -150 156 -389q0 -234 -158 -389q-158 -152 -407 -152q-248 0 -406 152q-155 149 -155 387zM279 1178v8l278 334h162l282 -334v-8h-215l-153 143l-146 -143h-208zM367 512q0 -132 74 -211.5t192 -79.5 q119 0 190 80q72 84 72 211t-72 211q-70 82 -190 82q-118 0 -192 -82t-74 -211z" />
<glyph unicode="&#xf5;" horiz-adv-x="1261" d="M68 512q0 236 161 387q165 154 406 154q250 0 403 -150q156 -150 156 -389q0 -234 -158 -389q-158 -152 -407 -152q-248 0 -406 152q-155 149 -155 387zM264 1204q7 144 66.5 221.5t154.5 77.5q63 0 166 -59q76 -43 109 -43q30 0 43.5 22t19.5 82h166 q-6 -146 -61.5 -223.5t-147.5 -77.5q-78 0 -170 51q-91 48 -114 48q-55 0 -64 -99h-168zM367 512q0 -132 74 -211.5t192 -79.5q119 0 190 80q72 84 72 211t-72 211q-70 82 -190 82q-118 0 -192 -82t-74 -211z" />
<glyph unicode="&#xf6;" horiz-adv-x="1261" d="M68 512q0 236 161 387q165 154 406 154q250 0 403 -150q156 -150 156 -389q0 -234 -158 -389q-158 -152 -407 -152q-248 0 -406 152q-155 149 -155 387zM309 1350q0 39 15 69.5t39.5 46.5t54 23.5t58.5 0t53.5 -23.5t39.5 -46.5t15 -69.5q0 -63 -38 -101.5t-100 -38.5 q-58 0 -97.5 39t-39.5 101zM367 512q0 -132 74 -211.5t192 -79.5q119 0 190 80q72 84 72 211t-72 211q-70 82 -190 82q-118 0 -192 -82t-74 -211zM690 1350q0 66 39 104.5t96 38.5q58 0 99 -38.5t41 -104.5q0 -62 -39.5 -101t-100.5 -39q-58 0 -96.5 39t-38.5 101z" />
<glyph unicode="&#xf7;" horiz-adv-x="1433" d="M184 514v180h1065v-180h-1065zM604 240q-4 75 56.5 107.5t120 1t53.5 -108.5q0 -56 -32.5 -87.5t-84.5 -31.5q-51 0 -82 30.5t-31 88.5zM604 958q-3 40 19 71t53.5 43t67 6t57.5 -31q33 -29 33 -89q0 -56 -32.5 -88t-84.5 -32q-51 0 -82 31t-31 89z" />
<glyph unicode="&#xf8;" horiz-adv-x="1261" d="M74 512q0 235 162 387q165 154 405 154q122 0 231 -41l78 121h164l-121 -189q207 -151 207 -430q0 -235 -160 -389q-158 -152 -405 -152q-125 0 -238 43l-78 -120h-161l121 188q-205 153 -205 428zM373 512q0 -118 57 -193l299 469q-49 17 -90 17q-118 0 -192 -82 t-74 -211zM539 238q56 -17 100 -17q118 0 190 80.5t72 210.5q0 120 -59 197z" />
<glyph unicode="&#xf9;" horiz-adv-x="1312" d="M20 780v244h433v-543q0 -118 20 -162q37 -81 150 -81q147 0 219 124v418h-158v244h451v-791h145v-233h-430v145q-91 -172 -330 -172q-276 0 -338 220q-22 86 -22 235v352h-140zM252 1518v8h319l260 -340v-8h-217z" />
<glyph unicode="&#xfa;" horiz-adv-x="1312" d="M20 780v244h433v-543q0 -118 20 -162q37 -81 150 -81q147 0 219 124v418h-158v244h451v-791h145v-233h-430v145q-91 -172 -330 -172q-276 0 -338 220q-22 86 -22 235v352h-140zM444 1178v8l261 340h305v-8l-348 -340h-218z" />
<glyph unicode="&#xfb;" horiz-adv-x="1312" d="M20 780v244h433v-543q0 -118 20 -162q37 -81 150 -81q147 0 219 124v418h-158v244h451v-791h145v-233h-430v145q-91 -172 -330 -172q-276 0 -338 220q-22 86 -22 235v352h-140zM276 1178v8l279 334h162l282 -334v-8h-215l-153 143l-146 -143h-209z" />
<glyph unicode="&#xfc;" horiz-adv-x="1312" d="M20 780v244h433v-543q0 -118 20 -162q37 -81 150 -81q147 0 219 124v418h-158v244h451v-791h145v-233h-430v145q-91 -172 -330 -172q-276 0 -338 220q-22 86 -22 235v352h-140zM299 1350q0 45 20.5 78.5t50.5 48.5t66 15t66 -15t50.5 -48.5t20.5 -78.5 q0 -63 -38.5 -101.5t-98.5 -38.5q-58 0 -97.5 39t-39.5 101zM680 1350q0 66 39 104.5t96 38.5q58 0 98.5 -38.5t40.5 -104.5q0 -62 -39 -101t-100 -39q-58 0 -96.5 39t-38.5 101z" />
<glyph unicode="&#xfd;" horiz-adv-x="1224" d="M10 780v244h553v-244h-104q121 -305 182 -483q15 40 186 483h-120v244h510v-244h-117l-344 -807q-74 -168 -121 -241q-107 -168 -342 -168q-120 0 -199 43v252h8q60 -45 160 -45q95 0 137 51q36 49 56 115l10 40l-334 760h-121zM442 1178v8l260 340h306v-8l-349 -340 h-217z" />
<glyph unicode="&#xfe;" horiz-adv-x="1335" d="M18 -164h136v1411h-136v244h426v-619q39 75 138 128t209 53q202 0 337 -135q138 -135 138 -394q0 -112 -29 -203.5t-77.5 -152.5t-113 -103t-134 -60.5t-142.5 -18.5q-218 0 -321 133v-283h135v-233h-566v233zM449 389q34 -78 106 -120t152 -42q116 0 188 73t72 218 t-78 217q-76 70 -180 70q-84 0 -156.5 -45.5t-103.5 -128.5v-242z" />
<glyph unicode="&#xff;" horiz-adv-x="1224" d="M10 780v244h553v-244h-104q121 -305 182 -483q15 40 186 483h-120v244h510v-244h-117l-344 -807q-74 -168 -121 -241q-107 -168 -342 -168q-120 0 -199 43v252h8q60 -45 160 -45q95 0 137 51q36 49 56 115l10 40l-334 760h-121zM295 1350q0 45 20.5 78.5t50.5 48.5t66 15 t66 -15t50.5 -48.5t20.5 -78.5q0 -63 -38.5 -101.5t-98.5 -38.5q-58 0 -97.5 39t-39.5 101zM676 1350q0 66 39 104.5t96 38.5q58 0 98.5 -38.5t40.5 -104.5q0 -62 -39 -101t-100 -39q-58 0 -96.5 39t-38.5 101z" />
<glyph unicode="&#x152;" horiz-adv-x="2238" d="M86 705q0 338 207 536q206 197 500 197q127 0 239 -43t172 -119v135h918l10 -399h-238l-12 151h-364v-313h446v-250h-446v-352h415l13 172h235l-10 -420h-967v137q-144 -164 -413 -164q-298 0 -502 195q-203 194 -203 537zM410 713q0 -227 118 -351t306 -124 q262 0 370 215v505q-99 218 -373 218q-185 0 -305 -129q-116 -125 -116 -334z" />
<glyph unicode="&#x153;" horiz-adv-x="1964" d="M74 514q0 126 50 233.5t134 172.5q179 133 373 133q277 0 403 -172q61 79 168 125.5t215 46.5q231 0 355 -126t129 -360q0 -63 -9 -127h-714q13 -104 94.5 -162.5t212.5 -58.5q212 0 368 117h9v-254q-165 -109 -414 -109q-134 0 -244 45.5t-174 124.5 q-147 -170 -403 -170q-143 0 -265 58q-128 59 -208 187t-80 296zM373 516q0 -140 75 -217.5t187 -77.5q114 0 185 76t71 219q0 138 -72.5 213.5t-185.5 75.5q-111 0 -185.5 -77.5t-74.5 -211.5zM1182 618h444v11q0 97 -56.5 147.5t-156.5 50.5q-76 0 -147 -53 q-72 -54 -84 -156z" />
<glyph unicode="&#x178;" horiz-adv-x="1423" d="M6 1169v242h635v-242h-125l221 -376q73 127 228 376h-142v242h594v-242h-151l-400 -626v-301h164v-242h-649v242h166v301l-395 626h-146zM385 1671q0 45 20.5 78.5t50.5 48.5t66 15t66 -15t50.5 -48.5t20.5 -78.5q0 -61 -38.5 -100t-98.5 -39q-58 0 -97.5 38.5 t-39.5 100.5zM782 1671q0 39 15 69.5t39.5 46.5t54 23.5t58.5 0t53.5 -23.5t39.5 -46.5t15 -69.5q0 -61 -38.5 -100t-98.5 -39q-58 0 -98 38.5t-40 100.5z" />
<glyph unicode="&#x2c6;" horiz-adv-x="430" d="M-145 1178v8l278 334h162l283 -334v-8h-216l-153 143l-146 -143h-208z" />
<glyph unicode="&#x2dc;" horiz-adv-x="430" d="M-147 1204q7 144 66.5 221.5t154.5 77.5q63 0 166 -59q76 -43 108 -43q30 0 44 22t20 82h166q-6 -146 -61.5 -223.5t-147.5 -77.5q-78 0 -170 51q-91 48 -115 48q-55 0 -64 -99h-167z" />
<glyph unicode="&#x2000;" horiz-adv-x="938" />
<glyph unicode="&#x2001;" horiz-adv-x="1876" />
<glyph unicode="&#x2002;" horiz-adv-x="938" />
<glyph unicode="&#x2003;" horiz-adv-x="1876" />
<glyph unicode="&#x2004;" horiz-adv-x="625" />
<glyph unicode="&#x2005;" horiz-adv-x="469" />
<glyph unicode="&#x2006;" horiz-adv-x="312" />
<glyph unicode="&#x2007;" horiz-adv-x="312" />
<glyph unicode="&#x2008;" horiz-adv-x="234" />
<glyph unicode="&#x2009;" horiz-adv-x="375" />
<glyph unicode="&#x200a;" horiz-adv-x="104" />
<glyph unicode="&#x2010;" horiz-adv-x="661" d="M76 455v219h510v-219h-510z" />
<glyph unicode="&#x2011;" horiz-adv-x="661" d="M76 455v219h510v-219h-510z" />
<glyph unicode="&#x2012;" horiz-adv-x="661" d="M76 455v219h510v-219h-510z" />
<glyph unicode="&#x2013;" horiz-adv-x="1112" d="M76 461v201h960v-201h-960z" />
<glyph unicode="&#x2014;" horiz-adv-x="1736" d="M76 461v201h1583v-201h-1583z" />
<glyph unicode="&#x2018;" horiz-adv-x="419" d="M35 1057q0 126 63 237q65 115 150 179h190v-9q-75 -68 -121.5 -173t-46.5 -218q0 -104 31 -180h-244q-22 64 -22 164z" />
<glyph unicode="&#x2019;" horiz-adv-x="419" d="M-23 893v8q74 65 121 170.5t47 220.5q0 102 -28 181h241q25 -61 25 -164q0 -120 -61.5 -233.5t-153.5 -182.5h-191z" />
<glyph unicode="&#x201a;" horiz-adv-x="417" d="M-23 -274q75 65 121.5 169.5t46.5 219.5q0 104 -28 180h241q25 -61 25 -162q0 -122 -61 -234t-154 -182h-191v9z" />
<glyph unicode="&#x201c;" horiz-adv-x="806" d="M35 1057q0 126 63 237q65 115 150 179h190v-9q-75 -68 -121.5 -173t-46.5 -218q0 -104 31 -180h-244q-22 64 -22 164zM426 1057q0 122 60.5 234t152.5 182h190v-9q-75 -68 -121 -172.5t-46 -218.5q0 -107 30 -180h-243q-23 67 -23 164z" />
<glyph unicode="&#x201d;" horiz-adv-x="806" d="M-23 893v8q74 65 121 170.5t47 220.5q0 102 -28 181h241q25 -61 25 -164q0 -120 -61.5 -233.5t-153.5 -182.5h-191zM369 893v8q75 68 121.5 173t46.5 218q0 105 -31 181h244q22 -64 22 -164q0 -122 -60.5 -234t-152.5 -182h-190z" />
<glyph unicode="&#x201e;" horiz-adv-x="806" d="M-23 -274q75 65 121.5 169.5t46.5 219.5q0 104 -28 180h241q25 -61 25 -162q0 -122 -61 -234t-154 -182h-191v9zM369 -274q75 69 121.5 172.5t46.5 216.5q0 107 -31 180h244q22 -61 22 -162q0 -122 -60.5 -234.5t-152.5 -181.5h-190v9z" />
<glyph unicode="&#x2022;" horiz-adv-x="745" d="M86 524q0 141 86 215q88 76 201 76t198 -76q86 -74 86 -215q0 -130 -79.5 -210.5t-204.5 -80.5q-124 0 -205.5 80t-81.5 211z" />
<glyph unicode="&#x2026;" horiz-adv-x="1996" d="M182 150q0 83 51.5 130.5t124.5 47.5q72 0 123 -48t51 -130q0 -77 -49 -126t-125 -49q-75 0 -125.5 49t-50.5 126zM823 150q0 83 51.5 130.5t124.5 47.5q72 0 123.5 -48t51.5 -130q0 -77 -49.5 -126t-125.5 -49q-75 0 -125.5 49t-50.5 126zM1464 150q-2 67 33.5 113 t88 56.5t105 0t88 -56.5t33.5 -113q0 -77 -49 -126t-125 -49q-75 0 -124.5 48.5t-49.5 126.5z" />
<glyph unicode="&#x202f;" horiz-adv-x="375" />
<glyph unicode="&#x2039;" horiz-adv-x="608" d="M41 516l283 377h231l-279 -377l281 -377h-231z" />
<glyph unicode="&#x203a;" horiz-adv-x="608" d="M51 893h232l284 -377l-282 -377h-232l279 377z" />
<glyph unicode="&#x205f;" horiz-adv-x="469" />
<glyph unicode="&#x20ac;" horiz-adv-x="1419" d="M115 475v129h143q-4 66 -4 80q0 52 2 66h-141v129h157q50 242 222.5 376t418.5 134q298 0 418 -111l8 -328h-204l-11 156q-92 27 -174 27q-284 0 -360 -254h444v-129h-469q-2 -14 -2 -60q0 -68 2 -86h469v-129h-440q76 -242 367 -242q213 0 366 123h8v-268 q-150 -117 -432 -117q-251 0 -414.5 130t-214.5 374h-159z" />
<glyph unicode="&#x2122;" horiz-adv-x="1892" d="M84 1149v262h674v-262h-127l-4 104h-113v-436h88v-143h-369v143h89v436h-107l-4 -104h-127zM829 674v143h89v440h-89v154h353q110 -295 137 -383q40 122 137 383h344v-154h-86v-440h86v-143h-346v143h80q0 357 2 410q-25 -87 -156 -424h-129l-161 424q6 -132 6 -410h80 v-143h-347z" />
<glyph unicode="&#x25fc;" horiz-adv-x="1024" d="M0 0v1024h1024v-1024h-1024z" />
</font>
</defs>
</svg>
